M48
; DRILL file {KiCad 9.0.0} date 2025-06-26T17:33:32-0400
; FORMAT={-:-/ absolute / inch / decimal}
; #@! TF.CreationDate,2025-06-26T17:33:32-04:00
; #@! TF.GenerationSoftware,Kicad,Pcbnew,9.0.0
; #@! TF.FileFunction,Plated,1,4,PTH
FMAT,2
INCH
; #@! TA.AperFunction,Plated,PTH,ViaDrill
T1C0.0118
; #@! TA.AperFunction,Plated,PTH,ComponentDrill
T2C0.0118
; #@! TA.AperFunction,Plated,PTH,ComponentDrill
T3C0.0315
; #@! TA.AperFunction,Plated,PTH,ComponentDrill
T4C0.0394
; #@! TA.AperFunction,Plated,PTH,ComponentDrill
T5C0.0748
%
G90
G05
T1
X3.1969Y-1.5354
X3.1969Y-1.685
X3.2756Y-2.4567
X3.2835Y-2.2047
X3.315Y-1.8583
X3.315Y-1.9606
X3.3622Y-1.4016
X3.3622Y-1.4488
X3.3622Y-1.4961
X3.4331Y-2.3543
X3.4331Y-2.4094
X3.4646Y-2.315
X3.5591Y-1.4016
X3.5591Y-1.4488
X3.5906Y-1.6614
X3.5984Y-1.622
X3.5984Y-1.6929
X3.6614Y-1.8661
X3.6614Y-1.9685
X3.7244Y-1.622
X3.7323Y-1.4724
X3.7323Y-1.7087
X3.7559Y-1.0315
X3.7559Y-1.063
X3.7559Y-1.0945
X3.7559Y-1.126
X3.7559Y-1.1575
X3.7559Y-1.189
X3.7559Y-1.3543
X3.7559Y-1.3858
X3.7559Y-1.4173
X3.7559Y-1.4488
X3.7638Y-1.3228
X3.7638Y-1.6378
X3.7638Y-1.7323
X3.7795Y-1.2283
X3.7795Y-1.2598
X3.7795Y-1.2913
X3.7874Y-1.748
X3.7953Y-1.6535
X3.8189Y-1.6772
X3.8189Y-1.7638
X3.8504Y-1.685
X3.8583Y-1.2283
X3.8583Y-1.2598
X3.8583Y-1.2913
X3.8583Y-1.7638
X3.874Y-1.3228
X3.874Y-1.4016
X3.8819Y-1.0315
X3.8819Y-1.063
X3.8819Y-1.0945
X3.8819Y-1.126
X3.8819Y-1.1575
X3.8819Y-1.189
X3.8819Y-1.6772
X3.8898Y-1.4252
X3.8898Y-1.4567
X3.8898Y-1.4882
X3.8898Y-1.5197
X3.8898Y-1.5512
X3.8898Y-1.5827
X3.8898Y-1.6142
X3.8898Y-1.6457
X3.8976Y-1.7559
X3.9055Y-1.3307
X3.9291Y-1.3465
X3.9291Y-1.748
X3.9528Y-1.3701
X3.9528Y-1.7165
X3.9685Y-1.4016
X3.9685Y-1.4331
X3.9685Y-1.4646
X3.9685Y-1.4961
X3.9685Y-1.5276
X3.9685Y-1.5591
X3.9685Y-1.5906
X3.9685Y-1.622
X3.9685Y-1.6535
X3.9685Y-1.685
X4.0236Y-1.7953
X4.0709Y-1.6772
X4.1137Y-1.3105
X4.1575Y-1.5118
X4.1575Y-1.5669
X4.1575Y-1.685
X4.1654Y-1.6299
X4.1732Y-1.4803
X4.2362Y-1.1181
X4.3386Y-1.1181
X4.3386Y-1.252
X4.3386Y-1.8268
X4.3465Y-2.2677
X4.3937Y-1.8504
X4.4409Y-2.3465
X4.4409Y-2.5197
X4.4488Y-1.2441
X4.4488Y-1.8504
X4.5039Y-1.2441
X4.5039Y-1.8031
X4.5761Y-2.5994
X4.6457Y-1.7717
X4.6457Y-2.1024
X4.6457Y-2.1575
X4.6535Y-1.6457
X4.6614Y-2.189
X4.6614Y-2.2205
X4.6614Y-2.252
X4.6772Y-2.0709
X4.6772Y-2.1024
X4.6772Y-2.1575
X4.6929Y-2.189
X4.7244Y-2.189
X4.7559Y-2.189
X4.8031Y-1.9764
X4.8268Y-1.378
X4.8346Y-1.7717
X4.9685Y-2.6929
X5.0Y-2.0079
X5.0157Y-2.6929
X5.0177Y-2.3465
X5.0394Y-1.748
X5.0472Y-2.126
X5.0472Y-2.2992
X5.0945Y-1.9134
X5.1024Y-1.7087
X5.1102Y-2.1417
X5.126Y-1.9528
X5.315Y-1.252
X5.3268Y-1.6102
X5.3622Y-1.252
X5.3701Y-2.126
X5.5984Y-2.7008
X5.6398Y-2.3465
X5.6457Y-2.7008
X5.6535Y-1.748
X5.7008Y-2.1339
X5.7244Y-1.7087
X5.7244Y-1.9134
X5.7402Y-2.126
X5.7559Y-1.9528
X5.937Y-1.252
X5.9388Y-1.6081
X5.9843Y-1.252
X5.9921Y-2.1181
X6.1417Y-1.8661
X6.2205Y-2.7008
X6.2677Y-1.748
X6.2677Y-2.7008
X6.2736Y-2.3465
X6.324Y-1.8909
X6.3386Y-1.7087
X6.3465Y-2.1181
X6.3642Y-1.9402
X6.5591Y-1.252
X6.5687Y-1.6063
X6.6063Y-1.252
X6.6063Y-2.1102
X6.874Y-1.4803
X6.874Y-2.378
X6.8819Y-1.811
X6.9606Y-1.9606
T2
X4.0945Y-2.0866
X4.0945Y-2.126
X4.0945Y-2.1654
X4.0945Y-2.3465
X4.0945Y-2.3858
X4.0945Y-2.4252
X4.0945Y-2.8031
X4.0945Y-2.8425
X4.0945Y-2.8819
X4.1142Y-2.1063
X4.1142Y-2.1457
X4.1142Y-2.3661
X4.1142Y-2.4055
X4.1142Y-2.8228
X4.1142Y-2.8622
X4.1339Y-2.0866
X4.1339Y-2.126
X4.1339Y-2.1654
X4.1339Y-2.3465
X4.1339Y-2.3858
X4.1339Y-2.4252
X4.1339Y-2.8031
X4.1339Y-2.8425
X4.1339Y-2.8819
X4.153Y-2.1456
X4.153Y-2.4054
X4.153Y-2.8621
X4.1535Y-2.1063
X4.1535Y-2.3661
X4.1535Y-2.8228
X4.1732Y-2.0866
X4.1732Y-2.126
X4.1732Y-2.1654
X4.1732Y-2.3465
X4.1732Y-2.3858
X4.1732Y-2.4252
X4.1732Y-2.8031
X4.1732Y-2.8425
X4.1732Y-2.8819
X4.1929Y-2.1063
X4.1929Y-2.1457
X4.1929Y-2.3661
X4.1929Y-2.4055
X4.1929Y-2.8228
X4.1929Y-2.8622
X4.2126Y-2.0866
X4.2126Y-2.126
X4.2126Y-2.1654
X4.2126Y-2.3465
X4.2126Y-2.3858
X4.2126Y-2.4252
X4.2126Y-2.8031
X4.2126Y-2.8425
X4.2126Y-2.8819
X4.2323Y-2.1063
X4.2323Y-2.1457
X4.2323Y-2.3661
X4.2323Y-2.4055
X4.2323Y-2.8228
X4.2323Y-2.8622
X4.252Y-2.0866
X4.252Y-2.126
X4.252Y-2.1654
X4.252Y-2.3465
X4.252Y-2.3858
X4.252Y-2.4252
X4.252Y-2.8031
X4.252Y-2.8425
X4.252Y-2.8819
X4.6457Y-2.8031
X4.6457Y-2.8425
X4.6457Y-2.8819
X4.6654Y-2.8228
X4.6654Y-2.8622
X4.685Y-2.8031
X4.685Y-2.8425
X4.685Y-2.8819
X4.7042Y-2.8621
X4.7047Y-2.8228
X4.7244Y-2.8031
X4.7244Y-2.8425
X4.7244Y-2.8819
X4.7441Y-2.8228
X4.7441Y-2.8622
X4.7638Y-2.8031
X4.7638Y-2.8425
X4.7638Y-2.8819
X4.7835Y-2.8228
X4.7835Y-2.8622
X4.8031Y-2.8031
X4.8031Y-2.8425
X4.8031Y-2.8819
T3
X4.6063Y-1.063
X4.6063Y-1.1417
X4.685Y-1.063
X4.685Y-1.1417
X4.7638Y-1.063
X4.7638Y-1.1417
T4
X3.5472Y-2.8081
X3.9803Y-2.8081
T5
X3.6654Y-2.4144
X3.8622Y-2.4144
M30
