%TF.GenerationSoftware,KiCad,Pcbnew,9.0.0*%
%TF.CreationDate,2025-06-26T17:33:30-04:00*%
%TF.ProjectId,gps-seven-seg-clock,6770732d-7365-4766-956e-2d7365672d63,rev?*%
%TF.SameCoordinates,Original*%
%TF.FileFunction,Copper,L3,Inr*%
%TF.FilePolarity,Positive*%
%FSLAX46Y46*%
G04 Gerber Fmt 4.6, Leading zero omitted, Abs format (unit mm)*
G04 Created by KiCad (PCBNEW 9.0.0) date 2025-06-26 17:33:30*
%MOMM*%
%LPD*%
G01*
G04 APERTURE LIST*
G04 Aperture macros list*
%AMRoundRect*
0 Rectangle with rounded corners*
0 $1 Rounding radius*
0 $2 $3 $4 $5 $6 $7 $8 $9 X,Y pos of 4 corners*
0 Add a 4 corners polygon primitive as box body*
4,1,4,$2,$3,$4,$5,$6,$7,$8,$9,$2,$3,0*
0 Add four circle primitives for the rounded corners*
1,1,$1+$1,$2,$3*
1,1,$1+$1,$4,$5*
1,1,$1+$1,$6,$7*
1,1,$1+$1,$8,$9*
0 Add four rect primitives between the rounded corners*
20,1,$1+$1,$2,$3,$4,$5,0*
20,1,$1+$1,$4,$5,$6,$7,0*
20,1,$1+$1,$6,$7,$8,$9,0*
20,1,$1+$1,$8,$9,$2,$3,0*%
G04 Aperture macros list end*
%TA.AperFunction,ComponentPad*%
%ADD10C,0.600000*%
%TD*%
%TA.AperFunction,ComponentPad*%
%ADD11C,1.400000*%
%TD*%
%TA.AperFunction,ComponentPad*%
%ADD12RoundRect,0.770000X0.980000X0.980000X-0.980000X0.980000X-0.980000X-0.980000X0.980000X-0.980000X0*%
%TD*%
%TA.AperFunction,ComponentPad*%
%ADD13C,3.500000*%
%TD*%
%TA.AperFunction,ComponentPad*%
%ADD14R,1.350000X1.350000*%
%TD*%
%TA.AperFunction,ComponentPad*%
%ADD15O,1.350000X1.350000*%
%TD*%
%TA.AperFunction,ViaPad*%
%ADD16C,0.600000*%
%TD*%
G04 APERTURE END LIST*
D10*
%TO.N,+12V*%
%TO.C,TP4*%
X104000000Y-59600000D03*
X104000000Y-60600000D03*
X104000000Y-61600000D03*
X104500000Y-60100000D03*
X104500000Y-61100000D03*
X105000000Y-59600000D03*
X105000000Y-60600000D03*
X105000000Y-61600000D03*
X105485900Y-61098281D03*
X105500000Y-60100000D03*
X106000000Y-59600000D03*
X106000000Y-60600000D03*
X106000000Y-61600000D03*
X106500000Y-60100000D03*
X106500000Y-61100000D03*
X107000000Y-59600000D03*
X107000000Y-60600000D03*
X107000000Y-61600000D03*
X107500000Y-60100000D03*
X107500000Y-61100000D03*
X108000000Y-59600000D03*
X108000000Y-60600000D03*
X108000000Y-61600000D03*
%TD*%
%TO.N,+3.3V*%
%TO.C,TP3*%
X104000000Y-71200000D03*
X104000000Y-72200000D03*
X104000000Y-73200000D03*
X104500000Y-71700000D03*
X104500000Y-72700000D03*
X105000000Y-71200000D03*
X105000000Y-72200000D03*
X105000000Y-73200000D03*
X105485900Y-72698281D03*
X105500000Y-71700000D03*
X106000000Y-71200000D03*
X106000000Y-72200000D03*
X106000000Y-73200000D03*
X106500000Y-71700000D03*
X106500000Y-72700000D03*
X107000000Y-71200000D03*
X107000000Y-72200000D03*
X107000000Y-73200000D03*
X107500000Y-71700000D03*
X107500000Y-72700000D03*
X108000000Y-71200000D03*
X108000000Y-72200000D03*
X108000000Y-73200000D03*
%TD*%
%TO.N,GND*%
%TO.C,TP2*%
X104000000Y-53000000D03*
X104000000Y-54000000D03*
X104000000Y-55000000D03*
X104500000Y-53500000D03*
X104500000Y-54500000D03*
X105000000Y-53000000D03*
X105000000Y-54000000D03*
X105000000Y-55000000D03*
X105485900Y-54498281D03*
X105500000Y-53500000D03*
X106000000Y-53000000D03*
X106000000Y-54000000D03*
X106000000Y-55000000D03*
X106500000Y-53500000D03*
X106500000Y-54500000D03*
X107000000Y-53000000D03*
X107000000Y-54000000D03*
X107000000Y-55000000D03*
X107500000Y-53500000D03*
X107500000Y-54500000D03*
X108000000Y-53000000D03*
X108000000Y-54000000D03*
X108000000Y-55000000D03*
%TD*%
%TO.N,VDD*%
%TO.C,TP1*%
X118000000Y-71200000D03*
X118000000Y-72200000D03*
X118000000Y-73200000D03*
X118500000Y-71700000D03*
X118500000Y-72700000D03*
X119000000Y-71200000D03*
X119000000Y-72200000D03*
X119000000Y-73200000D03*
X119485900Y-72698281D03*
X119500000Y-71700000D03*
X120000000Y-71200000D03*
X120000000Y-72200000D03*
X120000000Y-73200000D03*
X120500000Y-71700000D03*
X120500000Y-72700000D03*
X121000000Y-71200000D03*
X121000000Y-72200000D03*
X121000000Y-73200000D03*
X121500000Y-71700000D03*
X121500000Y-72700000D03*
X122000000Y-71200000D03*
X122000000Y-72200000D03*
X122000000Y-73200000D03*
%TD*%
D11*
%TO.N,*%
%TO.C,J5*%
X101100000Y-71325000D03*
X90100000Y-71325000D03*
D12*
%TO.N,+12V*%
X93100000Y-61325000D03*
D13*
%TO.N,GND*%
X98100000Y-61325000D03*
%TD*%
D14*
%TO.N,/MISO*%
%TO.C,J4*%
X117000000Y-27000000D03*
D15*
%TO.N,+3.3V*%
X117000000Y-29000000D03*
%TO.N,/SCK*%
X119000000Y-27000000D03*
%TO.N,/MOSI*%
X119000000Y-29000000D03*
%TO.N,/RESET*%
X121000000Y-27000000D03*
%TO.N,GND*%
X121000000Y-29000000D03*
%TD*%
D16*
%TO.N,+12V*%
X118800000Y-52600000D03*
X118000000Y-53400000D03*
X118000000Y-54800000D03*
X118400000Y-57200000D03*
X118400000Y-56400000D03*
X118800000Y-53400000D03*
X118800000Y-54800000D03*
X120800000Y-55600000D03*
X120000000Y-55600000D03*
X119200000Y-55600000D03*
X118400000Y-55600000D03*
%TO.N,GND*%
X122000000Y-50200000D03*
X161200000Y-53800000D03*
%TO.N,Net-(U10B-+)*%
X128200000Y-54000000D03*
X110400000Y-57600000D03*
%TO.N,GND*%
X127000000Y-51000000D03*
X128200000Y-58400000D03*
X112800000Y-59600000D03*
%TO.N,/SCL*%
X105600000Y-38400000D03*
%TO.N,/SDA*%
X106000000Y-37600000D03*
X90400000Y-36800000D03*
%TO.N,/SCL*%
X90400000Y-35600000D03*
%TO.N,GND*%
X91400000Y-43000000D03*
X91200000Y-42200000D03*
X91400000Y-41200000D03*
X112800000Y-64000000D03*
X116232500Y-66025000D03*
X81200000Y-39000000D03*
%TO.N,Net-(J9-Pin_3)*%
X88000000Y-58800000D03*
%TO.N,/RESET*%
X105600000Y-39800000D03*
%TO.N,/RX*%
X105600000Y-42800000D03*
%TO.N,/TX*%
X105800000Y-41400000D03*
%TO.N,GND*%
X98600000Y-26200000D03*
X98600000Y-27000000D03*
X98600000Y-27800000D03*
X98600000Y-29400000D03*
X98600000Y-30200000D03*
X98600000Y-28600000D03*
X95400000Y-26200000D03*
X95400000Y-27000000D03*
X95400000Y-27800000D03*
X95400000Y-28600000D03*
X95400000Y-29400000D03*
X95400000Y-30200000D03*
X94800000Y-37400000D03*
X95400000Y-36800000D03*
X98400000Y-35600000D03*
X98800000Y-36200000D03*
X98800000Y-37000000D03*
X98800000Y-37800000D03*
X98800000Y-38600000D03*
X98800000Y-39400000D03*
X98800000Y-40200000D03*
X98800000Y-41000000D03*
X98800000Y-41800000D03*
X98600000Y-42600000D03*
X97800000Y-42800000D03*
X97000000Y-42600000D03*
X96400000Y-42000000D03*
X95600000Y-41600000D03*
X94600000Y-41200000D03*
X94800000Y-43400000D03*
X95600000Y-44000000D03*
X96200000Y-44400000D03*
X97000000Y-44800000D03*
X98000000Y-44800000D03*
X99000000Y-44600000D03*
X99800000Y-44400000D03*
X100400000Y-43600000D03*
X100800000Y-42800000D03*
X100800000Y-42000000D03*
X100800000Y-41200000D03*
X100800000Y-40400000D03*
X100800000Y-39600000D03*
X100800000Y-38800000D03*
X100800000Y-38000000D03*
X100800000Y-37200000D03*
X100800000Y-36400000D03*
X100800000Y-35600000D03*
X100400000Y-34800000D03*
X99800000Y-34200000D03*
X99200000Y-33800000D03*
X95400000Y-36000000D03*
X95400000Y-35200000D03*
X95400000Y-34400000D03*
X98400000Y-33600000D03*
X95600000Y-33600000D03*
X96000000Y-32800000D03*
X98000000Y-32800000D03*
X98000000Y-32000000D03*
X96000000Y-32000000D03*
X98000000Y-31200000D03*
X96000000Y-31200000D03*
%TO.N,Net-(J9-Pin_3)*%
X103400000Y-42600000D03*
%TO.N,/TX*%
X93000000Y-47400000D03*
%TO.N,/RX*%
X93000000Y-50000000D03*
%TO.N,/TX*%
X87200000Y-61200000D03*
%TO.N,/RX*%
X87200000Y-59800000D03*
%TO.N,/SDA1*%
X145400000Y-48600000D03*
%TO.N,/SCL1*%
X146200000Y-49600000D03*
%TO.N,/SDA1*%
X129400000Y-48600000D03*
%TO.N,/SCL1*%
X130200000Y-49600000D03*
%TO.N,/SDA1*%
X160630000Y-48030000D03*
%TO.N,/SCL1*%
X161650000Y-49280000D03*
X114400000Y-45800000D03*
%TO.N,/SDA1*%
X110200000Y-46400000D03*
%TO.N,+3.3V*%
X156000000Y-47400000D03*
%TO.N,GND*%
X129600000Y-43400000D03*
%TO.N,+3.3V*%
X128000000Y-44400000D03*
X143600000Y-44400000D03*
X159200000Y-44400000D03*
%TO.N,GND*%
X161000000Y-43400000D03*
X145400000Y-43400000D03*
%TO.N,+3.3V*%
X144800000Y-54200000D03*
%TO.N,GND*%
X145800000Y-54000000D03*
X129800000Y-54400000D03*
%TO.N,VDD*%
X158000000Y-68600000D03*
X159200000Y-68600000D03*
X142200000Y-68600000D03*
X143400000Y-68600000D03*
X127400000Y-68400000D03*
X126200000Y-68400000D03*
%TO.N,GND*%
X167800000Y-53600000D03*
X152200000Y-53800000D03*
X136400000Y-54000000D03*
%TO.N,+3.3V*%
X83400000Y-56000000D03*
%TO.N,GND*%
X83200000Y-62400000D03*
X159350000Y-59600000D03*
X143250000Y-59600000D03*
X127450000Y-59600000D03*
X135300000Y-40900000D03*
X166845000Y-40800000D03*
X150845000Y-40845000D03*
%TO.N,VDD*%
X152000000Y-31800000D03*
X150800000Y-31800000D03*
X135000000Y-31800000D03*
X136200000Y-31800000D03*
X167800000Y-31800000D03*
X166600000Y-31800000D03*
%TO.N,/PPS*%
X102200000Y-45600000D03*
%TO.N,/GPS_RX*%
X84200000Y-49800000D03*
%TO.N,/GPS_TX*%
X84200000Y-47200000D03*
%TO.N,/PPS*%
X85400000Y-38000000D03*
%TO.N,/GPS_RX*%
X85400000Y-36800000D03*
%TO.N,/GPS_TX*%
X85400000Y-35600000D03*
%TO.N,+3.3V*%
X81200000Y-42800000D03*
%TO.N,GND*%
X122600000Y-35000000D03*
X118200000Y-41800000D03*
X118000000Y-45000000D03*
X122800000Y-45000000D03*
%TO.N,+3.3V*%
X111600000Y-47000000D03*
%TO.N,GND*%
X113000000Y-47000000D03*
X113000000Y-31600000D03*
%TO.N,+3.3V*%
X114400000Y-31600000D03*
X110200000Y-31800000D03*
X104487500Y-33287500D03*
%TO.N,GND*%
X107600000Y-28400000D03*
X110200000Y-28400000D03*
X176800000Y-49800000D03*
X174800000Y-46000000D03*
%TO.N,VDD*%
X174600000Y-37600000D03*
X174600000Y-60400000D03*
%TD*%
%TA.AperFunction,Conductor*%
%TO.N,+3.3V*%
G36*
X89837539Y-25520185D02*
G01*
X89883294Y-25572989D01*
X89894500Y-25624500D01*
X89894500Y-34682064D01*
X89897896Y-34740542D01*
X89897900Y-34740592D01*
X89900920Y-34766498D01*
X89901221Y-34769079D01*
X89911371Y-34826817D01*
X89911371Y-34826819D01*
X89911372Y-34826820D01*
X89918250Y-34844301D01*
X89924476Y-34913893D01*
X89892089Y-34975803D01*
X89890541Y-34977380D01*
X89778210Y-35089711D01*
X89690609Y-35220814D01*
X89690602Y-35220827D01*
X89630264Y-35366498D01*
X89630261Y-35366510D01*
X89599500Y-35521153D01*
X89599500Y-35678846D01*
X89630261Y-35833489D01*
X89630264Y-35833501D01*
X89690602Y-35979172D01*
X89690609Y-35979185D01*
X89778210Y-36110288D01*
X89778213Y-36110292D01*
X89780240Y-36112319D01*
X89780962Y-36113642D01*
X89782076Y-36114999D01*
X89781818Y-36115210D01*
X89813725Y-36173642D01*
X89808741Y-36243334D01*
X89782001Y-36284939D01*
X89782076Y-36285001D01*
X89781552Y-36285639D01*
X89780240Y-36287681D01*
X89778213Y-36289707D01*
X89778210Y-36289711D01*
X89690609Y-36420814D01*
X89690602Y-36420827D01*
X89630264Y-36566498D01*
X89630261Y-36566510D01*
X89599500Y-36721153D01*
X89599500Y-36878846D01*
X89630261Y-37033489D01*
X89630264Y-37033501D01*
X89690602Y-37179172D01*
X89690609Y-37179185D01*
X89778210Y-37310288D01*
X89778213Y-37310292D01*
X89892113Y-37424192D01*
X89925598Y-37485515D01*
X89923409Y-37546808D01*
X89914976Y-37575524D01*
X89905912Y-37638572D01*
X89894500Y-37717947D01*
X89894500Y-45476000D01*
X89894501Y-45476009D01*
X89906052Y-45583450D01*
X89906054Y-45583462D01*
X89917260Y-45634972D01*
X89951383Y-45737497D01*
X89951386Y-45737503D01*
X90029171Y-45858537D01*
X90029179Y-45858548D01*
X90074923Y-45911340D01*
X90074926Y-45911343D01*
X90074930Y-45911347D01*
X90183664Y-46005567D01*
X90183667Y-46005568D01*
X90183668Y-46005569D01*
X90244820Y-46033497D01*
X90314541Y-46065338D01*
X90381580Y-46085023D01*
X90381584Y-46085024D01*
X90524000Y-46105500D01*
X90524003Y-46105500D01*
X101275990Y-46105500D01*
X101276000Y-46105500D01*
X101383456Y-46093947D01*
X101434967Y-46082741D01*
X101449087Y-46078040D01*
X101518912Y-46075543D01*
X101575933Y-46108012D01*
X101689707Y-46221786D01*
X101689711Y-46221789D01*
X101820814Y-46309390D01*
X101820827Y-46309397D01*
X101966498Y-46369735D01*
X101966503Y-46369737D01*
X102116131Y-46399500D01*
X102121153Y-46400499D01*
X102121156Y-46400500D01*
X102121158Y-46400500D01*
X102278844Y-46400500D01*
X102278845Y-46400499D01*
X102433497Y-46369737D01*
X102550790Y-46321153D01*
X109399500Y-46321153D01*
X109399500Y-46478846D01*
X109430261Y-46633489D01*
X109430264Y-46633501D01*
X109490602Y-46779172D01*
X109490609Y-46779185D01*
X109578210Y-46910288D01*
X109578213Y-46910292D01*
X109689707Y-47021786D01*
X109689711Y-47021789D01*
X109820814Y-47109390D01*
X109820827Y-47109397D01*
X109958683Y-47166498D01*
X109966503Y-47169737D01*
X110121153Y-47200499D01*
X110121156Y-47200500D01*
X110121158Y-47200500D01*
X110278844Y-47200500D01*
X110278845Y-47200499D01*
X110433497Y-47169737D01*
X110579179Y-47109394D01*
X110710289Y-47021789D01*
X110810925Y-46921153D01*
X112199500Y-46921153D01*
X112199500Y-47078846D01*
X112230261Y-47233489D01*
X112230264Y-47233501D01*
X112290602Y-47379172D01*
X112290609Y-47379185D01*
X112378210Y-47510288D01*
X112378213Y-47510292D01*
X112489707Y-47621786D01*
X112489711Y-47621789D01*
X112620814Y-47709390D01*
X112620827Y-47709397D01*
X112766498Y-47769735D01*
X112766503Y-47769737D01*
X112901039Y-47796498D01*
X112921153Y-47800499D01*
X112921156Y-47800500D01*
X112921158Y-47800500D01*
X113078844Y-47800500D01*
X113078845Y-47800499D01*
X113233497Y-47769737D01*
X113379179Y-47709394D01*
X113510289Y-47621789D01*
X113621789Y-47510289D01*
X113709394Y-47379179D01*
X113769737Y-47233497D01*
X113800500Y-47078842D01*
X113800500Y-46921158D01*
X113800500Y-46921155D01*
X113800499Y-46921153D01*
X113780543Y-46820827D01*
X113769737Y-46766503D01*
X113737929Y-46689711D01*
X113709397Y-46620827D01*
X113709390Y-46620814D01*
X113649270Y-46530839D01*
X113649269Y-46530838D01*
X113621789Y-46489711D01*
X113561101Y-46429023D01*
X113561095Y-46429016D01*
X113510292Y-46378213D01*
X113510288Y-46378210D01*
X113379185Y-46290609D01*
X113379172Y-46290602D01*
X113233501Y-46230264D01*
X113233489Y-46230261D01*
X113078845Y-46199500D01*
X113078842Y-46199500D01*
X112921158Y-46199500D01*
X112921155Y-46199500D01*
X112766510Y-46230261D01*
X112766498Y-46230264D01*
X112620827Y-46290602D01*
X112620814Y-46290609D01*
X112489711Y-46378210D01*
X112489707Y-46378213D01*
X112378213Y-46489707D01*
X112378210Y-46489711D01*
X112290609Y-46620814D01*
X112290602Y-46620827D01*
X112230264Y-46766498D01*
X112230261Y-46766510D01*
X112199500Y-46921153D01*
X110810925Y-46921153D01*
X110821789Y-46910289D01*
X110881575Y-46820814D01*
X110909390Y-46779185D01*
X110909390Y-46779184D01*
X110909394Y-46779179D01*
X110969737Y-46633497D01*
X111000500Y-46478842D01*
X111000500Y-46321158D01*
X111000500Y-46321155D01*
X111000499Y-46321153D01*
X110980734Y-46221788D01*
X110969737Y-46166503D01*
X110946452Y-46110288D01*
X110909397Y-46020827D01*
X110909390Y-46020814D01*
X110821789Y-45889711D01*
X110821786Y-45889707D01*
X110710292Y-45778213D01*
X110710288Y-45778210D01*
X110624897Y-45721153D01*
X113599500Y-45721153D01*
X113599500Y-45878846D01*
X113630261Y-46033489D01*
X113630264Y-46033501D01*
X113690602Y-46179172D01*
X113690609Y-46179185D01*
X113750728Y-46269159D01*
X113750731Y-46269162D01*
X113778211Y-46310289D01*
X113838896Y-46370974D01*
X113838903Y-46370982D01*
X113889707Y-46421786D01*
X113889711Y-46421789D01*
X114020814Y-46509390D01*
X114020827Y-46509397D01*
X114166498Y-46569735D01*
X114166503Y-46569737D01*
X114316131Y-46599500D01*
X114321153Y-46600499D01*
X114321156Y-46600500D01*
X114321158Y-46600500D01*
X114478844Y-46600500D01*
X114478845Y-46600499D01*
X114633497Y-46569737D01*
X114779179Y-46509394D01*
X114910289Y-46421789D01*
X115021789Y-46310289D01*
X115109394Y-46179179D01*
X115169737Y-46033497D01*
X115200500Y-45878842D01*
X115200500Y-45721158D01*
X115200500Y-45721155D01*
X115200499Y-45721153D01*
X115194422Y-45690602D01*
X115169737Y-45566503D01*
X115150955Y-45521158D01*
X115109397Y-45420827D01*
X115109390Y-45420814D01*
X115021789Y-45289711D01*
X115021786Y-45289707D01*
X114910292Y-45178213D01*
X114910288Y-45178210D01*
X114779185Y-45090609D01*
X114779172Y-45090602D01*
X114633501Y-45030264D01*
X114633489Y-45030261D01*
X114478845Y-44999500D01*
X114478842Y-44999500D01*
X114321158Y-44999500D01*
X114321155Y-44999500D01*
X114166510Y-45030261D01*
X114166498Y-45030264D01*
X114020827Y-45090602D01*
X114020814Y-45090609D01*
X113889711Y-45178210D01*
X113889707Y-45178213D01*
X113778213Y-45289707D01*
X113778210Y-45289711D01*
X113690609Y-45420814D01*
X113690602Y-45420827D01*
X113630264Y-45566498D01*
X113630261Y-45566510D01*
X113599500Y-45721153D01*
X110624897Y-45721153D01*
X110579185Y-45690609D01*
X110579172Y-45690602D01*
X110433501Y-45630264D01*
X110433489Y-45630261D01*
X110278845Y-45599500D01*
X110278842Y-45599500D01*
X110121158Y-45599500D01*
X110121155Y-45599500D01*
X109966510Y-45630261D01*
X109966498Y-45630264D01*
X109820827Y-45690602D01*
X109820814Y-45690609D01*
X109689711Y-45778210D01*
X109689707Y-45778213D01*
X109578213Y-45889707D01*
X109578210Y-45889711D01*
X109490609Y-46020814D01*
X109490602Y-46020827D01*
X109430264Y-46166498D01*
X109430261Y-46166510D01*
X109399500Y-46321153D01*
X102550790Y-46321153D01*
X102579179Y-46309394D01*
X102710289Y-46221789D01*
X102821789Y-46110289D01*
X102909394Y-45979179D01*
X102969737Y-45833497D01*
X103000500Y-45678842D01*
X103000500Y-45521158D01*
X103000500Y-45521155D01*
X103000499Y-45521153D01*
X102980543Y-45420827D01*
X102969737Y-45366503D01*
X102937929Y-45289711D01*
X102909397Y-45220827D01*
X102909390Y-45220814D01*
X102821789Y-45089711D01*
X102821786Y-45089707D01*
X102710292Y-44978213D01*
X102710288Y-44978210D01*
X102624897Y-44921153D01*
X117199500Y-44921153D01*
X117199500Y-45078846D01*
X117230261Y-45233489D01*
X117230264Y-45233501D01*
X117290602Y-45379172D01*
X117290609Y-45379185D01*
X117378210Y-45510288D01*
X117378213Y-45510292D01*
X117489707Y-45621786D01*
X117489711Y-45621789D01*
X117620814Y-45709390D01*
X117620827Y-45709397D01*
X117766498Y-45769735D01*
X117766503Y-45769737D01*
X117921153Y-45800499D01*
X117921156Y-45800500D01*
X117921158Y-45800500D01*
X118078844Y-45800500D01*
X118078845Y-45800499D01*
X118233497Y-45769737D01*
X118379179Y-45709394D01*
X118510289Y-45621789D01*
X118621789Y-45510289D01*
X118709394Y-45379179D01*
X118769737Y-45233497D01*
X118800500Y-45078842D01*
X118800500Y-44921158D01*
X118800500Y-44921155D01*
X118800499Y-44921153D01*
X121999500Y-44921153D01*
X121999500Y-45078846D01*
X122030261Y-45233489D01*
X122030264Y-45233501D01*
X122090602Y-45379172D01*
X122090609Y-45379185D01*
X122178210Y-45510288D01*
X122178213Y-45510292D01*
X122289707Y-45621786D01*
X122289711Y-45621789D01*
X122420814Y-45709390D01*
X122420827Y-45709397D01*
X122566498Y-45769735D01*
X122566503Y-45769737D01*
X122721153Y-45800499D01*
X122721156Y-45800500D01*
X122721158Y-45800500D01*
X122878844Y-45800500D01*
X122878845Y-45800499D01*
X123033497Y-45769737D01*
X123179179Y-45709394D01*
X123310289Y-45621789D01*
X123421789Y-45510289D01*
X123509394Y-45379179D01*
X123569737Y-45233497D01*
X123600500Y-45078842D01*
X123600500Y-44921158D01*
X123600500Y-44921155D01*
X123600499Y-44921153D01*
X123577731Y-44806692D01*
X123569737Y-44766503D01*
X123538588Y-44691302D01*
X123509397Y-44620827D01*
X123509390Y-44620814D01*
X123421789Y-44489711D01*
X123421786Y-44489707D01*
X123310292Y-44378213D01*
X123310288Y-44378210D01*
X123179185Y-44290609D01*
X123179172Y-44290602D01*
X123033501Y-44230264D01*
X123033489Y-44230261D01*
X122878845Y-44199500D01*
X122878842Y-44199500D01*
X122721158Y-44199500D01*
X122721155Y-44199500D01*
X122566510Y-44230261D01*
X122566498Y-44230264D01*
X122420827Y-44290602D01*
X122420814Y-44290609D01*
X122289711Y-44378210D01*
X122289707Y-44378213D01*
X122178213Y-44489707D01*
X122178210Y-44489711D01*
X122090609Y-44620814D01*
X122090602Y-44620827D01*
X122030264Y-44766498D01*
X122030261Y-44766510D01*
X121999500Y-44921153D01*
X118800499Y-44921153D01*
X118777731Y-44806692D01*
X118769737Y-44766503D01*
X118738588Y-44691302D01*
X118709397Y-44620827D01*
X118709390Y-44620814D01*
X118621789Y-44489711D01*
X118621786Y-44489707D01*
X118510292Y-44378213D01*
X118510288Y-44378210D01*
X118379185Y-44290609D01*
X118379172Y-44290602D01*
X118233501Y-44230264D01*
X118233489Y-44230261D01*
X118078845Y-44199500D01*
X118078842Y-44199500D01*
X117921158Y-44199500D01*
X117921155Y-44199500D01*
X117766510Y-44230261D01*
X117766498Y-44230264D01*
X117620827Y-44290602D01*
X117620814Y-44290609D01*
X117489711Y-44378210D01*
X117489707Y-44378213D01*
X117378213Y-44489707D01*
X117378210Y-44489711D01*
X117290609Y-44620814D01*
X117290602Y-44620827D01*
X117230264Y-44766498D01*
X117230261Y-44766510D01*
X117199500Y-44921153D01*
X102624897Y-44921153D01*
X102579185Y-44890609D01*
X102579172Y-44890602D01*
X102433501Y-44830264D01*
X102433489Y-44830261D01*
X102278845Y-44799500D01*
X102278842Y-44799500D01*
X102121158Y-44799500D01*
X102121153Y-44799500D01*
X102053691Y-44812919D01*
X101984099Y-44806692D01*
X101928922Y-44763828D01*
X101905678Y-44697938D01*
X101905500Y-44691302D01*
X101905500Y-42521153D01*
X102599500Y-42521153D01*
X102599500Y-42678846D01*
X102630261Y-42833489D01*
X102630264Y-42833501D01*
X102690602Y-42979172D01*
X102690609Y-42979185D01*
X102778210Y-43110288D01*
X102778213Y-43110292D01*
X102889707Y-43221786D01*
X102889711Y-43221789D01*
X103020814Y-43309390D01*
X103020827Y-43309397D01*
X103166498Y-43369735D01*
X103166503Y-43369737D01*
X103321153Y-43400499D01*
X103321156Y-43400500D01*
X103321158Y-43400500D01*
X103478844Y-43400500D01*
X103478845Y-43400499D01*
X103633497Y-43369737D01*
X103779179Y-43309394D01*
X103910289Y-43221789D01*
X104021789Y-43110289D01*
X104109394Y-42979179D01*
X104169737Y-42833497D01*
X104200500Y-42678842D01*
X104200500Y-42521158D01*
X104200500Y-42521155D01*
X104200499Y-42521153D01*
X104180734Y-42421789D01*
X104169737Y-42366503D01*
X104137929Y-42289711D01*
X104109397Y-42220827D01*
X104109390Y-42220814D01*
X104021789Y-42089711D01*
X104021786Y-42089707D01*
X103910292Y-41978213D01*
X103910288Y-41978210D01*
X103779185Y-41890609D01*
X103779172Y-41890602D01*
X103633501Y-41830264D01*
X103633489Y-41830261D01*
X103478845Y-41799500D01*
X103478842Y-41799500D01*
X103321158Y-41799500D01*
X103321155Y-41799500D01*
X103166510Y-41830261D01*
X103166498Y-41830264D01*
X103020827Y-41890602D01*
X103020814Y-41890609D01*
X102889711Y-41978210D01*
X102889707Y-41978213D01*
X102778213Y-42089707D01*
X102778210Y-42089711D01*
X102690609Y-42220814D01*
X102690602Y-42220827D01*
X102630264Y-42366498D01*
X102630261Y-42366510D01*
X102599500Y-42521153D01*
X101905500Y-42521153D01*
X101905500Y-38321153D01*
X104799500Y-38321153D01*
X104799500Y-38478846D01*
X104830261Y-38633489D01*
X104830264Y-38633501D01*
X104890602Y-38779172D01*
X104890609Y-38779185D01*
X104978210Y-38910288D01*
X104978213Y-38910292D01*
X105080240Y-39012319D01*
X105113725Y-39073642D01*
X105108741Y-39143334D01*
X105080240Y-39187681D01*
X104978213Y-39289707D01*
X104978210Y-39289711D01*
X104890609Y-39420814D01*
X104890602Y-39420827D01*
X104830264Y-39566498D01*
X104830261Y-39566510D01*
X104799500Y-39721153D01*
X104799500Y-39878846D01*
X104830261Y-40033489D01*
X104830264Y-40033501D01*
X104890602Y-40179172D01*
X104890609Y-40179185D01*
X104978210Y-40310288D01*
X104978213Y-40310292D01*
X105089707Y-40421786D01*
X105089711Y-40421789D01*
X105220814Y-40509390D01*
X105220821Y-40509394D01*
X105297373Y-40541102D01*
X105351775Y-40584942D01*
X105373841Y-40651236D01*
X105356562Y-40718935D01*
X105318814Y-40758763D01*
X105289712Y-40778209D01*
X105289707Y-40778213D01*
X105178213Y-40889707D01*
X105178210Y-40889711D01*
X105090609Y-41020814D01*
X105090602Y-41020827D01*
X105030264Y-41166498D01*
X105030261Y-41166510D01*
X104999500Y-41321153D01*
X104999500Y-41478846D01*
X105030261Y-41633489D01*
X105030264Y-41633501D01*
X105090602Y-41779172D01*
X105090609Y-41779185D01*
X105178210Y-41910288D01*
X105178213Y-41910292D01*
X105196529Y-41928608D01*
X105230014Y-41989931D01*
X105225030Y-42059623D01*
X105183158Y-42115556D01*
X105177740Y-42119391D01*
X105089707Y-42178213D01*
X104978213Y-42289707D01*
X104978210Y-42289711D01*
X104890609Y-42420814D01*
X104890602Y-42420827D01*
X104830264Y-42566498D01*
X104830261Y-42566510D01*
X104799500Y-42721153D01*
X104799500Y-42878846D01*
X104830261Y-43033489D01*
X104830264Y-43033501D01*
X104890602Y-43179172D01*
X104890609Y-43179185D01*
X104978210Y-43310288D01*
X104978213Y-43310292D01*
X105089707Y-43421786D01*
X105089711Y-43421789D01*
X105220814Y-43509390D01*
X105220827Y-43509397D01*
X105366498Y-43569735D01*
X105366503Y-43569737D01*
X105521153Y-43600499D01*
X105521156Y-43600500D01*
X105521158Y-43600500D01*
X105678844Y-43600500D01*
X105678845Y-43600499D01*
X105833497Y-43569737D01*
X105979179Y-43509394D01*
X106110289Y-43421789D01*
X106210925Y-43321153D01*
X128799500Y-43321153D01*
X128799500Y-43478846D01*
X128830261Y-43633489D01*
X128830264Y-43633501D01*
X128890602Y-43779172D01*
X128890609Y-43779185D01*
X128978210Y-43910288D01*
X128978213Y-43910292D01*
X129089707Y-44021786D01*
X129089711Y-44021789D01*
X129220814Y-44109390D01*
X129220827Y-44109397D01*
X129366498Y-44169735D01*
X129366503Y-44169737D01*
X129516131Y-44199500D01*
X129521153Y-44200499D01*
X129521156Y-44200500D01*
X129521158Y-44200500D01*
X129678844Y-44200500D01*
X129678845Y-44200499D01*
X129833497Y-44169737D01*
X129979179Y-44109394D01*
X130110289Y-44021789D01*
X130221789Y-43910289D01*
X130309394Y-43779179D01*
X130369737Y-43633497D01*
X130400500Y-43478842D01*
X130400500Y-43321158D01*
X130400500Y-43321155D01*
X130400499Y-43321153D01*
X144599500Y-43321153D01*
X144599500Y-43478846D01*
X144630261Y-43633489D01*
X144630264Y-43633501D01*
X144690602Y-43779172D01*
X144690609Y-43779185D01*
X144778210Y-43910288D01*
X144778213Y-43910292D01*
X144889707Y-44021786D01*
X144889711Y-44021789D01*
X145020814Y-44109390D01*
X145020827Y-44109397D01*
X145166498Y-44169735D01*
X145166503Y-44169737D01*
X145316131Y-44199500D01*
X145321153Y-44200499D01*
X145321156Y-44200500D01*
X145321158Y-44200500D01*
X145478844Y-44200500D01*
X145478845Y-44200499D01*
X145633497Y-44169737D01*
X145779179Y-44109394D01*
X145910289Y-44021789D01*
X146021789Y-43910289D01*
X146109394Y-43779179D01*
X146169737Y-43633497D01*
X146200500Y-43478842D01*
X146200500Y-43321158D01*
X146200500Y-43321155D01*
X146200499Y-43321153D01*
X160199500Y-43321153D01*
X160199500Y-43478846D01*
X160230261Y-43633489D01*
X160230264Y-43633501D01*
X160290602Y-43779172D01*
X160290609Y-43779185D01*
X160378210Y-43910288D01*
X160378213Y-43910292D01*
X160489707Y-44021786D01*
X160489711Y-44021789D01*
X160620814Y-44109390D01*
X160620827Y-44109397D01*
X160766498Y-44169735D01*
X160766503Y-44169737D01*
X160916131Y-44199500D01*
X160921153Y-44200499D01*
X160921156Y-44200500D01*
X160921158Y-44200500D01*
X161078844Y-44200500D01*
X161078845Y-44200499D01*
X161233497Y-44169737D01*
X161379179Y-44109394D01*
X161510289Y-44021789D01*
X161621789Y-43910289D01*
X161709394Y-43779179D01*
X161769737Y-43633497D01*
X161800500Y-43478842D01*
X161800500Y-43321158D01*
X161800500Y-43321155D01*
X161800499Y-43321153D01*
X161780734Y-43221789D01*
X161769737Y-43166503D01*
X161746452Y-43110288D01*
X161709397Y-43020827D01*
X161709390Y-43020814D01*
X161621789Y-42889711D01*
X161621786Y-42889707D01*
X161510292Y-42778213D01*
X161510288Y-42778210D01*
X161379185Y-42690609D01*
X161379172Y-42690602D01*
X161233501Y-42630264D01*
X161233489Y-42630261D01*
X161078845Y-42599500D01*
X161078842Y-42599500D01*
X160921158Y-42599500D01*
X160921155Y-42599500D01*
X160766510Y-42630261D01*
X160766498Y-42630264D01*
X160620827Y-42690602D01*
X160620814Y-42690609D01*
X160489711Y-42778210D01*
X160489707Y-42778213D01*
X160378213Y-42889707D01*
X160378210Y-42889711D01*
X160290609Y-43020814D01*
X160290602Y-43020827D01*
X160230264Y-43166498D01*
X160230261Y-43166510D01*
X160199500Y-43321153D01*
X146200499Y-43321153D01*
X146180734Y-43221789D01*
X146169737Y-43166503D01*
X146146452Y-43110288D01*
X146109397Y-43020827D01*
X146109390Y-43020814D01*
X146021789Y-42889711D01*
X146021786Y-42889707D01*
X145910292Y-42778213D01*
X145910288Y-42778210D01*
X145779185Y-42690609D01*
X145779172Y-42690602D01*
X145633501Y-42630264D01*
X145633489Y-42630261D01*
X145478845Y-42599500D01*
X145478842Y-42599500D01*
X145321158Y-42599500D01*
X145321155Y-42599500D01*
X145166510Y-42630261D01*
X145166498Y-42630264D01*
X145020827Y-42690602D01*
X145020814Y-42690609D01*
X144889711Y-42778210D01*
X144889707Y-42778213D01*
X144778213Y-42889707D01*
X144778210Y-42889711D01*
X144690609Y-43020814D01*
X144690602Y-43020827D01*
X144630264Y-43166498D01*
X144630261Y-43166510D01*
X144599500Y-43321153D01*
X130400499Y-43321153D01*
X130380734Y-43221789D01*
X130369737Y-43166503D01*
X130346452Y-43110288D01*
X130309397Y-43020827D01*
X130309390Y-43020814D01*
X130221789Y-42889711D01*
X130221786Y-42889707D01*
X130110292Y-42778213D01*
X130110288Y-42778210D01*
X129979185Y-42690609D01*
X129979172Y-42690602D01*
X129833501Y-42630264D01*
X129833489Y-42630261D01*
X129678845Y-42599500D01*
X129678842Y-42599500D01*
X129521158Y-42599500D01*
X129521155Y-42599500D01*
X129366510Y-42630261D01*
X129366498Y-42630264D01*
X129220827Y-42690602D01*
X129220814Y-42690609D01*
X129089711Y-42778210D01*
X129089707Y-42778213D01*
X128978213Y-42889707D01*
X128978210Y-42889711D01*
X128890609Y-43020814D01*
X128890602Y-43020827D01*
X128830264Y-43166498D01*
X128830261Y-43166510D01*
X128799500Y-43321153D01*
X106210925Y-43321153D01*
X106221789Y-43310289D01*
X106309394Y-43179179D01*
X106369737Y-43033497D01*
X106400500Y-42878842D01*
X106400500Y-42721158D01*
X106400500Y-42721155D01*
X106400499Y-42721153D01*
X106394422Y-42690602D01*
X106369737Y-42566503D01*
X106350955Y-42521158D01*
X106309397Y-42420827D01*
X106309390Y-42420814D01*
X106221789Y-42289711D01*
X106221786Y-42289707D01*
X106203470Y-42271391D01*
X106169985Y-42210068D01*
X106174969Y-42140376D01*
X106216841Y-42084443D01*
X106222261Y-42080608D01*
X106292767Y-42033497D01*
X106310289Y-42021789D01*
X106421789Y-41910289D01*
X106509394Y-41779179D01*
X106533429Y-41721153D01*
X117399500Y-41721153D01*
X117399500Y-41878846D01*
X117430261Y-42033489D01*
X117430264Y-42033501D01*
X117490602Y-42179172D01*
X117490609Y-42179185D01*
X117578210Y-42310288D01*
X117578213Y-42310292D01*
X117689707Y-42421786D01*
X117689711Y-42421789D01*
X117820814Y-42509390D01*
X117820827Y-42509397D01*
X117958683Y-42566498D01*
X117966503Y-42569737D01*
X118116131Y-42599500D01*
X118121153Y-42600499D01*
X118121156Y-42600500D01*
X118121158Y-42600500D01*
X118278844Y-42600500D01*
X118278845Y-42600499D01*
X118433497Y-42569737D01*
X118579179Y-42509394D01*
X118710289Y-42421789D01*
X118821789Y-42310289D01*
X118909394Y-42179179D01*
X118969737Y-42033497D01*
X119000500Y-41878842D01*
X119000500Y-41721158D01*
X119000500Y-41721155D01*
X119000499Y-41721153D01*
X118969738Y-41566507D01*
X118969735Y-41566498D01*
X118909397Y-41420827D01*
X118909390Y-41420814D01*
X118821789Y-41289711D01*
X118821786Y-41289707D01*
X118710292Y-41178213D01*
X118710288Y-41178210D01*
X118579185Y-41090609D01*
X118579172Y-41090602D01*
X118433501Y-41030264D01*
X118433489Y-41030261D01*
X118278845Y-40999500D01*
X118278842Y-40999500D01*
X118121158Y-40999500D01*
X118121155Y-40999500D01*
X117966510Y-41030261D01*
X117966498Y-41030264D01*
X117820827Y-41090602D01*
X117820814Y-41090609D01*
X117689711Y-41178210D01*
X117689707Y-41178213D01*
X117578213Y-41289707D01*
X117578210Y-41289711D01*
X117490609Y-41420814D01*
X117490602Y-41420827D01*
X117430264Y-41566498D01*
X117430262Y-41566507D01*
X117399500Y-41721153D01*
X106533429Y-41721153D01*
X106554726Y-41669738D01*
X106555603Y-41667621D01*
X106555605Y-41667614D01*
X106569737Y-41633497D01*
X106600500Y-41478842D01*
X106600500Y-41321158D01*
X106600500Y-41321155D01*
X106600499Y-41321153D01*
X106592148Y-41279172D01*
X106569737Y-41166503D01*
X106533281Y-41078489D01*
X106509397Y-41020827D01*
X106509390Y-41020814D01*
X106421790Y-40889712D01*
X106421784Y-40889705D01*
X106353232Y-40821153D01*
X134499500Y-40821153D01*
X134499500Y-40978846D01*
X134530261Y-41133489D01*
X134530264Y-41133501D01*
X134590602Y-41279172D01*
X134590609Y-41279185D01*
X134678210Y-41410288D01*
X134678213Y-41410292D01*
X134789707Y-41521786D01*
X134789711Y-41521789D01*
X134920814Y-41609390D01*
X134920827Y-41609397D01*
X135061394Y-41667621D01*
X135066503Y-41669737D01*
X135221153Y-41700499D01*
X135221156Y-41700500D01*
X135221158Y-41700500D01*
X135378844Y-41700500D01*
X135378845Y-41700499D01*
X135533497Y-41669737D01*
X135679179Y-41609394D01*
X135810289Y-41521789D01*
X135921789Y-41410289D01*
X136009394Y-41279179D01*
X136069737Y-41133497D01*
X136100500Y-40978842D01*
X136100500Y-40821158D01*
X136093160Y-40784256D01*
X136093160Y-40784253D01*
X136089560Y-40766153D01*
X150044500Y-40766153D01*
X150044500Y-40923846D01*
X150075261Y-41078489D01*
X150075264Y-41078501D01*
X150135602Y-41224172D01*
X150135609Y-41224185D01*
X150223210Y-41355288D01*
X150223213Y-41355292D01*
X150334707Y-41466786D01*
X150334711Y-41466789D01*
X150465814Y-41554390D01*
X150465827Y-41554397D01*
X150598611Y-41609397D01*
X150611503Y-41614737D01*
X150766153Y-41645499D01*
X150766156Y-41645500D01*
X150766158Y-41645500D01*
X150923844Y-41645500D01*
X150923845Y-41645499D01*
X151078497Y-41614737D01*
X151224179Y-41554394D01*
X151355289Y-41466789D01*
X151466789Y-41355289D01*
X151554394Y-41224179D01*
X151614737Y-41078497D01*
X151645500Y-40923842D01*
X151645500Y-40766158D01*
X151640149Y-40739256D01*
X151640149Y-40739253D01*
X151636549Y-40721153D01*
X166044500Y-40721153D01*
X166044500Y-40878846D01*
X166075261Y-41033489D01*
X166075264Y-41033501D01*
X166135602Y-41179172D01*
X166135609Y-41179185D01*
X166223210Y-41310288D01*
X166223213Y-41310292D01*
X166334707Y-41421786D01*
X166334711Y-41421789D01*
X166465814Y-41509390D01*
X166465827Y-41509397D01*
X166603683Y-41566498D01*
X166611503Y-41569737D01*
X166766153Y-41600499D01*
X166766156Y-41600500D01*
X166766158Y-41600500D01*
X166923844Y-41600500D01*
X166923845Y-41600499D01*
X167078497Y-41569737D01*
X167224179Y-41509394D01*
X167355289Y-41421789D01*
X167466789Y-41310289D01*
X167554394Y-41179179D01*
X167614737Y-41033497D01*
X167645500Y-40878842D01*
X167645500Y-40721158D01*
X167645500Y-40721155D01*
X167645499Y-40721153D01*
X167633115Y-40658897D01*
X167614737Y-40566503D01*
X167614735Y-40566498D01*
X167554397Y-40420827D01*
X167554390Y-40420814D01*
X167466789Y-40289711D01*
X167466786Y-40289707D01*
X167355292Y-40178213D01*
X167355288Y-40178210D01*
X167224185Y-40090609D01*
X167224172Y-40090602D01*
X167078501Y-40030264D01*
X167078489Y-40030261D01*
X166923845Y-39999500D01*
X166923842Y-39999500D01*
X166766158Y-39999500D01*
X166766155Y-39999500D01*
X166611510Y-40030261D01*
X166611498Y-40030264D01*
X166465827Y-40090602D01*
X166465814Y-40090609D01*
X166334711Y-40178210D01*
X166334707Y-40178213D01*
X166223213Y-40289707D01*
X166223210Y-40289711D01*
X166135609Y-40420814D01*
X166135602Y-40420827D01*
X166075264Y-40566498D01*
X166075261Y-40566510D01*
X166044500Y-40721153D01*
X151636549Y-40721153D01*
X151614738Y-40611508D01*
X151614737Y-40611507D01*
X151614737Y-40611503D01*
X151614735Y-40611498D01*
X151554397Y-40465827D01*
X151554390Y-40465814D01*
X151466789Y-40334711D01*
X151466786Y-40334707D01*
X151355292Y-40223213D01*
X151355288Y-40223210D01*
X151224185Y-40135609D01*
X151224172Y-40135602D01*
X151078501Y-40075264D01*
X151078489Y-40075261D01*
X150923845Y-40044500D01*
X150923842Y-40044500D01*
X150766158Y-40044500D01*
X150766155Y-40044500D01*
X150611510Y-40075261D01*
X150611498Y-40075264D01*
X150465827Y-40135602D01*
X150465814Y-40135609D01*
X150334711Y-40223210D01*
X150334707Y-40223213D01*
X150223213Y-40334707D01*
X150223210Y-40334711D01*
X150135609Y-40465814D01*
X150135602Y-40465827D01*
X150075264Y-40611498D01*
X150075261Y-40611510D01*
X150044500Y-40766153D01*
X136089560Y-40766153D01*
X136069738Y-40666508D01*
X136069737Y-40666507D01*
X136069737Y-40666503D01*
X136048428Y-40615057D01*
X136009397Y-40520827D01*
X136009390Y-40520814D01*
X135921789Y-40389711D01*
X135921786Y-40389707D01*
X135810292Y-40278213D01*
X135810288Y-40278210D01*
X135679185Y-40190609D01*
X135679172Y-40190602D01*
X135533501Y-40130264D01*
X135533489Y-40130261D01*
X135378845Y-40099500D01*
X135378842Y-40099500D01*
X135221158Y-40099500D01*
X135221155Y-40099500D01*
X135066510Y-40130261D01*
X135066498Y-40130264D01*
X134920827Y-40190602D01*
X134920814Y-40190609D01*
X134789711Y-40278210D01*
X134789707Y-40278213D01*
X134678213Y-40389707D01*
X134678210Y-40389711D01*
X134590609Y-40520814D01*
X134590602Y-40520827D01*
X134530264Y-40666498D01*
X134530261Y-40666510D01*
X134499500Y-40821153D01*
X106353232Y-40821153D01*
X106310292Y-40778213D01*
X106310288Y-40778210D01*
X106179185Y-40690609D01*
X106179172Y-40690602D01*
X106102627Y-40658897D01*
X106048223Y-40615057D01*
X106026158Y-40548762D01*
X106043437Y-40481063D01*
X106081188Y-40441234D01*
X106090441Y-40435050D01*
X106110289Y-40421789D01*
X106221789Y-40310289D01*
X106309394Y-40179179D01*
X106369737Y-40033497D01*
X106400500Y-39878842D01*
X106400500Y-39721158D01*
X106400500Y-39721155D01*
X106400499Y-39721153D01*
X106380734Y-39621789D01*
X106369737Y-39566503D01*
X106346452Y-39510288D01*
X106309397Y-39420827D01*
X106309390Y-39420814D01*
X106221789Y-39289711D01*
X106221786Y-39289707D01*
X106119760Y-39187681D01*
X106086275Y-39126358D01*
X106091259Y-39056666D01*
X106119760Y-39012319D01*
X106221786Y-38910292D01*
X106221789Y-38910289D01*
X106309394Y-38779179D01*
X106369737Y-38633497D01*
X106400500Y-38478842D01*
X106400500Y-38361427D01*
X106420185Y-38294388D01*
X106455610Y-38258325D01*
X106497610Y-38230261D01*
X106510289Y-38221789D01*
X106621789Y-38110289D01*
X106709394Y-37979179D01*
X106769737Y-37833497D01*
X106800500Y-37678842D01*
X106800500Y-37521158D01*
X106800500Y-37521155D01*
X106800499Y-37521153D01*
X106793308Y-37485001D01*
X106769737Y-37366503D01*
X106748135Y-37314351D01*
X106709397Y-37220827D01*
X106709390Y-37220814D01*
X106621789Y-37089711D01*
X106621786Y-37089707D01*
X106510292Y-36978213D01*
X106510288Y-36978210D01*
X106379185Y-36890609D01*
X106379172Y-36890602D01*
X106233501Y-36830264D01*
X106233489Y-36830261D01*
X106078845Y-36799500D01*
X106078842Y-36799500D01*
X105921158Y-36799500D01*
X105921155Y-36799500D01*
X105766510Y-36830261D01*
X105766498Y-36830264D01*
X105620827Y-36890602D01*
X105620814Y-36890609D01*
X105489711Y-36978210D01*
X105489707Y-36978213D01*
X105378213Y-37089707D01*
X105378210Y-37089711D01*
X105290609Y-37220814D01*
X105290602Y-37220827D01*
X105230264Y-37366498D01*
X105230261Y-37366510D01*
X105199500Y-37521153D01*
X105199500Y-37638572D01*
X105179815Y-37705611D01*
X105144393Y-37741673D01*
X105089706Y-37778214D01*
X105089704Y-37778217D01*
X104978213Y-37889707D01*
X104978210Y-37889711D01*
X104890609Y-38020814D01*
X104890602Y-38020827D01*
X104830264Y-38166498D01*
X104830261Y-38166510D01*
X104799500Y-38321153D01*
X101905500Y-38321153D01*
X101905500Y-34921153D01*
X121799500Y-34921153D01*
X121799500Y-35078846D01*
X121830261Y-35233489D01*
X121830264Y-35233501D01*
X121890602Y-35379172D01*
X121890609Y-35379185D01*
X121978210Y-35510288D01*
X121978213Y-35510292D01*
X122089707Y-35621786D01*
X122089711Y-35621789D01*
X122220814Y-35709390D01*
X122220827Y-35709397D01*
X122366498Y-35769735D01*
X122366503Y-35769737D01*
X122521153Y-35800499D01*
X122521156Y-35800500D01*
X122521158Y-35800500D01*
X122678844Y-35800500D01*
X122678845Y-35800499D01*
X122833497Y-35769737D01*
X122979179Y-35709394D01*
X123110289Y-35621789D01*
X123221789Y-35510289D01*
X123309394Y-35379179D01*
X123369737Y-35233497D01*
X123400500Y-35078842D01*
X123400500Y-34921158D01*
X123400500Y-34921155D01*
X123400499Y-34921153D01*
X123381734Y-34826817D01*
X123369737Y-34766503D01*
X123369735Y-34766498D01*
X123309397Y-34620827D01*
X123309390Y-34620814D01*
X123221789Y-34489711D01*
X123221786Y-34489707D01*
X123110292Y-34378213D01*
X123110288Y-34378210D01*
X122979185Y-34290609D01*
X122979172Y-34290602D01*
X122833501Y-34230264D01*
X122833489Y-34230261D01*
X122678845Y-34199500D01*
X122678842Y-34199500D01*
X122521158Y-34199500D01*
X122521155Y-34199500D01*
X122366510Y-34230261D01*
X122366498Y-34230264D01*
X122220827Y-34290602D01*
X122220814Y-34290609D01*
X122089711Y-34378210D01*
X122089707Y-34378213D01*
X121978213Y-34489707D01*
X121978210Y-34489711D01*
X121890609Y-34620814D01*
X121890602Y-34620827D01*
X121830264Y-34766498D01*
X121830261Y-34766510D01*
X121799500Y-34921153D01*
X101905500Y-34921153D01*
X101905500Y-31521153D01*
X112199500Y-31521153D01*
X112199500Y-31678846D01*
X112230261Y-31833489D01*
X112230264Y-31833501D01*
X112290602Y-31979172D01*
X112290609Y-31979185D01*
X112378210Y-32110288D01*
X112378213Y-32110292D01*
X112489707Y-32221786D01*
X112489711Y-32221789D01*
X112620814Y-32309390D01*
X112620827Y-32309397D01*
X112766498Y-32369735D01*
X112766503Y-32369737D01*
X112921153Y-32400499D01*
X112921156Y-32400500D01*
X112921158Y-32400500D01*
X113078844Y-32400500D01*
X113078845Y-32400499D01*
X113233497Y-32369737D01*
X113379179Y-32309394D01*
X113510289Y-32221789D01*
X113621789Y-32110289D01*
X113709394Y-31979179D01*
X113769737Y-31833497D01*
X113800500Y-31678842D01*
X113800500Y-31521158D01*
X113800500Y-31521155D01*
X113800499Y-31521153D01*
X113769738Y-31366510D01*
X113769737Y-31366503D01*
X113769735Y-31366498D01*
X113709397Y-31220827D01*
X113709390Y-31220814D01*
X113621789Y-31089711D01*
X113621786Y-31089707D01*
X113510292Y-30978213D01*
X113510288Y-30978210D01*
X113379185Y-30890609D01*
X113379172Y-30890602D01*
X113233501Y-30830264D01*
X113233489Y-30830261D01*
X113078845Y-30799500D01*
X113078842Y-30799500D01*
X112921158Y-30799500D01*
X112921155Y-30799500D01*
X112766510Y-30830261D01*
X112766498Y-30830264D01*
X112620827Y-30890602D01*
X112620814Y-30890609D01*
X112489711Y-30978210D01*
X112489707Y-30978213D01*
X112378213Y-31089707D01*
X112378210Y-31089711D01*
X112290609Y-31220814D01*
X112290602Y-31220827D01*
X112230264Y-31366498D01*
X112230261Y-31366510D01*
X112199500Y-31521153D01*
X101905500Y-31521153D01*
X101905500Y-28321153D01*
X106799500Y-28321153D01*
X106799500Y-28478846D01*
X106830261Y-28633489D01*
X106830264Y-28633501D01*
X106890602Y-28779172D01*
X106890609Y-28779185D01*
X106978210Y-28910288D01*
X106978213Y-28910292D01*
X107089707Y-29021786D01*
X107089711Y-29021789D01*
X107220814Y-29109390D01*
X107220827Y-29109397D01*
X107329461Y-29154394D01*
X107366503Y-29169737D01*
X107521153Y-29200499D01*
X107521156Y-29200500D01*
X107521158Y-29200500D01*
X107678844Y-29200500D01*
X107678845Y-29200499D01*
X107833497Y-29169737D01*
X107979179Y-29109394D01*
X108110289Y-29021789D01*
X108221789Y-28910289D01*
X108309394Y-28779179D01*
X108369737Y-28633497D01*
X108400500Y-28478842D01*
X108400500Y-28321158D01*
X108400500Y-28321155D01*
X108400499Y-28321153D01*
X109399500Y-28321153D01*
X109399500Y-28478846D01*
X109430261Y-28633489D01*
X109430264Y-28633501D01*
X109490602Y-28779172D01*
X109490609Y-28779185D01*
X109578210Y-28910288D01*
X109578213Y-28910292D01*
X109689707Y-29021786D01*
X109689711Y-29021789D01*
X109820814Y-29109390D01*
X109820827Y-29109397D01*
X109929461Y-29154394D01*
X109966503Y-29169737D01*
X110121153Y-29200499D01*
X110121156Y-29200500D01*
X110121158Y-29200500D01*
X110278844Y-29200500D01*
X110278845Y-29200499D01*
X110433497Y-29169737D01*
X110579179Y-29109394D01*
X110710289Y-29021789D01*
X110821789Y-28910289D01*
X110909394Y-28779179D01*
X110969737Y-28633497D01*
X111000500Y-28478842D01*
X111000500Y-28321158D01*
X111000500Y-28321155D01*
X111000499Y-28321153D01*
X110992796Y-28282430D01*
X110969737Y-28166503D01*
X110943591Y-28103381D01*
X110909397Y-28020827D01*
X110909390Y-28020814D01*
X110821789Y-27889711D01*
X110821786Y-27889707D01*
X110710292Y-27778213D01*
X110710288Y-27778210D01*
X110579185Y-27690609D01*
X110579172Y-27690602D01*
X110433501Y-27630264D01*
X110433489Y-27630261D01*
X110278845Y-27599500D01*
X110278842Y-27599500D01*
X110121158Y-27599500D01*
X110121155Y-27599500D01*
X109966510Y-27630261D01*
X109966498Y-27630264D01*
X109820827Y-27690602D01*
X109820814Y-27690609D01*
X109689711Y-27778210D01*
X109689707Y-27778213D01*
X109578213Y-27889707D01*
X109578210Y-27889711D01*
X109490609Y-28020814D01*
X109490602Y-28020827D01*
X109430264Y-28166498D01*
X109430261Y-28166510D01*
X109399500Y-28321153D01*
X108400499Y-28321153D01*
X108392796Y-28282430D01*
X108369737Y-28166503D01*
X108343591Y-28103381D01*
X108309397Y-28020827D01*
X108309390Y-28020814D01*
X108221789Y-27889711D01*
X108221786Y-27889707D01*
X108110292Y-27778213D01*
X108110288Y-27778210D01*
X107979185Y-27690609D01*
X107979172Y-27690602D01*
X107833501Y-27630264D01*
X107833489Y-27630261D01*
X107678845Y-27599500D01*
X107678842Y-27599500D01*
X107521158Y-27599500D01*
X107521155Y-27599500D01*
X107366510Y-27630261D01*
X107366498Y-27630264D01*
X107220827Y-27690602D01*
X107220814Y-27690609D01*
X107089711Y-27778210D01*
X107089707Y-27778213D01*
X106978213Y-27889707D01*
X106978210Y-27889711D01*
X106890609Y-28020814D01*
X106890602Y-28020827D01*
X106830264Y-28166498D01*
X106830261Y-28166510D01*
X106799500Y-28321153D01*
X101905500Y-28321153D01*
X101905500Y-26277135D01*
X115824500Y-26277135D01*
X115824500Y-27722870D01*
X115824501Y-27722876D01*
X115830908Y-27782483D01*
X115881202Y-27917328D01*
X115881206Y-27917335D01*
X115967452Y-28032544D01*
X115967455Y-28032547D01*
X116052938Y-28096540D01*
X116094809Y-28152473D01*
X116099793Y-28222165D01*
X116078946Y-28268690D01*
X115995051Y-28384163D01*
X115911084Y-28548956D01*
X115911082Y-28548962D01*
X115853932Y-28724855D01*
X115849950Y-28749999D01*
X115849950Y-28750000D01*
X116684314Y-28750000D01*
X116679920Y-28754394D01*
X116627259Y-28845606D01*
X116600000Y-28947339D01*
X116600000Y-29052661D01*
X116627259Y-29154394D01*
X116679920Y-29245606D01*
X116684314Y-29250000D01*
X115849950Y-29250000D01*
X115853932Y-29275144D01*
X115911082Y-29451037D01*
X115911084Y-29451043D01*
X115995052Y-29615837D01*
X116103754Y-29765454D01*
X116103758Y-29765459D01*
X116234540Y-29896241D01*
X116234545Y-29896245D01*
X116384162Y-30004947D01*
X116548956Y-30088915D01*
X116548959Y-30088916D01*
X116724845Y-30146064D01*
X116724858Y-30146067D01*
X116750000Y-30150049D01*
X116750000Y-29315686D01*
X116754394Y-29320080D01*
X116845606Y-29372741D01*
X116947339Y-29400000D01*
X117052661Y-29400000D01*
X117154394Y-29372741D01*
X117245606Y-29320080D01*
X117250000Y-29315686D01*
X117250000Y-30150048D01*
X117275141Y-30146067D01*
X117275154Y-30146064D01*
X117451040Y-30088916D01*
X117451043Y-30088915D01*
X117615837Y-30004947D01*
X117765454Y-29896245D01*
X117765459Y-29896241D01*
X117896238Y-29765462D01*
X117896240Y-29765459D01*
X117899368Y-29761155D01*
X117954695Y-29718485D01*
X118024308Y-29712501D01*
X118086105Y-29745103D01*
X118100004Y-29761142D01*
X118103379Y-29765787D01*
X118234213Y-29896621D01*
X118383904Y-30005378D01*
X118464763Y-30046577D01*
X118548764Y-30089379D01*
X118548767Y-30089380D01*
X118636750Y-30117967D01*
X118724736Y-30146555D01*
X118907486Y-30175500D01*
X118907487Y-30175500D01*
X119092513Y-30175500D01*
X119092514Y-30175500D01*
X119275264Y-30146555D01*
X119451235Y-30089379D01*
X119616096Y-30005378D01*
X119765787Y-29896621D01*
X119896621Y-29765787D01*
X119899680Y-29761576D01*
X119955006Y-29718909D01*
X120024619Y-29712926D01*
X120086415Y-29745529D01*
X120100315Y-29761570D01*
X120103379Y-29765787D01*
X120234213Y-29896621D01*
X120383904Y-30005378D01*
X120464763Y-30046577D01*
X120548764Y-30089379D01*
X120548767Y-30089380D01*
X120636750Y-30117967D01*
X120724736Y-30146555D01*
X120907486Y-30175500D01*
X120907487Y-30175500D01*
X121092513Y-30175500D01*
X121092514Y-30175500D01*
X121275264Y-30146555D01*
X121451235Y-30089379D01*
X121616096Y-30005378D01*
X121765787Y-29896621D01*
X121896621Y-29765787D01*
X122005378Y-29616096D01*
X122089379Y-29451235D01*
X122146555Y-29275264D01*
X122175500Y-29092514D01*
X122175500Y-28907486D01*
X122146555Y-28724736D01*
X122089379Y-28548765D01*
X122089379Y-28548764D01*
X122046577Y-28464763D01*
X122005378Y-28383904D01*
X121896621Y-28234213D01*
X121765787Y-28103379D01*
X121761576Y-28100319D01*
X121718909Y-28044994D01*
X121712926Y-27975381D01*
X121745529Y-27913585D01*
X121761570Y-27899684D01*
X121765787Y-27896621D01*
X121896621Y-27765787D01*
X122005378Y-27616096D01*
X122089379Y-27451235D01*
X122146555Y-27275264D01*
X122175500Y-27092514D01*
X122175500Y-26907486D01*
X122146555Y-26724736D01*
X122117967Y-26636750D01*
X122089380Y-26548767D01*
X122089379Y-26548764D01*
X122005377Y-26383903D01*
X121999999Y-26376501D01*
X121896621Y-26234213D01*
X121765787Y-26103379D01*
X121616096Y-25994622D01*
X121562778Y-25967455D01*
X121451235Y-25910620D01*
X121451232Y-25910619D01*
X121275265Y-25853445D01*
X121132972Y-25830908D01*
X121092514Y-25824500D01*
X120907486Y-25824500D01*
X120867028Y-25830908D01*
X120724734Y-25853445D01*
X120548767Y-25910619D01*
X120548764Y-25910620D01*
X120383903Y-25994622D01*
X120304188Y-26052539D01*
X120234213Y-26103379D01*
X120234211Y-26103381D01*
X120234210Y-26103381D01*
X120103381Y-26234210D01*
X120100314Y-26238432D01*
X120044981Y-26281094D01*
X119975367Y-26287069D01*
X119913574Y-26254459D01*
X119899686Y-26238432D01*
X119896621Y-26234213D01*
X119765787Y-26103379D01*
X119616096Y-25994622D01*
X119562778Y-25967455D01*
X119451235Y-25910620D01*
X119451232Y-25910619D01*
X119275265Y-25853445D01*
X119132972Y-25830908D01*
X119092514Y-25824500D01*
X118907486Y-25824500D01*
X118867028Y-25830908D01*
X118724734Y-25853445D01*
X118548767Y-25910619D01*
X118548764Y-25910620D01*
X118383900Y-25994624D01*
X118268392Y-26078545D01*
X118202586Y-26102025D01*
X118134532Y-26086199D01*
X118096241Y-26052539D01*
X118052884Y-25994622D01*
X118032546Y-25967454D01*
X118032544Y-25967453D01*
X118032544Y-25967452D01*
X117917335Y-25881206D01*
X117917328Y-25881202D01*
X117782482Y-25830908D01*
X117782483Y-25830908D01*
X117722883Y-25824501D01*
X117722881Y-25824500D01*
X117722873Y-25824500D01*
X117722864Y-25824500D01*
X116277129Y-25824500D01*
X116277123Y-25824501D01*
X116217516Y-25830908D01*
X116082671Y-25881202D01*
X116082664Y-25881206D01*
X115967455Y-25967452D01*
X115967452Y-25967455D01*
X115881206Y-26082664D01*
X115881202Y-26082671D01*
X115830908Y-26217517D01*
X115824501Y-26277116D01*
X115824500Y-26277135D01*
X101905500Y-26277135D01*
X101905500Y-25624500D01*
X101925185Y-25557461D01*
X101977989Y-25511706D01*
X102029500Y-25500500D01*
X133570500Y-25500500D01*
X133637539Y-25520185D01*
X133683294Y-25572989D01*
X133694500Y-25624500D01*
X133694500Y-28311844D01*
X133694500Y-32676000D01*
X133694501Y-32676009D01*
X133706052Y-32783450D01*
X133706054Y-32783462D01*
X133717260Y-32834972D01*
X133751383Y-32937497D01*
X133751386Y-32937503D01*
X133829171Y-33058537D01*
X133829179Y-33058548D01*
X133874923Y-33111340D01*
X133874926Y-33111343D01*
X133874930Y-33111347D01*
X133983664Y-33205567D01*
X134114541Y-33265338D01*
X134181580Y-33285023D01*
X134181584Y-33285024D01*
X134324000Y-33305500D01*
X169170500Y-33305500D01*
X169237539Y-33325185D01*
X169283294Y-33377989D01*
X169294500Y-33429500D01*
X169294500Y-66572907D01*
X169274815Y-66639946D01*
X169222011Y-66685701D01*
X169170975Y-66696906D01*
X117599392Y-66894499D01*
X117598917Y-66894500D01*
X117124000Y-66894500D01*
X117123991Y-66894500D01*
X117123990Y-66894501D01*
X117016549Y-66906052D01*
X117016537Y-66906054D01*
X116965027Y-66917260D01*
X116862502Y-66951383D01*
X116862496Y-66951386D01*
X116741462Y-67029171D01*
X116741451Y-67029179D01*
X116688659Y-67074923D01*
X116594433Y-67183664D01*
X116594430Y-67183668D01*
X116534664Y-67314534D01*
X116514976Y-67381582D01*
X116494500Y-67524001D01*
X116494500Y-70900315D01*
X116494501Y-70900335D01*
X116508048Y-71016570D01*
X116508048Y-71016571D01*
X116521164Y-71072074D01*
X116521165Y-71072078D01*
X116553949Y-71162432D01*
X116558311Y-71232165D01*
X116550181Y-71256235D01*
X116534662Y-71290217D01*
X116514976Y-71357259D01*
X116494500Y-71499678D01*
X116494500Y-71900315D01*
X116494501Y-71900335D01*
X116508048Y-72016570D01*
X116508048Y-72016571D01*
X116521164Y-72072074D01*
X116521164Y-72072075D01*
X116553949Y-72162432D01*
X116558311Y-72232165D01*
X116550181Y-72256235D01*
X116534662Y-72290217D01*
X116514976Y-72357259D01*
X116494500Y-72499678D01*
X116494500Y-72900315D01*
X116494501Y-72900335D01*
X116508048Y-73016570D01*
X116508048Y-73016571D01*
X116521164Y-73072074D01*
X116521164Y-73072075D01*
X116553949Y-73162432D01*
X116558311Y-73232165D01*
X116550181Y-73256235D01*
X116534662Y-73290217D01*
X116514976Y-73357259D01*
X116494500Y-73499678D01*
X116494500Y-74375500D01*
X116474815Y-74442539D01*
X116422011Y-74488294D01*
X116370500Y-74499500D01*
X80624500Y-74499500D01*
X80557461Y-74479815D01*
X80511706Y-74427011D01*
X80500500Y-74375500D01*
X80500500Y-73915845D01*
X103637706Y-73915845D01*
X103766652Y-73969257D01*
X103766656Y-73969258D01*
X103921202Y-73999999D01*
X103921206Y-74000000D01*
X104078794Y-74000000D01*
X104078797Y-73999999D01*
X104233343Y-73969258D01*
X104233347Y-73969257D01*
X104362293Y-73915845D01*
X104637706Y-73915845D01*
X104766652Y-73969257D01*
X104766656Y-73969258D01*
X104921202Y-73999999D01*
X104921206Y-74000000D01*
X105078794Y-74000000D01*
X105078797Y-73999999D01*
X105233343Y-73969258D01*
X105233347Y-73969257D01*
X105362293Y-73915845D01*
X105637706Y-73915845D01*
X105766652Y-73969257D01*
X105766656Y-73969258D01*
X105921202Y-73999999D01*
X105921206Y-74000000D01*
X106078794Y-74000000D01*
X106078797Y-73999999D01*
X106233343Y-73969258D01*
X106233347Y-73969257D01*
X106362293Y-73915845D01*
X106637706Y-73915845D01*
X106766652Y-73969257D01*
X106766656Y-73969258D01*
X106921202Y-73999999D01*
X106921206Y-74000000D01*
X107078794Y-74000000D01*
X107078797Y-73999999D01*
X107233343Y-73969258D01*
X107233347Y-73969257D01*
X107362293Y-73915845D01*
X107637706Y-73915845D01*
X107766652Y-73969257D01*
X107766656Y-73969258D01*
X107921202Y-73999999D01*
X107921206Y-74000000D01*
X108078794Y-74000000D01*
X108078797Y-73999999D01*
X108233343Y-73969258D01*
X108233347Y-73969257D01*
X108362293Y-73915845D01*
X108000001Y-73553553D01*
X108000000Y-73553553D01*
X107637706Y-73915845D01*
X107362293Y-73915845D01*
X107000001Y-73553553D01*
X107000000Y-73553553D01*
X106637706Y-73915845D01*
X106362293Y-73915845D01*
X106000001Y-73553553D01*
X106000000Y-73553553D01*
X105637706Y-73915845D01*
X105362293Y-73915845D01*
X105000001Y-73553553D01*
X105000000Y-73553553D01*
X104637706Y-73915845D01*
X104362293Y-73915845D01*
X104000001Y-73553553D01*
X104000000Y-73553553D01*
X103637706Y-73915845D01*
X80500500Y-73915845D01*
X80500500Y-71478711D01*
X81549500Y-71478711D01*
X81549500Y-71721288D01*
X81581161Y-71961785D01*
X81643947Y-72196104D01*
X81706221Y-72346446D01*
X81736776Y-72420212D01*
X81858064Y-72630289D01*
X81858066Y-72630292D01*
X81858067Y-72630293D01*
X82005733Y-72822736D01*
X82005739Y-72822743D01*
X82177256Y-72994260D01*
X82177263Y-72994266D01*
X82206332Y-73016571D01*
X82369711Y-73141936D01*
X82579788Y-73263224D01*
X82803900Y-73356054D01*
X83038211Y-73418838D01*
X83218586Y-73442584D01*
X83278711Y-73450500D01*
X83278712Y-73450500D01*
X83521289Y-73450500D01*
X83569388Y-73444167D01*
X83761789Y-73418838D01*
X83996100Y-73356054D01*
X84220212Y-73263224D01*
X84430289Y-73141936D01*
X84457310Y-73121202D01*
X103200000Y-73121202D01*
X103200000Y-73278797D01*
X103230741Y-73433343D01*
X103230743Y-73433351D01*
X103284153Y-73562293D01*
X103646446Y-73200001D01*
X103646446Y-73199999D01*
X103616610Y-73170163D01*
X103850000Y-73170163D01*
X103850000Y-73229837D01*
X103872836Y-73284968D01*
X103915032Y-73327164D01*
X103970163Y-73350000D01*
X104029837Y-73350000D01*
X104084968Y-73327164D01*
X104127164Y-73284968D01*
X104150000Y-73229837D01*
X104150000Y-73200000D01*
X104353553Y-73200000D01*
X104500000Y-73346446D01*
X104646446Y-73200000D01*
X104616609Y-73170163D01*
X104850000Y-73170163D01*
X104850000Y-73229837D01*
X104872836Y-73284968D01*
X104915032Y-73327164D01*
X104970163Y-73350000D01*
X105029837Y-73350000D01*
X105084968Y-73327164D01*
X105127164Y-73284968D01*
X105150000Y-73229837D01*
X105150000Y-73199999D01*
X105353553Y-73199999D01*
X105500000Y-73346445D01*
X105640255Y-73206189D01*
X105604229Y-73170163D01*
X105850000Y-73170163D01*
X105850000Y-73229837D01*
X105872836Y-73284968D01*
X105915032Y-73327164D01*
X105970163Y-73350000D01*
X106029837Y-73350000D01*
X106084968Y-73327164D01*
X106127164Y-73284968D01*
X106150000Y-73229837D01*
X106150000Y-73199999D01*
X106353553Y-73199999D01*
X106500000Y-73346446D01*
X106646446Y-73200000D01*
X106616609Y-73170163D01*
X106850000Y-73170163D01*
X106850000Y-73229837D01*
X106872836Y-73284968D01*
X106915032Y-73327164D01*
X106970163Y-73350000D01*
X107029837Y-73350000D01*
X107084968Y-73327164D01*
X107127164Y-73284968D01*
X107150000Y-73229837D01*
X107150000Y-73199999D01*
X107353553Y-73199999D01*
X107500000Y-73346446D01*
X107646446Y-73200001D01*
X107646446Y-73200000D01*
X107616609Y-73170163D01*
X107850000Y-73170163D01*
X107850000Y-73229837D01*
X107872836Y-73284968D01*
X107915032Y-73327164D01*
X107970163Y-73350000D01*
X108029837Y-73350000D01*
X108084968Y-73327164D01*
X108127164Y-73284968D01*
X108150000Y-73229837D01*
X108150000Y-73199999D01*
X108353553Y-73199999D01*
X108353553Y-73200001D01*
X108715845Y-73562293D01*
X108769257Y-73433347D01*
X108769258Y-73433343D01*
X108799999Y-73278797D01*
X108800000Y-73278794D01*
X108800000Y-73121206D01*
X108799999Y-73121202D01*
X108769258Y-72966656D01*
X108769257Y-72966652D01*
X108715845Y-72837706D01*
X108353553Y-73199999D01*
X108150000Y-73199999D01*
X108150000Y-73170163D01*
X108127164Y-73115032D01*
X108084968Y-73072836D01*
X108029837Y-73050000D01*
X107970163Y-73050000D01*
X107915032Y-73072836D01*
X107872836Y-73115032D01*
X107850000Y-73170163D01*
X107616609Y-73170163D01*
X107499999Y-73053553D01*
X107481479Y-73072075D01*
X107481477Y-73072077D01*
X107353553Y-73199999D01*
X107150000Y-73199999D01*
X107150000Y-73170163D01*
X107127164Y-73115032D01*
X107084968Y-73072836D01*
X107029837Y-73050000D01*
X106970163Y-73050000D01*
X106915032Y-73072836D01*
X106872836Y-73115032D01*
X106850000Y-73170163D01*
X106616609Y-73170163D01*
X106518524Y-73072078D01*
X106500000Y-73053553D01*
X106481479Y-73072075D01*
X106481477Y-73072077D01*
X106353553Y-73199999D01*
X106150000Y-73199999D01*
X106150000Y-73170163D01*
X106127164Y-73115032D01*
X106084968Y-73072836D01*
X106029837Y-73050000D01*
X105970163Y-73050000D01*
X105915032Y-73072836D01*
X105872836Y-73115032D01*
X105850000Y-73170163D01*
X105604229Y-73170163D01*
X105493809Y-73059744D01*
X105353553Y-73199999D01*
X105150000Y-73199999D01*
X105150000Y-73170163D01*
X105127164Y-73115032D01*
X105084968Y-73072836D01*
X105029837Y-73050000D01*
X104970163Y-73050000D01*
X104915032Y-73072836D01*
X104872836Y-73115032D01*
X104850000Y-73170163D01*
X104616609Y-73170163D01*
X104499999Y-73053553D01*
X104353553Y-73200000D01*
X104150000Y-73200000D01*
X104150000Y-73170163D01*
X104127164Y-73115032D01*
X104084968Y-73072836D01*
X104029837Y-73050000D01*
X103970163Y-73050000D01*
X103915032Y-73072836D01*
X103872836Y-73115032D01*
X103850000Y-73170163D01*
X103616610Y-73170163D01*
X103284153Y-72837705D01*
X103230743Y-72966648D01*
X103230741Y-72966656D01*
X103200000Y-73121202D01*
X84457310Y-73121202D01*
X84550103Y-73050000D01*
X84593450Y-73016739D01*
X84608620Y-73005097D01*
X84622738Y-72994265D01*
X84794265Y-72822738D01*
X84888446Y-72699999D01*
X103853553Y-72699999D01*
X104000000Y-72846446D01*
X104146446Y-72700000D01*
X104116609Y-72670163D01*
X104350000Y-72670163D01*
X104350000Y-72729837D01*
X104372836Y-72784968D01*
X104415032Y-72827164D01*
X104470163Y-72850000D01*
X104529837Y-72850000D01*
X104584968Y-72827164D01*
X104627164Y-72784968D01*
X104650000Y-72729837D01*
X104650000Y-72699999D01*
X104853553Y-72699999D01*
X104992089Y-72838535D01*
X105132346Y-72698280D01*
X105102510Y-72668444D01*
X105335900Y-72668444D01*
X105335900Y-72728118D01*
X105358736Y-72783249D01*
X105400932Y-72825445D01*
X105456063Y-72848281D01*
X105515737Y-72848281D01*
X105570868Y-72825445D01*
X105613064Y-72783249D01*
X105635900Y-72728118D01*
X105635900Y-72699999D01*
X105853553Y-72699999D01*
X106000000Y-72846446D01*
X106146446Y-72700000D01*
X106116609Y-72670163D01*
X106350000Y-72670163D01*
X106350000Y-72729837D01*
X106372836Y-72784968D01*
X106415032Y-72827164D01*
X106470163Y-72850000D01*
X106529837Y-72850000D01*
X106584968Y-72827164D01*
X106627164Y-72784968D01*
X106650000Y-72729837D01*
X106650000Y-72699999D01*
X106853553Y-72699999D01*
X107000000Y-72846446D01*
X107146446Y-72700000D01*
X107116609Y-72670163D01*
X107350000Y-72670163D01*
X107350000Y-72729837D01*
X107372836Y-72784968D01*
X107415032Y-72827164D01*
X107470163Y-72850000D01*
X107529837Y-72850000D01*
X107584968Y-72827164D01*
X107627164Y-72784968D01*
X107650000Y-72729837D01*
X107650000Y-72699999D01*
X107853553Y-72699999D01*
X108000000Y-72846446D01*
X108146446Y-72700001D01*
X108146446Y-72699999D01*
X108000000Y-72553553D01*
X107974614Y-72578940D01*
X107974612Y-72578942D01*
X107853553Y-72699999D01*
X107650000Y-72699999D01*
X107650000Y-72670163D01*
X107627164Y-72615032D01*
X107584968Y-72572836D01*
X107529837Y-72550000D01*
X107470163Y-72550000D01*
X107415032Y-72572836D01*
X107372836Y-72615032D01*
X107350000Y-72670163D01*
X107116609Y-72670163D01*
X107025388Y-72578942D01*
X107000000Y-72553553D01*
X106974614Y-72578940D01*
X106974612Y-72578942D01*
X106853553Y-72699999D01*
X106650000Y-72699999D01*
X106650000Y-72670163D01*
X106627164Y-72615032D01*
X106584968Y-72572836D01*
X106529837Y-72550000D01*
X106470163Y-72550000D01*
X106415032Y-72572836D01*
X106372836Y-72615032D01*
X106350000Y-72670163D01*
X106116609Y-72670163D01*
X105999999Y-72553553D01*
X105853553Y-72699999D01*
X105635900Y-72699999D01*
X105635900Y-72668444D01*
X105613064Y-72613313D01*
X105570868Y-72571117D01*
X105515737Y-72548281D01*
X105456063Y-72548281D01*
X105400932Y-72571117D01*
X105358736Y-72613313D01*
X105335900Y-72668444D01*
X105102510Y-72668444D01*
X104993809Y-72559743D01*
X104993809Y-72559744D01*
X104974614Y-72578940D01*
X104974612Y-72578942D01*
X104853553Y-72699999D01*
X104650000Y-72699999D01*
X104650000Y-72670163D01*
X104627164Y-72615032D01*
X104584968Y-72572836D01*
X104529837Y-72550000D01*
X104470163Y-72550000D01*
X104415032Y-72572836D01*
X104372836Y-72615032D01*
X104350000Y-72670163D01*
X104116609Y-72670163D01*
X103999999Y-72553553D01*
X103853553Y-72699999D01*
X84888446Y-72699999D01*
X84941936Y-72630289D01*
X85063224Y-72420212D01*
X85156054Y-72196100D01*
X85218838Y-71961789D01*
X85250500Y-71721288D01*
X85250500Y-71478712D01*
X85234511Y-71357259D01*
X85219315Y-71241832D01*
X85219315Y-71241831D01*
X85218839Y-71238217D01*
X85218838Y-71238214D01*
X85218838Y-71238211D01*
X85216775Y-71230513D01*
X88899500Y-71230513D01*
X88899500Y-71419486D01*
X88929059Y-71606118D01*
X88987454Y-71785836D01*
X89045788Y-71900322D01*
X89073240Y-71954199D01*
X89184310Y-72107073D01*
X89317927Y-72240690D01*
X89470801Y-72351760D01*
X89550347Y-72392290D01*
X89639163Y-72437545D01*
X89639165Y-72437545D01*
X89639168Y-72437547D01*
X89735497Y-72468846D01*
X89818881Y-72495940D01*
X90005514Y-72525500D01*
X90005519Y-72525500D01*
X90194486Y-72525500D01*
X90381118Y-72495940D01*
X90560832Y-72437547D01*
X90729199Y-72351760D01*
X90882073Y-72240690D01*
X91015690Y-72107073D01*
X91126760Y-71954199D01*
X91212547Y-71785832D01*
X91270940Y-71606118D01*
X91278093Y-71560957D01*
X91300500Y-71419486D01*
X91300500Y-71230513D01*
X99899500Y-71230513D01*
X99899500Y-71419486D01*
X99929059Y-71606118D01*
X99987454Y-71785836D01*
X100045788Y-71900322D01*
X100073240Y-71954199D01*
X100184310Y-72107073D01*
X100317927Y-72240690D01*
X100470801Y-72351760D01*
X100550347Y-72392290D01*
X100639163Y-72437545D01*
X100639165Y-72437545D01*
X100639168Y-72437547D01*
X100735497Y-72468846D01*
X100818881Y-72495940D01*
X101005514Y-72525500D01*
X101005519Y-72525500D01*
X101194486Y-72525500D01*
X101381118Y-72495940D01*
X101560832Y-72437547D01*
X101729199Y-72351760D01*
X101882073Y-72240690D01*
X102001561Y-72121202D01*
X103200000Y-72121202D01*
X103200000Y-72278797D01*
X103230741Y-72433343D01*
X103230743Y-72433351D01*
X103284153Y-72562293D01*
X103285490Y-72560957D01*
X103646446Y-72200001D01*
X103646446Y-72199999D01*
X103616610Y-72170163D01*
X103850000Y-72170163D01*
X103850000Y-72229837D01*
X103872836Y-72284968D01*
X103915032Y-72327164D01*
X103970163Y-72350000D01*
X104029837Y-72350000D01*
X104084968Y-72327164D01*
X104127164Y-72284968D01*
X104150000Y-72229837D01*
X104150000Y-72199999D01*
X104353553Y-72199999D01*
X104500000Y-72346446D01*
X104646446Y-72200000D01*
X104616609Y-72170163D01*
X104850000Y-72170163D01*
X104850000Y-72229837D01*
X104872836Y-72284968D01*
X104915032Y-72327164D01*
X104970163Y-72350000D01*
X105029837Y-72350000D01*
X105084968Y-72327164D01*
X105127164Y-72284968D01*
X105150000Y-72229837D01*
X105150000Y-72199999D01*
X105353553Y-72199999D01*
X105492090Y-72338536D01*
X105635548Y-72195077D01*
X105611834Y-72170163D01*
X105850000Y-72170163D01*
X105850000Y-72229837D01*
X105872836Y-72284968D01*
X105915032Y-72327164D01*
X105970163Y-72350000D01*
X106029837Y-72350000D01*
X106084968Y-72327164D01*
X106127164Y-72284968D01*
X106150000Y-72229837D01*
X106150000Y-72199999D01*
X106353553Y-72199999D01*
X106500000Y-72346446D01*
X106646446Y-72200000D01*
X106616609Y-72170163D01*
X106850000Y-72170163D01*
X106850000Y-72229837D01*
X106872836Y-72284968D01*
X106915032Y-72327164D01*
X106970163Y-72350000D01*
X107029837Y-72350000D01*
X107084968Y-72327164D01*
X107127164Y-72284968D01*
X107150000Y-72229837D01*
X107150000Y-72199999D01*
X107353553Y-72199999D01*
X107500000Y-72346446D01*
X107646446Y-72200000D01*
X107616609Y-72170163D01*
X107850000Y-72170163D01*
X107850000Y-72229837D01*
X107872836Y-72284968D01*
X107915032Y-72327164D01*
X107970163Y-72350000D01*
X108029837Y-72350000D01*
X108084968Y-72327164D01*
X108127164Y-72284968D01*
X108150000Y-72229837D01*
X108150000Y-72199999D01*
X108353553Y-72199999D01*
X108353553Y-72200001D01*
X108715845Y-72562293D01*
X108769257Y-72433347D01*
X108769258Y-72433343D01*
X108799999Y-72278797D01*
X108800000Y-72278794D01*
X108800000Y-72121206D01*
X108799999Y-72121202D01*
X108769258Y-71966656D01*
X108769257Y-71966652D01*
X108715845Y-71837706D01*
X108353553Y-72199999D01*
X108150000Y-72199999D01*
X108150000Y-72170163D01*
X108127164Y-72115032D01*
X108084968Y-72072836D01*
X108029837Y-72050000D01*
X107970163Y-72050000D01*
X107915032Y-72072836D01*
X107872836Y-72115032D01*
X107850000Y-72170163D01*
X107616609Y-72170163D01*
X107518524Y-72072078D01*
X107500000Y-72053553D01*
X107481479Y-72072075D01*
X107481477Y-72072077D01*
X107353553Y-72199999D01*
X107150000Y-72199999D01*
X107150000Y-72170163D01*
X107127164Y-72115032D01*
X107084968Y-72072836D01*
X107029837Y-72050000D01*
X106970163Y-72050000D01*
X106915032Y-72072836D01*
X106872836Y-72115032D01*
X106850000Y-72170163D01*
X106616609Y-72170163D01*
X106518524Y-72072078D01*
X106500000Y-72053553D01*
X106481479Y-72072075D01*
X106481477Y-72072077D01*
X106353553Y-72199999D01*
X106150000Y-72199999D01*
X106150000Y-72170163D01*
X106127164Y-72115032D01*
X106084968Y-72072836D01*
X106029837Y-72050000D01*
X105970163Y-72050000D01*
X105915032Y-72072836D01*
X105872836Y-72115032D01*
X105850000Y-72170163D01*
X105611834Y-72170163D01*
X105517435Y-72070989D01*
X105500000Y-72053553D01*
X105481479Y-72072075D01*
X105481477Y-72072077D01*
X105353553Y-72199999D01*
X105150000Y-72199999D01*
X105150000Y-72170163D01*
X105127164Y-72115032D01*
X105084968Y-72072836D01*
X105029837Y-72050000D01*
X104970163Y-72050000D01*
X104915032Y-72072836D01*
X104872836Y-72115032D01*
X104850000Y-72170163D01*
X104616609Y-72170163D01*
X104518524Y-72072078D01*
X104500000Y-72053553D01*
X104481479Y-72072075D01*
X104481477Y-72072077D01*
X104353553Y-72199999D01*
X104150000Y-72199999D01*
X104150000Y-72170163D01*
X104127164Y-72115032D01*
X104084968Y-72072836D01*
X104029837Y-72050000D01*
X103970163Y-72050000D01*
X103915032Y-72072836D01*
X103872836Y-72115032D01*
X103850000Y-72170163D01*
X103616610Y-72170163D01*
X103284153Y-71837705D01*
X103230743Y-71966648D01*
X103230741Y-71966656D01*
X103200000Y-72121202D01*
X102001561Y-72121202D01*
X102015690Y-72107073D01*
X102126760Y-71954199D01*
X102212547Y-71785832D01*
X102240436Y-71699999D01*
X103853553Y-71699999D01*
X104000000Y-71846446D01*
X104146445Y-71700000D01*
X104146446Y-71699999D01*
X104116610Y-71670163D01*
X104350000Y-71670163D01*
X104350000Y-71729837D01*
X104372836Y-71784968D01*
X104415032Y-71827164D01*
X104470163Y-71850000D01*
X104529837Y-71850000D01*
X104584968Y-71827164D01*
X104627164Y-71784968D01*
X104650000Y-71729837D01*
X104650000Y-71699999D01*
X104853553Y-71699999D01*
X105000000Y-71846446D01*
X105146446Y-71700000D01*
X105116609Y-71670163D01*
X105350000Y-71670163D01*
X105350000Y-71729837D01*
X105372836Y-71784968D01*
X105415032Y-71827164D01*
X105470163Y-71850000D01*
X105529837Y-71850000D01*
X105584968Y-71827164D01*
X105627164Y-71784968D01*
X105650000Y-71729837D01*
X105650000Y-71699999D01*
X105853553Y-71699999D01*
X106000000Y-71846446D01*
X106146446Y-71700000D01*
X106116609Y-71670163D01*
X106350000Y-71670163D01*
X106350000Y-71729837D01*
X106372836Y-71784968D01*
X106415032Y-71827164D01*
X106470163Y-71850000D01*
X106529837Y-71850000D01*
X106584968Y-71827164D01*
X106627164Y-71784968D01*
X106650000Y-71729837D01*
X106650000Y-71699999D01*
X106853553Y-71699999D01*
X107000000Y-71846446D01*
X107146446Y-71700000D01*
X107116609Y-71670163D01*
X107350000Y-71670163D01*
X107350000Y-71729837D01*
X107372836Y-71784968D01*
X107415032Y-71827164D01*
X107470163Y-71850000D01*
X107529837Y-71850000D01*
X107584968Y-71827164D01*
X107627164Y-71784968D01*
X107650000Y-71729837D01*
X107650000Y-71699999D01*
X107853553Y-71699999D01*
X108000000Y-71846446D01*
X108146446Y-71700000D01*
X108000000Y-71553553D01*
X107853553Y-71699999D01*
X107650000Y-71699999D01*
X107650000Y-71670163D01*
X107627164Y-71615032D01*
X107584968Y-71572836D01*
X107529837Y-71550000D01*
X107470163Y-71550000D01*
X107415032Y-71572836D01*
X107372836Y-71615032D01*
X107350000Y-71670163D01*
X107116609Y-71670163D01*
X107025388Y-71578942D01*
X107000000Y-71553553D01*
X106974614Y-71578940D01*
X106974612Y-71578942D01*
X106853553Y-71699999D01*
X106650000Y-71699999D01*
X106650000Y-71670163D01*
X106627164Y-71615032D01*
X106584968Y-71572836D01*
X106529837Y-71550000D01*
X106470163Y-71550000D01*
X106415032Y-71572836D01*
X106372836Y-71615032D01*
X106350000Y-71670163D01*
X106116609Y-71670163D01*
X106025388Y-71578942D01*
X106000000Y-71553553D01*
X105974614Y-71578940D01*
X105974612Y-71578942D01*
X105853553Y-71699999D01*
X105650000Y-71699999D01*
X105650000Y-71670163D01*
X105627164Y-71615032D01*
X105584968Y-71572836D01*
X105529837Y-71550000D01*
X105470163Y-71550000D01*
X105415032Y-71572836D01*
X105372836Y-71615032D01*
X105350000Y-71670163D01*
X105116609Y-71670163D01*
X105025388Y-71578942D01*
X105000000Y-71553553D01*
X104974614Y-71578940D01*
X104974612Y-71578942D01*
X104853553Y-71699999D01*
X104650000Y-71699999D01*
X104650000Y-71670163D01*
X104627164Y-71615032D01*
X104584968Y-71572836D01*
X104529837Y-71550000D01*
X104470163Y-71550000D01*
X104415032Y-71572836D01*
X104372836Y-71615032D01*
X104350000Y-71670163D01*
X104116610Y-71670163D01*
X104000000Y-71553553D01*
X103853553Y-71699999D01*
X102240436Y-71699999D01*
X102270940Y-71606118D01*
X102278093Y-71560957D01*
X102300500Y-71419486D01*
X102300500Y-71230513D01*
X102285295Y-71134513D01*
X102283187Y-71121202D01*
X103200000Y-71121202D01*
X103200000Y-71278797D01*
X103230741Y-71433343D01*
X103230743Y-71433351D01*
X103284153Y-71562293D01*
X103285490Y-71560957D01*
X103646446Y-71200001D01*
X103646446Y-71199999D01*
X103616610Y-71170163D01*
X103850000Y-71170163D01*
X103850000Y-71229837D01*
X103872836Y-71284968D01*
X103915032Y-71327164D01*
X103970163Y-71350000D01*
X104029837Y-71350000D01*
X104084968Y-71327164D01*
X104127164Y-71284968D01*
X104150000Y-71229837D01*
X104150000Y-71200000D01*
X104353553Y-71200000D01*
X104499998Y-71346446D01*
X104499999Y-71346446D01*
X104621083Y-71225362D01*
X104631927Y-71185481D01*
X104616609Y-71170163D01*
X104850000Y-71170163D01*
X104850000Y-71229837D01*
X104872836Y-71284968D01*
X104915032Y-71327164D01*
X104970163Y-71350000D01*
X105029837Y-71350000D01*
X105084968Y-71327164D01*
X105127164Y-71284968D01*
X105150000Y-71229837D01*
X105150000Y-71185477D01*
X105368075Y-71185477D01*
X105378930Y-71225376D01*
X105500000Y-71346446D01*
X105621083Y-71225362D01*
X105631927Y-71185481D01*
X105616609Y-71170163D01*
X105850000Y-71170163D01*
X105850000Y-71229837D01*
X105872836Y-71284968D01*
X105915032Y-71327164D01*
X105970163Y-71350000D01*
X106029837Y-71350000D01*
X106084968Y-71327164D01*
X106127164Y-71284968D01*
X106150000Y-71229837D01*
X106150000Y-71185477D01*
X106368075Y-71185477D01*
X106378930Y-71225376D01*
X106500000Y-71346446D01*
X106621083Y-71225362D01*
X106631927Y-71185481D01*
X106616609Y-71170163D01*
X106850000Y-71170163D01*
X106850000Y-71229837D01*
X106872836Y-71284968D01*
X106915032Y-71327164D01*
X106970163Y-71350000D01*
X107029837Y-71350000D01*
X107084968Y-71327164D01*
X107127164Y-71284968D01*
X107150000Y-71229837D01*
X107150000Y-71185477D01*
X107368075Y-71185477D01*
X107378930Y-71225376D01*
X107500000Y-71346446D01*
X107646446Y-71200000D01*
X107616609Y-71170163D01*
X107850000Y-71170163D01*
X107850000Y-71229837D01*
X107872836Y-71284968D01*
X107915032Y-71327164D01*
X107970163Y-71350000D01*
X108029837Y-71350000D01*
X108084968Y-71327164D01*
X108127164Y-71284968D01*
X108150000Y-71229837D01*
X108150000Y-71199999D01*
X108353553Y-71199999D01*
X108353553Y-71200001D01*
X108715845Y-71562293D01*
X108769257Y-71433347D01*
X108769258Y-71433343D01*
X108799999Y-71278797D01*
X108800000Y-71278794D01*
X108800000Y-71121206D01*
X108799999Y-71121202D01*
X108769258Y-70966656D01*
X108769257Y-70966652D01*
X108715845Y-70837706D01*
X108353553Y-71199999D01*
X108150000Y-71199999D01*
X108150000Y-71170163D01*
X108127164Y-71115032D01*
X108084968Y-71072836D01*
X108029837Y-71050000D01*
X107970163Y-71050000D01*
X107915032Y-71072836D01*
X107872836Y-71115032D01*
X107850000Y-71170163D01*
X107616609Y-71170163D01*
X107500000Y-71053553D01*
X107368075Y-71185477D01*
X107150000Y-71185477D01*
X107150000Y-71170163D01*
X107127164Y-71115032D01*
X107084968Y-71072836D01*
X107029837Y-71050000D01*
X106970163Y-71050000D01*
X106915032Y-71072836D01*
X106872836Y-71115032D01*
X106850000Y-71170163D01*
X106616609Y-71170163D01*
X106500000Y-71053553D01*
X106368075Y-71185477D01*
X106150000Y-71185477D01*
X106150000Y-71170163D01*
X106127164Y-71115032D01*
X106084968Y-71072836D01*
X106029837Y-71050000D01*
X105970163Y-71050000D01*
X105915032Y-71072836D01*
X105872836Y-71115032D01*
X105850000Y-71170163D01*
X105616609Y-71170163D01*
X105500000Y-71053553D01*
X105368075Y-71185477D01*
X105150000Y-71185477D01*
X105150000Y-71170163D01*
X105127164Y-71115032D01*
X105084968Y-71072836D01*
X105029837Y-71050000D01*
X104970163Y-71050000D01*
X104915032Y-71072836D01*
X104872836Y-71115032D01*
X104850000Y-71170163D01*
X104616609Y-71170163D01*
X104500000Y-71053553D01*
X104353553Y-71200000D01*
X104150000Y-71200000D01*
X104150000Y-71170163D01*
X104127164Y-71115032D01*
X104084968Y-71072836D01*
X104029837Y-71050000D01*
X103970163Y-71050000D01*
X103915032Y-71072836D01*
X103872836Y-71115032D01*
X103850000Y-71170163D01*
X103616610Y-71170163D01*
X103284153Y-70837705D01*
X103230743Y-70966648D01*
X103230741Y-70966656D01*
X103200000Y-71121202D01*
X102283187Y-71121202D01*
X102270940Y-71043881D01*
X102212545Y-70864163D01*
X102126759Y-70695800D01*
X102055597Y-70597854D01*
X102055596Y-70597851D01*
X102015694Y-70542933D01*
X102015690Y-70542927D01*
X101956916Y-70484153D01*
X103637705Y-70484153D01*
X104000000Y-70846446D01*
X104000001Y-70846446D01*
X104362293Y-70484153D01*
X104637705Y-70484153D01*
X105000000Y-70846446D01*
X105000001Y-70846446D01*
X105362293Y-70484153D01*
X105637705Y-70484153D01*
X106000000Y-70846446D01*
X106000001Y-70846446D01*
X106362293Y-70484153D01*
X106637705Y-70484153D01*
X107000000Y-70846446D01*
X107000001Y-70846446D01*
X107362293Y-70484153D01*
X107637705Y-70484153D01*
X108000000Y-70846446D01*
X108000001Y-70846446D01*
X108362293Y-70484153D01*
X108233351Y-70430743D01*
X108233343Y-70430741D01*
X108078797Y-70400000D01*
X107921202Y-70400000D01*
X107766656Y-70430741D01*
X107766648Y-70430743D01*
X107637705Y-70484153D01*
X107362293Y-70484153D01*
X107233351Y-70430743D01*
X107233343Y-70430741D01*
X107078797Y-70400000D01*
X106921202Y-70400000D01*
X106766656Y-70430741D01*
X106766648Y-70430743D01*
X106637705Y-70484153D01*
X106362293Y-70484153D01*
X106233351Y-70430743D01*
X106233343Y-70430741D01*
X106078797Y-70400000D01*
X105921202Y-70400000D01*
X105766656Y-70430741D01*
X105766648Y-70430743D01*
X105637705Y-70484153D01*
X105362293Y-70484153D01*
X105233351Y-70430743D01*
X105233343Y-70430741D01*
X105078797Y-70400000D01*
X104921202Y-70400000D01*
X104766656Y-70430741D01*
X104766648Y-70430743D01*
X104637705Y-70484153D01*
X104362293Y-70484153D01*
X104233351Y-70430743D01*
X104233343Y-70430741D01*
X104078797Y-70400000D01*
X103921202Y-70400000D01*
X103766656Y-70430741D01*
X103766648Y-70430743D01*
X103637705Y-70484153D01*
X101956916Y-70484153D01*
X101882073Y-70409310D01*
X101729199Y-70298240D01*
X101560836Y-70212454D01*
X101381118Y-70154059D01*
X101194486Y-70124500D01*
X101194481Y-70124500D01*
X101005519Y-70124500D01*
X101005514Y-70124500D01*
X100818881Y-70154059D01*
X100639163Y-70212454D01*
X100470800Y-70298240D01*
X100383579Y-70361610D01*
X100317927Y-70409310D01*
X100317925Y-70409312D01*
X100317924Y-70409312D01*
X100184312Y-70542924D01*
X100184312Y-70542925D01*
X100184310Y-70542927D01*
X100144405Y-70597851D01*
X100073240Y-70695800D01*
X99987454Y-70864163D01*
X99929059Y-71043881D01*
X99899500Y-71230513D01*
X91300500Y-71230513D01*
X91270940Y-71043881D01*
X91212545Y-70864163D01*
X91126759Y-70695800D01*
X91015690Y-70542927D01*
X90882073Y-70409310D01*
X90729199Y-70298240D01*
X90560836Y-70212454D01*
X90381118Y-70154059D01*
X90194486Y-70124500D01*
X90194481Y-70124500D01*
X90005519Y-70124500D01*
X90005514Y-70124500D01*
X89818881Y-70154059D01*
X89639163Y-70212454D01*
X89470800Y-70298240D01*
X89383579Y-70361610D01*
X89317927Y-70409310D01*
X89317925Y-70409312D01*
X89317924Y-70409312D01*
X89184312Y-70542924D01*
X89184312Y-70542925D01*
X89184310Y-70542927D01*
X89144405Y-70597851D01*
X89073240Y-70695800D01*
X88987454Y-70864163D01*
X88929059Y-71043881D01*
X88899500Y-71230513D01*
X85216775Y-71230513D01*
X85156054Y-71003900D01*
X85063224Y-70779788D01*
X84941936Y-70569711D01*
X84818856Y-70409310D01*
X84794266Y-70377263D01*
X84794260Y-70377256D01*
X84622743Y-70205739D01*
X84622736Y-70205733D01*
X84430293Y-70058067D01*
X84430292Y-70058066D01*
X84430289Y-70058064D01*
X84220212Y-69936776D01*
X84220205Y-69936773D01*
X83996104Y-69843947D01*
X83761785Y-69781161D01*
X83521289Y-69749500D01*
X83521288Y-69749500D01*
X83278712Y-69749500D01*
X83278711Y-69749500D01*
X83038214Y-69781161D01*
X82803895Y-69843947D01*
X82579794Y-69936773D01*
X82579785Y-69936777D01*
X82369706Y-70058067D01*
X82177263Y-70205733D01*
X82177256Y-70205739D01*
X82005739Y-70377256D01*
X82005733Y-70377263D01*
X81858067Y-70569706D01*
X81736777Y-70779785D01*
X81736773Y-70779794D01*
X81643947Y-71003895D01*
X81581161Y-71238214D01*
X81549500Y-71478711D01*
X80500500Y-71478711D01*
X80500500Y-62321153D01*
X82399500Y-62321153D01*
X82399500Y-62478846D01*
X82430261Y-62633489D01*
X82430264Y-62633501D01*
X82490602Y-62779172D01*
X82490609Y-62779185D01*
X82578210Y-62910288D01*
X82578213Y-62910292D01*
X82689707Y-63021786D01*
X82689711Y-63021789D01*
X82820814Y-63109390D01*
X82820827Y-63109397D01*
X82966498Y-63169735D01*
X82966503Y-63169737D01*
X83121153Y-63200499D01*
X83121156Y-63200500D01*
X83121158Y-63200500D01*
X83278844Y-63200500D01*
X83278845Y-63200499D01*
X83433497Y-63169737D01*
X83579179Y-63109394D01*
X83710289Y-63021789D01*
X83821789Y-62910289D01*
X83909394Y-62779179D01*
X83969737Y-62633497D01*
X84000500Y-62478842D01*
X84000500Y-62321158D01*
X84000500Y-62321155D01*
X84000499Y-62321153D01*
X83981758Y-62226935D01*
X83969737Y-62166503D01*
X83958450Y-62139254D01*
X83909397Y-62020827D01*
X83909390Y-62020814D01*
X83821789Y-61889711D01*
X83821786Y-61889707D01*
X83710292Y-61778213D01*
X83710288Y-61778210D01*
X83579185Y-61690609D01*
X83579172Y-61690602D01*
X83433501Y-61630264D01*
X83433489Y-61630261D01*
X83278845Y-61599500D01*
X83278842Y-61599500D01*
X83121158Y-61599500D01*
X83121155Y-61599500D01*
X82966510Y-61630261D01*
X82966498Y-61630264D01*
X82820827Y-61690602D01*
X82820814Y-61690609D01*
X82689711Y-61778210D01*
X82689707Y-61778213D01*
X82578213Y-61889707D01*
X82578210Y-61889711D01*
X82490609Y-62020814D01*
X82490602Y-62020827D01*
X82430264Y-62166498D01*
X82430261Y-62166510D01*
X82399500Y-62321153D01*
X80500500Y-62321153D01*
X80500500Y-59721153D01*
X86399500Y-59721153D01*
X86399500Y-59878846D01*
X86430261Y-60033489D01*
X86430264Y-60033501D01*
X86490602Y-60179172D01*
X86490609Y-60179185D01*
X86578210Y-60310288D01*
X86578213Y-60310292D01*
X86680240Y-60412319D01*
X86713725Y-60473642D01*
X86708741Y-60543334D01*
X86680240Y-60587681D01*
X86578213Y-60689707D01*
X86578210Y-60689711D01*
X86490609Y-60820814D01*
X86490602Y-60820827D01*
X86430264Y-60966498D01*
X86430261Y-60966510D01*
X86399500Y-61121153D01*
X86399500Y-61278846D01*
X86430261Y-61433489D01*
X86430264Y-61433501D01*
X86490602Y-61579172D01*
X86490609Y-61579185D01*
X86578210Y-61710288D01*
X86578213Y-61710292D01*
X86689707Y-61821786D01*
X86689711Y-61821789D01*
X86820814Y-61909390D01*
X86820827Y-61909397D01*
X86966498Y-61969735D01*
X86966503Y-61969737D01*
X87121153Y-62000499D01*
X87121156Y-62000500D01*
X87121158Y-62000500D01*
X87278844Y-62000500D01*
X87278845Y-62000499D01*
X87433497Y-61969737D01*
X87579179Y-61909394D01*
X87710289Y-61821789D01*
X87821789Y-61710289D01*
X87909394Y-61579179D01*
X87969737Y-61433497D01*
X88000500Y-61278842D01*
X88000500Y-61121158D01*
X88000500Y-61121155D01*
X88000499Y-61121153D01*
X87969738Y-60966510D01*
X87969737Y-60966503D01*
X87935981Y-60885007D01*
X87909397Y-60820827D01*
X87909390Y-60820814D01*
X87821789Y-60689711D01*
X87821786Y-60689707D01*
X87719760Y-60587681D01*
X87686275Y-60526358D01*
X87691259Y-60456666D01*
X87719760Y-60412319D01*
X87821786Y-60310292D01*
X87821789Y-60310289D01*
X87909394Y-60179179D01*
X87969737Y-60033497D01*
X88000500Y-59878842D01*
X88000500Y-59721158D01*
X88000500Y-59717847D01*
X88020185Y-59650808D01*
X88072989Y-59605053D01*
X88100309Y-59596230D01*
X88116291Y-59593050D01*
X88233497Y-59569737D01*
X88323048Y-59532643D01*
X88392517Y-59525175D01*
X88454996Y-59556450D01*
X88490648Y-59616539D01*
X88494500Y-59647205D01*
X88494500Y-66276000D01*
X88494501Y-66276009D01*
X88506052Y-66383450D01*
X88506054Y-66383462D01*
X88517260Y-66434972D01*
X88551383Y-66537497D01*
X88551386Y-66537503D01*
X88629171Y-66658537D01*
X88629179Y-66658548D01*
X88674923Y-66711340D01*
X88674926Y-66711343D01*
X88674930Y-66711347D01*
X88783664Y-66805567D01*
X88783667Y-66805568D01*
X88783668Y-66805569D01*
X88860883Y-66840833D01*
X88914541Y-66865338D01*
X88981580Y-66885023D01*
X88981584Y-66885024D01*
X89124000Y-66905500D01*
X89124003Y-66905500D01*
X111148640Y-66905500D01*
X111158786Y-66904955D01*
X111202678Y-66902603D01*
X111202686Y-66902602D01*
X111202688Y-66902602D01*
X111202689Y-66902602D01*
X111209682Y-66901849D01*
X111229036Y-66899769D01*
X111229046Y-66899767D01*
X111229049Y-66899767D01*
X111238648Y-66898211D01*
X111282448Y-66891114D01*
X111417257Y-66840832D01*
X111478580Y-66807347D01*
X111593761Y-66721123D01*
X112121123Y-66193761D01*
X112157288Y-66153500D01*
X112173922Y-66132858D01*
X112205567Y-66088974D01*
X112265338Y-65958097D01*
X112268845Y-65946153D01*
X115432000Y-65946153D01*
X115432000Y-66103846D01*
X115462761Y-66258489D01*
X115462764Y-66258501D01*
X115523102Y-66404172D01*
X115523109Y-66404185D01*
X115610710Y-66535288D01*
X115610713Y-66535292D01*
X115722207Y-66646786D01*
X115722211Y-66646789D01*
X115853314Y-66734390D01*
X115853327Y-66734397D01*
X115998998Y-66794735D01*
X115999003Y-66794737D01*
X116153653Y-66825499D01*
X116153656Y-66825500D01*
X116153658Y-66825500D01*
X116311344Y-66825500D01*
X116311345Y-66825499D01*
X116465997Y-66794737D01*
X116611679Y-66734394D01*
X116742789Y-66646789D01*
X116854289Y-66535289D01*
X116941894Y-66404179D01*
X117002237Y-66258497D01*
X117033000Y-66103842D01*
X117033000Y-65946158D01*
X117033000Y-65946155D01*
X117032999Y-65946153D01*
X117002238Y-65791510D01*
X117002237Y-65791503D01*
X116984481Y-65748635D01*
X116941897Y-65645827D01*
X116941890Y-65645814D01*
X116854289Y-65514711D01*
X116854286Y-65514707D01*
X116742792Y-65403213D01*
X116742788Y-65403210D01*
X116611685Y-65315609D01*
X116611672Y-65315602D01*
X116466001Y-65255264D01*
X116465989Y-65255261D01*
X116311345Y-65224500D01*
X116311342Y-65224500D01*
X116153658Y-65224500D01*
X116153655Y-65224500D01*
X115999010Y-65255261D01*
X115998998Y-65255264D01*
X115853327Y-65315602D01*
X115853314Y-65315609D01*
X115722211Y-65403210D01*
X115722207Y-65403213D01*
X115610713Y-65514707D01*
X115610710Y-65514711D01*
X115523109Y-65645814D01*
X115523102Y-65645827D01*
X115462764Y-65791498D01*
X115462761Y-65791510D01*
X115432000Y-65946153D01*
X112268845Y-65946153D01*
X112280892Y-65905127D01*
X112285021Y-65891067D01*
X112285022Y-65891060D01*
X112285023Y-65891058D01*
X112285024Y-65891054D01*
X112305500Y-65748638D01*
X112305500Y-64847205D01*
X112325185Y-64780166D01*
X112377989Y-64734411D01*
X112447147Y-64724467D01*
X112476949Y-64732643D01*
X112566503Y-64769737D01*
X112721153Y-64800499D01*
X112721156Y-64800500D01*
X112721158Y-64800500D01*
X112878844Y-64800500D01*
X112878845Y-64800499D01*
X113033497Y-64769737D01*
X113179179Y-64709394D01*
X113310289Y-64621789D01*
X113421789Y-64510289D01*
X113509394Y-64379179D01*
X113569737Y-64233497D01*
X113600500Y-64078842D01*
X113600500Y-64029500D01*
X113620185Y-63962461D01*
X113672989Y-63916706D01*
X113724500Y-63905500D01*
X118348640Y-63905500D01*
X118358786Y-63904955D01*
X118402678Y-63902603D01*
X118402686Y-63902602D01*
X118402688Y-63902602D01*
X118402689Y-63902602D01*
X118409682Y-63901849D01*
X118429036Y-63899769D01*
X118429046Y-63899767D01*
X118429049Y-63899767D01*
X118438648Y-63898211D01*
X118482448Y-63891114D01*
X118617257Y-63840832D01*
X118678580Y-63807347D01*
X118793761Y-63721123D01*
X119521123Y-62993761D01*
X119557288Y-62953500D01*
X119573922Y-62932858D01*
X119605567Y-62888974D01*
X119665338Y-62758097D01*
X119685023Y-62691058D01*
X119685024Y-62691054D01*
X119705500Y-62548638D01*
X119705500Y-59521153D01*
X126649500Y-59521153D01*
X126649500Y-59678846D01*
X126680261Y-59833489D01*
X126680264Y-59833501D01*
X126740602Y-59979172D01*
X126740609Y-59979185D01*
X126828210Y-60110288D01*
X126828213Y-60110292D01*
X126939707Y-60221786D01*
X126939711Y-60221789D01*
X127070814Y-60309390D01*
X127070827Y-60309397D01*
X127216498Y-60369735D01*
X127216503Y-60369737D01*
X127371153Y-60400499D01*
X127371156Y-60400500D01*
X127371158Y-60400500D01*
X127528844Y-60400500D01*
X127528845Y-60400499D01*
X127683497Y-60369737D01*
X127829179Y-60309394D01*
X127960289Y-60221789D01*
X128071789Y-60110289D01*
X128159394Y-59979179D01*
X128219737Y-59833497D01*
X128250500Y-59678842D01*
X128250500Y-59521158D01*
X128250499Y-59521153D01*
X142449500Y-59521153D01*
X142449500Y-59678846D01*
X142480261Y-59833489D01*
X142480264Y-59833501D01*
X142540602Y-59979172D01*
X142540609Y-59979185D01*
X142628210Y-60110288D01*
X142628213Y-60110292D01*
X142739707Y-60221786D01*
X142739711Y-60221789D01*
X142870814Y-60309390D01*
X142870827Y-60309397D01*
X143016498Y-60369735D01*
X143016503Y-60369737D01*
X143171153Y-60400499D01*
X143171156Y-60400500D01*
X143171158Y-60400500D01*
X143328844Y-60400500D01*
X143328845Y-60400499D01*
X143483497Y-60369737D01*
X143629179Y-60309394D01*
X143760289Y-60221789D01*
X143871789Y-60110289D01*
X143959394Y-59979179D01*
X144019737Y-59833497D01*
X144050500Y-59678842D01*
X144050500Y-59521158D01*
X144050500Y-59521155D01*
X144050499Y-59521153D01*
X158549500Y-59521153D01*
X158549500Y-59678846D01*
X158580261Y-59833489D01*
X158580264Y-59833501D01*
X158640602Y-59979172D01*
X158640609Y-59979185D01*
X158728210Y-60110288D01*
X158728213Y-60110292D01*
X158839707Y-60221786D01*
X158839711Y-60221789D01*
X158970814Y-60309390D01*
X158970827Y-60309397D01*
X159116498Y-60369735D01*
X159116503Y-60369737D01*
X159271153Y-60400499D01*
X159271156Y-60400500D01*
X159271158Y-60400500D01*
X159428844Y-60400500D01*
X159428845Y-60400499D01*
X159583497Y-60369737D01*
X159729179Y-60309394D01*
X159860289Y-60221789D01*
X159971789Y-60110289D01*
X160059394Y-59979179D01*
X160119737Y-59833497D01*
X160150500Y-59678842D01*
X160150500Y-59521158D01*
X160150500Y-59521155D01*
X160150499Y-59521153D01*
X160130543Y-59420827D01*
X160119737Y-59366503D01*
X160119735Y-59366498D01*
X160059397Y-59220827D01*
X160059390Y-59220814D01*
X159971789Y-59089711D01*
X159971786Y-59089707D01*
X159860292Y-58978213D01*
X159860288Y-58978210D01*
X159729185Y-58890609D01*
X159729172Y-58890602D01*
X159583501Y-58830264D01*
X159583489Y-58830261D01*
X159428845Y-58799500D01*
X159428842Y-58799500D01*
X159271158Y-58799500D01*
X159271155Y-58799500D01*
X159116510Y-58830261D01*
X159116498Y-58830264D01*
X158970827Y-58890602D01*
X158970814Y-58890609D01*
X158839711Y-58978210D01*
X158839707Y-58978213D01*
X158728213Y-59089707D01*
X158728210Y-59089711D01*
X158640609Y-59220814D01*
X158640602Y-59220827D01*
X158580264Y-59366498D01*
X158580261Y-59366510D01*
X158549500Y-59521153D01*
X144050499Y-59521153D01*
X144030543Y-59420827D01*
X144019737Y-59366503D01*
X144019735Y-59366498D01*
X143959397Y-59220827D01*
X143959390Y-59220814D01*
X143871789Y-59089711D01*
X143871786Y-59089707D01*
X143760292Y-58978213D01*
X143760288Y-58978210D01*
X143629185Y-58890609D01*
X143629172Y-58890602D01*
X143483501Y-58830264D01*
X143483489Y-58830261D01*
X143328845Y-58799500D01*
X143328842Y-58799500D01*
X143171158Y-58799500D01*
X143171155Y-58799500D01*
X143016510Y-58830261D01*
X143016498Y-58830264D01*
X142870827Y-58890602D01*
X142870814Y-58890609D01*
X142739711Y-58978210D01*
X142739707Y-58978213D01*
X142628213Y-59089707D01*
X142628210Y-59089711D01*
X142540609Y-59220814D01*
X142540602Y-59220827D01*
X142480264Y-59366498D01*
X142480261Y-59366510D01*
X142449500Y-59521153D01*
X128250499Y-59521153D01*
X128219737Y-59366503D01*
X128214067Y-59352815D01*
X128211693Y-59341408D01*
X128213599Y-59317737D01*
X128211060Y-59294129D01*
X128216353Y-59283552D01*
X128217303Y-59271764D01*
X128231703Y-59252882D01*
X128242331Y-59231648D01*
X128252501Y-59225613D01*
X128259674Y-59216208D01*
X128281998Y-59208108D01*
X128302418Y-59195992D01*
X128308900Y-59194521D01*
X128433497Y-59169737D01*
X128570454Y-59113008D01*
X128579172Y-59109397D01*
X128579172Y-59109396D01*
X128579179Y-59109394D01*
X128710289Y-59021789D01*
X128821789Y-58910289D01*
X128909394Y-58779179D01*
X128969737Y-58633497D01*
X129000500Y-58478842D01*
X129000500Y-58321158D01*
X129000500Y-58321155D01*
X129000499Y-58321153D01*
X128980734Y-58221789D01*
X128969737Y-58166503D01*
X128927937Y-58065588D01*
X128909397Y-58020827D01*
X128909390Y-58020814D01*
X128821789Y-57889711D01*
X128821786Y-57889707D01*
X128710292Y-57778213D01*
X128710288Y-57778210D01*
X128579185Y-57690609D01*
X128579172Y-57690602D01*
X128433501Y-57630264D01*
X128433489Y-57630261D01*
X128278845Y-57599500D01*
X128278842Y-57599500D01*
X128121158Y-57599500D01*
X128121155Y-57599500D01*
X127966510Y-57630261D01*
X127966498Y-57630264D01*
X127820827Y-57690602D01*
X127820814Y-57690609D01*
X127689711Y-57778210D01*
X127689707Y-57778213D01*
X127578213Y-57889707D01*
X127578210Y-57889711D01*
X127490609Y-58020814D01*
X127490602Y-58020827D01*
X127430264Y-58166498D01*
X127430261Y-58166510D01*
X127399500Y-58321153D01*
X127399500Y-58478846D01*
X127430261Y-58633489D01*
X127430263Y-58633497D01*
X127431469Y-58636408D01*
X127431646Y-58638055D01*
X127432031Y-58639324D01*
X127431790Y-58639397D01*
X127438938Y-58705877D01*
X127407663Y-58768357D01*
X127347574Y-58804009D01*
X127341100Y-58805478D01*
X127216508Y-58830261D01*
X127216498Y-58830264D01*
X127070827Y-58890602D01*
X127070814Y-58890609D01*
X126939711Y-58978210D01*
X126939707Y-58978213D01*
X126828213Y-59089707D01*
X126828210Y-59089711D01*
X126740609Y-59220814D01*
X126740602Y-59220827D01*
X126680264Y-59366498D01*
X126680261Y-59366510D01*
X126649500Y-59521153D01*
X119705500Y-59521153D01*
X119705500Y-57229500D01*
X119725185Y-57162461D01*
X119777989Y-57116706D01*
X119829500Y-57105500D01*
X121275990Y-57105500D01*
X121276000Y-57105500D01*
X121383456Y-57093947D01*
X121434967Y-57082741D01*
X121469197Y-57071347D01*
X121537497Y-57048616D01*
X121537501Y-57048613D01*
X121537504Y-57048613D01*
X121658543Y-56970825D01*
X121711347Y-56925070D01*
X121805567Y-56816336D01*
X121865338Y-56685459D01*
X121885023Y-56618420D01*
X121885024Y-56618416D01*
X121905500Y-56476000D01*
X121905500Y-53921153D01*
X127399500Y-53921153D01*
X127399500Y-54078846D01*
X127430261Y-54233489D01*
X127430264Y-54233501D01*
X127490602Y-54379172D01*
X127490609Y-54379185D01*
X127578210Y-54510288D01*
X127578213Y-54510292D01*
X127689707Y-54621786D01*
X127689711Y-54621789D01*
X127820814Y-54709390D01*
X127820827Y-54709397D01*
X127958683Y-54766498D01*
X127966503Y-54769737D01*
X128121153Y-54800499D01*
X128121156Y-54800500D01*
X128121158Y-54800500D01*
X128278844Y-54800500D01*
X128278845Y-54800499D01*
X128433497Y-54769737D01*
X128579179Y-54709394D01*
X128710289Y-54621789D01*
X128811194Y-54520883D01*
X128872515Y-54487400D01*
X128942207Y-54492384D01*
X128998141Y-54534255D01*
X129020491Y-54584374D01*
X129030261Y-54633491D01*
X129030264Y-54633501D01*
X129090602Y-54779172D01*
X129090609Y-54779185D01*
X129178210Y-54910288D01*
X129178213Y-54910292D01*
X129289707Y-55021786D01*
X129289711Y-55021789D01*
X129420814Y-55109390D01*
X129420827Y-55109397D01*
X129566498Y-55169735D01*
X129566503Y-55169737D01*
X129721153Y-55200499D01*
X129721156Y-55200500D01*
X129721158Y-55200500D01*
X129878844Y-55200500D01*
X129878845Y-55200499D01*
X130033497Y-55169737D01*
X130179179Y-55109394D01*
X130310289Y-55021789D01*
X130421789Y-54910289D01*
X130509394Y-54779179D01*
X130569737Y-54633497D01*
X130600500Y-54478842D01*
X130600500Y-54321158D01*
X130600500Y-54321155D01*
X130600499Y-54321153D01*
X130589755Y-54267142D01*
X130569737Y-54166503D01*
X130533427Y-54078842D01*
X130509397Y-54020827D01*
X130509390Y-54020814D01*
X130484763Y-53983957D01*
X130442798Y-53921153D01*
X135599500Y-53921153D01*
X135599500Y-54078846D01*
X135630261Y-54233489D01*
X135630264Y-54233501D01*
X135690602Y-54379172D01*
X135690609Y-54379185D01*
X135778210Y-54510288D01*
X135778213Y-54510292D01*
X135889707Y-54621786D01*
X135889711Y-54621789D01*
X136020814Y-54709390D01*
X136020827Y-54709397D01*
X136158683Y-54766498D01*
X136166503Y-54769737D01*
X136321153Y-54800499D01*
X136321156Y-54800500D01*
X136321158Y-54800500D01*
X136478844Y-54800500D01*
X136478845Y-54800499D01*
X136633497Y-54769737D01*
X136779179Y-54709394D01*
X136910289Y-54621789D01*
X137021789Y-54510289D01*
X137109394Y-54379179D01*
X137169737Y-54233497D01*
X137200500Y-54078842D01*
X137200500Y-53921158D01*
X137200500Y-53921155D01*
X137200499Y-53921153D01*
X144999500Y-53921153D01*
X144999500Y-54078846D01*
X145030261Y-54233489D01*
X145030264Y-54233501D01*
X145090602Y-54379172D01*
X145090609Y-54379185D01*
X145178210Y-54510288D01*
X145178213Y-54510292D01*
X145289707Y-54621786D01*
X145289711Y-54621789D01*
X145420814Y-54709390D01*
X145420827Y-54709397D01*
X145558683Y-54766498D01*
X145566503Y-54769737D01*
X145721153Y-54800499D01*
X145721156Y-54800500D01*
X145721158Y-54800500D01*
X145878844Y-54800500D01*
X145878845Y-54800499D01*
X146033497Y-54769737D01*
X146179179Y-54709394D01*
X146310289Y-54621789D01*
X146421789Y-54510289D01*
X146509394Y-54379179D01*
X146569737Y-54233497D01*
X146600500Y-54078842D01*
X146600500Y-53921158D01*
X146600500Y-53921155D01*
X146600499Y-53921153D01*
X146592137Y-53879115D01*
X146569737Y-53766503D01*
X146550955Y-53721158D01*
X146550953Y-53721153D01*
X151399500Y-53721153D01*
X151399500Y-53878846D01*
X151430261Y-54033489D01*
X151430264Y-54033501D01*
X151490602Y-54179172D01*
X151490609Y-54179185D01*
X151578210Y-54310288D01*
X151578213Y-54310292D01*
X151689707Y-54421786D01*
X151689711Y-54421789D01*
X151820814Y-54509390D01*
X151820827Y-54509397D01*
X151964463Y-54568892D01*
X151966503Y-54569737D01*
X152121153Y-54600499D01*
X152121156Y-54600500D01*
X152121158Y-54600500D01*
X152278844Y-54600500D01*
X152278845Y-54600499D01*
X152433497Y-54569737D01*
X152579179Y-54509394D01*
X152710289Y-54421789D01*
X152821789Y-54310289D01*
X152909394Y-54179179D01*
X152969737Y-54033497D01*
X153000500Y-53878842D01*
X153000500Y-53721158D01*
X153000500Y-53721155D01*
X153000499Y-53721153D01*
X160399500Y-53721153D01*
X160399500Y-53878846D01*
X160430261Y-54033489D01*
X160430264Y-54033501D01*
X160490602Y-54179172D01*
X160490609Y-54179185D01*
X160578210Y-54310288D01*
X160578213Y-54310292D01*
X160689707Y-54421786D01*
X160689711Y-54421789D01*
X160820814Y-54509390D01*
X160820827Y-54509397D01*
X160964463Y-54568892D01*
X160966503Y-54569737D01*
X161121153Y-54600499D01*
X161121156Y-54600500D01*
X161121158Y-54600500D01*
X161278844Y-54600500D01*
X161278845Y-54600499D01*
X161433497Y-54569737D01*
X161579179Y-54509394D01*
X161710289Y-54421789D01*
X161821789Y-54310289D01*
X161909394Y-54179179D01*
X161969737Y-54033497D01*
X162000500Y-53878842D01*
X162000500Y-53721158D01*
X162000500Y-53721155D01*
X162000499Y-53721153D01*
X161994422Y-53690602D01*
X161969737Y-53566503D01*
X161950955Y-53521158D01*
X161950953Y-53521153D01*
X166999500Y-53521153D01*
X166999500Y-53678846D01*
X167030261Y-53833489D01*
X167030264Y-53833501D01*
X167090602Y-53979172D01*
X167090609Y-53979185D01*
X167178210Y-54110288D01*
X167178213Y-54110292D01*
X167289707Y-54221786D01*
X167289711Y-54221789D01*
X167420814Y-54309390D01*
X167420827Y-54309397D01*
X167566498Y-54369735D01*
X167566503Y-54369737D01*
X167721153Y-54400499D01*
X167721156Y-54400500D01*
X167721158Y-54400500D01*
X167878844Y-54400500D01*
X167878845Y-54400499D01*
X168033497Y-54369737D01*
X168175239Y-54311026D01*
X168179172Y-54309397D01*
X168179172Y-54309396D01*
X168179179Y-54309394D01*
X168310289Y-54221789D01*
X168421789Y-54110289D01*
X168509394Y-53979179D01*
X168569737Y-53833497D01*
X168600500Y-53678842D01*
X168600500Y-53521158D01*
X168600500Y-53521155D01*
X168600499Y-53521153D01*
X168594244Y-53489707D01*
X168569737Y-53366503D01*
X168537929Y-53289711D01*
X168509397Y-53220827D01*
X168509390Y-53220814D01*
X168421789Y-53089711D01*
X168421786Y-53089707D01*
X168310292Y-52978213D01*
X168310288Y-52978210D01*
X168179185Y-52890609D01*
X168179172Y-52890602D01*
X168033501Y-52830264D01*
X168033489Y-52830261D01*
X167878845Y-52799500D01*
X167878842Y-52799500D01*
X167721158Y-52799500D01*
X167721155Y-52799500D01*
X167566510Y-52830261D01*
X167566498Y-52830264D01*
X167420827Y-52890602D01*
X167420814Y-52890609D01*
X167289711Y-52978210D01*
X167289707Y-52978213D01*
X167178213Y-53089707D01*
X167178210Y-53089711D01*
X167090609Y-53220814D01*
X167090602Y-53220827D01*
X167030264Y-53366498D01*
X167030261Y-53366510D01*
X166999500Y-53521153D01*
X161950953Y-53521153D01*
X161909397Y-53420827D01*
X161909390Y-53420814D01*
X161821789Y-53289711D01*
X161821786Y-53289707D01*
X161710292Y-53178213D01*
X161710288Y-53178210D01*
X161579185Y-53090609D01*
X161579172Y-53090602D01*
X161433501Y-53030264D01*
X161433489Y-53030261D01*
X161278845Y-52999500D01*
X161278842Y-52999500D01*
X161121158Y-52999500D01*
X161121155Y-52999500D01*
X160966510Y-53030261D01*
X160966498Y-53030264D01*
X160820827Y-53090602D01*
X160820814Y-53090609D01*
X160689711Y-53178210D01*
X160689707Y-53178213D01*
X160578213Y-53289707D01*
X160578210Y-53289711D01*
X160490609Y-53420814D01*
X160490602Y-53420827D01*
X160430264Y-53566498D01*
X160430261Y-53566510D01*
X160399500Y-53721153D01*
X153000499Y-53721153D01*
X152994422Y-53690602D01*
X152969737Y-53566503D01*
X152950955Y-53521158D01*
X152909397Y-53420827D01*
X152909390Y-53420814D01*
X152821789Y-53289711D01*
X152821786Y-53289707D01*
X152710292Y-53178213D01*
X152710288Y-53178210D01*
X152579185Y-53090609D01*
X152579172Y-53090602D01*
X152433501Y-53030264D01*
X152433489Y-53030261D01*
X152278845Y-52999500D01*
X152278842Y-52999500D01*
X152121158Y-52999500D01*
X152121155Y-52999500D01*
X151966510Y-53030261D01*
X151966498Y-53030264D01*
X151820827Y-53090602D01*
X151820814Y-53090609D01*
X151689711Y-53178210D01*
X151689707Y-53178213D01*
X151578213Y-53289707D01*
X151578210Y-53289711D01*
X151490609Y-53420814D01*
X151490602Y-53420827D01*
X151430264Y-53566498D01*
X151430261Y-53566510D01*
X151399500Y-53721153D01*
X146550953Y-53721153D01*
X146509397Y-53620827D01*
X146509390Y-53620814D01*
X146421789Y-53489711D01*
X146421786Y-53489707D01*
X146310292Y-53378213D01*
X146310288Y-53378210D01*
X146179185Y-53290609D01*
X146179172Y-53290602D01*
X146033501Y-53230264D01*
X146033489Y-53230261D01*
X145878845Y-53199500D01*
X145878842Y-53199500D01*
X145721158Y-53199500D01*
X145721155Y-53199500D01*
X145566510Y-53230261D01*
X145566498Y-53230264D01*
X145420827Y-53290602D01*
X145420814Y-53290609D01*
X145289711Y-53378210D01*
X145289707Y-53378213D01*
X145178213Y-53489707D01*
X145178210Y-53489711D01*
X145090609Y-53620814D01*
X145090602Y-53620827D01*
X145030264Y-53766498D01*
X145030261Y-53766510D01*
X144999500Y-53921153D01*
X137200499Y-53921153D01*
X137192137Y-53879115D01*
X137169737Y-53766503D01*
X137150955Y-53721158D01*
X137109397Y-53620827D01*
X137109390Y-53620814D01*
X137021789Y-53489711D01*
X137021786Y-53489707D01*
X136910292Y-53378213D01*
X136910288Y-53378210D01*
X136779185Y-53290609D01*
X136779172Y-53290602D01*
X136633501Y-53230264D01*
X136633489Y-53230261D01*
X136478845Y-53199500D01*
X136478842Y-53199500D01*
X136321158Y-53199500D01*
X136321155Y-53199500D01*
X136166510Y-53230261D01*
X136166498Y-53230264D01*
X136020827Y-53290602D01*
X136020814Y-53290609D01*
X135889711Y-53378210D01*
X135889707Y-53378213D01*
X135778213Y-53489707D01*
X135778210Y-53489711D01*
X135690609Y-53620814D01*
X135690602Y-53620827D01*
X135630264Y-53766498D01*
X135630261Y-53766510D01*
X135599500Y-53921153D01*
X130442798Y-53921153D01*
X130421789Y-53889711D01*
X130421786Y-53889707D01*
X130310292Y-53778213D01*
X130310288Y-53778210D01*
X130179185Y-53690609D01*
X130179172Y-53690602D01*
X130033501Y-53630264D01*
X130033489Y-53630261D01*
X129878845Y-53599500D01*
X129878842Y-53599500D01*
X129721158Y-53599500D01*
X129721155Y-53599500D01*
X129566510Y-53630261D01*
X129566498Y-53630264D01*
X129420827Y-53690602D01*
X129420814Y-53690609D01*
X129289711Y-53778210D01*
X129188806Y-53879115D01*
X129127483Y-53912599D01*
X129057791Y-53907615D01*
X129001858Y-53865743D01*
X128979508Y-53815624D01*
X128969738Y-53766509D01*
X128969737Y-53766503D01*
X128950955Y-53721158D01*
X128909397Y-53620827D01*
X128909390Y-53620814D01*
X128821789Y-53489711D01*
X128821786Y-53489707D01*
X128710292Y-53378213D01*
X128710288Y-53378210D01*
X128579185Y-53290609D01*
X128579172Y-53290602D01*
X128433501Y-53230264D01*
X128433489Y-53230261D01*
X128278845Y-53199500D01*
X128278842Y-53199500D01*
X128121158Y-53199500D01*
X128121155Y-53199500D01*
X127966510Y-53230261D01*
X127966498Y-53230264D01*
X127820827Y-53290602D01*
X127820814Y-53290609D01*
X127689711Y-53378210D01*
X127689707Y-53378213D01*
X127578213Y-53489707D01*
X127578210Y-53489711D01*
X127490609Y-53620814D01*
X127490602Y-53620827D01*
X127430264Y-53766498D01*
X127430261Y-53766510D01*
X127399500Y-53921153D01*
X121905500Y-53921153D01*
X121905500Y-52851362D01*
X121902603Y-52797322D01*
X121899769Y-52770964D01*
X121899045Y-52766498D01*
X121891114Y-52717554D01*
X121891114Y-52717552D01*
X121888680Y-52711026D01*
X121840832Y-52582743D01*
X121807347Y-52521420D01*
X121721123Y-52406239D01*
X121721118Y-52406234D01*
X121721113Y-52406228D01*
X121193776Y-51878892D01*
X121193770Y-51878886D01*
X121193761Y-51878877D01*
X121193737Y-51878855D01*
X121153519Y-51842728D01*
X121153507Y-51842718D01*
X121132856Y-51826076D01*
X121088974Y-51794433D01*
X120958100Y-51734663D01*
X120891055Y-51714976D01*
X120843582Y-51708150D01*
X120748638Y-51694500D01*
X118451362Y-51694500D01*
X118451360Y-51694500D01*
X118397311Y-51697397D01*
X118397310Y-51697397D01*
X118370977Y-51700229D01*
X118370950Y-51700232D01*
X118317554Y-51708885D01*
X118317552Y-51708885D01*
X118182747Y-51759166D01*
X118121422Y-51792651D01*
X118006240Y-51878876D01*
X118006228Y-51878886D01*
X117278892Y-52606223D01*
X117278855Y-52606262D01*
X117242728Y-52646480D01*
X117242718Y-52646492D01*
X117226076Y-52667143D01*
X117194433Y-52711025D01*
X117134663Y-52841899D01*
X117114976Y-52908944D01*
X117094500Y-53051363D01*
X117094500Y-58939254D01*
X117074815Y-59006293D01*
X117058181Y-59026935D01*
X116426935Y-59658181D01*
X116365612Y-59691666D01*
X116339254Y-59694500D01*
X113724500Y-59694500D01*
X113657461Y-59674815D01*
X113611706Y-59622011D01*
X113600500Y-59570500D01*
X113600500Y-59521155D01*
X113600499Y-59521153D01*
X113580543Y-59420827D01*
X113569737Y-59366503D01*
X113569735Y-59366498D01*
X113509397Y-59220827D01*
X113509390Y-59220814D01*
X113421789Y-59089711D01*
X113421786Y-59089707D01*
X113310292Y-58978213D01*
X113310288Y-58978210D01*
X113179185Y-58890609D01*
X113179172Y-58890602D01*
X113033501Y-58830264D01*
X113033489Y-58830261D01*
X112878845Y-58799500D01*
X112878842Y-58799500D01*
X112721158Y-58799500D01*
X112721155Y-58799500D01*
X112566510Y-58830261D01*
X112566498Y-58830264D01*
X112420827Y-58890602D01*
X112420814Y-58890609D01*
X112289711Y-58978210D01*
X112289707Y-58978213D01*
X112178213Y-59089707D01*
X112178210Y-59089711D01*
X112090609Y-59220814D01*
X112090602Y-59220827D01*
X112030264Y-59366498D01*
X112030261Y-59366510D01*
X111999500Y-59521153D01*
X111999500Y-59570500D01*
X111979815Y-59637539D01*
X111927011Y-59683294D01*
X111875500Y-59694500D01*
X111060746Y-59694500D01*
X110993707Y-59674815D01*
X110973065Y-59658181D01*
X108993776Y-57678892D01*
X108993770Y-57678886D01*
X108993761Y-57678877D01*
X108993737Y-57678855D01*
X108953519Y-57642728D01*
X108953507Y-57642718D01*
X108932865Y-57626083D01*
X108931316Y-57624966D01*
X108888974Y-57594433D01*
X108885072Y-57592651D01*
X108758100Y-57534663D01*
X108712091Y-57521153D01*
X109599500Y-57521153D01*
X109599500Y-57678846D01*
X109630261Y-57833489D01*
X109630264Y-57833501D01*
X109690602Y-57979172D01*
X109690609Y-57979185D01*
X109778210Y-58110288D01*
X109778213Y-58110292D01*
X109889707Y-58221786D01*
X109889711Y-58221789D01*
X110020814Y-58309390D01*
X110020827Y-58309397D01*
X110166498Y-58369735D01*
X110166503Y-58369737D01*
X110321153Y-58400499D01*
X110321156Y-58400500D01*
X110321158Y-58400500D01*
X110478844Y-58400500D01*
X110478845Y-58400499D01*
X110633497Y-58369737D01*
X110779179Y-58309394D01*
X110910289Y-58221789D01*
X111021789Y-58110289D01*
X111109394Y-57979179D01*
X111169737Y-57833497D01*
X111200500Y-57678842D01*
X111200500Y-57521158D01*
X111200500Y-57521155D01*
X111200499Y-57521153D01*
X111169737Y-57366503D01*
X111112989Y-57229500D01*
X111109397Y-57220827D01*
X111109390Y-57220814D01*
X111021789Y-57089711D01*
X111021786Y-57089707D01*
X110910292Y-56978213D01*
X110910288Y-56978210D01*
X110779185Y-56890609D01*
X110779172Y-56890602D01*
X110633501Y-56830264D01*
X110633489Y-56830261D01*
X110478845Y-56799500D01*
X110478842Y-56799500D01*
X110321158Y-56799500D01*
X110321155Y-56799500D01*
X110166510Y-56830261D01*
X110166498Y-56830264D01*
X110020827Y-56890602D01*
X110020814Y-56890609D01*
X109889711Y-56978210D01*
X109889707Y-56978213D01*
X109778213Y-57089707D01*
X109778210Y-57089711D01*
X109690609Y-57220814D01*
X109690602Y-57220827D01*
X109630264Y-57366498D01*
X109630261Y-57366510D01*
X109599500Y-57521153D01*
X108712091Y-57521153D01*
X108691055Y-57514976D01*
X108643582Y-57508150D01*
X108548638Y-57494500D01*
X103451362Y-57494500D01*
X103451360Y-57494500D01*
X103397311Y-57497397D01*
X103397310Y-57497397D01*
X103370977Y-57500229D01*
X103370950Y-57500232D01*
X103317554Y-57508885D01*
X103317552Y-57508885D01*
X103182747Y-57559166D01*
X103121422Y-57592651D01*
X103006240Y-57678876D01*
X103006228Y-57678886D01*
X102278892Y-58406223D01*
X102278855Y-58406262D01*
X102242728Y-58446480D01*
X102242718Y-58446492D01*
X102226076Y-58467143D01*
X102194433Y-58511025D01*
X102134663Y-58641899D01*
X102114976Y-58708944D01*
X102094500Y-58851363D01*
X102094500Y-62139254D01*
X102074815Y-62206293D01*
X102058181Y-62226935D01*
X101426935Y-62858181D01*
X101365612Y-62891666D01*
X101339254Y-62894500D01*
X99983821Y-62894500D01*
X99916782Y-62874815D01*
X99871027Y-62822011D01*
X99861083Y-62752853D01*
X99885443Y-62695015D01*
X99975238Y-62577994D01*
X100122743Y-62322507D01*
X100235639Y-62049952D01*
X100311993Y-61764993D01*
X100350500Y-61472506D01*
X100350500Y-61177494D01*
X100311993Y-60885007D01*
X100235639Y-60600048D01*
X100230516Y-60587681D01*
X100176248Y-60456666D01*
X100122743Y-60327493D01*
X100112810Y-60310289D01*
X99975238Y-60072006D01*
X99795647Y-59837959D01*
X99795641Y-59837952D01*
X99587047Y-59629358D01*
X99587040Y-59629352D01*
X99352993Y-59449761D01*
X99097510Y-59302258D01*
X99097500Y-59302254D01*
X98824961Y-59189364D01*
X98824954Y-59189362D01*
X98824952Y-59189361D01*
X98539993Y-59113007D01*
X98491113Y-59106571D01*
X98247513Y-59074500D01*
X98247506Y-59074500D01*
X97952494Y-59074500D01*
X97952486Y-59074500D01*
X97687450Y-59109394D01*
X97660007Y-59113007D01*
X97613961Y-59125345D01*
X97461593Y-59166171D01*
X97391743Y-59164508D01*
X97333881Y-59125345D01*
X97306377Y-59061116D01*
X97305500Y-59046396D01*
X97305500Y-53724010D01*
X97305500Y-53724000D01*
X97293947Y-53616544D01*
X97282741Y-53565033D01*
X97268137Y-53521155D01*
X97248616Y-53462502D01*
X97248613Y-53462496D01*
X97230836Y-53434835D01*
X97170825Y-53341457D01*
X97170820Y-53341451D01*
X97125076Y-53288659D01*
X97125072Y-53288656D01*
X97125070Y-53288653D01*
X97016336Y-53194433D01*
X97016333Y-53194431D01*
X97016331Y-53194430D01*
X96885465Y-53134664D01*
X96885460Y-53134662D01*
X96885459Y-53134662D01*
X96818420Y-53114977D01*
X96818422Y-53114977D01*
X96818417Y-53114976D01*
X96770944Y-53108150D01*
X96676000Y-53094500D01*
X90051362Y-53094500D01*
X90051360Y-53094500D01*
X89997311Y-53097397D01*
X89997310Y-53097397D01*
X89970977Y-53100229D01*
X89970950Y-53100232D01*
X89917554Y-53108885D01*
X89917552Y-53108885D01*
X89782747Y-53159166D01*
X89721422Y-53192651D01*
X89606240Y-53278876D01*
X89606228Y-53278886D01*
X88678892Y-54206223D01*
X88678855Y-54206262D01*
X88642728Y-54246480D01*
X88642718Y-54246492D01*
X88626076Y-54267143D01*
X88594433Y-54311025D01*
X88534663Y-54441899D01*
X88514976Y-54508944D01*
X88504131Y-54584374D01*
X88497070Y-54633491D01*
X88494500Y-54651363D01*
X88494500Y-57952794D01*
X88474815Y-58019833D01*
X88422011Y-58065588D01*
X88352853Y-58075532D01*
X88323048Y-58067355D01*
X88233501Y-58030264D01*
X88233489Y-58030261D01*
X88078845Y-57999500D01*
X88078842Y-57999500D01*
X87921158Y-57999500D01*
X87921155Y-57999500D01*
X87766510Y-58030261D01*
X87766498Y-58030264D01*
X87620827Y-58090602D01*
X87620814Y-58090609D01*
X87489711Y-58178210D01*
X87489707Y-58178213D01*
X87378213Y-58289707D01*
X87378210Y-58289711D01*
X87290609Y-58420814D01*
X87290602Y-58420827D01*
X87230264Y-58566498D01*
X87230261Y-58566510D01*
X87199500Y-58721153D01*
X87199500Y-58882152D01*
X87179815Y-58949191D01*
X87127011Y-58994946D01*
X87099692Y-59003769D01*
X86966508Y-59030261D01*
X86966498Y-59030264D01*
X86820827Y-59090602D01*
X86820814Y-59090609D01*
X86689711Y-59178210D01*
X86689707Y-59178213D01*
X86578213Y-59289707D01*
X86578210Y-59289711D01*
X86490609Y-59420814D01*
X86490602Y-59420827D01*
X86430264Y-59566498D01*
X86430261Y-59566510D01*
X86399500Y-59721153D01*
X80500500Y-59721153D01*
X80500500Y-52921153D01*
X103199500Y-52921153D01*
X103199500Y-53078846D01*
X103230261Y-53233489D01*
X103230264Y-53233501D01*
X103290602Y-53379172D01*
X103290609Y-53379185D01*
X103325304Y-53431109D01*
X103346182Y-53497786D01*
X103327698Y-53565167D01*
X103325304Y-53568891D01*
X103290609Y-53620814D01*
X103290602Y-53620827D01*
X103230264Y-53766498D01*
X103230261Y-53766510D01*
X103199500Y-53921153D01*
X103199500Y-54078846D01*
X103230261Y-54233489D01*
X103230264Y-54233501D01*
X103290602Y-54379172D01*
X103290609Y-54379185D01*
X103325304Y-54431109D01*
X103346182Y-54497786D01*
X103327698Y-54565167D01*
X103325304Y-54568891D01*
X103290609Y-54620814D01*
X103290602Y-54620827D01*
X103230264Y-54766498D01*
X103230261Y-54766510D01*
X103199500Y-54921153D01*
X103199500Y-55078846D01*
X103230261Y-55233489D01*
X103230264Y-55233501D01*
X103290602Y-55379172D01*
X103290609Y-55379185D01*
X103378210Y-55510288D01*
X103378213Y-55510292D01*
X103489707Y-55621786D01*
X103489711Y-55621789D01*
X103620814Y-55709390D01*
X103620827Y-55709397D01*
X103766498Y-55769735D01*
X103766503Y-55769737D01*
X103921153Y-55800499D01*
X103921156Y-55800500D01*
X103921158Y-55800500D01*
X104078844Y-55800500D01*
X104078845Y-55800499D01*
X104233497Y-55769737D01*
X104379179Y-55709394D01*
X104431110Y-55674694D01*
X104497785Y-55653816D01*
X104565165Y-55672300D01*
X104568863Y-55674676D01*
X104620821Y-55709394D01*
X104620823Y-55709395D01*
X104620825Y-55709396D01*
X104766498Y-55769735D01*
X104766503Y-55769737D01*
X104921153Y-55800499D01*
X104921156Y-55800500D01*
X104921158Y-55800500D01*
X105078844Y-55800500D01*
X105078845Y-55800499D01*
X105233497Y-55769737D01*
X105379179Y-55709394D01*
X105431110Y-55674694D01*
X105497785Y-55653816D01*
X105565165Y-55672300D01*
X105568863Y-55674676D01*
X105620821Y-55709394D01*
X105620823Y-55709395D01*
X105620825Y-55709396D01*
X105766498Y-55769735D01*
X105766503Y-55769737D01*
X105921153Y-55800499D01*
X105921156Y-55800500D01*
X105921158Y-55800500D01*
X106078844Y-55800500D01*
X106078845Y-55800499D01*
X106233497Y-55769737D01*
X106379179Y-55709394D01*
X106431110Y-55674694D01*
X106497785Y-55653816D01*
X106565165Y-55672300D01*
X106568863Y-55674676D01*
X106620821Y-55709394D01*
X106620823Y-55709395D01*
X106620825Y-55709396D01*
X106766498Y-55769735D01*
X106766503Y-55769737D01*
X106921153Y-55800499D01*
X106921156Y-55800500D01*
X106921158Y-55800500D01*
X107078844Y-55800500D01*
X107078845Y-55800499D01*
X107233497Y-55769737D01*
X107379179Y-55709394D01*
X107431110Y-55674694D01*
X107497785Y-55653816D01*
X107565165Y-55672300D01*
X107568863Y-55674676D01*
X107620821Y-55709394D01*
X107620823Y-55709395D01*
X107620825Y-55709396D01*
X107766498Y-55769735D01*
X107766503Y-55769737D01*
X107921153Y-55800499D01*
X107921156Y-55800500D01*
X107921158Y-55800500D01*
X108078844Y-55800500D01*
X108078845Y-55800499D01*
X108233497Y-55769737D01*
X108379179Y-55709394D01*
X108510289Y-55621789D01*
X108621789Y-55510289D01*
X108709394Y-55379179D01*
X108769737Y-55233497D01*
X108800500Y-55078842D01*
X108800500Y-54921158D01*
X108800500Y-54921155D01*
X108800499Y-54921153D01*
X108776499Y-54800499D01*
X108769737Y-54766503D01*
X108722045Y-54651363D01*
X108709396Y-54620825D01*
X108709394Y-54620822D01*
X108709394Y-54620821D01*
X108674694Y-54568889D01*
X108653816Y-54502215D01*
X108672300Y-54434835D01*
X108674676Y-54431136D01*
X108709394Y-54379179D01*
X108769737Y-54233497D01*
X108800500Y-54078842D01*
X108800500Y-53921158D01*
X108800500Y-53921155D01*
X108800499Y-53921153D01*
X108792137Y-53879115D01*
X108769737Y-53766503D01*
X108750955Y-53721158D01*
X108709396Y-53620825D01*
X108709394Y-53620822D01*
X108709394Y-53620821D01*
X108674694Y-53568889D01*
X108653816Y-53502215D01*
X108672300Y-53434835D01*
X108674676Y-53431136D01*
X108709394Y-53379179D01*
X108769737Y-53233497D01*
X108800500Y-53078842D01*
X108800500Y-52921158D01*
X108800500Y-52921155D01*
X108800499Y-52921153D01*
X108794422Y-52890602D01*
X108769737Y-52766503D01*
X108746758Y-52711026D01*
X108709397Y-52620827D01*
X108709390Y-52620814D01*
X108621789Y-52489711D01*
X108621786Y-52489707D01*
X108510292Y-52378213D01*
X108510288Y-52378210D01*
X108379185Y-52290609D01*
X108379172Y-52290602D01*
X108233501Y-52230264D01*
X108233489Y-52230261D01*
X108078845Y-52199500D01*
X108078842Y-52199500D01*
X107921158Y-52199500D01*
X107921155Y-52199500D01*
X107766510Y-52230261D01*
X107766498Y-52230264D01*
X107620827Y-52290602D01*
X107620814Y-52290609D01*
X107568891Y-52325304D01*
X107502214Y-52346182D01*
X107434833Y-52327698D01*
X107431109Y-52325304D01*
X107379185Y-52290609D01*
X107379172Y-52290602D01*
X107233501Y-52230264D01*
X107233489Y-52230261D01*
X107078845Y-52199500D01*
X107078842Y-52199500D01*
X106921158Y-52199500D01*
X106921155Y-52199500D01*
X106766510Y-52230261D01*
X106766498Y-52230264D01*
X106620827Y-52290602D01*
X106620814Y-52290609D01*
X106568891Y-52325304D01*
X106502214Y-52346182D01*
X106434833Y-52327698D01*
X106431109Y-52325304D01*
X106379185Y-52290609D01*
X106379172Y-52290602D01*
X106233501Y-52230264D01*
X106233489Y-52230261D01*
X106078845Y-52199500D01*
X106078842Y-52199500D01*
X105921158Y-52199500D01*
X105921155Y-52199500D01*
X105766510Y-52230261D01*
X105766498Y-52230264D01*
X105620827Y-52290602D01*
X105620814Y-52290609D01*
X105568891Y-52325304D01*
X105502214Y-52346182D01*
X105434833Y-52327698D01*
X105431109Y-52325304D01*
X105379185Y-52290609D01*
X105379172Y-52290602D01*
X105233501Y-52230264D01*
X105233489Y-52230261D01*
X105078845Y-52199500D01*
X105078842Y-52199500D01*
X104921158Y-52199500D01*
X104921155Y-52199500D01*
X104766510Y-52230261D01*
X104766498Y-52230264D01*
X104620827Y-52290602D01*
X104620814Y-52290609D01*
X104568891Y-52325304D01*
X104502214Y-52346182D01*
X104434833Y-52327698D01*
X104431109Y-52325304D01*
X104379185Y-52290609D01*
X104379172Y-52290602D01*
X104233501Y-52230264D01*
X104233489Y-52230261D01*
X104078845Y-52199500D01*
X104078842Y-52199500D01*
X103921158Y-52199500D01*
X103921155Y-52199500D01*
X103766510Y-52230261D01*
X103766498Y-52230264D01*
X103620827Y-52290602D01*
X103620814Y-52290609D01*
X103489711Y-52378210D01*
X103489707Y-52378213D01*
X103378213Y-52489707D01*
X103378210Y-52489711D01*
X103290609Y-52620814D01*
X103290602Y-52620827D01*
X103230264Y-52766498D01*
X103230261Y-52766510D01*
X103199500Y-52921153D01*
X80500500Y-52921153D01*
X80500500Y-49721153D01*
X83399500Y-49721153D01*
X83399500Y-49878846D01*
X83430261Y-50033489D01*
X83430264Y-50033501D01*
X83490602Y-50179172D01*
X83490609Y-50179185D01*
X83578210Y-50310288D01*
X83578213Y-50310292D01*
X83689707Y-50421786D01*
X83689711Y-50421789D01*
X83820814Y-50509390D01*
X83820827Y-50509397D01*
X83966498Y-50569735D01*
X83966503Y-50569737D01*
X84121153Y-50600499D01*
X84121156Y-50600500D01*
X84121158Y-50600500D01*
X84278844Y-50600500D01*
X84278845Y-50600499D01*
X84433497Y-50569737D01*
X84579179Y-50509394D01*
X84710289Y-50421789D01*
X84821789Y-50310289D01*
X84909394Y-50179179D01*
X84969737Y-50033497D01*
X84992083Y-49921158D01*
X84992084Y-49921153D01*
X92199500Y-49921153D01*
X92199500Y-50078846D01*
X92230261Y-50233489D01*
X92230264Y-50233501D01*
X92290602Y-50379172D01*
X92290609Y-50379185D01*
X92378210Y-50510288D01*
X92378213Y-50510292D01*
X92489707Y-50621786D01*
X92489711Y-50621789D01*
X92620814Y-50709390D01*
X92620827Y-50709397D01*
X92758683Y-50766498D01*
X92766503Y-50769737D01*
X92921153Y-50800499D01*
X92921156Y-50800500D01*
X92921158Y-50800500D01*
X93078844Y-50800500D01*
X93078845Y-50800499D01*
X93233497Y-50769737D01*
X93379179Y-50709394D01*
X93510289Y-50621789D01*
X93621789Y-50510289D01*
X93709394Y-50379179D01*
X93769737Y-50233497D01*
X93792083Y-50121158D01*
X93792084Y-50121153D01*
X121199500Y-50121153D01*
X121199500Y-50278846D01*
X121230261Y-50433489D01*
X121230264Y-50433501D01*
X121290602Y-50579172D01*
X121290609Y-50579185D01*
X121378210Y-50710288D01*
X121378213Y-50710292D01*
X121489707Y-50821786D01*
X121489711Y-50821789D01*
X121620814Y-50909390D01*
X121620827Y-50909397D01*
X121766498Y-50969735D01*
X121766503Y-50969737D01*
X121921153Y-51000499D01*
X121921156Y-51000500D01*
X121921158Y-51000500D01*
X122078844Y-51000500D01*
X122078845Y-51000499D01*
X122233497Y-50969737D01*
X122350790Y-50921153D01*
X126199500Y-50921153D01*
X126199500Y-51078846D01*
X126230261Y-51233489D01*
X126230264Y-51233501D01*
X126290602Y-51379172D01*
X126290609Y-51379185D01*
X126378210Y-51510288D01*
X126378213Y-51510292D01*
X126489707Y-51621786D01*
X126489711Y-51621789D01*
X126620814Y-51709390D01*
X126620827Y-51709397D01*
X126740982Y-51759166D01*
X126766503Y-51769737D01*
X126921153Y-51800499D01*
X126921156Y-51800500D01*
X126921158Y-51800500D01*
X127078844Y-51800500D01*
X127078845Y-51800499D01*
X127233497Y-51769737D01*
X127379179Y-51709394D01*
X127510289Y-51621789D01*
X127621789Y-51510289D01*
X127709394Y-51379179D01*
X127769737Y-51233497D01*
X127800500Y-51078842D01*
X127800500Y-50921158D01*
X127800500Y-50921155D01*
X127800499Y-50921153D01*
X127780734Y-50821788D01*
X127769737Y-50766503D01*
X127709794Y-50621786D01*
X127709397Y-50620827D01*
X127709390Y-50620814D01*
X127621789Y-50489711D01*
X127621786Y-50489707D01*
X127510292Y-50378213D01*
X127510288Y-50378210D01*
X127379185Y-50290609D01*
X127379172Y-50290602D01*
X127233501Y-50230264D01*
X127233489Y-50230261D01*
X127078845Y-50199500D01*
X127078842Y-50199500D01*
X126921158Y-50199500D01*
X126921155Y-50199500D01*
X126766510Y-50230261D01*
X126766498Y-50230264D01*
X126620827Y-50290602D01*
X126620814Y-50290609D01*
X126489711Y-50378210D01*
X126489707Y-50378213D01*
X126378213Y-50489707D01*
X126378210Y-50489711D01*
X126290609Y-50620814D01*
X126290602Y-50620827D01*
X126230264Y-50766498D01*
X126230261Y-50766510D01*
X126199500Y-50921153D01*
X122350790Y-50921153D01*
X122379179Y-50909394D01*
X122510289Y-50821789D01*
X122621789Y-50710289D01*
X122709394Y-50579179D01*
X122769737Y-50433497D01*
X122800500Y-50278842D01*
X122800500Y-50121158D01*
X122800500Y-50121155D01*
X122800499Y-50121153D01*
X122794476Y-50090874D01*
X122769737Y-49966503D01*
X122750955Y-49921158D01*
X122709397Y-49820827D01*
X122709390Y-49820814D01*
X122621789Y-49689711D01*
X122621786Y-49689707D01*
X122510292Y-49578213D01*
X122510288Y-49578210D01*
X122379185Y-49490609D01*
X122379172Y-49490602D01*
X122233501Y-49430264D01*
X122233489Y-49430261D01*
X122078845Y-49399500D01*
X122078842Y-49399500D01*
X121921158Y-49399500D01*
X121921155Y-49399500D01*
X121766510Y-49430261D01*
X121766498Y-49430264D01*
X121620827Y-49490602D01*
X121620814Y-49490609D01*
X121489711Y-49578210D01*
X121489707Y-49578213D01*
X121378213Y-49689707D01*
X121378210Y-49689711D01*
X121290609Y-49820814D01*
X121290602Y-49820827D01*
X121230264Y-49966498D01*
X121230261Y-49966510D01*
X121199500Y-50121153D01*
X93792084Y-50121153D01*
X93798107Y-50090875D01*
X93798107Y-50090874D01*
X93800500Y-50078844D01*
X93800500Y-49921155D01*
X93800499Y-49921153D01*
X93794476Y-49890874D01*
X93769737Y-49766503D01*
X93750955Y-49721158D01*
X93709397Y-49620827D01*
X93709390Y-49620814D01*
X93621789Y-49489711D01*
X93621786Y-49489707D01*
X93510292Y-49378213D01*
X93510288Y-49378210D01*
X93379185Y-49290609D01*
X93379172Y-49290602D01*
X93233501Y-49230264D01*
X93233489Y-49230261D01*
X93078845Y-49199500D01*
X93078842Y-49199500D01*
X92921158Y-49199500D01*
X92921155Y-49199500D01*
X92766510Y-49230261D01*
X92766498Y-49230264D01*
X92620827Y-49290602D01*
X92620814Y-49290609D01*
X92489711Y-49378210D01*
X92489707Y-49378213D01*
X92378213Y-49489707D01*
X92378210Y-49489711D01*
X92290609Y-49620814D01*
X92290602Y-49620827D01*
X92230264Y-49766498D01*
X92230261Y-49766510D01*
X92199500Y-49921153D01*
X84992084Y-49921153D01*
X84998107Y-49890875D01*
X84998107Y-49890874D01*
X85000500Y-49878844D01*
X85000500Y-49721155D01*
X85000499Y-49721153D01*
X84994244Y-49689707D01*
X84969737Y-49566503D01*
X84950955Y-49521158D01*
X84909397Y-49420827D01*
X84909390Y-49420814D01*
X84821789Y-49289711D01*
X84821786Y-49289707D01*
X84710292Y-49178213D01*
X84710288Y-49178210D01*
X84579185Y-49090609D01*
X84579172Y-49090602D01*
X84433501Y-49030264D01*
X84433489Y-49030261D01*
X84278845Y-48999500D01*
X84278842Y-48999500D01*
X84121158Y-48999500D01*
X84121155Y-48999500D01*
X83966510Y-49030261D01*
X83966498Y-49030264D01*
X83820827Y-49090602D01*
X83820814Y-49090609D01*
X83689711Y-49178210D01*
X83689707Y-49178213D01*
X83578213Y-49289707D01*
X83578210Y-49289711D01*
X83490609Y-49420814D01*
X83490602Y-49420827D01*
X83430264Y-49566498D01*
X83430261Y-49566510D01*
X83399500Y-49721153D01*
X80500500Y-49721153D01*
X80500500Y-48521153D01*
X128599500Y-48521153D01*
X128599500Y-48678846D01*
X128630261Y-48833489D01*
X128630264Y-48833501D01*
X128690602Y-48979172D01*
X128690609Y-48979185D01*
X128778210Y-49110288D01*
X128778213Y-49110292D01*
X128889707Y-49221786D01*
X128889711Y-49221789D01*
X129020814Y-49309390D01*
X129020827Y-49309397D01*
X129158683Y-49366498D01*
X129166503Y-49369737D01*
X129276987Y-49391713D01*
X129299691Y-49396230D01*
X129361602Y-49428615D01*
X129396176Y-49489330D01*
X129399500Y-49517847D01*
X129399500Y-49678846D01*
X129430261Y-49833489D01*
X129430264Y-49833501D01*
X129490602Y-49979172D01*
X129490609Y-49979185D01*
X129578210Y-50110288D01*
X129578213Y-50110292D01*
X129689707Y-50221786D01*
X129689711Y-50221789D01*
X129820814Y-50309390D01*
X129820827Y-50309397D01*
X129966498Y-50369735D01*
X129966503Y-50369737D01*
X130121153Y-50400499D01*
X130121156Y-50400500D01*
X130121158Y-50400500D01*
X130278844Y-50400500D01*
X130278845Y-50400499D01*
X130433497Y-50369737D01*
X130579179Y-50309394D01*
X130710289Y-50221789D01*
X130821789Y-50110289D01*
X130909394Y-49979179D01*
X130969737Y-49833497D01*
X131000500Y-49678842D01*
X131000500Y-49521158D01*
X131000500Y-49521155D01*
X131000499Y-49521153D01*
X130980543Y-49420827D01*
X130969737Y-49366503D01*
X130937929Y-49289711D01*
X130909397Y-49220827D01*
X130909390Y-49220814D01*
X130821789Y-49089711D01*
X130821786Y-49089707D01*
X130710292Y-48978213D01*
X130710288Y-48978210D01*
X130579185Y-48890609D01*
X130579172Y-48890602D01*
X130433501Y-48830264D01*
X130433491Y-48830261D01*
X130300308Y-48803769D01*
X130272177Y-48789054D01*
X130243297Y-48775865D01*
X130241440Y-48772975D01*
X130238397Y-48771384D01*
X130222684Y-48743791D01*
X130205523Y-48717087D01*
X130204862Y-48712493D01*
X130203823Y-48710668D01*
X130200500Y-48682152D01*
X130200500Y-48521155D01*
X130200499Y-48521153D01*
X144599500Y-48521153D01*
X144599500Y-48678846D01*
X144630261Y-48833489D01*
X144630264Y-48833501D01*
X144690602Y-48979172D01*
X144690609Y-48979185D01*
X144778210Y-49110288D01*
X144778213Y-49110292D01*
X144889707Y-49221786D01*
X144889711Y-49221789D01*
X145020814Y-49309390D01*
X145020827Y-49309397D01*
X145158683Y-49366498D01*
X145166503Y-49369737D01*
X145276987Y-49391713D01*
X145299691Y-49396230D01*
X145361602Y-49428615D01*
X145396176Y-49489330D01*
X145399500Y-49517847D01*
X145399500Y-49678846D01*
X145430261Y-49833489D01*
X145430264Y-49833501D01*
X145490602Y-49979172D01*
X145490609Y-49979185D01*
X145578210Y-50110288D01*
X145578213Y-50110292D01*
X145689707Y-50221786D01*
X145689711Y-50221789D01*
X145820814Y-50309390D01*
X145820827Y-50309397D01*
X145966498Y-50369735D01*
X145966503Y-50369737D01*
X146121153Y-50400499D01*
X146121156Y-50400500D01*
X146121158Y-50400500D01*
X146278844Y-50400500D01*
X146278845Y-50400499D01*
X146433497Y-50369737D01*
X146579179Y-50309394D01*
X146710289Y-50221789D01*
X146821789Y-50110289D01*
X146909394Y-49979179D01*
X146969737Y-49833497D01*
X147000500Y-49678842D01*
X147000500Y-49521158D01*
X147000500Y-49521155D01*
X147000499Y-49521153D01*
X146980543Y-49420827D01*
X146969737Y-49366503D01*
X146937929Y-49289711D01*
X146909397Y-49220827D01*
X146909390Y-49220814D01*
X146821789Y-49089711D01*
X146821786Y-49089707D01*
X146710292Y-48978213D01*
X146710288Y-48978210D01*
X146579185Y-48890609D01*
X146579172Y-48890602D01*
X146433501Y-48830264D01*
X146433491Y-48830261D01*
X146300308Y-48803769D01*
X146238397Y-48771384D01*
X146203823Y-48710668D01*
X146200500Y-48682152D01*
X146200500Y-48521155D01*
X146200499Y-48521153D01*
X146169738Y-48366510D01*
X146169737Y-48366503D01*
X146169735Y-48366498D01*
X146109397Y-48220827D01*
X146109390Y-48220814D01*
X146021789Y-48089711D01*
X146021786Y-48089707D01*
X145910292Y-47978213D01*
X145910288Y-47978210D01*
X145869795Y-47951153D01*
X159829500Y-47951153D01*
X159829500Y-48108846D01*
X159860261Y-48263489D01*
X159860264Y-48263501D01*
X159920602Y-48409172D01*
X159920609Y-48409185D01*
X160008210Y-48540288D01*
X160008213Y-48540292D01*
X160119707Y-48651786D01*
X160119711Y-48651789D01*
X160250814Y-48739390D01*
X160250827Y-48739397D01*
X160395931Y-48799500D01*
X160396503Y-48799737D01*
X160549967Y-48830263D01*
X160551153Y-48830499D01*
X160551156Y-48830500D01*
X160551158Y-48830500D01*
X160708843Y-48830500D01*
X160721622Y-48827957D01*
X160765629Y-48819204D01*
X160835219Y-48825430D01*
X160890396Y-48868293D01*
X160913642Y-48934182D01*
X160904382Y-48988272D01*
X160880263Y-49046502D01*
X160880261Y-49046510D01*
X160849500Y-49201153D01*
X160849500Y-49358846D01*
X160880261Y-49513489D01*
X160880264Y-49513501D01*
X160940602Y-49659172D01*
X160940609Y-49659185D01*
X161028210Y-49790288D01*
X161028213Y-49790292D01*
X161139707Y-49901786D01*
X161139711Y-49901789D01*
X161270814Y-49989390D01*
X161270827Y-49989397D01*
X161416498Y-50049735D01*
X161416503Y-50049737D01*
X161562823Y-50078842D01*
X161571153Y-50080499D01*
X161571156Y-50080500D01*
X161571158Y-50080500D01*
X161728844Y-50080500D01*
X161728845Y-50080499D01*
X161883497Y-50049737D01*
X162029179Y-49989394D01*
X162160289Y-49901789D01*
X162271789Y-49790289D01*
X162359394Y-49659179D01*
X162419737Y-49513497D01*
X162450500Y-49358842D01*
X162450500Y-49201158D01*
X162450500Y-49201155D01*
X162450499Y-49201153D01*
X162445936Y-49178213D01*
X162419737Y-49046503D01*
X162413010Y-49030263D01*
X162359397Y-48900827D01*
X162359390Y-48900814D01*
X162271789Y-48769711D01*
X162271786Y-48769707D01*
X162160292Y-48658213D01*
X162160288Y-48658210D01*
X162029185Y-48570609D01*
X162029172Y-48570602D01*
X161883501Y-48510264D01*
X161883489Y-48510261D01*
X161728845Y-48479500D01*
X161728842Y-48479500D01*
X161571158Y-48479500D01*
X161571153Y-48479500D01*
X161514370Y-48490795D01*
X161444778Y-48484568D01*
X161389601Y-48441705D01*
X161366357Y-48375815D01*
X161375618Y-48321725D01*
X161399737Y-48263497D01*
X161430500Y-48108842D01*
X161430500Y-47951158D01*
X161430500Y-47951155D01*
X161430499Y-47951153D01*
X161422371Y-47910292D01*
X161399737Y-47796503D01*
X161388650Y-47769737D01*
X161339397Y-47650827D01*
X161339390Y-47650814D01*
X161251789Y-47519711D01*
X161251786Y-47519707D01*
X161140292Y-47408213D01*
X161140288Y-47408210D01*
X161009185Y-47320609D01*
X161009172Y-47320602D01*
X160863501Y-47260264D01*
X160863489Y-47260261D01*
X160708845Y-47229500D01*
X160708842Y-47229500D01*
X160551158Y-47229500D01*
X160551155Y-47229500D01*
X160396510Y-47260261D01*
X160396498Y-47260264D01*
X160250827Y-47320602D01*
X160250814Y-47320609D01*
X160119711Y-47408210D01*
X160119707Y-47408213D01*
X160008213Y-47519707D01*
X160008210Y-47519711D01*
X159920609Y-47650814D01*
X159920602Y-47650827D01*
X159860264Y-47796498D01*
X159860261Y-47796510D01*
X159829500Y-47951153D01*
X145869795Y-47951153D01*
X145779185Y-47890609D01*
X145779172Y-47890602D01*
X145633501Y-47830264D01*
X145633489Y-47830261D01*
X145478845Y-47799500D01*
X145478842Y-47799500D01*
X145321158Y-47799500D01*
X145321155Y-47799500D01*
X145166510Y-47830261D01*
X145166498Y-47830264D01*
X145020827Y-47890602D01*
X145020814Y-47890609D01*
X144889711Y-47978210D01*
X144889707Y-47978213D01*
X144778213Y-48089707D01*
X144778210Y-48089711D01*
X144690609Y-48220814D01*
X144690602Y-48220827D01*
X144630264Y-48366498D01*
X144630261Y-48366510D01*
X144599500Y-48521153D01*
X130200499Y-48521153D01*
X130169738Y-48366510D01*
X130169737Y-48366503D01*
X130169735Y-48366498D01*
X130109397Y-48220827D01*
X130109390Y-48220814D01*
X130021789Y-48089711D01*
X130021786Y-48089707D01*
X129910292Y-47978213D01*
X129910288Y-47978210D01*
X129779185Y-47890609D01*
X129779172Y-47890602D01*
X129633501Y-47830264D01*
X129633489Y-47830261D01*
X129478845Y-47799500D01*
X129478842Y-47799500D01*
X129321158Y-47799500D01*
X129321155Y-47799500D01*
X129166510Y-47830261D01*
X129166498Y-47830264D01*
X129020827Y-47890602D01*
X129020814Y-47890609D01*
X128889711Y-47978210D01*
X128889707Y-47978213D01*
X128778213Y-48089707D01*
X128778210Y-48089711D01*
X128690609Y-48220814D01*
X128690602Y-48220827D01*
X128630264Y-48366498D01*
X128630261Y-48366510D01*
X128599500Y-48521153D01*
X80500500Y-48521153D01*
X80500500Y-47121153D01*
X83399500Y-47121153D01*
X83399500Y-47278846D01*
X83430261Y-47433489D01*
X83430264Y-47433501D01*
X83490602Y-47579172D01*
X83490609Y-47579185D01*
X83578210Y-47710288D01*
X83578213Y-47710292D01*
X83689707Y-47821786D01*
X83689711Y-47821789D01*
X83820814Y-47909390D01*
X83820827Y-47909397D01*
X83966498Y-47969735D01*
X83966503Y-47969737D01*
X84121153Y-48000499D01*
X84121156Y-48000500D01*
X84121158Y-48000500D01*
X84278844Y-48000500D01*
X84278845Y-48000499D01*
X84433497Y-47969737D01*
X84579179Y-47909394D01*
X84710289Y-47821789D01*
X84821789Y-47710289D01*
X84909394Y-47579179D01*
X84969737Y-47433497D01*
X84992083Y-47321158D01*
X84992084Y-47321153D01*
X92199500Y-47321153D01*
X92199500Y-47478846D01*
X92230261Y-47633489D01*
X92230264Y-47633501D01*
X92290602Y-47779172D01*
X92290609Y-47779185D01*
X92378210Y-47910288D01*
X92378213Y-47910292D01*
X92489707Y-48021786D01*
X92489711Y-48021789D01*
X92620814Y-48109390D01*
X92620827Y-48109397D01*
X92766498Y-48169735D01*
X92766503Y-48169737D01*
X92921153Y-48200499D01*
X92921156Y-48200500D01*
X92921158Y-48200500D01*
X93078844Y-48200500D01*
X93078845Y-48200499D01*
X93233497Y-48169737D01*
X93379179Y-48109394D01*
X93510289Y-48021789D01*
X93621789Y-47910289D01*
X93709394Y-47779179D01*
X93769737Y-47633497D01*
X93800500Y-47478842D01*
X93800500Y-47321158D01*
X93800500Y-47321155D01*
X93800499Y-47321153D01*
X93794476Y-47290874D01*
X93769737Y-47166503D01*
X93750955Y-47121158D01*
X93709397Y-47020827D01*
X93709390Y-47020814D01*
X93621789Y-46889711D01*
X93621786Y-46889707D01*
X93510292Y-46778213D01*
X93510288Y-46778210D01*
X93379185Y-46690609D01*
X93379172Y-46690602D01*
X93233501Y-46630264D01*
X93233489Y-46630261D01*
X93078845Y-46599500D01*
X93078842Y-46599500D01*
X92921158Y-46599500D01*
X92921155Y-46599500D01*
X92766510Y-46630261D01*
X92766498Y-46630264D01*
X92620827Y-46690602D01*
X92620814Y-46690609D01*
X92489711Y-46778210D01*
X92489707Y-46778213D01*
X92378213Y-46889707D01*
X92378210Y-46889711D01*
X92290609Y-47020814D01*
X92290602Y-47020827D01*
X92230264Y-47166498D01*
X92230261Y-47166510D01*
X92199500Y-47321153D01*
X84992084Y-47321153D01*
X84998107Y-47290875D01*
X84998107Y-47290874D01*
X85000500Y-47278844D01*
X85000500Y-47121155D01*
X85000499Y-47121153D01*
X84998159Y-47109390D01*
X84969737Y-46966503D01*
X84950955Y-46921158D01*
X84909397Y-46820827D01*
X84909390Y-46820814D01*
X84821789Y-46689711D01*
X84821786Y-46689707D01*
X84710292Y-46578213D01*
X84710288Y-46578210D01*
X84579185Y-46490609D01*
X84579172Y-46490602D01*
X84433501Y-46430264D01*
X84433489Y-46430261D01*
X84278845Y-46399500D01*
X84278842Y-46399500D01*
X84121158Y-46399500D01*
X84121155Y-46399500D01*
X83966510Y-46430261D01*
X83966498Y-46430264D01*
X83820827Y-46490602D01*
X83820814Y-46490609D01*
X83689711Y-46578210D01*
X83689707Y-46578213D01*
X83578213Y-46689707D01*
X83578210Y-46689711D01*
X83490609Y-46820814D01*
X83490602Y-46820827D01*
X83430264Y-46966498D01*
X83430261Y-46966510D01*
X83399500Y-47121153D01*
X80500500Y-47121153D01*
X80500500Y-39727350D01*
X80520185Y-39660311D01*
X80572989Y-39614556D01*
X80642147Y-39604612D01*
X80693391Y-39624248D01*
X80820814Y-39709390D01*
X80820827Y-39709397D01*
X80966498Y-39769735D01*
X80966503Y-39769737D01*
X81121153Y-39800499D01*
X81121156Y-39800500D01*
X81121158Y-39800500D01*
X81278844Y-39800500D01*
X81278845Y-39800499D01*
X81433497Y-39769737D01*
X81579179Y-39709394D01*
X81710289Y-39621789D01*
X81821789Y-39510289D01*
X81909394Y-39379179D01*
X81969737Y-39233497D01*
X82000500Y-39078842D01*
X82000500Y-38921158D01*
X82000500Y-38921155D01*
X82000499Y-38921153D01*
X81976499Y-38800499D01*
X81969737Y-38766503D01*
X81946080Y-38709390D01*
X81909397Y-38620827D01*
X81909390Y-38620814D01*
X81821789Y-38489711D01*
X81821786Y-38489707D01*
X81710292Y-38378213D01*
X81710288Y-38378210D01*
X81579185Y-38290609D01*
X81579172Y-38290602D01*
X81433501Y-38230264D01*
X81433489Y-38230261D01*
X81278845Y-38199500D01*
X81278842Y-38199500D01*
X81121158Y-38199500D01*
X81121155Y-38199500D01*
X80966510Y-38230261D01*
X80966498Y-38230264D01*
X80820827Y-38290602D01*
X80820814Y-38290609D01*
X80693391Y-38375751D01*
X80626713Y-38396629D01*
X80559333Y-38378144D01*
X80512643Y-38326165D01*
X80500500Y-38272649D01*
X80500500Y-35521153D01*
X84599500Y-35521153D01*
X84599500Y-35678846D01*
X84630261Y-35833489D01*
X84630264Y-35833501D01*
X84690602Y-35979172D01*
X84690609Y-35979185D01*
X84778210Y-36110288D01*
X84778213Y-36110292D01*
X84780240Y-36112319D01*
X84780962Y-36113642D01*
X84782076Y-36114999D01*
X84781818Y-36115210D01*
X84813725Y-36173642D01*
X84808741Y-36243334D01*
X84782001Y-36284939D01*
X84782076Y-36285001D01*
X84781552Y-36285639D01*
X84780240Y-36287681D01*
X84778213Y-36289707D01*
X84778210Y-36289711D01*
X84690609Y-36420814D01*
X84690602Y-36420827D01*
X84630264Y-36566498D01*
X84630261Y-36566510D01*
X84599500Y-36721153D01*
X84599500Y-36878846D01*
X84630261Y-37033489D01*
X84630264Y-37033501D01*
X84690602Y-37179172D01*
X84690609Y-37179185D01*
X84778210Y-37310288D01*
X84778213Y-37310292D01*
X84780240Y-37312319D01*
X84780962Y-37313642D01*
X84782076Y-37314999D01*
X84781818Y-37315210D01*
X84813725Y-37373642D01*
X84808741Y-37443334D01*
X84782001Y-37484939D01*
X84782076Y-37485001D01*
X84781552Y-37485639D01*
X84780240Y-37487681D01*
X84778213Y-37489707D01*
X84778210Y-37489711D01*
X84690609Y-37620814D01*
X84690602Y-37620827D01*
X84630264Y-37766498D01*
X84630261Y-37766510D01*
X84599500Y-37921153D01*
X84599500Y-38078846D01*
X84630261Y-38233489D01*
X84630264Y-38233501D01*
X84690602Y-38379172D01*
X84690609Y-38379185D01*
X84778210Y-38510288D01*
X84778213Y-38510292D01*
X84889707Y-38621786D01*
X84889711Y-38621789D01*
X85020814Y-38709390D01*
X85020827Y-38709397D01*
X85158683Y-38766498D01*
X85166503Y-38769737D01*
X85321153Y-38800499D01*
X85321156Y-38800500D01*
X85321158Y-38800500D01*
X85478844Y-38800500D01*
X85478845Y-38800499D01*
X85633497Y-38769737D01*
X85779179Y-38709394D01*
X85910289Y-38621789D01*
X86021789Y-38510289D01*
X86109394Y-38379179D01*
X86169737Y-38233497D01*
X86200500Y-38078842D01*
X86200500Y-37921158D01*
X86200500Y-37921155D01*
X86200499Y-37921153D01*
X86169738Y-37766510D01*
X86169737Y-37766503D01*
X86144515Y-37705611D01*
X86109397Y-37620827D01*
X86109390Y-37620814D01*
X86021789Y-37489711D01*
X86019766Y-37487688D01*
X86019043Y-37486365D01*
X86017924Y-37485001D01*
X86018182Y-37484788D01*
X85986276Y-37426368D01*
X85991255Y-37356676D01*
X86017999Y-37315060D01*
X86017924Y-37314999D01*
X86018454Y-37314351D01*
X86019766Y-37312312D01*
X86021789Y-37310289D01*
X86109394Y-37179179D01*
X86169737Y-37033497D01*
X86200500Y-36878842D01*
X86200500Y-36721158D01*
X86200500Y-36721155D01*
X86200499Y-36721153D01*
X86169738Y-36566510D01*
X86169737Y-36566503D01*
X86169735Y-36566498D01*
X86109397Y-36420827D01*
X86109390Y-36420814D01*
X86021789Y-36289711D01*
X86019766Y-36287688D01*
X86019043Y-36286365D01*
X86017924Y-36285001D01*
X86018182Y-36284788D01*
X85986276Y-36226368D01*
X85991255Y-36156676D01*
X86017999Y-36115060D01*
X86017924Y-36114999D01*
X86018454Y-36114351D01*
X86019766Y-36112312D01*
X86021789Y-36110289D01*
X86109394Y-35979179D01*
X86169737Y-35833497D01*
X86200500Y-35678842D01*
X86200500Y-35521158D01*
X86200500Y-35521155D01*
X86200499Y-35521153D01*
X86198338Y-35510288D01*
X86169737Y-35366503D01*
X86169735Y-35366498D01*
X86109397Y-35220827D01*
X86109390Y-35220814D01*
X86021789Y-35089711D01*
X86021786Y-35089707D01*
X85910292Y-34978213D01*
X85910288Y-34978210D01*
X85779185Y-34890609D01*
X85779172Y-34890602D01*
X85633501Y-34830264D01*
X85633489Y-34830261D01*
X85478845Y-34799500D01*
X85478842Y-34799500D01*
X85321158Y-34799500D01*
X85321155Y-34799500D01*
X85166510Y-34830261D01*
X85166498Y-34830264D01*
X85020827Y-34890602D01*
X85020814Y-34890609D01*
X84889711Y-34978210D01*
X84889707Y-34978213D01*
X84778213Y-35089707D01*
X84778210Y-35089711D01*
X84690609Y-35220814D01*
X84690602Y-35220827D01*
X84630264Y-35366498D01*
X84630261Y-35366510D01*
X84599500Y-35521153D01*
X80500500Y-35521153D01*
X80500500Y-28278711D01*
X81549500Y-28278711D01*
X81549500Y-28521288D01*
X81581161Y-28761785D01*
X81643947Y-28996104D01*
X81728611Y-29200500D01*
X81736776Y-29220212D01*
X81858064Y-29430289D01*
X81858066Y-29430292D01*
X81858067Y-29430293D01*
X82005733Y-29622736D01*
X82005739Y-29622743D01*
X82177256Y-29794260D01*
X82177262Y-29794265D01*
X82369711Y-29941936D01*
X82579788Y-30063224D01*
X82803900Y-30156054D01*
X83038211Y-30218838D01*
X83218586Y-30242584D01*
X83278711Y-30250500D01*
X83278712Y-30250500D01*
X83521289Y-30250500D01*
X83569388Y-30244167D01*
X83761789Y-30218838D01*
X83996100Y-30156054D01*
X84220212Y-30063224D01*
X84430289Y-29941936D01*
X84622738Y-29794265D01*
X84794265Y-29622738D01*
X84941936Y-29430289D01*
X85063224Y-29220212D01*
X85156054Y-28996100D01*
X85218838Y-28761789D01*
X85250500Y-28521288D01*
X85250500Y-28278712D01*
X85248878Y-28266395D01*
X85236068Y-28169091D01*
X85218838Y-28038211D01*
X85156054Y-27803900D01*
X85063224Y-27579788D01*
X84941936Y-27369711D01*
X84794265Y-27177262D01*
X84794260Y-27177256D01*
X84622743Y-27005739D01*
X84622736Y-27005733D01*
X84430293Y-26858067D01*
X84430292Y-26858066D01*
X84430289Y-26858064D01*
X84220212Y-26736776D01*
X84191140Y-26724734D01*
X83996104Y-26643947D01*
X83761785Y-26581161D01*
X83521289Y-26549500D01*
X83521288Y-26549500D01*
X83278712Y-26549500D01*
X83278711Y-26549500D01*
X83038214Y-26581161D01*
X82803895Y-26643947D01*
X82579794Y-26736773D01*
X82579785Y-26736777D01*
X82369706Y-26858067D01*
X82177263Y-27005733D01*
X82177256Y-27005739D01*
X82005739Y-27177256D01*
X82005733Y-27177263D01*
X81858067Y-27369706D01*
X81736777Y-27579785D01*
X81736773Y-27579794D01*
X81643947Y-27803895D01*
X81581161Y-28038214D01*
X81549500Y-28278711D01*
X80500500Y-28278711D01*
X80500500Y-25624500D01*
X80520185Y-25557461D01*
X80572989Y-25511706D01*
X80624500Y-25500500D01*
X89770500Y-25500500D01*
X89837539Y-25520185D01*
G37*
%TD.AperFunction*%
%TD*%
%TA.AperFunction,Conductor*%
%TO.N,VDD*%
G36*
X179442539Y-25520185D02*
G01*
X179488294Y-25572989D01*
X179499500Y-25624500D01*
X179499500Y-74375500D01*
X179479815Y-74442539D01*
X179427011Y-74488294D01*
X179375500Y-74499500D01*
X117124000Y-74499500D01*
X117056961Y-74479815D01*
X117011206Y-74427011D01*
X117000000Y-74375500D01*
X117000000Y-73915845D01*
X117637706Y-73915845D01*
X117766652Y-73969257D01*
X117766656Y-73969258D01*
X117921202Y-73999999D01*
X117921206Y-74000000D01*
X118078794Y-74000000D01*
X118078797Y-73999999D01*
X118233343Y-73969258D01*
X118233347Y-73969257D01*
X118362293Y-73915845D01*
X118637706Y-73915845D01*
X118766652Y-73969257D01*
X118766656Y-73969258D01*
X118921202Y-73999999D01*
X118921206Y-74000000D01*
X119078794Y-74000000D01*
X119078797Y-73999999D01*
X119233343Y-73969258D01*
X119233347Y-73969257D01*
X119362293Y-73915845D01*
X119637706Y-73915845D01*
X119766652Y-73969257D01*
X119766656Y-73969258D01*
X119921202Y-73999999D01*
X119921206Y-74000000D01*
X120078794Y-74000000D01*
X120078797Y-73999999D01*
X120233343Y-73969258D01*
X120233347Y-73969257D01*
X120362293Y-73915845D01*
X120637706Y-73915845D01*
X120766652Y-73969257D01*
X120766656Y-73969258D01*
X120921202Y-73999999D01*
X120921206Y-74000000D01*
X121078794Y-74000000D01*
X121078797Y-73999999D01*
X121233343Y-73969258D01*
X121233347Y-73969257D01*
X121362293Y-73915845D01*
X121637706Y-73915845D01*
X121766652Y-73969257D01*
X121766656Y-73969258D01*
X121921202Y-73999999D01*
X121921206Y-74000000D01*
X122078794Y-74000000D01*
X122078797Y-73999999D01*
X122233343Y-73969258D01*
X122233347Y-73969257D01*
X122362293Y-73915845D01*
X122000001Y-73553553D01*
X122000000Y-73553553D01*
X121637706Y-73915845D01*
X121362293Y-73915845D01*
X121000001Y-73553553D01*
X121000000Y-73553553D01*
X120637706Y-73915845D01*
X120362293Y-73915845D01*
X120000001Y-73553553D01*
X120000000Y-73553553D01*
X119637706Y-73915845D01*
X119362293Y-73915845D01*
X119000001Y-73553553D01*
X119000000Y-73553553D01*
X118637706Y-73915845D01*
X118362293Y-73915845D01*
X118000001Y-73553553D01*
X118000000Y-73553553D01*
X117637706Y-73915845D01*
X117000000Y-73915845D01*
X117000000Y-73499677D01*
X117019685Y-73432638D01*
X117072489Y-73386883D01*
X117141647Y-73376939D01*
X117205203Y-73405964D01*
X117238561Y-73452224D01*
X117284153Y-73562293D01*
X117646446Y-73200001D01*
X117646446Y-73199999D01*
X117616610Y-73170163D01*
X117850000Y-73170163D01*
X117850000Y-73229837D01*
X117872836Y-73284968D01*
X117915032Y-73327164D01*
X117970163Y-73350000D01*
X118029837Y-73350000D01*
X118084968Y-73327164D01*
X118127164Y-73284968D01*
X118150000Y-73229837D01*
X118150000Y-73200000D01*
X118353553Y-73200000D01*
X118500000Y-73346446D01*
X118646446Y-73200000D01*
X118616609Y-73170163D01*
X118850000Y-73170163D01*
X118850000Y-73229837D01*
X118872836Y-73284968D01*
X118915032Y-73327164D01*
X118970163Y-73350000D01*
X119029837Y-73350000D01*
X119084968Y-73327164D01*
X119127164Y-73284968D01*
X119150000Y-73229837D01*
X119150000Y-73199999D01*
X119353553Y-73199999D01*
X119500000Y-73346445D01*
X119640255Y-73206189D01*
X119604229Y-73170163D01*
X119850000Y-73170163D01*
X119850000Y-73229837D01*
X119872836Y-73284968D01*
X119915032Y-73327164D01*
X119970163Y-73350000D01*
X120029837Y-73350000D01*
X120084968Y-73327164D01*
X120127164Y-73284968D01*
X120150000Y-73229837D01*
X120150000Y-73199999D01*
X120353553Y-73199999D01*
X120500000Y-73346446D01*
X120646446Y-73200000D01*
X120616609Y-73170163D01*
X120850000Y-73170163D01*
X120850000Y-73229837D01*
X120872836Y-73284968D01*
X120915032Y-73327164D01*
X120970163Y-73350000D01*
X121029837Y-73350000D01*
X121084968Y-73327164D01*
X121127164Y-73284968D01*
X121150000Y-73229837D01*
X121150000Y-73199999D01*
X121353553Y-73199999D01*
X121500000Y-73346446D01*
X121646446Y-73200001D01*
X121646446Y-73200000D01*
X121616609Y-73170163D01*
X121850000Y-73170163D01*
X121850000Y-73229837D01*
X121872836Y-73284968D01*
X121915032Y-73327164D01*
X121970163Y-73350000D01*
X122029837Y-73350000D01*
X122084968Y-73327164D01*
X122127164Y-73284968D01*
X122150000Y-73229837D01*
X122150000Y-73199999D01*
X122353553Y-73199999D01*
X122353553Y-73200001D01*
X122715845Y-73562293D01*
X122769257Y-73433347D01*
X122769258Y-73433343D01*
X122799999Y-73278797D01*
X122800000Y-73278794D01*
X122800000Y-73121206D01*
X122799999Y-73121202D01*
X122769258Y-72966656D01*
X122769257Y-72966652D01*
X122715845Y-72837706D01*
X122353553Y-73199999D01*
X122150000Y-73199999D01*
X122150000Y-73170163D01*
X122127164Y-73115032D01*
X122084968Y-73072836D01*
X122029837Y-73050000D01*
X121970163Y-73050000D01*
X121915032Y-73072836D01*
X121872836Y-73115032D01*
X121850000Y-73170163D01*
X121616609Y-73170163D01*
X121500000Y-73053553D01*
X121432348Y-73121206D01*
X121432347Y-73121207D01*
X121353553Y-73199999D01*
X121150000Y-73199999D01*
X121150000Y-73170163D01*
X121127164Y-73115032D01*
X121084968Y-73072836D01*
X121029837Y-73050000D01*
X120970163Y-73050000D01*
X120915032Y-73072836D01*
X120872836Y-73115032D01*
X120850000Y-73170163D01*
X120616609Y-73170163D01*
X120567653Y-73121207D01*
X120500000Y-73053553D01*
X120432348Y-73121206D01*
X120432347Y-73121207D01*
X120353553Y-73199999D01*
X120150000Y-73199999D01*
X120150000Y-73170163D01*
X120127164Y-73115032D01*
X120084968Y-73072836D01*
X120029837Y-73050000D01*
X119970163Y-73050000D01*
X119915032Y-73072836D01*
X119872836Y-73115032D01*
X119850000Y-73170163D01*
X119604229Y-73170163D01*
X119493809Y-73059744D01*
X119353553Y-73199999D01*
X119150000Y-73199999D01*
X119150000Y-73170163D01*
X119127164Y-73115032D01*
X119084968Y-73072836D01*
X119029837Y-73050000D01*
X118970163Y-73050000D01*
X118915032Y-73072836D01*
X118872836Y-73115032D01*
X118850000Y-73170163D01*
X118616609Y-73170163D01*
X118499999Y-73053553D01*
X118353553Y-73200000D01*
X118150000Y-73200000D01*
X118150000Y-73170163D01*
X118127164Y-73115032D01*
X118084968Y-73072836D01*
X118029837Y-73050000D01*
X117970163Y-73050000D01*
X117915032Y-73072836D01*
X117872836Y-73115032D01*
X117850000Y-73170163D01*
X117616610Y-73170163D01*
X117284153Y-72837705D01*
X117238561Y-72947775D01*
X117194720Y-73002178D01*
X117128426Y-73024243D01*
X117060727Y-73006964D01*
X117013116Y-72955827D01*
X117000000Y-72900322D01*
X117000000Y-72699999D01*
X117853553Y-72699999D01*
X118000000Y-72846446D01*
X118146446Y-72700000D01*
X118116609Y-72670163D01*
X118350000Y-72670163D01*
X118350000Y-72729837D01*
X118372836Y-72784968D01*
X118415032Y-72827164D01*
X118470163Y-72850000D01*
X118529837Y-72850000D01*
X118584968Y-72827164D01*
X118627164Y-72784968D01*
X118650000Y-72729837D01*
X118650000Y-72699999D01*
X118853553Y-72699999D01*
X118992089Y-72838535D01*
X119132346Y-72698280D01*
X119102510Y-72668444D01*
X119335900Y-72668444D01*
X119335900Y-72728118D01*
X119358736Y-72783249D01*
X119400932Y-72825445D01*
X119456063Y-72848281D01*
X119515737Y-72848281D01*
X119570868Y-72825445D01*
X119613064Y-72783249D01*
X119635900Y-72728118D01*
X119635900Y-72699999D01*
X119853553Y-72699999D01*
X120000000Y-72846446D01*
X120146446Y-72700000D01*
X120116609Y-72670163D01*
X120350000Y-72670163D01*
X120350000Y-72729837D01*
X120372836Y-72784968D01*
X120415032Y-72827164D01*
X120470163Y-72850000D01*
X120529837Y-72850000D01*
X120584968Y-72827164D01*
X120627164Y-72784968D01*
X120650000Y-72729837D01*
X120650000Y-72699999D01*
X120853553Y-72699999D01*
X121000000Y-72846446D01*
X121146446Y-72700000D01*
X121116609Y-72670163D01*
X121350000Y-72670163D01*
X121350000Y-72729837D01*
X121372836Y-72784968D01*
X121415032Y-72827164D01*
X121470163Y-72850000D01*
X121529837Y-72850000D01*
X121584968Y-72827164D01*
X121627164Y-72784968D01*
X121650000Y-72729837D01*
X121650000Y-72699999D01*
X121853553Y-72699999D01*
X122000000Y-72846446D01*
X122146446Y-72700001D01*
X122146446Y-72699999D01*
X122000000Y-72553553D01*
X121974614Y-72578940D01*
X121974612Y-72578942D01*
X121853553Y-72699999D01*
X121650000Y-72699999D01*
X121650000Y-72670163D01*
X121627164Y-72615032D01*
X121584968Y-72572836D01*
X121529837Y-72550000D01*
X121470163Y-72550000D01*
X121415032Y-72572836D01*
X121372836Y-72615032D01*
X121350000Y-72670163D01*
X121116609Y-72670163D01*
X121025388Y-72578942D01*
X121000000Y-72553553D01*
X120974614Y-72578940D01*
X120974612Y-72578942D01*
X120853553Y-72699999D01*
X120650000Y-72699999D01*
X120650000Y-72670163D01*
X120627164Y-72615032D01*
X120584968Y-72572836D01*
X120529837Y-72550000D01*
X120470163Y-72550000D01*
X120415032Y-72572836D01*
X120372836Y-72615032D01*
X120350000Y-72670163D01*
X120116609Y-72670163D01*
X119999999Y-72553553D01*
X119853553Y-72699999D01*
X119635900Y-72699999D01*
X119635900Y-72668444D01*
X119613064Y-72613313D01*
X119570868Y-72571117D01*
X119515737Y-72548281D01*
X119456063Y-72548281D01*
X119400932Y-72571117D01*
X119358736Y-72613313D01*
X119335900Y-72668444D01*
X119102510Y-72668444D01*
X118993809Y-72559743D01*
X118993809Y-72559744D01*
X118974614Y-72578940D01*
X118974612Y-72578942D01*
X118853553Y-72699999D01*
X118650000Y-72699999D01*
X118650000Y-72670163D01*
X118627164Y-72615032D01*
X118584968Y-72572836D01*
X118529837Y-72550000D01*
X118470163Y-72550000D01*
X118415032Y-72572836D01*
X118372836Y-72615032D01*
X118350000Y-72670163D01*
X118116609Y-72670163D01*
X117999999Y-72553553D01*
X117853553Y-72699999D01*
X117000000Y-72699999D01*
X117000000Y-72499677D01*
X117019685Y-72432638D01*
X117072489Y-72386883D01*
X117141647Y-72376939D01*
X117205203Y-72405964D01*
X117238561Y-72452224D01*
X117284153Y-72562293D01*
X117285490Y-72560957D01*
X117646446Y-72200001D01*
X117646446Y-72199999D01*
X117616610Y-72170163D01*
X117850000Y-72170163D01*
X117850000Y-72229837D01*
X117872836Y-72284968D01*
X117915032Y-72327164D01*
X117970163Y-72350000D01*
X118029837Y-72350000D01*
X118084968Y-72327164D01*
X118127164Y-72284968D01*
X118150000Y-72229837D01*
X118150000Y-72199999D01*
X118353553Y-72199999D01*
X118500000Y-72346446D01*
X118646446Y-72200000D01*
X118616609Y-72170163D01*
X118850000Y-72170163D01*
X118850000Y-72229837D01*
X118872836Y-72284968D01*
X118915032Y-72327164D01*
X118970163Y-72350000D01*
X119029837Y-72350000D01*
X119084968Y-72327164D01*
X119127164Y-72284968D01*
X119150000Y-72229837D01*
X119150000Y-72199999D01*
X119353553Y-72199999D01*
X119492090Y-72338536D01*
X119635958Y-72194667D01*
X119613138Y-72170163D01*
X119850000Y-72170163D01*
X119850000Y-72229837D01*
X119872836Y-72284968D01*
X119915032Y-72327164D01*
X119970163Y-72350000D01*
X120029837Y-72350000D01*
X120084968Y-72327164D01*
X120127164Y-72284968D01*
X120150000Y-72229837D01*
X120150000Y-72199999D01*
X120353553Y-72199999D01*
X120500000Y-72346446D01*
X120646446Y-72200000D01*
X120616609Y-72170163D01*
X120850000Y-72170163D01*
X120850000Y-72229837D01*
X120872836Y-72284968D01*
X120915032Y-72327164D01*
X120970163Y-72350000D01*
X121029837Y-72350000D01*
X121084968Y-72327164D01*
X121127164Y-72284968D01*
X121150000Y-72229837D01*
X121150000Y-72199999D01*
X121353553Y-72199999D01*
X121500000Y-72346446D01*
X121646446Y-72200000D01*
X121616609Y-72170163D01*
X121850000Y-72170163D01*
X121850000Y-72229837D01*
X121872836Y-72284968D01*
X121915032Y-72327164D01*
X121970163Y-72350000D01*
X122029837Y-72350000D01*
X122084968Y-72327164D01*
X122127164Y-72284968D01*
X122150000Y-72229837D01*
X122150000Y-72199999D01*
X122353553Y-72199999D01*
X122353553Y-72200001D01*
X122715845Y-72562293D01*
X122769257Y-72433347D01*
X122769258Y-72433343D01*
X122799999Y-72278797D01*
X122800000Y-72278794D01*
X122800000Y-72121206D01*
X122799999Y-72121202D01*
X122769258Y-71966656D01*
X122769257Y-71966652D01*
X122715845Y-71837706D01*
X122353553Y-72199999D01*
X122150000Y-72199999D01*
X122150000Y-72170163D01*
X122127164Y-72115032D01*
X122084968Y-72072836D01*
X122029837Y-72050000D01*
X121970163Y-72050000D01*
X121915032Y-72072836D01*
X121872836Y-72115032D01*
X121850000Y-72170163D01*
X121616609Y-72170163D01*
X121567653Y-72121207D01*
X121500000Y-72053553D01*
X121432348Y-72121206D01*
X121432347Y-72121207D01*
X121353553Y-72199999D01*
X121150000Y-72199999D01*
X121150000Y-72170163D01*
X121127164Y-72115032D01*
X121084968Y-72072836D01*
X121029837Y-72050000D01*
X120970163Y-72050000D01*
X120915032Y-72072836D01*
X120872836Y-72115032D01*
X120850000Y-72170163D01*
X120616609Y-72170163D01*
X120567653Y-72121207D01*
X120500000Y-72053553D01*
X120432348Y-72121206D01*
X120432347Y-72121207D01*
X120353553Y-72199999D01*
X120150000Y-72199999D01*
X120150000Y-72170163D01*
X120127164Y-72115032D01*
X120084968Y-72072836D01*
X120029837Y-72050000D01*
X119970163Y-72050000D01*
X119915032Y-72072836D01*
X119872836Y-72115032D01*
X119850000Y-72170163D01*
X119613138Y-72170163D01*
X119566095Y-72119649D01*
X119500000Y-72053553D01*
X119432348Y-72121206D01*
X119432347Y-72121207D01*
X119353553Y-72199999D01*
X119150000Y-72199999D01*
X119150000Y-72170163D01*
X119127164Y-72115032D01*
X119084968Y-72072836D01*
X119029837Y-72050000D01*
X118970163Y-72050000D01*
X118915032Y-72072836D01*
X118872836Y-72115032D01*
X118850000Y-72170163D01*
X118616609Y-72170163D01*
X118567653Y-72121207D01*
X118500000Y-72053553D01*
X118432348Y-72121206D01*
X118432347Y-72121207D01*
X118353553Y-72199999D01*
X118150000Y-72199999D01*
X118150000Y-72170163D01*
X118127164Y-72115032D01*
X118084968Y-72072836D01*
X118029837Y-72050000D01*
X117970163Y-72050000D01*
X117915032Y-72072836D01*
X117872836Y-72115032D01*
X117850000Y-72170163D01*
X117616610Y-72170163D01*
X117284153Y-71837705D01*
X117238561Y-71947775D01*
X117194720Y-72002178D01*
X117128426Y-72024243D01*
X117060727Y-72006964D01*
X117013116Y-71955827D01*
X117000000Y-71900322D01*
X117000000Y-71699999D01*
X117853553Y-71699999D01*
X118000000Y-71846446D01*
X118146445Y-71700000D01*
X118146446Y-71699999D01*
X118116610Y-71670163D01*
X118350000Y-71670163D01*
X118350000Y-71729837D01*
X118372836Y-71784968D01*
X118415032Y-71827164D01*
X118470163Y-71850000D01*
X118529837Y-71850000D01*
X118584968Y-71827164D01*
X118627164Y-71784968D01*
X118650000Y-71729837D01*
X118650000Y-71699999D01*
X118853553Y-71699999D01*
X119000000Y-71846446D01*
X119146446Y-71700000D01*
X119116609Y-71670163D01*
X119350000Y-71670163D01*
X119350000Y-71729837D01*
X119372836Y-71784968D01*
X119415032Y-71827164D01*
X119470163Y-71850000D01*
X119529837Y-71850000D01*
X119584968Y-71827164D01*
X119627164Y-71784968D01*
X119650000Y-71729837D01*
X119650000Y-71699999D01*
X119853553Y-71699999D01*
X120000000Y-71846446D01*
X120146446Y-71700000D01*
X120116609Y-71670163D01*
X120350000Y-71670163D01*
X120350000Y-71729837D01*
X120372836Y-71784968D01*
X120415032Y-71827164D01*
X120470163Y-71850000D01*
X120529837Y-71850000D01*
X120584968Y-71827164D01*
X120627164Y-71784968D01*
X120650000Y-71729837D01*
X120650000Y-71699999D01*
X120853553Y-71699999D01*
X121000000Y-71846446D01*
X121146446Y-71700000D01*
X121116609Y-71670163D01*
X121350000Y-71670163D01*
X121350000Y-71729837D01*
X121372836Y-71784968D01*
X121415032Y-71827164D01*
X121470163Y-71850000D01*
X121529837Y-71850000D01*
X121584968Y-71827164D01*
X121627164Y-71784968D01*
X121650000Y-71729837D01*
X121650000Y-71699999D01*
X121853553Y-71699999D01*
X122000000Y-71846446D01*
X122146446Y-71700000D01*
X122000000Y-71553553D01*
X121853553Y-71699999D01*
X121650000Y-71699999D01*
X121650000Y-71670163D01*
X121627164Y-71615032D01*
X121584968Y-71572836D01*
X121529837Y-71550000D01*
X121470163Y-71550000D01*
X121415032Y-71572836D01*
X121372836Y-71615032D01*
X121350000Y-71670163D01*
X121116609Y-71670163D01*
X121025388Y-71578942D01*
X121000000Y-71553553D01*
X120974614Y-71578940D01*
X120974612Y-71578942D01*
X120853553Y-71699999D01*
X120650000Y-71699999D01*
X120650000Y-71670163D01*
X120627164Y-71615032D01*
X120584968Y-71572836D01*
X120529837Y-71550000D01*
X120470163Y-71550000D01*
X120415032Y-71572836D01*
X120372836Y-71615032D01*
X120350000Y-71670163D01*
X120116609Y-71670163D01*
X120025388Y-71578942D01*
X120000000Y-71553553D01*
X119974614Y-71578940D01*
X119974612Y-71578942D01*
X119853553Y-71699999D01*
X119650000Y-71699999D01*
X119650000Y-71670163D01*
X119627164Y-71615032D01*
X119584968Y-71572836D01*
X119529837Y-71550000D01*
X119470163Y-71550000D01*
X119415032Y-71572836D01*
X119372836Y-71615032D01*
X119350000Y-71670163D01*
X119116609Y-71670163D01*
X119025388Y-71578942D01*
X119000000Y-71553553D01*
X118974614Y-71578940D01*
X118974612Y-71578942D01*
X118853553Y-71699999D01*
X118650000Y-71699999D01*
X118650000Y-71670163D01*
X118627164Y-71615032D01*
X118584968Y-71572836D01*
X118529837Y-71550000D01*
X118470163Y-71550000D01*
X118415032Y-71572836D01*
X118372836Y-71615032D01*
X118350000Y-71670163D01*
X118116610Y-71670163D01*
X118000000Y-71553553D01*
X117853553Y-71699999D01*
X117000000Y-71699999D01*
X117000000Y-71499677D01*
X117019685Y-71432638D01*
X117072489Y-71386883D01*
X117141647Y-71376939D01*
X117205203Y-71405964D01*
X117238561Y-71452224D01*
X117284153Y-71562293D01*
X117285490Y-71560957D01*
X117646446Y-71200001D01*
X117646446Y-71199999D01*
X117616610Y-71170163D01*
X117850000Y-71170163D01*
X117850000Y-71229837D01*
X117872836Y-71284968D01*
X117915032Y-71327164D01*
X117970163Y-71350000D01*
X118029837Y-71350000D01*
X118084968Y-71327164D01*
X118127164Y-71284968D01*
X118150000Y-71229837D01*
X118150000Y-71200000D01*
X118353553Y-71200000D01*
X118499998Y-71346446D01*
X118607299Y-71239145D01*
X118627627Y-71181182D01*
X118616608Y-71170163D01*
X118850000Y-71170163D01*
X118850000Y-71229837D01*
X118872836Y-71284968D01*
X118915032Y-71327164D01*
X118970163Y-71350000D01*
X119029837Y-71350000D01*
X119084968Y-71327164D01*
X119127164Y-71284968D01*
X119150000Y-71229837D01*
X119150000Y-71181180D01*
X119372371Y-71181180D01*
X119392703Y-71239149D01*
X119500000Y-71346446D01*
X119607299Y-71239146D01*
X119627627Y-71181182D01*
X119616608Y-71170163D01*
X119850000Y-71170163D01*
X119850000Y-71229837D01*
X119872836Y-71284968D01*
X119915032Y-71327164D01*
X119970163Y-71350000D01*
X120029837Y-71350000D01*
X120084968Y-71327164D01*
X120127164Y-71284968D01*
X120150000Y-71229837D01*
X120150000Y-71181180D01*
X120372371Y-71181180D01*
X120392703Y-71239149D01*
X120500000Y-71346446D01*
X120607299Y-71239146D01*
X120627627Y-71181182D01*
X120616608Y-71170163D01*
X120850000Y-71170163D01*
X120850000Y-71229837D01*
X120872836Y-71284968D01*
X120915032Y-71327164D01*
X120970163Y-71350000D01*
X121029837Y-71350000D01*
X121084968Y-71327164D01*
X121127164Y-71284968D01*
X121150000Y-71229837D01*
X121150000Y-71181180D01*
X121372371Y-71181180D01*
X121392703Y-71239149D01*
X121500000Y-71346446D01*
X121646446Y-71200000D01*
X121616609Y-71170163D01*
X121850000Y-71170163D01*
X121850000Y-71229837D01*
X121872836Y-71284968D01*
X121915032Y-71327164D01*
X121970163Y-71350000D01*
X122029837Y-71350000D01*
X122084968Y-71327164D01*
X122127164Y-71284968D01*
X122150000Y-71229837D01*
X122150000Y-71199999D01*
X122353553Y-71199999D01*
X122353553Y-71200001D01*
X122715845Y-71562293D01*
X122750467Y-71478711D01*
X174749500Y-71478711D01*
X174749500Y-71721288D01*
X174781161Y-71961785D01*
X174843947Y-72196104D01*
X174906221Y-72346446D01*
X174936776Y-72420212D01*
X175058064Y-72630289D01*
X175058066Y-72630292D01*
X175058067Y-72630293D01*
X175205733Y-72822736D01*
X175205739Y-72822743D01*
X175377256Y-72994260D01*
X175377263Y-72994266D01*
X175416330Y-73024243D01*
X175569711Y-73141936D01*
X175779788Y-73263224D01*
X176003900Y-73356054D01*
X176238211Y-73418838D01*
X176418586Y-73442584D01*
X176478711Y-73450500D01*
X176478712Y-73450500D01*
X176721289Y-73450500D01*
X176769388Y-73444167D01*
X176961789Y-73418838D01*
X177196100Y-73356054D01*
X177420212Y-73263224D01*
X177630289Y-73141936D01*
X177822738Y-72994265D01*
X177994265Y-72822738D01*
X178141936Y-72630289D01*
X178263224Y-72420212D01*
X178356054Y-72196100D01*
X178418838Y-71961789D01*
X178450500Y-71721288D01*
X178450500Y-71478712D01*
X178418838Y-71238211D01*
X178356054Y-71003900D01*
X178263224Y-70779788D01*
X178141936Y-70569711D01*
X178035301Y-70430741D01*
X177994266Y-70377263D01*
X177994260Y-70377256D01*
X177822743Y-70205739D01*
X177822736Y-70205733D01*
X177630293Y-70058067D01*
X177630292Y-70058066D01*
X177630289Y-70058064D01*
X177420212Y-69936776D01*
X177420205Y-69936773D01*
X177196104Y-69843947D01*
X176961785Y-69781161D01*
X176721289Y-69749500D01*
X176721288Y-69749500D01*
X176478712Y-69749500D01*
X176478711Y-69749500D01*
X176238214Y-69781161D01*
X176003895Y-69843947D01*
X175779794Y-69936773D01*
X175779785Y-69936777D01*
X175569706Y-70058067D01*
X175377263Y-70205733D01*
X175377256Y-70205739D01*
X175205739Y-70377256D01*
X175205733Y-70377263D01*
X175058067Y-70569706D01*
X174936777Y-70779785D01*
X174936773Y-70779794D01*
X174843947Y-71003895D01*
X174781161Y-71238214D01*
X174749500Y-71478711D01*
X122750467Y-71478711D01*
X122769258Y-71433346D01*
X122769258Y-71433344D01*
X122799999Y-71278797D01*
X122800000Y-71278794D01*
X122800000Y-71121206D01*
X122799999Y-71121202D01*
X122769258Y-70966656D01*
X122769257Y-70966652D01*
X122715845Y-70837706D01*
X122353553Y-71199999D01*
X122150000Y-71199999D01*
X122150000Y-71170163D01*
X122127164Y-71115032D01*
X122084968Y-71072836D01*
X122029837Y-71050000D01*
X121970163Y-71050000D01*
X121915032Y-71072836D01*
X121872836Y-71115032D01*
X121850000Y-71170163D01*
X121616609Y-71170163D01*
X121500000Y-71053553D01*
X121372371Y-71181180D01*
X121150000Y-71181180D01*
X121150000Y-71170163D01*
X121127164Y-71115032D01*
X121084968Y-71072836D01*
X121029837Y-71050000D01*
X120970163Y-71050000D01*
X120915032Y-71072836D01*
X120872836Y-71115032D01*
X120850000Y-71170163D01*
X120616608Y-71170163D01*
X120500000Y-71053553D01*
X120372371Y-71181180D01*
X120150000Y-71181180D01*
X120150000Y-71170163D01*
X120127164Y-71115032D01*
X120084968Y-71072836D01*
X120029837Y-71050000D01*
X119970163Y-71050000D01*
X119915032Y-71072836D01*
X119872836Y-71115032D01*
X119850000Y-71170163D01*
X119616608Y-71170163D01*
X119500000Y-71053553D01*
X119372371Y-71181180D01*
X119150000Y-71181180D01*
X119150000Y-71170163D01*
X119127164Y-71115032D01*
X119084968Y-71072836D01*
X119029837Y-71050000D01*
X118970163Y-71050000D01*
X118915032Y-71072836D01*
X118872836Y-71115032D01*
X118850000Y-71170163D01*
X118616608Y-71170163D01*
X118500000Y-71053553D01*
X118353553Y-71200000D01*
X118150000Y-71200000D01*
X118150000Y-71170163D01*
X118127164Y-71115032D01*
X118084968Y-71072836D01*
X118029837Y-71050000D01*
X117970163Y-71050000D01*
X117915032Y-71072836D01*
X117872836Y-71115032D01*
X117850000Y-71170163D01*
X117616610Y-71170163D01*
X117284153Y-70837705D01*
X117238561Y-70947775D01*
X117194720Y-71002178D01*
X117128426Y-71024243D01*
X117060727Y-71006964D01*
X117013116Y-70955827D01*
X117000000Y-70900322D01*
X117000000Y-70484153D01*
X117637705Y-70484153D01*
X118000000Y-70846446D01*
X118000001Y-70846446D01*
X118362293Y-70484153D01*
X118637705Y-70484153D01*
X119000000Y-70846446D01*
X119000001Y-70846446D01*
X119362293Y-70484153D01*
X119637705Y-70484153D01*
X120000000Y-70846446D01*
X120000001Y-70846446D01*
X120362293Y-70484153D01*
X120637705Y-70484153D01*
X121000000Y-70846446D01*
X121000001Y-70846446D01*
X121362293Y-70484153D01*
X121637705Y-70484153D01*
X122000000Y-70846446D01*
X122000001Y-70846446D01*
X122362293Y-70484153D01*
X122233351Y-70430743D01*
X122233343Y-70430741D01*
X122078797Y-70400000D01*
X121921202Y-70400000D01*
X121766656Y-70430741D01*
X121766648Y-70430743D01*
X121637705Y-70484153D01*
X121362293Y-70484153D01*
X121233351Y-70430743D01*
X121233343Y-70430741D01*
X121078797Y-70400000D01*
X120921202Y-70400000D01*
X120766656Y-70430741D01*
X120766648Y-70430743D01*
X120637705Y-70484153D01*
X120362293Y-70484153D01*
X120233351Y-70430743D01*
X120233343Y-70430741D01*
X120078797Y-70400000D01*
X119921202Y-70400000D01*
X119766656Y-70430741D01*
X119766648Y-70430743D01*
X119637705Y-70484153D01*
X119362293Y-70484153D01*
X119233351Y-70430743D01*
X119233343Y-70430741D01*
X119078797Y-70400000D01*
X118921202Y-70400000D01*
X118766656Y-70430741D01*
X118766648Y-70430743D01*
X118637705Y-70484153D01*
X118362293Y-70484153D01*
X118233351Y-70430743D01*
X118233343Y-70430741D01*
X118078797Y-70400000D01*
X117921202Y-70400000D01*
X117766656Y-70430741D01*
X117766648Y-70430743D01*
X117637705Y-70484153D01*
X117000000Y-70484153D01*
X117000000Y-67524000D01*
X117019685Y-67456961D01*
X117072489Y-67411206D01*
X117124000Y-67400000D01*
X117600024Y-67400000D01*
X167712000Y-67208000D01*
X169800000Y-67200000D01*
X169800000Y-49721153D01*
X175999500Y-49721153D01*
X175999500Y-49878846D01*
X176030261Y-50033489D01*
X176030264Y-50033501D01*
X176090602Y-50179172D01*
X176090609Y-50179185D01*
X176178210Y-50310288D01*
X176178213Y-50310292D01*
X176289707Y-50421786D01*
X176289711Y-50421789D01*
X176420814Y-50509390D01*
X176420827Y-50509397D01*
X176566498Y-50569735D01*
X176566503Y-50569737D01*
X176721153Y-50600499D01*
X176721156Y-50600500D01*
X176721158Y-50600500D01*
X176878844Y-50600500D01*
X176878845Y-50600499D01*
X177033497Y-50569737D01*
X177179179Y-50509394D01*
X177310289Y-50421789D01*
X177421789Y-50310289D01*
X177509394Y-50179179D01*
X177569737Y-50033497D01*
X177600500Y-49878842D01*
X177600500Y-49721158D01*
X177600500Y-49721155D01*
X177600499Y-49721153D01*
X177592083Y-49678842D01*
X177569737Y-49566503D01*
X177550955Y-49521158D01*
X177509397Y-49420827D01*
X177509390Y-49420814D01*
X177421789Y-49289711D01*
X177421786Y-49289707D01*
X177310292Y-49178213D01*
X177310288Y-49178210D01*
X177179185Y-49090609D01*
X177179172Y-49090602D01*
X177033501Y-49030264D01*
X177033489Y-49030261D01*
X176878845Y-48999500D01*
X176878842Y-48999500D01*
X176721158Y-48999500D01*
X176721155Y-48999500D01*
X176566510Y-49030261D01*
X176566498Y-49030264D01*
X176420827Y-49090602D01*
X176420814Y-49090609D01*
X176289711Y-49178210D01*
X176289707Y-49178213D01*
X176178213Y-49289707D01*
X176178210Y-49289711D01*
X176090609Y-49420814D01*
X176090602Y-49420827D01*
X176030264Y-49566498D01*
X176030261Y-49566510D01*
X175999500Y-49721153D01*
X169800000Y-49721153D01*
X169800000Y-45921153D01*
X173999500Y-45921153D01*
X173999500Y-46078846D01*
X174030261Y-46233489D01*
X174030264Y-46233501D01*
X174090602Y-46379172D01*
X174090609Y-46379185D01*
X174178210Y-46510288D01*
X174178213Y-46510292D01*
X174289707Y-46621786D01*
X174289711Y-46621789D01*
X174420814Y-46709390D01*
X174420827Y-46709397D01*
X174566498Y-46769735D01*
X174566503Y-46769737D01*
X174721153Y-46800499D01*
X174721156Y-46800500D01*
X174721158Y-46800500D01*
X174878844Y-46800500D01*
X174878845Y-46800499D01*
X175033497Y-46769737D01*
X175179179Y-46709394D01*
X175310289Y-46621789D01*
X175421789Y-46510289D01*
X175509394Y-46379179D01*
X175569737Y-46233497D01*
X175600500Y-46078842D01*
X175600500Y-45921158D01*
X175600500Y-45921155D01*
X175600499Y-45921153D01*
X175569738Y-45766510D01*
X175569737Y-45766503D01*
X175509795Y-45621789D01*
X175509397Y-45620827D01*
X175509390Y-45620814D01*
X175421789Y-45489711D01*
X175421786Y-45489707D01*
X175310292Y-45378213D01*
X175310288Y-45378210D01*
X175179185Y-45290609D01*
X175179172Y-45290602D01*
X175033501Y-45230264D01*
X175033489Y-45230261D01*
X174878845Y-45199500D01*
X174878842Y-45199500D01*
X174721158Y-45199500D01*
X174721155Y-45199500D01*
X174566510Y-45230261D01*
X174566498Y-45230264D01*
X174420827Y-45290602D01*
X174420814Y-45290609D01*
X174289711Y-45378210D01*
X174289707Y-45378213D01*
X174178213Y-45489707D01*
X174178210Y-45489711D01*
X174090609Y-45620814D01*
X174090602Y-45620827D01*
X174030264Y-45766498D01*
X174030261Y-45766510D01*
X173999500Y-45921153D01*
X169800000Y-45921153D01*
X169800000Y-32800000D01*
X134324000Y-32800000D01*
X134256961Y-32780315D01*
X134211206Y-32727511D01*
X134200000Y-32676000D01*
X134200000Y-28278711D01*
X174749500Y-28278711D01*
X174749500Y-28521288D01*
X174781161Y-28761785D01*
X174843947Y-28996104D01*
X174936773Y-29220205D01*
X174936776Y-29220212D01*
X175058064Y-29430289D01*
X175058066Y-29430292D01*
X175058067Y-29430293D01*
X175205733Y-29622736D01*
X175205739Y-29622743D01*
X175377256Y-29794260D01*
X175377262Y-29794265D01*
X175569711Y-29941936D01*
X175779788Y-30063224D01*
X176003900Y-30156054D01*
X176238211Y-30218838D01*
X176418586Y-30242584D01*
X176478711Y-30250500D01*
X176478712Y-30250500D01*
X176721289Y-30250500D01*
X176769388Y-30244167D01*
X176961789Y-30218838D01*
X177196100Y-30156054D01*
X177420212Y-30063224D01*
X177630289Y-29941936D01*
X177822738Y-29794265D01*
X177994265Y-29622738D01*
X178141936Y-29430289D01*
X178263224Y-29220212D01*
X178356054Y-28996100D01*
X178418838Y-28761789D01*
X178450500Y-28521288D01*
X178450500Y-28278712D01*
X178418838Y-28038211D01*
X178356054Y-27803900D01*
X178263224Y-27579788D01*
X178141936Y-27369711D01*
X177994265Y-27177262D01*
X177994260Y-27177256D01*
X177822743Y-27005739D01*
X177822736Y-27005733D01*
X177630293Y-26858067D01*
X177630292Y-26858066D01*
X177630289Y-26858064D01*
X177420212Y-26736776D01*
X177391145Y-26724736D01*
X177196104Y-26643947D01*
X176961785Y-26581161D01*
X176721289Y-26549500D01*
X176721288Y-26549500D01*
X176478712Y-26549500D01*
X176478711Y-26549500D01*
X176238214Y-26581161D01*
X176003895Y-26643947D01*
X175779794Y-26736773D01*
X175779785Y-26736777D01*
X175569706Y-26858067D01*
X175377263Y-27005733D01*
X175377256Y-27005739D01*
X175205739Y-27177256D01*
X175205733Y-27177263D01*
X175058067Y-27369706D01*
X174936777Y-27579785D01*
X174936773Y-27579794D01*
X174843947Y-27803895D01*
X174781161Y-28038214D01*
X174749500Y-28278711D01*
X134200000Y-28278711D01*
X134200000Y-25624500D01*
X134219685Y-25557461D01*
X134272489Y-25511706D01*
X134324000Y-25500500D01*
X179375500Y-25500500D01*
X179442539Y-25520185D01*
G37*
%TD.AperFunction*%
%TD*%
%TA.AperFunction,Conductor*%
%TO.N,GND*%
G36*
X101343039Y-25520185D02*
G01*
X101388794Y-25572989D01*
X101400000Y-25624500D01*
X101400000Y-45476000D01*
X101380315Y-45543039D01*
X101327511Y-45588794D01*
X101276000Y-45600000D01*
X90524000Y-45600000D01*
X90456961Y-45580315D01*
X90411206Y-45527511D01*
X90400000Y-45476000D01*
X90400000Y-37717947D01*
X90419685Y-37650908D01*
X90472489Y-37605153D01*
X90499809Y-37596330D01*
X90568435Y-37582678D01*
X90633497Y-37569737D01*
X90779179Y-37509394D01*
X90910289Y-37421789D01*
X91021789Y-37310289D01*
X91109394Y-37179179D01*
X91169737Y-37033497D01*
X91200500Y-36878842D01*
X91200500Y-36721158D01*
X91200500Y-36721155D01*
X91200499Y-36721153D01*
X91169738Y-36566510D01*
X91169737Y-36566503D01*
X91169735Y-36566498D01*
X91109397Y-36420827D01*
X91109390Y-36420814D01*
X91021789Y-36289711D01*
X91019766Y-36287688D01*
X91019043Y-36286365D01*
X91017924Y-36285001D01*
X91018182Y-36284788D01*
X90986276Y-36226368D01*
X90991255Y-36156676D01*
X91017999Y-36115060D01*
X91017924Y-36114999D01*
X91018454Y-36114351D01*
X91019766Y-36112312D01*
X91021789Y-36110289D01*
X91109394Y-35979179D01*
X91169737Y-35833497D01*
X91200500Y-35678842D01*
X91200500Y-35521158D01*
X91200500Y-35521155D01*
X91200499Y-35521153D01*
X91169738Y-35366510D01*
X91169737Y-35366503D01*
X91169735Y-35366498D01*
X91109397Y-35220827D01*
X91109390Y-35220814D01*
X91021789Y-35089711D01*
X91021786Y-35089707D01*
X90910292Y-34978213D01*
X90910288Y-34978210D01*
X90779185Y-34890609D01*
X90779172Y-34890602D01*
X90633501Y-34830264D01*
X90633491Y-34830261D01*
X90499808Y-34803669D01*
X90437897Y-34771284D01*
X90403323Y-34710568D01*
X90400000Y-34682052D01*
X90400000Y-25624500D01*
X90419685Y-25557461D01*
X90472489Y-25511706D01*
X90524000Y-25500500D01*
X101276000Y-25500500D01*
X101343039Y-25520185D01*
G37*
%TD.AperFunction*%
%TD*%
%TA.AperFunction,Conductor*%
%TO.N,+12V*%
G36*
X120815677Y-52219685D02*
G01*
X120836319Y-52236319D01*
X121363681Y-52763681D01*
X121397166Y-52825004D01*
X121400000Y-52851362D01*
X121400000Y-56476000D01*
X121380315Y-56543039D01*
X121327511Y-56588794D01*
X121276000Y-56600000D01*
X119200000Y-56600000D01*
X119200000Y-62548638D01*
X119180315Y-62615677D01*
X119163681Y-62636319D01*
X118436319Y-63363681D01*
X118374996Y-63397166D01*
X118348638Y-63400000D01*
X113380514Y-63400000D01*
X113313475Y-63380315D01*
X113311623Y-63379102D01*
X113179185Y-63290609D01*
X113179172Y-63290602D01*
X113033501Y-63230264D01*
X113033489Y-63230261D01*
X112878845Y-63199500D01*
X112878842Y-63199500D01*
X112721158Y-63199500D01*
X112721155Y-63199500D01*
X112566510Y-63230261D01*
X112566498Y-63230264D01*
X112420827Y-63290602D01*
X112420814Y-63290609D01*
X112289711Y-63378210D01*
X112289707Y-63378213D01*
X112178213Y-63489707D01*
X112178210Y-63489711D01*
X112090609Y-63620814D01*
X112090602Y-63620827D01*
X112030264Y-63766498D01*
X112030261Y-63766510D01*
X111999500Y-63921153D01*
X111999500Y-63949138D01*
X111979815Y-64016177D01*
X111963181Y-64036819D01*
X111800000Y-64199999D01*
X111800000Y-65748638D01*
X111780315Y-65815677D01*
X111763681Y-65836319D01*
X111236319Y-66363681D01*
X111174996Y-66397166D01*
X111148638Y-66400000D01*
X89124000Y-66400000D01*
X89056961Y-66380315D01*
X89011206Y-66327511D01*
X89000000Y-66276000D01*
X89000000Y-54651362D01*
X89019685Y-54584323D01*
X89036319Y-54563681D01*
X89963681Y-53636319D01*
X90025004Y-53602834D01*
X90051362Y-53600000D01*
X96676000Y-53600000D01*
X96743039Y-53619685D01*
X96788794Y-53672489D01*
X96800000Y-53724000D01*
X96800000Y-59424680D01*
X96780315Y-59491719D01*
X96751487Y-59523055D01*
X96612962Y-59629350D01*
X96612952Y-59629358D01*
X96404358Y-59837952D01*
X96404352Y-59837959D01*
X96224761Y-60072006D01*
X96077258Y-60327489D01*
X96077254Y-60327499D01*
X95964364Y-60600038D01*
X95964361Y-60600048D01*
X95888008Y-60885004D01*
X95888006Y-60885015D01*
X95849500Y-61177486D01*
X95849500Y-61472513D01*
X95881571Y-61716113D01*
X95888007Y-61764993D01*
X95888008Y-61764995D01*
X95964361Y-62049951D01*
X95964364Y-62049961D01*
X96077254Y-62322500D01*
X96077258Y-62322510D01*
X96224761Y-62577993D01*
X96404352Y-62812040D01*
X96404358Y-62812047D01*
X96612952Y-63020641D01*
X96612958Y-63020646D01*
X96751487Y-63126943D01*
X96792689Y-63183370D01*
X96800000Y-63225318D01*
X96800000Y-63400000D01*
X97203988Y-63400000D01*
X97251440Y-63409439D01*
X97375048Y-63460639D01*
X97660007Y-63536993D01*
X97952494Y-63575500D01*
X97952501Y-63575500D01*
X98247499Y-63575500D01*
X98247506Y-63575500D01*
X98539993Y-63536993D01*
X98824952Y-63460639D01*
X98948560Y-63409439D01*
X98996012Y-63400000D01*
X101600000Y-63400000D01*
X102600000Y-62400000D01*
X102600000Y-58851362D01*
X102619685Y-58784323D01*
X102636319Y-58763681D01*
X103363681Y-58036319D01*
X103425004Y-58002834D01*
X103451362Y-58000000D01*
X108548638Y-58000000D01*
X108615677Y-58019685D01*
X108636319Y-58036319D01*
X110800000Y-60200000D01*
X112219486Y-60200000D01*
X112286525Y-60219685D01*
X112288377Y-60220898D01*
X112420814Y-60309390D01*
X112420827Y-60309397D01*
X112566498Y-60369735D01*
X112566503Y-60369737D01*
X112721153Y-60400499D01*
X112721156Y-60400500D01*
X112721158Y-60400500D01*
X112878844Y-60400500D01*
X112878845Y-60400499D01*
X113033497Y-60369737D01*
X113179179Y-60309394D01*
X113179185Y-60309390D01*
X113311623Y-60220898D01*
X113378300Y-60200020D01*
X113380514Y-60200000D01*
X116600000Y-60200000D01*
X117600000Y-59200000D01*
X117600000Y-53051362D01*
X117619685Y-52984323D01*
X117636319Y-52963681D01*
X118363681Y-52236319D01*
X118425004Y-52202834D01*
X118451362Y-52200000D01*
X120748638Y-52200000D01*
X120815677Y-52219685D01*
G37*
%TD.AperFunction*%
%TD*%
M02*
