%TF.GenerationSoftware,KiCad,Pcbnew,9.0.7*%
%TF.CreationDate,2026-03-17T19:30:54-04:00*%
%TF.ProjectId,gps-seven-seg-clock-v2,6770732d-7365-4766-956e-2d7365672d63,rev?*%
%TF.SameCoordinates,Original*%
%TF.FileFunction,Copper,L4,Bot*%
%TF.FilePolarity,Positive*%
%FSLAX46Y46*%
G04 Gerber Fmt 4.6, Leading zero omitted, Abs format (unit mm)*
G04 Created by KiCad (PCBNEW 9.0.7) date 2026-03-17 19:30:54*
%MOMM*%
%LPD*%
G01*
G04 APERTURE LIST*
%TA.AperFunction,ComponentPad*%
%ADD10C,2.000000*%
%TD*%
%TA.AperFunction,ComponentPad*%
%ADD11C,0.600000*%
%TD*%
%TA.AperFunction,ComponentPad*%
%ADD12R,1.700000X1.700000*%
%TD*%
%TA.AperFunction,ComponentPad*%
%ADD13C,1.700000*%
%TD*%
%TA.AperFunction,ComponentPad*%
%ADD14C,1.524000*%
%TD*%
%TA.AperFunction,ViaPad*%
%ADD15C,0.600000*%
%TD*%
%TA.AperFunction,Conductor*%
%ADD16C,0.200000*%
%TD*%
%TA.AperFunction,Conductor*%
%ADD17C,0.500000*%
%TD*%
%TA.AperFunction,Conductor*%
%ADD18C,0.400000*%
%TD*%
G04 APERTURE END LIST*
D10*
%TO.P,TP4,1,1*%
%TO.N,+5V*%
X176530000Y-143510000D03*
%TD*%
D11*
%TO.P,TP10,1,1*%
%TO.N,+3.3V*%
X212376000Y-145050000D03*
X212376000Y-146050000D03*
X212376000Y-147050000D03*
X212876000Y-145550000D03*
X212876000Y-146550000D03*
X213376000Y-145050000D03*
X213376000Y-146050000D03*
X213376000Y-147050000D03*
X213861900Y-146548281D03*
X213876000Y-145550000D03*
X214376000Y-145050000D03*
X214376000Y-146050000D03*
X214376000Y-147050000D03*
X214876000Y-145550000D03*
X214876000Y-146550000D03*
X215376000Y-145050000D03*
X215376000Y-146050000D03*
X215376000Y-147050000D03*
X215876000Y-145550000D03*
X215876000Y-146550000D03*
X216376000Y-145050000D03*
X216376000Y-146050000D03*
X216376000Y-147050000D03*
%TD*%
D12*
%TO.P,J2,1,Pin_1*%
%TO.N,GND*%
X205740000Y-76708000D03*
D13*
%TO.P,J2,2,Pin_2*%
X205740000Y-79248000D03*
%TO.P,J2,3,Pin_3*%
X205740000Y-81788000D03*
%TO.P,J2,4,Pin_4*%
X205740000Y-84328000D03*
%TO.P,J2,5,Pin_5*%
X205740000Y-86868000D03*
%TO.P,J2,6,Pin_6*%
X205740000Y-89408000D03*
%TD*%
D11*
%TO.P,TP1,1,1*%
%TO.N,VDD*%
X145955000Y-117745000D03*
X145955000Y-118745000D03*
X145955000Y-119745000D03*
X146455000Y-118245000D03*
X146455000Y-119245000D03*
X146955000Y-117745000D03*
X146955000Y-118745000D03*
X146955000Y-119745000D03*
X147440900Y-119243281D03*
X147455000Y-118245000D03*
X147955000Y-117745000D03*
X147955000Y-118745000D03*
X147955000Y-119745000D03*
X148455000Y-118245000D03*
X148455000Y-119245000D03*
X148955000Y-117745000D03*
X148955000Y-118745000D03*
X148955000Y-119745000D03*
X149455000Y-118245000D03*
X149455000Y-119245000D03*
X149955000Y-117745000D03*
X149955000Y-118745000D03*
X149955000Y-119745000D03*
%TD*%
%TO.P,TP7,1,1*%
%TO.N,GND*%
X218472000Y-65294000D03*
X218472000Y-66294000D03*
X218472000Y-67294000D03*
X218972000Y-65794000D03*
X218972000Y-66794000D03*
X219472000Y-65294000D03*
X219472000Y-66294000D03*
X219472000Y-67294000D03*
X219957900Y-66792281D03*
X219972000Y-65794000D03*
X220472000Y-65294000D03*
X220472000Y-66294000D03*
X220472000Y-67294000D03*
X220972000Y-65794000D03*
X220972000Y-66794000D03*
X221472000Y-65294000D03*
X221472000Y-66294000D03*
X221472000Y-67294000D03*
X221972000Y-65794000D03*
X221972000Y-66794000D03*
X222472000Y-65294000D03*
X222472000Y-66294000D03*
X222472000Y-67294000D03*
%TD*%
%TO.P,TP6,1,1*%
%TO.N,GND*%
X157385000Y-124095000D03*
X157385000Y-125095000D03*
X157385000Y-126095000D03*
X157885000Y-124595000D03*
X157885000Y-125595000D03*
X158385000Y-124095000D03*
X158385000Y-125095000D03*
X158385000Y-126095000D03*
X158870900Y-125593281D03*
X158885000Y-124595000D03*
X159385000Y-124095000D03*
X159385000Y-125095000D03*
X159385000Y-126095000D03*
X159885000Y-124595000D03*
X159885000Y-125595000D03*
X160385000Y-124095000D03*
X160385000Y-125095000D03*
X160385000Y-126095000D03*
X160885000Y-124595000D03*
X160885000Y-125595000D03*
X161385000Y-124095000D03*
X161385000Y-125095000D03*
X161385000Y-126095000D03*
%TD*%
D14*
%TO.P,U2,1,+3.3V*%
%TO.N,+3.3V*%
X207645000Y-141605000D03*
%TO.P,U2,2,GND*%
%TO.N,GND*%
X207645000Y-139065000D03*
%TO.P,U2,3,GPIO15*%
%TO.N,unconnected-(U2-GPIO15-Pad3)*%
X207645000Y-136525000D03*
%TO.P,U2,4,GPIO2*%
%TO.N,unconnected-(U2-GPIO2-Pad4)*%
X207645000Y-133985000D03*
%TO.P,U2,5,GPIO4*%
%TO.N,Net-(U2-GPIO4)*%
X207645000Y-131445000D03*
%TO.P,U2,6,GPIO16*%
%TO.N,/GPS_TXD*%
X207645000Y-128905000D03*
%TO.P,U2,7,GPIO17*%
%TO.N,/GPS_RXD*%
X207645000Y-126365000D03*
%TO.P,U2,8,GPIO5*%
%TO.N,/1PPS*%
X207645000Y-123825000D03*
%TO.P,U2,9,GPIO18*%
%TO.N,unconnected-(U2-GPIO18-Pad9)*%
X207645000Y-121285000D03*
%TO.P,U2,10,GPIO19*%
%TO.N,unconnected-(U2-GPIO19-Pad10)*%
X207645000Y-118745000D03*
%TO.P,U2,11,GPIO21*%
%TO.N,/SDA*%
X207645000Y-116205000D03*
%TO.P,U2,12,GPIO3*%
%TO.N,unconnected-(U2-GPIO3-Pad12)*%
X207645000Y-113665000D03*
%TO.P,U2,13,GPIO1*%
%TO.N,unconnected-(U2-GPIO1-Pad13)*%
X207645000Y-111125000D03*
%TO.P,U2,14,GPIO22*%
%TO.N,/SCL*%
X207645000Y-108585000D03*
%TO.P,U2,15,GPIO23*%
%TO.N,unconnected-(U2-GPIO23-Pad15)*%
X207645000Y-106045000D03*
%TO.P,U2,16,EN*%
%TO.N,unconnected-(U2-EN-Pad16)*%
X182245000Y-106045000D03*
%TO.P,U2,17,GPIO36*%
%TO.N,unconnected-(U2-GPIO36-Pad17)*%
X182245000Y-108585000D03*
%TO.P,U2,18,GPIO39*%
%TO.N,unconnected-(U2-GPIO39-Pad18)*%
X182245000Y-111125000D03*
%TO.P,U2,19,GPIO34*%
%TO.N,unconnected-(U2-GPIO34-Pad19)*%
X182245000Y-113665000D03*
%TO.P,U2,20,GPIO35*%
%TO.N,unconnected-(U2-GPIO35-Pad20)*%
X182245000Y-116205000D03*
%TO.P,U2,21,GPIO32*%
%TO.N,/ADC0*%
X182245000Y-118745000D03*
%TO.P,U2,22,GPIO33*%
%TO.N,/ADC1*%
X182245000Y-121285000D03*
%TO.P,U2,23,GPIO25*%
%TO.N,/DAC*%
X182245000Y-123825000D03*
%TO.P,U2,24,GPIO26*%
%TO.N,/BOOST_SHDN_n*%
X182245000Y-126365000D03*
%TO.P,U2,25,GPIO27*%
%TO.N,/COLONS*%
X182245000Y-128905000D03*
%TO.P,U2,26,GPIO14*%
%TO.N,unconnected-(U2-GPIO14-Pad26)*%
X182245000Y-131445000D03*
%TO.P,U2,27,GPIO12*%
%TO.N,unconnected-(U2-GPIO12-Pad27)*%
X182245000Y-133985000D03*
%TO.P,U2,28,GPIO13*%
%TO.N,unconnected-(U2-GPIO13-Pad28)*%
X182245000Y-136525000D03*
%TO.P,U2,29,GND*%
%TO.N,GND*%
X182245000Y-139065000D03*
%TO.P,U2,30,VIN*%
%TO.N,+5V*%
X182245000Y-141605000D03*
%TD*%
D11*
%TO.P,TP15,1,1*%
%TO.N,GND*%
X132569095Y-129341089D03*
X132569095Y-130341089D03*
X132569095Y-131341089D03*
X133069095Y-129841089D03*
X133069095Y-130841089D03*
X133569095Y-129341089D03*
X133569095Y-130341089D03*
X133569095Y-131341089D03*
X134054995Y-130839370D03*
X134069095Y-129841089D03*
X134569095Y-129341089D03*
X134569095Y-130341089D03*
X134569095Y-131341089D03*
X135069095Y-129841089D03*
X135069095Y-130841089D03*
X135569095Y-129341089D03*
X135569095Y-130341089D03*
X135569095Y-131341089D03*
X136069095Y-129841089D03*
X136069095Y-130841089D03*
X136569095Y-129341089D03*
X136569095Y-130341089D03*
X136569095Y-131341089D03*
%TD*%
%TO.P,TP17,1,1*%
%TO.N,GND*%
X167291000Y-84598000D03*
X167291000Y-85598000D03*
X167291000Y-86598000D03*
X167791000Y-85098000D03*
X167791000Y-86098000D03*
X168291000Y-84598000D03*
X168291000Y-85598000D03*
X168291000Y-86598000D03*
X168776900Y-86096281D03*
X168791000Y-85098000D03*
X169291000Y-84598000D03*
X169291000Y-85598000D03*
X169291000Y-86598000D03*
X169791000Y-85098000D03*
X169791000Y-86098000D03*
X170291000Y-84598000D03*
X170291000Y-85598000D03*
X170291000Y-86598000D03*
X170791000Y-85098000D03*
X170791000Y-86098000D03*
X171291000Y-84598000D03*
X171291000Y-85598000D03*
X171291000Y-86598000D03*
%TD*%
%TO.P,TP16,1,1*%
%TO.N,GND*%
X212376000Y-133874000D03*
X212376000Y-134874000D03*
X212376000Y-135874000D03*
X212876000Y-134374000D03*
X212876000Y-135374000D03*
X213376000Y-133874000D03*
X213376000Y-134874000D03*
X213376000Y-135874000D03*
X213861900Y-135372281D03*
X213876000Y-134374000D03*
X214376000Y-133874000D03*
X214376000Y-134874000D03*
X214376000Y-135874000D03*
X214876000Y-134374000D03*
X214876000Y-135374000D03*
X215376000Y-133874000D03*
X215376000Y-134874000D03*
X215376000Y-135874000D03*
X215876000Y-134374000D03*
X215876000Y-135374000D03*
X216376000Y-133874000D03*
X216376000Y-134874000D03*
X216376000Y-135874000D03*
%TD*%
D12*
%TO.P,J1,1,Pin_1*%
%TO.N,/1PPS*%
X176530000Y-89408000D03*
D13*
%TO.P,J1,2,Pin_2*%
%TO.N,GND*%
X176530000Y-86868000D03*
%TO.P,J1,3,Pin_3*%
%TO.N,/GPS_TXD*%
X176530000Y-84328000D03*
%TO.P,J1,4,Pin_4*%
%TO.N,/GPS_RXD*%
X176530000Y-81788000D03*
%TO.P,J1,5,Pin_5*%
%TO.N,+3.3V*%
X176530000Y-79248000D03*
%TO.P,J1,6,Pin_6*%
%TO.N,/GPS_RST*%
X176530000Y-76708000D03*
%TD*%
D11*
%TO.P,TP2,1,1*%
%TO.N,+5V*%
X170085000Y-147590000D03*
X170085000Y-148590000D03*
X170085000Y-149590000D03*
X170585000Y-148090000D03*
X170585000Y-149090000D03*
X171085000Y-147590000D03*
X171085000Y-148590000D03*
X171085000Y-149590000D03*
X171570900Y-149088281D03*
X171585000Y-148090000D03*
X172085000Y-147590000D03*
X172085000Y-148590000D03*
X172085000Y-149590000D03*
X172585000Y-148090000D03*
X172585000Y-149090000D03*
X173085000Y-147590000D03*
X173085000Y-148590000D03*
X173085000Y-149590000D03*
X173585000Y-148090000D03*
X173585000Y-149090000D03*
X174085000Y-147590000D03*
X174085000Y-148590000D03*
X174085000Y-149590000D03*
%TD*%
D15*
%TO.N,+3.3V*%
X177292000Y-109220000D03*
X159258000Y-82778600D03*
X222377000Y-74422000D03*
X161309000Y-82778600D03*
X150520400Y-79883000D03*
X205714600Y-57962800D03*
X150480000Y-73660000D03*
X154940000Y-97390000D03*
X203200000Y-57962800D03*
%TO.N,GND*%
X158496000Y-96774000D03*
X176784000Y-64008000D03*
X176022000Y-66040000D03*
X175260000Y-66548000D03*
X139700000Y-105664000D03*
X140208000Y-106426000D03*
X140716000Y-91440000D03*
X146278600Y-98348800D03*
X176022000Y-64516000D03*
X176784000Y-64770000D03*
X160832800Y-86334600D03*
X191770000Y-66548000D03*
X215392000Y-99314000D03*
X141224000Y-89916000D03*
X214122000Y-98552000D03*
X176022000Y-65278000D03*
X213868000Y-115824000D03*
X160324800Y-74218800D03*
X215138000Y-116586000D03*
X175260000Y-65786000D03*
X215138000Y-100076000D03*
X154025600Y-74295000D03*
X192532000Y-66040000D03*
X214376000Y-100076000D03*
X193294000Y-64008000D03*
X215900000Y-116586000D03*
X140716000Y-107188000D03*
X214122000Y-115062000D03*
X140208000Y-90678000D03*
X165735000Y-107810000D03*
X175260000Y-65024000D03*
X191770000Y-65024000D03*
X140970000Y-106426000D03*
X142240000Y-91440000D03*
X168542000Y-112268000D03*
X141478000Y-107188000D03*
X176784000Y-65532000D03*
X213360000Y-115062000D03*
X193294000Y-64770000D03*
X141478000Y-91440000D03*
X192532000Y-64516000D03*
X213360000Y-98552000D03*
X214884000Y-115062000D03*
X213512400Y-76911200D03*
X141732000Y-90678000D03*
X139700000Y-89916000D03*
X214630000Y-115824000D03*
X193294000Y-65532000D03*
X214884000Y-98552000D03*
X215900000Y-100076000D03*
X192532000Y-65278000D03*
X141224000Y-105664000D03*
X140462000Y-89916000D03*
X154762200Y-99441000D03*
X162052000Y-116078000D03*
X140970000Y-90678000D03*
X214630000Y-99314000D03*
X169164000Y-110998000D03*
X160782000Y-115570000D03*
X215392000Y-115824000D03*
X146304000Y-104648000D03*
X177292000Y-106680000D03*
X214376000Y-116586000D03*
X150520400Y-61036200D03*
X213868000Y-99314000D03*
X191770000Y-65786000D03*
X213842600Y-82702400D03*
X140462000Y-105664000D03*
X141732000Y-106426000D03*
X222173800Y-77647800D03*
X225399600Y-74396600D03*
X203200000Y-61735000D03*
X142240000Y-107188000D03*
%TO.N,+5V*%
X160020000Y-132969000D03*
X167640000Y-118618000D03*
%TO.N,VDD*%
X133858000Y-106680000D03*
X192278000Y-59690000D03*
X133858000Y-90932000D03*
X221742000Y-115570000D03*
X193040000Y-58674000D03*
X135128000Y-90170000D03*
X175768000Y-58928000D03*
X192278000Y-58166000D03*
X191516000Y-57912000D03*
X220980000Y-115570000D03*
X135128000Y-91694000D03*
X134366000Y-90170000D03*
X135128000Y-105918000D03*
X135382000Y-90932000D03*
X220218000Y-115570000D03*
X133604000Y-90170000D03*
X134366000Y-105918000D03*
X175768000Y-58166000D03*
X133604000Y-107442000D03*
X221996000Y-116332000D03*
X175006000Y-59436000D03*
X221996000Y-99822000D03*
X135382000Y-106680000D03*
X175006000Y-57912000D03*
X220472000Y-98298000D03*
X176530000Y-58674000D03*
X191516000Y-58674000D03*
X176530000Y-59436000D03*
X220472000Y-116332000D03*
X193040000Y-59436000D03*
X135128000Y-107442000D03*
X134366000Y-107442000D03*
X221234000Y-116332000D03*
X221234000Y-98298000D03*
X220980000Y-99060000D03*
X176530000Y-57912000D03*
X134620000Y-106680000D03*
X175006000Y-58674000D03*
X220472000Y-99822000D03*
X175768000Y-59690000D03*
X221996000Y-114808000D03*
X134366000Y-91694000D03*
X221234000Y-99822000D03*
X221996000Y-98298000D03*
X156845000Y-64897000D03*
X193040000Y-57912000D03*
X133604000Y-105918000D03*
X220472000Y-114808000D03*
X221234000Y-114808000D03*
X133604000Y-91694000D03*
X154305000Y-64846200D03*
X134620000Y-90932000D03*
X192278000Y-58928000D03*
X220218000Y-99060000D03*
X221742000Y-99060000D03*
X191516000Y-59436000D03*
%TO.N,/ISEN*%
X165354000Y-114046000D03*
X156210000Y-131572000D03*
%TO.N,/SCL*%
X155798402Y-98983997D03*
X223139000Y-77089000D03*
X146685000Y-79883000D03*
X148971000Y-78740000D03*
%TO.N,/SDA*%
X146939000Y-73660000D03*
X156210000Y-98298000D03*
X223774000Y-76454000D03*
%TO.N,/GPS_RST*%
X215138000Y-131445000D03*
%TO.N,/1PPS*%
X192278000Y-122428000D03*
%TO.N,/GATE*%
X162560000Y-120650000D03*
X150114000Y-133350000D03*
%TO.N,/DAC*%
X160020000Y-98806000D03*
%TO.N,/FA{slash}SD*%
X163830000Y-120650000D03*
X177038000Y-113030000D03*
%TO.N,/BOOST_SHDN_n*%
X169164000Y-107670600D03*
%TO.N,/COLONS*%
X143154400Y-61569600D03*
%TD*%
D16*
%TO.N,+3.3V*%
X177292000Y-109220000D02*
X178562000Y-107950000D01*
X224663000Y-132969000D02*
X216662000Y-140970000D01*
X223139000Y-74422000D02*
X224663000Y-75946000D01*
X154940000Y-97390000D02*
X173209000Y-97390000D01*
X222377000Y-74422000D02*
X222173800Y-74422000D01*
X161309000Y-82778600D02*
X153416000Y-82778600D01*
X224663000Y-75946000D02*
X224663000Y-132969000D01*
X178562000Y-106299000D02*
X178562000Y-101600000D01*
X178562000Y-107950000D02*
X178562000Y-106299000D01*
X150520400Y-73700400D02*
X150480000Y-73660000D01*
X150520400Y-79883000D02*
X150520400Y-73700400D01*
X173209000Y-97390000D02*
X173228000Y-97409000D01*
X222377000Y-74422000D02*
X223139000Y-74422000D01*
X161309000Y-82778600D02*
X173126400Y-82778600D01*
X222173800Y-74422000D02*
X205714600Y-57962800D01*
X153416000Y-82778600D02*
X150520400Y-79883000D01*
X203200000Y-57962800D02*
X205714600Y-57962800D01*
X173126400Y-82778600D02*
X173228000Y-82677000D01*
%TO.N,GND*%
X164084000Y-112268000D02*
X160782000Y-115570000D01*
X168542000Y-112268000D02*
X164084000Y-112268000D01*
D17*
%TO.N,+5V*%
X167640000Y-118618000D02*
X167640000Y-125349000D01*
X167640000Y-125349000D02*
X160020000Y-132969000D01*
D16*
%TO.N,/ISEN*%
X159385000Y-131572000D02*
X165354000Y-125603000D01*
X165354000Y-125603000D02*
X165354000Y-114046000D01*
X156210000Y-131572000D02*
X159385000Y-131572000D01*
%TO.N,/SCL*%
X146685000Y-90678000D02*
X154706000Y-98699000D01*
X148209000Y-73406000D02*
X148209000Y-77978000D01*
X211328000Y-104902000D02*
X207645000Y-108585000D01*
X154706000Y-98699000D02*
X155513405Y-98699000D01*
X214249000Y-68580000D02*
X153035000Y-68580000D01*
X223139000Y-77089000D02*
X223139000Y-79756000D01*
X155513405Y-98699000D02*
X155798402Y-98983997D01*
X146685000Y-79883000D02*
X146685000Y-90678000D01*
X153035000Y-68580000D02*
X148209000Y-73406000D01*
X222758000Y-76708000D02*
X222377000Y-76708000D01*
X222377000Y-76708000D02*
X214249000Y-68580000D01*
X211328000Y-91567000D02*
X211328000Y-104902000D01*
X223139000Y-79756000D02*
X211328000Y-91567000D01*
X148209000Y-77978000D02*
X148971000Y-78740000D01*
X223139000Y-77089000D02*
X222758000Y-76708000D01*
%TO.N,/SDA*%
X211963000Y-93345000D02*
X211963000Y-92456000D01*
X214122000Y-67818000D02*
X222377000Y-76073000D01*
X146939000Y-73660000D02*
X152781000Y-67818000D01*
X223774000Y-80645000D02*
X223774000Y-76454000D01*
X209804000Y-116205000D02*
X211963000Y-114046000D01*
X223393000Y-76073000D02*
X223774000Y-76454000D01*
X154998057Y-98298000D02*
X147447000Y-90746943D01*
X211963000Y-92456000D02*
X215138000Y-89281000D01*
X156210000Y-98298000D02*
X154998057Y-98298000D01*
X147447000Y-90746943D02*
X147447000Y-74168000D01*
X215138000Y-89281000D02*
X223774000Y-80645000D01*
X207645000Y-116205000D02*
X209804000Y-116205000D01*
X152781000Y-67818000D02*
X214122000Y-67818000D01*
X222377000Y-76073000D02*
X223393000Y-76073000D01*
X211963000Y-93091000D02*
X211963000Y-93345000D01*
X147447000Y-74168000D02*
X146939000Y-73660000D01*
X211963000Y-114046000D02*
X211963000Y-93091000D01*
%TO.N,/GPS_RXD*%
X197866000Y-126365000D02*
X188341000Y-116840000D01*
X188341000Y-116840000D02*
X188341000Y-104140000D01*
X182499000Y-98298000D02*
X179578000Y-98298000D01*
X179578000Y-98298000D02*
X178943000Y-97663000D01*
X207645000Y-126365000D02*
X197866000Y-126365000D01*
X188341000Y-104140000D02*
X182499000Y-98298000D01*
X178943000Y-97663000D02*
X178943000Y-84201000D01*
X178943000Y-84201000D02*
X176530000Y-81788000D01*
%TO.N,/GPS_RST*%
X198628000Y-125095000D02*
X208788000Y-125095000D01*
X189103000Y-115570000D02*
X198628000Y-125095000D01*
X208788000Y-125095000D02*
X215138000Y-131445000D01*
X179578000Y-96901000D02*
X180213000Y-97536000D01*
X182753000Y-97536000D02*
X189103000Y-103886000D01*
X179578000Y-79756000D02*
X179578000Y-96901000D01*
X189103000Y-103886000D02*
X189103000Y-115570000D01*
X176530000Y-76708000D02*
X179578000Y-79756000D01*
X180213000Y-97536000D02*
X182753000Y-97536000D01*
%TO.N,/GPS_TXD*%
X175133000Y-99060000D02*
X175133000Y-85725000D01*
X186944000Y-104521000D02*
X182245000Y-99822000D01*
X175895000Y-99822000D02*
X175133000Y-99060000D01*
X186944000Y-119761000D02*
X186944000Y-104521000D01*
X196088000Y-128905000D02*
X186944000Y-119761000D01*
X207645000Y-128905000D02*
X196088000Y-128905000D01*
X175133000Y-85725000D02*
X176530000Y-84328000D01*
X182245000Y-99822000D02*
X175895000Y-99822000D01*
%TO.N,/1PPS*%
X176530000Y-89408000D02*
X176530000Y-97917000D01*
X187706000Y-117856000D02*
X192278000Y-122428000D01*
X182372000Y-99060000D02*
X187706000Y-104394000D01*
X176530000Y-97917000D02*
X177673000Y-99060000D01*
X177673000Y-99060000D02*
X182372000Y-99060000D01*
X187706000Y-104394000D02*
X187706000Y-117856000D01*
D18*
%TO.N,/GATE*%
X162560000Y-120650000D02*
X159639000Y-120650000D01*
X159639000Y-120650000D02*
X150114000Y-130175000D01*
X150114000Y-130175000D02*
X150114000Y-133350000D01*
D16*
%TO.N,/DAC*%
X178816000Y-120396000D02*
X182245000Y-123825000D01*
X165608000Y-98806000D02*
X178816000Y-112014000D01*
X160020000Y-98806000D02*
X165608000Y-98806000D01*
X178816000Y-112014000D02*
X178816000Y-120396000D01*
%TO.N,/FA{slash}SD*%
X164592000Y-113030000D02*
X177038000Y-113030000D01*
X163830000Y-113792000D02*
X164338000Y-113284000D01*
X163830000Y-120650000D02*
X163830000Y-113792000D01*
X164338000Y-113284000D02*
X164592000Y-113030000D01*
%TO.N,/BOOST_SHDN_n*%
X173304200Y-107670600D02*
X178155600Y-112522000D01*
X178155600Y-122275600D02*
X182245000Y-126365000D01*
X169164000Y-107670600D02*
X173304200Y-107670600D01*
X178155600Y-112522000D02*
X178155600Y-122275600D01*
%TO.N,/COLONS*%
X144018000Y-130429000D02*
X144018000Y-62433200D01*
X158343600Y-136296400D02*
X149885400Y-136296400D01*
X149885400Y-136296400D02*
X144018000Y-130429000D01*
X165735000Y-128905000D02*
X158343600Y-136296400D01*
X144018000Y-62433200D02*
X143154400Y-61569600D01*
X182245000Y-128905000D02*
X165735000Y-128905000D01*
%TD*%
%TA.AperFunction,Conductor*%
%TO.N,+3.3V*%
G36*
X176087027Y-77984068D02*
G01*
X176213757Y-78025246D01*
X176423713Y-78058500D01*
X176423714Y-78058500D01*
X176636286Y-78058500D01*
X176636287Y-78058500D01*
X176846243Y-78025246D01*
X176888523Y-78011507D01*
X176958362Y-78009511D01*
X177014522Y-78041757D01*
X177763681Y-78790916D01*
X177797166Y-78852239D01*
X177800000Y-78878597D01*
X177800000Y-80140000D01*
X177780315Y-80207039D01*
X177727511Y-80252794D01*
X177676000Y-80264000D01*
X175005999Y-80264000D01*
X174498000Y-80771999D01*
X174498000Y-80772000D01*
X174498000Y-99314000D01*
X175514000Y-100330000D01*
X175540657Y-100330000D01*
X175602655Y-100346612D01*
X175663216Y-100381577D01*
X175815943Y-100422501D01*
X175815945Y-100422501D01*
X175981654Y-100422501D01*
X175981670Y-100422500D01*
X181905138Y-100422500D01*
X181972177Y-100442185D01*
X181992819Y-100458819D01*
X186145681Y-104611681D01*
X186179166Y-104673004D01*
X186182000Y-104699362D01*
X186182000Y-119634000D01*
X186308532Y-119763695D01*
X186338546Y-119814659D01*
X186343499Y-119831170D01*
X186343499Y-119840057D01*
X186384423Y-119992785D01*
X186392919Y-120007500D01*
X186400148Y-120020022D01*
X186400149Y-120020023D01*
X186463477Y-120129712D01*
X186463481Y-120129717D01*
X186582349Y-120248585D01*
X186582355Y-120248590D01*
X194750843Y-128417078D01*
X194751919Y-128418167D01*
X206502000Y-140462000D01*
X217046000Y-140462000D01*
X217113039Y-140481685D01*
X217158794Y-140534489D01*
X217170000Y-140586000D01*
X217170000Y-148212000D01*
X217150315Y-148279039D01*
X217097511Y-148324794D01*
X217046000Y-148336000D01*
X206626000Y-148336000D01*
X206558961Y-148316315D01*
X206513206Y-148263511D01*
X206502000Y-148212000D01*
X206502000Y-143002000D01*
X184693813Y-120940229D01*
X184660683Y-120878713D01*
X184658000Y-120853056D01*
X184658000Y-105664000D01*
X180848000Y-101854000D01*
X174803362Y-101854000D01*
X174736323Y-101834315D01*
X174715681Y-101817681D01*
X173010319Y-100112319D01*
X172976834Y-100050996D01*
X172974000Y-100024638D01*
X172974000Y-79299362D01*
X172993685Y-79232323D01*
X173010319Y-79211681D01*
X174207681Y-78014319D01*
X174269004Y-77980834D01*
X174295362Y-77978000D01*
X176048709Y-77978000D01*
X176087027Y-77984068D01*
G37*
%TD.AperFunction*%
%TD*%
M02*
