%TF.GenerationSoftware,KiCad,Pcbnew,9.0.0*%
%TF.CreationDate,2025-06-26T17:33:30-04:00*%
%TF.ProjectId,gps-seven-seg-clock,6770732d-7365-4766-956e-2d7365672d63,rev?*%
%TF.SameCoordinates,Original*%
%TF.FileFunction,Copper,L4,Bot*%
%TF.FilePolarity,Positive*%
%FSLAX46Y46*%
G04 Gerber Fmt 4.6, Leading zero omitted, Abs format (unit mm)*
G04 Created by KiCad (PCBNEW 9.0.0) date 2025-06-26 17:33:30*
%MOMM*%
%LPD*%
G01*
G04 APERTURE LIST*
G04 Aperture macros list*
%AMRoundRect*
0 Rectangle with rounded corners*
0 $1 Rounding radius*
0 $2 $3 $4 $5 $6 $7 $8 $9 X,Y pos of 4 corners*
0 Add a 4 corners polygon primitive as box body*
4,1,4,$2,$3,$4,$5,$6,$7,$8,$9,$2,$3,0*
0 Add four circle primitives for the rounded corners*
1,1,$1+$1,$2,$3*
1,1,$1+$1,$4,$5*
1,1,$1+$1,$6,$7*
1,1,$1+$1,$8,$9*
0 Add four rect primitives between the rounded corners*
20,1,$1+$1,$2,$3,$4,$5,0*
20,1,$1+$1,$4,$5,$6,$7,0*
20,1,$1+$1,$6,$7,$8,$9,0*
20,1,$1+$1,$8,$9,$2,$3,0*%
G04 Aperture macros list end*
%TA.AperFunction,ComponentPad*%
%ADD10C,0.600000*%
%TD*%
%TA.AperFunction,ComponentPad*%
%ADD11C,1.400000*%
%TD*%
%TA.AperFunction,ComponentPad*%
%ADD12RoundRect,0.770000X0.980000X0.980000X-0.980000X0.980000X-0.980000X-0.980000X0.980000X-0.980000X0*%
%TD*%
%TA.AperFunction,ComponentPad*%
%ADD13C,3.500000*%
%TD*%
%TA.AperFunction,ComponentPad*%
%ADD14R,1.350000X1.350000*%
%TD*%
%TA.AperFunction,ComponentPad*%
%ADD15O,1.350000X1.350000*%
%TD*%
%TA.AperFunction,SMDPad,CuDef*%
%ADD16R,1.500000X5.080000*%
%TD*%
%TA.AperFunction,ViaPad*%
%ADD17C,0.600000*%
%TD*%
%TA.AperFunction,Conductor*%
%ADD18C,0.200000*%
%TD*%
G04 APERTURE END LIST*
D10*
%TO.P,TP4,1,1*%
%TO.N,+12V*%
X104000000Y-59600000D03*
X104000000Y-60600000D03*
X104000000Y-61600000D03*
X104500000Y-60100000D03*
X104500000Y-61100000D03*
X105000000Y-59600000D03*
X105000000Y-60600000D03*
X105000000Y-61600000D03*
X105485900Y-61098281D03*
X105500000Y-60100000D03*
X106000000Y-59600000D03*
X106000000Y-60600000D03*
X106000000Y-61600000D03*
X106500000Y-60100000D03*
X106500000Y-61100000D03*
X107000000Y-59600000D03*
X107000000Y-60600000D03*
X107000000Y-61600000D03*
X107500000Y-60100000D03*
X107500000Y-61100000D03*
X108000000Y-59600000D03*
X108000000Y-60600000D03*
X108000000Y-61600000D03*
%TD*%
%TO.P,TP3,1,1*%
%TO.N,+3.3V*%
X104000000Y-71200000D03*
X104000000Y-72200000D03*
X104000000Y-73200000D03*
X104500000Y-71700000D03*
X104500000Y-72700000D03*
X105000000Y-71200000D03*
X105000000Y-72200000D03*
X105000000Y-73200000D03*
X105485900Y-72698281D03*
X105500000Y-71700000D03*
X106000000Y-71200000D03*
X106000000Y-72200000D03*
X106000000Y-73200000D03*
X106500000Y-71700000D03*
X106500000Y-72700000D03*
X107000000Y-71200000D03*
X107000000Y-72200000D03*
X107000000Y-73200000D03*
X107500000Y-71700000D03*
X107500000Y-72700000D03*
X108000000Y-71200000D03*
X108000000Y-72200000D03*
X108000000Y-73200000D03*
%TD*%
%TO.P,TP2,1,1*%
%TO.N,GND*%
X104000000Y-53000000D03*
X104000000Y-54000000D03*
X104000000Y-55000000D03*
X104500000Y-53500000D03*
X104500000Y-54500000D03*
X105000000Y-53000000D03*
X105000000Y-54000000D03*
X105000000Y-55000000D03*
X105485900Y-54498281D03*
X105500000Y-53500000D03*
X106000000Y-53000000D03*
X106000000Y-54000000D03*
X106000000Y-55000000D03*
X106500000Y-53500000D03*
X106500000Y-54500000D03*
X107000000Y-53000000D03*
X107000000Y-54000000D03*
X107000000Y-55000000D03*
X107500000Y-53500000D03*
X107500000Y-54500000D03*
X108000000Y-53000000D03*
X108000000Y-54000000D03*
X108000000Y-55000000D03*
%TD*%
%TO.P,TP1,1,1*%
%TO.N,VDD*%
X118000000Y-71200000D03*
X118000000Y-72200000D03*
X118000000Y-73200000D03*
X118500000Y-71700000D03*
X118500000Y-72700000D03*
X119000000Y-71200000D03*
X119000000Y-72200000D03*
X119000000Y-73200000D03*
X119485900Y-72698281D03*
X119500000Y-71700000D03*
X120000000Y-71200000D03*
X120000000Y-72200000D03*
X120000000Y-73200000D03*
X120500000Y-71700000D03*
X120500000Y-72700000D03*
X121000000Y-71200000D03*
X121000000Y-72200000D03*
X121000000Y-73200000D03*
X121500000Y-71700000D03*
X121500000Y-72700000D03*
X122000000Y-71200000D03*
X122000000Y-72200000D03*
X122000000Y-73200000D03*
%TD*%
D11*
%TO.P,J5,*%
%TO.N,*%
X101100000Y-71325000D03*
X90100000Y-71325000D03*
D12*
%TO.P,J5,1,Pin_1*%
%TO.N,+12V*%
X93100000Y-61325000D03*
D13*
%TO.P,J5,2,Pin_2*%
%TO.N,GND*%
X98100000Y-61325000D03*
%TD*%
D14*
%TO.P,J4,1,Pin_1*%
%TO.N,/MISO*%
X117000000Y-27000000D03*
D15*
%TO.P,J4,2,Pin_2*%
%TO.N,+3.3V*%
X117000000Y-29000000D03*
%TO.P,J4,3,Pin_3*%
%TO.N,/SCK*%
X119000000Y-27000000D03*
%TO.P,J4,4,Pin_4*%
%TO.N,/MOSI*%
X119000000Y-29000000D03*
%TO.P,J4,5,Pin_5*%
%TO.N,/RESET*%
X121000000Y-27000000D03*
%TO.P,J4,6,Pin_6*%
%TO.N,GND*%
X121000000Y-29000000D03*
%TD*%
D16*
%TO.P,J1,2,Ext*%
%TO.N,GND*%
X92750000Y-27762500D03*
X101250000Y-27762500D03*
%TD*%
D17*
%TO.N,+12V*%
X118800000Y-52600000D03*
X118000000Y-53400000D03*
X118000000Y-54800000D03*
X118400000Y-57200000D03*
X118400000Y-56400000D03*
X118800000Y-53400000D03*
X118800000Y-54800000D03*
X120800000Y-55600000D03*
X120000000Y-55600000D03*
X119200000Y-55600000D03*
X118400000Y-55600000D03*
%TO.N,GND*%
X122000000Y-50200000D03*
X161200000Y-53800000D03*
%TO.N,Net-(U10B-+)*%
X128200000Y-54000000D03*
X110400000Y-57600000D03*
%TO.N,GND*%
X127000000Y-51000000D03*
X128200000Y-58400000D03*
X112800000Y-59600000D03*
%TO.N,/SCL*%
X105600000Y-38400000D03*
%TO.N,/SDA*%
X106000000Y-37600000D03*
X90400000Y-36800000D03*
%TO.N,/SCL*%
X90400000Y-35600000D03*
%TO.N,GND*%
X91400000Y-43000000D03*
X91200000Y-42200000D03*
X91400000Y-41200000D03*
X112800000Y-64000000D03*
X116232500Y-66025000D03*
X81200000Y-39000000D03*
%TO.N,Net-(J9-Pin_3)*%
X88000000Y-58800000D03*
%TO.N,/RESET*%
X105600000Y-39800000D03*
%TO.N,/RX*%
X105600000Y-42800000D03*
%TO.N,/TX*%
X105800000Y-41400000D03*
%TO.N,GND*%
X98600000Y-26200000D03*
X98600000Y-27000000D03*
X98600000Y-27800000D03*
X98600000Y-29400000D03*
X98600000Y-30200000D03*
X98600000Y-28600000D03*
X95400000Y-26200000D03*
X95400000Y-27000000D03*
X95400000Y-27800000D03*
X95400000Y-28600000D03*
X95400000Y-29400000D03*
X95400000Y-30200000D03*
X94800000Y-37400000D03*
X95400000Y-36800000D03*
X98400000Y-35600000D03*
X98800000Y-36200000D03*
X98800000Y-37000000D03*
X98800000Y-37800000D03*
X98800000Y-38600000D03*
X98800000Y-39400000D03*
X98800000Y-40200000D03*
X98800000Y-41000000D03*
X98800000Y-41800000D03*
X98600000Y-42600000D03*
X97800000Y-42800000D03*
X97000000Y-42600000D03*
X96400000Y-42000000D03*
X95600000Y-41600000D03*
X94600000Y-41200000D03*
X94800000Y-43400000D03*
X95600000Y-44000000D03*
X96200000Y-44400000D03*
X97000000Y-44800000D03*
X98000000Y-44800000D03*
X99000000Y-44600000D03*
X99800000Y-44400000D03*
X100400000Y-43600000D03*
X100800000Y-42800000D03*
X100800000Y-42000000D03*
X100800000Y-41200000D03*
X100800000Y-40400000D03*
X100800000Y-39600000D03*
X100800000Y-38800000D03*
X100800000Y-38000000D03*
X100800000Y-37200000D03*
X100800000Y-36400000D03*
X100800000Y-35600000D03*
X100400000Y-34800000D03*
X99800000Y-34200000D03*
X99200000Y-33800000D03*
X95400000Y-36000000D03*
X95400000Y-35200000D03*
X95400000Y-34400000D03*
X98400000Y-33600000D03*
X95600000Y-33600000D03*
X96000000Y-32800000D03*
X98000000Y-32800000D03*
X98000000Y-32000000D03*
X96000000Y-32000000D03*
X98000000Y-31200000D03*
X96000000Y-31200000D03*
%TO.N,Net-(J9-Pin_3)*%
X103400000Y-42600000D03*
%TO.N,/TX*%
X93000000Y-47400000D03*
%TO.N,/RX*%
X93000000Y-50000000D03*
%TO.N,/TX*%
X87200000Y-61200000D03*
%TO.N,/RX*%
X87200000Y-59800000D03*
%TO.N,/SDA1*%
X145400000Y-48600000D03*
%TO.N,/SCL1*%
X146200000Y-49600000D03*
%TO.N,/SDA1*%
X129400000Y-48600000D03*
%TO.N,/SCL1*%
X130200000Y-49600000D03*
%TO.N,/SDA1*%
X160630000Y-48030000D03*
%TO.N,/SCL1*%
X161650000Y-49280000D03*
X114400000Y-45800000D03*
%TO.N,/SDA1*%
X110200000Y-46400000D03*
%TO.N,+3.3V*%
X156000000Y-47400000D03*
%TO.N,GND*%
X129600000Y-43400000D03*
%TO.N,+3.3V*%
X128000000Y-44400000D03*
X143600000Y-44400000D03*
X159200000Y-44400000D03*
%TO.N,GND*%
X161000000Y-43400000D03*
X145400000Y-43400000D03*
%TO.N,+3.3V*%
X144800000Y-54200000D03*
%TO.N,GND*%
X145800000Y-54000000D03*
X129800000Y-54400000D03*
%TO.N,VDD*%
X158000000Y-68600000D03*
X159200000Y-68600000D03*
X142200000Y-68600000D03*
X143400000Y-68600000D03*
X127400000Y-68400000D03*
X126200000Y-68400000D03*
%TO.N,GND*%
X167800000Y-53600000D03*
X152200000Y-53800000D03*
X136400000Y-54000000D03*
%TO.N,+3.3V*%
X83400000Y-56000000D03*
%TO.N,GND*%
X83200000Y-62400000D03*
X159350000Y-59600000D03*
X143250000Y-59600000D03*
X127450000Y-59600000D03*
X135300000Y-40900000D03*
X166845000Y-40800000D03*
X150845000Y-40845000D03*
%TO.N,VDD*%
X152000000Y-31800000D03*
X150800000Y-31800000D03*
X135000000Y-31800000D03*
X136200000Y-31800000D03*
X167800000Y-31800000D03*
X166600000Y-31800000D03*
%TO.N,/PPS*%
X102200000Y-45600000D03*
%TO.N,/GPS_RX*%
X84200000Y-49800000D03*
%TO.N,/GPS_TX*%
X84200000Y-47200000D03*
%TO.N,/PPS*%
X85400000Y-38000000D03*
%TO.N,/GPS_RX*%
X85400000Y-36800000D03*
%TO.N,/GPS_TX*%
X85400000Y-35600000D03*
%TO.N,+3.3V*%
X81200000Y-42800000D03*
%TO.N,GND*%
X122600000Y-35000000D03*
X118200000Y-41800000D03*
X118000000Y-45000000D03*
X122800000Y-45000000D03*
%TO.N,+3.3V*%
X111600000Y-47000000D03*
%TO.N,GND*%
X113000000Y-47000000D03*
X113000000Y-31600000D03*
%TO.N,+3.3V*%
X114400000Y-31600000D03*
X110200000Y-31800000D03*
X104487500Y-33287500D03*
%TO.N,GND*%
X107600000Y-28400000D03*
X110200000Y-28400000D03*
X176800000Y-49800000D03*
X174800000Y-46000000D03*
%TO.N,VDD*%
X174600000Y-37600000D03*
X174600000Y-60400000D03*
%TD*%
D18*
%TO.N,Net-(U10B-+)*%
X114000000Y-54000000D02*
X128200000Y-54000000D01*
X110400000Y-57600000D02*
X114000000Y-54000000D01*
%TO.N,/SDA*%
X105400000Y-37600000D02*
X106000000Y-37600000D01*
X102400000Y-40600000D02*
X105400000Y-37600000D01*
X102400000Y-41032900D02*
X102400000Y-40600000D01*
X102399000Y-41033900D02*
X102400000Y-41032900D01*
X102399000Y-43433900D02*
X102399000Y-41033900D01*
X100033900Y-45799000D02*
X102399000Y-43433900D01*
X92199000Y-45799000D02*
X100033900Y-45799000D01*
X90000000Y-37200000D02*
X90000000Y-43600000D01*
X90000000Y-43600000D02*
X92199000Y-45799000D01*
X90400000Y-36800000D02*
X90000000Y-37200000D01*
%TO.N,/SCL*%
X100200000Y-46200000D02*
X102800000Y-43600000D01*
X91400000Y-46200000D02*
X100200000Y-46200000D01*
X89400000Y-44200000D02*
X91400000Y-46200000D01*
X102800000Y-43600000D02*
X102800000Y-41200000D01*
X102800000Y-41200000D02*
X105600000Y-38400000D01*
X89400000Y-36600000D02*
X89400000Y-44200000D01*
X90400000Y-35600000D02*
X89400000Y-36600000D01*
%TO.N,Net-(J9-Pin_3)*%
X88000000Y-57200000D02*
X88000000Y-58800000D01*
X93400000Y-51800000D02*
X88000000Y-57200000D01*
X107000000Y-45800000D02*
X101000000Y-51800000D01*
X107000000Y-41200000D02*
X107000000Y-45800000D01*
X106400000Y-40600000D02*
X107000000Y-41200000D01*
X103400000Y-42600000D02*
X105400000Y-40600000D01*
X105400000Y-40600000D02*
X106400000Y-40600000D01*
X101000000Y-51800000D02*
X93400000Y-51800000D01*
%TO.N,/PPS*%
X86400000Y-43000000D02*
X86400000Y-39000000D01*
X86400000Y-39000000D02*
X85400000Y-38000000D01*
X100400000Y-46800000D02*
X90200000Y-46800000D01*
X101600000Y-45600000D02*
X100400000Y-46800000D01*
X102200000Y-45600000D02*
X101600000Y-45600000D01*
X90200000Y-46800000D02*
X86400000Y-43000000D01*
%TO.N,/RESET*%
X122200000Y-28200000D02*
X121000000Y-27000000D01*
X119800000Y-32800000D02*
X122200000Y-30400000D01*
X112600000Y-32800000D02*
X119800000Y-32800000D01*
X122200000Y-30400000D02*
X122200000Y-28200000D01*
X105600000Y-39800000D02*
X112600000Y-32800000D01*
%TO.N,/RX*%
X100400000Y-50000000D02*
X93000000Y-50000000D01*
X105600000Y-44800000D02*
X100400000Y-50000000D01*
X105600000Y-42800000D02*
X105600000Y-44800000D01*
%TO.N,/TX*%
X104800000Y-42400000D02*
X105800000Y-41400000D01*
X104800000Y-42800000D02*
X104800000Y-42400000D01*
X102000000Y-47400000D02*
X103800000Y-45600000D01*
X104800000Y-44600000D02*
X104800000Y-42800000D01*
X93000000Y-47400000D02*
X102000000Y-47400000D01*
X103800000Y-45600000D02*
X104800000Y-44600000D01*
X86599000Y-53801000D02*
X93000000Y-47400000D01*
X86599000Y-60599000D02*
X86599000Y-53801000D01*
X87200000Y-61200000D02*
X86599000Y-60599000D01*
%TO.N,/RX*%
X87200000Y-55800000D02*
X93000000Y-50000000D01*
X87200000Y-59800000D02*
X87200000Y-55800000D01*
%TO.N,/SDA1*%
X118500000Y-48600000D02*
X129400000Y-48600000D01*
X113400000Y-45000000D02*
X114900000Y-45000000D01*
X114900000Y-45000000D02*
X118500000Y-48600000D01*
X112000000Y-46400000D02*
X113400000Y-45000000D01*
X110200000Y-46400000D02*
X112000000Y-46400000D01*
X160630000Y-48030000D02*
X160060000Y-48600000D01*
X160060000Y-48600000D02*
X145400000Y-48600000D01*
%TO.N,/SCL1*%
X146200000Y-49600000D02*
X161330000Y-49600000D01*
%TO.N,/SDA1*%
X129400000Y-48600000D02*
X145400000Y-48600000D01*
%TO.N,/SCL1*%
X118200000Y-49600000D02*
X130200000Y-49600000D01*
X130200000Y-49600000D02*
X146200000Y-49600000D01*
X161330000Y-49600000D02*
X161650000Y-49280000D01*
X114400000Y-45800000D02*
X118200000Y-49600000D01*
%TO.N,/GPS_RX*%
X84800000Y-37400000D02*
X84800000Y-49200000D01*
X84800000Y-49200000D02*
X84200000Y-49800000D01*
X85400000Y-36800000D02*
X84800000Y-37400000D01*
%TO.N,/GPS_TX*%
X84200000Y-36800000D02*
X85400000Y-35600000D01*
X84200000Y-47200000D02*
X84200000Y-36800000D01*
%TD*%
%TA.AperFunction,Conductor*%
%TO.N,VDD*%
G36*
X179442539Y-25520185D02*
G01*
X179488294Y-25572989D01*
X179499500Y-25624500D01*
X179499500Y-74375500D01*
X179479815Y-74442539D01*
X179427011Y-74488294D01*
X179375500Y-74499500D01*
X117124000Y-74499500D01*
X117056961Y-74479815D01*
X117011206Y-74427011D01*
X117000000Y-74375500D01*
X117000000Y-73915845D01*
X117637706Y-73915845D01*
X117766652Y-73969257D01*
X117766656Y-73969258D01*
X117921202Y-73999999D01*
X117921206Y-74000000D01*
X118078794Y-74000000D01*
X118078797Y-73999999D01*
X118233343Y-73969258D01*
X118233347Y-73969257D01*
X118362293Y-73915845D01*
X118637706Y-73915845D01*
X118766652Y-73969257D01*
X118766656Y-73969258D01*
X118921202Y-73999999D01*
X118921206Y-74000000D01*
X119078794Y-74000000D01*
X119078797Y-73999999D01*
X119233343Y-73969258D01*
X119233347Y-73969257D01*
X119362293Y-73915845D01*
X119637706Y-73915845D01*
X119766652Y-73969257D01*
X119766656Y-73969258D01*
X119921202Y-73999999D01*
X119921206Y-74000000D01*
X120078794Y-74000000D01*
X120078797Y-73999999D01*
X120233343Y-73969258D01*
X120233347Y-73969257D01*
X120362293Y-73915845D01*
X120637706Y-73915845D01*
X120766652Y-73969257D01*
X120766656Y-73969258D01*
X120921202Y-73999999D01*
X120921206Y-74000000D01*
X121078794Y-74000000D01*
X121078797Y-73999999D01*
X121233343Y-73969258D01*
X121233347Y-73969257D01*
X121362293Y-73915845D01*
X121637706Y-73915845D01*
X121766652Y-73969257D01*
X121766656Y-73969258D01*
X121921202Y-73999999D01*
X121921206Y-74000000D01*
X122078794Y-74000000D01*
X122078797Y-73999999D01*
X122233343Y-73969258D01*
X122233347Y-73969257D01*
X122362293Y-73915845D01*
X122000001Y-73553553D01*
X122000000Y-73553553D01*
X121637706Y-73915845D01*
X121362293Y-73915845D01*
X121000001Y-73553553D01*
X121000000Y-73553553D01*
X120637706Y-73915845D01*
X120362293Y-73915845D01*
X120000001Y-73553553D01*
X120000000Y-73553553D01*
X119637706Y-73915845D01*
X119362293Y-73915845D01*
X119000001Y-73553553D01*
X119000000Y-73553553D01*
X118637706Y-73915845D01*
X118362293Y-73915845D01*
X118000001Y-73553553D01*
X118000000Y-73553553D01*
X117637706Y-73915845D01*
X117000000Y-73915845D01*
X117000000Y-73499677D01*
X117019685Y-73432638D01*
X117072489Y-73386883D01*
X117141647Y-73376939D01*
X117205203Y-73405964D01*
X117238561Y-73452224D01*
X117284153Y-73562293D01*
X117646446Y-73200001D01*
X117646446Y-73199999D01*
X117616610Y-73170163D01*
X117850000Y-73170163D01*
X117850000Y-73229837D01*
X117872836Y-73284968D01*
X117915032Y-73327164D01*
X117970163Y-73350000D01*
X118029837Y-73350000D01*
X118084968Y-73327164D01*
X118127164Y-73284968D01*
X118150000Y-73229837D01*
X118150000Y-73200000D01*
X118353553Y-73200000D01*
X118500000Y-73346446D01*
X118646446Y-73200000D01*
X118616609Y-73170163D01*
X118850000Y-73170163D01*
X118850000Y-73229837D01*
X118872836Y-73284968D01*
X118915032Y-73327164D01*
X118970163Y-73350000D01*
X119029837Y-73350000D01*
X119084968Y-73327164D01*
X119127164Y-73284968D01*
X119150000Y-73229837D01*
X119150000Y-73199999D01*
X119353553Y-73199999D01*
X119500000Y-73346445D01*
X119640255Y-73206189D01*
X119604229Y-73170163D01*
X119850000Y-73170163D01*
X119850000Y-73229837D01*
X119872836Y-73284968D01*
X119915032Y-73327164D01*
X119970163Y-73350000D01*
X120029837Y-73350000D01*
X120084968Y-73327164D01*
X120127164Y-73284968D01*
X120150000Y-73229837D01*
X120150000Y-73199999D01*
X120353553Y-73199999D01*
X120500000Y-73346446D01*
X120646446Y-73200000D01*
X120616609Y-73170163D01*
X120850000Y-73170163D01*
X120850000Y-73229837D01*
X120872836Y-73284968D01*
X120915032Y-73327164D01*
X120970163Y-73350000D01*
X121029837Y-73350000D01*
X121084968Y-73327164D01*
X121127164Y-73284968D01*
X121150000Y-73229837D01*
X121150000Y-73199999D01*
X121353553Y-73199999D01*
X121500000Y-73346446D01*
X121646446Y-73200001D01*
X121646446Y-73200000D01*
X121616609Y-73170163D01*
X121850000Y-73170163D01*
X121850000Y-73229837D01*
X121872836Y-73284968D01*
X121915032Y-73327164D01*
X121970163Y-73350000D01*
X122029837Y-73350000D01*
X122084968Y-73327164D01*
X122127164Y-73284968D01*
X122150000Y-73229837D01*
X122150000Y-73199999D01*
X122353553Y-73199999D01*
X122353553Y-73200001D01*
X122715845Y-73562293D01*
X122769257Y-73433347D01*
X122769258Y-73433343D01*
X122799999Y-73278797D01*
X122800000Y-73278794D01*
X122800000Y-73121206D01*
X122799999Y-73121202D01*
X122769258Y-72966656D01*
X122769257Y-72966652D01*
X122715845Y-72837706D01*
X122353553Y-73199999D01*
X122150000Y-73199999D01*
X122150000Y-73170163D01*
X122127164Y-73115032D01*
X122084968Y-73072836D01*
X122029837Y-73050000D01*
X121970163Y-73050000D01*
X121915032Y-73072836D01*
X121872836Y-73115032D01*
X121850000Y-73170163D01*
X121616609Y-73170163D01*
X121500000Y-73053553D01*
X121432348Y-73121206D01*
X121432347Y-73121207D01*
X121353553Y-73199999D01*
X121150000Y-73199999D01*
X121150000Y-73170163D01*
X121127164Y-73115032D01*
X121084968Y-73072836D01*
X121029837Y-73050000D01*
X120970163Y-73050000D01*
X120915032Y-73072836D01*
X120872836Y-73115032D01*
X120850000Y-73170163D01*
X120616609Y-73170163D01*
X120567653Y-73121207D01*
X120500000Y-73053553D01*
X120432348Y-73121206D01*
X120432347Y-73121207D01*
X120353553Y-73199999D01*
X120150000Y-73199999D01*
X120150000Y-73170163D01*
X120127164Y-73115032D01*
X120084968Y-73072836D01*
X120029837Y-73050000D01*
X119970163Y-73050000D01*
X119915032Y-73072836D01*
X119872836Y-73115032D01*
X119850000Y-73170163D01*
X119604229Y-73170163D01*
X119493809Y-73059744D01*
X119353553Y-73199999D01*
X119150000Y-73199999D01*
X119150000Y-73170163D01*
X119127164Y-73115032D01*
X119084968Y-73072836D01*
X119029837Y-73050000D01*
X118970163Y-73050000D01*
X118915032Y-73072836D01*
X118872836Y-73115032D01*
X118850000Y-73170163D01*
X118616609Y-73170163D01*
X118499999Y-73053553D01*
X118353553Y-73200000D01*
X118150000Y-73200000D01*
X118150000Y-73170163D01*
X118127164Y-73115032D01*
X118084968Y-73072836D01*
X118029837Y-73050000D01*
X117970163Y-73050000D01*
X117915032Y-73072836D01*
X117872836Y-73115032D01*
X117850000Y-73170163D01*
X117616610Y-73170163D01*
X117284153Y-72837705D01*
X117238561Y-72947775D01*
X117194720Y-73002178D01*
X117128426Y-73024243D01*
X117060727Y-73006964D01*
X117013116Y-72955827D01*
X117000000Y-72900322D01*
X117000000Y-72699999D01*
X117853553Y-72699999D01*
X118000000Y-72846446D01*
X118146446Y-72700000D01*
X118116609Y-72670163D01*
X118350000Y-72670163D01*
X118350000Y-72729837D01*
X118372836Y-72784968D01*
X118415032Y-72827164D01*
X118470163Y-72850000D01*
X118529837Y-72850000D01*
X118584968Y-72827164D01*
X118627164Y-72784968D01*
X118650000Y-72729837D01*
X118650000Y-72699999D01*
X118853553Y-72699999D01*
X118992089Y-72838535D01*
X119132346Y-72698280D01*
X119102510Y-72668444D01*
X119335900Y-72668444D01*
X119335900Y-72728118D01*
X119358736Y-72783249D01*
X119400932Y-72825445D01*
X119456063Y-72848281D01*
X119515737Y-72848281D01*
X119570868Y-72825445D01*
X119613064Y-72783249D01*
X119635900Y-72728118D01*
X119635900Y-72699999D01*
X119853553Y-72699999D01*
X120000000Y-72846446D01*
X120146446Y-72700000D01*
X120116609Y-72670163D01*
X120350000Y-72670163D01*
X120350000Y-72729837D01*
X120372836Y-72784968D01*
X120415032Y-72827164D01*
X120470163Y-72850000D01*
X120529837Y-72850000D01*
X120584968Y-72827164D01*
X120627164Y-72784968D01*
X120650000Y-72729837D01*
X120650000Y-72699999D01*
X120853553Y-72699999D01*
X121000000Y-72846446D01*
X121146446Y-72700000D01*
X121116609Y-72670163D01*
X121350000Y-72670163D01*
X121350000Y-72729837D01*
X121372836Y-72784968D01*
X121415032Y-72827164D01*
X121470163Y-72850000D01*
X121529837Y-72850000D01*
X121584968Y-72827164D01*
X121627164Y-72784968D01*
X121650000Y-72729837D01*
X121650000Y-72699999D01*
X121853553Y-72699999D01*
X122000000Y-72846446D01*
X122146446Y-72700001D01*
X122146446Y-72699999D01*
X122000000Y-72553553D01*
X121974614Y-72578940D01*
X121974612Y-72578942D01*
X121853553Y-72699999D01*
X121650000Y-72699999D01*
X121650000Y-72670163D01*
X121627164Y-72615032D01*
X121584968Y-72572836D01*
X121529837Y-72550000D01*
X121470163Y-72550000D01*
X121415032Y-72572836D01*
X121372836Y-72615032D01*
X121350000Y-72670163D01*
X121116609Y-72670163D01*
X121025388Y-72578942D01*
X121000000Y-72553553D01*
X120974614Y-72578940D01*
X120974612Y-72578942D01*
X120853553Y-72699999D01*
X120650000Y-72699999D01*
X120650000Y-72670163D01*
X120627164Y-72615032D01*
X120584968Y-72572836D01*
X120529837Y-72550000D01*
X120470163Y-72550000D01*
X120415032Y-72572836D01*
X120372836Y-72615032D01*
X120350000Y-72670163D01*
X120116609Y-72670163D01*
X119999999Y-72553553D01*
X119853553Y-72699999D01*
X119635900Y-72699999D01*
X119635900Y-72668444D01*
X119613064Y-72613313D01*
X119570868Y-72571117D01*
X119515737Y-72548281D01*
X119456063Y-72548281D01*
X119400932Y-72571117D01*
X119358736Y-72613313D01*
X119335900Y-72668444D01*
X119102510Y-72668444D01*
X118993809Y-72559743D01*
X118993809Y-72559744D01*
X118974614Y-72578940D01*
X118974612Y-72578942D01*
X118853553Y-72699999D01*
X118650000Y-72699999D01*
X118650000Y-72670163D01*
X118627164Y-72615032D01*
X118584968Y-72572836D01*
X118529837Y-72550000D01*
X118470163Y-72550000D01*
X118415032Y-72572836D01*
X118372836Y-72615032D01*
X118350000Y-72670163D01*
X118116609Y-72670163D01*
X117999999Y-72553553D01*
X117853553Y-72699999D01*
X117000000Y-72699999D01*
X117000000Y-72499677D01*
X117019685Y-72432638D01*
X117072489Y-72386883D01*
X117141647Y-72376939D01*
X117205203Y-72405964D01*
X117238561Y-72452224D01*
X117284153Y-72562293D01*
X117285490Y-72560957D01*
X117646446Y-72200001D01*
X117646446Y-72199999D01*
X117616610Y-72170163D01*
X117850000Y-72170163D01*
X117850000Y-72229837D01*
X117872836Y-72284968D01*
X117915032Y-72327164D01*
X117970163Y-72350000D01*
X118029837Y-72350000D01*
X118084968Y-72327164D01*
X118127164Y-72284968D01*
X118150000Y-72229837D01*
X118150000Y-72199999D01*
X118353553Y-72199999D01*
X118500000Y-72346446D01*
X118646446Y-72200000D01*
X118616609Y-72170163D01*
X118850000Y-72170163D01*
X118850000Y-72229837D01*
X118872836Y-72284968D01*
X118915032Y-72327164D01*
X118970163Y-72350000D01*
X119029837Y-72350000D01*
X119084968Y-72327164D01*
X119127164Y-72284968D01*
X119150000Y-72229837D01*
X119150000Y-72199999D01*
X119353553Y-72199999D01*
X119492090Y-72338536D01*
X119635958Y-72194667D01*
X119613138Y-72170163D01*
X119850000Y-72170163D01*
X119850000Y-72229837D01*
X119872836Y-72284968D01*
X119915032Y-72327164D01*
X119970163Y-72350000D01*
X120029837Y-72350000D01*
X120084968Y-72327164D01*
X120127164Y-72284968D01*
X120150000Y-72229837D01*
X120150000Y-72199999D01*
X120353553Y-72199999D01*
X120500000Y-72346446D01*
X120646446Y-72200000D01*
X120616609Y-72170163D01*
X120850000Y-72170163D01*
X120850000Y-72229837D01*
X120872836Y-72284968D01*
X120915032Y-72327164D01*
X120970163Y-72350000D01*
X121029837Y-72350000D01*
X121084968Y-72327164D01*
X121127164Y-72284968D01*
X121150000Y-72229837D01*
X121150000Y-72199999D01*
X121353553Y-72199999D01*
X121500000Y-72346446D01*
X121646446Y-72200000D01*
X121616609Y-72170163D01*
X121850000Y-72170163D01*
X121850000Y-72229837D01*
X121872836Y-72284968D01*
X121915032Y-72327164D01*
X121970163Y-72350000D01*
X122029837Y-72350000D01*
X122084968Y-72327164D01*
X122127164Y-72284968D01*
X122150000Y-72229837D01*
X122150000Y-72199999D01*
X122353553Y-72199999D01*
X122353553Y-72200001D01*
X122715845Y-72562293D01*
X122769257Y-72433347D01*
X122769258Y-72433343D01*
X122799999Y-72278797D01*
X122800000Y-72278794D01*
X122800000Y-72121206D01*
X122799999Y-72121202D01*
X122769258Y-71966656D01*
X122769257Y-71966652D01*
X122715845Y-71837706D01*
X122353553Y-72199999D01*
X122150000Y-72199999D01*
X122150000Y-72170163D01*
X122127164Y-72115032D01*
X122084968Y-72072836D01*
X122029837Y-72050000D01*
X121970163Y-72050000D01*
X121915032Y-72072836D01*
X121872836Y-72115032D01*
X121850000Y-72170163D01*
X121616609Y-72170163D01*
X121567653Y-72121207D01*
X121500000Y-72053553D01*
X121432348Y-72121206D01*
X121432347Y-72121207D01*
X121353553Y-72199999D01*
X121150000Y-72199999D01*
X121150000Y-72170163D01*
X121127164Y-72115032D01*
X121084968Y-72072836D01*
X121029837Y-72050000D01*
X120970163Y-72050000D01*
X120915032Y-72072836D01*
X120872836Y-72115032D01*
X120850000Y-72170163D01*
X120616609Y-72170163D01*
X120567653Y-72121207D01*
X120500000Y-72053553D01*
X120432348Y-72121206D01*
X120432347Y-72121207D01*
X120353553Y-72199999D01*
X120150000Y-72199999D01*
X120150000Y-72170163D01*
X120127164Y-72115032D01*
X120084968Y-72072836D01*
X120029837Y-72050000D01*
X119970163Y-72050000D01*
X119915032Y-72072836D01*
X119872836Y-72115032D01*
X119850000Y-72170163D01*
X119613138Y-72170163D01*
X119566095Y-72119649D01*
X119500000Y-72053553D01*
X119432348Y-72121206D01*
X119432347Y-72121207D01*
X119353553Y-72199999D01*
X119150000Y-72199999D01*
X119150000Y-72170163D01*
X119127164Y-72115032D01*
X119084968Y-72072836D01*
X119029837Y-72050000D01*
X118970163Y-72050000D01*
X118915032Y-72072836D01*
X118872836Y-72115032D01*
X118850000Y-72170163D01*
X118616609Y-72170163D01*
X118567653Y-72121207D01*
X118500000Y-72053553D01*
X118432348Y-72121206D01*
X118432347Y-72121207D01*
X118353553Y-72199999D01*
X118150000Y-72199999D01*
X118150000Y-72170163D01*
X118127164Y-72115032D01*
X118084968Y-72072836D01*
X118029837Y-72050000D01*
X117970163Y-72050000D01*
X117915032Y-72072836D01*
X117872836Y-72115032D01*
X117850000Y-72170163D01*
X117616610Y-72170163D01*
X117284153Y-71837705D01*
X117238561Y-71947775D01*
X117194720Y-72002178D01*
X117128426Y-72024243D01*
X117060727Y-72006964D01*
X117013116Y-71955827D01*
X117000000Y-71900322D01*
X117000000Y-71699999D01*
X117853553Y-71699999D01*
X118000000Y-71846446D01*
X118146445Y-71700000D01*
X118146446Y-71699999D01*
X118116610Y-71670163D01*
X118350000Y-71670163D01*
X118350000Y-71729837D01*
X118372836Y-71784968D01*
X118415032Y-71827164D01*
X118470163Y-71850000D01*
X118529837Y-71850000D01*
X118584968Y-71827164D01*
X118627164Y-71784968D01*
X118650000Y-71729837D01*
X118650000Y-71699999D01*
X118853553Y-71699999D01*
X119000000Y-71846446D01*
X119146446Y-71700000D01*
X119116609Y-71670163D01*
X119350000Y-71670163D01*
X119350000Y-71729837D01*
X119372836Y-71784968D01*
X119415032Y-71827164D01*
X119470163Y-71850000D01*
X119529837Y-71850000D01*
X119584968Y-71827164D01*
X119627164Y-71784968D01*
X119650000Y-71729837D01*
X119650000Y-71699999D01*
X119853553Y-71699999D01*
X120000000Y-71846446D01*
X120146446Y-71700000D01*
X120116609Y-71670163D01*
X120350000Y-71670163D01*
X120350000Y-71729837D01*
X120372836Y-71784968D01*
X120415032Y-71827164D01*
X120470163Y-71850000D01*
X120529837Y-71850000D01*
X120584968Y-71827164D01*
X120627164Y-71784968D01*
X120650000Y-71729837D01*
X120650000Y-71699999D01*
X120853553Y-71699999D01*
X121000000Y-71846446D01*
X121146446Y-71700000D01*
X121116609Y-71670163D01*
X121350000Y-71670163D01*
X121350000Y-71729837D01*
X121372836Y-71784968D01*
X121415032Y-71827164D01*
X121470163Y-71850000D01*
X121529837Y-71850000D01*
X121584968Y-71827164D01*
X121627164Y-71784968D01*
X121650000Y-71729837D01*
X121650000Y-71699999D01*
X121853553Y-71699999D01*
X122000000Y-71846446D01*
X122146446Y-71700000D01*
X122000000Y-71553553D01*
X121853553Y-71699999D01*
X121650000Y-71699999D01*
X121650000Y-71670163D01*
X121627164Y-71615032D01*
X121584968Y-71572836D01*
X121529837Y-71550000D01*
X121470163Y-71550000D01*
X121415032Y-71572836D01*
X121372836Y-71615032D01*
X121350000Y-71670163D01*
X121116609Y-71670163D01*
X121025388Y-71578942D01*
X121000000Y-71553553D01*
X120974614Y-71578940D01*
X120974612Y-71578942D01*
X120853553Y-71699999D01*
X120650000Y-71699999D01*
X120650000Y-71670163D01*
X120627164Y-71615032D01*
X120584968Y-71572836D01*
X120529837Y-71550000D01*
X120470163Y-71550000D01*
X120415032Y-71572836D01*
X120372836Y-71615032D01*
X120350000Y-71670163D01*
X120116609Y-71670163D01*
X120025388Y-71578942D01*
X120000000Y-71553553D01*
X119974614Y-71578940D01*
X119974612Y-71578942D01*
X119853553Y-71699999D01*
X119650000Y-71699999D01*
X119650000Y-71670163D01*
X119627164Y-71615032D01*
X119584968Y-71572836D01*
X119529837Y-71550000D01*
X119470163Y-71550000D01*
X119415032Y-71572836D01*
X119372836Y-71615032D01*
X119350000Y-71670163D01*
X119116609Y-71670163D01*
X119025388Y-71578942D01*
X119000000Y-71553553D01*
X118974614Y-71578940D01*
X118974612Y-71578942D01*
X118853553Y-71699999D01*
X118650000Y-71699999D01*
X118650000Y-71670163D01*
X118627164Y-71615032D01*
X118584968Y-71572836D01*
X118529837Y-71550000D01*
X118470163Y-71550000D01*
X118415032Y-71572836D01*
X118372836Y-71615032D01*
X118350000Y-71670163D01*
X118116610Y-71670163D01*
X118000000Y-71553553D01*
X117853553Y-71699999D01*
X117000000Y-71699999D01*
X117000000Y-71499677D01*
X117019685Y-71432638D01*
X117072489Y-71386883D01*
X117141647Y-71376939D01*
X117205203Y-71405964D01*
X117238561Y-71452224D01*
X117284153Y-71562293D01*
X117285490Y-71560957D01*
X117646446Y-71200001D01*
X117646446Y-71199999D01*
X117616610Y-71170163D01*
X117850000Y-71170163D01*
X117850000Y-71229837D01*
X117872836Y-71284968D01*
X117915032Y-71327164D01*
X117970163Y-71350000D01*
X118029837Y-71350000D01*
X118084968Y-71327164D01*
X118127164Y-71284968D01*
X118150000Y-71229837D01*
X118150000Y-71200000D01*
X118353553Y-71200000D01*
X118499998Y-71346446D01*
X118607299Y-71239145D01*
X118627627Y-71181182D01*
X118616608Y-71170163D01*
X118850000Y-71170163D01*
X118850000Y-71229837D01*
X118872836Y-71284968D01*
X118915032Y-71327164D01*
X118970163Y-71350000D01*
X119029837Y-71350000D01*
X119084968Y-71327164D01*
X119127164Y-71284968D01*
X119150000Y-71229837D01*
X119150000Y-71181180D01*
X119372371Y-71181180D01*
X119392703Y-71239149D01*
X119500000Y-71346446D01*
X119607299Y-71239146D01*
X119627627Y-71181182D01*
X119616608Y-71170163D01*
X119850000Y-71170163D01*
X119850000Y-71229837D01*
X119872836Y-71284968D01*
X119915032Y-71327164D01*
X119970163Y-71350000D01*
X120029837Y-71350000D01*
X120084968Y-71327164D01*
X120127164Y-71284968D01*
X120150000Y-71229837D01*
X120150000Y-71181180D01*
X120372371Y-71181180D01*
X120392703Y-71239149D01*
X120500000Y-71346446D01*
X120607299Y-71239146D01*
X120627627Y-71181182D01*
X120616608Y-71170163D01*
X120850000Y-71170163D01*
X120850000Y-71229837D01*
X120872836Y-71284968D01*
X120915032Y-71327164D01*
X120970163Y-71350000D01*
X121029837Y-71350000D01*
X121084968Y-71327164D01*
X121127164Y-71284968D01*
X121150000Y-71229837D01*
X121150000Y-71181180D01*
X121372371Y-71181180D01*
X121392703Y-71239149D01*
X121500000Y-71346446D01*
X121646446Y-71200000D01*
X121616609Y-71170163D01*
X121850000Y-71170163D01*
X121850000Y-71229837D01*
X121872836Y-71284968D01*
X121915032Y-71327164D01*
X121970163Y-71350000D01*
X122029837Y-71350000D01*
X122084968Y-71327164D01*
X122127164Y-71284968D01*
X122150000Y-71229837D01*
X122150000Y-71199999D01*
X122353553Y-71199999D01*
X122353553Y-71200001D01*
X122715845Y-71562293D01*
X122750467Y-71478711D01*
X174749500Y-71478711D01*
X174749500Y-71721288D01*
X174781161Y-71961785D01*
X174843947Y-72196104D01*
X174906221Y-72346446D01*
X174936776Y-72420212D01*
X175058064Y-72630289D01*
X175058066Y-72630292D01*
X175058067Y-72630293D01*
X175205733Y-72822736D01*
X175205739Y-72822743D01*
X175377256Y-72994260D01*
X175377263Y-72994266D01*
X175416330Y-73024243D01*
X175569711Y-73141936D01*
X175779788Y-73263224D01*
X176003900Y-73356054D01*
X176238211Y-73418838D01*
X176418586Y-73442584D01*
X176478711Y-73450500D01*
X176478712Y-73450500D01*
X176721289Y-73450500D01*
X176769388Y-73444167D01*
X176961789Y-73418838D01*
X177196100Y-73356054D01*
X177420212Y-73263224D01*
X177630289Y-73141936D01*
X177822738Y-72994265D01*
X177994265Y-72822738D01*
X178141936Y-72630289D01*
X178263224Y-72420212D01*
X178356054Y-72196100D01*
X178418838Y-71961789D01*
X178450500Y-71721288D01*
X178450500Y-71478712D01*
X178418838Y-71238211D01*
X178356054Y-71003900D01*
X178263224Y-70779788D01*
X178141936Y-70569711D01*
X178035301Y-70430741D01*
X177994266Y-70377263D01*
X177994260Y-70377256D01*
X177822743Y-70205739D01*
X177822736Y-70205733D01*
X177630293Y-70058067D01*
X177630292Y-70058066D01*
X177630289Y-70058064D01*
X177420212Y-69936776D01*
X177420205Y-69936773D01*
X177196104Y-69843947D01*
X176961785Y-69781161D01*
X176721289Y-69749500D01*
X176721288Y-69749500D01*
X176478712Y-69749500D01*
X176478711Y-69749500D01*
X176238214Y-69781161D01*
X176003895Y-69843947D01*
X175779794Y-69936773D01*
X175779785Y-69936777D01*
X175569706Y-70058067D01*
X175377263Y-70205733D01*
X175377256Y-70205739D01*
X175205739Y-70377256D01*
X175205733Y-70377263D01*
X175058067Y-70569706D01*
X174936777Y-70779785D01*
X174936773Y-70779794D01*
X174843947Y-71003895D01*
X174781161Y-71238214D01*
X174749500Y-71478711D01*
X122750467Y-71478711D01*
X122769258Y-71433346D01*
X122769258Y-71433344D01*
X122799999Y-71278797D01*
X122800000Y-71278794D01*
X122800000Y-71121206D01*
X122799999Y-71121202D01*
X122769258Y-70966656D01*
X122769257Y-70966652D01*
X122715845Y-70837706D01*
X122353553Y-71199999D01*
X122150000Y-71199999D01*
X122150000Y-71170163D01*
X122127164Y-71115032D01*
X122084968Y-71072836D01*
X122029837Y-71050000D01*
X121970163Y-71050000D01*
X121915032Y-71072836D01*
X121872836Y-71115032D01*
X121850000Y-71170163D01*
X121616609Y-71170163D01*
X121500000Y-71053553D01*
X121372371Y-71181180D01*
X121150000Y-71181180D01*
X121150000Y-71170163D01*
X121127164Y-71115032D01*
X121084968Y-71072836D01*
X121029837Y-71050000D01*
X120970163Y-71050000D01*
X120915032Y-71072836D01*
X120872836Y-71115032D01*
X120850000Y-71170163D01*
X120616608Y-71170163D01*
X120500000Y-71053553D01*
X120372371Y-71181180D01*
X120150000Y-71181180D01*
X120150000Y-71170163D01*
X120127164Y-71115032D01*
X120084968Y-71072836D01*
X120029837Y-71050000D01*
X119970163Y-71050000D01*
X119915032Y-71072836D01*
X119872836Y-71115032D01*
X119850000Y-71170163D01*
X119616608Y-71170163D01*
X119500000Y-71053553D01*
X119372371Y-71181180D01*
X119150000Y-71181180D01*
X119150000Y-71170163D01*
X119127164Y-71115032D01*
X119084968Y-71072836D01*
X119029837Y-71050000D01*
X118970163Y-71050000D01*
X118915032Y-71072836D01*
X118872836Y-71115032D01*
X118850000Y-71170163D01*
X118616608Y-71170163D01*
X118500000Y-71053553D01*
X118353553Y-71200000D01*
X118150000Y-71200000D01*
X118150000Y-71170163D01*
X118127164Y-71115032D01*
X118084968Y-71072836D01*
X118029837Y-71050000D01*
X117970163Y-71050000D01*
X117915032Y-71072836D01*
X117872836Y-71115032D01*
X117850000Y-71170163D01*
X117616610Y-71170163D01*
X117284153Y-70837705D01*
X117238561Y-70947775D01*
X117194720Y-71002178D01*
X117128426Y-71024243D01*
X117060727Y-71006964D01*
X117013116Y-70955827D01*
X117000000Y-70900322D01*
X117000000Y-70484153D01*
X117637705Y-70484153D01*
X118000000Y-70846446D01*
X118000001Y-70846446D01*
X118362293Y-70484153D01*
X118637705Y-70484153D01*
X119000000Y-70846446D01*
X119000001Y-70846446D01*
X119362293Y-70484153D01*
X119637705Y-70484153D01*
X120000000Y-70846446D01*
X120000001Y-70846446D01*
X120362293Y-70484153D01*
X120637705Y-70484153D01*
X121000000Y-70846446D01*
X121000001Y-70846446D01*
X121362293Y-70484153D01*
X121637705Y-70484153D01*
X122000000Y-70846446D01*
X122000001Y-70846446D01*
X122362293Y-70484153D01*
X122233351Y-70430743D01*
X122233343Y-70430741D01*
X122078797Y-70400000D01*
X121921202Y-70400000D01*
X121766656Y-70430741D01*
X121766648Y-70430743D01*
X121637705Y-70484153D01*
X121362293Y-70484153D01*
X121233351Y-70430743D01*
X121233343Y-70430741D01*
X121078797Y-70400000D01*
X120921202Y-70400000D01*
X120766656Y-70430741D01*
X120766648Y-70430743D01*
X120637705Y-70484153D01*
X120362293Y-70484153D01*
X120233351Y-70430743D01*
X120233343Y-70430741D01*
X120078797Y-70400000D01*
X119921202Y-70400000D01*
X119766656Y-70430741D01*
X119766648Y-70430743D01*
X119637705Y-70484153D01*
X119362293Y-70484153D01*
X119233351Y-70430743D01*
X119233343Y-70430741D01*
X119078797Y-70400000D01*
X118921202Y-70400000D01*
X118766656Y-70430741D01*
X118766648Y-70430743D01*
X118637705Y-70484153D01*
X118362293Y-70484153D01*
X118233351Y-70430743D01*
X118233343Y-70430741D01*
X118078797Y-70400000D01*
X117921202Y-70400000D01*
X117766656Y-70430741D01*
X117766648Y-70430743D01*
X117637705Y-70484153D01*
X117000000Y-70484153D01*
X117000000Y-67524000D01*
X117019685Y-67456961D01*
X117072489Y-67411206D01*
X117124000Y-67400000D01*
X117600024Y-67400000D01*
X122208000Y-67382344D01*
X122400000Y-67381609D01*
X122400000Y-59521153D01*
X126649500Y-59521153D01*
X126649500Y-59678846D01*
X126680261Y-59833489D01*
X126680264Y-59833501D01*
X126740602Y-59979172D01*
X126740609Y-59979185D01*
X126828210Y-60110288D01*
X126828213Y-60110292D01*
X126939707Y-60221786D01*
X126939711Y-60221789D01*
X127070814Y-60309390D01*
X127070827Y-60309397D01*
X127216498Y-60369735D01*
X127216503Y-60369737D01*
X127371153Y-60400499D01*
X127371156Y-60400500D01*
X127371158Y-60400500D01*
X127528844Y-60400500D01*
X127528845Y-60400499D01*
X127683497Y-60369737D01*
X127829179Y-60309394D01*
X127960289Y-60221789D01*
X128071789Y-60110289D01*
X128159394Y-59979179D01*
X128219737Y-59833497D01*
X128250500Y-59678842D01*
X128250500Y-59521158D01*
X128250499Y-59521153D01*
X142449500Y-59521153D01*
X142449500Y-59678846D01*
X142480261Y-59833489D01*
X142480264Y-59833501D01*
X142540602Y-59979172D01*
X142540609Y-59979185D01*
X142628210Y-60110288D01*
X142628213Y-60110292D01*
X142739707Y-60221786D01*
X142739711Y-60221789D01*
X142870814Y-60309390D01*
X142870827Y-60309397D01*
X143016498Y-60369735D01*
X143016503Y-60369737D01*
X143171153Y-60400499D01*
X143171156Y-60400500D01*
X143171158Y-60400500D01*
X143328844Y-60400500D01*
X143328845Y-60400499D01*
X143483497Y-60369737D01*
X143629179Y-60309394D01*
X143760289Y-60221789D01*
X143871789Y-60110289D01*
X143959394Y-59979179D01*
X144019737Y-59833497D01*
X144050500Y-59678842D01*
X144050500Y-59521158D01*
X144050500Y-59521155D01*
X144050499Y-59521153D01*
X158549500Y-59521153D01*
X158549500Y-59678846D01*
X158580261Y-59833489D01*
X158580264Y-59833501D01*
X158640602Y-59979172D01*
X158640609Y-59979185D01*
X158728210Y-60110288D01*
X158728213Y-60110292D01*
X158839707Y-60221786D01*
X158839711Y-60221789D01*
X158970814Y-60309390D01*
X158970827Y-60309397D01*
X159116498Y-60369735D01*
X159116503Y-60369737D01*
X159271153Y-60400499D01*
X159271156Y-60400500D01*
X159271158Y-60400500D01*
X159428844Y-60400500D01*
X159428845Y-60400499D01*
X159583497Y-60369737D01*
X159729179Y-60309394D01*
X159860289Y-60221789D01*
X159971789Y-60110289D01*
X160059394Y-59979179D01*
X160119737Y-59833497D01*
X160150500Y-59678842D01*
X160150500Y-59521158D01*
X160150500Y-59521155D01*
X160150499Y-59521153D01*
X160119738Y-59366510D01*
X160119737Y-59366503D01*
X160119735Y-59366498D01*
X160059397Y-59220827D01*
X160059390Y-59220814D01*
X159971789Y-59089711D01*
X159971786Y-59089707D01*
X159860292Y-58978213D01*
X159860288Y-58978210D01*
X159729185Y-58890609D01*
X159729172Y-58890602D01*
X159583501Y-58830264D01*
X159583489Y-58830261D01*
X159428845Y-58799500D01*
X159428842Y-58799500D01*
X159271158Y-58799500D01*
X159271155Y-58799500D01*
X159116510Y-58830261D01*
X159116498Y-58830264D01*
X158970827Y-58890602D01*
X158970814Y-58890609D01*
X158839711Y-58978210D01*
X158839707Y-58978213D01*
X158728213Y-59089707D01*
X158728210Y-59089711D01*
X158640609Y-59220814D01*
X158640602Y-59220827D01*
X158580264Y-59366498D01*
X158580261Y-59366510D01*
X158549500Y-59521153D01*
X144050499Y-59521153D01*
X144019738Y-59366510D01*
X144019737Y-59366503D01*
X144019735Y-59366498D01*
X143959397Y-59220827D01*
X143959390Y-59220814D01*
X143871789Y-59089711D01*
X143871786Y-59089707D01*
X143760292Y-58978213D01*
X143760288Y-58978210D01*
X143629185Y-58890609D01*
X143629172Y-58890602D01*
X143483501Y-58830264D01*
X143483489Y-58830261D01*
X143328845Y-58799500D01*
X143328842Y-58799500D01*
X143171158Y-58799500D01*
X143171155Y-58799500D01*
X143016510Y-58830261D01*
X143016498Y-58830264D01*
X142870827Y-58890602D01*
X142870814Y-58890609D01*
X142739711Y-58978210D01*
X142739707Y-58978213D01*
X142628213Y-59089707D01*
X142628210Y-59089711D01*
X142540609Y-59220814D01*
X142540602Y-59220827D01*
X142480264Y-59366498D01*
X142480261Y-59366510D01*
X142449500Y-59521153D01*
X128250499Y-59521153D01*
X128219737Y-59366503D01*
X128214067Y-59352815D01*
X128211693Y-59341408D01*
X128213599Y-59317737D01*
X128211060Y-59294129D01*
X128216353Y-59283552D01*
X128217303Y-59271764D01*
X128231703Y-59252882D01*
X128242331Y-59231648D01*
X128252501Y-59225613D01*
X128259674Y-59216208D01*
X128281998Y-59208108D01*
X128302418Y-59195992D01*
X128308900Y-59194521D01*
X128433497Y-59169737D01*
X128579179Y-59109394D01*
X128710289Y-59021789D01*
X128821789Y-58910289D01*
X128909394Y-58779179D01*
X128969737Y-58633497D01*
X129000500Y-58478842D01*
X129000500Y-58321158D01*
X129000500Y-58321155D01*
X129000499Y-58321153D01*
X128969738Y-58166510D01*
X128969737Y-58166503D01*
X128969735Y-58166498D01*
X128909397Y-58020827D01*
X128909390Y-58020814D01*
X128821789Y-57889711D01*
X128821786Y-57889707D01*
X128710292Y-57778213D01*
X128710288Y-57778210D01*
X128579185Y-57690609D01*
X128579172Y-57690602D01*
X128433501Y-57630264D01*
X128433489Y-57630261D01*
X128278845Y-57599500D01*
X128278842Y-57599500D01*
X128121158Y-57599500D01*
X128121155Y-57599500D01*
X127966510Y-57630261D01*
X127966498Y-57630264D01*
X127820827Y-57690602D01*
X127820814Y-57690609D01*
X127689711Y-57778210D01*
X127689707Y-57778213D01*
X127578213Y-57889707D01*
X127578210Y-57889711D01*
X127490609Y-58020814D01*
X127490602Y-58020827D01*
X127430264Y-58166498D01*
X127430261Y-58166510D01*
X127399500Y-58321153D01*
X127399500Y-58478846D01*
X127430261Y-58633489D01*
X127430263Y-58633497D01*
X127431469Y-58636408D01*
X127431646Y-58638055D01*
X127432031Y-58639324D01*
X127431790Y-58639397D01*
X127438938Y-58705877D01*
X127407663Y-58768357D01*
X127347574Y-58804009D01*
X127341100Y-58805478D01*
X127216508Y-58830261D01*
X127216498Y-58830264D01*
X127070827Y-58890602D01*
X127070814Y-58890609D01*
X126939711Y-58978210D01*
X126939707Y-58978213D01*
X126828213Y-59089707D01*
X126828210Y-59089711D01*
X126740609Y-59220814D01*
X126740602Y-59220827D01*
X126680264Y-59366498D01*
X126680261Y-59366510D01*
X126649500Y-59521153D01*
X122400000Y-59521153D01*
X122400000Y-54724500D01*
X122419685Y-54657461D01*
X122472489Y-54611706D01*
X122524000Y-54600500D01*
X127620234Y-54600500D01*
X127687273Y-54620185D01*
X127689125Y-54621398D01*
X127820814Y-54709390D01*
X127820827Y-54709397D01*
X127963582Y-54768527D01*
X127966503Y-54769737D01*
X128116131Y-54799500D01*
X128121153Y-54800499D01*
X128121156Y-54800500D01*
X128121158Y-54800500D01*
X128278844Y-54800500D01*
X128278845Y-54800499D01*
X128433497Y-54769737D01*
X128579179Y-54709394D01*
X128710289Y-54621789D01*
X128811194Y-54520883D01*
X128872515Y-54487400D01*
X128942207Y-54492384D01*
X128998141Y-54534255D01*
X129020491Y-54584374D01*
X129030261Y-54633491D01*
X129030264Y-54633501D01*
X129090602Y-54779172D01*
X129090609Y-54779185D01*
X129178210Y-54910288D01*
X129178213Y-54910292D01*
X129289707Y-55021786D01*
X129289711Y-55021789D01*
X129420814Y-55109390D01*
X129420827Y-55109397D01*
X129566498Y-55169735D01*
X129566503Y-55169737D01*
X129721153Y-55200499D01*
X129721156Y-55200500D01*
X129721158Y-55200500D01*
X129878844Y-55200500D01*
X129878845Y-55200499D01*
X130033497Y-55169737D01*
X130179179Y-55109394D01*
X130310289Y-55021789D01*
X130421789Y-54910289D01*
X130509394Y-54779179D01*
X130569737Y-54633497D01*
X130600500Y-54478842D01*
X130600500Y-54321158D01*
X130600500Y-54321155D01*
X130600499Y-54321153D01*
X130598159Y-54309390D01*
X130569737Y-54166503D01*
X130533427Y-54078842D01*
X130509397Y-54020827D01*
X130509390Y-54020814D01*
X130484763Y-53983957D01*
X130442798Y-53921153D01*
X135599500Y-53921153D01*
X135599500Y-54078846D01*
X135630261Y-54233489D01*
X135630264Y-54233501D01*
X135690602Y-54379172D01*
X135690609Y-54379185D01*
X135778210Y-54510288D01*
X135778213Y-54510292D01*
X135889707Y-54621786D01*
X135889711Y-54621789D01*
X136020814Y-54709390D01*
X136020827Y-54709397D01*
X136163582Y-54768527D01*
X136166503Y-54769737D01*
X136316131Y-54799500D01*
X136321153Y-54800499D01*
X136321156Y-54800500D01*
X136321158Y-54800500D01*
X136478844Y-54800500D01*
X136478845Y-54800499D01*
X136633497Y-54769737D01*
X136779179Y-54709394D01*
X136910289Y-54621789D01*
X137021789Y-54510289D01*
X137109394Y-54379179D01*
X137169737Y-54233497D01*
X137192084Y-54121153D01*
X143999500Y-54121153D01*
X143999500Y-54278846D01*
X144030261Y-54433489D01*
X144030264Y-54433501D01*
X144090602Y-54579172D01*
X144090609Y-54579185D01*
X144178210Y-54710288D01*
X144178213Y-54710292D01*
X144289707Y-54821786D01*
X144289711Y-54821789D01*
X144420814Y-54909390D01*
X144420827Y-54909397D01*
X144566498Y-54969735D01*
X144566503Y-54969737D01*
X144721153Y-55000499D01*
X144721156Y-55000500D01*
X144721158Y-55000500D01*
X144878844Y-55000500D01*
X144878845Y-55000499D01*
X145033497Y-54969737D01*
X145179179Y-54909394D01*
X145310289Y-54821789D01*
X145363551Y-54768527D01*
X145424874Y-54735041D01*
X145494566Y-54740025D01*
X145498677Y-54741642D01*
X145566503Y-54769737D01*
X145566506Y-54769737D01*
X145566511Y-54769739D01*
X145721153Y-54800499D01*
X145721156Y-54800500D01*
X145721158Y-54800500D01*
X145878844Y-54800500D01*
X145878845Y-54800499D01*
X146033497Y-54769737D01*
X146179179Y-54709394D01*
X146310289Y-54621789D01*
X146421789Y-54510289D01*
X146509394Y-54379179D01*
X146569737Y-54233497D01*
X146600500Y-54078842D01*
X146600500Y-53921158D01*
X146600500Y-53921155D01*
X146600499Y-53921153D01*
X146592137Y-53879115D01*
X146569737Y-53766503D01*
X146550955Y-53721158D01*
X146550953Y-53721153D01*
X151399500Y-53721153D01*
X151399500Y-53878846D01*
X151430261Y-54033489D01*
X151430264Y-54033501D01*
X151490602Y-54179172D01*
X151490609Y-54179185D01*
X151578210Y-54310288D01*
X151578213Y-54310292D01*
X151689707Y-54421786D01*
X151689711Y-54421789D01*
X151820814Y-54509390D01*
X151820827Y-54509397D01*
X151941974Y-54559577D01*
X151966503Y-54569737D01*
X152121153Y-54600499D01*
X152121156Y-54600500D01*
X152121158Y-54600500D01*
X152278844Y-54600500D01*
X152278845Y-54600499D01*
X152433497Y-54569737D01*
X152579179Y-54509394D01*
X152710289Y-54421789D01*
X152821789Y-54310289D01*
X152909394Y-54179179D01*
X152969737Y-54033497D01*
X153000500Y-53878842D01*
X153000500Y-53721158D01*
X153000500Y-53721155D01*
X153000499Y-53721153D01*
X160399500Y-53721153D01*
X160399500Y-53878846D01*
X160430261Y-54033489D01*
X160430264Y-54033501D01*
X160490602Y-54179172D01*
X160490609Y-54179185D01*
X160578210Y-54310288D01*
X160578213Y-54310292D01*
X160689707Y-54421786D01*
X160689711Y-54421789D01*
X160820814Y-54509390D01*
X160820827Y-54509397D01*
X160941974Y-54559577D01*
X160966503Y-54569737D01*
X161121153Y-54600499D01*
X161121156Y-54600500D01*
X161121158Y-54600500D01*
X161278844Y-54600500D01*
X161278845Y-54600499D01*
X161433497Y-54569737D01*
X161579179Y-54509394D01*
X161710289Y-54421789D01*
X161821789Y-54310289D01*
X161909394Y-54179179D01*
X161969737Y-54033497D01*
X162000500Y-53878842D01*
X162000500Y-53721158D01*
X162000500Y-53721155D01*
X162000499Y-53721153D01*
X161994244Y-53689707D01*
X161969737Y-53566503D01*
X161950955Y-53521158D01*
X161950953Y-53521153D01*
X166999500Y-53521153D01*
X166999500Y-53678846D01*
X167030261Y-53833489D01*
X167030264Y-53833501D01*
X167090602Y-53979172D01*
X167090609Y-53979185D01*
X167178210Y-54110288D01*
X167178213Y-54110292D01*
X167289707Y-54221786D01*
X167289711Y-54221789D01*
X167420814Y-54309390D01*
X167420827Y-54309397D01*
X167564038Y-54368716D01*
X167566503Y-54369737D01*
X167721153Y-54400499D01*
X167721156Y-54400500D01*
X167721158Y-54400500D01*
X167878844Y-54400500D01*
X167878845Y-54400499D01*
X168033497Y-54369737D01*
X168179179Y-54309394D01*
X168310289Y-54221789D01*
X168421789Y-54110289D01*
X168509394Y-53979179D01*
X168569737Y-53833497D01*
X168600500Y-53678842D01*
X168600500Y-53521158D01*
X168600500Y-53521155D01*
X168600499Y-53521153D01*
X168594422Y-53490602D01*
X168569737Y-53366503D01*
X168537929Y-53289711D01*
X168509397Y-53220827D01*
X168509390Y-53220814D01*
X168421789Y-53089711D01*
X168421786Y-53089707D01*
X168310292Y-52978213D01*
X168310288Y-52978210D01*
X168179185Y-52890609D01*
X168179172Y-52890602D01*
X168033501Y-52830264D01*
X168033489Y-52830261D01*
X167878845Y-52799500D01*
X167878842Y-52799500D01*
X167721158Y-52799500D01*
X167721155Y-52799500D01*
X167566510Y-52830261D01*
X167566498Y-52830264D01*
X167420827Y-52890602D01*
X167420814Y-52890609D01*
X167289711Y-52978210D01*
X167289707Y-52978213D01*
X167178213Y-53089707D01*
X167178210Y-53089711D01*
X167090609Y-53220814D01*
X167090602Y-53220827D01*
X167030264Y-53366498D01*
X167030261Y-53366510D01*
X166999500Y-53521153D01*
X161950953Y-53521153D01*
X161909397Y-53420827D01*
X161909390Y-53420814D01*
X161821789Y-53289711D01*
X161821786Y-53289707D01*
X161710292Y-53178213D01*
X161710288Y-53178210D01*
X161579185Y-53090609D01*
X161579172Y-53090602D01*
X161433501Y-53030264D01*
X161433489Y-53030261D01*
X161278845Y-52999500D01*
X161278842Y-52999500D01*
X161121158Y-52999500D01*
X161121155Y-52999500D01*
X160966510Y-53030261D01*
X160966498Y-53030264D01*
X160820827Y-53090602D01*
X160820814Y-53090609D01*
X160689711Y-53178210D01*
X160689707Y-53178213D01*
X160578213Y-53289707D01*
X160578210Y-53289711D01*
X160490609Y-53420814D01*
X160490602Y-53420827D01*
X160430264Y-53566498D01*
X160430261Y-53566510D01*
X160399500Y-53721153D01*
X153000499Y-53721153D01*
X152994244Y-53689707D01*
X152969737Y-53566503D01*
X152950955Y-53521158D01*
X152909397Y-53420827D01*
X152909390Y-53420814D01*
X152821789Y-53289711D01*
X152821786Y-53289707D01*
X152710292Y-53178213D01*
X152710288Y-53178210D01*
X152579185Y-53090609D01*
X152579172Y-53090602D01*
X152433501Y-53030264D01*
X152433489Y-53030261D01*
X152278845Y-52999500D01*
X152278842Y-52999500D01*
X152121158Y-52999500D01*
X152121155Y-52999500D01*
X151966510Y-53030261D01*
X151966498Y-53030264D01*
X151820827Y-53090602D01*
X151820814Y-53090609D01*
X151689711Y-53178210D01*
X151689707Y-53178213D01*
X151578213Y-53289707D01*
X151578210Y-53289711D01*
X151490609Y-53420814D01*
X151490602Y-53420827D01*
X151430264Y-53566498D01*
X151430261Y-53566510D01*
X151399500Y-53721153D01*
X146550953Y-53721153D01*
X146509397Y-53620827D01*
X146509390Y-53620814D01*
X146421789Y-53489711D01*
X146421786Y-53489707D01*
X146310292Y-53378213D01*
X146310288Y-53378210D01*
X146179185Y-53290609D01*
X146179172Y-53290602D01*
X146033501Y-53230264D01*
X146033489Y-53230261D01*
X145878845Y-53199500D01*
X145878842Y-53199500D01*
X145721158Y-53199500D01*
X145721155Y-53199500D01*
X145566510Y-53230261D01*
X145566498Y-53230264D01*
X145420827Y-53290602D01*
X145420814Y-53290609D01*
X145289711Y-53378210D01*
X145289706Y-53378214D01*
X145236446Y-53431474D01*
X145175123Y-53464958D01*
X145105431Y-53459973D01*
X145101354Y-53458369D01*
X145033497Y-53430263D01*
X145033490Y-53430261D01*
X145033489Y-53430261D01*
X145033488Y-53430260D01*
X144878845Y-53399500D01*
X144878842Y-53399500D01*
X144721158Y-53399500D01*
X144721155Y-53399500D01*
X144566510Y-53430261D01*
X144566498Y-53430264D01*
X144420827Y-53490602D01*
X144420814Y-53490609D01*
X144289711Y-53578210D01*
X144289707Y-53578213D01*
X144178213Y-53689707D01*
X144178210Y-53689711D01*
X144090609Y-53820814D01*
X144090602Y-53820827D01*
X144030264Y-53966498D01*
X144030261Y-53966510D01*
X143999500Y-54121153D01*
X137192084Y-54121153D01*
X137198107Y-54090875D01*
X137198107Y-54090874D01*
X137200500Y-54078844D01*
X137200500Y-53921155D01*
X137200499Y-53921153D01*
X137192137Y-53879115D01*
X137169737Y-53766503D01*
X137150955Y-53721158D01*
X137109397Y-53620827D01*
X137109390Y-53620814D01*
X137021789Y-53489711D01*
X137021786Y-53489707D01*
X136910292Y-53378213D01*
X136910288Y-53378210D01*
X136779185Y-53290609D01*
X136779172Y-53290602D01*
X136633501Y-53230264D01*
X136633489Y-53230261D01*
X136478845Y-53199500D01*
X136478842Y-53199500D01*
X136321158Y-53199500D01*
X136321155Y-53199500D01*
X136166510Y-53230261D01*
X136166498Y-53230264D01*
X136020827Y-53290602D01*
X136020814Y-53290609D01*
X135889711Y-53378210D01*
X135889707Y-53378213D01*
X135778213Y-53489707D01*
X135778210Y-53489711D01*
X135690609Y-53620814D01*
X135690602Y-53620827D01*
X135630264Y-53766498D01*
X135630261Y-53766510D01*
X135599500Y-53921153D01*
X130442798Y-53921153D01*
X130421789Y-53889711D01*
X130421786Y-53889707D01*
X130310292Y-53778213D01*
X130310288Y-53778210D01*
X130179185Y-53690609D01*
X130179172Y-53690602D01*
X130033501Y-53630264D01*
X130033489Y-53630261D01*
X129878845Y-53599500D01*
X129878842Y-53599500D01*
X129721158Y-53599500D01*
X129721155Y-53599500D01*
X129566510Y-53630261D01*
X129566498Y-53630264D01*
X129420827Y-53690602D01*
X129420814Y-53690609D01*
X129289711Y-53778210D01*
X129188806Y-53879115D01*
X129127483Y-53912599D01*
X129057791Y-53907615D01*
X129001858Y-53865743D01*
X128979508Y-53815624D01*
X128969738Y-53766509D01*
X128969737Y-53766503D01*
X128950955Y-53721158D01*
X128909397Y-53620827D01*
X128909390Y-53620814D01*
X128821789Y-53489711D01*
X128821786Y-53489707D01*
X128710292Y-53378213D01*
X128710288Y-53378210D01*
X128579185Y-53290609D01*
X128579172Y-53290602D01*
X128433501Y-53230264D01*
X128433489Y-53230261D01*
X128278845Y-53199500D01*
X128278842Y-53199500D01*
X128121158Y-53199500D01*
X128121155Y-53199500D01*
X127966510Y-53230261D01*
X127966498Y-53230264D01*
X127820827Y-53290602D01*
X127820814Y-53290609D01*
X127689125Y-53378602D01*
X127622447Y-53399480D01*
X127620234Y-53399500D01*
X122524000Y-53399500D01*
X122456961Y-53379815D01*
X122411206Y-53327011D01*
X122400000Y-53275500D01*
X122400000Y-50961760D01*
X122419685Y-50894721D01*
X122455105Y-50858661D01*
X122510289Y-50821789D01*
X122621789Y-50710289D01*
X122709394Y-50579179D01*
X122769737Y-50433497D01*
X122784752Y-50358014D01*
X122796231Y-50300308D01*
X122828616Y-50238397D01*
X122889332Y-50203823D01*
X122917848Y-50200500D01*
X126368059Y-50200500D01*
X126435098Y-50220185D01*
X126480853Y-50272989D01*
X126490797Y-50342147D01*
X126461772Y-50405703D01*
X126455740Y-50412181D01*
X126378213Y-50489707D01*
X126378210Y-50489711D01*
X126290609Y-50620814D01*
X126290602Y-50620827D01*
X126230264Y-50766498D01*
X126230261Y-50766510D01*
X126199500Y-50921153D01*
X126199500Y-51078846D01*
X126230261Y-51233489D01*
X126230264Y-51233501D01*
X126290602Y-51379172D01*
X126290609Y-51379185D01*
X126378210Y-51510288D01*
X126378213Y-51510292D01*
X126489707Y-51621786D01*
X126489711Y-51621789D01*
X126620814Y-51709390D01*
X126620827Y-51709397D01*
X126766498Y-51769735D01*
X126766503Y-51769737D01*
X126916131Y-51799500D01*
X126921153Y-51800499D01*
X126921156Y-51800500D01*
X126921158Y-51800500D01*
X127078844Y-51800500D01*
X127078845Y-51800499D01*
X127233497Y-51769737D01*
X127379179Y-51709394D01*
X127510289Y-51621789D01*
X127621789Y-51510289D01*
X127709394Y-51379179D01*
X127769737Y-51233497D01*
X127800500Y-51078842D01*
X127800500Y-50921158D01*
X127800500Y-50921155D01*
X127800499Y-50921153D01*
X127788068Y-50858657D01*
X127769737Y-50766503D01*
X127746452Y-50710288D01*
X127709397Y-50620827D01*
X127709390Y-50620814D01*
X127621789Y-50489711D01*
X127621786Y-50489707D01*
X127544260Y-50412181D01*
X127510775Y-50350858D01*
X127515759Y-50281166D01*
X127557631Y-50225233D01*
X127623095Y-50200816D01*
X127631941Y-50200500D01*
X129620234Y-50200500D01*
X129687273Y-50220185D01*
X129689125Y-50221398D01*
X129820814Y-50309390D01*
X129820827Y-50309397D01*
X129936443Y-50357286D01*
X129966503Y-50369737D01*
X130121153Y-50400499D01*
X130121156Y-50400500D01*
X130121158Y-50400500D01*
X130278844Y-50400500D01*
X130278845Y-50400499D01*
X130433497Y-50369737D01*
X130579179Y-50309394D01*
X130621425Y-50281166D01*
X130710875Y-50221398D01*
X130777553Y-50200520D01*
X130779766Y-50200500D01*
X145620234Y-50200500D01*
X145687273Y-50220185D01*
X145689125Y-50221398D01*
X145820814Y-50309390D01*
X145820827Y-50309397D01*
X145936443Y-50357286D01*
X145966503Y-50369737D01*
X146121153Y-50400499D01*
X146121156Y-50400500D01*
X146121158Y-50400500D01*
X146278844Y-50400500D01*
X146278845Y-50400499D01*
X146433497Y-50369737D01*
X146579179Y-50309394D01*
X146621425Y-50281166D01*
X146710875Y-50221398D01*
X146777553Y-50200520D01*
X146779766Y-50200500D01*
X161243331Y-50200500D01*
X161243347Y-50200501D01*
X161250943Y-50200501D01*
X161409054Y-50200501D01*
X161409057Y-50200501D01*
X161561785Y-50159577D01*
X161612061Y-50130550D01*
X161669976Y-50097113D01*
X161722961Y-50082915D01*
X161722782Y-50081097D01*
X161728836Y-50080500D01*
X161728842Y-50080500D01*
X161883497Y-50049737D01*
X162029179Y-49989394D01*
X162160289Y-49901789D01*
X162271789Y-49790289D01*
X162317984Y-49721153D01*
X175999500Y-49721153D01*
X175999500Y-49878846D01*
X176030261Y-50033489D01*
X176030264Y-50033501D01*
X176090602Y-50179172D01*
X176090609Y-50179185D01*
X176178210Y-50310288D01*
X176178213Y-50310292D01*
X176289707Y-50421786D01*
X176289711Y-50421789D01*
X176420814Y-50509390D01*
X176420827Y-50509397D01*
X176566498Y-50569735D01*
X176566503Y-50569737D01*
X176721153Y-50600499D01*
X176721156Y-50600500D01*
X176721158Y-50600500D01*
X176878844Y-50600500D01*
X176878845Y-50600499D01*
X177033497Y-50569737D01*
X177179179Y-50509394D01*
X177310289Y-50421789D01*
X177421789Y-50310289D01*
X177509394Y-50179179D01*
X177569737Y-50033497D01*
X177600500Y-49878842D01*
X177600500Y-49721158D01*
X177600500Y-49721155D01*
X177600499Y-49721153D01*
X177594269Y-49689831D01*
X177569737Y-49566503D01*
X177556059Y-49533481D01*
X177509397Y-49420827D01*
X177509390Y-49420814D01*
X177421789Y-49289711D01*
X177421786Y-49289707D01*
X177310292Y-49178213D01*
X177310288Y-49178210D01*
X177179185Y-49090609D01*
X177179172Y-49090602D01*
X177033501Y-49030264D01*
X177033489Y-49030261D01*
X176878845Y-48999500D01*
X176878842Y-48999500D01*
X176721158Y-48999500D01*
X176721155Y-48999500D01*
X176566510Y-49030261D01*
X176566498Y-49030264D01*
X176420827Y-49090602D01*
X176420814Y-49090609D01*
X176289711Y-49178210D01*
X176289707Y-49178213D01*
X176178213Y-49289707D01*
X176178210Y-49289711D01*
X176090609Y-49420814D01*
X176090602Y-49420827D01*
X176030264Y-49566498D01*
X176030261Y-49566510D01*
X175999500Y-49721153D01*
X162317984Y-49721153D01*
X162359394Y-49659179D01*
X162419737Y-49513497D01*
X162450500Y-49358842D01*
X162450500Y-49201158D01*
X162450500Y-49201155D01*
X162450499Y-49201153D01*
X162445936Y-49178213D01*
X162419737Y-49046503D01*
X162413010Y-49030263D01*
X162359397Y-48900827D01*
X162359390Y-48900814D01*
X162271789Y-48769711D01*
X162271786Y-48769707D01*
X162160292Y-48658213D01*
X162160288Y-48658210D01*
X162029185Y-48570609D01*
X162029172Y-48570602D01*
X161883501Y-48510264D01*
X161883489Y-48510261D01*
X161728845Y-48479500D01*
X161728842Y-48479500D01*
X161571158Y-48479500D01*
X161571153Y-48479500D01*
X161514370Y-48490795D01*
X161444778Y-48484568D01*
X161389601Y-48441705D01*
X161366357Y-48375815D01*
X161375618Y-48321725D01*
X161399737Y-48263497D01*
X161430500Y-48108842D01*
X161430500Y-47951158D01*
X161430500Y-47951155D01*
X161430499Y-47951153D01*
X161425697Y-47927011D01*
X161399737Y-47796503D01*
X161397418Y-47790905D01*
X161339397Y-47650827D01*
X161339390Y-47650814D01*
X161251789Y-47519711D01*
X161251786Y-47519707D01*
X161140292Y-47408213D01*
X161140288Y-47408210D01*
X161009185Y-47320609D01*
X161009172Y-47320602D01*
X160863501Y-47260264D01*
X160863489Y-47260261D01*
X160708845Y-47229500D01*
X160708842Y-47229500D01*
X160551158Y-47229500D01*
X160551155Y-47229500D01*
X160396510Y-47260261D01*
X160396498Y-47260264D01*
X160250827Y-47320602D01*
X160250814Y-47320609D01*
X160119711Y-47408210D01*
X160119707Y-47408213D01*
X160008213Y-47519707D01*
X160008210Y-47519711D01*
X159920609Y-47650814D01*
X159920602Y-47650827D01*
X159860264Y-47796498D01*
X159860261Y-47796510D01*
X159839737Y-47899691D01*
X159807352Y-47961602D01*
X159746636Y-47996176D01*
X159718120Y-47999500D01*
X156794168Y-47999500D01*
X156727129Y-47979815D01*
X156681374Y-47927011D01*
X156671430Y-47857853D01*
X156691067Y-47806608D01*
X156709389Y-47779187D01*
X156709390Y-47779184D01*
X156709394Y-47779179D01*
X156709687Y-47778473D01*
X156739812Y-47705743D01*
X156769737Y-47633497D01*
X156800500Y-47478842D01*
X156800500Y-47321158D01*
X156800500Y-47321155D01*
X156800499Y-47321153D01*
X156782180Y-47229057D01*
X156769737Y-47166503D01*
X156737698Y-47089153D01*
X156709397Y-47020827D01*
X156709390Y-47020814D01*
X156621789Y-46889711D01*
X156621786Y-46889707D01*
X156510292Y-46778213D01*
X156510288Y-46778210D01*
X156379185Y-46690609D01*
X156379172Y-46690602D01*
X156233501Y-46630264D01*
X156233489Y-46630261D01*
X156078845Y-46599500D01*
X156078842Y-46599500D01*
X155921158Y-46599500D01*
X155921155Y-46599500D01*
X155766510Y-46630261D01*
X155766498Y-46630264D01*
X155620827Y-46690602D01*
X155620814Y-46690609D01*
X155489711Y-46778210D01*
X155489707Y-46778213D01*
X155378213Y-46889707D01*
X155378210Y-46889711D01*
X155290609Y-47020814D01*
X155290602Y-47020827D01*
X155230264Y-47166498D01*
X155230261Y-47166510D01*
X155199500Y-47321153D01*
X155199500Y-47478846D01*
X155230261Y-47633489D01*
X155230264Y-47633501D01*
X155290602Y-47779172D01*
X155290610Y-47779187D01*
X155308933Y-47806608D01*
X155329812Y-47873285D01*
X155311328Y-47940666D01*
X155259350Y-47987356D01*
X155205832Y-47999500D01*
X145979766Y-47999500D01*
X145912727Y-47979815D01*
X145910875Y-47978602D01*
X145779185Y-47890609D01*
X145779172Y-47890602D01*
X145633501Y-47830264D01*
X145633489Y-47830261D01*
X145478845Y-47799500D01*
X145478842Y-47799500D01*
X145321158Y-47799500D01*
X145321155Y-47799500D01*
X145166510Y-47830261D01*
X145166498Y-47830264D01*
X145020827Y-47890602D01*
X145020814Y-47890609D01*
X144889125Y-47978602D01*
X144822447Y-47999480D01*
X144820234Y-47999500D01*
X129979766Y-47999500D01*
X129912727Y-47979815D01*
X129910875Y-47978602D01*
X129779185Y-47890609D01*
X129779172Y-47890602D01*
X129633501Y-47830264D01*
X129633489Y-47830261D01*
X129478845Y-47799500D01*
X129478842Y-47799500D01*
X129321158Y-47799500D01*
X129321155Y-47799500D01*
X129166510Y-47830261D01*
X129166498Y-47830264D01*
X129020827Y-47890602D01*
X129020814Y-47890609D01*
X128889125Y-47978602D01*
X128822447Y-47999480D01*
X128820234Y-47999500D01*
X122524000Y-47999500D01*
X122456961Y-47979815D01*
X122411206Y-47927011D01*
X122400000Y-47875500D01*
X122400000Y-45921153D01*
X173999500Y-45921153D01*
X173999500Y-46078846D01*
X174030261Y-46233489D01*
X174030264Y-46233501D01*
X174090602Y-46379172D01*
X174090609Y-46379185D01*
X174178210Y-46510288D01*
X174178213Y-46510292D01*
X174289707Y-46621786D01*
X174289711Y-46621789D01*
X174420814Y-46709390D01*
X174420827Y-46709397D01*
X174549393Y-46762650D01*
X174566503Y-46769737D01*
X174721153Y-46800499D01*
X174721156Y-46800500D01*
X174721158Y-46800500D01*
X174878844Y-46800500D01*
X174878845Y-46800499D01*
X175033497Y-46769737D01*
X175179179Y-46709394D01*
X175310289Y-46621789D01*
X175421789Y-46510289D01*
X175509394Y-46379179D01*
X175569737Y-46233497D01*
X175600500Y-46078842D01*
X175600500Y-45921158D01*
X175600500Y-45921155D01*
X175600499Y-45921153D01*
X175593576Y-45886348D01*
X175569737Y-45766503D01*
X175537889Y-45689614D01*
X175509397Y-45620827D01*
X175509390Y-45620814D01*
X175421789Y-45489711D01*
X175421786Y-45489707D01*
X175310292Y-45378213D01*
X175310288Y-45378210D01*
X175179185Y-45290609D01*
X175179172Y-45290602D01*
X175033501Y-45230264D01*
X175033489Y-45230261D01*
X174878845Y-45199500D01*
X174878842Y-45199500D01*
X174721158Y-45199500D01*
X174721155Y-45199500D01*
X174566510Y-45230261D01*
X174566498Y-45230264D01*
X174420827Y-45290602D01*
X174420814Y-45290609D01*
X174289711Y-45378210D01*
X174289707Y-45378213D01*
X174178213Y-45489707D01*
X174178210Y-45489711D01*
X174090609Y-45620814D01*
X174090602Y-45620827D01*
X174030264Y-45766498D01*
X174030261Y-45766510D01*
X173999500Y-45921153D01*
X122400000Y-45921153D01*
X122400000Y-45886348D01*
X122419685Y-45819309D01*
X122472489Y-45773554D01*
X122541647Y-45763610D01*
X122560434Y-45768766D01*
X122560676Y-45767969D01*
X122566492Y-45769732D01*
X122566503Y-45769737D01*
X122721153Y-45800499D01*
X122721156Y-45800500D01*
X122721158Y-45800500D01*
X122878844Y-45800500D01*
X122878845Y-45800499D01*
X122889179Y-45798443D01*
X122914287Y-45793450D01*
X122914292Y-45793449D01*
X122999800Y-45776439D01*
X123033497Y-45769737D01*
X123179179Y-45709394D01*
X123310289Y-45621789D01*
X123421789Y-45510289D01*
X123509394Y-45379179D01*
X123569737Y-45233497D01*
X123600500Y-45078842D01*
X123600500Y-44921158D01*
X123600500Y-44921155D01*
X123600499Y-44921153D01*
X123591118Y-44873993D01*
X123569737Y-44766503D01*
X123540544Y-44696024D01*
X123509397Y-44620827D01*
X123509390Y-44620814D01*
X123421789Y-44489711D01*
X123421786Y-44489707D01*
X123310292Y-44378213D01*
X123310288Y-44378210D01*
X123224897Y-44321153D01*
X127199500Y-44321153D01*
X127199500Y-44478846D01*
X127230261Y-44633489D01*
X127230264Y-44633501D01*
X127290602Y-44779172D01*
X127290609Y-44779185D01*
X127378210Y-44910288D01*
X127378213Y-44910292D01*
X127489707Y-45021786D01*
X127489711Y-45021789D01*
X127620814Y-45109390D01*
X127620827Y-45109397D01*
X127766498Y-45169735D01*
X127766503Y-45169737D01*
X127916126Y-45199499D01*
X127921153Y-45200499D01*
X127921156Y-45200500D01*
X127921158Y-45200500D01*
X128078844Y-45200500D01*
X128078845Y-45200499D01*
X128233497Y-45169737D01*
X128379179Y-45109394D01*
X128510289Y-45021789D01*
X128621789Y-44910289D01*
X128709394Y-44779179D01*
X128769737Y-44633497D01*
X128800500Y-44478842D01*
X128800500Y-44321158D01*
X128800500Y-44321155D01*
X128800499Y-44321153D01*
X142799500Y-44321153D01*
X142799500Y-44478846D01*
X142830261Y-44633489D01*
X142830264Y-44633501D01*
X142890602Y-44779172D01*
X142890609Y-44779185D01*
X142978210Y-44910288D01*
X142978213Y-44910292D01*
X143089707Y-45021786D01*
X143089711Y-45021789D01*
X143220814Y-45109390D01*
X143220827Y-45109397D01*
X143366498Y-45169735D01*
X143366503Y-45169737D01*
X143516126Y-45199499D01*
X143521153Y-45200499D01*
X143521156Y-45200500D01*
X143521158Y-45200500D01*
X143678844Y-45200500D01*
X143678845Y-45200499D01*
X143833497Y-45169737D01*
X143979179Y-45109394D01*
X144110289Y-45021789D01*
X144221789Y-44910289D01*
X144309394Y-44779179D01*
X144369737Y-44633497D01*
X144400500Y-44478842D01*
X144400500Y-44321158D01*
X144400500Y-44321155D01*
X144400499Y-44321153D01*
X158399500Y-44321153D01*
X158399500Y-44478846D01*
X158430261Y-44633489D01*
X158430264Y-44633501D01*
X158490602Y-44779172D01*
X158490609Y-44779185D01*
X158578210Y-44910288D01*
X158578213Y-44910292D01*
X158689707Y-45021786D01*
X158689711Y-45021789D01*
X158820814Y-45109390D01*
X158820827Y-45109397D01*
X158966498Y-45169735D01*
X158966503Y-45169737D01*
X159116126Y-45199499D01*
X159121153Y-45200499D01*
X159121156Y-45200500D01*
X159121158Y-45200500D01*
X159278844Y-45200500D01*
X159278845Y-45200499D01*
X159433497Y-45169737D01*
X159579179Y-45109394D01*
X159710289Y-45021789D01*
X159821789Y-44910289D01*
X159909394Y-44779179D01*
X159969737Y-44633497D01*
X160000500Y-44478842D01*
X160000500Y-44321158D01*
X160000500Y-44321155D01*
X160000499Y-44321153D01*
X159982419Y-44230261D01*
X159969737Y-44166503D01*
X159909794Y-44021786D01*
X159909397Y-44020827D01*
X159909390Y-44020814D01*
X159821789Y-43889711D01*
X159821786Y-43889707D01*
X159710292Y-43778213D01*
X159710288Y-43778210D01*
X159579185Y-43690609D01*
X159579172Y-43690602D01*
X159433501Y-43630264D01*
X159433489Y-43630261D01*
X159278845Y-43599500D01*
X159278842Y-43599500D01*
X159121158Y-43599500D01*
X159121155Y-43599500D01*
X158966510Y-43630261D01*
X158966498Y-43630264D01*
X158820827Y-43690602D01*
X158820814Y-43690609D01*
X158689711Y-43778210D01*
X158689707Y-43778213D01*
X158578213Y-43889707D01*
X158578210Y-43889711D01*
X158490609Y-44020814D01*
X158490602Y-44020827D01*
X158430264Y-44166498D01*
X158430261Y-44166510D01*
X158399500Y-44321153D01*
X144400499Y-44321153D01*
X144382419Y-44230261D01*
X144369737Y-44166503D01*
X144309794Y-44021786D01*
X144309397Y-44020827D01*
X144309390Y-44020814D01*
X144221789Y-43889711D01*
X144221786Y-43889707D01*
X144110292Y-43778213D01*
X144110288Y-43778210D01*
X143979185Y-43690609D01*
X143979172Y-43690602D01*
X143833501Y-43630264D01*
X143833489Y-43630261D01*
X143678845Y-43599500D01*
X143678842Y-43599500D01*
X143521158Y-43599500D01*
X143521155Y-43599500D01*
X143366510Y-43630261D01*
X143366498Y-43630264D01*
X143220827Y-43690602D01*
X143220814Y-43690609D01*
X143089711Y-43778210D01*
X143089707Y-43778213D01*
X142978213Y-43889707D01*
X142978210Y-43889711D01*
X142890609Y-44020814D01*
X142890602Y-44020827D01*
X142830264Y-44166498D01*
X142830261Y-44166510D01*
X142799500Y-44321153D01*
X128800499Y-44321153D01*
X128782419Y-44230261D01*
X128769737Y-44166503D01*
X128709794Y-44021786D01*
X128709397Y-44020827D01*
X128709390Y-44020814D01*
X128621789Y-43889711D01*
X128621786Y-43889707D01*
X128510292Y-43778213D01*
X128510288Y-43778210D01*
X128379185Y-43690609D01*
X128379172Y-43690602D01*
X128233501Y-43630264D01*
X128233489Y-43630261D01*
X128078845Y-43599500D01*
X128078842Y-43599500D01*
X127921158Y-43599500D01*
X127921155Y-43599500D01*
X127766510Y-43630261D01*
X127766498Y-43630264D01*
X127620827Y-43690602D01*
X127620814Y-43690609D01*
X127489711Y-43778210D01*
X127489707Y-43778213D01*
X127378213Y-43889707D01*
X127378210Y-43889711D01*
X127290609Y-44020814D01*
X127290602Y-44020827D01*
X127230264Y-44166498D01*
X127230261Y-44166510D01*
X127199500Y-44321153D01*
X123224897Y-44321153D01*
X123179185Y-44290609D01*
X123179172Y-44290602D01*
X123033501Y-44230264D01*
X123033489Y-44230261D01*
X122878845Y-44199500D01*
X122878842Y-44199500D01*
X122721158Y-44199500D01*
X122721155Y-44199500D01*
X122566510Y-44230261D01*
X122560676Y-44232031D01*
X122559901Y-44229478D01*
X122501855Y-44235658D01*
X122439409Y-44204317D01*
X122403820Y-44144190D01*
X122400000Y-44113651D01*
X122400000Y-43321153D01*
X128799500Y-43321153D01*
X128799500Y-43478846D01*
X128830261Y-43633489D01*
X128830264Y-43633501D01*
X128890602Y-43779172D01*
X128890609Y-43779185D01*
X128978210Y-43910288D01*
X128978213Y-43910292D01*
X129089707Y-44021786D01*
X129089711Y-44021789D01*
X129220814Y-44109390D01*
X129220827Y-44109397D01*
X129358683Y-44166498D01*
X129366503Y-44169737D01*
X129516131Y-44199500D01*
X129521153Y-44200499D01*
X129521156Y-44200500D01*
X129521158Y-44200500D01*
X129678844Y-44200500D01*
X129678845Y-44200499D01*
X129689179Y-44198443D01*
X129714287Y-44193450D01*
X129714292Y-44193449D01*
X129799800Y-44176439D01*
X129833497Y-44169737D01*
X129979179Y-44109394D01*
X130110289Y-44021789D01*
X130221789Y-43910289D01*
X130309394Y-43779179D01*
X130369737Y-43633497D01*
X130400500Y-43478842D01*
X130400500Y-43321158D01*
X130400500Y-43321155D01*
X130400499Y-43321153D01*
X144599500Y-43321153D01*
X144599500Y-43478846D01*
X144630261Y-43633489D01*
X144630264Y-43633501D01*
X144690602Y-43779172D01*
X144690609Y-43779185D01*
X144778210Y-43910288D01*
X144778213Y-43910292D01*
X144889707Y-44021786D01*
X144889711Y-44021789D01*
X145020814Y-44109390D01*
X145020827Y-44109397D01*
X145158683Y-44166498D01*
X145166503Y-44169737D01*
X145316131Y-44199500D01*
X145321153Y-44200499D01*
X145321156Y-44200500D01*
X145321158Y-44200500D01*
X145478844Y-44200500D01*
X145478845Y-44200499D01*
X145489179Y-44198443D01*
X145514287Y-44193450D01*
X145514292Y-44193449D01*
X145599800Y-44176439D01*
X145633497Y-44169737D01*
X145779179Y-44109394D01*
X145910289Y-44021789D01*
X146021789Y-43910289D01*
X146109394Y-43779179D01*
X146169737Y-43633497D01*
X146200500Y-43478842D01*
X146200500Y-43321158D01*
X146200500Y-43321155D01*
X146200499Y-43321153D01*
X160199500Y-43321153D01*
X160199500Y-43478846D01*
X160230261Y-43633489D01*
X160230264Y-43633501D01*
X160290602Y-43779172D01*
X160290609Y-43779185D01*
X160378210Y-43910288D01*
X160378213Y-43910292D01*
X160489707Y-44021786D01*
X160489711Y-44021789D01*
X160620814Y-44109390D01*
X160620827Y-44109397D01*
X160758683Y-44166498D01*
X160766503Y-44169737D01*
X160916131Y-44199500D01*
X160921153Y-44200499D01*
X160921156Y-44200500D01*
X160921158Y-44200500D01*
X161078844Y-44200500D01*
X161078845Y-44200499D01*
X161233497Y-44169737D01*
X161379179Y-44109394D01*
X161510289Y-44021789D01*
X161621789Y-43910289D01*
X161709394Y-43779179D01*
X161769737Y-43633497D01*
X161800500Y-43478842D01*
X161800500Y-43321158D01*
X161800500Y-43321155D01*
X161800499Y-43321153D01*
X161769738Y-43166510D01*
X161769737Y-43166503D01*
X161735424Y-43083663D01*
X161709397Y-43020827D01*
X161709390Y-43020814D01*
X161621789Y-42889711D01*
X161621786Y-42889707D01*
X161510292Y-42778213D01*
X161510288Y-42778210D01*
X161379185Y-42690609D01*
X161379172Y-42690602D01*
X161233501Y-42630264D01*
X161233489Y-42630261D01*
X161078845Y-42599500D01*
X161078842Y-42599500D01*
X160921158Y-42599500D01*
X160921155Y-42599500D01*
X160766510Y-42630261D01*
X160766498Y-42630264D01*
X160620827Y-42690602D01*
X160620814Y-42690609D01*
X160489711Y-42778210D01*
X160489707Y-42778213D01*
X160378213Y-42889707D01*
X160378210Y-42889711D01*
X160290609Y-43020814D01*
X160290602Y-43020827D01*
X160230264Y-43166498D01*
X160230261Y-43166510D01*
X160199500Y-43321153D01*
X146200499Y-43321153D01*
X146169738Y-43166510D01*
X146169737Y-43166503D01*
X146135424Y-43083663D01*
X146109397Y-43020827D01*
X146109390Y-43020814D01*
X146021789Y-42889711D01*
X146021786Y-42889707D01*
X145910292Y-42778213D01*
X145910288Y-42778210D01*
X145779185Y-42690609D01*
X145779172Y-42690602D01*
X145633501Y-42630264D01*
X145633489Y-42630261D01*
X145478845Y-42599500D01*
X145478842Y-42599500D01*
X145321158Y-42599500D01*
X145321155Y-42599500D01*
X145166510Y-42630261D01*
X145166498Y-42630264D01*
X145020827Y-42690602D01*
X145020814Y-42690609D01*
X144889711Y-42778210D01*
X144889707Y-42778213D01*
X144778213Y-42889707D01*
X144778210Y-42889711D01*
X144690609Y-43020814D01*
X144690602Y-43020827D01*
X144630264Y-43166498D01*
X144630261Y-43166510D01*
X144599500Y-43321153D01*
X130400499Y-43321153D01*
X130369738Y-43166510D01*
X130369737Y-43166503D01*
X130335424Y-43083663D01*
X130309397Y-43020827D01*
X130309390Y-43020814D01*
X130221789Y-42889711D01*
X130221786Y-42889707D01*
X130110292Y-42778213D01*
X130110288Y-42778210D01*
X129979185Y-42690609D01*
X129979172Y-42690602D01*
X129833501Y-42630264D01*
X129833489Y-42630261D01*
X129678845Y-42599500D01*
X129678842Y-42599500D01*
X129521158Y-42599500D01*
X129521155Y-42599500D01*
X129366510Y-42630261D01*
X129366498Y-42630264D01*
X129220827Y-42690602D01*
X129220814Y-42690609D01*
X129089711Y-42778210D01*
X129089707Y-42778213D01*
X128978213Y-42889707D01*
X128978210Y-42889711D01*
X128890609Y-43020814D01*
X128890602Y-43020827D01*
X128830264Y-43166498D01*
X128830261Y-43166510D01*
X128799500Y-43321153D01*
X122400000Y-43321153D01*
X122400000Y-40821153D01*
X134499500Y-40821153D01*
X134499500Y-40978846D01*
X134530261Y-41133489D01*
X134530264Y-41133501D01*
X134590602Y-41279172D01*
X134590609Y-41279185D01*
X134678210Y-41410288D01*
X134678213Y-41410292D01*
X134789707Y-41521786D01*
X134789711Y-41521789D01*
X134920814Y-41609390D01*
X134920827Y-41609397D01*
X135007989Y-41645500D01*
X135066503Y-41669737D01*
X135221153Y-41700499D01*
X135221156Y-41700500D01*
X135221158Y-41700500D01*
X135378844Y-41700500D01*
X135378845Y-41700499D01*
X135533497Y-41669737D01*
X135679179Y-41609394D01*
X135810289Y-41521789D01*
X135921789Y-41410289D01*
X136009394Y-41279179D01*
X136069737Y-41133497D01*
X136100500Y-40978842D01*
X136100500Y-40821158D01*
X136093160Y-40784256D01*
X136093160Y-40784253D01*
X136089560Y-40766153D01*
X150044500Y-40766153D01*
X150044500Y-40923846D01*
X150075261Y-41078489D01*
X150075264Y-41078501D01*
X150135602Y-41224172D01*
X150135609Y-41224185D01*
X150223210Y-41355288D01*
X150223213Y-41355292D01*
X150334707Y-41466786D01*
X150334711Y-41466789D01*
X150465814Y-41554390D01*
X150465827Y-41554397D01*
X150598611Y-41609397D01*
X150611503Y-41614737D01*
X150766153Y-41645499D01*
X150766156Y-41645500D01*
X150766158Y-41645500D01*
X150923844Y-41645500D01*
X150923845Y-41645499D01*
X151078497Y-41614737D01*
X151224179Y-41554394D01*
X151355289Y-41466789D01*
X151466789Y-41355289D01*
X151554394Y-41224179D01*
X151614737Y-41078497D01*
X151645500Y-40923842D01*
X151645500Y-40766158D01*
X151644838Y-40762829D01*
X151640149Y-40739256D01*
X151640149Y-40739253D01*
X151636549Y-40721153D01*
X166044500Y-40721153D01*
X166044500Y-40878846D01*
X166075261Y-41033489D01*
X166075264Y-41033501D01*
X166135602Y-41179172D01*
X166135609Y-41179185D01*
X166223210Y-41310288D01*
X166223213Y-41310292D01*
X166334707Y-41421786D01*
X166334711Y-41421789D01*
X166465814Y-41509390D01*
X166465827Y-41509397D01*
X166603695Y-41566503D01*
X166611503Y-41569737D01*
X166766153Y-41600499D01*
X166766156Y-41600500D01*
X166766158Y-41600500D01*
X166923844Y-41600500D01*
X166923845Y-41600499D01*
X167078497Y-41569737D01*
X167224179Y-41509394D01*
X167355289Y-41421789D01*
X167466789Y-41310289D01*
X167554394Y-41179179D01*
X167614737Y-41033497D01*
X167645500Y-40878842D01*
X167645500Y-40721158D01*
X167645500Y-40721155D01*
X167645499Y-40721153D01*
X167626887Y-40627587D01*
X167614737Y-40566503D01*
X167614735Y-40566498D01*
X167554397Y-40420827D01*
X167554390Y-40420814D01*
X167466789Y-40289711D01*
X167466786Y-40289707D01*
X167355292Y-40178213D01*
X167355288Y-40178210D01*
X167224185Y-40090609D01*
X167224172Y-40090602D01*
X167078501Y-40030264D01*
X167078489Y-40030261D01*
X166923845Y-39999500D01*
X166923842Y-39999500D01*
X166766158Y-39999500D01*
X166766155Y-39999500D01*
X166611510Y-40030261D01*
X166611498Y-40030264D01*
X166465827Y-40090602D01*
X166465814Y-40090609D01*
X166334711Y-40178210D01*
X166334707Y-40178213D01*
X166223213Y-40289707D01*
X166223210Y-40289711D01*
X166135609Y-40420814D01*
X166135602Y-40420827D01*
X166075264Y-40566498D01*
X166075261Y-40566510D01*
X166044500Y-40721153D01*
X151636549Y-40721153D01*
X151614738Y-40611508D01*
X151614737Y-40611507D01*
X151614737Y-40611503D01*
X151603325Y-40583951D01*
X151554397Y-40465827D01*
X151554390Y-40465814D01*
X151466789Y-40334711D01*
X151466786Y-40334707D01*
X151355292Y-40223213D01*
X151355288Y-40223210D01*
X151224185Y-40135609D01*
X151224172Y-40135602D01*
X151078501Y-40075264D01*
X151078489Y-40075261D01*
X150923845Y-40044500D01*
X150923842Y-40044500D01*
X150766158Y-40044500D01*
X150766155Y-40044500D01*
X150611510Y-40075261D01*
X150611498Y-40075264D01*
X150465827Y-40135602D01*
X150465814Y-40135609D01*
X150334711Y-40223210D01*
X150334707Y-40223213D01*
X150223213Y-40334707D01*
X150223210Y-40334711D01*
X150135609Y-40465814D01*
X150135602Y-40465827D01*
X150075264Y-40611498D01*
X150075261Y-40611510D01*
X150044500Y-40766153D01*
X136089560Y-40766153D01*
X136069738Y-40666508D01*
X136069737Y-40666507D01*
X136069737Y-40666503D01*
X136049108Y-40616699D01*
X136009397Y-40520827D01*
X136009390Y-40520814D01*
X135921789Y-40389711D01*
X135921786Y-40389707D01*
X135810292Y-40278213D01*
X135810288Y-40278210D01*
X135679185Y-40190609D01*
X135679172Y-40190602D01*
X135533501Y-40130264D01*
X135533489Y-40130261D01*
X135378845Y-40099500D01*
X135378842Y-40099500D01*
X135221158Y-40099500D01*
X135221155Y-40099500D01*
X135066510Y-40130261D01*
X135066498Y-40130264D01*
X134920827Y-40190602D01*
X134920814Y-40190609D01*
X134789711Y-40278210D01*
X134789707Y-40278213D01*
X134678213Y-40389707D01*
X134678210Y-40389711D01*
X134590609Y-40520814D01*
X134590602Y-40520827D01*
X134530264Y-40666498D01*
X134530261Y-40666510D01*
X134499500Y-40821153D01*
X122400000Y-40821153D01*
X122400000Y-35924500D01*
X122419685Y-35857461D01*
X122472489Y-35811706D01*
X122524000Y-35800500D01*
X122678844Y-35800500D01*
X122678845Y-35800499D01*
X122833497Y-35769737D01*
X122979179Y-35709394D01*
X123110289Y-35621789D01*
X123221789Y-35510289D01*
X123309394Y-35379179D01*
X123369737Y-35233497D01*
X123400500Y-35078842D01*
X123400500Y-34921158D01*
X123400500Y-34921155D01*
X123400499Y-34921153D01*
X123369738Y-34766510D01*
X123369737Y-34766503D01*
X123369735Y-34766498D01*
X123309397Y-34620827D01*
X123309390Y-34620814D01*
X123221789Y-34489711D01*
X123221786Y-34489707D01*
X123110292Y-34378213D01*
X123110288Y-34378210D01*
X122979185Y-34290609D01*
X122979172Y-34290602D01*
X122833501Y-34230264D01*
X122833489Y-34230261D01*
X122678845Y-34199500D01*
X122678842Y-34199500D01*
X122524000Y-34199500D01*
X122456961Y-34179815D01*
X122411206Y-34127011D01*
X122400000Y-34075500D01*
X122400000Y-33425461D01*
X122419685Y-33358422D01*
X122472489Y-33312667D01*
X122480811Y-33309225D01*
X122495183Y-33303888D01*
X122512340Y-33297158D01*
X122520676Y-33293711D01*
X122537504Y-33286392D01*
X122658543Y-33208604D01*
X122711347Y-33162849D01*
X122805567Y-33054115D01*
X122865338Y-32923238D01*
X122885023Y-32856199D01*
X122885024Y-32856195D01*
X122905500Y-32713779D01*
X122905500Y-31348596D01*
X122905178Y-31330550D01*
X122904862Y-31321704D01*
X122903896Y-31303687D01*
X122873312Y-31163095D01*
X122848895Y-31097631D01*
X122779944Y-30971356D01*
X122710018Y-30901428D01*
X122676535Y-30840105D01*
X122681521Y-30770413D01*
X122690311Y-30751756D01*
X122759577Y-30631784D01*
X122800501Y-30479057D01*
X122800501Y-30320942D01*
X122800501Y-30313347D01*
X122800500Y-30313329D01*
X122800500Y-28278711D01*
X174749500Y-28278711D01*
X174749500Y-28521288D01*
X174781161Y-28761785D01*
X174843947Y-28996104D01*
X174843969Y-28996156D01*
X174936776Y-29220212D01*
X175058064Y-29430289D01*
X175058066Y-29430292D01*
X175058067Y-29430293D01*
X175205733Y-29622736D01*
X175205739Y-29622743D01*
X175377256Y-29794260D01*
X175377262Y-29794265D01*
X175569711Y-29941936D01*
X175779788Y-30063224D01*
X176003900Y-30156054D01*
X176238211Y-30218838D01*
X176418586Y-30242584D01*
X176478711Y-30250500D01*
X176478712Y-30250500D01*
X176721289Y-30250500D01*
X176769388Y-30244167D01*
X176961789Y-30218838D01*
X177196100Y-30156054D01*
X177420212Y-30063224D01*
X177630289Y-29941936D01*
X177822738Y-29794265D01*
X177994265Y-29622738D01*
X178141936Y-29430289D01*
X178263224Y-29220212D01*
X178356054Y-28996100D01*
X178418838Y-28761789D01*
X178450500Y-28521288D01*
X178450500Y-28278712D01*
X178418838Y-28038211D01*
X178356054Y-27803900D01*
X178263224Y-27579788D01*
X178141936Y-27369711D01*
X177994265Y-27177262D01*
X177994260Y-27177256D01*
X177822743Y-27005739D01*
X177822736Y-27005733D01*
X177630293Y-26858067D01*
X177630292Y-26858066D01*
X177630289Y-26858064D01*
X177420212Y-26736776D01*
X177420205Y-26736773D01*
X177196104Y-26643947D01*
X176961785Y-26581161D01*
X176721289Y-26549500D01*
X176721288Y-26549500D01*
X176478712Y-26549500D01*
X176478711Y-26549500D01*
X176238214Y-26581161D01*
X176003895Y-26643947D01*
X175779794Y-26736773D01*
X175779785Y-26736777D01*
X175569706Y-26858067D01*
X175377263Y-27005733D01*
X175377256Y-27005739D01*
X175205739Y-27177256D01*
X175205733Y-27177263D01*
X175058067Y-27369706D01*
X174936777Y-27579785D01*
X174936773Y-27579794D01*
X174843947Y-27803895D01*
X174781161Y-28038214D01*
X174749500Y-28278711D01*
X122800500Y-28278711D01*
X122800500Y-28120944D01*
X122800499Y-28120938D01*
X122795794Y-28103379D01*
X122794755Y-28099500D01*
X122759577Y-27968215D01*
X122726325Y-27910621D01*
X122680520Y-27831284D01*
X122629667Y-27780431D01*
X122624097Y-27772855D01*
X122615250Y-27748499D01*
X122602834Y-27725760D01*
X122601085Y-27709500D01*
X122600244Y-27707183D01*
X122600645Y-27705409D01*
X122600000Y-27699402D01*
X122600000Y-27349513D01*
X122619685Y-27282474D01*
X122655139Y-27247019D01*
X122655000Y-27246833D01*
X122656296Y-27245862D01*
X122656961Y-27245197D01*
X122658543Y-27244181D01*
X122711347Y-27198426D01*
X122805567Y-27089692D01*
X122865338Y-26958815D01*
X122885023Y-26891776D01*
X122885024Y-26891772D01*
X122905500Y-26749356D01*
X122905500Y-25624500D01*
X122925185Y-25557461D01*
X122977989Y-25511706D01*
X123029500Y-25500500D01*
X179375500Y-25500500D01*
X179442539Y-25520185D01*
G37*
%TD.AperFunction*%
%TD*%
%TA.AperFunction,Conductor*%
%TO.N,GND*%
G36*
X122343039Y-25520185D02*
G01*
X122388794Y-25572989D01*
X122400000Y-25624500D01*
X122400000Y-26749356D01*
X122380315Y-26816395D01*
X122327511Y-26862150D01*
X122258353Y-26872094D01*
X122194797Y-26843069D01*
X122157023Y-26784291D01*
X122153527Y-26768754D01*
X122148461Y-26736773D01*
X122146555Y-26724736D01*
X122117967Y-26636750D01*
X122089380Y-26548767D01*
X122089379Y-26548764D01*
X122005377Y-26383903D01*
X121999999Y-26376501D01*
X121896621Y-26234213D01*
X121765787Y-26103379D01*
X121616096Y-25994622D01*
X121562778Y-25967455D01*
X121451235Y-25910620D01*
X121451232Y-25910619D01*
X121275265Y-25853445D01*
X121132972Y-25830908D01*
X121092514Y-25824500D01*
X120907486Y-25824500D01*
X120867028Y-25830908D01*
X120724734Y-25853445D01*
X120548767Y-25910619D01*
X120548764Y-25910620D01*
X120383903Y-25994622D01*
X120304188Y-26052539D01*
X120234213Y-26103379D01*
X120234211Y-26103381D01*
X120234210Y-26103381D01*
X120103381Y-26234210D01*
X120100314Y-26238432D01*
X120044981Y-26281094D01*
X119975367Y-26287069D01*
X119913574Y-26254459D01*
X119899686Y-26238432D01*
X119896621Y-26234213D01*
X119765787Y-26103379D01*
X119616096Y-25994622D01*
X119562778Y-25967455D01*
X119451235Y-25910620D01*
X119451232Y-25910619D01*
X119275265Y-25853445D01*
X119132972Y-25830908D01*
X119092514Y-25824500D01*
X118907486Y-25824500D01*
X118867028Y-25830908D01*
X118724734Y-25853445D01*
X118548767Y-25910619D01*
X118548764Y-25910620D01*
X118383900Y-25994624D01*
X118268392Y-26078545D01*
X118202586Y-26102025D01*
X118134532Y-26086199D01*
X118096241Y-26052539D01*
X118052884Y-25994622D01*
X118032546Y-25967454D01*
X118032544Y-25967453D01*
X118032544Y-25967452D01*
X117917335Y-25881206D01*
X117917328Y-25881202D01*
X117782482Y-25830908D01*
X117782483Y-25830908D01*
X117722883Y-25824501D01*
X117722881Y-25824500D01*
X117722873Y-25824500D01*
X117722864Y-25824500D01*
X116277129Y-25824500D01*
X116277123Y-25824501D01*
X116217516Y-25830908D01*
X116082671Y-25881202D01*
X116082664Y-25881206D01*
X115967455Y-25967452D01*
X115967452Y-25967455D01*
X115881206Y-26082664D01*
X115881202Y-26082671D01*
X115830908Y-26217517D01*
X115824501Y-26277116D01*
X115824500Y-26277135D01*
X115824500Y-27722870D01*
X115824501Y-27722876D01*
X115830908Y-27782483D01*
X115881202Y-27917328D01*
X115881206Y-27917335D01*
X115967452Y-28032544D01*
X115967453Y-28032544D01*
X115967454Y-28032546D01*
X116018740Y-28070939D01*
X116052539Y-28096241D01*
X116094409Y-28152175D01*
X116099393Y-28221867D01*
X116078545Y-28268392D01*
X115994624Y-28383900D01*
X115910620Y-28548764D01*
X115910619Y-28548767D01*
X115853445Y-28724734D01*
X115824500Y-28907486D01*
X115824500Y-29092513D01*
X115853445Y-29275265D01*
X115910619Y-29451232D01*
X115910620Y-29451235D01*
X115994622Y-29616096D01*
X116103379Y-29765787D01*
X116234213Y-29896621D01*
X116383904Y-30005378D01*
X116464763Y-30046577D01*
X116548764Y-30089379D01*
X116548767Y-30089380D01*
X116636750Y-30117967D01*
X116724736Y-30146555D01*
X116907486Y-30175500D01*
X116907487Y-30175500D01*
X117092513Y-30175500D01*
X117092514Y-30175500D01*
X117275264Y-30146555D01*
X117451235Y-30089379D01*
X117616096Y-30005378D01*
X117765787Y-29896621D01*
X117896621Y-29765787D01*
X117899680Y-29761576D01*
X117955006Y-29718909D01*
X118024619Y-29712926D01*
X118086415Y-29745529D01*
X118100315Y-29761570D01*
X118103379Y-29765787D01*
X118234213Y-29896621D01*
X118383904Y-30005378D01*
X118464763Y-30046577D01*
X118548764Y-30089379D01*
X118548767Y-30089380D01*
X118636750Y-30117967D01*
X118724736Y-30146555D01*
X118907486Y-30175500D01*
X118907487Y-30175500D01*
X119092513Y-30175500D01*
X119092514Y-30175500D01*
X119275264Y-30146555D01*
X119451235Y-30089379D01*
X119616096Y-30005378D01*
X119765787Y-29896621D01*
X119896621Y-29765787D01*
X120005378Y-29616096D01*
X120089379Y-29451235D01*
X120146555Y-29275264D01*
X120175500Y-29092514D01*
X120175500Y-28907486D01*
X120146555Y-28724736D01*
X120089379Y-28548765D01*
X120089379Y-28548764D01*
X120038411Y-28448735D01*
X120005378Y-28383904D01*
X119896621Y-28234213D01*
X119765787Y-28103379D01*
X119761576Y-28100319D01*
X119718909Y-28044994D01*
X119712926Y-27975381D01*
X119745529Y-27913585D01*
X119746777Y-27912319D01*
X119753675Y-27905420D01*
X119765787Y-27896621D01*
X119896621Y-27765787D01*
X119905420Y-27753675D01*
X119912319Y-27746777D01*
X119934757Y-27734524D01*
X119955006Y-27718909D01*
X119964914Y-27718057D01*
X119973642Y-27713292D01*
X119999142Y-27715115D01*
X120024619Y-27712926D01*
X120033414Y-27717566D01*
X120043334Y-27718276D01*
X120063802Y-27733598D01*
X120086415Y-27745529D01*
X120098742Y-27759755D01*
X120099267Y-27760148D01*
X120099406Y-27760521D01*
X120100315Y-27761570D01*
X120103379Y-27765787D01*
X120234213Y-27896621D01*
X120383904Y-28005378D01*
X120437224Y-28032546D01*
X120548764Y-28089379D01*
X120548767Y-28089380D01*
X120591859Y-28103381D01*
X120724736Y-28146555D01*
X120907486Y-28175500D01*
X120907487Y-28175500D01*
X121092513Y-28175500D01*
X121092514Y-28175500D01*
X121231901Y-28153423D01*
X121301194Y-28162378D01*
X121338980Y-28188215D01*
X121563181Y-28412416D01*
X121596666Y-28473739D01*
X121599500Y-28500097D01*
X121599500Y-30099902D01*
X121579815Y-30166941D01*
X121563181Y-30187583D01*
X119587584Y-32163181D01*
X119526261Y-32196666D01*
X119499903Y-32199500D01*
X115194168Y-32199500D01*
X115127129Y-32179815D01*
X115081374Y-32127011D01*
X115071430Y-32057853D01*
X115091067Y-32006608D01*
X115109389Y-31979187D01*
X115109390Y-31979184D01*
X115109394Y-31979179D01*
X115169737Y-31833497D01*
X115200500Y-31678842D01*
X115200500Y-31521158D01*
X115200500Y-31521155D01*
X115200499Y-31521153D01*
X115180543Y-31420827D01*
X115169737Y-31366503D01*
X115137929Y-31289711D01*
X115109397Y-31220827D01*
X115109390Y-31220814D01*
X115021789Y-31089711D01*
X115021786Y-31089707D01*
X114910292Y-30978213D01*
X114910288Y-30978210D01*
X114779185Y-30890609D01*
X114779172Y-30890602D01*
X114633501Y-30830264D01*
X114633489Y-30830261D01*
X114478845Y-30799500D01*
X114478842Y-30799500D01*
X114321158Y-30799500D01*
X114321155Y-30799500D01*
X114166510Y-30830261D01*
X114166498Y-30830264D01*
X114020827Y-30890602D01*
X114020814Y-30890609D01*
X113889711Y-30978210D01*
X113889707Y-30978213D01*
X113778213Y-31089707D01*
X113778210Y-31089711D01*
X113690609Y-31220814D01*
X113690602Y-31220827D01*
X113630264Y-31366498D01*
X113630261Y-31366510D01*
X113599500Y-31521153D01*
X113599500Y-31678846D01*
X113630261Y-31833489D01*
X113630264Y-31833501D01*
X113690602Y-31979172D01*
X113690610Y-31979187D01*
X113708933Y-32006608D01*
X113729812Y-32073285D01*
X113711328Y-32140666D01*
X113659350Y-32187356D01*
X113605832Y-32199500D01*
X112686669Y-32199500D01*
X112686653Y-32199499D01*
X112679057Y-32199499D01*
X112520943Y-32199499D01*
X112413587Y-32228265D01*
X112368210Y-32240424D01*
X112368209Y-32240425D01*
X112318096Y-32269359D01*
X112318095Y-32269360D01*
X112274689Y-32294420D01*
X112231285Y-32319479D01*
X112231282Y-32319481D01*
X112119478Y-32431286D01*
X107002551Y-37548212D01*
X106941228Y-37581697D01*
X106871536Y-37576713D01*
X106815603Y-37534841D01*
X106793253Y-37484722D01*
X106769738Y-37366510D01*
X106769737Y-37366503D01*
X106746452Y-37310288D01*
X106709397Y-37220827D01*
X106709390Y-37220814D01*
X106621789Y-37089711D01*
X106621786Y-37089707D01*
X106510292Y-36978213D01*
X106510288Y-36978210D01*
X106379185Y-36890609D01*
X106379172Y-36890602D01*
X106233501Y-36830264D01*
X106233489Y-36830261D01*
X106078845Y-36799500D01*
X106078842Y-36799500D01*
X105921158Y-36799500D01*
X105921155Y-36799500D01*
X105766510Y-36830261D01*
X105766498Y-36830264D01*
X105620827Y-36890602D01*
X105620814Y-36890609D01*
X105489127Y-36978601D01*
X105422450Y-36999479D01*
X105420236Y-36999499D01*
X105320943Y-36999499D01*
X105244579Y-37019961D01*
X105168214Y-37040423D01*
X105168209Y-37040426D01*
X105031290Y-37119475D01*
X105031282Y-37119481D01*
X101919481Y-40231282D01*
X101919479Y-40231285D01*
X101878830Y-40301692D01*
X101876761Y-40305276D01*
X101840423Y-40368215D01*
X101833565Y-40393805D01*
X101828216Y-40404693D01*
X101812465Y-40421861D01*
X101800335Y-40441762D01*
X101786465Y-40450202D01*
X101780983Y-40456179D01*
X101773342Y-40458189D01*
X101760102Y-40466247D01*
X101400000Y-40599999D01*
X101400000Y-43532303D01*
X101380315Y-43599342D01*
X101363681Y-43619984D01*
X99821484Y-45162181D01*
X99760161Y-45195666D01*
X99733803Y-45198500D01*
X92499098Y-45198500D01*
X92432059Y-45178815D01*
X92411417Y-45162181D01*
X90636819Y-43387583D01*
X90603334Y-43326260D01*
X90600500Y-43299902D01*
X90600500Y-37666259D01*
X90620185Y-37599220D01*
X90672989Y-37553465D01*
X90677048Y-37551698D01*
X90779172Y-37509397D01*
X90779172Y-37509396D01*
X90779179Y-37509394D01*
X90910289Y-37421789D01*
X91021789Y-37310289D01*
X91109394Y-37179179D01*
X91169737Y-37033497D01*
X91200500Y-36878842D01*
X91200500Y-36721158D01*
X91200500Y-36721155D01*
X91200499Y-36721153D01*
X91192126Y-36679060D01*
X91169737Y-36566503D01*
X91169735Y-36566498D01*
X91109397Y-36420827D01*
X91109390Y-36420814D01*
X91021789Y-36289711D01*
X91019766Y-36287688D01*
X91019043Y-36286365D01*
X91017924Y-36285001D01*
X91018182Y-36284788D01*
X90986276Y-36226368D01*
X90991255Y-36156676D01*
X91017999Y-36115060D01*
X91017924Y-36114999D01*
X91018454Y-36114351D01*
X91019766Y-36112312D01*
X91021789Y-36110289D01*
X91109394Y-35979179D01*
X91169737Y-35833497D01*
X91200500Y-35678842D01*
X91200500Y-35521158D01*
X91200500Y-35521155D01*
X91200499Y-35521153D01*
X91169738Y-35366510D01*
X91169738Y-35366508D01*
X91169737Y-35366503D01*
X91169735Y-35366498D01*
X91109397Y-35220827D01*
X91109390Y-35220814D01*
X91021789Y-35089711D01*
X91021786Y-35089707D01*
X90910292Y-34978213D01*
X90910288Y-34978210D01*
X90779185Y-34890609D01*
X90779172Y-34890602D01*
X90633501Y-34830264D01*
X90633489Y-34830261D01*
X90478845Y-34799500D01*
X90478842Y-34799500D01*
X90321158Y-34799500D01*
X90321155Y-34799500D01*
X90166510Y-34830261D01*
X90166498Y-34830264D01*
X90020827Y-34890602D01*
X90020814Y-34890609D01*
X89889711Y-34978210D01*
X89889707Y-34978213D01*
X89778213Y-35089707D01*
X89778210Y-35089711D01*
X89690609Y-35220814D01*
X89690602Y-35220827D01*
X89630264Y-35366498D01*
X89630261Y-35366508D01*
X89599362Y-35521848D01*
X89566977Y-35583759D01*
X89565426Y-35585337D01*
X89031286Y-36119478D01*
X88919481Y-36231282D01*
X88919479Y-36231285D01*
X88874385Y-36309392D01*
X88874384Y-36309393D01*
X88840423Y-36368214D01*
X88840423Y-36368215D01*
X88799499Y-36520943D01*
X88799499Y-36520945D01*
X88799499Y-36689046D01*
X88799500Y-36689059D01*
X88799500Y-44120939D01*
X88799499Y-44120943D01*
X88799499Y-44250902D01*
X88779814Y-44317941D01*
X88727010Y-44363696D01*
X88666545Y-44372389D01*
X88657852Y-44373639D01*
X88657851Y-44373638D01*
X88657851Y-44373639D01*
X88636078Y-44363695D01*
X88594296Y-44344614D01*
X88587818Y-44338582D01*
X87036819Y-42787583D01*
X87003334Y-42726260D01*
X87000500Y-42699902D01*
X87000500Y-39089060D01*
X87000501Y-39089047D01*
X87000501Y-38920944D01*
X86959576Y-38768214D01*
X86959573Y-38768209D01*
X86880524Y-38631290D01*
X86880518Y-38631282D01*
X86234573Y-37985337D01*
X86201088Y-37924014D01*
X86200637Y-37921847D01*
X86176642Y-37801216D01*
X86169737Y-37766503D01*
X86128215Y-37666259D01*
X86109397Y-37620827D01*
X86109390Y-37620814D01*
X86021789Y-37489711D01*
X86019766Y-37487688D01*
X86019043Y-37486365D01*
X86017924Y-37485001D01*
X86018182Y-37484788D01*
X85986276Y-37426368D01*
X85991255Y-37356676D01*
X86017999Y-37315060D01*
X86017924Y-37314999D01*
X86018454Y-37314351D01*
X86019766Y-37312312D01*
X86021789Y-37310289D01*
X86109394Y-37179179D01*
X86169737Y-37033497D01*
X86200500Y-36878842D01*
X86200500Y-36721158D01*
X86200500Y-36721155D01*
X86200499Y-36721153D01*
X86192126Y-36679060D01*
X86169737Y-36566503D01*
X86169735Y-36566498D01*
X86109397Y-36420827D01*
X86109390Y-36420814D01*
X86021789Y-36289711D01*
X86019766Y-36287688D01*
X86019043Y-36286365D01*
X86017924Y-36285001D01*
X86018182Y-36284788D01*
X85986276Y-36226368D01*
X85991255Y-36156676D01*
X86017999Y-36115060D01*
X86017924Y-36114999D01*
X86018454Y-36114351D01*
X86019766Y-36112312D01*
X86021789Y-36110289D01*
X86109394Y-35979179D01*
X86169737Y-35833497D01*
X86200500Y-35678842D01*
X86200500Y-35521158D01*
X86200500Y-35521155D01*
X86200499Y-35521153D01*
X86169738Y-35366510D01*
X86169738Y-35366508D01*
X86169737Y-35366503D01*
X86169735Y-35366498D01*
X86109397Y-35220827D01*
X86109390Y-35220814D01*
X86021789Y-35089711D01*
X86021786Y-35089707D01*
X85910292Y-34978213D01*
X85910288Y-34978210D01*
X85779185Y-34890609D01*
X85779172Y-34890602D01*
X85633501Y-34830264D01*
X85633489Y-34830261D01*
X85478845Y-34799500D01*
X85478842Y-34799500D01*
X85321158Y-34799500D01*
X85321155Y-34799500D01*
X85166510Y-34830261D01*
X85166498Y-34830264D01*
X85020827Y-34890602D01*
X85020814Y-34890609D01*
X84889711Y-34978210D01*
X84889707Y-34978213D01*
X84778213Y-35089707D01*
X84778210Y-35089711D01*
X84690609Y-35220814D01*
X84690602Y-35220827D01*
X84630264Y-35366498D01*
X84630261Y-35366508D01*
X84599361Y-35521850D01*
X84566976Y-35583761D01*
X84565425Y-35585339D01*
X83719481Y-36431282D01*
X83719479Y-36431285D01*
X83669361Y-36518094D01*
X83669359Y-36518096D01*
X83640425Y-36568209D01*
X83640424Y-36568210D01*
X83640423Y-36568215D01*
X83599499Y-36720943D01*
X83599499Y-36720945D01*
X83599499Y-36889046D01*
X83599500Y-36889059D01*
X83599500Y-46620234D01*
X83579815Y-46687273D01*
X83578602Y-46689125D01*
X83490609Y-46820814D01*
X83490602Y-46820827D01*
X83430264Y-46966498D01*
X83430261Y-46966510D01*
X83399500Y-47121153D01*
X83399500Y-47278846D01*
X83430261Y-47433489D01*
X83430264Y-47433501D01*
X83490602Y-47579172D01*
X83490609Y-47579185D01*
X83578210Y-47710288D01*
X83578213Y-47710292D01*
X83689707Y-47821786D01*
X83689711Y-47821789D01*
X83820814Y-47909390D01*
X83820827Y-47909397D01*
X83966498Y-47969735D01*
X83966503Y-47969737D01*
X84076987Y-47991713D01*
X84099691Y-47996230D01*
X84161602Y-48028615D01*
X84196176Y-48089330D01*
X84199500Y-48117847D01*
X84199500Y-48882152D01*
X84179815Y-48949191D01*
X84127011Y-48994946D01*
X84099692Y-49003769D01*
X83966508Y-49030261D01*
X83966498Y-49030264D01*
X83820827Y-49090602D01*
X83820814Y-49090609D01*
X83689711Y-49178210D01*
X83689707Y-49178213D01*
X83578213Y-49289707D01*
X83578210Y-49289711D01*
X83490609Y-49420814D01*
X83490602Y-49420827D01*
X83430264Y-49566498D01*
X83430261Y-49566510D01*
X83399500Y-49721153D01*
X83399500Y-49878846D01*
X83430261Y-50033489D01*
X83430264Y-50033501D01*
X83490602Y-50179172D01*
X83490609Y-50179185D01*
X83578210Y-50310288D01*
X83578213Y-50310292D01*
X83689707Y-50421786D01*
X83689711Y-50421789D01*
X83820814Y-50509390D01*
X83820827Y-50509397D01*
X83941972Y-50559576D01*
X83966503Y-50569737D01*
X84121153Y-50600499D01*
X84121156Y-50600500D01*
X84121158Y-50600500D01*
X84278844Y-50600500D01*
X84278845Y-50600499D01*
X84433497Y-50569737D01*
X84579179Y-50509394D01*
X84710289Y-50421789D01*
X84821789Y-50310289D01*
X84909394Y-50179179D01*
X84969737Y-50033497D01*
X85000500Y-49878842D01*
X85000500Y-49878839D01*
X85000637Y-49878151D01*
X85009402Y-49861394D01*
X85013422Y-49842915D01*
X85032162Y-49817880D01*
X85033021Y-49816240D01*
X85034527Y-49814707D01*
X85168713Y-49680521D01*
X85168716Y-49680520D01*
X85280520Y-49568716D01*
X85330639Y-49481904D01*
X85359577Y-49431785D01*
X85400500Y-49279057D01*
X85400500Y-49120943D01*
X85400500Y-39149097D01*
X85406738Y-39127851D01*
X85408318Y-39105763D01*
X85416390Y-39094979D01*
X85420185Y-39082058D01*
X85436918Y-39067558D01*
X85450190Y-39049830D01*
X85462810Y-39045122D01*
X85472989Y-39036303D01*
X85494906Y-39033151D01*
X85515654Y-39025413D01*
X85528814Y-39028275D01*
X85542147Y-39026359D01*
X85562290Y-39035558D01*
X85583927Y-39040265D01*
X85601652Y-39053533D01*
X85605703Y-39055384D01*
X85612181Y-39061416D01*
X85763181Y-39212416D01*
X85796666Y-39273739D01*
X85799500Y-39300097D01*
X85799500Y-42913330D01*
X85799499Y-42913348D01*
X85799499Y-43079054D01*
X85799498Y-43079054D01*
X85840423Y-43231786D01*
X85840424Y-43231787D01*
X85868560Y-43280520D01*
X85919480Y-43368716D01*
X85919482Y-43368718D01*
X86038349Y-43487585D01*
X86038354Y-43487589D01*
X89831284Y-47280520D01*
X89831286Y-47280521D01*
X89831290Y-47280524D01*
X89968209Y-47359573D01*
X89968216Y-47359577D01*
X90120943Y-47400501D01*
X90120945Y-47400501D01*
X90286654Y-47400501D01*
X90286670Y-47400500D01*
X91850903Y-47400500D01*
X91917942Y-47420185D01*
X91963697Y-47472989D01*
X91973641Y-47542147D01*
X91944616Y-47605703D01*
X91938584Y-47612181D01*
X86987084Y-52563681D01*
X86925761Y-52597166D01*
X86899403Y-52600000D01*
X80624500Y-52600000D01*
X80557461Y-52580315D01*
X80511706Y-52527511D01*
X80500500Y-52476000D01*
X80500500Y-43527350D01*
X80520185Y-43460311D01*
X80572989Y-43414556D01*
X80642147Y-43404612D01*
X80693391Y-43424248D01*
X80820814Y-43509390D01*
X80820827Y-43509397D01*
X80966498Y-43569735D01*
X80966503Y-43569737D01*
X81115336Y-43599342D01*
X81121153Y-43600499D01*
X81121156Y-43600500D01*
X81121158Y-43600500D01*
X81278844Y-43600500D01*
X81278845Y-43600499D01*
X81433497Y-43569737D01*
X81579179Y-43509394D01*
X81710289Y-43421789D01*
X81821789Y-43310289D01*
X81909394Y-43179179D01*
X81969737Y-43033497D01*
X82000500Y-42878842D01*
X82000500Y-42721158D01*
X82000500Y-42721155D01*
X82000499Y-42721153D01*
X81969738Y-42566510D01*
X81969737Y-42566503D01*
X81969735Y-42566498D01*
X81909397Y-42420827D01*
X81909390Y-42420814D01*
X81821789Y-42289711D01*
X81821786Y-42289707D01*
X81710292Y-42178213D01*
X81710288Y-42178210D01*
X81579185Y-42090609D01*
X81579172Y-42090602D01*
X81433501Y-42030264D01*
X81433489Y-42030261D01*
X81278845Y-41999500D01*
X81278842Y-41999500D01*
X81121158Y-41999500D01*
X81121155Y-41999500D01*
X80966510Y-42030261D01*
X80966498Y-42030264D01*
X80820827Y-42090602D01*
X80820814Y-42090609D01*
X80693391Y-42175751D01*
X80626713Y-42196629D01*
X80559333Y-42178144D01*
X80512643Y-42126165D01*
X80500500Y-42072649D01*
X80500500Y-33208653D01*
X103687000Y-33208653D01*
X103687000Y-33366346D01*
X103717761Y-33520989D01*
X103717764Y-33521001D01*
X103778102Y-33666672D01*
X103778109Y-33666685D01*
X103865710Y-33797788D01*
X103865713Y-33797792D01*
X103977207Y-33909286D01*
X103977211Y-33909289D01*
X104108314Y-33996890D01*
X104108327Y-33996897D01*
X104253998Y-34057235D01*
X104254003Y-34057237D01*
X104408653Y-34087999D01*
X104408656Y-34088000D01*
X104408658Y-34088000D01*
X104566344Y-34088000D01*
X104566345Y-34087999D01*
X104720997Y-34057237D01*
X104866679Y-33996894D01*
X104997789Y-33909289D01*
X105109289Y-33797789D01*
X105196894Y-33666679D01*
X105257237Y-33520997D01*
X105288000Y-33366342D01*
X105288000Y-33208658D01*
X105288000Y-33208655D01*
X105287999Y-33208653D01*
X105257238Y-33054010D01*
X105257237Y-33054003D01*
X105257235Y-33053998D01*
X105196897Y-32908327D01*
X105196890Y-32908314D01*
X105109289Y-32777211D01*
X105109286Y-32777207D01*
X104997792Y-32665713D01*
X104997788Y-32665710D01*
X104866685Y-32578109D01*
X104866672Y-32578102D01*
X104721001Y-32517764D01*
X104720989Y-32517761D01*
X104566345Y-32487000D01*
X104566342Y-32487000D01*
X104408658Y-32487000D01*
X104408655Y-32487000D01*
X104254010Y-32517761D01*
X104253998Y-32517764D01*
X104108327Y-32578102D01*
X104108314Y-32578109D01*
X103977211Y-32665710D01*
X103977207Y-32665713D01*
X103865713Y-32777207D01*
X103865710Y-32777211D01*
X103778109Y-32908314D01*
X103778102Y-32908327D01*
X103717764Y-33053998D01*
X103717761Y-33054010D01*
X103687000Y-33208653D01*
X80500500Y-33208653D01*
X80500500Y-31721153D01*
X109399500Y-31721153D01*
X109399500Y-31878846D01*
X109430261Y-32033489D01*
X109430264Y-32033501D01*
X109490602Y-32179172D01*
X109490609Y-32179185D01*
X109578210Y-32310288D01*
X109578213Y-32310292D01*
X109689707Y-32421786D01*
X109689711Y-32421789D01*
X109820814Y-32509390D01*
X109820827Y-32509397D01*
X109966498Y-32569735D01*
X109966503Y-32569737D01*
X110121153Y-32600499D01*
X110121156Y-32600500D01*
X110121158Y-32600500D01*
X110278844Y-32600500D01*
X110278845Y-32600499D01*
X110433497Y-32569737D01*
X110579179Y-32509394D01*
X110710289Y-32421789D01*
X110821789Y-32310289D01*
X110909394Y-32179179D01*
X110969737Y-32033497D01*
X111000500Y-31878842D01*
X111000500Y-31721158D01*
X111000500Y-31721155D01*
X111000499Y-31721153D01*
X110969737Y-31566503D01*
X110950955Y-31521158D01*
X110909397Y-31420827D01*
X110909390Y-31420814D01*
X110821789Y-31289711D01*
X110821786Y-31289707D01*
X110710292Y-31178213D01*
X110710288Y-31178210D01*
X110579185Y-31090609D01*
X110579172Y-31090602D01*
X110433501Y-31030264D01*
X110433489Y-31030261D01*
X110278845Y-30999500D01*
X110278842Y-30999500D01*
X110121158Y-30999500D01*
X110121155Y-30999500D01*
X109966510Y-31030261D01*
X109966498Y-31030264D01*
X109820827Y-31090602D01*
X109820814Y-31090609D01*
X109689711Y-31178210D01*
X109689707Y-31178213D01*
X109578213Y-31289707D01*
X109578210Y-31289711D01*
X109490609Y-31420814D01*
X109490602Y-31420827D01*
X109430264Y-31566498D01*
X109430261Y-31566510D01*
X109399500Y-31721153D01*
X80500500Y-31721153D01*
X80500500Y-28278711D01*
X81549500Y-28278711D01*
X81549500Y-28521288D01*
X81581161Y-28761785D01*
X81643947Y-28996104D01*
X81736773Y-29220205D01*
X81736776Y-29220212D01*
X81858064Y-29430289D01*
X81858066Y-29430292D01*
X81858067Y-29430293D01*
X82005733Y-29622736D01*
X82005739Y-29622743D01*
X82177256Y-29794260D01*
X82177262Y-29794265D01*
X82369711Y-29941936D01*
X82579788Y-30063224D01*
X82803900Y-30156054D01*
X83038211Y-30218838D01*
X83218586Y-30242584D01*
X83278711Y-30250500D01*
X83278712Y-30250500D01*
X83521289Y-30250500D01*
X83569388Y-30244167D01*
X83761789Y-30218838D01*
X83996100Y-30156054D01*
X84220212Y-30063224D01*
X84430289Y-29941936D01*
X84622738Y-29794265D01*
X84794265Y-29622738D01*
X84941936Y-29430289D01*
X85063224Y-29220212D01*
X85156054Y-28996100D01*
X85218838Y-28761789D01*
X85250500Y-28521288D01*
X85250500Y-28278712D01*
X85218838Y-28038211D01*
X85156054Y-27803900D01*
X85063224Y-27579788D01*
X84941936Y-27369711D01*
X84794265Y-27177262D01*
X84794260Y-27177256D01*
X84622743Y-27005739D01*
X84622736Y-27005733D01*
X84430293Y-26858067D01*
X84430292Y-26858066D01*
X84430289Y-26858064D01*
X84220212Y-26736776D01*
X84191140Y-26724734D01*
X83996104Y-26643947D01*
X83761785Y-26581161D01*
X83521289Y-26549500D01*
X83521288Y-26549500D01*
X83278712Y-26549500D01*
X83278711Y-26549500D01*
X83038214Y-26581161D01*
X82803895Y-26643947D01*
X82579794Y-26736773D01*
X82579785Y-26736777D01*
X82369706Y-26858067D01*
X82177263Y-27005733D01*
X82177256Y-27005739D01*
X82005739Y-27177256D01*
X82005733Y-27177263D01*
X81858067Y-27369706D01*
X81736777Y-27579785D01*
X81736773Y-27579794D01*
X81643947Y-27803895D01*
X81581161Y-28038214D01*
X81549500Y-28278711D01*
X80500500Y-28278711D01*
X80500500Y-25624500D01*
X80520185Y-25557461D01*
X80572989Y-25511706D01*
X80624500Y-25500500D01*
X122276000Y-25500500D01*
X122343039Y-25520185D01*
G37*
%TD.AperFunction*%
%TA.AperFunction,Conductor*%
G36*
X97200000Y-52600000D02*
G01*
X97184019Y-52600000D01*
X97176742Y-52539249D01*
X97181591Y-52510370D01*
X97183680Y-52481166D01*
X97187309Y-52476317D01*
X97188313Y-52470344D01*
X97200000Y-52457481D01*
X97200000Y-52600000D01*
G37*
%TD.AperFunction*%
%TD*%
%TA.AperFunction,Conductor*%
%TO.N,+12V*%
G36*
X96637539Y-53619685D02*
G01*
X96683294Y-53672489D01*
X96694500Y-53724000D01*
X96694500Y-59505634D01*
X96674815Y-59572673D01*
X96645988Y-59604008D01*
X96612960Y-59629352D01*
X96612949Y-59629362D01*
X96404358Y-59837952D01*
X96404352Y-59837959D01*
X96224761Y-60072006D01*
X96077258Y-60327489D01*
X96077254Y-60327499D01*
X95964364Y-60600038D01*
X95964361Y-60600048D01*
X95888008Y-60885004D01*
X95888006Y-60885015D01*
X95849500Y-61177486D01*
X95849500Y-61472513D01*
X95881571Y-61716113D01*
X95888007Y-61764993D01*
X95888008Y-61764995D01*
X95964361Y-62049951D01*
X95964364Y-62049961D01*
X96077254Y-62322500D01*
X96077258Y-62322510D01*
X96224761Y-62577993D01*
X96404352Y-62812040D01*
X96404358Y-62812047D01*
X96612952Y-63020641D01*
X96612958Y-63020646D01*
X96751487Y-63126943D01*
X96792689Y-63183370D01*
X96800000Y-63225318D01*
X96800000Y-63400000D01*
X97203988Y-63400000D01*
X97251440Y-63409439D01*
X97375048Y-63460639D01*
X97660007Y-63536993D01*
X97952494Y-63575500D01*
X97952501Y-63575500D01*
X98247499Y-63575500D01*
X98247506Y-63575500D01*
X98539993Y-63536993D01*
X98641759Y-63509724D01*
X98673852Y-63505500D01*
X101148640Y-63505500D01*
X101158786Y-63504955D01*
X101202678Y-63502603D01*
X101202686Y-63502602D01*
X101202688Y-63502602D01*
X101202689Y-63502602D01*
X101209682Y-63501849D01*
X101229036Y-63499769D01*
X101229046Y-63499767D01*
X101229049Y-63499767D01*
X101238648Y-63498211D01*
X101282448Y-63491114D01*
X101417257Y-63440832D01*
X101464259Y-63415166D01*
X101523684Y-63400000D01*
X101600000Y-63400000D01*
X102600000Y-62400000D01*
X102600000Y-58851362D01*
X102619685Y-58784323D01*
X102636319Y-58763681D01*
X103258181Y-58141819D01*
X103319504Y-58108334D01*
X103345862Y-58105500D01*
X108654138Y-58105500D01*
X108721177Y-58125185D01*
X108741819Y-58141819D01*
X110800000Y-60200000D01*
X112219486Y-60200000D01*
X112286525Y-60219685D01*
X112288377Y-60220898D01*
X112420814Y-60309390D01*
X112420827Y-60309397D01*
X112566498Y-60369735D01*
X112566503Y-60369737D01*
X112721153Y-60400499D01*
X112721156Y-60400500D01*
X112721158Y-60400500D01*
X112878844Y-60400500D01*
X112878845Y-60400499D01*
X113033497Y-60369737D01*
X113179179Y-60309394D01*
X113179185Y-60309390D01*
X113311623Y-60220898D01*
X113378300Y-60200020D01*
X113380514Y-60200000D01*
X116600000Y-60200000D01*
X117600000Y-59200000D01*
X117600000Y-54724500D01*
X117619685Y-54657461D01*
X117672489Y-54611706D01*
X117724000Y-54600500D01*
X121276000Y-54600500D01*
X121343039Y-54620185D01*
X121388794Y-54672989D01*
X121400000Y-54724500D01*
X121400000Y-56476000D01*
X121380315Y-56543039D01*
X121327511Y-56588794D01*
X121276000Y-56600000D01*
X119200000Y-56600000D01*
X119200000Y-62548638D01*
X119180315Y-62615677D01*
X119163681Y-62636319D01*
X118436319Y-63363681D01*
X118374996Y-63397166D01*
X118348638Y-63400000D01*
X113380514Y-63400000D01*
X113313475Y-63380315D01*
X113311623Y-63379102D01*
X113179185Y-63290609D01*
X113179172Y-63290602D01*
X113033501Y-63230264D01*
X113033489Y-63230261D01*
X112878845Y-63199500D01*
X112878842Y-63199500D01*
X112721158Y-63199500D01*
X112721155Y-63199500D01*
X112566510Y-63230261D01*
X112566498Y-63230264D01*
X112420827Y-63290602D01*
X112420814Y-63290609D01*
X112289711Y-63378210D01*
X112289707Y-63378213D01*
X112178213Y-63489707D01*
X112178210Y-63489711D01*
X112090609Y-63620814D01*
X112090602Y-63620827D01*
X112030264Y-63766498D01*
X112030261Y-63766510D01*
X111999500Y-63921153D01*
X111999500Y-63949138D01*
X111979815Y-64016177D01*
X111963181Y-64036819D01*
X111800000Y-64199999D01*
X111800000Y-65748638D01*
X111780315Y-65815677D01*
X111763681Y-65836319D01*
X111236319Y-66363681D01*
X111174996Y-66397166D01*
X111148638Y-66400000D01*
X89124000Y-66400000D01*
X89056961Y-66380315D01*
X89011206Y-66327511D01*
X89000000Y-66276000D01*
X89000000Y-57100597D01*
X89019685Y-57033558D01*
X89036319Y-57012916D01*
X92412916Y-53636319D01*
X92474239Y-53602834D01*
X92500597Y-53600000D01*
X96570500Y-53600000D01*
X96637539Y-53619685D01*
G37*
%TD.AperFunction*%
%TA.AperFunction,Conductor*%
G36*
X120815677Y-52219685D02*
G01*
X120836319Y-52236319D01*
X121363681Y-52763681D01*
X121397166Y-52825004D01*
X121400000Y-52851362D01*
X121400000Y-53275500D01*
X121380315Y-53342539D01*
X121327511Y-53388294D01*
X121276000Y-53399500D01*
X117724000Y-53399500D01*
X117715314Y-53396949D01*
X117706353Y-53398238D01*
X117682312Y-53387259D01*
X117656961Y-53379815D01*
X117651033Y-53372974D01*
X117642797Y-53369213D01*
X117628507Y-53346978D01*
X117611206Y-53327011D01*
X117608918Y-53316496D01*
X117605023Y-53310435D01*
X117600000Y-53275500D01*
X117600000Y-53051362D01*
X117619685Y-52984323D01*
X117636319Y-52963681D01*
X118363681Y-52236319D01*
X118425004Y-52202834D01*
X118451362Y-52200000D01*
X120748638Y-52200000D01*
X120815677Y-52219685D01*
G37*
%TD.AperFunction*%
%TD*%
%TA.AperFunction,Conductor*%
%TO.N,GND*%
G36*
X108815677Y-50619685D02*
G01*
X108836319Y-50636319D01*
X109763681Y-51563681D01*
X109797166Y-51625004D01*
X109800000Y-51651362D01*
X109800000Y-56748638D01*
X109780315Y-56815677D01*
X109763681Y-56836319D01*
X109036319Y-57563681D01*
X108974996Y-57597166D01*
X108948638Y-57600000D01*
X102999999Y-57600000D01*
X102000000Y-58599999D01*
X102000000Y-62148638D01*
X101980315Y-62215677D01*
X101963681Y-62236319D01*
X101236319Y-62963681D01*
X101174996Y-62997166D01*
X101148638Y-63000000D01*
X98051362Y-63000000D01*
X97984323Y-62980315D01*
X97963681Y-62963681D01*
X97414229Y-62414229D01*
X97391001Y-62382002D01*
X97318160Y-62236319D01*
X97307839Y-62215677D01*
X97213091Y-62026182D01*
X97200000Y-61970728D01*
X97200000Y-52589873D01*
X97200000Y-52459365D01*
X97225552Y-52425233D01*
X97291016Y-52400816D01*
X97299862Y-52400500D01*
X100913331Y-52400500D01*
X100913347Y-52400501D01*
X100920943Y-52400501D01*
X101079054Y-52400501D01*
X101079057Y-52400501D01*
X101231785Y-52359577D01*
X101281904Y-52330639D01*
X101368716Y-52280520D01*
X101480520Y-52168716D01*
X101480520Y-52168714D01*
X101490728Y-52158507D01*
X101490729Y-52158504D01*
X103012915Y-50636318D01*
X103074238Y-50602834D01*
X103100596Y-50600000D01*
X108748638Y-50600000D01*
X108815677Y-50619685D01*
G37*
%TD.AperFunction*%
%TD*%
M02*
