%TF.GenerationSoftware,KiCad,Pcbnew,9.0.0*%
%TF.CreationDate,2025-06-26T17:33:30-04:00*%
%TF.ProjectId,gps-seven-seg-clock,6770732d-7365-4766-956e-2d7365672d63,rev?*%
%TF.SameCoordinates,Original*%
%TF.FileFunction,Copper,L1,Top*%
%TF.FilePolarity,Positive*%
%FSLAX46Y46*%
G04 Gerber Fmt 4.6, Leading zero omitted, Abs format (unit mm)*
G04 Created by KiCad (PCBNEW 9.0.0) date 2025-06-26 17:33:30*
%MOMM*%
%LPD*%
G01*
G04 APERTURE LIST*
G04 Aperture macros list*
%AMRoundRect*
0 Rectangle with rounded corners*
0 $1 Rounding radius*
0 $2 $3 $4 $5 $6 $7 $8 $9 X,Y pos of 4 corners*
0 Add a 4 corners polygon primitive as box body*
4,1,4,$2,$3,$4,$5,$6,$7,$8,$9,$2,$3,0*
0 Add four circle primitives for the rounded corners*
1,1,$1+$1,$2,$3*
1,1,$1+$1,$4,$5*
1,1,$1+$1,$6,$7*
1,1,$1+$1,$8,$9*
0 Add four rect primitives between the rounded corners*
20,1,$1+$1,$2,$3,$4,$5,0*
20,1,$1+$1,$4,$5,$6,$7,0*
20,1,$1+$1,$6,$7,$8,$9,0*
20,1,$1+$1,$8,$9,$2,$3,0*%
G04 Aperture macros list end*
%TA.AperFunction,SMDPad,CuDef*%
%ADD10RoundRect,0.250000X-0.350000X0.850000X-0.350000X-0.850000X0.350000X-0.850000X0.350000X0.850000X0*%
%TD*%
%TA.AperFunction,SMDPad,CuDef*%
%ADD11RoundRect,0.250000X-1.125000X1.275000X-1.125000X-1.275000X1.125000X-1.275000X1.125000X1.275000X0*%
%TD*%
%TA.AperFunction,SMDPad,CuDef*%
%ADD12RoundRect,0.249997X-2.650003X2.950003X-2.650003X-2.950003X2.650003X-2.950003X2.650003X2.950003X0*%
%TD*%
%TA.AperFunction,ComponentPad*%
%ADD13C,0.600000*%
%TD*%
%TA.AperFunction,SMDPad,CuDef*%
%ADD14R,4.699000X3.429000*%
%TD*%
%TA.AperFunction,SMDPad,CuDef*%
%ADD15RoundRect,0.150000X0.150000X-0.825000X0.150000X0.825000X-0.150000X0.825000X-0.150000X-0.825000X0*%
%TD*%
%TA.AperFunction,SMDPad,CuDef*%
%ADD16RoundRect,0.100000X0.100000X-0.637500X0.100000X0.637500X-0.100000X0.637500X-0.100000X-0.637500X0*%
%TD*%
%TA.AperFunction,SMDPad,CuDef*%
%ADD17RoundRect,0.150000X-0.150000X0.825000X-0.150000X-0.825000X0.150000X-0.825000X0.150000X0.825000X0*%
%TD*%
%TA.AperFunction,SMDPad,CuDef*%
%ADD18RoundRect,0.250000X-0.250000X-1.100000X0.250000X-1.100000X0.250000X1.100000X-0.250000X1.100000X0*%
%TD*%
%TA.AperFunction,SMDPad,CuDef*%
%ADD19RoundRect,0.150000X-0.150000X-0.700000X0.150000X-0.700000X0.150000X0.700000X-0.150000X0.700000X0*%
%TD*%
%TA.AperFunction,SMDPad,CuDef*%
%ADD20RoundRect,0.250000X0.250000X1.100000X-0.250000X1.100000X-0.250000X-1.100000X0.250000X-1.100000X0*%
%TD*%
%TA.AperFunction,SMDPad,CuDef*%
%ADD21RoundRect,0.150000X0.150000X0.700000X-0.150000X0.700000X-0.150000X-0.700000X0.150000X-0.700000X0*%
%TD*%
%TA.AperFunction,SMDPad,CuDef*%
%ADD22R,0.550000X1.600000*%
%TD*%
%TA.AperFunction,SMDPad,CuDef*%
%ADD23R,1.600000X0.550000*%
%TD*%
%TA.AperFunction,SMDPad,CuDef*%
%ADD24RoundRect,0.250000X0.625000X-0.312500X0.625000X0.312500X-0.625000X0.312500X-0.625000X-0.312500X0*%
%TD*%
%TA.AperFunction,SMDPad,CuDef*%
%ADD25RoundRect,0.250000X-0.625000X0.312500X-0.625000X-0.312500X0.625000X-0.312500X0.625000X0.312500X0*%
%TD*%
%TA.AperFunction,SMDPad,CuDef*%
%ADD26RoundRect,0.200000X-0.200000X-0.275000X0.200000X-0.275000X0.200000X0.275000X-0.200000X0.275000X0*%
%TD*%
%TA.AperFunction,SMDPad,CuDef*%
%ADD27RoundRect,0.150000X-0.700000X0.150000X-0.700000X-0.150000X0.700000X-0.150000X0.700000X0.150000X0*%
%TD*%
%TA.AperFunction,SMDPad,CuDef*%
%ADD28RoundRect,0.250000X-1.100000X0.250000X-1.100000X-0.250000X1.100000X-0.250000X1.100000X0.250000X0*%
%TD*%
%TA.AperFunction,ComponentPad*%
%ADD29C,1.400000*%
%TD*%
%TA.AperFunction,ComponentPad*%
%ADD30RoundRect,0.770000X0.980000X0.980000X-0.980000X0.980000X-0.980000X-0.980000X0.980000X-0.980000X0*%
%TD*%
%TA.AperFunction,ComponentPad*%
%ADD31C,3.500000*%
%TD*%
%TA.AperFunction,ComponentPad*%
%ADD32R,1.350000X1.350000*%
%TD*%
%TA.AperFunction,ComponentPad*%
%ADD33O,1.350000X1.350000*%
%TD*%
%TA.AperFunction,SMDPad,CuDef*%
%ADD34R,1.500000X5.080000*%
%TD*%
%TA.AperFunction,SMDPad,CuDef*%
%ADD35RoundRect,0.225000X-0.375000X0.225000X-0.375000X-0.225000X0.375000X-0.225000X0.375000X0.225000X0*%
%TD*%
%TA.AperFunction,SMDPad,CuDef*%
%ADD36RoundRect,0.237500X-0.287500X-0.237500X0.287500X-0.237500X0.287500X0.237500X-0.287500X0.237500X0*%
%TD*%
%TA.AperFunction,SMDPad,CuDef*%
%ADD37RoundRect,0.250000X-1.500000X-0.550000X1.500000X-0.550000X1.500000X0.550000X-1.500000X0.550000X0*%
%TD*%
%TA.AperFunction,SMDPad,CuDef*%
%ADD38RoundRect,0.225000X-0.225000X-0.250000X0.225000X-0.250000X0.225000X0.250000X-0.225000X0.250000X0*%
%TD*%
%TA.AperFunction,SMDPad,CuDef*%
%ADD39RoundRect,0.150000X0.700000X-0.150000X0.700000X0.150000X-0.700000X0.150000X-0.700000X-0.150000X0*%
%TD*%
%TA.AperFunction,SMDPad,CuDef*%
%ADD40RoundRect,0.250000X1.100000X-0.250000X1.100000X0.250000X-1.100000X0.250000X-1.100000X-0.250000X0*%
%TD*%
%TA.AperFunction,SMDPad,CuDef*%
%ADD41R,3.200000X0.400000*%
%TD*%
%TA.AperFunction,SMDPad,CuDef*%
%ADD42RoundRect,0.200000X0.275000X-0.200000X0.275000X0.200000X-0.275000X0.200000X-0.275000X-0.200000X0*%
%TD*%
%TA.AperFunction,SMDPad,CuDef*%
%ADD43RoundRect,0.200000X-0.275000X0.200000X-0.275000X-0.200000X0.275000X-0.200000X0.275000X0.200000X0*%
%TD*%
%TA.AperFunction,SMDPad,CuDef*%
%ADD44RoundRect,0.200000X0.200000X0.275000X-0.200000X0.275000X-0.200000X-0.275000X0.200000X-0.275000X0*%
%TD*%
%TA.AperFunction,SMDPad,CuDef*%
%ADD45RoundRect,0.225000X0.225000X0.250000X-0.225000X0.250000X-0.225000X-0.250000X0.225000X-0.250000X0*%
%TD*%
%TA.AperFunction,SMDPad,CuDef*%
%ADD46RoundRect,0.225000X-0.250000X0.225000X-0.250000X-0.225000X0.250000X-0.225000X0.250000X0.225000X0*%
%TD*%
%TA.AperFunction,SMDPad,CuDef*%
%ADD47RoundRect,0.225000X0.250000X-0.225000X0.250000X0.225000X-0.250000X0.225000X-0.250000X-0.225000X0*%
%TD*%
%TA.AperFunction,SMDPad,CuDef*%
%ADD48RoundRect,0.250000X0.970000X0.310000X-0.970000X0.310000X-0.970000X-0.310000X0.970000X-0.310000X0*%
%TD*%
%TA.AperFunction,SMDPad,CuDef*%
%ADD49RoundRect,0.250000X0.450000X-0.325000X0.450000X0.325000X-0.450000X0.325000X-0.450000X-0.325000X0*%
%TD*%
%TA.AperFunction,SMDPad,CuDef*%
%ADD50RoundRect,0.225000X0.225000X0.375000X-0.225000X0.375000X-0.225000X-0.375000X0.225000X-0.375000X0*%
%TD*%
%TA.AperFunction,SMDPad,CuDef*%
%ADD51RoundRect,0.175000X-0.725000X-0.175000X0.725000X-0.175000X0.725000X0.175000X-0.725000X0.175000X0*%
%TD*%
%TA.AperFunction,SMDPad,CuDef*%
%ADD52RoundRect,0.200000X-0.700000X-0.200000X0.700000X-0.200000X0.700000X0.200000X-0.700000X0.200000X0*%
%TD*%
%TA.AperFunction,ViaPad*%
%ADD53C,0.600000*%
%TD*%
%TA.AperFunction,Conductor*%
%ADD54C,0.200000*%
%TD*%
G04 APERTURE END LIST*
D10*
%TO.P,Q2,1,B*%
%TO.N,Net-(Q2-B)*%
X124680000Y-53960000D03*
D11*
%TO.P,Q2,2,C*%
%TO.N,VDD*%
X123925000Y-58585000D03*
X120875000Y-58585000D03*
D12*
X122400000Y-60260000D03*
D11*
X123925000Y-61935000D03*
X120875000Y-61935000D03*
D10*
%TO.P,Q2,3,E*%
%TO.N,+12V*%
X120120000Y-53960000D03*
%TD*%
D13*
%TO.P,TP4,1,1*%
%TO.N,+12V*%
X104000000Y-59600000D03*
X104000000Y-60600000D03*
X104000000Y-61600000D03*
X104500000Y-60100000D03*
X104500000Y-61100000D03*
X105000000Y-59600000D03*
X105000000Y-60600000D03*
X105000000Y-61600000D03*
X105485900Y-61098281D03*
X105500000Y-60100000D03*
X106000000Y-59600000D03*
X106000000Y-60600000D03*
D14*
X106000000Y-60600000D03*
D13*
X106000000Y-61600000D03*
X106500000Y-60100000D03*
X106500000Y-61100000D03*
X107000000Y-59600000D03*
X107000000Y-60600000D03*
X107000000Y-61600000D03*
X107500000Y-60100000D03*
X107500000Y-61100000D03*
X108000000Y-59600000D03*
X108000000Y-60600000D03*
X108000000Y-61600000D03*
%TD*%
%TO.P,TP3,1,1*%
%TO.N,+3.3V*%
X104000000Y-71200000D03*
X104000000Y-72200000D03*
X104000000Y-73200000D03*
X104500000Y-71700000D03*
X104500000Y-72700000D03*
X105000000Y-71200000D03*
X105000000Y-72200000D03*
X105000000Y-73200000D03*
X105485900Y-72698281D03*
X105500000Y-71700000D03*
X106000000Y-71200000D03*
X106000000Y-72200000D03*
D14*
X106000000Y-72200000D03*
D13*
X106000000Y-73200000D03*
X106500000Y-71700000D03*
X106500000Y-72700000D03*
X107000000Y-71200000D03*
X107000000Y-72200000D03*
X107000000Y-73200000D03*
X107500000Y-71700000D03*
X107500000Y-72700000D03*
X108000000Y-71200000D03*
X108000000Y-72200000D03*
X108000000Y-73200000D03*
%TD*%
%TO.P,TP2,1,1*%
%TO.N,GND*%
X104000000Y-53000000D03*
X104000000Y-54000000D03*
X104000000Y-55000000D03*
X104500000Y-53500000D03*
X104500000Y-54500000D03*
X105000000Y-53000000D03*
X105000000Y-54000000D03*
X105000000Y-55000000D03*
X105485900Y-54498281D03*
X105500000Y-53500000D03*
X106000000Y-53000000D03*
X106000000Y-54000000D03*
D14*
X106000000Y-54000000D03*
D13*
X106000000Y-55000000D03*
X106500000Y-53500000D03*
X106500000Y-54500000D03*
X107000000Y-53000000D03*
X107000000Y-54000000D03*
X107000000Y-55000000D03*
X107500000Y-53500000D03*
X107500000Y-54500000D03*
X108000000Y-53000000D03*
X108000000Y-54000000D03*
X108000000Y-55000000D03*
%TD*%
%TO.P,TP1,1,1*%
%TO.N,VDD*%
X118000000Y-71200000D03*
X118000000Y-72200000D03*
X118000000Y-73200000D03*
X118500000Y-71700000D03*
X118500000Y-72700000D03*
X119000000Y-71200000D03*
X119000000Y-72200000D03*
X119000000Y-73200000D03*
X119485900Y-72698281D03*
X119500000Y-71700000D03*
X120000000Y-71200000D03*
X120000000Y-72200000D03*
D14*
X120000000Y-72200000D03*
D13*
X120000000Y-73200000D03*
X120500000Y-71700000D03*
X120500000Y-72700000D03*
X121000000Y-71200000D03*
X121000000Y-72200000D03*
X121000000Y-73200000D03*
X121500000Y-71700000D03*
X121500000Y-72700000D03*
X122000000Y-71200000D03*
X122000000Y-72200000D03*
X122000000Y-73200000D03*
%TD*%
D15*
%TO.P,U13,16,O1*%
%TO.N,/G6*%
X141955000Y-34325000D03*
%TO.P,U13,15,O2*%
%TO.N,/F6*%
X143225000Y-34325000D03*
%TO.P,U13,14,O3*%
%TO.N,/E6*%
X144495000Y-34325000D03*
%TO.P,U13,13,O4*%
%TO.N,/D6*%
X145765000Y-34325000D03*
%TO.P,U13,12,O5*%
%TO.N,/C6*%
X147035000Y-34325000D03*
%TO.P,U13,11,O6*%
%TO.N,/B6*%
X148305000Y-34325000D03*
%TO.P,U13,10,O7*%
%TO.N,/A6*%
X149575000Y-34325000D03*
%TO.P,U13,9,COM*%
%TO.N,unconnected-(U13-COM-Pad9)*%
X150845000Y-34325000D03*
%TO.P,U13,8,GND*%
%TO.N,GND*%
X150845000Y-39275000D03*
%TO.P,U13,7,I7*%
%TO.N,Net-(U11-IO1_0)*%
X149575000Y-39275000D03*
%TO.P,U13,6,I6*%
%TO.N,Net-(U11-IO1_1)*%
X148305000Y-39275000D03*
%TO.P,U13,5,I5*%
%TO.N,Net-(U11-IO1_2)*%
X147035000Y-39275000D03*
%TO.P,U13,4,I4*%
%TO.N,Net-(U11-IO1_3)*%
X145765000Y-39275000D03*
%TO.P,U13,3,I3*%
%TO.N,Net-(U11-IO1_4)*%
X144495000Y-39275000D03*
%TO.P,U13,2,I2*%
%TO.N,Net-(U11-IO1_5)*%
X143225000Y-39275000D03*
%TO.P,U13,1,I1*%
%TO.N,Net-(U11-IO1_6)*%
X141955000Y-39275000D03*
%TD*%
D16*
%TO.P,U6,24,VDD*%
%TO.N,+3.3V*%
X160350000Y-46400000D03*
%TO.P,U6,23,SDA*%
%TO.N,/SDA1*%
X161000000Y-46400000D03*
%TO.P,U6,22,SCL*%
%TO.N,/SCL1*%
X161650000Y-46400000D03*
%TO.P,U6,21,A0*%
%TO.N,+3.3V*%
X162300000Y-46400000D03*
%TO.P,U6,20,IO1_7*%
%TO.N,unconnected-(U6-IO1_7-Pad20)*%
X162950000Y-46400000D03*
%TO.P,U6,19,IO1_6*%
%TO.N,Net-(U6-IO1_6)*%
X163600000Y-46400000D03*
%TO.P,U6,18,IO1_5*%
%TO.N,Net-(U6-IO1_5)*%
X164250000Y-46400000D03*
%TO.P,U6,17,IO1_4*%
%TO.N,Net-(U6-IO1_4)*%
X164900000Y-46400000D03*
%TO.P,U6,16,IO1_3*%
%TO.N,Net-(U6-IO1_3)*%
X165550000Y-46400000D03*
%TO.P,U6,15,IO1_2*%
%TO.N,Net-(U6-IO1_2)*%
X166200000Y-46400000D03*
%TO.P,U6,14,IO1_1*%
%TO.N,Net-(U6-IO1_1)*%
X166850000Y-46400000D03*
%TO.P,U6,13,IO1_0*%
%TO.N,Net-(U6-IO1_0)*%
X167500000Y-46400000D03*
%TO.P,U6,12,VSS*%
%TO.N,GND*%
X167500000Y-52125000D03*
%TO.P,U6,11,IO0_7*%
%TO.N,unconnected-(U6-IO0_7-Pad11)*%
X166850000Y-52125000D03*
%TO.P,U6,10,IO0_6*%
%TO.N,Net-(U6-IO0_6)*%
X166200000Y-52125000D03*
%TO.P,U6,9,IO0_5*%
%TO.N,Net-(U6-IO0_5)*%
X165550000Y-52125000D03*
%TO.P,U6,8,IO0_4*%
%TO.N,Net-(U6-IO0_4)*%
X164900000Y-52125000D03*
%TO.P,U6,7,IO0_3*%
%TO.N,Net-(U6-IO0_3)*%
X164250000Y-52125000D03*
%TO.P,U6,6,IO0_2*%
%TO.N,Net-(U6-IO0_2)*%
X163600000Y-52125000D03*
%TO.P,U6,5,IO0_1*%
%TO.N,Net-(U6-IO0_1)*%
X162950000Y-52125000D03*
%TO.P,U6,4,IO0_0*%
%TO.N,Net-(U6-IO0_0)*%
X162300000Y-52125000D03*
%TO.P,U6,3,A2*%
%TO.N,GND*%
X161650000Y-52125000D03*
%TO.P,U6,2,A1*%
X161000000Y-52125000D03*
%TO.P,U6,1,~{INT}*%
%TO.N,unconnected-(U6-~{INT}-Pad1)*%
X160350000Y-52125000D03*
%TD*%
D15*
%TO.P,U8,16,O1*%
%TO.N,/G4*%
X157955000Y-34225000D03*
%TO.P,U8,15,O2*%
%TO.N,/F4*%
X159225000Y-34225000D03*
%TO.P,U8,14,O3*%
%TO.N,/E4*%
X160495000Y-34225000D03*
%TO.P,U8,13,O4*%
%TO.N,/D4*%
X161765000Y-34225000D03*
%TO.P,U8,12,O5*%
%TO.N,/C4*%
X163035000Y-34225000D03*
%TO.P,U8,11,O6*%
%TO.N,/B4*%
X164305000Y-34225000D03*
%TO.P,U8,10,O7*%
%TO.N,/A4*%
X165575000Y-34225000D03*
%TO.P,U8,9,COM*%
%TO.N,unconnected-(U8-COM-Pad9)*%
X166845000Y-34225000D03*
%TO.P,U8,8,GND*%
%TO.N,GND*%
X166845000Y-39175000D03*
%TO.P,U8,7,I7*%
%TO.N,Net-(U6-IO1_0)*%
X165575000Y-39175000D03*
%TO.P,U8,6,I6*%
%TO.N,Net-(U6-IO1_1)*%
X164305000Y-39175000D03*
%TO.P,U8,5,I5*%
%TO.N,Net-(U6-IO1_2)*%
X163035000Y-39175000D03*
%TO.P,U8,4,I4*%
%TO.N,Net-(U6-IO1_3)*%
X161765000Y-39175000D03*
%TO.P,U8,3,I3*%
%TO.N,Net-(U6-IO1_4)*%
X160495000Y-39175000D03*
%TO.P,U8,2,I2*%
%TO.N,Net-(U6-IO1_5)*%
X159225000Y-39175000D03*
%TO.P,U8,1,I1*%
%TO.N,Net-(U6-IO1_6)*%
X157955000Y-39175000D03*
%TD*%
D17*
%TO.P,U12,16,O1*%
%TO.N,/G5*%
X152140000Y-66150000D03*
%TO.P,U12,15,O2*%
%TO.N,/F5*%
X150870000Y-66150000D03*
%TO.P,U12,14,O3*%
%TO.N,/E5*%
X149600000Y-66150000D03*
%TO.P,U12,13,O4*%
%TO.N,/D5*%
X148330000Y-66150000D03*
%TO.P,U12,12,O5*%
%TO.N,/C5*%
X147060000Y-66150000D03*
%TO.P,U12,11,O6*%
%TO.N,/B5*%
X145790000Y-66150000D03*
%TO.P,U12,10,O7*%
%TO.N,/A5*%
X144520000Y-66150000D03*
%TO.P,U12,9,COM*%
%TO.N,unconnected-(U12-COM-Pad9)*%
X143250000Y-66150000D03*
%TO.P,U12,8,GND*%
%TO.N,GND*%
X143250000Y-61200000D03*
%TO.P,U12,7,I7*%
%TO.N,Net-(U11-IO0_0)*%
X144520000Y-61200000D03*
%TO.P,U12,6,I6*%
%TO.N,Net-(U11-IO0_1)*%
X145790000Y-61200000D03*
%TO.P,U12,5,I5*%
%TO.N,Net-(U11-IO0_2)*%
X147060000Y-61200000D03*
%TO.P,U12,4,I4*%
%TO.N,Net-(U11-IO0_3)*%
X148330000Y-61200000D03*
%TO.P,U12,3,I3*%
%TO.N,Net-(U11-IO0_4)*%
X149600000Y-61200000D03*
%TO.P,U12,2,I2*%
%TO.N,Net-(U11-IO0_5)*%
X150870000Y-61200000D03*
%TO.P,U12,1,I1*%
%TO.N,Net-(U11-IO0_6)*%
X152140000Y-61200000D03*
%TD*%
D18*
%TO.P,J2,MP*%
%TO.N,N/C*%
X138100000Y-73200000D03*
X124400000Y-73200000D03*
D19*
%TO.P,J2,9,Pin_9*%
%TO.N,/G1*%
X136250000Y-70000000D03*
%TO.P,J2,8,Pin_8*%
%TO.N,/F1*%
X135000000Y-70000000D03*
%TO.P,J2,7,Pin_7*%
%TO.N,/E1*%
X133750000Y-70000000D03*
%TO.P,J2,6,Pin_6*%
%TO.N,/D1*%
X132500000Y-70000000D03*
%TO.P,J2,5,Pin_5*%
%TO.N,/C1*%
X131250000Y-70000000D03*
%TO.P,J2,4,Pin_4*%
%TO.N,/B1*%
X130000000Y-70000000D03*
%TO.P,J2,3,Pin_3*%
%TO.N,/A1*%
X128750000Y-70000000D03*
%TO.P,J2,2,Pin_2*%
%TO.N,VDD*%
X127500000Y-70000000D03*
%TO.P,J2,1,Pin_1*%
X126250000Y-70000000D03*
%TD*%
D20*
%TO.P,J3,MP*%
%TO.N,N/C*%
X124250000Y-26850000D03*
X137950000Y-26850000D03*
D21*
%TO.P,J3,9,Pin_9*%
%TO.N,/G2*%
X126100000Y-30050000D03*
%TO.P,J3,8,Pin_8*%
%TO.N,/F2*%
X127350000Y-30050000D03*
%TO.P,J3,7,Pin_7*%
%TO.N,/E2*%
X128600000Y-30050000D03*
%TO.P,J3,6,Pin_6*%
%TO.N,/D2*%
X129850000Y-30050000D03*
%TO.P,J3,5,Pin_5*%
%TO.N,/C2*%
X131100000Y-30050000D03*
%TO.P,J3,4,Pin_4*%
%TO.N,/B2*%
X132350000Y-30050000D03*
%TO.P,J3,3,Pin_3*%
%TO.N,/A2*%
X133600000Y-30050000D03*
%TO.P,J3,2,Pin_2*%
%TO.N,VDD*%
X134850000Y-30050000D03*
%TO.P,J3,1,Pin_1*%
X136100000Y-30050000D03*
%TD*%
D20*
%TO.P,J11,MP*%
%TO.N,N/C*%
X140150000Y-26850000D03*
X153850000Y-26850000D03*
D21*
%TO.P,J11,9,Pin_9*%
%TO.N,/G6*%
X142000000Y-30050000D03*
%TO.P,J11,8,Pin_8*%
%TO.N,/F6*%
X143250000Y-30050000D03*
%TO.P,J11,7,Pin_7*%
%TO.N,/E6*%
X144500000Y-30050000D03*
%TO.P,J11,6,Pin_6*%
%TO.N,/D6*%
X145750000Y-30050000D03*
%TO.P,J11,5,Pin_5*%
%TO.N,/C6*%
X147000000Y-30050000D03*
%TO.P,J11,4,Pin_4*%
%TO.N,/B6*%
X148250000Y-30050000D03*
%TO.P,J11,3,Pin_3*%
%TO.N,/A6*%
X149500000Y-30050000D03*
%TO.P,J11,2,Pin_2*%
%TO.N,VDD*%
X150750000Y-30050000D03*
%TO.P,J11,1,Pin_1*%
X152000000Y-30050000D03*
%TD*%
D18*
%TO.P,J10,MP*%
%TO.N,N/C*%
X154000000Y-73200000D03*
X140300000Y-73200000D03*
D19*
%TO.P,J10,9,Pin_9*%
%TO.N,/G5*%
X152150000Y-70000000D03*
%TO.P,J10,8,Pin_8*%
%TO.N,/F5*%
X150900000Y-70000000D03*
%TO.P,J10,7,Pin_7*%
%TO.N,/E5*%
X149650000Y-70000000D03*
%TO.P,J10,6,Pin_6*%
%TO.N,/D5*%
X148400000Y-70000000D03*
%TO.P,J10,5,Pin_5*%
%TO.N,/C5*%
X147150000Y-70000000D03*
%TO.P,J10,4,Pin_4*%
%TO.N,/B5*%
X145900000Y-70000000D03*
%TO.P,J10,3,Pin_3*%
%TO.N,/A5*%
X144650000Y-70000000D03*
%TO.P,J10,2,Pin_2*%
%TO.N,VDD*%
X143400000Y-70000000D03*
%TO.P,J10,1,Pin_1*%
X142150000Y-70000000D03*
%TD*%
D20*
%TO.P,J8,MP*%
%TO.N,N/C*%
X156050000Y-26850000D03*
X169750000Y-26850000D03*
D21*
%TO.P,J8,9,Pin_9*%
%TO.N,/G4*%
X157900000Y-30050000D03*
%TO.P,J8,8,Pin_8*%
%TO.N,/F4*%
X159150000Y-30050000D03*
%TO.P,J8,7,Pin_7*%
%TO.N,/E4*%
X160400000Y-30050000D03*
%TO.P,J8,6,Pin_6*%
%TO.N,/D4*%
X161650000Y-30050000D03*
%TO.P,J8,5,Pin_5*%
%TO.N,/C4*%
X162900000Y-30050000D03*
%TO.P,J8,4,Pin_4*%
%TO.N,/B4*%
X164150000Y-30050000D03*
%TO.P,J8,3,Pin_3*%
%TO.N,/A4*%
X165400000Y-30050000D03*
%TO.P,J8,2,Pin_2*%
%TO.N,VDD*%
X166650000Y-30050000D03*
%TO.P,J8,1,Pin_1*%
X167900000Y-30050000D03*
%TD*%
D17*
%TO.P,U3,16,O1*%
%TO.N,/G1*%
X136340000Y-66150000D03*
%TO.P,U3,15,O2*%
%TO.N,/F1*%
X135070000Y-66150000D03*
%TO.P,U3,14,O3*%
%TO.N,/E1*%
X133800000Y-66150000D03*
%TO.P,U3,13,O4*%
%TO.N,/D1*%
X132530000Y-66150000D03*
%TO.P,U3,12,O5*%
%TO.N,/C1*%
X131260000Y-66150000D03*
%TO.P,U3,11,O6*%
%TO.N,/B1*%
X129990000Y-66150000D03*
%TO.P,U3,10,O7*%
%TO.N,/A1*%
X128720000Y-66150000D03*
%TO.P,U3,9,COM*%
%TO.N,unconnected-(U3-COM-Pad9)*%
X127450000Y-66150000D03*
%TO.P,U3,8,GND*%
%TO.N,GND*%
X127450000Y-61200000D03*
%TO.P,U3,7,I7*%
%TO.N,Net-(U1-IO0_0)*%
X128720000Y-61200000D03*
%TO.P,U3,6,I6*%
%TO.N,Net-(U1-IO0_1)*%
X129990000Y-61200000D03*
%TO.P,U3,5,I5*%
%TO.N,Net-(U1-IO0_2)*%
X131260000Y-61200000D03*
%TO.P,U3,4,I4*%
%TO.N,Net-(U1-IO0_3)*%
X132530000Y-61200000D03*
%TO.P,U3,3,I3*%
%TO.N,Net-(U1-IO0_4)*%
X133800000Y-61200000D03*
%TO.P,U3,2,I2*%
%TO.N,Net-(U1-IO0_5)*%
X135070000Y-61200000D03*
%TO.P,U3,1,I1*%
%TO.N,Net-(U1-IO0_6)*%
X136340000Y-61200000D03*
%TD*%
%TO.P,U7,16,O1*%
%TO.N,/G3*%
X168240000Y-66050000D03*
%TO.P,U7,15,O2*%
%TO.N,/F3*%
X166970000Y-66050000D03*
%TO.P,U7,14,O3*%
%TO.N,/E3*%
X165700000Y-66050000D03*
%TO.P,U7,13,O4*%
%TO.N,/D3*%
X164430000Y-66050000D03*
%TO.P,U7,12,O5*%
%TO.N,/C3*%
X163160000Y-66050000D03*
%TO.P,U7,11,O6*%
%TO.N,/B3*%
X161890000Y-66050000D03*
%TO.P,U7,10,O7*%
%TO.N,/A3*%
X160620000Y-66050000D03*
%TO.P,U7,9,COM*%
%TO.N,unconnected-(U7-COM-Pad9)*%
X159350000Y-66050000D03*
%TO.P,U7,8,GND*%
%TO.N,GND*%
X159350000Y-61100000D03*
%TO.P,U7,7,I7*%
%TO.N,Net-(U6-IO0_0)*%
X160620000Y-61100000D03*
%TO.P,U7,6,I6*%
%TO.N,Net-(U6-IO0_1)*%
X161890000Y-61100000D03*
%TO.P,U7,5,I5*%
%TO.N,Net-(U6-IO0_2)*%
X163160000Y-61100000D03*
%TO.P,U7,4,I4*%
%TO.N,Net-(U6-IO0_3)*%
X164430000Y-61100000D03*
%TO.P,U7,3,I3*%
%TO.N,Net-(U6-IO0_4)*%
X165700000Y-61100000D03*
%TO.P,U7,2,I2*%
%TO.N,Net-(U6-IO0_5)*%
X166970000Y-61100000D03*
%TO.P,U7,1,I1*%
%TO.N,Net-(U6-IO0_6)*%
X168240000Y-61100000D03*
%TD*%
D16*
%TO.P,U11,24,VDD*%
%TO.N,+3.3V*%
X144750000Y-46500000D03*
%TO.P,U11,23,SDA*%
%TO.N,/SDA1*%
X145400000Y-46500000D03*
%TO.P,U11,22,SCL*%
%TO.N,/SCL1*%
X146050000Y-46500000D03*
%TO.P,U11,21,A0*%
%TO.N,GND*%
X146700000Y-46500000D03*
%TO.P,U11,20,IO1_7*%
%TO.N,unconnected-(U11-IO1_7-Pad20)*%
X147350000Y-46500000D03*
%TO.P,U11,19,IO1_6*%
%TO.N,Net-(U11-IO1_6)*%
X148000000Y-46500000D03*
%TO.P,U11,18,IO1_5*%
%TO.N,Net-(U11-IO1_5)*%
X148650000Y-46500000D03*
%TO.P,U11,17,IO1_4*%
%TO.N,Net-(U11-IO1_4)*%
X149300000Y-46500000D03*
%TO.P,U11,16,IO1_3*%
%TO.N,Net-(U11-IO1_3)*%
X149950000Y-46500000D03*
%TO.P,U11,15,IO1_2*%
%TO.N,Net-(U11-IO1_2)*%
X150600000Y-46500000D03*
%TO.P,U11,14,IO1_1*%
%TO.N,Net-(U11-IO1_1)*%
X151250000Y-46500000D03*
%TO.P,U11,13,IO1_0*%
%TO.N,Net-(U11-IO1_0)*%
X151900000Y-46500000D03*
%TO.P,U11,12,VSS*%
%TO.N,GND*%
X151900000Y-52225000D03*
%TO.P,U11,11,IO0_7*%
%TO.N,unconnected-(U11-IO0_7-Pad11)*%
X151250000Y-52225000D03*
%TO.P,U11,10,IO0_6*%
%TO.N,Net-(U11-IO0_6)*%
X150600000Y-52225000D03*
%TO.P,U11,9,IO0_5*%
%TO.N,Net-(U11-IO0_5)*%
X149950000Y-52225000D03*
%TO.P,U11,8,IO0_4*%
%TO.N,Net-(U11-IO0_4)*%
X149300000Y-52225000D03*
%TO.P,U11,7,IO0_3*%
%TO.N,Net-(U11-IO0_3)*%
X148650000Y-52225000D03*
%TO.P,U11,6,IO0_2*%
%TO.N,Net-(U11-IO0_2)*%
X148000000Y-52225000D03*
%TO.P,U11,5,IO0_1*%
%TO.N,Net-(U11-IO0_1)*%
X147350000Y-52225000D03*
%TO.P,U11,4,IO0_0*%
%TO.N,Net-(U11-IO0_0)*%
X146700000Y-52225000D03*
%TO.P,U11,3,A2*%
%TO.N,GND*%
X146050000Y-52225000D03*
%TO.P,U11,2,A1*%
%TO.N,+3.3V*%
X145400000Y-52225000D03*
%TO.P,U11,1,~{INT}*%
%TO.N,unconnected-(U11-~{INT}-Pad1)*%
X144750000Y-52225000D03*
%TD*%
%TO.P,U1,24,VDD*%
%TO.N,+3.3V*%
X128850000Y-46600000D03*
%TO.P,U1,23,SDA*%
%TO.N,/SDA1*%
X129500000Y-46600000D03*
%TO.P,U1,22,SCL*%
%TO.N,/SCL1*%
X130150000Y-46600000D03*
%TO.P,U1,21,A0*%
%TO.N,GND*%
X130800000Y-46600000D03*
%TO.P,U1,20,IO1_7*%
%TO.N,unconnected-(U1-IO1_7-Pad20)*%
X131450000Y-46600000D03*
%TO.P,U1,19,IO1_6*%
%TO.N,Net-(U1-IO1_6)*%
X132100000Y-46600000D03*
%TO.P,U1,18,IO1_5*%
%TO.N,Net-(U1-IO1_5)*%
X132750000Y-46600000D03*
%TO.P,U1,17,IO1_4*%
%TO.N,Net-(U1-IO1_4)*%
X133400000Y-46600000D03*
%TO.P,U1,16,IO1_3*%
%TO.N,Net-(U1-IO1_3)*%
X134050000Y-46600000D03*
%TO.P,U1,15,IO1_2*%
%TO.N,Net-(U1-IO1_2)*%
X134700000Y-46600000D03*
%TO.P,U1,14,IO1_1*%
%TO.N,Net-(U1-IO1_1)*%
X135350000Y-46600000D03*
%TO.P,U1,13,IO1_0*%
%TO.N,Net-(U1-IO1_0)*%
X136000000Y-46600000D03*
%TO.P,U1,12,VSS*%
%TO.N,GND*%
X136000000Y-52325000D03*
%TO.P,U1,11,IO0_7*%
%TO.N,unconnected-(U1-IO0_7-Pad11)*%
X135350000Y-52325000D03*
%TO.P,U1,10,IO0_6*%
%TO.N,Net-(U1-IO0_6)*%
X134700000Y-52325000D03*
%TO.P,U1,9,IO0_5*%
%TO.N,Net-(U1-IO0_5)*%
X134050000Y-52325000D03*
%TO.P,U1,8,IO0_4*%
%TO.N,Net-(U1-IO0_4)*%
X133400000Y-52325000D03*
%TO.P,U1,7,IO0_3*%
%TO.N,Net-(U1-IO0_3)*%
X132750000Y-52325000D03*
%TO.P,U1,6,IO0_2*%
%TO.N,Net-(U1-IO0_2)*%
X132100000Y-52325000D03*
%TO.P,U1,5,IO0_1*%
%TO.N,Net-(U1-IO0_1)*%
X131450000Y-52325000D03*
%TO.P,U1,4,IO0_0*%
%TO.N,Net-(U1-IO0_0)*%
X130800000Y-52325000D03*
%TO.P,U1,3,A2*%
%TO.N,GND*%
X130150000Y-52325000D03*
%TO.P,U1,2,A1*%
X129500000Y-52325000D03*
%TO.P,U1,1,~{INT}*%
%TO.N,unconnected-(U1-~{INT}-Pad1)*%
X128850000Y-52325000D03*
%TD*%
D15*
%TO.P,U4,16,O1*%
%TO.N,/G2*%
X125955000Y-34325000D03*
%TO.P,U4,15,O2*%
%TO.N,/F2*%
X127225000Y-34325000D03*
%TO.P,U4,14,O3*%
%TO.N,/E2*%
X128495000Y-34325000D03*
%TO.P,U4,13,O4*%
%TO.N,/D2*%
X129765000Y-34325000D03*
%TO.P,U4,12,O5*%
%TO.N,/C2*%
X131035000Y-34325000D03*
%TO.P,U4,11,O6*%
%TO.N,/B2*%
X132305000Y-34325000D03*
%TO.P,U4,10,O7*%
%TO.N,/A2*%
X133575000Y-34325000D03*
%TO.P,U4,9,COM*%
%TO.N,unconnected-(U4-COM-Pad9)*%
X134845000Y-34325000D03*
%TO.P,U4,8,GND*%
%TO.N,GND*%
X134845000Y-39275000D03*
%TO.P,U4,7,I7*%
%TO.N,Net-(U1-IO1_0)*%
X133575000Y-39275000D03*
%TO.P,U4,6,I6*%
%TO.N,Net-(U1-IO1_1)*%
X132305000Y-39275000D03*
%TO.P,U4,5,I5*%
%TO.N,Net-(U1-IO1_2)*%
X131035000Y-39275000D03*
%TO.P,U4,4,I4*%
%TO.N,Net-(U1-IO1_3)*%
X129765000Y-39275000D03*
%TO.P,U4,3,I3*%
%TO.N,Net-(U1-IO1_4)*%
X128495000Y-39275000D03*
%TO.P,U4,2,I2*%
%TO.N,Net-(U1-IO1_5)*%
X127225000Y-39275000D03*
%TO.P,U4,1,I1*%
%TO.N,Net-(U1-IO1_6)*%
X125955000Y-39275000D03*
%TD*%
D17*
%TO.P,U10,1*%
%TO.N,Net-(U10A--)*%
X115505000Y-52525000D03*
%TO.P,U10,2,-*%
X114235000Y-52525000D03*
%TO.P,U10,3,+*%
%TO.N,Net-(U10A-+)*%
X112965000Y-52525000D03*
%TO.P,U10,4,V-*%
%TO.N,GND*%
X111695000Y-52525000D03*
%TO.P,U10,5,+*%
%TO.N,Net-(U10B-+)*%
X111695000Y-57475000D03*
%TO.P,U10,6,-*%
%TO.N,Net-(U10B--)*%
X112965000Y-57475000D03*
%TO.P,U10,7*%
%TO.N,Net-(C17-Pad1)*%
X114235000Y-57475000D03*
%TO.P,U10,8,V+*%
%TO.N,+12V*%
X115505000Y-57475000D03*
%TD*%
D10*
%TO.P,U9,1,GND*%
%TO.N,GND*%
X115007500Y-64800000D03*
D11*
%TO.P,U9,2,VO*%
%TO.N,+3.3V*%
X114252500Y-69425000D03*
X111202500Y-69425000D03*
D12*
X112727500Y-71100000D03*
D11*
X114252500Y-72775000D03*
X111202500Y-72775000D03*
D10*
%TO.P,U9,3,VI*%
%TO.N,+12V*%
X110447500Y-64800000D03*
%TD*%
D22*
%TO.P,U5,1,PD3*%
%TO.N,/PPS*%
X109600000Y-43650000D03*
%TO.P,U5,2,PD4*%
%TO.N,unconnected-(U5-PD4-Pad2)*%
X110400000Y-43650000D03*
%TO.P,U5,3,PE0*%
%TO.N,/SDA1*%
X111200000Y-43650000D03*
%TO.P,U5,4,VCC*%
%TO.N,+3.3V*%
X112000000Y-43650000D03*
%TO.P,U5,5,GND*%
%TO.N,GND*%
X112800000Y-43650000D03*
%TO.P,U5,6,PE1*%
%TO.N,/SCL1*%
X113600000Y-43650000D03*
%TO.P,U5,7,XTAL1/PB6*%
%TO.N,Net-(U5-XTAL1{slash}PB6)*%
X114400000Y-43650000D03*
%TO.P,U5,8,XTAL2/PB7*%
%TO.N,Net-(U5-XTAL2{slash}PB7)*%
X115200000Y-43650000D03*
D23*
%TO.P,U5,9,PD5*%
%TO.N,unconnected-(U5-PD5-Pad9)*%
X116650000Y-42200000D03*
%TO.P,U5,10,PD6*%
%TO.N,unconnected-(U5-PD6-Pad10)*%
X116650000Y-41400000D03*
%TO.P,U5,11,PD7*%
%TO.N,/LED_INT*%
X116650000Y-40600000D03*
%TO.P,U5,12,PB0*%
%TO.N,unconnected-(U5-PB0-Pad12)*%
X116650000Y-39800000D03*
%TO.P,U5,13,PB1*%
%TO.N,/PWM9*%
X116650000Y-39000000D03*
%TO.P,U5,14,PB2*%
%TO.N,unconnected-(U5-PB2-Pad14)*%
X116650000Y-38200000D03*
%TO.P,U5,15,PB3*%
%TO.N,/MOSI*%
X116650000Y-37400000D03*
%TO.P,U5,16,PB4*%
%TO.N,/MISO*%
X116650000Y-36600000D03*
D22*
%TO.P,U5,17,PB5*%
%TO.N,/SCK*%
X115200000Y-35150000D03*
%TO.P,U5,18,AVCC*%
%TO.N,+3.3V*%
X114400000Y-35150000D03*
%TO.P,U5,19,PE2*%
%TO.N,unconnected-(U5-PE2-Pad19)*%
X113600000Y-35150000D03*
%TO.P,U5,20,AREF*%
%TO.N,unconnected-(U5-AREF-Pad20)*%
X112800000Y-35150000D03*
%TO.P,U5,21,GND*%
%TO.N,GND*%
X112000000Y-35150000D03*
%TO.P,U5,22,PE3*%
%TO.N,unconnected-(U5-PE3-Pad22)*%
X111200000Y-35150000D03*
%TO.P,U5,23,PC0*%
%TO.N,/ADC0*%
X110400000Y-35150000D03*
%TO.P,U5,24,PC1*%
%TO.N,/ADC1*%
X109600000Y-35150000D03*
D23*
%TO.P,U5,25,PC2*%
%TO.N,unconnected-(U5-PC2-Pad25)*%
X108150000Y-36600000D03*
%TO.P,U5,26,PC3*%
%TO.N,unconnected-(U5-PC3-Pad26)*%
X108150000Y-37400000D03*
%TO.P,U5,27,PC4*%
%TO.N,/SDA*%
X108150000Y-38200000D03*
%TO.P,U5,28,PC5*%
%TO.N,/SCL*%
X108150000Y-39000000D03*
%TO.P,U5,29,~{RESET}/PC6*%
%TO.N,/RESET*%
X108150000Y-39800000D03*
%TO.P,U5,30,PD0*%
%TO.N,/RX*%
X108150000Y-40600000D03*
%TO.P,U5,31,PD1*%
%TO.N,/TX*%
X108150000Y-41400000D03*
%TO.P,U5,32,PD2*%
%TO.N,unconnected-(U5-PD2-Pad32)*%
X108150000Y-42200000D03*
%TD*%
D24*
%TO.P,R17,1*%
%TO.N,VDD*%
X174530000Y-59042500D03*
%TO.P,R17,2*%
%TO.N,Net-(J12-Pin_1)*%
X174530000Y-56117500D03*
%TD*%
D25*
%TO.P,R13,1*%
%TO.N,VDD*%
X174660000Y-38847500D03*
%TO.P,R13,2*%
%TO.N,Net-(J12-Pin_3)*%
X174660000Y-41772500D03*
%TD*%
D26*
%TO.P,R4,1*%
%TO.N,+3.3V*%
X156855000Y-50590000D03*
%TO.P,R4,2*%
%TO.N,/SCL1*%
X158505000Y-50590000D03*
%TD*%
%TO.P,R2,1*%
%TO.N,+3.3V*%
X102375000Y-35400000D03*
%TO.P,R2,2*%
%TO.N,/SDA*%
X104025000Y-35400000D03*
%TD*%
%TO.P,R1,1*%
%TO.N,Net-(U2-VCC_RF)*%
X95375000Y-38800000D03*
%TO.P,R1,2*%
%TO.N,Net-(C3-Pad1)*%
X97025000Y-38800000D03*
%TD*%
D27*
%TO.P,J9,1,Pin_1*%
%TO.N,+3.3V*%
X85050000Y-56075000D03*
%TO.P,J9,2,Pin_2*%
%TO.N,Net-(D3-A)*%
X85050000Y-57325000D03*
%TO.P,J9,3,Pin_3*%
%TO.N,Net-(J9-Pin_3)*%
X85050000Y-58575000D03*
%TO.P,J9,4,Pin_4*%
%TO.N,/RX*%
X85050000Y-59825000D03*
%TO.P,J9,5,Pin_5*%
%TO.N,/TX*%
X85050000Y-61075000D03*
%TO.P,J9,6,Pin_6*%
%TO.N,GND*%
X85050000Y-62325000D03*
D28*
%TO.P,J9,MP*%
%TO.N,N/C*%
X81850000Y-54225000D03*
X81850000Y-64175000D03*
%TD*%
D19*
%TO.P,J7,1,Pin_1*%
%TO.N,VDD*%
X158050000Y-70000000D03*
%TO.P,J7,2,Pin_2*%
X159300000Y-70000000D03*
%TO.P,J7,3,Pin_3*%
%TO.N,/A3*%
X160550000Y-70000000D03*
%TO.P,J7,4,Pin_4*%
%TO.N,/B3*%
X161800000Y-70000000D03*
%TO.P,J7,5,Pin_5*%
%TO.N,/C3*%
X163050000Y-70000000D03*
%TO.P,J7,6,Pin_6*%
%TO.N,/D3*%
X164300000Y-70000000D03*
%TO.P,J7,7,Pin_7*%
%TO.N,/E3*%
X165550000Y-70000000D03*
%TO.P,J7,8,Pin_8*%
%TO.N,/F3*%
X166800000Y-70000000D03*
%TO.P,J7,9,Pin_9*%
%TO.N,/G3*%
X168050000Y-70000000D03*
D18*
%TO.P,J7,MP*%
%TO.N,N/C*%
X156200000Y-73200000D03*
X169900000Y-73200000D03*
%TD*%
D21*
%TO.P,J6,1,Pin_1*%
%TO.N,/ADC0*%
X111475000Y-30050000D03*
%TO.P,J6,2,Pin_2*%
%TO.N,GND*%
X110225000Y-30050000D03*
%TO.P,J6,3,Pin_3*%
%TO.N,/ADC1*%
X108975000Y-30050000D03*
%TO.P,J6,4,Pin_4*%
%TO.N,GND*%
X107725000Y-30050000D03*
D20*
%TO.P,J6,MP*%
%TO.N,N/C*%
X113325000Y-26850000D03*
X105875000Y-26850000D03*
%TD*%
D29*
%TO.P,J5,*%
%TO.N,*%
X101100000Y-71325000D03*
X90100000Y-71325000D03*
D30*
%TO.P,J5,1,Pin_1*%
%TO.N,+12V*%
X93100000Y-61325000D03*
D31*
%TO.P,J5,2,Pin_2*%
%TO.N,GND*%
X98100000Y-61325000D03*
%TD*%
D32*
%TO.P,J4,1,Pin_1*%
%TO.N,/MISO*%
X117000000Y-27000000D03*
D33*
%TO.P,J4,2,Pin_2*%
%TO.N,+3.3V*%
X117000000Y-29000000D03*
%TO.P,J4,3,Pin_3*%
%TO.N,/SCK*%
X119000000Y-27000000D03*
%TO.P,J4,4,Pin_4*%
%TO.N,/MOSI*%
X119000000Y-29000000D03*
%TO.P,J4,5,Pin_5*%
%TO.N,/RESET*%
X121000000Y-27000000D03*
%TO.P,J4,6,Pin_6*%
%TO.N,GND*%
X121000000Y-29000000D03*
%TD*%
D34*
%TO.P,J1,1,In*%
%TO.N,Net-(J1-In)*%
X97000000Y-27762500D03*
%TO.P,J1,2,Ext*%
%TO.N,GND*%
X92750000Y-27762500D03*
X101250000Y-27762500D03*
%TD*%
D35*
%TO.P,D2,1,K*%
%TO.N,+12V*%
X106000000Y-64550000D03*
%TO.P,D2,2,A*%
%TO.N,+3.3V*%
X106000000Y-67850000D03*
%TD*%
D36*
%TO.P,D1,1,K*%
%TO.N,GND*%
X119625000Y-41700000D03*
%TO.P,D1,2,A*%
%TO.N,Net-(D1-A)*%
X121375000Y-41700000D03*
%TD*%
D37*
%TO.P,C7,1*%
%TO.N,+12V*%
X94500000Y-55000000D03*
%TO.P,C7,2*%
%TO.N,GND*%
X99900000Y-55000000D03*
%TD*%
D38*
%TO.P,C6,1*%
%TO.N,+3.3V*%
X144825000Y-44400000D03*
%TO.P,C6,2*%
%TO.N,GND*%
X146375000Y-44400000D03*
%TD*%
D39*
%TO.P,J12,1,Pin_1*%
%TO.N,Net-(J12-Pin_1)*%
X174750000Y-50975000D03*
%TO.P,J12,2,Pin_2*%
%TO.N,GND*%
X174750000Y-49725000D03*
%TO.P,J12,3,Pin_3*%
%TO.N,Net-(J12-Pin_3)*%
X174750000Y-48475000D03*
%TO.P,J12,4,Pin_4*%
%TO.N,GND*%
X174750000Y-47225000D03*
D40*
%TO.P,J12,MP*%
%TO.N,N/C*%
X177950000Y-52825000D03*
X177950000Y-45375000D03*
%TD*%
D41*
%TO.P,Y1,1,1*%
%TO.N,Net-(U5-XTAL1{slash}PB6)*%
X120400000Y-46200000D03*
%TO.P,Y1,2,2*%
%TO.N,GND*%
X120400000Y-45000000D03*
%TO.P,Y1,3,3*%
%TO.N,Net-(U5-XTAL2{slash}PB7)*%
X120400000Y-43800000D03*
%TD*%
D42*
%TO.P,R16,1*%
%TO.N,Net-(U10B-+)*%
X127000000Y-53825000D03*
%TO.P,R16,2*%
%TO.N,GND*%
X127000000Y-52175000D03*
%TD*%
D43*
%TO.P,R15,1*%
%TO.N,Net-(U10B-+)*%
X127000000Y-55575000D03*
%TO.P,R15,2*%
%TO.N,VDD*%
X127000000Y-57225000D03*
%TD*%
D26*
%TO.P,R14,1*%
%TO.N,Net-(C17-Pad1)*%
X123175000Y-50200000D03*
%TO.P,R14,2*%
%TO.N,Net-(Q2-B)*%
X124825000Y-50200000D03*
%TD*%
D44*
%TO.P,R12,1*%
%TO.N,Net-(U10B--)*%
X111625000Y-59600000D03*
%TO.P,R12,2*%
%TO.N,+12V*%
X109975000Y-59600000D03*
%TD*%
D26*
%TO.P,R11,1*%
%TO.N,Net-(U10A--)*%
X115575000Y-50200000D03*
%TO.P,R11,2*%
%TO.N,Net-(U10B--)*%
X117225000Y-50200000D03*
%TD*%
%TO.P,R10,1*%
%TO.N,/PWM9*%
X119575000Y-37400000D03*
%TO.P,R10,2*%
%TO.N,Net-(U10A-+)*%
X121225000Y-37400000D03*
%TD*%
D44*
%TO.P,R9,1*%
%TO.N,/ADC1*%
X107425000Y-32800000D03*
%TO.P,R9,2*%
%TO.N,+3.3V*%
X105775000Y-32800000D03*
%TD*%
D45*
%TO.P,C17,1*%
%TO.N,Net-(C17-Pad1)*%
X125975000Y-48200000D03*
%TO.P,C17,2*%
%TO.N,Net-(U10B--)*%
X124425000Y-48200000D03*
%TD*%
D46*
%TO.P,C16,1*%
%TO.N,Net-(U10B-+)*%
X128800000Y-55625000D03*
%TO.P,C16,2*%
%TO.N,GND*%
X128800000Y-57175000D03*
%TD*%
D45*
%TO.P,C15,1*%
%TO.N,+12V*%
X115575000Y-59600000D03*
%TO.P,C15,2*%
%TO.N,GND*%
X114025000Y-59600000D03*
%TD*%
D38*
%TO.P,C14,1*%
%TO.N,Net-(U10B--)*%
X119225000Y-50200000D03*
%TO.P,C14,2*%
%TO.N,GND*%
X120775000Y-50200000D03*
%TD*%
%TO.P,C13,1*%
%TO.N,+3.3V*%
X160425000Y-44400000D03*
%TO.P,C13,2*%
%TO.N,GND*%
X161975000Y-44400000D03*
%TD*%
D47*
%TO.P,C12,1*%
%TO.N,+3.3V*%
X119200000Y-67575000D03*
%TO.P,C12,2*%
%TO.N,GND*%
X119200000Y-66025000D03*
%TD*%
%TO.P,C11,1*%
%TO.N,+3.3V*%
X117400000Y-67575000D03*
%TO.P,C11,2*%
%TO.N,GND*%
X117400000Y-66025000D03*
%TD*%
D45*
%TO.P,C10,1*%
%TO.N,/RESET*%
X103975000Y-41600000D03*
%TO.P,C10,2*%
%TO.N,Net-(J9-Pin_3)*%
X102425000Y-41600000D03*
%TD*%
D48*
%TO.P,SW1,1*%
%TO.N,/RX*%
X90705000Y-49870000D03*
%TO.P,SW1,2*%
%TO.N,/TX*%
X90705000Y-47330000D03*
%TO.P,SW1,3*%
%TO.N,/GPS_TX*%
X82095000Y-47330000D03*
%TO.P,SW1,4*%
%TO.N,/GPS_RX*%
X82095000Y-49870000D03*
%TD*%
D44*
%TO.P,R8,1*%
%TO.N,/ADC0*%
X111025000Y-32800000D03*
%TO.P,R8,2*%
%TO.N,+3.3V*%
X109375000Y-32800000D03*
%TD*%
D26*
%TO.P,R7,1*%
%TO.N,/LED_INT*%
X119575000Y-39600000D03*
%TO.P,R7,2*%
%TO.N,Net-(D1-A)*%
X121225000Y-39600000D03*
%TD*%
D44*
%TO.P,R6,1*%
%TO.N,/RESET*%
X104025000Y-39600000D03*
%TO.P,R6,2*%
%TO.N,+3.3V*%
X102375000Y-39600000D03*
%TD*%
D26*
%TO.P,R5,1*%
%TO.N,+3.3V*%
X156875000Y-48250000D03*
%TO.P,R5,2*%
%TO.N,/SDA1*%
X158525000Y-48250000D03*
%TD*%
%TO.P,R3,1*%
%TO.N,+3.3V*%
X102375000Y-37510000D03*
%TO.P,R3,2*%
%TO.N,/SCL*%
X104025000Y-37510000D03*
%TD*%
D49*
%TO.P,L1,1*%
%TO.N,Net-(C3-Pad1)*%
X97000000Y-36625000D03*
%TO.P,L1,2*%
%TO.N,Net-(J1-In)*%
X97000000Y-34575000D03*
%TD*%
D50*
%TO.P,D3,1,K*%
%TO.N,+12V*%
X90850000Y-57200000D03*
%TO.P,D3,2,A*%
%TO.N,Net-(D3-A)*%
X87550000Y-57200000D03*
%TD*%
D38*
%TO.P,C9,1*%
%TO.N,Net-(U10A-+)*%
X119625000Y-35000000D03*
%TO.P,C9,2*%
%TO.N,GND*%
X121175000Y-35000000D03*
%TD*%
%TO.P,C8,1*%
%TO.N,+12V*%
X112025000Y-63200000D03*
%TO.P,C8,2*%
%TO.N,GND*%
X113575000Y-63200000D03*
%TD*%
D45*
%TO.P,C5,1*%
%TO.N,+3.3V*%
X114375000Y-32800000D03*
%TO.P,C5,2*%
%TO.N,GND*%
X112825000Y-32800000D03*
%TD*%
D38*
%TO.P,C4,1*%
%TO.N,+3.3V*%
X111425000Y-46000000D03*
%TO.P,C4,2*%
%TO.N,GND*%
X112975000Y-46000000D03*
%TD*%
D45*
%TO.P,C3,1*%
%TO.N,Net-(C3-Pad1)*%
X96975000Y-40800000D03*
%TO.P,C3,2*%
%TO.N,GND*%
X95425000Y-40800000D03*
%TD*%
D47*
%TO.P,C2,1*%
%TO.N,+3.3V*%
X81200000Y-41575000D03*
%TO.P,C2,2*%
%TO.N,GND*%
X81200000Y-40025000D03*
%TD*%
D38*
%TO.P,C1,1*%
%TO.N,+3.3V*%
X129025000Y-44400000D03*
%TO.P,C1,2*%
%TO.N,GND*%
X130575000Y-44400000D03*
%TD*%
D51*
%TO.P,U2,1,GND*%
%TO.N,GND*%
X83450000Y-34400000D03*
D52*
%TO.P,U2,2,TXD*%
%TO.N,/GPS_TX*%
X83450000Y-35500000D03*
%TO.P,U2,3,RXD*%
%TO.N,/GPS_RX*%
X83450000Y-36600000D03*
%TO.P,U2,4,TIMEPULSE*%
%TO.N,/PPS*%
X83450000Y-37700000D03*
%TO.P,U2,5,EXTINT*%
%TO.N,unconnected-(U2-EXTINT-Pad5)*%
X83450000Y-38800000D03*
%TO.P,U2,6,V_BCKP*%
%TO.N,+3.3V*%
X83450000Y-39900000D03*
%TO.P,U2,7,VCC_IO*%
X83450000Y-41000000D03*
%TO.P,U2,8,VCC*%
X83450000Y-42100000D03*
D51*
%TO.P,U2,9,~{RESET}*%
%TO.N,unconnected-(U2-~{RESET}-Pad9)*%
X83450000Y-43200000D03*
%TO.P,U2,10,GND*%
%TO.N,GND*%
X92950000Y-43200000D03*
D52*
%TO.P,U2,11,RF_IN*%
%TO.N,Net-(J1-In)*%
X92950000Y-42100000D03*
%TO.P,U2,12,GND*%
%TO.N,GND*%
X92950000Y-41000000D03*
%TO.P,U2,13,LNA_EN*%
%TO.N,unconnected-(U2-LNA_EN-Pad13)*%
X92950000Y-39900000D03*
%TO.P,U2,14,VCC_RF*%
%TO.N,Net-(U2-VCC_RF)*%
X92950000Y-38800000D03*
%TO.P,U2,15,VIO_SEL*%
%TO.N,unconnected-(U2-VIO_SEL-Pad15)*%
X92950000Y-37700000D03*
%TO.P,U2,16,SDA*%
%TO.N,/SDA*%
X92950000Y-36600000D03*
%TO.P,U2,17,SCL*%
%TO.N,/SCL*%
X92950000Y-35500000D03*
D51*
%TO.P,U2,18,~{SAFEBOOT}*%
%TO.N,unconnected-(U2-~{SAFEBOOT}-Pad18)*%
X92950000Y-34400000D03*
%TD*%
D53*
%TO.N,+12V*%
X118800000Y-52600000D03*
X118000000Y-53400000D03*
X118000000Y-54800000D03*
X118400000Y-57200000D03*
X118400000Y-56400000D03*
X118800000Y-53400000D03*
X118800000Y-54800000D03*
X120800000Y-55600000D03*
X120000000Y-55600000D03*
X119200000Y-55600000D03*
X118400000Y-55600000D03*
%TO.N,GND*%
X122000000Y-50200000D03*
X161200000Y-53800000D03*
%TO.N,Net-(U10B-+)*%
X128200000Y-54000000D03*
X110400000Y-57600000D03*
%TO.N,GND*%
X127000000Y-51000000D03*
X128200000Y-58400000D03*
X112800000Y-59600000D03*
%TO.N,/SCL*%
X105600000Y-38400000D03*
%TO.N,/SDA*%
X106000000Y-37600000D03*
X90400000Y-36800000D03*
%TO.N,/SCL*%
X90400000Y-35600000D03*
%TO.N,GND*%
X91400000Y-43000000D03*
X91200000Y-42200000D03*
X91400000Y-41200000D03*
X112800000Y-64000000D03*
X116232500Y-66025000D03*
X81200000Y-39000000D03*
%TO.N,Net-(J9-Pin_3)*%
X88000000Y-58800000D03*
%TO.N,/RESET*%
X105600000Y-39800000D03*
%TO.N,/RX*%
X105600000Y-42800000D03*
%TO.N,/TX*%
X105800000Y-41400000D03*
%TO.N,GND*%
X98600000Y-26200000D03*
X98600000Y-27000000D03*
X98600000Y-27800000D03*
X98600000Y-29400000D03*
X98600000Y-30200000D03*
X98600000Y-28600000D03*
X95400000Y-26200000D03*
X95400000Y-27000000D03*
X95400000Y-27800000D03*
X95400000Y-28600000D03*
X95400000Y-29400000D03*
X95400000Y-30200000D03*
X94800000Y-37400000D03*
X95400000Y-36800000D03*
X98400000Y-35600000D03*
X98800000Y-36200000D03*
X98800000Y-37000000D03*
X98800000Y-37800000D03*
X98800000Y-38600000D03*
X98800000Y-39400000D03*
X98800000Y-40200000D03*
X98800000Y-41000000D03*
X98800000Y-41800000D03*
X98600000Y-42600000D03*
X97800000Y-42800000D03*
X97000000Y-42600000D03*
X96400000Y-42000000D03*
X95600000Y-41600000D03*
X94600000Y-41200000D03*
X94800000Y-43400000D03*
X95600000Y-44000000D03*
X96200000Y-44400000D03*
X97000000Y-44800000D03*
X98000000Y-44800000D03*
X99000000Y-44600000D03*
X99800000Y-44400000D03*
X100400000Y-43600000D03*
X100800000Y-42800000D03*
X100800000Y-42000000D03*
X100800000Y-41200000D03*
X100800000Y-40400000D03*
X100800000Y-39600000D03*
X100800000Y-38800000D03*
X100800000Y-38000000D03*
X100800000Y-37200000D03*
X100800000Y-36400000D03*
X100800000Y-35600000D03*
X100400000Y-34800000D03*
X99800000Y-34200000D03*
X99200000Y-33800000D03*
X95400000Y-36000000D03*
X95400000Y-35200000D03*
X95400000Y-34400000D03*
X98400000Y-33600000D03*
X95600000Y-33600000D03*
X96000000Y-32800000D03*
X98000000Y-32800000D03*
X98000000Y-32000000D03*
X96000000Y-32000000D03*
X98000000Y-31200000D03*
X96000000Y-31200000D03*
%TO.N,Net-(J9-Pin_3)*%
X103400000Y-42600000D03*
%TO.N,/TX*%
X93000000Y-47400000D03*
%TO.N,/RX*%
X93000000Y-50000000D03*
%TO.N,/TX*%
X87200000Y-61200000D03*
%TO.N,/RX*%
X87200000Y-59800000D03*
%TO.N,/SDA1*%
X145400000Y-48600000D03*
%TO.N,/SCL1*%
X146200000Y-49600000D03*
%TO.N,/SDA1*%
X129400000Y-48600000D03*
%TO.N,/SCL1*%
X130200000Y-49600000D03*
%TO.N,/SDA1*%
X160630000Y-48030000D03*
%TO.N,/SCL1*%
X161650000Y-49280000D03*
X114400000Y-45800000D03*
%TO.N,/SDA1*%
X110200000Y-46400000D03*
%TO.N,+3.3V*%
X156000000Y-47400000D03*
%TO.N,GND*%
X129600000Y-43400000D03*
%TO.N,+3.3V*%
X128000000Y-44400000D03*
X143600000Y-44400000D03*
X159200000Y-44400000D03*
%TO.N,GND*%
X161000000Y-43400000D03*
X145400000Y-43400000D03*
%TO.N,+3.3V*%
X144800000Y-54200000D03*
%TO.N,GND*%
X145800000Y-54000000D03*
X129800000Y-54400000D03*
%TO.N,VDD*%
X158000000Y-68600000D03*
X159200000Y-68600000D03*
X142200000Y-68600000D03*
X143400000Y-68600000D03*
X127400000Y-68400000D03*
X126200000Y-68400000D03*
%TO.N,GND*%
X167800000Y-53600000D03*
X152200000Y-53800000D03*
X136400000Y-54000000D03*
%TO.N,+3.3V*%
X83400000Y-56000000D03*
%TO.N,GND*%
X83200000Y-62400000D03*
X159350000Y-59600000D03*
X143250000Y-59600000D03*
X127450000Y-59600000D03*
X135300000Y-40900000D03*
X166845000Y-40800000D03*
X150845000Y-40845000D03*
%TO.N,VDD*%
X152000000Y-31800000D03*
X150800000Y-31800000D03*
X135000000Y-31800000D03*
X136200000Y-31800000D03*
X167800000Y-31800000D03*
X166600000Y-31800000D03*
%TO.N,/PPS*%
X102200000Y-45600000D03*
%TO.N,/GPS_RX*%
X84200000Y-49800000D03*
%TO.N,/GPS_TX*%
X84200000Y-47200000D03*
%TO.N,/PPS*%
X85400000Y-38000000D03*
%TO.N,/GPS_RX*%
X85400000Y-36800000D03*
%TO.N,/GPS_TX*%
X85400000Y-35600000D03*
%TO.N,+3.3V*%
X81200000Y-42800000D03*
%TO.N,GND*%
X122600000Y-35000000D03*
X118200000Y-41800000D03*
X118000000Y-45000000D03*
X122800000Y-45000000D03*
%TO.N,+3.3V*%
X111600000Y-47000000D03*
%TO.N,GND*%
X113000000Y-47000000D03*
X113000000Y-31600000D03*
%TO.N,+3.3V*%
X114400000Y-31600000D03*
X110200000Y-31800000D03*
X104487500Y-33287500D03*
%TO.N,GND*%
X107600000Y-28400000D03*
X110200000Y-28400000D03*
X176800000Y-49800000D03*
X174800000Y-46000000D03*
%TO.N,VDD*%
X174600000Y-37600000D03*
X174600000Y-60400000D03*
%TD*%
D54*
%TO.N,GND*%
X120775000Y-50200000D02*
X122000000Y-50200000D01*
X161650000Y-53350000D02*
X161200000Y-53800000D01*
X161650000Y-52125000D02*
X161650000Y-53350000D01*
X161000000Y-53600000D02*
X161200000Y-53800000D01*
X161000000Y-52125000D02*
X161000000Y-53600000D01*
%TO.N,+3.3V*%
X116025000Y-67575000D02*
X116000000Y-67600000D01*
X117400000Y-67575000D02*
X116025000Y-67575000D01*
X119200000Y-67575000D02*
X117400000Y-67575000D01*
%TO.N,/SDA1*%
X110200000Y-45600000D02*
X110200000Y-46400000D01*
X111200000Y-44600000D02*
X110200000Y-45600000D01*
X111200000Y-43650000D02*
X111200000Y-44600000D01*
%TO.N,Net-(U10B-+)*%
X128025000Y-53825000D02*
X128200000Y-54000000D01*
X127000000Y-53825000D02*
X128025000Y-53825000D01*
X110525000Y-57475000D02*
X110400000Y-57600000D01*
X111695000Y-57475000D02*
X110525000Y-57475000D01*
%TO.N,GND*%
X127000000Y-52175000D02*
X127000000Y-51000000D01*
X128800000Y-57800000D02*
X128200000Y-58400000D01*
X128800000Y-57175000D02*
X128800000Y-57800000D01*
%TO.N,VDD*%
X125285000Y-57225000D02*
X123925000Y-58585000D01*
X127000000Y-57225000D02*
X125285000Y-57225000D01*
%TO.N,Net-(U10B-+)*%
X127050000Y-55625000D02*
X127000000Y-55575000D01*
X128800000Y-55625000D02*
X127050000Y-55625000D01*
X127000000Y-55575000D02*
X127000000Y-53825000D01*
%TO.N,Net-(U10B--)*%
X112965000Y-58260000D02*
X112965000Y-57475000D01*
X111625000Y-59600000D02*
X112965000Y-58260000D01*
%TO.N,Net-(C17-Pad1)*%
X124175000Y-49200000D02*
X124975000Y-49200000D01*
X123175000Y-50200000D02*
X124175000Y-49200000D01*
X124975000Y-49200000D02*
X125975000Y-48200000D01*
%TO.N,Net-(U10B--)*%
X120425000Y-49000000D02*
X123625000Y-49000000D01*
X119225000Y-50200000D02*
X120425000Y-49000000D01*
X123625000Y-49000000D02*
X124425000Y-48200000D01*
%TO.N,GND*%
X109400000Y-50600000D02*
X108600000Y-51400000D01*
X110200000Y-50600000D02*
X109400000Y-50600000D01*
X111400000Y-50800000D02*
X111200000Y-50600000D01*
X111695000Y-51095000D02*
X111400000Y-50800000D01*
X111200000Y-50600000D02*
X110200000Y-50600000D01*
X111695000Y-52525000D02*
X111695000Y-51095000D01*
%TO.N,Net-(U10A-+)*%
X122800000Y-48000000D02*
X124400000Y-46400000D01*
X115200000Y-48000000D02*
X122800000Y-48000000D01*
X112965000Y-50235000D02*
X115200000Y-48000000D01*
X124400000Y-46400000D02*
X124400000Y-40575000D01*
X112965000Y-52525000D02*
X112965000Y-50235000D01*
X124400000Y-40575000D02*
X121225000Y-37400000D01*
%TO.N,Net-(U10A--)*%
X114235000Y-50765000D02*
X114800000Y-50200000D01*
X114800000Y-50200000D02*
X115575000Y-50200000D01*
X114235000Y-52525000D02*
X114235000Y-50765000D01*
%TO.N,Net-(C17-Pad1)*%
X121800000Y-51600000D02*
X123175000Y-50225000D01*
X118400000Y-51600000D02*
X121800000Y-51600000D01*
X117200000Y-52800000D02*
X118400000Y-51600000D01*
X117200000Y-54600000D02*
X117200000Y-52800000D01*
X115800000Y-56000000D02*
X117200000Y-54600000D01*
X123175000Y-50225000D02*
X123175000Y-50200000D01*
X114600000Y-56000000D02*
X115800000Y-56000000D01*
X114235000Y-56365000D02*
X114600000Y-56000000D01*
X114235000Y-57475000D02*
X114235000Y-56365000D01*
%TO.N,GND*%
X114025000Y-59600000D02*
X112800000Y-59600000D01*
%TO.N,+12V*%
X115575000Y-60625000D02*
X115400000Y-60800000D01*
X115575000Y-59600000D02*
X115575000Y-60625000D01*
X115505000Y-59530000D02*
X115575000Y-59600000D01*
X115505000Y-57475000D02*
X115505000Y-59530000D01*
%TO.N,Net-(U10B--)*%
X115600000Y-55400000D02*
X114400000Y-55400000D01*
X112965000Y-56835000D02*
X112965000Y-57475000D01*
X116600000Y-54400000D02*
X115600000Y-55400000D01*
X116600000Y-52600000D02*
X116600000Y-54400000D01*
X117225000Y-51975000D02*
X116600000Y-52600000D01*
X117225000Y-50200000D02*
X117225000Y-51975000D01*
X114400000Y-55400000D02*
X112965000Y-56835000D01*
%TO.N,Net-(U10A--)*%
X115505000Y-50270000D02*
X115575000Y-50200000D01*
X115505000Y-52525000D02*
X115505000Y-50270000D01*
%TO.N,Net-(U10B--)*%
X117225000Y-50200000D02*
X119225000Y-50200000D01*
%TO.N,Net-(Q2-B)*%
X124825000Y-53815000D02*
X124680000Y-53960000D01*
X124825000Y-50200000D02*
X124825000Y-53815000D01*
%TO.N,GND*%
X134845000Y-40445000D02*
X134845000Y-39275000D01*
X135300000Y-40900000D02*
X134845000Y-40445000D01*
X166845000Y-40800000D02*
X166845000Y-39175000D01*
X150845000Y-40845000D02*
X150845000Y-39275000D01*
X127450000Y-59600000D02*
X127450000Y-61200000D01*
X143250000Y-59600000D02*
X143250000Y-61200000D01*
X159350000Y-59600000D02*
X159350000Y-61100000D01*
%TO.N,Net-(J9-Pin_3)*%
X102425000Y-41625000D02*
X102425000Y-41600000D01*
X103400000Y-42600000D02*
X102425000Y-41625000D01*
%TO.N,/SCL*%
X104710000Y-37510000D02*
X105600000Y-38400000D01*
%TO.N,/SDA*%
X106000000Y-37600000D02*
X105000000Y-36600000D01*
X90600000Y-36600000D02*
X90400000Y-36800000D01*
X92950000Y-36600000D02*
X90600000Y-36600000D01*
%TO.N,/SCL*%
X90500000Y-35500000D02*
X90400000Y-35600000D01*
X92950000Y-35500000D02*
X90500000Y-35500000D01*
%TO.N,GND*%
X113575000Y-63225000D02*
X112800000Y-64000000D01*
X113575000Y-63200000D02*
X113575000Y-63225000D01*
X117400000Y-66025000D02*
X116232500Y-66025000D01*
X115007500Y-64800000D02*
X116232500Y-66025000D01*
X119200000Y-66025000D02*
X117400000Y-66025000D01*
X113575000Y-63367500D02*
X113575000Y-63200000D01*
X115007500Y-64800000D02*
X113575000Y-63367500D01*
%TO.N,Net-(J9-Pin_3)*%
X87775000Y-58575000D02*
X88000000Y-58800000D01*
X85050000Y-58575000D02*
X87775000Y-58575000D01*
%TO.N,/RESET*%
X108150000Y-39800000D02*
X105600000Y-39800000D01*
%TO.N,/RX*%
X105000000Y-42200000D02*
X105600000Y-42800000D01*
X105000000Y-41350057D02*
X105000000Y-42200000D01*
X105750057Y-40600000D02*
X105000000Y-41350057D01*
X108150000Y-40600000D02*
X105750057Y-40600000D01*
%TO.N,/TX*%
X105800000Y-41400000D02*
X108150000Y-41400000D01*
%TO.N,/PPS*%
X109600000Y-44800000D02*
X109600000Y-43650000D01*
X102200000Y-45600000D02*
X108800000Y-45600000D01*
X108800000Y-45600000D02*
X109600000Y-44800000D01*
%TO.N,/TX*%
X93000000Y-47400000D02*
X92930000Y-47330000D01*
X92930000Y-47330000D02*
X90705000Y-47330000D01*
%TO.N,/RX*%
X92870000Y-49870000D02*
X90705000Y-49870000D01*
X93000000Y-50000000D02*
X92870000Y-49870000D01*
%TO.N,/TX*%
X87075000Y-61075000D02*
X87200000Y-61200000D01*
X85050000Y-61075000D02*
X87075000Y-61075000D01*
%TO.N,/RX*%
X87175000Y-59825000D02*
X87200000Y-59800000D01*
X85050000Y-59825000D02*
X87175000Y-59825000D01*
%TO.N,/SDA1*%
X161000000Y-47660000D02*
X160630000Y-48030000D01*
X160410000Y-48250000D02*
X158525000Y-48250000D01*
X160630000Y-48030000D02*
X160410000Y-48250000D01*
X161000000Y-46400000D02*
X161000000Y-47660000D01*
X145400000Y-46500000D02*
X145400000Y-48600000D01*
%TO.N,/SCL1*%
X146050000Y-46500000D02*
X146050000Y-49450000D01*
X146050000Y-49450000D02*
X146200000Y-49600000D01*
%TO.N,/SDA1*%
X129500000Y-46600000D02*
X129500000Y-48500000D01*
X129500000Y-48500000D02*
X129400000Y-48600000D01*
%TO.N,/SCL1*%
X130150000Y-49550000D02*
X130200000Y-49600000D01*
X130150000Y-46600000D02*
X130150000Y-49550000D01*
X113600000Y-45000000D02*
X114400000Y-45800000D01*
X113600000Y-43650000D02*
X113600000Y-45000000D01*
%TO.N,+3.3V*%
X156850000Y-48250000D02*
X156000000Y-47400000D01*
X156875000Y-48250000D02*
X156850000Y-48250000D01*
%TO.N,GND*%
X130575000Y-44375000D02*
X129600000Y-43400000D01*
X130575000Y-44400000D02*
X130575000Y-44375000D01*
%TO.N,+3.3V*%
X129025000Y-44400000D02*
X128000000Y-44400000D01*
X144825000Y-44400000D02*
X143600000Y-44400000D01*
X160425000Y-44400000D02*
X159200000Y-44400000D01*
%TO.N,GND*%
X161975000Y-44375000D02*
X161000000Y-43400000D01*
X161975000Y-44400000D02*
X161975000Y-44375000D01*
X146375000Y-44375000D02*
X145400000Y-43400000D01*
X146375000Y-44400000D02*
X146375000Y-44375000D01*
%TO.N,+3.3V*%
X144800000Y-54150057D02*
X144800000Y-54200000D01*
X145400000Y-53550057D02*
X144800000Y-54150057D01*
X145400000Y-52225000D02*
X145400000Y-53550057D01*
%TO.N,GND*%
X146050000Y-53750000D02*
X145800000Y-54000000D01*
X146050000Y-52225000D02*
X146050000Y-53750000D01*
X129500000Y-54100000D02*
X129800000Y-54400000D01*
X129500000Y-52325000D02*
X129500000Y-54100000D01*
X130150000Y-54050000D02*
X129800000Y-54400000D01*
X130150000Y-52325000D02*
X130150000Y-54050000D01*
%TO.N,VDD*%
X158050000Y-68650000D02*
X158000000Y-68600000D01*
X158050000Y-70000000D02*
X158050000Y-68650000D01*
X159300000Y-68700000D02*
X159200000Y-68600000D01*
X159300000Y-70000000D02*
X159300000Y-68700000D01*
X142150000Y-68650000D02*
X142200000Y-68600000D01*
X142150000Y-70000000D02*
X142150000Y-68650000D01*
X143400000Y-70000000D02*
X143400000Y-68600000D01*
X127500000Y-68500000D02*
X127400000Y-68400000D01*
X127500000Y-70000000D02*
X127500000Y-68500000D01*
X126250000Y-68450000D02*
X126200000Y-68400000D01*
X126250000Y-70000000D02*
X126250000Y-68450000D01*
%TO.N,GND*%
X167500000Y-53300000D02*
X167800000Y-53600000D01*
X167500000Y-52125000D02*
X167500000Y-53300000D01*
X151900000Y-53500000D02*
X152200000Y-53800000D01*
X151900000Y-52225000D02*
X151900000Y-53500000D01*
X136000000Y-53600000D02*
X136400000Y-54000000D01*
X136000000Y-52325000D02*
X136000000Y-53600000D01*
%TO.N,Net-(D3-A)*%
X87425000Y-57325000D02*
X87550000Y-57200000D01*
X85050000Y-57325000D02*
X87425000Y-57325000D01*
%TO.N,+3.3V*%
X83475000Y-56075000D02*
X83400000Y-56000000D01*
X85050000Y-56075000D02*
X83475000Y-56075000D01*
%TO.N,GND*%
X83275000Y-62325000D02*
X83200000Y-62400000D01*
X85050000Y-62325000D02*
X83275000Y-62325000D01*
%TO.N,VDD*%
X152000000Y-30050000D02*
X152000000Y-31800000D01*
X150750000Y-31750000D02*
X150800000Y-31800000D01*
X150750000Y-30050000D02*
X150750000Y-31750000D01*
X134850000Y-31650000D02*
X135000000Y-31800000D01*
X134850000Y-30050000D02*
X134850000Y-31650000D01*
X136100000Y-31700000D02*
X136200000Y-31800000D01*
X136100000Y-30050000D02*
X136100000Y-31700000D01*
X167900000Y-31700000D02*
X167800000Y-31800000D01*
X167900000Y-30050000D02*
X167900000Y-31700000D01*
X166650000Y-31750000D02*
X166600000Y-31800000D01*
X166650000Y-30050000D02*
X166650000Y-31750000D01*
%TO.N,Net-(U11-IO1_5)*%
X143225000Y-40775000D02*
X143225000Y-39275000D01*
X144650000Y-42200000D02*
X143225000Y-40775000D01*
X146800000Y-42200000D02*
X144650000Y-42200000D01*
X148650000Y-44050000D02*
X146800000Y-42200000D01*
X148650000Y-46500000D02*
X148650000Y-44050000D01*
%TO.N,Net-(U11-IO1_4)*%
X149300000Y-44100000D02*
X149300000Y-46500000D01*
X145200000Y-41600000D02*
X146800000Y-41600000D01*
X144495000Y-39275000D02*
X144495000Y-40895000D01*
X144495000Y-40895000D02*
X145200000Y-41600000D01*
X146800000Y-41600000D02*
X149300000Y-44100000D01*
%TO.N,Net-(U11-IO1_3)*%
X145765000Y-40765000D02*
X145765000Y-39275000D01*
X147200000Y-41200000D02*
X146200000Y-41200000D01*
X149950000Y-46500000D02*
X149950000Y-43950000D01*
X149950000Y-43950000D02*
X147200000Y-41200000D01*
X146200000Y-41200000D02*
X145765000Y-40765000D01*
%TO.N,Net-(U11-IO1_6)*%
X148000000Y-44200000D02*
X148000000Y-46500000D01*
X144200000Y-42800000D02*
X146600000Y-42800000D01*
X141955000Y-40555000D02*
X144200000Y-42800000D01*
X146600000Y-42800000D02*
X148000000Y-44200000D01*
X141955000Y-39275000D02*
X141955000Y-40555000D01*
%TO.N,Net-(U11-IO1_1)*%
X148305000Y-40705000D02*
X148305000Y-39275000D01*
X151250000Y-43650000D02*
X148305000Y-40705000D01*
X151250000Y-46500000D02*
X151250000Y-43650000D01*
%TO.N,Net-(U11-IO1_0)*%
X149575000Y-40775000D02*
X149575000Y-39275000D01*
X151900000Y-43100000D02*
X149575000Y-40775000D01*
X151900000Y-46500000D02*
X151900000Y-43100000D01*
%TO.N,Net-(U1-IO1_6)*%
X132100000Y-44500000D02*
X132100000Y-46600000D01*
X127800000Y-42600000D02*
X130200000Y-42600000D01*
X130200000Y-42600000D02*
X132100000Y-44500000D01*
X125955000Y-40755000D02*
X127800000Y-42600000D01*
X125955000Y-39275000D02*
X125955000Y-40755000D01*
%TO.N,Net-(U1-IO1_5)*%
X130600000Y-42000000D02*
X128400000Y-42000000D01*
X128400000Y-42000000D02*
X127225000Y-40825000D01*
X132750000Y-44150000D02*
X130600000Y-42000000D01*
X132750000Y-46600000D02*
X132750000Y-44150000D01*
X127225000Y-40825000D02*
X127225000Y-39275000D01*
%TO.N,Net-(U1-IO1_4)*%
X129600000Y-41600000D02*
X130800000Y-41600000D01*
X128495000Y-40495000D02*
X129600000Y-41600000D01*
X130800000Y-41600000D02*
X133400000Y-44200000D01*
X133400000Y-44200000D02*
X133400000Y-46600000D01*
X128495000Y-39275000D02*
X128495000Y-40495000D01*
%TO.N,Net-(U1-IO1_3)*%
X129765000Y-40365000D02*
X129765000Y-39275000D01*
X130600000Y-41200000D02*
X129765000Y-40365000D01*
X131200000Y-41200000D02*
X130600000Y-41200000D01*
X134050000Y-44050000D02*
X131200000Y-41200000D01*
X134050000Y-46600000D02*
X134050000Y-44050000D01*
%TO.N,Net-(U1-IO1_2)*%
X131035000Y-40435000D02*
X131035000Y-39275000D01*
X131400000Y-40800000D02*
X131035000Y-40435000D01*
X131800000Y-40800000D02*
X131400000Y-40800000D01*
X134700000Y-43700000D02*
X131800000Y-40800000D01*
X134700000Y-46600000D02*
X134700000Y-43700000D01*
%TO.N,Net-(U1-IO1_1)*%
X132305000Y-40305000D02*
X132305000Y-39275000D01*
X135350000Y-43350000D02*
X132305000Y-40305000D01*
X135350000Y-46600000D02*
X135350000Y-43350000D01*
%TO.N,Net-(U1-IO1_0)*%
X133575000Y-40575000D02*
X133575000Y-39275000D01*
X136000000Y-43000000D02*
X133575000Y-40575000D01*
X136000000Y-46600000D02*
X136000000Y-43000000D01*
%TO.N,/GPS_RX*%
X84130000Y-49870000D02*
X84200000Y-49800000D01*
X82095000Y-49870000D02*
X84130000Y-49870000D01*
%TO.N,/GPS_TX*%
X84070000Y-47330000D02*
X84200000Y-47200000D01*
X82095000Y-47330000D02*
X84070000Y-47330000D01*
%TO.N,/PPS*%
X85100000Y-37700000D02*
X85400000Y-38000000D01*
X83450000Y-37700000D02*
X85100000Y-37700000D01*
%TO.N,/GPS_RX*%
X85200000Y-36600000D02*
X85400000Y-36800000D01*
X83450000Y-36600000D02*
X85200000Y-36600000D01*
%TO.N,/GPS_TX*%
X85300000Y-35500000D02*
X85400000Y-35600000D01*
X83450000Y-35500000D02*
X85300000Y-35500000D01*
%TO.N,+3.3V*%
X81200000Y-41575000D02*
X81200000Y-42800000D01*
X82200000Y-40200000D02*
X82200000Y-41000000D01*
X83450000Y-41000000D02*
X82200000Y-41000000D01*
X82500000Y-39900000D02*
X82200000Y-40200000D01*
X83450000Y-39900000D02*
X82500000Y-39900000D01*
X81775000Y-41000000D02*
X81200000Y-41575000D01*
X82200000Y-41000000D02*
X81775000Y-41000000D01*
X81725000Y-42100000D02*
X81200000Y-41575000D01*
X83450000Y-42100000D02*
X81725000Y-42100000D01*
%TO.N,GND*%
X121175000Y-35000000D02*
X122600000Y-35000000D01*
%TO.N,Net-(U10A-+)*%
X121225000Y-36600000D02*
X119625000Y-35000000D01*
X121225000Y-37400000D02*
X121225000Y-36600000D01*
%TO.N,/PWM9*%
X117975000Y-39000000D02*
X119575000Y-37400000D01*
X116650000Y-39000000D02*
X117975000Y-39000000D01*
%TO.N,GND*%
X118300000Y-41700000D02*
X118200000Y-41800000D01*
X119625000Y-41700000D02*
X118300000Y-41700000D01*
%TO.N,Net-(D1-A)*%
X121225000Y-41550000D02*
X121375000Y-41700000D01*
X121225000Y-39600000D02*
X121225000Y-41550000D01*
%TO.N,/LED_INT*%
X118575000Y-40600000D02*
X119575000Y-39600000D01*
X116650000Y-40600000D02*
X118575000Y-40600000D01*
%TO.N,GND*%
X120400000Y-45000000D02*
X118000000Y-45000000D01*
%TO.N,Net-(U5-XTAL2{slash}PB7)*%
X116400000Y-45200000D02*
X115600000Y-45200000D01*
X117800000Y-43800000D02*
X116400000Y-45200000D01*
X120400000Y-43800000D02*
X117800000Y-43800000D01*
%TO.N,GND*%
X120400000Y-45000000D02*
X122800000Y-45000000D01*
%TO.N,Net-(U5-XTAL2{slash}PB7)*%
X115200000Y-44800000D02*
X115600000Y-45200000D01*
X115200000Y-43650000D02*
X115200000Y-44800000D01*
X115600000Y-45200000D02*
X115800000Y-45200000D01*
%TO.N,Net-(U5-XTAL1{slash}PB6)*%
X114400000Y-44650000D02*
X115950000Y-46200000D01*
X115950000Y-46200000D02*
X120400000Y-46200000D01*
X114400000Y-43650000D02*
X114400000Y-44650000D01*
%TO.N,+3.3V*%
X111425000Y-46825000D02*
X111600000Y-47000000D01*
X111425000Y-46000000D02*
X111425000Y-46825000D01*
%TO.N,GND*%
X112975000Y-46975000D02*
X113000000Y-47000000D01*
X112975000Y-46000000D02*
X112975000Y-46975000D01*
X112800000Y-45825000D02*
X112975000Y-46000000D01*
X112800000Y-43650000D02*
X112800000Y-45825000D01*
%TO.N,+3.3V*%
X112000000Y-45425000D02*
X111425000Y-46000000D01*
X112000000Y-43650000D02*
X112000000Y-45425000D01*
%TO.N,GND*%
X112825000Y-31775000D02*
X113000000Y-31600000D01*
X112825000Y-32800000D02*
X112825000Y-31775000D01*
%TO.N,+3.3V*%
X114375000Y-31625000D02*
X114400000Y-31600000D01*
X114375000Y-32800000D02*
X114375000Y-31625000D01*
X109375000Y-32625000D02*
X110200000Y-31800000D01*
X109375000Y-32800000D02*
X109375000Y-32625000D01*
X104975000Y-32800000D02*
X104487500Y-33287500D01*
X105775000Y-32800000D02*
X104975000Y-32800000D01*
X102375000Y-35400000D02*
X104487500Y-33287500D01*
X102375000Y-35400000D02*
X102375000Y-39600000D01*
%TO.N,/SDA*%
X104600000Y-35400000D02*
X104025000Y-35400000D01*
X105000000Y-35800000D02*
X104600000Y-35400000D01*
X105000000Y-36600000D02*
X105000000Y-35800000D01*
X106600000Y-38200000D02*
X106000000Y-37600000D01*
X108150000Y-38200000D02*
X106600000Y-38200000D01*
%TO.N,/SCL*%
X106200000Y-39000000D02*
X108150000Y-39000000D01*
X105600000Y-38400000D02*
X106200000Y-39000000D01*
X104025000Y-37510000D02*
X104710000Y-37510000D01*
%TO.N,/RESET*%
X103975000Y-39650000D02*
X104025000Y-39600000D01*
X103975000Y-41600000D02*
X103975000Y-39650000D01*
X104225000Y-39800000D02*
X104025000Y-39600000D01*
X105600000Y-39800000D02*
X104225000Y-39800000D01*
%TO.N,/SCK*%
X117800000Y-25800000D02*
X119000000Y-27000000D01*
X115600000Y-25800000D02*
X117800000Y-25800000D01*
X114800000Y-30600000D02*
X114800000Y-26600000D01*
X114800000Y-26600000D02*
X115600000Y-25800000D01*
X115200000Y-31000000D02*
X114800000Y-30600000D01*
X115200000Y-35150000D02*
X115200000Y-31000000D01*
%TO.N,/MOSI*%
X118400000Y-36800000D02*
X118400000Y-29600000D01*
X117800000Y-37400000D02*
X118400000Y-36800000D01*
X118400000Y-29600000D02*
X119000000Y-29000000D01*
X116650000Y-37400000D02*
X117800000Y-37400000D01*
%TO.N,/MISO*%
X115400000Y-28600000D02*
X117000000Y-27000000D01*
X115400000Y-30400000D02*
X115400000Y-28600000D01*
X118000000Y-33000000D02*
X115400000Y-30400000D01*
X117800000Y-36600000D02*
X118000000Y-36400000D01*
X116650000Y-36600000D02*
X117800000Y-36600000D01*
X118000000Y-36400000D02*
X118000000Y-33000000D01*
%TO.N,GND*%
X107725000Y-28525000D02*
X107600000Y-28400000D01*
X107725000Y-30050000D02*
X107725000Y-28525000D01*
X110225000Y-28425000D02*
X110200000Y-28400000D01*
X110225000Y-30050000D02*
X110225000Y-28425000D01*
X112800000Y-32800000D02*
X112000000Y-33600000D01*
X112825000Y-32800000D02*
X112800000Y-32800000D01*
X112000000Y-35150000D02*
X112000000Y-33600000D01*
%TO.N,+3.3V*%
X114375000Y-35125000D02*
X114400000Y-35150000D01*
X114375000Y-32800000D02*
X114375000Y-35125000D01*
%TO.N,/ADC1*%
X109200000Y-33800000D02*
X109600000Y-34200000D01*
X109600000Y-34200000D02*
X109600000Y-35150000D01*
X108425000Y-33800000D02*
X109200000Y-33800000D01*
X107425000Y-32800000D02*
X108425000Y-33800000D01*
%TO.N,/ADC0*%
X110400000Y-33425000D02*
X111025000Y-32800000D01*
X110400000Y-35150000D02*
X110400000Y-33425000D01*
X111475000Y-32350000D02*
X111025000Y-32800000D01*
X111475000Y-30050000D02*
X111475000Y-32350000D01*
%TO.N,/ADC1*%
X108975000Y-31250000D02*
X107425000Y-32800000D01*
X108975000Y-30050000D02*
X108975000Y-31250000D01*
%TO.N,GND*%
X176725000Y-49725000D02*
X176800000Y-49800000D01*
X174750000Y-49725000D02*
X176725000Y-49725000D01*
X174750000Y-46050000D02*
X174800000Y-46000000D01*
X174750000Y-47225000D02*
X174750000Y-46050000D01*
%TO.N,VDD*%
X174660000Y-37660000D02*
X174600000Y-37600000D01*
X174660000Y-38847500D02*
X174660000Y-37660000D01*
X174530000Y-60330000D02*
X174600000Y-60400000D01*
X174530000Y-59042500D02*
X174530000Y-60330000D01*
%TO.N,Net-(J12-Pin_3)*%
X173475000Y-48475000D02*
X174750000Y-48475000D01*
X172800000Y-47800000D02*
X173475000Y-48475000D01*
X172800000Y-43200000D02*
X172800000Y-47800000D01*
X174227500Y-41772500D02*
X172800000Y-43200000D01*
X174660000Y-41772500D02*
X174227500Y-41772500D01*
%TO.N,Net-(J12-Pin_1)*%
X174530000Y-51195000D02*
X174750000Y-50975000D01*
X174530000Y-56117500D02*
X174530000Y-51195000D01*
%TO.N,Net-(J1-In)*%
X93544365Y-42100000D02*
X92950000Y-42100000D01*
X96234314Y-43234315D02*
X96200000Y-43200000D01*
X98234315Y-43800000D02*
X97600000Y-43800000D01*
X99800000Y-35882843D02*
X99800000Y-41951472D01*
X99400000Y-35200000D02*
X99600000Y-35400000D01*
X97000000Y-34575000D02*
X97891117Y-34575000D01*
X96200000Y-43200000D02*
G75*
G03*
X93544365Y-42100014I-2655600J-2655600D01*
G01*
X97600000Y-43800000D02*
G75*
G02*
X96234308Y-43234321I0J1931400D01*
G01*
X99200000Y-43400000D02*
G75*
G02*
X98234315Y-43800006I-965700J965700D01*
G01*
X99800000Y-41951472D02*
G75*
G02*
X99200008Y-43400008I-2048500J-28D01*
G01*
X99600000Y-35400000D02*
G75*
G02*
X99799953Y-35882843I-482900J-482800D01*
G01*
X97891117Y-34575000D02*
G75*
G02*
X99399995Y-35200005I-17J-2133900D01*
G01*
%TO.N,Net-(U2-VCC_RF)*%
X95375000Y-38800000D02*
X92950000Y-38800000D01*
%TO.N,Net-(C3-Pad1)*%
X97000000Y-40775000D02*
X96975000Y-40800000D01*
X97000000Y-36625000D02*
X97000000Y-40775000D01*
%TO.N,Net-(J1-In)*%
X97000000Y-34575000D02*
X97000000Y-27762500D01*
X92950000Y-42100000D02*
G75*
G03*
X93191421Y-42199991I241400J241400D01*
G01*
%TO.N,Net-(U6-IO1_6)*%
X160430000Y-41510000D02*
X163600000Y-44680000D01*
X163600000Y-44680000D02*
X163600000Y-46400000D01*
X158840000Y-41510000D02*
X160430000Y-41510000D01*
X157955000Y-40625000D02*
X158840000Y-41510000D01*
X157955000Y-39175000D02*
X157955000Y-40625000D01*
%TO.N,Net-(U6-IO1_5)*%
X159225000Y-40445000D02*
X159225000Y-39175000D01*
X159680000Y-40900000D02*
X159225000Y-40445000D01*
X160520000Y-40900000D02*
X159680000Y-40900000D01*
X164250000Y-44630000D02*
X160520000Y-40900000D01*
X164250000Y-46400000D02*
X164250000Y-44630000D01*
%TO.N,Net-(U6-IO1_4)*%
X164900000Y-44630000D02*
X160495000Y-40225000D01*
X164900000Y-46400000D02*
X164900000Y-44630000D01*
X160495000Y-40225000D02*
X160495000Y-39175000D01*
%TO.N,Net-(U6-IO1_3)*%
X165550000Y-44350000D02*
X161765000Y-40565000D01*
X165550000Y-46400000D02*
X165550000Y-44350000D01*
X161765000Y-40565000D02*
X161765000Y-39175000D01*
%TO.N,Net-(U6-IO1_2)*%
X163035000Y-40605000D02*
X163035000Y-39175000D01*
X166200000Y-43770000D02*
X163035000Y-40605000D01*
X166200000Y-46400000D02*
X166200000Y-43770000D01*
%TO.N,Net-(U6-IO1_1)*%
X164305000Y-40805000D02*
X164305000Y-39175000D01*
X166850000Y-43350000D02*
X164305000Y-40805000D01*
X166850000Y-46400000D02*
X166850000Y-43350000D01*
%TO.N,Net-(U6-IO1_0)*%
X165575000Y-40975000D02*
X165575000Y-39175000D01*
X167500000Y-42900000D02*
X165575000Y-40975000D01*
X167500000Y-46400000D02*
X167500000Y-42900000D01*
%TO.N,+3.3V*%
X156855000Y-48270000D02*
X156875000Y-48250000D01*
X156855000Y-50590000D02*
X156855000Y-48270000D01*
%TO.N,/SCL1*%
X161650000Y-49280000D02*
X161650000Y-46400000D01*
X160340000Y-50590000D02*
X161650000Y-49280000D01*
X158505000Y-50590000D02*
X160340000Y-50590000D01*
%TO.N,+3.3V*%
X161386500Y-45361500D02*
X160425000Y-44400000D01*
X162300000Y-45662501D02*
X161998999Y-45361500D01*
X161998999Y-45361500D02*
X161386500Y-45361500D01*
X162300000Y-46400000D02*
X162300000Y-45662501D01*
X160350000Y-46400000D02*
X160350000Y-44475000D01*
X160350000Y-44475000D02*
X160425000Y-44400000D01*
%TO.N,GND*%
X146700000Y-44725000D02*
X146375000Y-44400000D01*
X146700000Y-46500000D02*
X146700000Y-44725000D01*
%TO.N,+3.3V*%
X144750000Y-44475000D02*
X144825000Y-44400000D01*
X144750000Y-46500000D02*
X144750000Y-44475000D01*
X128850000Y-44575000D02*
X129025000Y-44400000D01*
X128850000Y-46600000D02*
X128850000Y-44575000D01*
%TO.N,GND*%
X130800000Y-44625000D02*
X130575000Y-44400000D01*
X130800000Y-46600000D02*
X130800000Y-44625000D01*
%TO.N,Net-(U1-IO0_6)*%
X134700000Y-57040000D02*
X134700000Y-52325000D01*
X136340000Y-58680000D02*
X134700000Y-57040000D01*
X136340000Y-61200000D02*
X136340000Y-58680000D01*
%TO.N,Net-(U1-IO0_5)*%
X134050000Y-57540000D02*
X134050000Y-52325000D01*
X135070000Y-58560000D02*
X134050000Y-57540000D01*
X135070000Y-61200000D02*
X135070000Y-58560000D01*
%TO.N,Net-(U1-IO0_4)*%
X133400000Y-58170000D02*
X133400000Y-52325000D01*
X133800000Y-58570000D02*
X133400000Y-58170000D01*
X133800000Y-61200000D02*
X133800000Y-58570000D01*
%TO.N,Net-(U1-IO0_3)*%
X132750000Y-58280000D02*
X132750000Y-52325000D01*
X132530000Y-58500000D02*
X132750000Y-58280000D01*
X132530000Y-61200000D02*
X132530000Y-58500000D01*
%TO.N,Net-(U1-IO0_2)*%
X132100000Y-58090000D02*
X132100000Y-52325000D01*
X131260000Y-58930000D02*
X132100000Y-58090000D01*
X131260000Y-61200000D02*
X131260000Y-58930000D01*
%TO.N,Net-(U1-IO0_1)*%
X131450000Y-57440000D02*
X131450000Y-52325000D01*
X129990000Y-58900000D02*
X131450000Y-57440000D01*
X129990000Y-61200000D02*
X129990000Y-58900000D01*
%TO.N,Net-(U1-IO0_0)*%
X130800000Y-57060000D02*
X130800000Y-52325000D01*
X128720000Y-59140000D02*
X130800000Y-57060000D01*
X128720000Y-61200000D02*
X128720000Y-59140000D01*
%TO.N,Net-(U11-IO0_6)*%
X150600000Y-57150000D02*
X150600000Y-52225000D01*
X152140000Y-58690000D02*
X150600000Y-57150000D01*
X152140000Y-61200000D02*
X152140000Y-58690000D01*
%TO.N,Net-(U11-IO0_5)*%
X150870000Y-58410000D02*
X149950000Y-57490000D01*
X149950000Y-57490000D02*
X149950000Y-52225000D01*
X150870000Y-61200000D02*
X150870000Y-58410000D01*
%TO.N,Net-(U11-IO0_4)*%
X149600000Y-58330000D02*
X149300000Y-58030000D01*
X149300000Y-58030000D02*
X149300000Y-52225000D01*
X149600000Y-61200000D02*
X149600000Y-58330000D01*
%TO.N,Net-(U11-IO0_3)*%
X148330000Y-58080000D02*
X148330000Y-61200000D01*
X148650000Y-57760000D02*
X148330000Y-58080000D01*
X148650000Y-52225000D02*
X148650000Y-57760000D01*
%TO.N,Net-(U11-IO0_2)*%
X148000000Y-57350000D02*
X148000000Y-52225000D01*
X147060000Y-58290000D02*
X148000000Y-57350000D01*
X147060000Y-61200000D02*
X147060000Y-58290000D01*
%TO.N,Net-(U11-IO0_1)*%
X145790000Y-58350000D02*
X145790000Y-61200000D01*
X147350000Y-52225000D02*
X147350000Y-56790000D01*
X147350000Y-56790000D02*
X145790000Y-58350000D01*
%TO.N,Net-(U11-IO0_0)*%
X144520000Y-58600000D02*
X146700000Y-56420000D01*
X146700000Y-56420000D02*
X146700000Y-52225000D01*
X144520000Y-61200000D02*
X144520000Y-58600000D01*
%TO.N,Net-(U6-IO0_3)*%
X164250000Y-57800000D02*
X164430000Y-57980000D01*
X164250000Y-52125000D02*
X164250000Y-57800000D01*
X164430000Y-57980000D02*
X164430000Y-61100000D01*
%TO.N,Net-(U6-IO0_6)*%
X168240000Y-58210000D02*
X166200000Y-56170000D01*
X168240000Y-61100000D02*
X168240000Y-58210000D01*
X166200000Y-56170000D02*
X166200000Y-52125000D01*
%TO.N,Net-(U6-IO0_5)*%
X166970000Y-58170000D02*
X166970000Y-61100000D01*
X165550000Y-56750000D02*
X166970000Y-58170000D01*
X165550000Y-52125000D02*
X165550000Y-56750000D01*
%TO.N,Net-(U6-IO0_4)*%
X164900000Y-57190000D02*
X164900000Y-52125000D01*
X165700000Y-57990000D02*
X164900000Y-57190000D01*
X165700000Y-61100000D02*
X165700000Y-57990000D01*
%TO.N,Net-(U6-IO0_1)*%
X162950000Y-57150000D02*
X162950000Y-52125000D01*
X161890000Y-58210000D02*
X162950000Y-57150000D01*
X161890000Y-61100000D02*
X161890000Y-58210000D01*
%TO.N,Net-(U6-IO0_2)*%
X163600000Y-57600000D02*
X163600000Y-52125000D01*
X163160000Y-58040000D02*
X163600000Y-57600000D01*
X163160000Y-61100000D02*
X163160000Y-58040000D01*
%TO.N,Net-(U6-IO0_0)*%
X162300000Y-56300000D02*
X162300000Y-52125000D01*
X160620000Y-57980000D02*
X162300000Y-56300000D01*
X160620000Y-61100000D02*
X160620000Y-57980000D01*
%TO.N,/G3*%
X168050000Y-70000000D02*
X168050000Y-66240000D01*
X168050000Y-66240000D02*
X168240000Y-66050000D01*
%TO.N,/F3*%
X166800000Y-66220000D02*
X166970000Y-66050000D01*
X166800000Y-70000000D02*
X166800000Y-66220000D01*
%TO.N,/E3*%
X165550000Y-66200000D02*
X165700000Y-66050000D01*
X165550000Y-70000000D02*
X165550000Y-66200000D01*
%TO.N,/D3*%
X164300000Y-66180000D02*
X164430000Y-66050000D01*
X164300000Y-70000000D02*
X164300000Y-66180000D01*
%TO.N,/C3*%
X163050000Y-70000000D02*
X163050000Y-66160000D01*
X163050000Y-66160000D02*
X163160000Y-66050000D01*
%TO.N,/B3*%
X161800000Y-66140000D02*
X161890000Y-66050000D01*
X161800000Y-70000000D02*
X161800000Y-66140000D01*
%TO.N,/A3*%
X160550000Y-66120000D02*
X160620000Y-66050000D01*
X160550000Y-70000000D02*
X160550000Y-66120000D01*
%TO.N,/A4*%
X165575000Y-30225000D02*
X165400000Y-30050000D01*
X165575000Y-34225000D02*
X165575000Y-30225000D01*
%TO.N,/B4*%
X164305000Y-30205000D02*
X164150000Y-30050000D01*
X164305000Y-34225000D02*
X164305000Y-30205000D01*
%TO.N,/C4*%
X163035000Y-30185000D02*
X162900000Y-30050000D01*
X163035000Y-34225000D02*
X163035000Y-30185000D01*
%TO.N,/D4*%
X161765000Y-30165000D02*
X161650000Y-30050000D01*
X161765000Y-34225000D02*
X161765000Y-30165000D01*
%TO.N,/E4*%
X160495000Y-30145000D02*
X160400000Y-30050000D01*
X160495000Y-34225000D02*
X160495000Y-30145000D01*
%TO.N,/F4*%
X159225000Y-30125000D02*
X159150000Y-30050000D01*
X159225000Y-34225000D02*
X159225000Y-30125000D01*
%TO.N,/G4*%
X157955000Y-30105000D02*
X157900000Y-30050000D01*
X157955000Y-34225000D02*
X157955000Y-30105000D01*
%TO.N,/A6*%
X149575000Y-34325000D02*
X149575000Y-30125000D01*
X149575000Y-30125000D02*
X149500000Y-30050000D01*
%TO.N,/B6*%
X148250000Y-34270000D02*
X148305000Y-34325000D01*
X148250000Y-30050000D02*
X148250000Y-34270000D01*
%TO.N,/C6*%
X147035000Y-30085000D02*
X147000000Y-30050000D01*
X147035000Y-34325000D02*
X147035000Y-30085000D01*
%TO.N,/D6*%
X145750000Y-34310000D02*
X145765000Y-34325000D01*
X145750000Y-30050000D02*
X145750000Y-34310000D01*
%TO.N,/E6*%
X144495000Y-30055000D02*
X144500000Y-30050000D01*
X144495000Y-34325000D02*
X144495000Y-30055000D01*
%TO.N,/F6*%
X143250000Y-34300000D02*
X143225000Y-34325000D01*
X143250000Y-30050000D02*
X143250000Y-34300000D01*
%TO.N,/G6*%
X141955000Y-30095000D02*
X142000000Y-30050000D01*
X141955000Y-34325000D02*
X141955000Y-30095000D01*
%TO.N,/A2*%
X133600000Y-34300000D02*
X133575000Y-34325000D01*
X133600000Y-30050000D02*
X133600000Y-34300000D01*
%TO.N,/B2*%
X132305000Y-34325000D02*
X132305000Y-30095000D01*
X132305000Y-30095000D02*
X132350000Y-30050000D01*
%TO.N,/C2*%
X131100000Y-34260000D02*
X131035000Y-34325000D01*
X131100000Y-30050000D02*
X131100000Y-34260000D01*
%TO.N,/D2*%
X129765000Y-34325000D02*
X129765000Y-30135000D01*
X129765000Y-30135000D02*
X129850000Y-30050000D01*
%TO.N,/E2*%
X128600000Y-34220000D02*
X128495000Y-34325000D01*
X128600000Y-30050000D02*
X128600000Y-34220000D01*
%TO.N,/F2*%
X127225000Y-30175000D02*
X127350000Y-30050000D01*
X127225000Y-34325000D02*
X127225000Y-30175000D01*
%TO.N,/G2*%
X126100000Y-34180000D02*
X125955000Y-34325000D01*
X126100000Y-30050000D02*
X126100000Y-34180000D01*
%TO.N,/G5*%
X152140000Y-69990000D02*
X152150000Y-70000000D01*
X152140000Y-66150000D02*
X152140000Y-69990000D01*
%TO.N,/F5*%
X150870000Y-69970000D02*
X150900000Y-70000000D01*
X150870000Y-66150000D02*
X150870000Y-69970000D01*
%TO.N,/E5*%
X149600000Y-69950000D02*
X149650000Y-70000000D01*
X149600000Y-66150000D02*
X149600000Y-69950000D01*
%TO.N,/D5*%
X148330000Y-69930000D02*
X148400000Y-70000000D01*
X148330000Y-66150000D02*
X148330000Y-69930000D01*
%TO.N,/C5*%
X147060000Y-69910000D02*
X147150000Y-70000000D01*
X147060000Y-66150000D02*
X147060000Y-69910000D01*
%TO.N,/B5*%
X145790000Y-69890000D02*
X145900000Y-70000000D01*
X145790000Y-66150000D02*
X145790000Y-69890000D01*
%TO.N,/A5*%
X144650000Y-70000000D02*
X144650000Y-66280000D01*
X144650000Y-66280000D02*
X144520000Y-66150000D01*
%TO.N,/G1*%
X136340000Y-69910000D02*
X136250000Y-70000000D01*
X136340000Y-66150000D02*
X136340000Y-69910000D01*
%TO.N,/F1*%
X135070000Y-69930000D02*
X135000000Y-70000000D01*
X135070000Y-66150000D02*
X135070000Y-69930000D01*
%TO.N,/E1*%
X133800000Y-69950000D02*
X133750000Y-70000000D01*
X133800000Y-66150000D02*
X133800000Y-69950000D01*
%TO.N,/D1*%
X132530000Y-69970000D02*
X132500000Y-70000000D01*
X132530000Y-66150000D02*
X132530000Y-69970000D01*
%TO.N,/C1*%
X131260000Y-66150000D02*
X131260000Y-69990000D01*
X131260000Y-69990000D02*
X131250000Y-70000000D01*
%TO.N,/B1*%
X129990000Y-69990000D02*
X130000000Y-70000000D01*
X129990000Y-66150000D02*
X129990000Y-69990000D01*
%TO.N,/A1*%
X128720000Y-69970000D02*
X128750000Y-70000000D01*
X128720000Y-66150000D02*
X128720000Y-69970000D01*
%TO.N,Net-(U11-IO1_2)*%
X147200000Y-40800000D02*
X147035000Y-40635000D01*
X147600000Y-40800000D02*
X147200000Y-40800000D01*
X147035000Y-40635000D02*
X147035000Y-39275000D01*
X150600000Y-43800000D02*
X147600000Y-40800000D01*
X150600000Y-46500000D02*
X150600000Y-43800000D01*
%TD*%
%TA.AperFunction,Conductor*%
%TO.N,+12V*%
G36*
X120816177Y-52220185D02*
G01*
X120836819Y-52236819D01*
X121363681Y-52763681D01*
X121397166Y-52825004D01*
X121400000Y-52851362D01*
X121400000Y-56370500D01*
X121380315Y-56437539D01*
X121327511Y-56483294D01*
X121276000Y-56494500D01*
X119651360Y-56494500D01*
X119597311Y-56497397D01*
X119597310Y-56497397D01*
X119570977Y-56500229D01*
X119570950Y-56500232D01*
X119517554Y-56508885D01*
X119517552Y-56508885D01*
X119382747Y-56559166D01*
X119382744Y-56559167D01*
X119382743Y-56559168D01*
X119335740Y-56584833D01*
X119276316Y-56600000D01*
X119200000Y-56600000D01*
X119200000Y-56633754D01*
X119180315Y-56700793D01*
X119163681Y-56721435D01*
X119078892Y-56806223D01*
X119078855Y-56806262D01*
X119042728Y-56846480D01*
X119042714Y-56846497D01*
X119026084Y-56867132D01*
X118994504Y-56910915D01*
X118994500Y-56910922D01*
X118993499Y-56913109D01*
X118993500Y-56913110D01*
X118989817Y-56921166D01*
X118971509Y-56949661D01*
X118948028Y-57012606D01*
X118946177Y-57016657D01*
X118946174Y-57016666D01*
X118934699Y-57041777D01*
X118926850Y-57068485D01*
X118926849Y-57068484D01*
X118925607Y-57072712D01*
X118921223Y-57084468D01*
X118918538Y-57096801D01*
X118917292Y-57101049D01*
X118917291Y-57101057D01*
X118914973Y-57108953D01*
X118914973Y-57108954D01*
X118894500Y-57251359D01*
X118894500Y-62854138D01*
X118874815Y-62921177D01*
X118858181Y-62941819D01*
X118436319Y-63363681D01*
X118374996Y-63397166D01*
X118348638Y-63400000D01*
X115920230Y-63400000D01*
X115853191Y-63380315D01*
X115832549Y-63363681D01*
X115826157Y-63357289D01*
X115826156Y-63357288D01*
X115733388Y-63300069D01*
X115676836Y-63265187D01*
X115676831Y-63265185D01*
X115675362Y-63264698D01*
X115510297Y-63210001D01*
X115510295Y-63210000D01*
X115407516Y-63199500D01*
X114649499Y-63199500D01*
X114582460Y-63179815D01*
X114536705Y-63127011D01*
X114525499Y-63075500D01*
X114525499Y-62901662D01*
X114525498Y-62901644D01*
X114515349Y-62802292D01*
X114515348Y-62802289D01*
X114462003Y-62641303D01*
X114461999Y-62641297D01*
X114461998Y-62641294D01*
X114372970Y-62496959D01*
X114372967Y-62496955D01*
X114253044Y-62377032D01*
X114253040Y-62377029D01*
X114108705Y-62288001D01*
X114108699Y-62287998D01*
X114108697Y-62287997D01*
X114108694Y-62287996D01*
X113947709Y-62234651D01*
X113848346Y-62224500D01*
X113301662Y-62224500D01*
X113301644Y-62224501D01*
X113202292Y-62234650D01*
X113202289Y-62234651D01*
X113041305Y-62287996D01*
X113041294Y-62288001D01*
X112896959Y-62377029D01*
X112896955Y-62377032D01*
X112777032Y-62496955D01*
X112777029Y-62496959D01*
X112688001Y-62641294D01*
X112687996Y-62641305D01*
X112634651Y-62802290D01*
X112624500Y-62901647D01*
X112624500Y-63123385D01*
X112604815Y-63190424D01*
X112552011Y-63236179D01*
X112547953Y-63237946D01*
X112420823Y-63290604D01*
X112420814Y-63290609D01*
X112289711Y-63378210D01*
X112289707Y-63378213D01*
X112178213Y-63489707D01*
X112178210Y-63489711D01*
X112090609Y-63620814D01*
X112090602Y-63620827D01*
X112030264Y-63766498D01*
X112030261Y-63766510D01*
X111999500Y-63921153D01*
X111999500Y-63949138D01*
X111979815Y-64016177D01*
X111963181Y-64036819D01*
X111800000Y-64199999D01*
X111800000Y-65748638D01*
X111780315Y-65815677D01*
X111763681Y-65836319D01*
X111341819Y-66258181D01*
X111280496Y-66291666D01*
X111254138Y-66294500D01*
X102924000Y-66294500D01*
X102923991Y-66294500D01*
X102923990Y-66294501D01*
X102816549Y-66306052D01*
X102816537Y-66306054D01*
X102765027Y-66317260D01*
X102662497Y-66351385D01*
X102662495Y-66351386D01*
X102617485Y-66380314D01*
X102550446Y-66400000D01*
X89124000Y-66400000D01*
X89056961Y-66380315D01*
X89011206Y-66327511D01*
X89000000Y-66276000D01*
X89000000Y-54651362D01*
X89019685Y-54584323D01*
X89036319Y-54563681D01*
X89963681Y-53636319D01*
X90025004Y-53602834D01*
X90051362Y-53600000D01*
X96570500Y-53600000D01*
X96637539Y-53619685D01*
X96683294Y-53672489D01*
X96694500Y-53724000D01*
X96694500Y-59505634D01*
X96674815Y-59572673D01*
X96645988Y-59604008D01*
X96612960Y-59629352D01*
X96612949Y-59629362D01*
X96404358Y-59837952D01*
X96404352Y-59837959D01*
X96224761Y-60072006D01*
X96077258Y-60327489D01*
X96077254Y-60327499D01*
X95964364Y-60600038D01*
X95964361Y-60600048D01*
X95888008Y-60885004D01*
X95888006Y-60885015D01*
X95849500Y-61177486D01*
X95849500Y-61472513D01*
X95881571Y-61716113D01*
X95888007Y-61764993D01*
X95888008Y-61764995D01*
X95964361Y-62049951D01*
X95964364Y-62049961D01*
X96077254Y-62322500D01*
X96077258Y-62322510D01*
X96224761Y-62577993D01*
X96404352Y-62812040D01*
X96404358Y-62812047D01*
X96612952Y-63020641D01*
X96612958Y-63020646D01*
X96751487Y-63126943D01*
X96792689Y-63183370D01*
X96800000Y-63225318D01*
X96800000Y-63400000D01*
X97203988Y-63400000D01*
X97251440Y-63409439D01*
X97375048Y-63460639D01*
X97660007Y-63536993D01*
X97952494Y-63575500D01*
X97952501Y-63575500D01*
X98247499Y-63575500D01*
X98247506Y-63575500D01*
X98539993Y-63536993D01*
X98641759Y-63509724D01*
X98673852Y-63505500D01*
X101148640Y-63505500D01*
X101158786Y-63504955D01*
X101202678Y-63502603D01*
X101202686Y-63502602D01*
X101202688Y-63502602D01*
X101202689Y-63502602D01*
X101209682Y-63501849D01*
X101229036Y-63499769D01*
X101229046Y-63499767D01*
X101229049Y-63499767D01*
X101238648Y-63498211D01*
X101282448Y-63491114D01*
X101417257Y-63440832D01*
X101464259Y-63415166D01*
X101523684Y-63400000D01*
X101600000Y-63400000D01*
X102600000Y-62400000D01*
X102600000Y-58851362D01*
X102619685Y-58784323D01*
X102636319Y-58763681D01*
X103258181Y-58141819D01*
X103319504Y-58108334D01*
X103345862Y-58105500D01*
X108654138Y-58105500D01*
X108721177Y-58125185D01*
X108741819Y-58141819D01*
X110796732Y-60196732D01*
X110815168Y-60220263D01*
X110869525Y-60310181D01*
X110869526Y-60310182D01*
X110869528Y-60310185D01*
X110989815Y-60430472D01*
X111135394Y-60518478D01*
X111297804Y-60569086D01*
X111368384Y-60575500D01*
X111368387Y-60575500D01*
X111881613Y-60575500D01*
X111881616Y-60575500D01*
X111952196Y-60569086D01*
X112114606Y-60518478D01*
X112260185Y-60430472D01*
X112334263Y-60356393D01*
X112395583Y-60322909D01*
X112465275Y-60327893D01*
X112469383Y-60329508D01*
X112566503Y-60369737D01*
X112721153Y-60400499D01*
X112721156Y-60400500D01*
X112721158Y-60400500D01*
X112878844Y-60400500D01*
X112878845Y-60400499D01*
X113033497Y-60369737D01*
X113140959Y-60325224D01*
X113210428Y-60317756D01*
X113272907Y-60349031D01*
X113276092Y-60352104D01*
X113346956Y-60422968D01*
X113346958Y-60422969D01*
X113346959Y-60422970D01*
X113491294Y-60511998D01*
X113491297Y-60511999D01*
X113491303Y-60512003D01*
X113652292Y-60565349D01*
X113751655Y-60575500D01*
X114298344Y-60575499D01*
X114298352Y-60575498D01*
X114298355Y-60575498D01*
X114361124Y-60569086D01*
X114397708Y-60565349D01*
X114558697Y-60512003D01*
X114703044Y-60422968D01*
X114822968Y-60303044D01*
X114850195Y-60258901D01*
X114902142Y-60212179D01*
X114955733Y-60200000D01*
X116600000Y-60200000D01*
X117600000Y-59200000D01*
X117600000Y-55100598D01*
X117619685Y-55033559D01*
X117622235Y-55029746D01*
X117628526Y-55020709D01*
X117680520Y-54968716D01*
X117754589Y-54840424D01*
X117759577Y-54831785D01*
X117800501Y-54679057D01*
X117800501Y-54520943D01*
X117800501Y-54513348D01*
X117800500Y-54513330D01*
X117800500Y-53100097D01*
X117820185Y-53033058D01*
X117836819Y-53012416D01*
X118612416Y-52236819D01*
X118673739Y-52203334D01*
X118700097Y-52200500D01*
X120749138Y-52200500D01*
X120816177Y-52220185D01*
G37*
%TD.AperFunction*%
%TD*%
%TA.AperFunction,Conductor*%
%TO.N,+3.3V*%
G36*
X116037440Y-66802382D02*
G01*
X116079396Y-66810728D01*
X116100192Y-66814865D01*
X116162103Y-66847250D01*
X116196677Y-66907966D01*
X116200000Y-66936482D01*
X116200000Y-69071861D01*
X116188794Y-69123374D01*
X116134663Y-69241899D01*
X116114976Y-69308944D01*
X116094500Y-69451363D01*
X116094500Y-74375500D01*
X116074815Y-74442539D01*
X116022011Y-74488294D01*
X115970500Y-74499500D01*
X102924000Y-74499500D01*
X102856961Y-74479815D01*
X102811206Y-74427011D01*
X102800000Y-74375500D01*
X102800000Y-66924000D01*
X102819685Y-66856961D01*
X102872489Y-66811206D01*
X102924000Y-66800000D01*
X116013251Y-66800000D01*
X116037440Y-66802382D01*
G37*
%TD.AperFunction*%
%TD*%
%TA.AperFunction,Conductor*%
%TO.N,GND*%
G36*
X95692539Y-25520185D02*
G01*
X95738294Y-25572989D01*
X95749500Y-25624500D01*
X95749500Y-30350370D01*
X95749501Y-30350376D01*
X95755908Y-30409983D01*
X95806202Y-30544828D01*
X95806206Y-30544835D01*
X95892452Y-30660044D01*
X95892455Y-30660047D01*
X96007664Y-30746293D01*
X96007671Y-30746297D01*
X96052618Y-30763061D01*
X96142517Y-30796591D01*
X96202127Y-30803000D01*
X96275500Y-30802999D01*
X96342538Y-30822683D01*
X96388294Y-30875486D01*
X96399500Y-30926999D01*
X96399500Y-33419699D01*
X96379815Y-33486738D01*
X96327011Y-33532493D01*
X96314507Y-33537403D01*
X96281962Y-33548188D01*
X96230668Y-33565185D01*
X96230663Y-33565187D01*
X96081342Y-33657289D01*
X95957289Y-33781342D01*
X95865187Y-33930663D01*
X95865186Y-33930666D01*
X95810001Y-34097203D01*
X95810001Y-34097204D01*
X95810000Y-34097204D01*
X95799500Y-34199983D01*
X95799500Y-34950001D01*
X95799501Y-34950019D01*
X95810000Y-35052796D01*
X95810001Y-35052799D01*
X95865185Y-35219331D01*
X95865187Y-35219336D01*
X95878052Y-35240194D01*
X95957287Y-35368655D01*
X95957289Y-35368657D01*
X96081346Y-35492714D01*
X96084182Y-35494463D01*
X96085717Y-35496170D01*
X96087011Y-35497193D01*
X96086836Y-35497414D01*
X96130905Y-35546411D01*
X96142126Y-35615374D01*
X96114282Y-35679456D01*
X96084182Y-35705537D01*
X96081346Y-35707285D01*
X95957289Y-35831342D01*
X95865187Y-35980663D01*
X95865185Y-35980668D01*
X95843337Y-36046601D01*
X95810001Y-36147203D01*
X95810001Y-36147204D01*
X95810000Y-36147204D01*
X95799500Y-36249983D01*
X95799500Y-37000001D01*
X95799501Y-37000019D01*
X95810000Y-37102796D01*
X95810001Y-37102799D01*
X95865185Y-37269331D01*
X95865187Y-37269336D01*
X95893352Y-37314999D01*
X95957288Y-37418656D01*
X96081344Y-37542712D01*
X96230666Y-37634814D01*
X96314505Y-37662595D01*
X96334535Y-37676463D01*
X96356703Y-37686587D01*
X96362751Y-37695998D01*
X96371948Y-37702366D01*
X96381302Y-37724864D01*
X96394477Y-37745365D01*
X96396935Y-37762465D01*
X96398772Y-37766882D01*
X96399500Y-37780300D01*
X96399500Y-37908480D01*
X96379815Y-37975519D01*
X96363181Y-37996161D01*
X96287681Y-38071661D01*
X96226358Y-38105146D01*
X96156666Y-38100162D01*
X96112319Y-38071661D01*
X96010188Y-37969530D01*
X96008841Y-37968716D01*
X95864606Y-37881522D01*
X95702196Y-37830914D01*
X95702194Y-37830913D01*
X95702192Y-37830913D01*
X95652778Y-37826423D01*
X95631616Y-37824500D01*
X95118384Y-37824500D01*
X95099145Y-37826248D01*
X95047807Y-37830913D01*
X94885393Y-37881522D01*
X94739811Y-37969530D01*
X94619530Y-38089811D01*
X94589402Y-38139650D01*
X94581467Y-38146916D01*
X94576998Y-38156703D01*
X94556150Y-38170100D01*
X94537874Y-38186838D01*
X94525719Y-38189657D01*
X94518220Y-38194477D01*
X94483285Y-38199500D01*
X94458914Y-38199500D01*
X94391875Y-38179815D01*
X94346120Y-38127011D01*
X94336176Y-38057853D01*
X94340526Y-38038619D01*
X94344086Y-38027196D01*
X94350500Y-37956616D01*
X94350500Y-37443384D01*
X94344086Y-37372804D01*
X94293478Y-37210394D01*
X94293475Y-37210389D01*
X94290400Y-37203555D01*
X94292680Y-37202528D01*
X94277912Y-37146601D01*
X94292377Y-37097334D01*
X94290400Y-37096445D01*
X94293475Y-37089611D01*
X94293478Y-37089606D01*
X94344086Y-36927196D01*
X94350500Y-36856616D01*
X94350500Y-36343384D01*
X94344086Y-36272804D01*
X94293478Y-36110394D01*
X94293475Y-36110389D01*
X94290400Y-36103555D01*
X94292680Y-36102528D01*
X94277912Y-36046601D01*
X94292377Y-35997334D01*
X94290400Y-35996445D01*
X94293475Y-35989611D01*
X94293478Y-35989606D01*
X94344086Y-35827196D01*
X94350500Y-35756616D01*
X94350500Y-35243384D01*
X94344086Y-35172804D01*
X94293478Y-35010394D01*
X94286084Y-34998164D01*
X94268248Y-34930611D01*
X94286087Y-34869860D01*
X94287295Y-34867862D01*
X94295512Y-34854270D01*
X94344315Y-34697657D01*
X94350500Y-34629594D01*
X94350500Y-34170406D01*
X94344315Y-34102343D01*
X94295512Y-33945730D01*
X94295511Y-33945727D01*
X94210651Y-33805351D01*
X94210648Y-33805347D01*
X94094652Y-33689351D01*
X94094648Y-33689348D01*
X93954272Y-33604488D01*
X93954263Y-33604485D01*
X93797664Y-33555687D01*
X93797662Y-33555686D01*
X93797657Y-33555685D01*
X93729594Y-33549500D01*
X92170406Y-33549500D01*
X92102343Y-33555685D01*
X92102339Y-33555686D01*
X92102335Y-33555687D01*
X91945736Y-33604485D01*
X91945727Y-33604488D01*
X91805351Y-33689348D01*
X91805347Y-33689351D01*
X91689351Y-33805347D01*
X91689348Y-33805351D01*
X91604488Y-33945727D01*
X91604485Y-33945736D01*
X91557286Y-34097204D01*
X91555685Y-34102343D01*
X91549500Y-34170406D01*
X91549500Y-34629594D01*
X91555685Y-34697657D01*
X91555686Y-34697662D01*
X91555687Y-34697664D01*
X91568446Y-34738610D01*
X91569598Y-34808470D01*
X91532797Y-34867862D01*
X91469728Y-34897930D01*
X91450061Y-34899500D01*
X90825316Y-34899500D01*
X90777864Y-34890061D01*
X90633501Y-34830264D01*
X90633489Y-34830261D01*
X90478845Y-34799500D01*
X90478842Y-34799500D01*
X90321158Y-34799500D01*
X90321155Y-34799500D01*
X90166510Y-34830261D01*
X90166498Y-34830264D01*
X90020827Y-34890602D01*
X90020814Y-34890609D01*
X89889711Y-34978210D01*
X89889707Y-34978213D01*
X89778213Y-35089707D01*
X89778210Y-35089711D01*
X89690609Y-35220814D01*
X89690602Y-35220827D01*
X89630264Y-35366498D01*
X89630261Y-35366510D01*
X89599500Y-35521153D01*
X89599500Y-35678846D01*
X89630261Y-35833489D01*
X89630264Y-35833501D01*
X89690602Y-35979172D01*
X89690609Y-35979185D01*
X89778210Y-36110288D01*
X89778213Y-36110292D01*
X89780240Y-36112319D01*
X89780962Y-36113642D01*
X89782076Y-36114999D01*
X89781818Y-36115210D01*
X89813725Y-36173642D01*
X89808741Y-36243334D01*
X89782001Y-36284939D01*
X89782076Y-36285001D01*
X89781552Y-36285639D01*
X89780240Y-36287681D01*
X89778213Y-36289707D01*
X89778210Y-36289711D01*
X89690609Y-36420814D01*
X89690602Y-36420827D01*
X89630264Y-36566498D01*
X89630261Y-36566510D01*
X89599500Y-36721153D01*
X89599500Y-36878846D01*
X89630261Y-37033489D01*
X89630264Y-37033501D01*
X89690602Y-37179172D01*
X89690609Y-37179185D01*
X89778210Y-37310288D01*
X89778213Y-37310292D01*
X89889707Y-37421786D01*
X89889711Y-37421789D01*
X90020814Y-37509390D01*
X90020827Y-37509397D01*
X90101258Y-37542712D01*
X90166503Y-37569737D01*
X90321153Y-37600499D01*
X90321156Y-37600500D01*
X90321158Y-37600500D01*
X90478844Y-37600500D01*
X90478845Y-37600499D01*
X90633497Y-37569737D01*
X90779179Y-37509394D01*
X90910289Y-37421789D01*
X91021789Y-37310289D01*
X91049153Y-37269336D01*
X91058325Y-37255610D01*
X91111937Y-37210804D01*
X91161427Y-37200500D01*
X91441086Y-37200500D01*
X91508125Y-37220185D01*
X91553880Y-37272989D01*
X91563824Y-37342147D01*
X91559473Y-37361380D01*
X91555914Y-37372804D01*
X91551047Y-37426368D01*
X91549500Y-37443386D01*
X91549500Y-37956613D01*
X91555913Y-38027192D01*
X91555913Y-38027194D01*
X91555914Y-38027196D01*
X91605659Y-38186838D01*
X91606524Y-38189611D01*
X91609601Y-38196448D01*
X91607322Y-38197473D01*
X91622087Y-38253420D01*
X91607627Y-38302663D01*
X91609601Y-38303552D01*
X91606524Y-38310388D01*
X91606522Y-38310393D01*
X91606522Y-38310394D01*
X91579284Y-38397807D01*
X91555913Y-38472807D01*
X91549500Y-38543386D01*
X91549500Y-39056613D01*
X91555913Y-39127192D01*
X91555913Y-39127194D01*
X91555914Y-39127196D01*
X91599909Y-39268384D01*
X91606524Y-39289611D01*
X91609601Y-39296448D01*
X91607322Y-39297473D01*
X91622087Y-39353420D01*
X91607627Y-39402663D01*
X91609601Y-39403552D01*
X91606524Y-39410388D01*
X91555913Y-39572807D01*
X91549500Y-39643386D01*
X91549500Y-40156613D01*
X91555913Y-40227192D01*
X91555913Y-40227194D01*
X91555914Y-40227196D01*
X91606522Y-40389606D01*
X91685033Y-40519479D01*
X91694530Y-40535188D01*
X91814811Y-40655469D01*
X91814813Y-40655470D01*
X91814815Y-40655472D01*
X91960394Y-40743478D01*
X92122804Y-40794086D01*
X92193384Y-40800500D01*
X92193387Y-40800500D01*
X93706613Y-40800500D01*
X93706616Y-40800500D01*
X93777196Y-40794086D01*
X93939606Y-40743478D01*
X94085185Y-40655472D01*
X94205472Y-40535185D01*
X94293478Y-40389606D01*
X94344086Y-40227196D01*
X94350500Y-40156616D01*
X94350500Y-39643384D01*
X94344086Y-39572804D01*
X94340528Y-39561388D01*
X94340077Y-39533983D01*
X94336176Y-39506853D01*
X94339509Y-39499554D01*
X94339377Y-39491532D01*
X94353813Y-39468232D01*
X94365201Y-39443297D01*
X94371951Y-39438958D01*
X94376177Y-39432139D01*
X94400918Y-39420343D01*
X94423979Y-39405523D01*
X94435467Y-39403871D01*
X94439245Y-39402070D01*
X94458914Y-39400500D01*
X94483285Y-39400500D01*
X94550324Y-39420185D01*
X94589401Y-39460349D01*
X94616790Y-39505655D01*
X94619530Y-39510188D01*
X94739811Y-39630469D01*
X94739813Y-39630470D01*
X94739815Y-39630472D01*
X94885394Y-39718478D01*
X95047804Y-39769086D01*
X95118384Y-39775500D01*
X95118387Y-39775500D01*
X95631613Y-39775500D01*
X95631616Y-39775500D01*
X95702196Y-39769086D01*
X95864606Y-39718478D01*
X96010185Y-39630472D01*
X96112320Y-39528336D01*
X96120265Y-39523998D01*
X96125690Y-39516752D01*
X96150446Y-39507518D01*
X96173641Y-39494853D01*
X96182671Y-39495498D01*
X96191154Y-39492335D01*
X96216974Y-39497951D01*
X96243333Y-39499837D01*
X96252386Y-39505655D01*
X96259427Y-39507187D01*
X96287681Y-39528338D01*
X96363181Y-39603838D01*
X96396666Y-39665161D01*
X96399500Y-39691519D01*
X96399500Y-39844574D01*
X96379815Y-39911613D01*
X96340598Y-39950112D01*
X96296957Y-39977030D01*
X96177029Y-40096959D01*
X96088001Y-40241294D01*
X96087996Y-40241305D01*
X96034651Y-40402290D01*
X96024500Y-40501647D01*
X96024500Y-41098337D01*
X96024501Y-41098355D01*
X96034650Y-41197707D01*
X96034651Y-41197710D01*
X96087996Y-41358694D01*
X96088001Y-41358705D01*
X96177029Y-41503040D01*
X96177032Y-41503044D01*
X96296955Y-41622967D01*
X96296959Y-41622970D01*
X96441294Y-41711998D01*
X96441297Y-41711999D01*
X96441303Y-41712003D01*
X96602292Y-41765349D01*
X96701655Y-41775500D01*
X97248344Y-41775499D01*
X97248352Y-41775498D01*
X97248355Y-41775498D01*
X97302760Y-41769940D01*
X97347708Y-41765349D01*
X97508697Y-41712003D01*
X97653044Y-41622968D01*
X97772968Y-41503044D01*
X97862003Y-41358697D01*
X97915349Y-41197708D01*
X97925500Y-41098345D01*
X97925499Y-40501656D01*
X97917703Y-40425341D01*
X97915349Y-40402292D01*
X97915348Y-40402289D01*
X97913706Y-40397334D01*
X97862003Y-40241303D01*
X97861999Y-40241297D01*
X97861998Y-40241294D01*
X97772970Y-40096959D01*
X97772969Y-40096958D01*
X97772968Y-40096956D01*
X97653044Y-39977032D01*
X97653043Y-39977031D01*
X97653041Y-39977029D01*
X97647590Y-39972719D01*
X97645922Y-39970363D01*
X97643297Y-39969165D01*
X97625851Y-39942018D01*
X97607213Y-39915697D01*
X97606609Y-39912077D01*
X97605523Y-39910387D01*
X97600500Y-39875452D01*
X97600500Y-39736488D01*
X97620185Y-39669449D01*
X97654809Y-39635763D01*
X97654285Y-39635094D01*
X97660180Y-39630474D01*
X97660185Y-39630472D01*
X97780472Y-39510185D01*
X97868478Y-39364606D01*
X97919086Y-39202196D01*
X97925500Y-39131616D01*
X97925500Y-38468384D01*
X97919086Y-38397804D01*
X97868478Y-38235394D01*
X97780472Y-38089815D01*
X97780470Y-38089813D01*
X97780469Y-38089811D01*
X97660188Y-37969530D01*
X97654282Y-37964903D01*
X97655083Y-37963879D01*
X97653079Y-37961690D01*
X97643297Y-37957223D01*
X97629895Y-37936370D01*
X97613158Y-37918090D01*
X97610340Y-37905941D01*
X97605523Y-37898445D01*
X97600500Y-37863510D01*
X97600500Y-37780300D01*
X97620185Y-37713261D01*
X97672989Y-37667506D01*
X97685482Y-37662599D01*
X97769334Y-37634814D01*
X97918656Y-37542712D01*
X98042712Y-37418656D01*
X98134814Y-37269334D01*
X98189999Y-37102797D01*
X98200500Y-37000009D01*
X98200499Y-36249992D01*
X98189999Y-36147203D01*
X98134814Y-35980666D01*
X98042712Y-35831344D01*
X97918656Y-35707288D01*
X97915819Y-35705538D01*
X97914283Y-35703830D01*
X97912989Y-35702807D01*
X97913163Y-35702585D01*
X97869096Y-35653594D01*
X97857872Y-35584632D01*
X97885713Y-35520549D01*
X97915817Y-35494462D01*
X97918656Y-35492712D01*
X98042712Y-35368656D01*
X98101699Y-35273021D01*
X98118189Y-35258188D01*
X98131166Y-35240194D01*
X98143661Y-35235277D01*
X98153645Y-35226298D01*
X98175541Y-35222734D01*
X98196184Y-35214613D01*
X98218196Y-35215792D01*
X98222608Y-35215075D01*
X98231428Y-35216502D01*
X98280008Y-35226165D01*
X98295673Y-35230362D01*
X98470217Y-35289612D01*
X98485198Y-35295818D01*
X98650524Y-35377349D01*
X98664551Y-35385447D01*
X98817822Y-35487860D01*
X98830686Y-35497731D01*
X98972399Y-35622010D01*
X98978305Y-35627541D01*
X98990764Y-35639999D01*
X98990767Y-35640002D01*
X99163180Y-35812416D01*
X99196665Y-35873739D01*
X99199499Y-35900103D01*
X99199496Y-35963285D01*
X99199500Y-35963350D01*
X99199500Y-41878561D01*
X99199499Y-41878566D01*
X99199499Y-41912508D01*
X99199499Y-41947413D01*
X99199499Y-41947415D01*
X99199234Y-41955523D01*
X99187645Y-42132375D01*
X99185528Y-42148457D01*
X99151749Y-42318284D01*
X99147551Y-42333951D01*
X99091893Y-42497919D01*
X99085686Y-42512905D01*
X99009102Y-42668205D01*
X99000992Y-42682252D01*
X98904792Y-42826227D01*
X98894917Y-42839096D01*
X98782142Y-42967691D01*
X98767579Y-42981785D01*
X98668868Y-43062795D01*
X98648658Y-43076299D01*
X98537905Y-43135500D01*
X98515449Y-43144802D01*
X98479403Y-43155737D01*
X98395278Y-43181256D01*
X98371439Y-43185998D01*
X98253714Y-43197594D01*
X98240429Y-43198903D01*
X98228275Y-43199500D01*
X97604067Y-43199500D01*
X97595957Y-43199234D01*
X97434387Y-43188644D01*
X97418306Y-43186527D01*
X97415646Y-43185998D01*
X97381365Y-43179179D01*
X97263512Y-43155737D01*
X97247855Y-43151542D01*
X97098382Y-43100804D01*
X97083409Y-43094602D01*
X97034623Y-43070544D01*
X96941845Y-43024791D01*
X96927799Y-43016682D01*
X96893981Y-42994086D01*
X96853155Y-42966807D01*
X96796565Y-42928995D01*
X96783697Y-42919121D01*
X96662233Y-42812602D01*
X96656310Y-42807054D01*
X96490143Y-42640887D01*
X96198748Y-42396377D01*
X95887151Y-42178195D01*
X95557713Y-41987997D01*
X95557708Y-41987995D01*
X95212990Y-41827251D01*
X95212971Y-41827243D01*
X94855539Y-41697151D01*
X94855524Y-41697146D01*
X94546359Y-41614308D01*
X94488102Y-41598699D01*
X94488091Y-41598697D01*
X94317798Y-41568670D01*
X94255195Y-41537643D01*
X94233213Y-41510703D01*
X94205476Y-41464820D01*
X94205475Y-41464819D01*
X94205473Y-41464817D01*
X94205472Y-41464815D01*
X94085185Y-41344528D01*
X93939606Y-41256522D01*
X93777196Y-41205914D01*
X93777194Y-41205913D01*
X93777192Y-41205913D01*
X93727778Y-41201423D01*
X93706616Y-41199500D01*
X92193384Y-41199500D01*
X92174145Y-41201248D01*
X92122807Y-41205913D01*
X91960393Y-41256522D01*
X91814811Y-41344530D01*
X91694530Y-41464811D01*
X91606522Y-41610393D01*
X91555913Y-41772807D01*
X91549500Y-41843386D01*
X91549500Y-42356613D01*
X91555913Y-42427192D01*
X91555913Y-42427194D01*
X91555914Y-42427196D01*
X91606522Y-42589606D01*
X91686048Y-42721158D01*
X91694530Y-42735188D01*
X91814811Y-42855469D01*
X91814813Y-42855470D01*
X91814815Y-42855472D01*
X91960394Y-42943478D01*
X92122804Y-42994086D01*
X92193384Y-43000500D01*
X92193387Y-43000500D01*
X93706613Y-43000500D01*
X93706616Y-43000500D01*
X93777196Y-42994086D01*
X93939606Y-42943478D01*
X94085185Y-42855472D01*
X94125934Y-42814722D01*
X94135581Y-42809453D01*
X94142442Y-42800863D01*
X94165702Y-42793005D01*
X94187255Y-42781236D01*
X94199956Y-42781434D01*
X94208637Y-42778502D01*
X94243739Y-42782117D01*
X94454358Y-42834873D01*
X94465980Y-42838398D01*
X94746059Y-42938611D01*
X94757301Y-42943268D01*
X95026184Y-43070439D01*
X95036917Y-43076175D01*
X95292053Y-43229096D01*
X95302159Y-43235849D01*
X95524166Y-43400500D01*
X95541082Y-43413046D01*
X95550488Y-43420766D01*
X95772767Y-43622227D01*
X95777174Y-43626422D01*
X95809695Y-43658942D01*
X95809695Y-43658943D01*
X95910238Y-43759482D01*
X96132571Y-43936784D01*
X96373358Y-44088078D01*
X96629570Y-44211461D01*
X96897985Y-44305382D01*
X97175228Y-44368660D01*
X97175231Y-44368660D01*
X97175234Y-44368661D01*
X97175233Y-44368661D01*
X97200000Y-44371451D01*
X97200000Y-52600000D01*
X80624500Y-52600000D01*
X80557461Y-52580315D01*
X80511706Y-52527511D01*
X80500500Y-52476000D01*
X80500500Y-50898760D01*
X80520185Y-50831721D01*
X80572989Y-50785966D01*
X80642147Y-50776022D01*
X80689595Y-50793221D01*
X80701396Y-50800500D01*
X80805657Y-50864809D01*
X80805660Y-50864810D01*
X80805666Y-50864814D01*
X80972203Y-50919999D01*
X81074991Y-50930500D01*
X83115008Y-50930499D01*
X83217797Y-50919999D01*
X83384334Y-50864814D01*
X83533656Y-50772712D01*
X83657712Y-50648656D01*
X83703886Y-50573794D01*
X83755833Y-50527069D01*
X83824795Y-50515846D01*
X83856877Y-50524329D01*
X83966498Y-50569735D01*
X83966503Y-50569737D01*
X84104161Y-50597119D01*
X84121153Y-50600499D01*
X84121156Y-50600500D01*
X84121158Y-50600500D01*
X84278844Y-50600500D01*
X84278845Y-50600499D01*
X84433497Y-50569737D01*
X84546166Y-50523067D01*
X84579172Y-50509397D01*
X84579172Y-50509396D01*
X84579179Y-50509394D01*
X84710289Y-50421789D01*
X84821789Y-50310289D01*
X84909394Y-50179179D01*
X84969737Y-50033497D01*
X85000500Y-49878842D01*
X85000500Y-49721158D01*
X85000500Y-49721155D01*
X85000499Y-49721153D01*
X84980543Y-49620827D01*
X84969737Y-49566503D01*
X84946326Y-49509983D01*
X88984500Y-49509983D01*
X88984500Y-50230001D01*
X88984501Y-50230019D01*
X88995000Y-50332796D01*
X88995001Y-50332799D01*
X89050185Y-50499331D01*
X89050187Y-50499336D01*
X89065603Y-50524329D01*
X89142288Y-50648656D01*
X89266344Y-50772712D01*
X89415666Y-50864814D01*
X89582203Y-50919999D01*
X89684991Y-50930500D01*
X91725008Y-50930499D01*
X91827797Y-50919999D01*
X91994334Y-50864814D01*
X92143656Y-50772712D01*
X92267712Y-50648656D01*
X92280324Y-50628207D01*
X92332271Y-50581483D01*
X92401233Y-50570260D01*
X92465315Y-50598103D01*
X92473544Y-50605623D01*
X92489707Y-50621786D01*
X92489711Y-50621789D01*
X92620814Y-50709390D01*
X92620827Y-50709397D01*
X92766498Y-50769735D01*
X92766503Y-50769737D01*
X92921153Y-50800499D01*
X92921156Y-50800500D01*
X92921158Y-50800500D01*
X93078844Y-50800500D01*
X93078845Y-50800499D01*
X93233497Y-50769737D01*
X93379179Y-50709394D01*
X93510289Y-50621789D01*
X93621789Y-50510289D01*
X93709394Y-50379179D01*
X93769737Y-50233497D01*
X93800500Y-50078842D01*
X93800500Y-49921158D01*
X93800500Y-49921155D01*
X93800499Y-49921153D01*
X93769737Y-49766503D01*
X93750955Y-49721158D01*
X93709397Y-49620827D01*
X93709390Y-49620814D01*
X93621789Y-49489711D01*
X93621786Y-49489707D01*
X93510292Y-49378213D01*
X93510288Y-49378210D01*
X93379185Y-49290609D01*
X93379172Y-49290602D01*
X93233501Y-49230264D01*
X93233489Y-49230261D01*
X93078845Y-49199500D01*
X93078842Y-49199500D01*
X92921158Y-49199500D01*
X92921155Y-49199500D01*
X92766510Y-49230261D01*
X92766498Y-49230264D01*
X92694563Y-49260061D01*
X92686386Y-49261687D01*
X92682046Y-49264477D01*
X92647111Y-49269500D01*
X92446806Y-49269500D01*
X92379767Y-49249815D01*
X92341267Y-49210597D01*
X92267712Y-49091344D01*
X92143656Y-48967288D01*
X91994334Y-48875186D01*
X91827797Y-48820001D01*
X91827795Y-48820000D01*
X91725010Y-48809500D01*
X89684998Y-48809500D01*
X89684981Y-48809501D01*
X89582203Y-48820000D01*
X89582200Y-48820001D01*
X89415668Y-48875185D01*
X89415663Y-48875187D01*
X89266342Y-48967289D01*
X89142289Y-49091342D01*
X89050187Y-49240663D01*
X89050186Y-49240666D01*
X88995001Y-49407203D01*
X88995001Y-49407204D01*
X88995000Y-49407204D01*
X88984500Y-49509983D01*
X84946326Y-49509983D01*
X84937929Y-49489711D01*
X84909397Y-49420827D01*
X84909390Y-49420814D01*
X84821789Y-49289711D01*
X84821786Y-49289707D01*
X84710292Y-49178213D01*
X84710288Y-49178210D01*
X84579185Y-49090609D01*
X84579172Y-49090602D01*
X84433501Y-49030264D01*
X84433489Y-49030261D01*
X84278845Y-48999500D01*
X84278842Y-48999500D01*
X84121158Y-48999500D01*
X84121155Y-48999500D01*
X83966510Y-49030261D01*
X83966498Y-49030264D01*
X83820828Y-49090602D01*
X83820810Y-49090612D01*
X83807210Y-49099699D01*
X83740532Y-49120574D01*
X83673152Y-49102086D01*
X83650643Y-49084275D01*
X83533657Y-48967289D01*
X83533656Y-48967288D01*
X83384334Y-48875186D01*
X83217797Y-48820001D01*
X83217795Y-48820000D01*
X83115010Y-48809500D01*
X81074998Y-48809500D01*
X81074981Y-48809501D01*
X80972203Y-48820000D01*
X80972200Y-48820001D01*
X80805668Y-48875185D01*
X80805663Y-48875187D01*
X80732179Y-48920512D01*
X80689595Y-48946778D01*
X80622204Y-48965218D01*
X80555541Y-48944295D01*
X80510771Y-48890653D01*
X80500500Y-48841239D01*
X80500500Y-48358760D01*
X80520185Y-48291721D01*
X80572989Y-48245966D01*
X80642147Y-48236022D01*
X80689595Y-48253221D01*
X80744380Y-48287012D01*
X80805657Y-48324809D01*
X80805660Y-48324810D01*
X80805666Y-48324814D01*
X80972203Y-48379999D01*
X81074991Y-48390500D01*
X83115008Y-48390499D01*
X83217797Y-48379999D01*
X83384334Y-48324814D01*
X83533656Y-48232712D01*
X83657712Y-48108656D01*
X83731267Y-47989402D01*
X83738854Y-47982578D01*
X83743093Y-47973297D01*
X83764392Y-47959608D01*
X83783215Y-47942679D01*
X83794850Y-47940034D01*
X83801871Y-47935523D01*
X83836806Y-47930500D01*
X83847111Y-47930500D01*
X83894563Y-47939939D01*
X83942049Y-47959608D01*
X83966503Y-47969737D01*
X84121153Y-48000499D01*
X84121156Y-48000500D01*
X84121158Y-48000500D01*
X84278844Y-48000500D01*
X84278845Y-48000499D01*
X84433497Y-47969737D01*
X84579179Y-47909394D01*
X84710289Y-47821789D01*
X84821789Y-47710289D01*
X84909394Y-47579179D01*
X84969737Y-47433497D01*
X85000500Y-47278842D01*
X85000500Y-47121158D01*
X85000500Y-47121155D01*
X84974615Y-46991026D01*
X84974614Y-46991025D01*
X84970429Y-46969983D01*
X88984500Y-46969983D01*
X88984500Y-47690001D01*
X88984501Y-47690019D01*
X88995000Y-47792796D01*
X88995001Y-47792799D01*
X89050185Y-47959331D01*
X89050187Y-47959336D01*
X89070866Y-47992862D01*
X89142288Y-48108656D01*
X89266344Y-48232712D01*
X89415666Y-48324814D01*
X89582203Y-48379999D01*
X89684991Y-48390500D01*
X91725008Y-48390499D01*
X91827797Y-48379999D01*
X91994334Y-48324814D01*
X92143656Y-48232712D01*
X92267712Y-48108656D01*
X92303392Y-48050809D01*
X92355338Y-48004085D01*
X92424301Y-47992862D01*
X92484448Y-48018700D01*
X92484646Y-48018405D01*
X92486241Y-48019470D01*
X92487594Y-48020052D01*
X92489711Y-48021789D01*
X92620814Y-48109390D01*
X92620827Y-48109397D01*
X92766498Y-48169735D01*
X92766503Y-48169737D01*
X92921153Y-48200499D01*
X92921156Y-48200500D01*
X92921158Y-48200500D01*
X93078844Y-48200500D01*
X93078845Y-48200499D01*
X93233497Y-48169737D01*
X93379179Y-48109394D01*
X93510289Y-48021789D01*
X93621789Y-47910289D01*
X93709394Y-47779179D01*
X93769737Y-47633497D01*
X93800500Y-47478842D01*
X93800500Y-47321158D01*
X93800500Y-47321155D01*
X93800499Y-47321153D01*
X93769737Y-47166503D01*
X93750955Y-47121158D01*
X93709397Y-47020827D01*
X93709390Y-47020814D01*
X93621789Y-46889711D01*
X93621786Y-46889707D01*
X93510292Y-46778213D01*
X93510288Y-46778210D01*
X93379185Y-46690609D01*
X93379172Y-46690602D01*
X93233501Y-46630264D01*
X93233489Y-46630261D01*
X93078845Y-46599500D01*
X93078842Y-46599500D01*
X92921158Y-46599500D01*
X92921155Y-46599500D01*
X92766510Y-46630261D01*
X92766498Y-46630264D01*
X92620827Y-46690602D01*
X92620812Y-46690610D01*
X92593889Y-46708601D01*
X92575842Y-46714252D01*
X92559932Y-46724477D01*
X92528974Y-46728928D01*
X92527212Y-46729480D01*
X92524997Y-46729500D01*
X92446806Y-46729500D01*
X92379767Y-46709815D01*
X92341267Y-46670597D01*
X92267712Y-46551344D01*
X92143656Y-46427288D01*
X91994334Y-46335186D01*
X91827797Y-46280001D01*
X91827795Y-46280000D01*
X91725010Y-46269500D01*
X89684998Y-46269500D01*
X89684981Y-46269501D01*
X89582203Y-46280000D01*
X89582200Y-46280001D01*
X89415668Y-46335185D01*
X89415663Y-46335187D01*
X89266342Y-46427289D01*
X89142289Y-46551342D01*
X89050187Y-46700663D01*
X89050185Y-46700668D01*
X89047154Y-46709815D01*
X88995001Y-46867203D01*
X88995001Y-46867204D01*
X88995000Y-46867204D01*
X88984500Y-46969983D01*
X84970429Y-46969983D01*
X84969737Y-46966503D01*
X84937929Y-46889711D01*
X84909397Y-46820827D01*
X84909390Y-46820814D01*
X84821789Y-46689711D01*
X84821786Y-46689707D01*
X84710292Y-46578213D01*
X84710288Y-46578210D01*
X84579185Y-46490609D01*
X84579172Y-46490602D01*
X84433501Y-46430264D01*
X84433489Y-46430261D01*
X84278845Y-46399500D01*
X84278842Y-46399500D01*
X84121158Y-46399500D01*
X84121155Y-46399500D01*
X83966510Y-46430261D01*
X83966498Y-46430264D01*
X83820827Y-46490602D01*
X83820814Y-46490609D01*
X83771248Y-46523729D01*
X83704570Y-46544607D01*
X83637190Y-46526122D01*
X83614676Y-46508308D01*
X83533657Y-46427289D01*
X83533656Y-46427288D01*
X83384334Y-46335186D01*
X83217797Y-46280001D01*
X83217795Y-46280000D01*
X83115010Y-46269500D01*
X81074998Y-46269500D01*
X81074981Y-46269501D01*
X80972203Y-46280000D01*
X80972200Y-46280001D01*
X80805668Y-46335185D01*
X80805663Y-46335187D01*
X80732179Y-46380512D01*
X80689595Y-46406778D01*
X80622204Y-46425218D01*
X80555541Y-46404295D01*
X80510771Y-46350653D01*
X80500500Y-46301239D01*
X80500500Y-43527350D01*
X80520185Y-43460311D01*
X80572989Y-43414556D01*
X80642147Y-43404612D01*
X80693391Y-43424248D01*
X80820814Y-43509390D01*
X80820827Y-43509397D01*
X80966498Y-43569735D01*
X80966503Y-43569737D01*
X81121153Y-43600499D01*
X81121156Y-43600500D01*
X81121158Y-43600500D01*
X81278844Y-43600500D01*
X81278845Y-43600499D01*
X81433497Y-43569737D01*
X81579179Y-43509394D01*
X81710289Y-43421789D01*
X81821789Y-43310289D01*
X81822397Y-43309378D01*
X81822839Y-43309008D01*
X81825653Y-43305581D01*
X81826303Y-43306114D01*
X81876010Y-43264573D01*
X81945334Y-43255866D01*
X82008362Y-43286020D01*
X82045082Y-43345463D01*
X82049500Y-43378269D01*
X82049500Y-43429594D01*
X82055685Y-43497657D01*
X82055686Y-43497662D01*
X82055687Y-43497664D01*
X82104485Y-43654263D01*
X82104488Y-43654272D01*
X82189348Y-43794648D01*
X82189351Y-43794652D01*
X82305347Y-43910648D01*
X82305351Y-43910651D01*
X82445727Y-43995511D01*
X82445730Y-43995512D01*
X82602343Y-44044315D01*
X82670406Y-44050500D01*
X82670409Y-44050500D01*
X84229591Y-44050500D01*
X84229594Y-44050500D01*
X84297657Y-44044315D01*
X84454270Y-43995512D01*
X84551424Y-43936781D01*
X84594648Y-43910651D01*
X84594647Y-43910651D01*
X84594653Y-43910648D01*
X84710648Y-43794653D01*
X84718926Y-43780958D01*
X84795511Y-43654272D01*
X84795514Y-43654263D01*
X84805497Y-43622227D01*
X84844315Y-43497657D01*
X84850500Y-43429594D01*
X84850500Y-42970406D01*
X84844315Y-42902343D01*
X84795512Y-42745730D01*
X84786083Y-42730133D01*
X84768248Y-42662581D01*
X84786087Y-42601831D01*
X84793478Y-42589606D01*
X84844086Y-42427196D01*
X84850500Y-42356616D01*
X84850500Y-41843384D01*
X84844086Y-41772804D01*
X84793478Y-41610394D01*
X84793475Y-41610389D01*
X84790400Y-41603555D01*
X84792680Y-41602528D01*
X84777912Y-41546601D01*
X84792377Y-41497334D01*
X84790400Y-41496445D01*
X84793473Y-41489613D01*
X84793478Y-41489606D01*
X84844086Y-41327196D01*
X84850500Y-41256616D01*
X84850500Y-40743384D01*
X84844086Y-40672804D01*
X84793478Y-40510394D01*
X84793475Y-40510389D01*
X84790400Y-40503555D01*
X84792680Y-40502528D01*
X84777912Y-40446601D01*
X84792377Y-40397334D01*
X84790400Y-40396445D01*
X84793473Y-40389613D01*
X84793478Y-40389606D01*
X84844086Y-40227196D01*
X84850500Y-40156616D01*
X84850500Y-39643384D01*
X84844086Y-39572804D01*
X84793478Y-39410394D01*
X84793475Y-39410389D01*
X84790400Y-39403555D01*
X84792680Y-39402528D01*
X84777912Y-39346601D01*
X84792377Y-39297334D01*
X84790400Y-39296445D01*
X84793475Y-39289611D01*
X84793478Y-39289606D01*
X84844086Y-39127196D01*
X84850500Y-39056616D01*
X84850500Y-38824424D01*
X84870185Y-38757385D01*
X84922989Y-38711630D01*
X84992147Y-38701686D01*
X85021952Y-38709863D01*
X85136682Y-38757385D01*
X85166503Y-38769737D01*
X85321153Y-38800499D01*
X85321156Y-38800500D01*
X85321158Y-38800500D01*
X85478844Y-38800500D01*
X85478845Y-38800499D01*
X85633497Y-38769737D01*
X85779179Y-38709394D01*
X85910289Y-38621789D01*
X86021789Y-38510289D01*
X86109394Y-38379179D01*
X86169737Y-38233497D01*
X86200500Y-38078842D01*
X86200500Y-37921158D01*
X86200500Y-37921155D01*
X86200499Y-37921153D01*
X86169738Y-37766510D01*
X86169737Y-37766503D01*
X86169735Y-37766498D01*
X86109397Y-37620827D01*
X86109390Y-37620814D01*
X86021789Y-37489711D01*
X86019766Y-37487688D01*
X86019043Y-37486365D01*
X86017924Y-37485001D01*
X86018182Y-37484788D01*
X85986276Y-37426368D01*
X85991255Y-37356676D01*
X86017999Y-37315060D01*
X86017924Y-37314999D01*
X86018454Y-37314351D01*
X86019766Y-37312312D01*
X86021789Y-37310289D01*
X86109394Y-37179179D01*
X86169737Y-37033497D01*
X86200500Y-36878842D01*
X86200500Y-36721158D01*
X86200500Y-36721155D01*
X86200499Y-36721153D01*
X86188048Y-36658560D01*
X86169737Y-36566503D01*
X86150864Y-36520939D01*
X86109397Y-36420827D01*
X86109390Y-36420814D01*
X86021789Y-36289711D01*
X86019766Y-36287688D01*
X86019043Y-36286365D01*
X86017924Y-36285001D01*
X86018182Y-36284788D01*
X85986276Y-36226368D01*
X85991255Y-36156676D01*
X86017999Y-36115060D01*
X86017924Y-36114999D01*
X86018454Y-36114351D01*
X86019766Y-36112312D01*
X86021789Y-36110289D01*
X86109394Y-35979179D01*
X86115978Y-35963285D01*
X86169735Y-35833501D01*
X86169737Y-35833497D01*
X86200500Y-35678842D01*
X86200500Y-35521158D01*
X86200500Y-35521155D01*
X86200499Y-35521153D01*
X86195733Y-35497193D01*
X86169737Y-35366503D01*
X86140459Y-35295819D01*
X86109397Y-35220827D01*
X86109390Y-35220814D01*
X86021789Y-35089711D01*
X86021786Y-35089707D01*
X85910292Y-34978213D01*
X85910288Y-34978210D01*
X85779185Y-34890609D01*
X85779172Y-34890602D01*
X85633501Y-34830264D01*
X85633489Y-34830261D01*
X85478845Y-34799500D01*
X85478842Y-34799500D01*
X85321158Y-34799500D01*
X85321155Y-34799500D01*
X85166510Y-34830261D01*
X85166498Y-34830264D01*
X85022136Y-34890061D01*
X85013959Y-34891687D01*
X85009619Y-34894477D01*
X84974684Y-34899500D01*
X84791520Y-34899500D01*
X84724481Y-34879815D01*
X84703839Y-34863181D01*
X84585188Y-34744530D01*
X84439606Y-34656522D01*
X84353189Y-34629594D01*
X84277196Y-34605914D01*
X84277194Y-34605913D01*
X84277192Y-34605913D01*
X84227778Y-34601423D01*
X84206616Y-34599500D01*
X82693384Y-34599500D01*
X82674145Y-34601248D01*
X82622807Y-34605913D01*
X82460393Y-34656522D01*
X82314811Y-34744530D01*
X82194530Y-34864811D01*
X82106522Y-35010393D01*
X82055913Y-35172807D01*
X82049500Y-35243386D01*
X82049500Y-35756613D01*
X82055913Y-35827192D01*
X82055913Y-35827194D01*
X82055914Y-35827196D01*
X82103736Y-35980666D01*
X82106524Y-35989611D01*
X82109601Y-35996448D01*
X82107322Y-35997473D01*
X82122087Y-36053420D01*
X82107627Y-36102663D01*
X82109601Y-36103552D01*
X82106524Y-36110388D01*
X82055913Y-36272807D01*
X82049500Y-36343386D01*
X82049500Y-36856613D01*
X82055913Y-36927192D01*
X82055913Y-36927194D01*
X82055914Y-36927196D01*
X82089039Y-37033501D01*
X82106524Y-37089611D01*
X82109601Y-37096448D01*
X82107322Y-37097473D01*
X82122087Y-37153420D01*
X82107627Y-37202663D01*
X82109601Y-37203552D01*
X82106524Y-37210388D01*
X82055913Y-37372807D01*
X82049500Y-37443386D01*
X82049500Y-37956613D01*
X82055913Y-38027192D01*
X82055913Y-38027194D01*
X82055914Y-38027196D01*
X82105659Y-38186838D01*
X82106524Y-38189611D01*
X82109601Y-38196448D01*
X82107322Y-38197473D01*
X82122087Y-38253420D01*
X82107627Y-38302663D01*
X82109601Y-38303552D01*
X82106524Y-38310388D01*
X82106522Y-38310393D01*
X82106522Y-38310394D01*
X82079284Y-38397807D01*
X82055913Y-38472807D01*
X82049500Y-38543386D01*
X82049500Y-39056613D01*
X82055913Y-39127192D01*
X82055913Y-39127194D01*
X82055914Y-39127196D01*
X82099909Y-39268384D01*
X82106524Y-39289611D01*
X82109601Y-39296448D01*
X82107322Y-39297473D01*
X82122087Y-39353420D01*
X82114311Y-39393346D01*
X82110253Y-39404221D01*
X82106522Y-39410394D01*
X82099282Y-39433625D01*
X82098084Y-39436838D01*
X82089290Y-39448582D01*
X82069590Y-39481171D01*
X82019481Y-39531282D01*
X82019478Y-39531286D01*
X81719481Y-39831282D01*
X81719479Y-39831284D01*
X81711807Y-39844574D01*
X81691898Y-39879058D01*
X81640423Y-39968215D01*
X81599499Y-40120943D01*
X81599499Y-40120945D01*
X81599499Y-40289046D01*
X81599500Y-40289059D01*
X81599500Y-40336334D01*
X81579815Y-40403373D01*
X81537501Y-40443721D01*
X81406284Y-40519479D01*
X81406282Y-40519481D01*
X81337580Y-40588182D01*
X81276256Y-40621667D01*
X81249900Y-40624500D01*
X80901662Y-40624500D01*
X80901644Y-40624501D01*
X80802292Y-40634650D01*
X80802288Y-40634651D01*
X80663504Y-40680640D01*
X80593675Y-40683042D01*
X80533633Y-40647310D01*
X80502441Y-40584789D01*
X80500500Y-40562934D01*
X80500500Y-28278711D01*
X81549500Y-28278711D01*
X81549500Y-28521288D01*
X81581161Y-28761785D01*
X81643947Y-28996104D01*
X81736773Y-29220205D01*
X81736776Y-29220212D01*
X81858064Y-29430289D01*
X81858066Y-29430292D01*
X81858067Y-29430293D01*
X82005733Y-29622736D01*
X82005739Y-29622743D01*
X82177256Y-29794260D01*
X82177262Y-29794265D01*
X82369711Y-29941936D01*
X82579788Y-30063224D01*
X82803900Y-30156054D01*
X83038211Y-30218838D01*
X83218586Y-30242584D01*
X83278711Y-30250500D01*
X83278712Y-30250500D01*
X83521289Y-30250500D01*
X83569388Y-30244167D01*
X83761789Y-30218838D01*
X83996100Y-30156054D01*
X84220212Y-30063224D01*
X84430289Y-29941936D01*
X84622738Y-29794265D01*
X84794265Y-29622738D01*
X84941936Y-29430289D01*
X85063224Y-29220212D01*
X85156054Y-28996100D01*
X85218838Y-28761789D01*
X85250500Y-28521288D01*
X85250500Y-28278712D01*
X85218838Y-28038211D01*
X85156054Y-27803900D01*
X85063224Y-27579788D01*
X84941936Y-27369711D01*
X84794265Y-27177262D01*
X84794260Y-27177256D01*
X84622743Y-27005739D01*
X84622736Y-27005733D01*
X84430293Y-26858067D01*
X84430292Y-26858066D01*
X84430289Y-26858064D01*
X84220212Y-26736776D01*
X84220205Y-26736773D01*
X83996104Y-26643947D01*
X83761785Y-26581161D01*
X83521289Y-26549500D01*
X83521288Y-26549500D01*
X83278712Y-26549500D01*
X83278711Y-26549500D01*
X83038214Y-26581161D01*
X82803895Y-26643947D01*
X82579794Y-26736773D01*
X82579785Y-26736777D01*
X82369706Y-26858067D01*
X82177263Y-27005733D01*
X82177256Y-27005739D01*
X82005739Y-27177256D01*
X82005733Y-27177263D01*
X81858067Y-27369706D01*
X81736777Y-27579785D01*
X81736773Y-27579794D01*
X81643947Y-27803895D01*
X81581161Y-28038214D01*
X81549500Y-28278711D01*
X80500500Y-28278711D01*
X80500500Y-25624500D01*
X80520185Y-25557461D01*
X80572989Y-25511706D01*
X80624500Y-25500500D01*
X95625500Y-25500500D01*
X95692539Y-25520185D01*
G37*
%TD.AperFunction*%
%TA.AperFunction,Conductor*%
G36*
X104543039Y-25520185D02*
G01*
X104588794Y-25572989D01*
X104600000Y-25624500D01*
X104600000Y-32274402D01*
X104591355Y-32303842D01*
X104584832Y-32333829D01*
X104581077Y-32338844D01*
X104580315Y-32341441D01*
X104563681Y-32362083D01*
X104494480Y-32431284D01*
X104494474Y-32431288D01*
X104472837Y-32452926D01*
X104411514Y-32486411D01*
X104409348Y-32486862D01*
X104254008Y-32517761D01*
X104253998Y-32517764D01*
X104108327Y-32578102D01*
X104108314Y-32578109D01*
X103977211Y-32665710D01*
X103977207Y-32665713D01*
X103865713Y-32777207D01*
X103865710Y-32777211D01*
X103778109Y-32908314D01*
X103778102Y-32908327D01*
X103717764Y-33053998D01*
X103717761Y-33054008D01*
X103686861Y-33209350D01*
X103654476Y-33271261D01*
X103652925Y-33272839D01*
X102762084Y-34163681D01*
X102700761Y-34197166D01*
X102674403Y-34200000D01*
X101400000Y-34200000D01*
X101400000Y-43200000D01*
X100090423Y-43200000D01*
X100202720Y-42966809D01*
X100300987Y-42685970D01*
X100367192Y-42395895D01*
X100400502Y-42100231D01*
X100400500Y-41951464D01*
X100400500Y-41918851D01*
X100400500Y-35803786D01*
X100400500Y-35795843D01*
X100400457Y-35795217D01*
X100400459Y-35781884D01*
X100368875Y-35582375D01*
X100306471Y-35390263D01*
X100214783Y-35210277D01*
X100111713Y-35068384D01*
X100096073Y-35046852D01*
X100096069Y-35046848D01*
X100086048Y-35036824D01*
X100080536Y-35031311D01*
X100080520Y-35031284D01*
X100023735Y-34974499D01*
X100023732Y-34974496D01*
X100023731Y-34974494D01*
X99967663Y-34918416D01*
X99967569Y-34918333D01*
X99807188Y-34757952D01*
X99807185Y-34757950D01*
X99768716Y-34719481D01*
X99768696Y-34719469D01*
X99762732Y-34713507D01*
X99762730Y-34713504D01*
X99762722Y-34713497D01*
X99716029Y-34666804D01*
X99475912Y-34475317D01*
X99215883Y-34311928D01*
X99215868Y-34311920D01*
X98939175Y-34178671D01*
X98939161Y-34178665D01*
X98649286Y-34077232D01*
X98649277Y-34077230D01*
X98349861Y-34008888D01*
X98230493Y-33995438D01*
X98166080Y-33968371D01*
X98140558Y-33935608D01*
X98138605Y-33936813D01*
X98134812Y-33930663D01*
X98042712Y-33781344D01*
X97918656Y-33657288D01*
X97769334Y-33565186D01*
X97685495Y-33537404D01*
X97628051Y-33497632D01*
X97601228Y-33433116D01*
X97600500Y-33419699D01*
X97600500Y-30926999D01*
X97620185Y-30859960D01*
X97672989Y-30814205D01*
X97724500Y-30802999D01*
X97797871Y-30802999D01*
X97797872Y-30802999D01*
X97857483Y-30796591D01*
X97992331Y-30746296D01*
X98107546Y-30660046D01*
X98193796Y-30544831D01*
X98244091Y-30409983D01*
X98250500Y-30350373D01*
X98250499Y-25624499D01*
X98270184Y-25557461D01*
X98322988Y-25511706D01*
X98374499Y-25500500D01*
X104476000Y-25500500D01*
X104543039Y-25520185D01*
G37*
%TD.AperFunction*%
%TD*%
%TA.AperFunction,Conductor*%
%TO.N,GND*%
G36*
X102987819Y-44787819D02*
G01*
X102998431Y-44807255D01*
X103012932Y-44823989D01*
X103014848Y-44837320D01*
X103021304Y-44849142D01*
X103019724Y-44871228D01*
X103022876Y-44893147D01*
X103017280Y-44905398D01*
X103016320Y-44918834D01*
X103003049Y-44936560D01*
X102993851Y-44956703D01*
X102982519Y-44963985D01*
X102974448Y-44974767D01*
X102953702Y-44982504D01*
X102935073Y-44994477D01*
X102913154Y-44997628D01*
X102908984Y-44999184D01*
X102900138Y-44999500D01*
X102779766Y-44999500D01*
X102712727Y-44979815D01*
X102710875Y-44978602D01*
X102579185Y-44890609D01*
X102579172Y-44890602D01*
X102433501Y-44830264D01*
X102433489Y-44830261D01*
X102278845Y-44799500D01*
X102278842Y-44799500D01*
X102121158Y-44799500D01*
X102121155Y-44799500D01*
X101966510Y-44830261D01*
X101966498Y-44830264D01*
X101820827Y-44890602D01*
X101820814Y-44890609D01*
X101689711Y-44978210D01*
X101689707Y-44978213D01*
X101578213Y-45089707D01*
X101578210Y-45089711D01*
X101490609Y-45220814D01*
X101490602Y-45220827D01*
X101430264Y-45366498D01*
X101430261Y-45366510D01*
X101399500Y-45521153D01*
X101399500Y-45678846D01*
X101430261Y-45833489D01*
X101430264Y-45833501D01*
X101490602Y-45979172D01*
X101490609Y-45979185D01*
X101578210Y-46110288D01*
X101578213Y-46110292D01*
X101689707Y-46221786D01*
X101689711Y-46221789D01*
X101820814Y-46309390D01*
X101820827Y-46309397D01*
X101966498Y-46369735D01*
X101966503Y-46369737D01*
X102121153Y-46400499D01*
X102121156Y-46400500D01*
X102121158Y-46400500D01*
X102278844Y-46400500D01*
X102278845Y-46400499D01*
X102433497Y-46369737D01*
X102579179Y-46309394D01*
X102579185Y-46309390D01*
X102710875Y-46221398D01*
X102777553Y-46200520D01*
X102779766Y-46200500D01*
X104349138Y-46200500D01*
X104416177Y-46220185D01*
X104436819Y-46236819D01*
X109763681Y-51563681D01*
X109797166Y-51625004D01*
X109800000Y-51651362D01*
X109800000Y-56748638D01*
X109780315Y-56815677D01*
X109763681Y-56836319D01*
X109036319Y-57563681D01*
X108974996Y-57597166D01*
X108948638Y-57600000D01*
X102999999Y-57600000D01*
X102000000Y-58599999D01*
X102000000Y-62148638D01*
X101980315Y-62215677D01*
X101963681Y-62236319D01*
X101236319Y-62963681D01*
X101174996Y-62997166D01*
X101148638Y-63000000D01*
X98051362Y-63000000D01*
X97984323Y-62980315D01*
X97963681Y-62963681D01*
X97414229Y-62414229D01*
X97391001Y-62382002D01*
X97318160Y-62236319D01*
X97307839Y-62215677D01*
X97213091Y-62026182D01*
X97200000Y-61970728D01*
X97200000Y-52600000D01*
X97200000Y-44371451D01*
X97457809Y-44400499D01*
X97457810Y-44400500D01*
X97457813Y-44400500D01*
X97520943Y-44400500D01*
X98161408Y-44400500D01*
X98182954Y-44400500D01*
X98182974Y-44400505D01*
X98234322Y-44400505D01*
X98234322Y-44400506D01*
X98344740Y-44400505D01*
X98344743Y-44400505D01*
X98504309Y-44382524D01*
X98564187Y-44375777D01*
X98779487Y-44326634D01*
X98987930Y-44253696D01*
X99186896Y-44157877D01*
X99373883Y-44040385D01*
X99546540Y-43902695D01*
X99546545Y-43902689D01*
X99588293Y-43860944D01*
X99588326Y-43860925D01*
X99624625Y-43824625D01*
X99624626Y-43824626D01*
X99729820Y-43719431D01*
X99915329Y-43486809D01*
X100073626Y-43234879D01*
X100090423Y-43200000D01*
X101400000Y-43200000D01*
X102987819Y-44787819D01*
G37*
%TD.AperFunction*%
%TD*%
%TA.AperFunction,Conductor*%
%TO.N,VDD*%
G36*
X125743039Y-57019685D02*
G01*
X125788794Y-57072489D01*
X125800000Y-57124000D01*
X125800000Y-67148638D01*
X125780315Y-67215677D01*
X125763681Y-67236319D01*
X123000000Y-69999999D01*
X123000000Y-74375500D01*
X122980315Y-74442539D01*
X122927511Y-74488294D01*
X122876000Y-74499500D01*
X116724000Y-74499500D01*
X116656961Y-74479815D01*
X116611206Y-74427011D01*
X116600000Y-74375500D01*
X116600000Y-69451362D01*
X116619685Y-69384323D01*
X116636319Y-69363681D01*
X117163681Y-68836319D01*
X117225004Y-68802834D01*
X117251362Y-68800000D01*
X119600000Y-68800000D01*
X120200000Y-68200000D01*
X120200000Y-65400000D01*
X119436319Y-64636319D01*
X119402834Y-64574996D01*
X119400000Y-64548638D01*
X119400000Y-57251362D01*
X119408644Y-57221921D01*
X119415168Y-57191935D01*
X119418922Y-57186919D01*
X119419685Y-57184323D01*
X119436319Y-57163681D01*
X119563681Y-57036319D01*
X119625004Y-57002834D01*
X119651362Y-57000000D01*
X125676000Y-57000000D01*
X125743039Y-57019685D01*
G37*
%TD.AperFunction*%
%TD*%
M02*
