%TF.GenerationSoftware,KiCad,Pcbnew,9.0.0*%
%TF.CreationDate,2025-06-26T17:33:30-04:00*%
%TF.ProjectId,gps-seven-seg-clock,6770732d-7365-4766-956e-2d7365672d63,rev?*%
%TF.SameCoordinates,Original*%
%TF.FileFunction,Legend,Top*%
%TF.FilePolarity,Positive*%
%FSLAX46Y46*%
G04 Gerber Fmt 4.6, Leading zero omitted, Abs format (unit mm)*
G04 Created by KiCad (PCBNEW 9.0.0) date 2025-06-26 17:33:30*
%MOMM*%
%LPD*%
G01*
G04 APERTURE LIST*
%ADD10C,0.070000*%
%ADD11C,0.100000*%
%ADD12C,0.150000*%
%ADD13C,0.120000*%
G04 APERTURE END LIST*
D10*
X118179385Y-25817360D02*
X118279385Y-25850693D01*
X118279385Y-25850693D02*
X118446052Y-25850693D01*
X118446052Y-25850693D02*
X118512718Y-25817360D01*
X118512718Y-25817360D02*
X118546052Y-25784026D01*
X118546052Y-25784026D02*
X118579385Y-25717360D01*
X118579385Y-25717360D02*
X118579385Y-25650693D01*
X118579385Y-25650693D02*
X118546052Y-25584026D01*
X118546052Y-25584026D02*
X118512718Y-25550693D01*
X118512718Y-25550693D02*
X118446052Y-25517360D01*
X118446052Y-25517360D02*
X118312718Y-25484026D01*
X118312718Y-25484026D02*
X118246052Y-25450693D01*
X118246052Y-25450693D02*
X118212718Y-25417360D01*
X118212718Y-25417360D02*
X118179385Y-25350693D01*
X118179385Y-25350693D02*
X118179385Y-25284026D01*
X118179385Y-25284026D02*
X118212718Y-25217360D01*
X118212718Y-25217360D02*
X118246052Y-25184026D01*
X118246052Y-25184026D02*
X118312718Y-25150693D01*
X118312718Y-25150693D02*
X118479385Y-25150693D01*
X118479385Y-25150693D02*
X118579385Y-25184026D01*
X119279385Y-25784026D02*
X119246052Y-25817360D01*
X119246052Y-25817360D02*
X119146052Y-25850693D01*
X119146052Y-25850693D02*
X119079385Y-25850693D01*
X119079385Y-25850693D02*
X118979385Y-25817360D01*
X118979385Y-25817360D02*
X118912719Y-25750693D01*
X118912719Y-25750693D02*
X118879385Y-25684026D01*
X118879385Y-25684026D02*
X118846052Y-25550693D01*
X118846052Y-25550693D02*
X118846052Y-25450693D01*
X118846052Y-25450693D02*
X118879385Y-25317360D01*
X118879385Y-25317360D02*
X118912719Y-25250693D01*
X118912719Y-25250693D02*
X118979385Y-25184026D01*
X118979385Y-25184026D02*
X119079385Y-25150693D01*
X119079385Y-25150693D02*
X119146052Y-25150693D01*
X119146052Y-25150693D02*
X119246052Y-25184026D01*
X119246052Y-25184026D02*
X119279385Y-25217360D01*
X119579385Y-25850693D02*
X119579385Y-25150693D01*
X119979385Y-25850693D02*
X119679385Y-25450693D01*
X119979385Y-25150693D02*
X119579385Y-25550693D01*
X119310693Y-32587281D02*
X118610693Y-32587281D01*
X118610693Y-32587281D02*
X119110693Y-32353948D01*
X119110693Y-32353948D02*
X118610693Y-32120614D01*
X118610693Y-32120614D02*
X119310693Y-32120614D01*
X118610693Y-31653948D02*
X118610693Y-31520614D01*
X118610693Y-31520614D02*
X118644026Y-31453948D01*
X118644026Y-31453948D02*
X118710693Y-31387281D01*
X118710693Y-31387281D02*
X118844026Y-31353948D01*
X118844026Y-31353948D02*
X119077360Y-31353948D01*
X119077360Y-31353948D02*
X119210693Y-31387281D01*
X119210693Y-31387281D02*
X119277360Y-31453948D01*
X119277360Y-31453948D02*
X119310693Y-31520614D01*
X119310693Y-31520614D02*
X119310693Y-31653948D01*
X119310693Y-31653948D02*
X119277360Y-31720614D01*
X119277360Y-31720614D02*
X119210693Y-31787281D01*
X119210693Y-31787281D02*
X119077360Y-31820614D01*
X119077360Y-31820614D02*
X118844026Y-31820614D01*
X118844026Y-31820614D02*
X118710693Y-31787281D01*
X118710693Y-31787281D02*
X118644026Y-31720614D01*
X118644026Y-31720614D02*
X118610693Y-31653948D01*
X119277360Y-31087281D02*
X119310693Y-30987281D01*
X119310693Y-30987281D02*
X119310693Y-30820615D01*
X119310693Y-30820615D02*
X119277360Y-30753948D01*
X119277360Y-30753948D02*
X119244026Y-30720615D01*
X119244026Y-30720615D02*
X119177360Y-30687281D01*
X119177360Y-30687281D02*
X119110693Y-30687281D01*
X119110693Y-30687281D02*
X119044026Y-30720615D01*
X119044026Y-30720615D02*
X119010693Y-30753948D01*
X119010693Y-30753948D02*
X118977360Y-30820615D01*
X118977360Y-30820615D02*
X118944026Y-30953948D01*
X118944026Y-30953948D02*
X118910693Y-31020615D01*
X118910693Y-31020615D02*
X118877360Y-31053948D01*
X118877360Y-31053948D02*
X118810693Y-31087281D01*
X118810693Y-31087281D02*
X118744026Y-31087281D01*
X118744026Y-31087281D02*
X118677360Y-31053948D01*
X118677360Y-31053948D02*
X118644026Y-31020615D01*
X118644026Y-31020615D02*
X118610693Y-30953948D01*
X118610693Y-30953948D02*
X118610693Y-30787281D01*
X118610693Y-30787281D02*
X118644026Y-30687281D01*
X119310693Y-30387281D02*
X118610693Y-30387281D01*
X115710693Y-27987281D02*
X115010693Y-27987281D01*
X115010693Y-27987281D02*
X115510693Y-27753948D01*
X115510693Y-27753948D02*
X115010693Y-27520614D01*
X115010693Y-27520614D02*
X115710693Y-27520614D01*
X115710693Y-27187281D02*
X115010693Y-27187281D01*
X115677360Y-26887281D02*
X115710693Y-26787281D01*
X115710693Y-26787281D02*
X115710693Y-26620615D01*
X115710693Y-26620615D02*
X115677360Y-26553948D01*
X115677360Y-26553948D02*
X115644026Y-26520615D01*
X115644026Y-26520615D02*
X115577360Y-26487281D01*
X115577360Y-26487281D02*
X115510693Y-26487281D01*
X115510693Y-26487281D02*
X115444026Y-26520615D01*
X115444026Y-26520615D02*
X115410693Y-26553948D01*
X115410693Y-26553948D02*
X115377360Y-26620615D01*
X115377360Y-26620615D02*
X115344026Y-26753948D01*
X115344026Y-26753948D02*
X115310693Y-26820615D01*
X115310693Y-26820615D02*
X115277360Y-26853948D01*
X115277360Y-26853948D02*
X115210693Y-26887281D01*
X115210693Y-26887281D02*
X115144026Y-26887281D01*
X115144026Y-26887281D02*
X115077360Y-26853948D01*
X115077360Y-26853948D02*
X115044026Y-26820615D01*
X115044026Y-26820615D02*
X115010693Y-26753948D01*
X115010693Y-26753948D02*
X115010693Y-26587281D01*
X115010693Y-26587281D02*
X115044026Y-26487281D01*
X115010693Y-26053948D02*
X115010693Y-25920614D01*
X115010693Y-25920614D02*
X115044026Y-25853948D01*
X115044026Y-25853948D02*
X115110693Y-25787281D01*
X115110693Y-25787281D02*
X115244026Y-25753948D01*
X115244026Y-25753948D02*
X115477360Y-25753948D01*
X115477360Y-25753948D02*
X115610693Y-25787281D01*
X115610693Y-25787281D02*
X115677360Y-25853948D01*
X115677360Y-25853948D02*
X115710693Y-25920614D01*
X115710693Y-25920614D02*
X115710693Y-26053948D01*
X115710693Y-26053948D02*
X115677360Y-26120614D01*
X115677360Y-26120614D02*
X115610693Y-26187281D01*
X115610693Y-26187281D02*
X115477360Y-26220614D01*
X115477360Y-26220614D02*
X115244026Y-26220614D01*
X115244026Y-26220614D02*
X115110693Y-26187281D01*
X115110693Y-26187281D02*
X115044026Y-26120614D01*
X115044026Y-26120614D02*
X115010693Y-26053948D01*
X122910693Y-27387281D02*
X122577360Y-27620614D01*
X122910693Y-27787281D02*
X122210693Y-27787281D01*
X122210693Y-27787281D02*
X122210693Y-27520614D01*
X122210693Y-27520614D02*
X122244026Y-27453948D01*
X122244026Y-27453948D02*
X122277360Y-27420614D01*
X122277360Y-27420614D02*
X122344026Y-27387281D01*
X122344026Y-27387281D02*
X122444026Y-27387281D01*
X122444026Y-27387281D02*
X122510693Y-27420614D01*
X122510693Y-27420614D02*
X122544026Y-27453948D01*
X122544026Y-27453948D02*
X122577360Y-27520614D01*
X122577360Y-27520614D02*
X122577360Y-27787281D01*
X122877360Y-27120614D02*
X122910693Y-27020614D01*
X122910693Y-27020614D02*
X122910693Y-26853948D01*
X122910693Y-26853948D02*
X122877360Y-26787281D01*
X122877360Y-26787281D02*
X122844026Y-26753948D01*
X122844026Y-26753948D02*
X122777360Y-26720614D01*
X122777360Y-26720614D02*
X122710693Y-26720614D01*
X122710693Y-26720614D02*
X122644026Y-26753948D01*
X122644026Y-26753948D02*
X122610693Y-26787281D01*
X122610693Y-26787281D02*
X122577360Y-26853948D01*
X122577360Y-26853948D02*
X122544026Y-26987281D01*
X122544026Y-26987281D02*
X122510693Y-27053948D01*
X122510693Y-27053948D02*
X122477360Y-27087281D01*
X122477360Y-27087281D02*
X122410693Y-27120614D01*
X122410693Y-27120614D02*
X122344026Y-27120614D01*
X122344026Y-27120614D02*
X122277360Y-27087281D01*
X122277360Y-27087281D02*
X122244026Y-27053948D01*
X122244026Y-27053948D02*
X122210693Y-26987281D01*
X122210693Y-26987281D02*
X122210693Y-26820614D01*
X122210693Y-26820614D02*
X122244026Y-26720614D01*
X122210693Y-26520614D02*
X122210693Y-26120614D01*
X122910693Y-26320614D02*
X122210693Y-26320614D01*
X120579385Y-30444026D02*
X120512718Y-30410693D01*
X120512718Y-30410693D02*
X120412718Y-30410693D01*
X120412718Y-30410693D02*
X120312718Y-30444026D01*
X120312718Y-30444026D02*
X120246052Y-30510693D01*
X120246052Y-30510693D02*
X120212718Y-30577360D01*
X120212718Y-30577360D02*
X120179385Y-30710693D01*
X120179385Y-30710693D02*
X120179385Y-30810693D01*
X120179385Y-30810693D02*
X120212718Y-30944026D01*
X120212718Y-30944026D02*
X120246052Y-31010693D01*
X120246052Y-31010693D02*
X120312718Y-31077360D01*
X120312718Y-31077360D02*
X120412718Y-31110693D01*
X120412718Y-31110693D02*
X120479385Y-31110693D01*
X120479385Y-31110693D02*
X120579385Y-31077360D01*
X120579385Y-31077360D02*
X120612718Y-31044026D01*
X120612718Y-31044026D02*
X120612718Y-30810693D01*
X120612718Y-30810693D02*
X120479385Y-30810693D01*
X120912718Y-31110693D02*
X120912718Y-30410693D01*
X120912718Y-30410693D02*
X121312718Y-31110693D01*
X121312718Y-31110693D02*
X121312718Y-30410693D01*
X121646051Y-31110693D02*
X121646051Y-30410693D01*
X121646051Y-30410693D02*
X121812718Y-30410693D01*
X121812718Y-30410693D02*
X121912718Y-30444026D01*
X121912718Y-30444026D02*
X121979385Y-30510693D01*
X121979385Y-30510693D02*
X122012718Y-30577360D01*
X122012718Y-30577360D02*
X122046051Y-30710693D01*
X122046051Y-30710693D02*
X122046051Y-30810693D01*
X122046051Y-30810693D02*
X122012718Y-30944026D01*
X122012718Y-30944026D02*
X121979385Y-31010693D01*
X121979385Y-31010693D02*
X121912718Y-31077360D01*
X121912718Y-31077360D02*
X121812718Y-31110693D01*
X121812718Y-31110693D02*
X121646051Y-31110693D01*
X115746052Y-30410693D02*
X116179385Y-30410693D01*
X116179385Y-30410693D02*
X115946052Y-30677360D01*
X115946052Y-30677360D02*
X116046052Y-30677360D01*
X116046052Y-30677360D02*
X116112718Y-30710693D01*
X116112718Y-30710693D02*
X116146052Y-30744026D01*
X116146052Y-30744026D02*
X116179385Y-30810693D01*
X116179385Y-30810693D02*
X116179385Y-30977360D01*
X116179385Y-30977360D02*
X116146052Y-31044026D01*
X116146052Y-31044026D02*
X116112718Y-31077360D01*
X116112718Y-31077360D02*
X116046052Y-31110693D01*
X116046052Y-31110693D02*
X115846052Y-31110693D01*
X115846052Y-31110693D02*
X115779385Y-31077360D01*
X115779385Y-31077360D02*
X115746052Y-31044026D01*
X116479385Y-31044026D02*
X116512719Y-31077360D01*
X116512719Y-31077360D02*
X116479385Y-31110693D01*
X116479385Y-31110693D02*
X116446052Y-31077360D01*
X116446052Y-31077360D02*
X116479385Y-31044026D01*
X116479385Y-31044026D02*
X116479385Y-31110693D01*
X116746052Y-30410693D02*
X117179385Y-30410693D01*
X117179385Y-30410693D02*
X116946052Y-30677360D01*
X116946052Y-30677360D02*
X117046052Y-30677360D01*
X117046052Y-30677360D02*
X117112718Y-30710693D01*
X117112718Y-30710693D02*
X117146052Y-30744026D01*
X117146052Y-30744026D02*
X117179385Y-30810693D01*
X117179385Y-30810693D02*
X117179385Y-30977360D01*
X117179385Y-30977360D02*
X117146052Y-31044026D01*
X117146052Y-31044026D02*
X117112718Y-31077360D01*
X117112718Y-31077360D02*
X117046052Y-31110693D01*
X117046052Y-31110693D02*
X116846052Y-31110693D01*
X116846052Y-31110693D02*
X116779385Y-31077360D01*
X116779385Y-31077360D02*
X116746052Y-31044026D01*
X117379385Y-30410693D02*
X117612719Y-31110693D01*
X117612719Y-31110693D02*
X117846052Y-30410693D01*
D11*
G36*
X136862281Y-55787878D02*
G01*
X136854099Y-55835872D01*
X136785252Y-56165411D01*
X136714316Y-56440797D01*
X136642219Y-56668496D01*
X136555196Y-56890492D01*
X136451128Y-57109025D01*
X136329466Y-57324532D01*
X136143554Y-57604824D01*
X135962104Y-57831374D01*
X135784865Y-58011023D01*
X135611239Y-58149764D01*
X135440247Y-58252625D01*
X135270518Y-58323544D01*
X135100323Y-58365228D01*
X134927634Y-58379050D01*
X134783417Y-58369963D01*
X134641209Y-58342676D01*
X134499965Y-58296741D01*
X134365579Y-58233914D01*
X134251131Y-58160259D01*
X134154361Y-58075945D01*
X134065105Y-57965634D01*
X134001682Y-57843309D01*
X133962874Y-57706553D01*
X133949441Y-57552044D01*
X133959327Y-57430495D01*
X133988215Y-57319477D01*
X134035829Y-57217005D01*
X134103073Y-57121558D01*
X134191974Y-57032173D01*
X134318570Y-56942201D01*
X134459594Y-56877489D01*
X134617735Y-56837574D01*
X134796475Y-56823712D01*
X134977509Y-56835086D01*
X135167248Y-56870156D01*
X135367369Y-56930855D01*
X135579545Y-57019766D01*
X135805427Y-57140067D01*
X136046632Y-57295467D01*
X135894958Y-57396461D01*
X135707268Y-57270270D01*
X135500992Y-57157809D01*
X135274581Y-57059284D01*
X135039269Y-56980912D01*
X134840361Y-56938341D01*
X134672156Y-56925317D01*
X134532613Y-56935724D01*
X134410476Y-56965522D01*
X134302888Y-57013490D01*
X134207606Y-57079678D01*
X134126596Y-57163190D01*
X134070224Y-57254957D01*
X134036231Y-57356805D01*
X134024546Y-57471566D01*
X134032589Y-57572785D01*
X134057034Y-57674542D01*
X134098918Y-57777969D01*
X134154878Y-57874705D01*
X134223195Y-57961763D01*
X134304570Y-58039919D01*
X134383249Y-58096218D01*
X134482686Y-58147876D01*
X134606577Y-58194159D01*
X134797385Y-58239234D01*
X134985031Y-58253998D01*
X135156207Y-58241990D01*
X135318961Y-58206419D01*
X135475075Y-58147226D01*
X135626041Y-58063374D01*
X135773001Y-57952886D01*
X135916707Y-57812919D01*
X136057501Y-57639849D01*
X136164655Y-57478449D01*
X136270197Y-57290943D01*
X136373796Y-57074549D01*
X136464024Y-56852044D01*
X136530307Y-56650023D01*
X136575296Y-56466507D01*
X136636845Y-56157418D01*
X136673726Y-55970572D01*
X136683251Y-55916960D01*
X136558932Y-55924898D01*
X136431926Y-55924898D01*
X136370027Y-55929041D01*
X136311636Y-55941263D01*
X136229967Y-55978838D01*
X136166800Y-56038471D01*
X136125879Y-56114371D01*
X136112212Y-56199916D01*
X136123256Y-56283278D01*
X136156542Y-56361482D01*
X136212515Y-56438155D01*
X136315788Y-56546130D01*
X136383133Y-56622415D01*
X136417536Y-56686436D01*
X136427773Y-56741891D01*
X136418789Y-56818645D01*
X136391130Y-56895869D01*
X136342411Y-56975265D01*
X136279680Y-57043524D01*
X136223019Y-57078720D01*
X136169609Y-57089448D01*
X136106004Y-57076826D01*
X136056158Y-57039623D01*
X136023922Y-56983639D01*
X136012438Y-56909075D01*
X136015247Y-56877690D01*
X136080928Y-56953699D01*
X136138578Y-56992022D01*
X136191468Y-57003475D01*
X136249308Y-56994485D01*
X136287259Y-56970412D01*
X136310864Y-56930799D01*
X136319818Y-56869263D01*
X136308836Y-56819461D01*
X136269129Y-56753666D01*
X136185973Y-56665076D01*
X136111402Y-56583273D01*
X136060565Y-56498766D01*
X136030659Y-56410255D01*
X136020621Y-56315809D01*
X136030562Y-56210826D01*
X136059768Y-56114742D01*
X136108468Y-56025527D01*
X136178401Y-55941751D01*
X136262290Y-55871896D01*
X136351490Y-55823273D01*
X136447421Y-55794129D01*
X136552093Y-55784214D01*
X136677878Y-55784214D01*
X136794016Y-55784214D01*
X136862281Y-55787878D01*
G37*
G36*
X137545429Y-57451050D02*
G01*
X137569975Y-57486587D01*
X137469786Y-57549577D01*
X137340955Y-57606449D01*
X137177843Y-57655847D01*
X137193132Y-57563862D01*
X137241652Y-57413286D01*
X137340387Y-57180795D01*
X137157827Y-57373552D01*
X136977686Y-57523834D01*
X136847378Y-57607512D01*
X136751821Y-57648539D01*
X136681908Y-57660000D01*
X136629794Y-57647167D01*
X136598640Y-57610290D01*
X136586287Y-57538855D01*
X136596294Y-57441345D01*
X136627848Y-57336308D01*
X136684385Y-57221484D01*
X136770690Y-57094699D01*
X136903140Y-56945982D01*
X137056898Y-56815379D01*
X137233897Y-56702201D01*
X137395694Y-56623397D01*
X137553076Y-56569019D01*
X137707284Y-56537185D01*
X137859647Y-56526713D01*
X137893513Y-56535574D01*
X137903367Y-56558831D01*
X137895928Y-56590348D01*
X137862334Y-56660558D01*
X137769921Y-56648023D01*
X137681960Y-56643949D01*
X137519594Y-56656876D01*
X137368729Y-56694899D01*
X137227054Y-56757943D01*
X137092756Y-56847337D01*
X136964619Y-56965739D01*
X136861716Y-57092326D01*
X136793929Y-57211173D01*
X136755665Y-57324324D01*
X136743335Y-57434197D01*
X136754001Y-57498818D01*
X136780489Y-57531573D01*
X136823935Y-57542763D01*
X136866815Y-57533608D01*
X136929522Y-57499202D01*
X137020673Y-57425404D01*
X137141466Y-57299697D01*
X137250261Y-57153318D01*
X137334316Y-57006559D01*
X137397213Y-56858525D01*
X137440160Y-56708307D01*
X137471467Y-56736821D01*
X137491415Y-56778803D01*
X137498900Y-56839344D01*
X137486419Y-56923959D01*
X137444794Y-57023828D01*
X137365055Y-57143914D01*
X137433787Y-57132698D01*
X137527599Y-57105690D01*
X137516730Y-57128771D01*
X137406659Y-57392298D01*
X137386915Y-57467048D01*
X137396328Y-57496057D01*
X137423796Y-57503684D01*
X137463200Y-57492573D01*
X137545429Y-57451050D01*
G37*
G36*
X138601413Y-57462041D02*
G01*
X138623272Y-57498921D01*
X138509688Y-57568069D01*
X138381056Y-57622810D01*
X138235293Y-57662686D01*
X138268830Y-57514174D01*
X138350539Y-57293698D01*
X138500418Y-56977951D01*
X138589200Y-56808569D01*
X138626540Y-56727646D01*
X138634263Y-56696461D01*
X138626239Y-56668191D01*
X138604221Y-56659581D01*
X138555705Y-56676222D01*
X138443632Y-56755324D01*
X138328541Y-56857041D01*
X138213433Y-56976730D01*
X138069796Y-57157396D01*
X137939920Y-57364233D01*
X137824110Y-57599916D01*
X137753968Y-57621176D01*
X137642393Y-57665495D01*
X137765508Y-57399656D01*
X137895795Y-57088105D01*
X138003557Y-56796204D01*
X138023534Y-56708796D01*
X138012899Y-56671032D01*
X137983845Y-56659581D01*
X137895062Y-56680830D01*
X137880041Y-56685104D01*
X137871859Y-56641385D01*
X138057638Y-56581957D01*
X138217585Y-56518408D01*
X138235293Y-56510226D01*
X138238101Y-56534773D01*
X138225688Y-56617854D01*
X138174543Y-56777138D01*
X138059071Y-57052445D01*
X138039898Y-57093356D01*
X138063101Y-57067466D01*
X138287957Y-56830180D01*
X138476360Y-56665565D01*
X138609200Y-56574748D01*
X138704377Y-56530938D01*
X138772260Y-56518897D01*
X138810138Y-56526830D01*
X138831273Y-56548239D01*
X138839183Y-56587041D01*
X138828663Y-56637700D01*
X138780005Y-56760099D01*
X138660153Y-57005673D01*
X138475617Y-57382671D01*
X138445708Y-57471933D01*
X138455142Y-57501835D01*
X138482588Y-57511500D01*
X138525761Y-57502483D01*
X138594574Y-57467414D01*
X138601413Y-57462041D01*
G37*
G36*
X139689759Y-57462041D02*
G01*
X139711618Y-57498921D01*
X139598034Y-57568069D01*
X139469402Y-57622810D01*
X139323639Y-57662686D01*
X139357177Y-57514174D01*
X139438885Y-57293698D01*
X139588764Y-56977951D01*
X139677547Y-56808569D01*
X139714886Y-56727646D01*
X139722609Y-56696461D01*
X139714585Y-56668191D01*
X139692568Y-56659581D01*
X139644052Y-56676222D01*
X139531978Y-56755324D01*
X139416887Y-56857041D01*
X139301779Y-56976730D01*
X139158142Y-57157396D01*
X139028266Y-57364233D01*
X138912456Y-57599916D01*
X138842314Y-57621176D01*
X138730739Y-57665495D01*
X138853854Y-57399656D01*
X138984141Y-57088105D01*
X139091903Y-56796204D01*
X139111880Y-56708796D01*
X139101245Y-56671032D01*
X139072191Y-56659581D01*
X138983408Y-56680830D01*
X138968387Y-56685104D01*
X138960205Y-56641385D01*
X139145984Y-56581957D01*
X139305931Y-56518408D01*
X139323639Y-56510226D01*
X139326448Y-56534773D01*
X139314035Y-56617854D01*
X139262889Y-56777138D01*
X139147418Y-57052445D01*
X139128244Y-57093356D01*
X139151448Y-57067466D01*
X139376303Y-56830180D01*
X139564706Y-56665565D01*
X139697546Y-56574748D01*
X139792724Y-56530938D01*
X139860607Y-56518897D01*
X139898484Y-56526830D01*
X139919619Y-56548239D01*
X139927529Y-56587041D01*
X139917009Y-56637700D01*
X139868351Y-56760099D01*
X139748499Y-57005673D01*
X139563963Y-57382671D01*
X139534054Y-57471933D01*
X139543488Y-57501835D01*
X139570935Y-57511500D01*
X139614107Y-57502483D01*
X139682920Y-57467414D01*
X139689759Y-57462041D01*
G37*
G36*
X140618370Y-57055132D02*
G01*
X140633081Y-57092889D01*
X140637421Y-57123520D01*
X140628607Y-57183217D01*
X140599596Y-57251461D01*
X140544606Y-57331265D01*
X140455704Y-57425526D01*
X140310428Y-57548252D01*
X140190082Y-57623993D01*
X140089806Y-57663698D01*
X140004832Y-57675631D01*
X139934017Y-57663906D01*
X139886674Y-57632015D01*
X139856564Y-57578333D01*
X139844975Y-57493426D01*
X139857870Y-57359246D01*
X139898243Y-57216264D01*
X139969905Y-57061849D01*
X140062145Y-56918553D01*
X140168761Y-56794872D01*
X140290352Y-56689134D01*
X140417186Y-56604673D01*
X140528264Y-56550219D01*
X140626270Y-56520377D01*
X140713869Y-56511081D01*
X140778131Y-56521685D01*
X140810699Y-56548014D01*
X140821824Y-56591193D01*
X140810666Y-56644396D01*
X140769923Y-56717466D01*
X140712161Y-56787056D01*
X140640108Y-56850701D01*
X140561426Y-56900590D01*
X140456315Y-56950108D01*
X140350149Y-56986253D01*
X140284979Y-56995659D01*
X140247214Y-56987864D01*
X140218259Y-56964878D01*
X140196196Y-56922752D01*
X140287787Y-56933133D01*
X140376341Y-56924256D01*
X140459779Y-56897815D01*
X140539724Y-56853021D01*
X140608117Y-56793417D01*
X140644041Y-56736456D01*
X140655251Y-56679609D01*
X140646271Y-56643133D01*
X140620471Y-56621331D01*
X140570498Y-56612686D01*
X140500656Y-56622451D01*
X140427147Y-56653385D01*
X140347653Y-56709929D01*
X140260310Y-56798799D01*
X140159275Y-56939405D01*
X140075907Y-57105446D01*
X140033830Y-57224226D01*
X140010674Y-57327429D01*
X140003489Y-57417466D01*
X140012198Y-57483760D01*
X140034638Y-57525234D01*
X140069463Y-57549543D01*
X140120969Y-57558394D01*
X140201566Y-57544873D01*
X140289322Y-57500882D01*
X140388049Y-57417588D01*
X140472747Y-57318198D01*
X140549639Y-57198308D01*
X140618370Y-57055132D01*
G37*
G36*
X141429256Y-56526713D02*
G01*
X141411427Y-56565792D01*
X141218841Y-56565792D01*
X141207850Y-56588995D01*
X141067166Y-56907854D01*
X140936008Y-57204853D01*
X140853246Y-57408106D01*
X140836235Y-57484145D01*
X140843210Y-57517285D01*
X140862069Y-57535815D01*
X140896318Y-57542763D01*
X140942961Y-57535706D01*
X141007047Y-57510496D01*
X141094521Y-57459354D01*
X141116381Y-57494891D01*
X141029755Y-57552003D01*
X140929169Y-57600893D01*
X140827386Y-57634920D01*
X140755635Y-57644368D01*
X140695171Y-57633951D01*
X140664005Y-57607713D01*
X140653175Y-57563890D01*
X140671803Y-57484115D01*
X140767969Y-57242100D01*
X140909996Y-56918967D01*
X141047993Y-56597177D01*
X141061671Y-56565792D01*
X140882763Y-56565792D01*
X140901814Y-56526713D01*
X140919644Y-56526713D01*
X141025762Y-56515381D01*
X141077424Y-56489466D01*
X141116803Y-56433714D01*
X141187334Y-56279905D01*
X141214689Y-56284424D01*
X141279744Y-56279537D01*
X141344504Y-56264762D01*
X141291259Y-56395676D01*
X141250226Y-56494961D01*
X141236549Y-56526713D01*
X141429256Y-56526713D01*
G37*
G36*
X141984176Y-56526713D02*
G01*
X141966346Y-56565792D01*
X141773761Y-56565792D01*
X141762770Y-56588995D01*
X141622086Y-56907854D01*
X141490928Y-57204853D01*
X141408166Y-57408106D01*
X141391154Y-57484145D01*
X141398130Y-57517285D01*
X141416989Y-57535815D01*
X141451238Y-57542763D01*
X141497881Y-57535706D01*
X141561967Y-57510496D01*
X141649441Y-57459354D01*
X141671301Y-57494891D01*
X141584675Y-57552003D01*
X141484089Y-57600893D01*
X141382305Y-57634920D01*
X141310554Y-57644368D01*
X141250091Y-57633951D01*
X141218924Y-57607713D01*
X141208094Y-57563890D01*
X141226723Y-57484115D01*
X141322889Y-57242100D01*
X141464916Y-56918967D01*
X141602913Y-56597177D01*
X141616591Y-56565792D01*
X141437683Y-56565792D01*
X141456734Y-56526713D01*
X141474563Y-56526713D01*
X141580682Y-56515381D01*
X141632344Y-56489466D01*
X141671723Y-56433714D01*
X141742254Y-56279905D01*
X141769609Y-56284424D01*
X141834664Y-56279537D01*
X141899424Y-56264762D01*
X141846179Y-56395676D01*
X141805146Y-56494961D01*
X141791468Y-56526713D01*
X141984176Y-56526713D01*
G37*
G36*
X146467152Y-55754863D02*
G01*
X146548000Y-55782388D01*
X146615875Y-55826835D01*
X146669185Y-55886619D01*
X146700665Y-55955341D01*
X146711496Y-56036029D01*
X146698161Y-56142919D01*
X146657533Y-56246813D01*
X146586342Y-56350322D01*
X146478489Y-56455150D01*
X146358484Y-56540494D01*
X146220869Y-56612827D01*
X146063452Y-56671797D01*
X145883635Y-56716489D01*
X145728546Y-56925816D01*
X145485275Y-57213401D01*
X145222298Y-57496748D01*
X144987386Y-57725334D01*
X144988729Y-57595642D01*
X144975313Y-57210616D01*
X144935484Y-56836779D01*
X144931332Y-56809424D01*
X144886270Y-56864012D01*
X144764637Y-57007383D01*
X144561060Y-57251748D01*
X144222295Y-57680394D01*
X144196284Y-57710314D01*
X144186081Y-57298168D01*
X144152564Y-56795136D01*
X144131993Y-56597172D01*
X144117027Y-56520729D01*
X144090522Y-56477560D01*
X144050104Y-56464187D01*
X144015016Y-56470717D01*
X143950331Y-56497526D01*
X143925785Y-56451608D01*
X143947644Y-56437808D01*
X144091015Y-56356109D01*
X144224982Y-56273189D01*
X144256367Y-56253771D01*
X144297729Y-56543957D01*
X144326254Y-56933694D01*
X144336967Y-57444211D01*
X144574738Y-57153440D01*
X144906664Y-56758866D01*
X144918998Y-56743845D01*
X144913503Y-56716489D01*
X145069330Y-56716489D01*
X145104795Y-56905670D01*
X145128739Y-57148510D01*
X145137595Y-57455202D01*
X145137595Y-57502951D01*
X145313309Y-57326975D01*
X145496266Y-57117292D01*
X145661696Y-56901310D01*
X145771528Y-56730167D01*
X145505181Y-56737739D01*
X145102058Y-56718810D01*
X145069330Y-56716489D01*
X144913503Y-56716489D01*
X144789795Y-56726893D01*
X144696806Y-56754889D01*
X144627558Y-56797454D01*
X144577138Y-56854236D01*
X144543309Y-56927609D01*
X144526866Y-57022281D01*
X144500138Y-56988326D01*
X144491329Y-56947177D01*
X144503298Y-56883000D01*
X144542615Y-56813187D01*
X144618335Y-56734319D01*
X144707345Y-56670003D01*
X144796171Y-56628504D01*
X144880041Y-56608778D01*
X145117079Y-56608778D01*
X145425251Y-56629813D01*
X145670411Y-56636133D01*
X145820743Y-56631859D01*
X145864461Y-56529011D01*
X145876796Y-56452341D01*
X145865565Y-56415613D01*
X145829625Y-56389522D01*
X145753820Y-56375038D01*
X145725122Y-56373695D01*
X145725122Y-56323503D01*
X146073534Y-56323503D01*
X146028647Y-56461487D01*
X145945062Y-56619647D01*
X146131680Y-56576939D01*
X146264746Y-56528096D01*
X146356245Y-56475544D01*
X146452560Y-56391716D01*
X146517317Y-56302909D01*
X146555222Y-56207595D01*
X146568004Y-56102951D01*
X146558507Y-56030150D01*
X146531162Y-55969282D01*
X146485327Y-55917449D01*
X146426518Y-55879252D01*
X146354604Y-55855300D01*
X146266120Y-55846741D01*
X146147289Y-55857897D01*
X146017749Y-55893188D01*
X145874838Y-55956457D01*
X145715911Y-56052868D01*
X145538365Y-56188721D01*
X145339619Y-56371304D01*
X145117079Y-56608778D01*
X144880041Y-56608778D01*
X144886270Y-56607313D01*
X144816427Y-56434587D01*
X144728262Y-56285605D01*
X144621840Y-56157559D01*
X144496214Y-56048485D01*
X144354673Y-55960955D01*
X144201635Y-55898257D01*
X144034966Y-55859914D01*
X143852023Y-55846741D01*
X143681108Y-55857524D01*
X143528470Y-55888563D01*
X143391522Y-55938559D01*
X143268098Y-56007143D01*
X143156542Y-56094891D01*
X143059694Y-56199814D01*
X142985240Y-56314602D01*
X142931694Y-56440660D01*
X142898766Y-56580035D01*
X142887386Y-56735296D01*
X142897461Y-56880544D01*
X142926710Y-57012316D01*
X142974361Y-57132702D01*
X143040589Y-57243404D01*
X143126500Y-57345659D01*
X143227230Y-57433744D01*
X143335878Y-57501345D01*
X143453627Y-57549800D01*
X143582157Y-57579458D01*
X143723551Y-57589658D01*
X143852023Y-57576713D01*
X143860205Y-57602602D01*
X143730032Y-57633098D01*
X143562351Y-57644368D01*
X143423204Y-57634532D01*
X143297542Y-57606022D01*
X143183247Y-57559624D01*
X143078605Y-57495157D01*
X142982397Y-57411482D01*
X142900494Y-57313966D01*
X142837156Y-57207605D01*
X142791429Y-57091134D01*
X142763269Y-56962818D01*
X142753541Y-56820537D01*
X142767560Y-56640805D01*
X142808328Y-56478084D01*
X142875105Y-56329402D01*
X142968755Y-56192446D01*
X143091695Y-56065704D01*
X143231364Y-55960614D01*
X143385008Y-55878437D01*
X143554560Y-55818566D01*
X143742508Y-55781452D01*
X143951796Y-55768583D01*
X144164773Y-55783187D01*
X144351215Y-55824923D01*
X144515216Y-55891799D01*
X144660101Y-55983394D01*
X144762739Y-56074318D01*
X144852581Y-56180468D01*
X144930121Y-56303299D01*
X144995293Y-56444777D01*
X145047470Y-56607313D01*
X145336277Y-56307822D01*
X145575882Y-56093122D01*
X145773604Y-55947002D01*
X145935087Y-55854650D01*
X146087064Y-55792386D01*
X146231366Y-55756690D01*
X146369923Y-55745136D01*
X146467152Y-55754863D01*
G37*
G36*
X98874180Y-47560000D02*
G01*
X98815928Y-47840024D01*
X97791695Y-47840024D01*
X97648340Y-47850074D01*
X97531706Y-47877897D01*
X97436952Y-47921052D01*
X97360240Y-47978632D01*
X97296453Y-48051407D01*
X97240503Y-48143475D01*
X97192914Y-48258268D01*
X97154954Y-48399951D01*
X97060676Y-48853632D01*
X97039044Y-49001098D01*
X97039262Y-49116541D01*
X97056527Y-49206470D01*
X97087787Y-49276416D01*
X97136747Y-49332830D01*
X97208480Y-49376103D01*
X97309843Y-49405295D01*
X97450366Y-49416367D01*
X97751639Y-49416367D01*
X97948830Y-49406940D01*
X98080856Y-49383196D01*
X98165020Y-49350666D01*
X98233287Y-49297081D01*
X98286291Y-49217014D01*
X98323412Y-49102759D01*
X98394364Y-48761186D01*
X97704256Y-48761186D01*
X97762508Y-48481161D01*
X98767568Y-48481161D01*
X98648743Y-49052445D01*
X98596420Y-49239938D01*
X98531995Y-49377288D01*
X98476266Y-49456004D01*
X98412206Y-49520865D01*
X98339288Y-49573171D01*
X98213106Y-49630878D01*
X98052180Y-49669769D01*
X97874893Y-49689217D01*
X97652233Y-49696392D01*
X97433147Y-49696392D01*
X97280515Y-49688415D01*
X97153473Y-49666252D01*
X97048098Y-49632034D01*
X96950338Y-49581454D01*
X96871243Y-49519953D01*
X96808374Y-49447264D01*
X96760457Y-49363534D01*
X96726472Y-49267669D01*
X96707013Y-49157470D01*
X96704978Y-48983485D01*
X96733879Y-48778039D01*
X96796284Y-48478353D01*
X96851423Y-48275704D01*
X96925732Y-48099043D01*
X96989009Y-47990442D01*
X97061998Y-47894179D01*
X97144940Y-47809249D01*
X97238267Y-47736112D01*
X97344150Y-47674518D01*
X97464043Y-47624480D01*
X97589635Y-47589615D01*
X97731218Y-47567679D01*
X97890980Y-47560000D01*
X98874180Y-47560000D01*
G37*
G36*
X98772941Y-47840024D02*
G01*
X98831193Y-47560000D01*
X100260746Y-47560000D01*
X100406053Y-47566836D01*
X100538695Y-47586622D01*
X100661215Y-47624037D01*
X100759246Y-47679068D01*
X100813352Y-47727757D01*
X100855964Y-47786935D01*
X100887595Y-47858220D01*
X100904159Y-47934612D01*
X100906078Y-48027972D01*
X100890160Y-48142397D01*
X100864515Y-48265617D01*
X100834036Y-48376762D01*
X100793584Y-48470698D01*
X100743859Y-48549794D01*
X100649946Y-48651877D01*
X100540893Y-48729068D01*
X100418303Y-48784643D01*
X100281995Y-48821392D01*
X100139646Y-48841312D01*
X99992934Y-48848014D01*
X99453401Y-48848014D01*
X99284630Y-49660000D01*
X98969801Y-49660000D01*
X99117079Y-48951573D01*
X99156547Y-48830281D01*
X99216579Y-48735806D01*
X99297452Y-48663244D01*
X99394905Y-48611057D01*
X99504630Y-48579083D01*
X99629501Y-48567990D01*
X100100523Y-48567990D01*
X100240177Y-48558132D01*
X100339040Y-48532473D01*
X100407292Y-48495205D01*
X100462214Y-48440458D01*
X100504864Y-48367272D01*
X100534665Y-48271235D01*
X100562630Y-48136779D01*
X100572690Y-48037162D01*
X100559737Y-47965217D01*
X100528436Y-47912808D01*
X100478287Y-47876795D01*
X100391767Y-47850644D01*
X100251831Y-47840024D01*
X98772941Y-47840024D01*
G37*
G36*
X102082920Y-48797578D02*
G01*
X101592969Y-48652009D01*
X101428833Y-48591341D01*
X101307266Y-48523687D01*
X101219888Y-48450387D01*
X101172277Y-48384338D01*
X101143530Y-48304928D01*
X101134398Y-48208245D01*
X101148447Y-48089152D01*
X101182635Y-47977101D01*
X101235527Y-47877162D01*
X101307903Y-47787489D01*
X101401849Y-47707034D01*
X101506242Y-47646099D01*
X101631698Y-47600148D01*
X101782181Y-47570594D01*
X101962386Y-47560000D01*
X102920917Y-47560000D01*
X102862665Y-47840024D01*
X101868475Y-47840024D01*
X101738056Y-47849467D01*
X101645501Y-47874094D01*
X101581367Y-47910000D01*
X101527923Y-47961099D01*
X101492158Y-48015815D01*
X101471824Y-48075230D01*
X101465728Y-48146438D01*
X101477853Y-48201856D01*
X101506140Y-48246078D01*
X101548833Y-48280856D01*
X101622239Y-48319133D01*
X101738415Y-48360750D01*
X102227267Y-48512058D01*
X102392522Y-48574890D01*
X102514427Y-48644850D01*
X102601570Y-48720642D01*
X102649101Y-48788657D01*
X102677656Y-48869166D01*
X102686630Y-48965782D01*
X102672766Y-49083220D01*
X102635729Y-49208572D01*
X102580670Y-49318828D01*
X102507382Y-49416128D01*
X102414480Y-49501852D01*
X102309551Y-49567916D01*
X102184747Y-49617256D01*
X102036336Y-49648759D01*
X101859804Y-49660000D01*
X100876605Y-49660000D01*
X100934856Y-49379975D01*
X101948342Y-49379975D01*
X102067010Y-49370685D01*
X102158179Y-49345529D01*
X102227756Y-49307191D01*
X102285437Y-49253032D01*
X102326499Y-49188391D01*
X102351953Y-49111186D01*
X102360527Y-49026316D01*
X102349539Y-48963579D01*
X102322644Y-48916646D01*
X102279815Y-48879837D01*
X102204381Y-48840014D01*
X102082920Y-48797578D01*
G37*
G36*
X105465073Y-49379975D02*
G01*
X105406821Y-49660000D01*
X104500314Y-49660000D01*
X104340161Y-49651956D01*
X104208236Y-49629725D01*
X104100122Y-49595642D01*
X103999807Y-49544785D01*
X103920002Y-49483250D01*
X103857833Y-49410872D01*
X103810823Y-49327211D01*
X103777718Y-49231356D01*
X103759159Y-49121078D01*
X103758110Y-48947121D01*
X103787369Y-48741646D01*
X103842201Y-48478353D01*
X103897341Y-48275704D01*
X103971650Y-48099043D01*
X104034926Y-47990442D01*
X104107916Y-47894179D01*
X104190858Y-47809249D01*
X104284185Y-47736112D01*
X104390067Y-47674518D01*
X104509961Y-47624480D01*
X104635552Y-47589615D01*
X104777135Y-47567679D01*
X104936898Y-47560000D01*
X105829849Y-47560000D01*
X105771598Y-47840024D01*
X104837613Y-47840024D01*
X104694258Y-47850074D01*
X104577623Y-47877897D01*
X104482870Y-47921052D01*
X104406158Y-47978632D01*
X104342371Y-48051407D01*
X104286420Y-48143475D01*
X104238832Y-48258268D01*
X104200872Y-48399951D01*
X104113555Y-48820048D01*
X104092210Y-48967426D01*
X104093082Y-49082503D01*
X104111266Y-49171941D01*
X104143719Y-49241367D01*
X104193942Y-49296925D01*
X104267724Y-49339840D01*
X104372298Y-49368921D01*
X104517533Y-49379975D01*
X105465073Y-49379975D01*
G37*
G36*
X106245184Y-47560000D02*
G01*
X106546458Y-47560000D01*
X106109874Y-49660000D01*
X105808600Y-49660000D01*
X106245184Y-47560000D01*
G37*
G36*
X108005577Y-47953056D02*
G01*
X108127480Y-47979187D01*
X108226007Y-48019402D01*
X108305235Y-48072396D01*
X108368143Y-48138244D01*
X108425552Y-48237851D01*
X108459280Y-48357898D01*
X108467145Y-48503930D01*
X108443981Y-48682784D01*
X108386828Y-48957191D01*
X108338462Y-49128639D01*
X108271631Y-49274313D01*
X108187168Y-49397823D01*
X108084699Y-49501852D01*
X107965328Y-49584849D01*
X107828807Y-49645336D01*
X107672004Y-49683126D01*
X107490945Y-49696392D01*
X107285659Y-49696392D01*
X107125946Y-49686605D01*
X106999400Y-49659912D01*
X106899909Y-49619379D01*
X106822419Y-49566663D01*
X106763224Y-49501852D01*
X106709989Y-49402805D01*
X106679096Y-49282901D01*
X106673543Y-49149284D01*
X106984462Y-49149284D01*
X106994110Y-49254257D01*
X107024197Y-49326852D01*
X107062110Y-49368574D01*
X107117005Y-49400632D01*
X107193936Y-49422236D01*
X107299825Y-49430411D01*
X107584612Y-49430411D01*
X107729021Y-49417033D01*
X107834844Y-49381279D01*
X107911531Y-49326852D01*
X107970889Y-49251334D01*
X108022093Y-49144913D01*
X108063206Y-48999200D01*
X108137700Y-48640774D01*
X108157311Y-48490281D01*
X108149457Y-48385343D01*
X108122191Y-48313244D01*
X108086652Y-48272185D01*
X108032110Y-48240101D01*
X107952237Y-48218047D01*
X107838381Y-48209563D01*
X107553593Y-48209563D01*
X107418535Y-48222532D01*
X107314646Y-48257978D01*
X107234856Y-48313244D01*
X107172393Y-48389163D01*
X107119415Y-48495606D01*
X107077808Y-48640774D01*
X107003314Y-48999200D01*
X106984462Y-49149284D01*
X106673543Y-49149284D01*
X106673016Y-49136603D01*
X106696912Y-48957191D01*
X106754064Y-48682784D01*
X106802025Y-48510678D01*
X106867239Y-48364845D01*
X106948741Y-48241632D01*
X107046667Y-48138244D01*
X107161236Y-48056260D01*
X107297072Y-47995683D01*
X107458289Y-47957257D01*
X107650069Y-47943583D01*
X107855355Y-47943583D01*
X108005577Y-47953056D01*
G37*
G36*
X109655914Y-48245956D02*
G01*
X109513679Y-48257022D01*
X109406782Y-48286694D01*
X109327285Y-48331441D01*
X109264679Y-48396763D01*
X109211056Y-48496209D01*
X109168527Y-48640774D01*
X109094644Y-48996392D01*
X109077725Y-49115915D01*
X109080190Y-49202683D01*
X109096684Y-49264763D01*
X109124197Y-49308656D01*
X109182153Y-49351871D01*
X109274974Y-49382081D01*
X109417288Y-49394019D01*
X110126692Y-49394019D01*
X110071371Y-49660000D01*
X109348290Y-49660000D01*
X109191353Y-49647453D01*
X109063461Y-49612558D01*
X108959082Y-49557859D01*
X108874092Y-49483656D01*
X108822882Y-49411944D01*
X108787322Y-49326830D01*
X108767922Y-49225325D01*
X108766822Y-49103599D01*
X108787630Y-48957191D01*
X108844783Y-48682784D01*
X108893785Y-48511429D01*
X108961428Y-48369345D01*
X109046673Y-48252089D01*
X109149965Y-48156441D01*
X109270453Y-48079748D01*
X109400576Y-48024936D01*
X109542175Y-47991466D01*
X109697557Y-47979975D01*
X110420638Y-47979975D01*
X110365317Y-48245956D01*
X109655914Y-48245956D01*
G37*
G36*
X110480355Y-49660000D02*
G01*
X110916939Y-47560000D01*
X111218213Y-47560000D01*
X110986549Y-48674357D01*
X111161915Y-48674357D01*
X111249574Y-48668383D01*
X111307240Y-48653353D01*
X111360611Y-48623727D01*
X111437177Y-48562372D01*
X112092236Y-47979975D01*
X112453838Y-47979975D01*
X111520708Y-48806004D01*
X112126430Y-49660000D01*
X111742969Y-49660000D01*
X111333496Y-49060750D01*
X111282774Y-48999660D01*
X111241416Y-48969769D01*
X111191399Y-48954970D01*
X111104884Y-48948764D01*
X110929518Y-48948764D01*
X110781629Y-49660000D01*
X110480355Y-49660000D01*
G37*
D12*
X87885714Y-28697466D02*
X87790476Y-28649847D01*
X87790476Y-28649847D02*
X87647619Y-28649847D01*
X87647619Y-28649847D02*
X87504762Y-28697466D01*
X87504762Y-28697466D02*
X87409524Y-28792704D01*
X87409524Y-28792704D02*
X87361905Y-28887942D01*
X87361905Y-28887942D02*
X87314286Y-29078418D01*
X87314286Y-29078418D02*
X87314286Y-29221275D01*
X87314286Y-29221275D02*
X87361905Y-29411751D01*
X87361905Y-29411751D02*
X87409524Y-29506989D01*
X87409524Y-29506989D02*
X87504762Y-29602228D01*
X87504762Y-29602228D02*
X87647619Y-29649847D01*
X87647619Y-29649847D02*
X87742857Y-29649847D01*
X87742857Y-29649847D02*
X87885714Y-29602228D01*
X87885714Y-29602228D02*
X87933333Y-29554608D01*
X87933333Y-29554608D02*
X87933333Y-29221275D01*
X87933333Y-29221275D02*
X87742857Y-29221275D01*
X88361905Y-29649847D02*
X88361905Y-28649847D01*
X88361905Y-28649847D02*
X88742857Y-28649847D01*
X88742857Y-28649847D02*
X88838095Y-28697466D01*
X88838095Y-28697466D02*
X88885714Y-28745085D01*
X88885714Y-28745085D02*
X88933333Y-28840323D01*
X88933333Y-28840323D02*
X88933333Y-28983180D01*
X88933333Y-28983180D02*
X88885714Y-29078418D01*
X88885714Y-29078418D02*
X88838095Y-29126037D01*
X88838095Y-29126037D02*
X88742857Y-29173656D01*
X88742857Y-29173656D02*
X88361905Y-29173656D01*
X89314286Y-29602228D02*
X89457143Y-29649847D01*
X89457143Y-29649847D02*
X89695238Y-29649847D01*
X89695238Y-29649847D02*
X89790476Y-29602228D01*
X89790476Y-29602228D02*
X89838095Y-29554608D01*
X89838095Y-29554608D02*
X89885714Y-29459370D01*
X89885714Y-29459370D02*
X89885714Y-29364132D01*
X89885714Y-29364132D02*
X89838095Y-29268894D01*
X89838095Y-29268894D02*
X89790476Y-29221275D01*
X89790476Y-29221275D02*
X89695238Y-29173656D01*
X89695238Y-29173656D02*
X89504762Y-29126037D01*
X89504762Y-29126037D02*
X89409524Y-29078418D01*
X89409524Y-29078418D02*
X89361905Y-29030799D01*
X89361905Y-29030799D02*
X89314286Y-28935561D01*
X89314286Y-28935561D02*
X89314286Y-28840323D01*
X89314286Y-28840323D02*
X89361905Y-28745085D01*
X89361905Y-28745085D02*
X89409524Y-28697466D01*
X89409524Y-28697466D02*
X89504762Y-28649847D01*
X89504762Y-28649847D02*
X89742857Y-28649847D01*
X89742857Y-28649847D02*
X89885714Y-28697466D01*
X85838095Y-30974076D02*
X86314285Y-30974076D01*
X85742857Y-31259791D02*
X86076190Y-30259791D01*
X86076190Y-30259791D02*
X86409523Y-31259791D01*
X86742857Y-30593124D02*
X86742857Y-31259791D01*
X86742857Y-30688362D02*
X86790476Y-30640743D01*
X86790476Y-30640743D02*
X86885714Y-30593124D01*
X86885714Y-30593124D02*
X87028571Y-30593124D01*
X87028571Y-30593124D02*
X87123809Y-30640743D01*
X87123809Y-30640743D02*
X87171428Y-30735981D01*
X87171428Y-30735981D02*
X87171428Y-31259791D01*
X87504762Y-30593124D02*
X87885714Y-30593124D01*
X87647619Y-30259791D02*
X87647619Y-31116933D01*
X87647619Y-31116933D02*
X87695238Y-31212172D01*
X87695238Y-31212172D02*
X87790476Y-31259791D01*
X87790476Y-31259791D02*
X87885714Y-31259791D01*
X88600000Y-31212172D02*
X88504762Y-31259791D01*
X88504762Y-31259791D02*
X88314286Y-31259791D01*
X88314286Y-31259791D02*
X88219048Y-31212172D01*
X88219048Y-31212172D02*
X88171429Y-31116933D01*
X88171429Y-31116933D02*
X88171429Y-30735981D01*
X88171429Y-30735981D02*
X88219048Y-30640743D01*
X88219048Y-30640743D02*
X88314286Y-30593124D01*
X88314286Y-30593124D02*
X88504762Y-30593124D01*
X88504762Y-30593124D02*
X88600000Y-30640743D01*
X88600000Y-30640743D02*
X88647619Y-30735981D01*
X88647619Y-30735981D02*
X88647619Y-30831219D01*
X88647619Y-30831219D02*
X88171429Y-30926457D01*
X89076191Y-30593124D02*
X89076191Y-31259791D01*
X89076191Y-30688362D02*
X89123810Y-30640743D01*
X89123810Y-30640743D02*
X89219048Y-30593124D01*
X89219048Y-30593124D02*
X89361905Y-30593124D01*
X89361905Y-30593124D02*
X89457143Y-30640743D01*
X89457143Y-30640743D02*
X89504762Y-30735981D01*
X89504762Y-30735981D02*
X89504762Y-31259791D01*
X89980953Y-30593124D02*
X89980953Y-31259791D01*
X89980953Y-30688362D02*
X90028572Y-30640743D01*
X90028572Y-30640743D02*
X90123810Y-30593124D01*
X90123810Y-30593124D02*
X90266667Y-30593124D01*
X90266667Y-30593124D02*
X90361905Y-30640743D01*
X90361905Y-30640743D02*
X90409524Y-30735981D01*
X90409524Y-30735981D02*
X90409524Y-31259791D01*
X91314286Y-31259791D02*
X91314286Y-30735981D01*
X91314286Y-30735981D02*
X91266667Y-30640743D01*
X91266667Y-30640743D02*
X91171429Y-30593124D01*
X91171429Y-30593124D02*
X90980953Y-30593124D01*
X90980953Y-30593124D02*
X90885715Y-30640743D01*
X91314286Y-31212172D02*
X91219048Y-31259791D01*
X91219048Y-31259791D02*
X90980953Y-31259791D01*
X90980953Y-31259791D02*
X90885715Y-31212172D01*
X90885715Y-31212172D02*
X90838096Y-31116933D01*
X90838096Y-31116933D02*
X90838096Y-31021695D01*
X90838096Y-31021695D02*
X90885715Y-30926457D01*
X90885715Y-30926457D02*
X90980953Y-30878838D01*
X90980953Y-30878838D02*
X91219048Y-30878838D01*
X91219048Y-30878838D02*
X91314286Y-30831219D01*
X122969104Y-70023809D02*
X122969104Y-69547619D01*
X123254819Y-70119047D02*
X122254819Y-69785714D01*
X122254819Y-69785714D02*
X123254819Y-69452381D01*
X122588152Y-69119047D02*
X123254819Y-69119047D01*
X122683390Y-69119047D02*
X122635771Y-69071428D01*
X122635771Y-69071428D02*
X122588152Y-68976190D01*
X122588152Y-68976190D02*
X122588152Y-68833333D01*
X122588152Y-68833333D02*
X122635771Y-68738095D01*
X122635771Y-68738095D02*
X122731009Y-68690476D01*
X122731009Y-68690476D02*
X123254819Y-68690476D01*
X123254819Y-68071428D02*
X123207200Y-68166666D01*
X123207200Y-68166666D02*
X123159580Y-68214285D01*
X123159580Y-68214285D02*
X123064342Y-68261904D01*
X123064342Y-68261904D02*
X122778628Y-68261904D01*
X122778628Y-68261904D02*
X122683390Y-68214285D01*
X122683390Y-68214285D02*
X122635771Y-68166666D01*
X122635771Y-68166666D02*
X122588152Y-68071428D01*
X122588152Y-68071428D02*
X122588152Y-67928571D01*
X122588152Y-67928571D02*
X122635771Y-67833333D01*
X122635771Y-67833333D02*
X122683390Y-67785714D01*
X122683390Y-67785714D02*
X122778628Y-67738095D01*
X122778628Y-67738095D02*
X123064342Y-67738095D01*
X123064342Y-67738095D02*
X123159580Y-67785714D01*
X123159580Y-67785714D02*
X123207200Y-67833333D01*
X123207200Y-67833333D02*
X123254819Y-67928571D01*
X123254819Y-67928571D02*
X123254819Y-68071428D01*
X123254819Y-66880952D02*
X122254819Y-66880952D01*
X123207200Y-66880952D02*
X123254819Y-66976190D01*
X123254819Y-66976190D02*
X123254819Y-67166666D01*
X123254819Y-67166666D02*
X123207200Y-67261904D01*
X123207200Y-67261904D02*
X123159580Y-67309523D01*
X123159580Y-67309523D02*
X123064342Y-67357142D01*
X123064342Y-67357142D02*
X122778628Y-67357142D01*
X122778628Y-67357142D02*
X122683390Y-67309523D01*
X122683390Y-67309523D02*
X122635771Y-67261904D01*
X122635771Y-67261904D02*
X122588152Y-67166666D01*
X122588152Y-67166666D02*
X122588152Y-66976190D01*
X122588152Y-66976190D02*
X122635771Y-66880952D01*
X123207200Y-66023809D02*
X123254819Y-66119047D01*
X123254819Y-66119047D02*
X123254819Y-66309523D01*
X123254819Y-66309523D02*
X123207200Y-66404761D01*
X123207200Y-66404761D02*
X123111961Y-66452380D01*
X123111961Y-66452380D02*
X122731009Y-66452380D01*
X122731009Y-66452380D02*
X122635771Y-66404761D01*
X122635771Y-66404761D02*
X122588152Y-66309523D01*
X122588152Y-66309523D02*
X122588152Y-66119047D01*
X122588152Y-66119047D02*
X122635771Y-66023809D01*
X122635771Y-66023809D02*
X122731009Y-65976190D01*
X122731009Y-65976190D02*
X122826247Y-65976190D01*
X122826247Y-65976190D02*
X122921485Y-66452380D01*
X105923810Y-69054819D02*
X106542857Y-69054819D01*
X106542857Y-69054819D02*
X106209524Y-69435771D01*
X106209524Y-69435771D02*
X106352381Y-69435771D01*
X106352381Y-69435771D02*
X106447619Y-69483390D01*
X106447619Y-69483390D02*
X106495238Y-69531009D01*
X106495238Y-69531009D02*
X106542857Y-69626247D01*
X106542857Y-69626247D02*
X106542857Y-69864342D01*
X106542857Y-69864342D02*
X106495238Y-69959580D01*
X106495238Y-69959580D02*
X106447619Y-70007200D01*
X106447619Y-70007200D02*
X106352381Y-70054819D01*
X106352381Y-70054819D02*
X106066667Y-70054819D01*
X106066667Y-70054819D02*
X105971429Y-70007200D01*
X105971429Y-70007200D02*
X105923810Y-69959580D01*
X106971429Y-69959580D02*
X107019048Y-70007200D01*
X107019048Y-70007200D02*
X106971429Y-70054819D01*
X106971429Y-70054819D02*
X106923810Y-70007200D01*
X106923810Y-70007200D02*
X106971429Y-69959580D01*
X106971429Y-69959580D02*
X106971429Y-70054819D01*
X107352381Y-69054819D02*
X107971428Y-69054819D01*
X107971428Y-69054819D02*
X107638095Y-69435771D01*
X107638095Y-69435771D02*
X107780952Y-69435771D01*
X107780952Y-69435771D02*
X107876190Y-69483390D01*
X107876190Y-69483390D02*
X107923809Y-69531009D01*
X107923809Y-69531009D02*
X107971428Y-69626247D01*
X107971428Y-69626247D02*
X107971428Y-69864342D01*
X107971428Y-69864342D02*
X107923809Y-69959580D01*
X107923809Y-69959580D02*
X107876190Y-70007200D01*
X107876190Y-70007200D02*
X107780952Y-70054819D01*
X107780952Y-70054819D02*
X107495238Y-70054819D01*
X107495238Y-70054819D02*
X107400000Y-70007200D01*
X107400000Y-70007200D02*
X107352381Y-69959580D01*
X108257143Y-69054819D02*
X108590476Y-70054819D01*
X108590476Y-70054819D02*
X108923809Y-69054819D01*
X107038095Y-50902438D02*
X106942857Y-50854819D01*
X106942857Y-50854819D02*
X106800000Y-50854819D01*
X106800000Y-50854819D02*
X106657143Y-50902438D01*
X106657143Y-50902438D02*
X106561905Y-50997676D01*
X106561905Y-50997676D02*
X106514286Y-51092914D01*
X106514286Y-51092914D02*
X106466667Y-51283390D01*
X106466667Y-51283390D02*
X106466667Y-51426247D01*
X106466667Y-51426247D02*
X106514286Y-51616723D01*
X106514286Y-51616723D02*
X106561905Y-51711961D01*
X106561905Y-51711961D02*
X106657143Y-51807200D01*
X106657143Y-51807200D02*
X106800000Y-51854819D01*
X106800000Y-51854819D02*
X106895238Y-51854819D01*
X106895238Y-51854819D02*
X107038095Y-51807200D01*
X107038095Y-51807200D02*
X107085714Y-51759580D01*
X107085714Y-51759580D02*
X107085714Y-51426247D01*
X107085714Y-51426247D02*
X106895238Y-51426247D01*
X107514286Y-51854819D02*
X107514286Y-50854819D01*
X107514286Y-50854819D02*
X108085714Y-51854819D01*
X108085714Y-51854819D02*
X108085714Y-50854819D01*
X108561905Y-51854819D02*
X108561905Y-50854819D01*
X108561905Y-50854819D02*
X108800000Y-50854819D01*
X108800000Y-50854819D02*
X108942857Y-50902438D01*
X108942857Y-50902438D02*
X109038095Y-50997676D01*
X109038095Y-50997676D02*
X109085714Y-51092914D01*
X109085714Y-51092914D02*
X109133333Y-51283390D01*
X109133333Y-51283390D02*
X109133333Y-51426247D01*
X109133333Y-51426247D02*
X109085714Y-51616723D01*
X109085714Y-51616723D02*
X109038095Y-51711961D01*
X109038095Y-51711961D02*
X108942857Y-51807200D01*
X108942857Y-51807200D02*
X108800000Y-51854819D01*
X108800000Y-51854819D02*
X108561905Y-51854819D01*
X106980952Y-58454819D02*
X106409524Y-58454819D01*
X106695238Y-58454819D02*
X106695238Y-57454819D01*
X106695238Y-57454819D02*
X106600000Y-57597676D01*
X106600000Y-57597676D02*
X106504762Y-57692914D01*
X106504762Y-57692914D02*
X106409524Y-57740533D01*
X107361905Y-57550057D02*
X107409524Y-57502438D01*
X107409524Y-57502438D02*
X107504762Y-57454819D01*
X107504762Y-57454819D02*
X107742857Y-57454819D01*
X107742857Y-57454819D02*
X107838095Y-57502438D01*
X107838095Y-57502438D02*
X107885714Y-57550057D01*
X107885714Y-57550057D02*
X107933333Y-57645295D01*
X107933333Y-57645295D02*
X107933333Y-57740533D01*
X107933333Y-57740533D02*
X107885714Y-57883390D01*
X107885714Y-57883390D02*
X107314286Y-58454819D01*
X107314286Y-58454819D02*
X107933333Y-58454819D01*
X108219048Y-57454819D02*
X108552381Y-58454819D01*
X108552381Y-58454819D02*
X108885714Y-57454819D01*
X88838095Y-59902438D02*
X88742857Y-59854819D01*
X88742857Y-59854819D02*
X88600000Y-59854819D01*
X88600000Y-59854819D02*
X88457143Y-59902438D01*
X88457143Y-59902438D02*
X88361905Y-59997676D01*
X88361905Y-59997676D02*
X88314286Y-60092914D01*
X88314286Y-60092914D02*
X88266667Y-60283390D01*
X88266667Y-60283390D02*
X88266667Y-60426247D01*
X88266667Y-60426247D02*
X88314286Y-60616723D01*
X88314286Y-60616723D02*
X88361905Y-60711961D01*
X88361905Y-60711961D02*
X88457143Y-60807200D01*
X88457143Y-60807200D02*
X88600000Y-60854819D01*
X88600000Y-60854819D02*
X88695238Y-60854819D01*
X88695238Y-60854819D02*
X88838095Y-60807200D01*
X88838095Y-60807200D02*
X88885714Y-60759580D01*
X88885714Y-60759580D02*
X88885714Y-60426247D01*
X88885714Y-60426247D02*
X88695238Y-60426247D01*
X89314286Y-60854819D02*
X89314286Y-59854819D01*
X89314286Y-59854819D02*
X89885714Y-60854819D01*
X89885714Y-60854819D02*
X89885714Y-59854819D01*
X90361905Y-60854819D02*
X90361905Y-59854819D01*
X90361905Y-59854819D02*
X90600000Y-59854819D01*
X90600000Y-59854819D02*
X90742857Y-59902438D01*
X90742857Y-59902438D02*
X90838095Y-59997676D01*
X90838095Y-59997676D02*
X90885714Y-60092914D01*
X90885714Y-60092914D02*
X90933333Y-60283390D01*
X90933333Y-60283390D02*
X90933333Y-60426247D01*
X90933333Y-60426247D02*
X90885714Y-60616723D01*
X90885714Y-60616723D02*
X90838095Y-60711961D01*
X90838095Y-60711961D02*
X90742857Y-60807200D01*
X90742857Y-60807200D02*
X90600000Y-60854819D01*
X90600000Y-60854819D02*
X90361905Y-60854819D01*
X100580952Y-63654819D02*
X100009524Y-63654819D01*
X100295238Y-63654819D02*
X100295238Y-62654819D01*
X100295238Y-62654819D02*
X100200000Y-62797676D01*
X100200000Y-62797676D02*
X100104762Y-62892914D01*
X100104762Y-62892914D02*
X100009524Y-62940533D01*
X100961905Y-62750057D02*
X101009524Y-62702438D01*
X101009524Y-62702438D02*
X101104762Y-62654819D01*
X101104762Y-62654819D02*
X101342857Y-62654819D01*
X101342857Y-62654819D02*
X101438095Y-62702438D01*
X101438095Y-62702438D02*
X101485714Y-62750057D01*
X101485714Y-62750057D02*
X101533333Y-62845295D01*
X101533333Y-62845295D02*
X101533333Y-62940533D01*
X101533333Y-62940533D02*
X101485714Y-63083390D01*
X101485714Y-63083390D02*
X100914286Y-63654819D01*
X100914286Y-63654819D02*
X101533333Y-63654819D01*
X101819048Y-62654819D02*
X102152381Y-63654819D01*
X102152381Y-63654819D02*
X102485714Y-62654819D01*
X94233333Y-50454819D02*
X93900000Y-49978628D01*
X93661905Y-50454819D02*
X93661905Y-49454819D01*
X93661905Y-49454819D02*
X94042857Y-49454819D01*
X94042857Y-49454819D02*
X94138095Y-49502438D01*
X94138095Y-49502438D02*
X94185714Y-49550057D01*
X94185714Y-49550057D02*
X94233333Y-49645295D01*
X94233333Y-49645295D02*
X94233333Y-49788152D01*
X94233333Y-49788152D02*
X94185714Y-49883390D01*
X94185714Y-49883390D02*
X94138095Y-49931009D01*
X94138095Y-49931009D02*
X94042857Y-49978628D01*
X94042857Y-49978628D02*
X93661905Y-49978628D01*
X94566667Y-49454819D02*
X95233333Y-50454819D01*
X95233333Y-49454819D02*
X94566667Y-50454819D01*
X93638095Y-46854819D02*
X94209523Y-46854819D01*
X93923809Y-47854819D02*
X93923809Y-46854819D01*
X94447619Y-46854819D02*
X95114285Y-47854819D01*
X95114285Y-46854819D02*
X94447619Y-47854819D01*
D10*
X169512718Y-47263143D02*
X169512718Y-47729810D01*
X169346052Y-46996477D02*
X169179385Y-47496477D01*
X169179385Y-47496477D02*
X169612718Y-47496477D01*
X170779385Y-47063143D02*
X170712718Y-47029810D01*
X170712718Y-47029810D02*
X170612718Y-47029810D01*
X170612718Y-47029810D02*
X170512718Y-47063143D01*
X170512718Y-47063143D02*
X170446052Y-47129810D01*
X170446052Y-47129810D02*
X170412718Y-47196477D01*
X170412718Y-47196477D02*
X170379385Y-47329810D01*
X170379385Y-47329810D02*
X170379385Y-47429810D01*
X170379385Y-47429810D02*
X170412718Y-47563143D01*
X170412718Y-47563143D02*
X170446052Y-47629810D01*
X170446052Y-47629810D02*
X170512718Y-47696477D01*
X170512718Y-47696477D02*
X170612718Y-47729810D01*
X170612718Y-47729810D02*
X170679385Y-47729810D01*
X170679385Y-47729810D02*
X170779385Y-47696477D01*
X170779385Y-47696477D02*
X170812718Y-47663143D01*
X170812718Y-47663143D02*
X170812718Y-47429810D01*
X170812718Y-47429810D02*
X170679385Y-47429810D01*
X171112718Y-47729810D02*
X171112718Y-47029810D01*
X171112718Y-47029810D02*
X171512718Y-47729810D01*
X171512718Y-47729810D02*
X171512718Y-47029810D01*
X171846051Y-47729810D02*
X171846051Y-47029810D01*
X171846051Y-47029810D02*
X172012718Y-47029810D01*
X172012718Y-47029810D02*
X172112718Y-47063143D01*
X172112718Y-47063143D02*
X172179385Y-47129810D01*
X172179385Y-47129810D02*
X172212718Y-47196477D01*
X172212718Y-47196477D02*
X172246051Y-47329810D01*
X172246051Y-47329810D02*
X172246051Y-47429810D01*
X172246051Y-47429810D02*
X172212718Y-47563143D01*
X172212718Y-47563143D02*
X172179385Y-47629810D01*
X172179385Y-47629810D02*
X172112718Y-47696477D01*
X172112718Y-47696477D02*
X172012718Y-47729810D01*
X172012718Y-47729810D02*
X171846051Y-47729810D01*
X169146052Y-48156771D02*
X169579385Y-48156771D01*
X169579385Y-48156771D02*
X169346052Y-48423438D01*
X169346052Y-48423438D02*
X169446052Y-48423438D01*
X169446052Y-48423438D02*
X169512718Y-48456771D01*
X169512718Y-48456771D02*
X169546052Y-48490104D01*
X169546052Y-48490104D02*
X169579385Y-48556771D01*
X169579385Y-48556771D02*
X169579385Y-48723438D01*
X169579385Y-48723438D02*
X169546052Y-48790104D01*
X169546052Y-48790104D02*
X169512718Y-48823438D01*
X169512718Y-48823438D02*
X169446052Y-48856771D01*
X169446052Y-48856771D02*
X169246052Y-48856771D01*
X169246052Y-48856771D02*
X169179385Y-48823438D01*
X169179385Y-48823438D02*
X169146052Y-48790104D01*
X170379385Y-48656771D02*
X170712718Y-48656771D01*
X170312718Y-48856771D02*
X170546052Y-48156771D01*
X170546052Y-48156771D02*
X170779385Y-48856771D01*
X171012718Y-48390104D02*
X171012718Y-48856771D01*
X171012718Y-48456771D02*
X171046052Y-48423438D01*
X171046052Y-48423438D02*
X171112718Y-48390104D01*
X171112718Y-48390104D02*
X171212718Y-48390104D01*
X171212718Y-48390104D02*
X171279385Y-48423438D01*
X171279385Y-48423438D02*
X171312718Y-48490104D01*
X171312718Y-48490104D02*
X171312718Y-48856771D01*
X171746051Y-48856771D02*
X171679385Y-48823438D01*
X171679385Y-48823438D02*
X171646051Y-48790104D01*
X171646051Y-48790104D02*
X171612718Y-48723438D01*
X171612718Y-48723438D02*
X171612718Y-48523438D01*
X171612718Y-48523438D02*
X171646051Y-48456771D01*
X171646051Y-48456771D02*
X171679385Y-48423438D01*
X171679385Y-48423438D02*
X171746051Y-48390104D01*
X171746051Y-48390104D02*
X171846051Y-48390104D01*
X171846051Y-48390104D02*
X171912718Y-48423438D01*
X171912718Y-48423438D02*
X171946051Y-48456771D01*
X171946051Y-48456771D02*
X171979385Y-48523438D01*
X171979385Y-48523438D02*
X171979385Y-48723438D01*
X171979385Y-48723438D02*
X171946051Y-48790104D01*
X171946051Y-48790104D02*
X171912718Y-48823438D01*
X171912718Y-48823438D02*
X171846051Y-48856771D01*
X171846051Y-48856771D02*
X171746051Y-48856771D01*
X172579384Y-48856771D02*
X172579384Y-48156771D01*
X172579384Y-48823438D02*
X172512718Y-48856771D01*
X172512718Y-48856771D02*
X172379384Y-48856771D01*
X172379384Y-48856771D02*
X172312718Y-48823438D01*
X172312718Y-48823438D02*
X172279384Y-48790104D01*
X172279384Y-48790104D02*
X172246051Y-48723438D01*
X172246051Y-48723438D02*
X172246051Y-48523438D01*
X172246051Y-48523438D02*
X172279384Y-48456771D01*
X172279384Y-48456771D02*
X172312718Y-48423438D01*
X172312718Y-48423438D02*
X172379384Y-48390104D01*
X172379384Y-48390104D02*
X172512718Y-48390104D01*
X172512718Y-48390104D02*
X172579384Y-48423438D01*
X173179384Y-48823438D02*
X173112717Y-48856771D01*
X173112717Y-48856771D02*
X172979384Y-48856771D01*
X172979384Y-48856771D02*
X172912717Y-48823438D01*
X172912717Y-48823438D02*
X172879384Y-48756771D01*
X172879384Y-48756771D02*
X172879384Y-48490104D01*
X172879384Y-48490104D02*
X172912717Y-48423438D01*
X172912717Y-48423438D02*
X172979384Y-48390104D01*
X172979384Y-48390104D02*
X173112717Y-48390104D01*
X173112717Y-48390104D02*
X173179384Y-48423438D01*
X173179384Y-48423438D02*
X173212717Y-48490104D01*
X173212717Y-48490104D02*
X173212717Y-48556771D01*
X173212717Y-48556771D02*
X172879384Y-48623438D01*
X169179385Y-49350399D02*
X169212718Y-49317065D01*
X169212718Y-49317065D02*
X169279385Y-49283732D01*
X169279385Y-49283732D02*
X169446052Y-49283732D01*
X169446052Y-49283732D02*
X169512718Y-49317065D01*
X169512718Y-49317065D02*
X169546052Y-49350399D01*
X169546052Y-49350399D02*
X169579385Y-49417065D01*
X169579385Y-49417065D02*
X169579385Y-49483732D01*
X169579385Y-49483732D02*
X169546052Y-49583732D01*
X169546052Y-49583732D02*
X169146052Y-49983732D01*
X169146052Y-49983732D02*
X169579385Y-49983732D01*
X170779385Y-49317065D02*
X170712718Y-49283732D01*
X170712718Y-49283732D02*
X170612718Y-49283732D01*
X170612718Y-49283732D02*
X170512718Y-49317065D01*
X170512718Y-49317065D02*
X170446052Y-49383732D01*
X170446052Y-49383732D02*
X170412718Y-49450399D01*
X170412718Y-49450399D02*
X170379385Y-49583732D01*
X170379385Y-49583732D02*
X170379385Y-49683732D01*
X170379385Y-49683732D02*
X170412718Y-49817065D01*
X170412718Y-49817065D02*
X170446052Y-49883732D01*
X170446052Y-49883732D02*
X170512718Y-49950399D01*
X170512718Y-49950399D02*
X170612718Y-49983732D01*
X170612718Y-49983732D02*
X170679385Y-49983732D01*
X170679385Y-49983732D02*
X170779385Y-49950399D01*
X170779385Y-49950399D02*
X170812718Y-49917065D01*
X170812718Y-49917065D02*
X170812718Y-49683732D01*
X170812718Y-49683732D02*
X170679385Y-49683732D01*
X171112718Y-49983732D02*
X171112718Y-49283732D01*
X171112718Y-49283732D02*
X171512718Y-49983732D01*
X171512718Y-49983732D02*
X171512718Y-49283732D01*
X171846051Y-49983732D02*
X171846051Y-49283732D01*
X171846051Y-49283732D02*
X172012718Y-49283732D01*
X172012718Y-49283732D02*
X172112718Y-49317065D01*
X172112718Y-49317065D02*
X172179385Y-49383732D01*
X172179385Y-49383732D02*
X172212718Y-49450399D01*
X172212718Y-49450399D02*
X172246051Y-49583732D01*
X172246051Y-49583732D02*
X172246051Y-49683732D01*
X172246051Y-49683732D02*
X172212718Y-49817065D01*
X172212718Y-49817065D02*
X172179385Y-49883732D01*
X172179385Y-49883732D02*
X172112718Y-49950399D01*
X172112718Y-49950399D02*
X172012718Y-49983732D01*
X172012718Y-49983732D02*
X171846051Y-49983732D01*
X169579385Y-51110693D02*
X169179385Y-51110693D01*
X169379385Y-51110693D02*
X169379385Y-50410693D01*
X169379385Y-50410693D02*
X169312718Y-50510693D01*
X169312718Y-50510693D02*
X169246052Y-50577360D01*
X169246052Y-50577360D02*
X169179385Y-50610693D01*
X170379385Y-50910693D02*
X170712718Y-50910693D01*
X170312718Y-51110693D02*
X170546052Y-50410693D01*
X170546052Y-50410693D02*
X170779385Y-51110693D01*
X171012718Y-50644026D02*
X171012718Y-51110693D01*
X171012718Y-50710693D02*
X171046052Y-50677360D01*
X171046052Y-50677360D02*
X171112718Y-50644026D01*
X171112718Y-50644026D02*
X171212718Y-50644026D01*
X171212718Y-50644026D02*
X171279385Y-50677360D01*
X171279385Y-50677360D02*
X171312718Y-50744026D01*
X171312718Y-50744026D02*
X171312718Y-51110693D01*
X171746051Y-51110693D02*
X171679385Y-51077360D01*
X171679385Y-51077360D02*
X171646051Y-51044026D01*
X171646051Y-51044026D02*
X171612718Y-50977360D01*
X171612718Y-50977360D02*
X171612718Y-50777360D01*
X171612718Y-50777360D02*
X171646051Y-50710693D01*
X171646051Y-50710693D02*
X171679385Y-50677360D01*
X171679385Y-50677360D02*
X171746051Y-50644026D01*
X171746051Y-50644026D02*
X171846051Y-50644026D01*
X171846051Y-50644026D02*
X171912718Y-50677360D01*
X171912718Y-50677360D02*
X171946051Y-50710693D01*
X171946051Y-50710693D02*
X171979385Y-50777360D01*
X171979385Y-50777360D02*
X171979385Y-50977360D01*
X171979385Y-50977360D02*
X171946051Y-51044026D01*
X171946051Y-51044026D02*
X171912718Y-51077360D01*
X171912718Y-51077360D02*
X171846051Y-51110693D01*
X171846051Y-51110693D02*
X171746051Y-51110693D01*
X172579384Y-51110693D02*
X172579384Y-50410693D01*
X172579384Y-51077360D02*
X172512718Y-51110693D01*
X172512718Y-51110693D02*
X172379384Y-51110693D01*
X172379384Y-51110693D02*
X172312718Y-51077360D01*
X172312718Y-51077360D02*
X172279384Y-51044026D01*
X172279384Y-51044026D02*
X172246051Y-50977360D01*
X172246051Y-50977360D02*
X172246051Y-50777360D01*
X172246051Y-50777360D02*
X172279384Y-50710693D01*
X172279384Y-50710693D02*
X172312718Y-50677360D01*
X172312718Y-50677360D02*
X172379384Y-50644026D01*
X172379384Y-50644026D02*
X172512718Y-50644026D01*
X172512718Y-50644026D02*
X172579384Y-50677360D01*
X173179384Y-51077360D02*
X173112717Y-51110693D01*
X173112717Y-51110693D02*
X172979384Y-51110693D01*
X172979384Y-51110693D02*
X172912717Y-51077360D01*
X172912717Y-51077360D02*
X172879384Y-51010693D01*
X172879384Y-51010693D02*
X172879384Y-50744026D01*
X172879384Y-50744026D02*
X172912717Y-50677360D01*
X172912717Y-50677360D02*
X172979384Y-50644026D01*
X172979384Y-50644026D02*
X173112717Y-50644026D01*
X173112717Y-50644026D02*
X173179384Y-50677360D01*
X173179384Y-50677360D02*
X173212717Y-50744026D01*
X173212717Y-50744026D02*
X173212717Y-50810693D01*
X173212717Y-50810693D02*
X172879384Y-50877360D01*
X87179385Y-62675888D02*
X86779385Y-62675888D01*
X86979385Y-62675888D02*
X86979385Y-61975888D01*
X86979385Y-61975888D02*
X86912718Y-62075888D01*
X86912718Y-62075888D02*
X86846052Y-62142555D01*
X86846052Y-62142555D02*
X86779385Y-62175888D01*
X87946052Y-61975888D02*
X88379385Y-61975888D01*
X88379385Y-61975888D02*
X88146052Y-62242555D01*
X88146052Y-62242555D02*
X88246052Y-62242555D01*
X88246052Y-62242555D02*
X88312718Y-62275888D01*
X88312718Y-62275888D02*
X88346052Y-62309221D01*
X88346052Y-62309221D02*
X88379385Y-62375888D01*
X88379385Y-62375888D02*
X88379385Y-62542555D01*
X88379385Y-62542555D02*
X88346052Y-62609221D01*
X88346052Y-62609221D02*
X88312718Y-62642555D01*
X88312718Y-62642555D02*
X88246052Y-62675888D01*
X88246052Y-62675888D02*
X88046052Y-62675888D01*
X88046052Y-62675888D02*
X87979385Y-62642555D01*
X87979385Y-62642555D02*
X87946052Y-62609221D01*
X88679385Y-62609221D02*
X88712719Y-62642555D01*
X88712719Y-62642555D02*
X88679385Y-62675888D01*
X88679385Y-62675888D02*
X88646052Y-62642555D01*
X88646052Y-62642555D02*
X88679385Y-62609221D01*
X88679385Y-62609221D02*
X88679385Y-62675888D01*
X88946052Y-61975888D02*
X89379385Y-61975888D01*
X89379385Y-61975888D02*
X89146052Y-62242555D01*
X89146052Y-62242555D02*
X89246052Y-62242555D01*
X89246052Y-62242555D02*
X89312718Y-62275888D01*
X89312718Y-62275888D02*
X89346052Y-62309221D01*
X89346052Y-62309221D02*
X89379385Y-62375888D01*
X89379385Y-62375888D02*
X89379385Y-62542555D01*
X89379385Y-62542555D02*
X89346052Y-62609221D01*
X89346052Y-62609221D02*
X89312718Y-62642555D01*
X89312718Y-62642555D02*
X89246052Y-62675888D01*
X89246052Y-62675888D02*
X89046052Y-62675888D01*
X89046052Y-62675888D02*
X88979385Y-62642555D01*
X88979385Y-62642555D02*
X88946052Y-62609221D01*
X89579385Y-61975888D02*
X89812719Y-62675888D01*
X89812719Y-62675888D02*
X90046052Y-61975888D01*
X86779385Y-63169516D02*
X86812718Y-63136182D01*
X86812718Y-63136182D02*
X86879385Y-63102849D01*
X86879385Y-63102849D02*
X87046052Y-63102849D01*
X87046052Y-63102849D02*
X87112718Y-63136182D01*
X87112718Y-63136182D02*
X87146052Y-63169516D01*
X87146052Y-63169516D02*
X87179385Y-63236182D01*
X87179385Y-63236182D02*
X87179385Y-63302849D01*
X87179385Y-63302849D02*
X87146052Y-63402849D01*
X87146052Y-63402849D02*
X86746052Y-63802849D01*
X86746052Y-63802849D02*
X87179385Y-63802849D01*
X87912718Y-63102849D02*
X88146052Y-63802849D01*
X88146052Y-63802849D02*
X88379385Y-63102849D01*
X88612718Y-63802849D02*
X88612718Y-63102849D01*
X88946051Y-63802849D02*
X88946051Y-63102849D01*
X88946051Y-63102849D02*
X89346051Y-63802849D01*
X89346051Y-63802849D02*
X89346051Y-63102849D01*
X86746052Y-64229810D02*
X87179385Y-64229810D01*
X87179385Y-64229810D02*
X86946052Y-64496477D01*
X86946052Y-64496477D02*
X87046052Y-64496477D01*
X87046052Y-64496477D02*
X87112718Y-64529810D01*
X87112718Y-64529810D02*
X87146052Y-64563143D01*
X87146052Y-64563143D02*
X87179385Y-64629810D01*
X87179385Y-64629810D02*
X87179385Y-64796477D01*
X87179385Y-64796477D02*
X87146052Y-64863143D01*
X87146052Y-64863143D02*
X87112718Y-64896477D01*
X87112718Y-64896477D02*
X87046052Y-64929810D01*
X87046052Y-64929810D02*
X86846052Y-64929810D01*
X86846052Y-64929810D02*
X86779385Y-64896477D01*
X86779385Y-64896477D02*
X86746052Y-64863143D01*
X88412718Y-64929810D02*
X88179385Y-64596477D01*
X88012718Y-64929810D02*
X88012718Y-64229810D01*
X88012718Y-64229810D02*
X88279385Y-64229810D01*
X88279385Y-64229810D02*
X88346052Y-64263143D01*
X88346052Y-64263143D02*
X88379385Y-64296477D01*
X88379385Y-64296477D02*
X88412718Y-64363143D01*
X88412718Y-64363143D02*
X88412718Y-64463143D01*
X88412718Y-64463143D02*
X88379385Y-64529810D01*
X88379385Y-64529810D02*
X88346052Y-64563143D01*
X88346052Y-64563143D02*
X88279385Y-64596477D01*
X88279385Y-64596477D02*
X88012718Y-64596477D01*
X88679385Y-64896477D02*
X88779385Y-64929810D01*
X88779385Y-64929810D02*
X88946052Y-64929810D01*
X88946052Y-64929810D02*
X89012718Y-64896477D01*
X89012718Y-64896477D02*
X89046052Y-64863143D01*
X89046052Y-64863143D02*
X89079385Y-64796477D01*
X89079385Y-64796477D02*
X89079385Y-64729810D01*
X89079385Y-64729810D02*
X89046052Y-64663143D01*
X89046052Y-64663143D02*
X89012718Y-64629810D01*
X89012718Y-64629810D02*
X88946052Y-64596477D01*
X88946052Y-64596477D02*
X88812718Y-64563143D01*
X88812718Y-64563143D02*
X88746052Y-64529810D01*
X88746052Y-64529810D02*
X88712718Y-64496477D01*
X88712718Y-64496477D02*
X88679385Y-64429810D01*
X88679385Y-64429810D02*
X88679385Y-64363143D01*
X88679385Y-64363143D02*
X88712718Y-64296477D01*
X88712718Y-64296477D02*
X88746052Y-64263143D01*
X88746052Y-64263143D02*
X88812718Y-64229810D01*
X88812718Y-64229810D02*
X88979385Y-64229810D01*
X88979385Y-64229810D02*
X89079385Y-64263143D01*
X89279385Y-64229810D02*
X89679385Y-64229810D01*
X89479385Y-64929810D02*
X89479385Y-64229810D01*
X87112718Y-65590104D02*
X87112718Y-66056771D01*
X86946052Y-65323438D02*
X86779385Y-65823438D01*
X86779385Y-65823438D02*
X87212718Y-65823438D01*
X88412718Y-66056771D02*
X88179385Y-65723438D01*
X88012718Y-66056771D02*
X88012718Y-65356771D01*
X88012718Y-65356771D02*
X88279385Y-65356771D01*
X88279385Y-65356771D02*
X88346052Y-65390104D01*
X88346052Y-65390104D02*
X88379385Y-65423438D01*
X88379385Y-65423438D02*
X88412718Y-65490104D01*
X88412718Y-65490104D02*
X88412718Y-65590104D01*
X88412718Y-65590104D02*
X88379385Y-65656771D01*
X88379385Y-65656771D02*
X88346052Y-65690104D01*
X88346052Y-65690104D02*
X88279385Y-65723438D01*
X88279385Y-65723438D02*
X88012718Y-65723438D01*
X88646052Y-65356771D02*
X89112718Y-66056771D01*
X89112718Y-65356771D02*
X88646052Y-66056771D01*
X87146052Y-66483732D02*
X86812718Y-66483732D01*
X86812718Y-66483732D02*
X86779385Y-66817065D01*
X86779385Y-66817065D02*
X86812718Y-66783732D01*
X86812718Y-66783732D02*
X86879385Y-66750399D01*
X86879385Y-66750399D02*
X87046052Y-66750399D01*
X87046052Y-66750399D02*
X87112718Y-66783732D01*
X87112718Y-66783732D02*
X87146052Y-66817065D01*
X87146052Y-66817065D02*
X87179385Y-66883732D01*
X87179385Y-66883732D02*
X87179385Y-67050399D01*
X87179385Y-67050399D02*
X87146052Y-67117065D01*
X87146052Y-67117065D02*
X87112718Y-67150399D01*
X87112718Y-67150399D02*
X87046052Y-67183732D01*
X87046052Y-67183732D02*
X86879385Y-67183732D01*
X86879385Y-67183732D02*
X86812718Y-67150399D01*
X86812718Y-67150399D02*
X86779385Y-67117065D01*
X87912718Y-66483732D02*
X88312718Y-66483732D01*
X88112718Y-67183732D02*
X88112718Y-66483732D01*
X88479385Y-66483732D02*
X88946051Y-67183732D01*
X88946051Y-66483732D02*
X88479385Y-67183732D01*
X87112718Y-67610693D02*
X86979385Y-67610693D01*
X86979385Y-67610693D02*
X86912718Y-67644026D01*
X86912718Y-67644026D02*
X86879385Y-67677360D01*
X86879385Y-67677360D02*
X86812718Y-67777360D01*
X86812718Y-67777360D02*
X86779385Y-67910693D01*
X86779385Y-67910693D02*
X86779385Y-68177360D01*
X86779385Y-68177360D02*
X86812718Y-68244026D01*
X86812718Y-68244026D02*
X86846052Y-68277360D01*
X86846052Y-68277360D02*
X86912718Y-68310693D01*
X86912718Y-68310693D02*
X87046052Y-68310693D01*
X87046052Y-68310693D02*
X87112718Y-68277360D01*
X87112718Y-68277360D02*
X87146052Y-68244026D01*
X87146052Y-68244026D02*
X87179385Y-68177360D01*
X87179385Y-68177360D02*
X87179385Y-68010693D01*
X87179385Y-68010693D02*
X87146052Y-67944026D01*
X87146052Y-67944026D02*
X87112718Y-67910693D01*
X87112718Y-67910693D02*
X87046052Y-67877360D01*
X87046052Y-67877360D02*
X86912718Y-67877360D01*
X86912718Y-67877360D02*
X86846052Y-67910693D01*
X86846052Y-67910693D02*
X86812718Y-67944026D01*
X86812718Y-67944026D02*
X86779385Y-68010693D01*
X88379385Y-67644026D02*
X88312718Y-67610693D01*
X88312718Y-67610693D02*
X88212718Y-67610693D01*
X88212718Y-67610693D02*
X88112718Y-67644026D01*
X88112718Y-67644026D02*
X88046052Y-67710693D01*
X88046052Y-67710693D02*
X88012718Y-67777360D01*
X88012718Y-67777360D02*
X87979385Y-67910693D01*
X87979385Y-67910693D02*
X87979385Y-68010693D01*
X87979385Y-68010693D02*
X88012718Y-68144026D01*
X88012718Y-68144026D02*
X88046052Y-68210693D01*
X88046052Y-68210693D02*
X88112718Y-68277360D01*
X88112718Y-68277360D02*
X88212718Y-68310693D01*
X88212718Y-68310693D02*
X88279385Y-68310693D01*
X88279385Y-68310693D02*
X88379385Y-68277360D01*
X88379385Y-68277360D02*
X88412718Y-68244026D01*
X88412718Y-68244026D02*
X88412718Y-68010693D01*
X88412718Y-68010693D02*
X88279385Y-68010693D01*
X88712718Y-68310693D02*
X88712718Y-67610693D01*
X88712718Y-67610693D02*
X89112718Y-68310693D01*
X89112718Y-68310693D02*
X89112718Y-67610693D01*
X89446051Y-68310693D02*
X89446051Y-67610693D01*
X89446051Y-67610693D02*
X89612718Y-67610693D01*
X89612718Y-67610693D02*
X89712718Y-67644026D01*
X89712718Y-67644026D02*
X89779385Y-67710693D01*
X89779385Y-67710693D02*
X89812718Y-67777360D01*
X89812718Y-67777360D02*
X89846051Y-67910693D01*
X89846051Y-67910693D02*
X89846051Y-68010693D01*
X89846051Y-68010693D02*
X89812718Y-68144026D01*
X89812718Y-68144026D02*
X89779385Y-68210693D01*
X89779385Y-68210693D02*
X89712718Y-68277360D01*
X89712718Y-68277360D02*
X89612718Y-68310693D01*
X89612718Y-68310693D02*
X89446051Y-68310693D01*
X168779385Y-33183732D02*
X168379385Y-33183732D01*
X168579385Y-33183732D02*
X168579385Y-32483732D01*
X168579385Y-32483732D02*
X168512718Y-32583732D01*
X168512718Y-32583732D02*
X168446052Y-32650399D01*
X168446052Y-32650399D02*
X168379385Y-32683732D01*
X169112719Y-33150399D02*
X169112719Y-33183732D01*
X169112719Y-33183732D02*
X169079385Y-33250399D01*
X169079385Y-33250399D02*
X169046052Y-33283732D01*
X169379385Y-32550399D02*
X169412718Y-32517065D01*
X169412718Y-32517065D02*
X169479385Y-32483732D01*
X169479385Y-32483732D02*
X169646052Y-32483732D01*
X169646052Y-32483732D02*
X169712718Y-32517065D01*
X169712718Y-32517065D02*
X169746052Y-32550399D01*
X169746052Y-32550399D02*
X169779385Y-32617065D01*
X169779385Y-32617065D02*
X169779385Y-32683732D01*
X169779385Y-32683732D02*
X169746052Y-32783732D01*
X169746052Y-32783732D02*
X169346052Y-33183732D01*
X169346052Y-33183732D02*
X169779385Y-33183732D01*
X170579385Y-32983732D02*
X170912718Y-32983732D01*
X170512718Y-33183732D02*
X170746052Y-32483732D01*
X170746052Y-32483732D02*
X170979385Y-33183732D01*
X171212718Y-32717065D02*
X171212718Y-33183732D01*
X171212718Y-32783732D02*
X171246052Y-32750399D01*
X171246052Y-32750399D02*
X171312718Y-32717065D01*
X171312718Y-32717065D02*
X171412718Y-32717065D01*
X171412718Y-32717065D02*
X171479385Y-32750399D01*
X171479385Y-32750399D02*
X171512718Y-32817065D01*
X171512718Y-32817065D02*
X171512718Y-33183732D01*
X171946051Y-33183732D02*
X171879385Y-33150399D01*
X171879385Y-33150399D02*
X171846051Y-33117065D01*
X171846051Y-33117065D02*
X171812718Y-33050399D01*
X171812718Y-33050399D02*
X171812718Y-32850399D01*
X171812718Y-32850399D02*
X171846051Y-32783732D01*
X171846051Y-32783732D02*
X171879385Y-32750399D01*
X171879385Y-32750399D02*
X171946051Y-32717065D01*
X171946051Y-32717065D02*
X172046051Y-32717065D01*
X172046051Y-32717065D02*
X172112718Y-32750399D01*
X172112718Y-32750399D02*
X172146051Y-32783732D01*
X172146051Y-32783732D02*
X172179385Y-32850399D01*
X172179385Y-32850399D02*
X172179385Y-33050399D01*
X172179385Y-33050399D02*
X172146051Y-33117065D01*
X172146051Y-33117065D02*
X172112718Y-33150399D01*
X172112718Y-33150399D02*
X172046051Y-33183732D01*
X172046051Y-33183732D02*
X171946051Y-33183732D01*
X172779384Y-33183732D02*
X172779384Y-32483732D01*
X172779384Y-33150399D02*
X172712718Y-33183732D01*
X172712718Y-33183732D02*
X172579384Y-33183732D01*
X172579384Y-33183732D02*
X172512718Y-33150399D01*
X172512718Y-33150399D02*
X172479384Y-33117065D01*
X172479384Y-33117065D02*
X172446051Y-33050399D01*
X172446051Y-33050399D02*
X172446051Y-32850399D01*
X172446051Y-32850399D02*
X172479384Y-32783732D01*
X172479384Y-32783732D02*
X172512718Y-32750399D01*
X172512718Y-32750399D02*
X172579384Y-32717065D01*
X172579384Y-32717065D02*
X172712718Y-32717065D01*
X172712718Y-32717065D02*
X172779384Y-32750399D01*
X173379384Y-33150399D02*
X173312717Y-33183732D01*
X173312717Y-33183732D02*
X173179384Y-33183732D01*
X173179384Y-33183732D02*
X173112717Y-33150399D01*
X173112717Y-33150399D02*
X173079384Y-33083732D01*
X173079384Y-33083732D02*
X173079384Y-32817065D01*
X173079384Y-32817065D02*
X173112717Y-32750399D01*
X173112717Y-32750399D02*
X173179384Y-32717065D01*
X173179384Y-32717065D02*
X173312717Y-32717065D01*
X173312717Y-32717065D02*
X173379384Y-32750399D01*
X173379384Y-32750399D02*
X173412717Y-32817065D01*
X173412717Y-32817065D02*
X173412717Y-32883732D01*
X173412717Y-32883732D02*
X173079384Y-32950399D01*
X173679384Y-33150399D02*
X173746051Y-33183732D01*
X173746051Y-33183732D02*
X173879384Y-33183732D01*
X173879384Y-33183732D02*
X173946051Y-33150399D01*
X173946051Y-33150399D02*
X173979384Y-33083732D01*
X173979384Y-33083732D02*
X173979384Y-33050399D01*
X173979384Y-33050399D02*
X173946051Y-32983732D01*
X173946051Y-32983732D02*
X173879384Y-32950399D01*
X173879384Y-32950399D02*
X173779384Y-32950399D01*
X173779384Y-32950399D02*
X173712717Y-32917065D01*
X173712717Y-32917065D02*
X173679384Y-32850399D01*
X173679384Y-32850399D02*
X173679384Y-32817065D01*
X173679384Y-32817065D02*
X173712717Y-32750399D01*
X173712717Y-32750399D02*
X173779384Y-32717065D01*
X173779384Y-32717065D02*
X173879384Y-32717065D01*
X173879384Y-32717065D02*
X173946051Y-32750399D01*
X168346052Y-33610693D02*
X168779385Y-33610693D01*
X168779385Y-33610693D02*
X168546052Y-33877360D01*
X168546052Y-33877360D02*
X168646052Y-33877360D01*
X168646052Y-33877360D02*
X168712718Y-33910693D01*
X168712718Y-33910693D02*
X168746052Y-33944026D01*
X168746052Y-33944026D02*
X168779385Y-34010693D01*
X168779385Y-34010693D02*
X168779385Y-34177360D01*
X168779385Y-34177360D02*
X168746052Y-34244026D01*
X168746052Y-34244026D02*
X168712718Y-34277360D01*
X168712718Y-34277360D02*
X168646052Y-34310693D01*
X168646052Y-34310693D02*
X168446052Y-34310693D01*
X168446052Y-34310693D02*
X168379385Y-34277360D01*
X168379385Y-34277360D02*
X168346052Y-34244026D01*
X169079385Y-34044026D02*
X169612719Y-34044026D01*
X169979386Y-34310693D02*
X170112719Y-34310693D01*
X170112719Y-34310693D02*
X170179386Y-34277360D01*
X170179386Y-34277360D02*
X170212719Y-34244026D01*
X170212719Y-34244026D02*
X170279386Y-34144026D01*
X170279386Y-34144026D02*
X170312719Y-34010693D01*
X170312719Y-34010693D02*
X170312719Y-33744026D01*
X170312719Y-33744026D02*
X170279386Y-33677360D01*
X170279386Y-33677360D02*
X170246052Y-33644026D01*
X170246052Y-33644026D02*
X170179386Y-33610693D01*
X170179386Y-33610693D02*
X170046052Y-33610693D01*
X170046052Y-33610693D02*
X169979386Y-33644026D01*
X169979386Y-33644026D02*
X169946052Y-33677360D01*
X169946052Y-33677360D02*
X169912719Y-33744026D01*
X169912719Y-33744026D02*
X169912719Y-33910693D01*
X169912719Y-33910693D02*
X169946052Y-33977360D01*
X169946052Y-33977360D02*
X169979386Y-34010693D01*
X169979386Y-34010693D02*
X170046052Y-34044026D01*
X170046052Y-34044026D02*
X170179386Y-34044026D01*
X170179386Y-34044026D02*
X170246052Y-34010693D01*
X170246052Y-34010693D02*
X170279386Y-33977360D01*
X170279386Y-33977360D02*
X170312719Y-33910693D01*
X171546052Y-34244026D02*
X171512719Y-34277360D01*
X171512719Y-34277360D02*
X171412719Y-34310693D01*
X171412719Y-34310693D02*
X171346052Y-34310693D01*
X171346052Y-34310693D02*
X171246052Y-34277360D01*
X171246052Y-34277360D02*
X171179386Y-34210693D01*
X171179386Y-34210693D02*
X171146052Y-34144026D01*
X171146052Y-34144026D02*
X171112719Y-34010693D01*
X171112719Y-34010693D02*
X171112719Y-33910693D01*
X171112719Y-33910693D02*
X171146052Y-33777360D01*
X171146052Y-33777360D02*
X171179386Y-33710693D01*
X171179386Y-33710693D02*
X171246052Y-33644026D01*
X171246052Y-33644026D02*
X171346052Y-33610693D01*
X171346052Y-33610693D02*
X171412719Y-33610693D01*
X171412719Y-33610693D02*
X171512719Y-33644026D01*
X171512719Y-33644026D02*
X171546052Y-33677360D01*
X172146052Y-34310693D02*
X172146052Y-33944026D01*
X172146052Y-33944026D02*
X172112719Y-33877360D01*
X172112719Y-33877360D02*
X172046052Y-33844026D01*
X172046052Y-33844026D02*
X171912719Y-33844026D01*
X171912719Y-33844026D02*
X171846052Y-33877360D01*
X172146052Y-34277360D02*
X172079386Y-34310693D01*
X172079386Y-34310693D02*
X171912719Y-34310693D01*
X171912719Y-34310693D02*
X171846052Y-34277360D01*
X171846052Y-34277360D02*
X171812719Y-34210693D01*
X171812719Y-34210693D02*
X171812719Y-34144026D01*
X171812719Y-34144026D02*
X171846052Y-34077360D01*
X171846052Y-34077360D02*
X171912719Y-34044026D01*
X171912719Y-34044026D02*
X172079386Y-34044026D01*
X172079386Y-34044026D02*
X172146052Y-34010693D01*
X172379385Y-33844026D02*
X172646052Y-33844026D01*
X172479385Y-33610693D02*
X172479385Y-34210693D01*
X172479385Y-34210693D02*
X172512719Y-34277360D01*
X172512719Y-34277360D02*
X172579385Y-34310693D01*
X172579385Y-34310693D02*
X172646052Y-34310693D01*
X172879385Y-34310693D02*
X172879385Y-33610693D01*
X173179385Y-34310693D02*
X173179385Y-33944026D01*
X173179385Y-33944026D02*
X173146052Y-33877360D01*
X173146052Y-33877360D02*
X173079385Y-33844026D01*
X173079385Y-33844026D02*
X172979385Y-33844026D01*
X172979385Y-33844026D02*
X172912719Y-33877360D01*
X172912719Y-33877360D02*
X172879385Y-33910693D01*
X173612718Y-34310693D02*
X173546052Y-34277360D01*
X173546052Y-34277360D02*
X173512718Y-34244026D01*
X173512718Y-34244026D02*
X173479385Y-34177360D01*
X173479385Y-34177360D02*
X173479385Y-33977360D01*
X173479385Y-33977360D02*
X173512718Y-33910693D01*
X173512718Y-33910693D02*
X173546052Y-33877360D01*
X173546052Y-33877360D02*
X173612718Y-33844026D01*
X173612718Y-33844026D02*
X173712718Y-33844026D01*
X173712718Y-33844026D02*
X173779385Y-33877360D01*
X173779385Y-33877360D02*
X173812718Y-33910693D01*
X173812718Y-33910693D02*
X173846052Y-33977360D01*
X173846052Y-33977360D02*
X173846052Y-34177360D01*
X173846052Y-34177360D02*
X173812718Y-34244026D01*
X173812718Y-34244026D02*
X173779385Y-34277360D01*
X173779385Y-34277360D02*
X173712718Y-34310693D01*
X173712718Y-34310693D02*
X173612718Y-34310693D01*
X174446051Y-34310693D02*
X174446051Y-33610693D01*
X174446051Y-34277360D02*
X174379385Y-34310693D01*
X174379385Y-34310693D02*
X174246051Y-34310693D01*
X174246051Y-34310693D02*
X174179385Y-34277360D01*
X174179385Y-34277360D02*
X174146051Y-34244026D01*
X174146051Y-34244026D02*
X174112718Y-34177360D01*
X174112718Y-34177360D02*
X174112718Y-33977360D01*
X174112718Y-33977360D02*
X174146051Y-33910693D01*
X174146051Y-33910693D02*
X174179385Y-33877360D01*
X174179385Y-33877360D02*
X174246051Y-33844026D01*
X174246051Y-33844026D02*
X174379385Y-33844026D01*
X174379385Y-33844026D02*
X174446051Y-33877360D01*
X175046051Y-34277360D02*
X174979384Y-34310693D01*
X174979384Y-34310693D02*
X174846051Y-34310693D01*
X174846051Y-34310693D02*
X174779384Y-34277360D01*
X174779384Y-34277360D02*
X174746051Y-34210693D01*
X174746051Y-34210693D02*
X174746051Y-33944026D01*
X174746051Y-33944026D02*
X174779384Y-33877360D01*
X174779384Y-33877360D02*
X174846051Y-33844026D01*
X174846051Y-33844026D02*
X174979384Y-33844026D01*
X174979384Y-33844026D02*
X175046051Y-33877360D01*
X175046051Y-33877360D02*
X175079384Y-33944026D01*
X175079384Y-33944026D02*
X175079384Y-34010693D01*
X175079384Y-34010693D02*
X174746051Y-34077360D01*
X175346051Y-34277360D02*
X175412718Y-34310693D01*
X175412718Y-34310693D02*
X175546051Y-34310693D01*
X175546051Y-34310693D02*
X175612718Y-34277360D01*
X175612718Y-34277360D02*
X175646051Y-34210693D01*
X175646051Y-34210693D02*
X175646051Y-34177360D01*
X175646051Y-34177360D02*
X175612718Y-34110693D01*
X175612718Y-34110693D02*
X175546051Y-34077360D01*
X175546051Y-34077360D02*
X175446051Y-34077360D01*
X175446051Y-34077360D02*
X175379384Y-34044026D01*
X175379384Y-34044026D02*
X175346051Y-33977360D01*
X175346051Y-33977360D02*
X175346051Y-33944026D01*
X175346051Y-33944026D02*
X175379384Y-33877360D01*
X175379384Y-33877360D02*
X175446051Y-33844026D01*
X175446051Y-33844026D02*
X175546051Y-33844026D01*
X175546051Y-33844026D02*
X175612718Y-33877360D01*
X102512718Y-25663143D02*
X102512718Y-26129810D01*
X102346052Y-25396477D02*
X102179385Y-25896477D01*
X102179385Y-25896477D02*
X102612718Y-25896477D01*
X103779385Y-25463143D02*
X103712718Y-25429810D01*
X103712718Y-25429810D02*
X103612718Y-25429810D01*
X103612718Y-25429810D02*
X103512718Y-25463143D01*
X103512718Y-25463143D02*
X103446052Y-25529810D01*
X103446052Y-25529810D02*
X103412718Y-25596477D01*
X103412718Y-25596477D02*
X103379385Y-25729810D01*
X103379385Y-25729810D02*
X103379385Y-25829810D01*
X103379385Y-25829810D02*
X103412718Y-25963143D01*
X103412718Y-25963143D02*
X103446052Y-26029810D01*
X103446052Y-26029810D02*
X103512718Y-26096477D01*
X103512718Y-26096477D02*
X103612718Y-26129810D01*
X103612718Y-26129810D02*
X103679385Y-26129810D01*
X103679385Y-26129810D02*
X103779385Y-26096477D01*
X103779385Y-26096477D02*
X103812718Y-26063143D01*
X103812718Y-26063143D02*
X103812718Y-25829810D01*
X103812718Y-25829810D02*
X103679385Y-25829810D01*
X104112718Y-26129810D02*
X104112718Y-25429810D01*
X104112718Y-25429810D02*
X104512718Y-26129810D01*
X104512718Y-26129810D02*
X104512718Y-25429810D01*
X104846051Y-26129810D02*
X104846051Y-25429810D01*
X104846051Y-25429810D02*
X105012718Y-25429810D01*
X105012718Y-25429810D02*
X105112718Y-25463143D01*
X105112718Y-25463143D02*
X105179385Y-25529810D01*
X105179385Y-25529810D02*
X105212718Y-25596477D01*
X105212718Y-25596477D02*
X105246051Y-25729810D01*
X105246051Y-25729810D02*
X105246051Y-25829810D01*
X105246051Y-25829810D02*
X105212718Y-25963143D01*
X105212718Y-25963143D02*
X105179385Y-26029810D01*
X105179385Y-26029810D02*
X105112718Y-26096477D01*
X105112718Y-26096477D02*
X105012718Y-26129810D01*
X105012718Y-26129810D02*
X104846051Y-26129810D01*
X102146052Y-26556771D02*
X102579385Y-26556771D01*
X102579385Y-26556771D02*
X102346052Y-26823438D01*
X102346052Y-26823438D02*
X102446052Y-26823438D01*
X102446052Y-26823438D02*
X102512718Y-26856771D01*
X102512718Y-26856771D02*
X102546052Y-26890104D01*
X102546052Y-26890104D02*
X102579385Y-26956771D01*
X102579385Y-26956771D02*
X102579385Y-27123438D01*
X102579385Y-27123438D02*
X102546052Y-27190104D01*
X102546052Y-27190104D02*
X102512718Y-27223438D01*
X102512718Y-27223438D02*
X102446052Y-27256771D01*
X102446052Y-27256771D02*
X102246052Y-27256771D01*
X102246052Y-27256771D02*
X102179385Y-27223438D01*
X102179385Y-27223438D02*
X102146052Y-27190104D01*
X103379385Y-27056771D02*
X103712718Y-27056771D01*
X103312718Y-27256771D02*
X103546052Y-26556771D01*
X103546052Y-26556771D02*
X103779385Y-27256771D01*
X104379385Y-27256771D02*
X103979385Y-27256771D01*
X104179385Y-27256771D02*
X104179385Y-26556771D01*
X104179385Y-26556771D02*
X104112718Y-26656771D01*
X104112718Y-26656771D02*
X104046052Y-26723438D01*
X104046052Y-26723438D02*
X103979385Y-26756771D01*
X102179385Y-27750399D02*
X102212718Y-27717065D01*
X102212718Y-27717065D02*
X102279385Y-27683732D01*
X102279385Y-27683732D02*
X102446052Y-27683732D01*
X102446052Y-27683732D02*
X102512718Y-27717065D01*
X102512718Y-27717065D02*
X102546052Y-27750399D01*
X102546052Y-27750399D02*
X102579385Y-27817065D01*
X102579385Y-27817065D02*
X102579385Y-27883732D01*
X102579385Y-27883732D02*
X102546052Y-27983732D01*
X102546052Y-27983732D02*
X102146052Y-28383732D01*
X102146052Y-28383732D02*
X102579385Y-28383732D01*
X103779385Y-27717065D02*
X103712718Y-27683732D01*
X103712718Y-27683732D02*
X103612718Y-27683732D01*
X103612718Y-27683732D02*
X103512718Y-27717065D01*
X103512718Y-27717065D02*
X103446052Y-27783732D01*
X103446052Y-27783732D02*
X103412718Y-27850399D01*
X103412718Y-27850399D02*
X103379385Y-27983732D01*
X103379385Y-27983732D02*
X103379385Y-28083732D01*
X103379385Y-28083732D02*
X103412718Y-28217065D01*
X103412718Y-28217065D02*
X103446052Y-28283732D01*
X103446052Y-28283732D02*
X103512718Y-28350399D01*
X103512718Y-28350399D02*
X103612718Y-28383732D01*
X103612718Y-28383732D02*
X103679385Y-28383732D01*
X103679385Y-28383732D02*
X103779385Y-28350399D01*
X103779385Y-28350399D02*
X103812718Y-28317065D01*
X103812718Y-28317065D02*
X103812718Y-28083732D01*
X103812718Y-28083732D02*
X103679385Y-28083732D01*
X104112718Y-28383732D02*
X104112718Y-27683732D01*
X104112718Y-27683732D02*
X104512718Y-28383732D01*
X104512718Y-28383732D02*
X104512718Y-27683732D01*
X104846051Y-28383732D02*
X104846051Y-27683732D01*
X104846051Y-27683732D02*
X105012718Y-27683732D01*
X105012718Y-27683732D02*
X105112718Y-27717065D01*
X105112718Y-27717065D02*
X105179385Y-27783732D01*
X105179385Y-27783732D02*
X105212718Y-27850399D01*
X105212718Y-27850399D02*
X105246051Y-27983732D01*
X105246051Y-27983732D02*
X105246051Y-28083732D01*
X105246051Y-28083732D02*
X105212718Y-28217065D01*
X105212718Y-28217065D02*
X105179385Y-28283732D01*
X105179385Y-28283732D02*
X105112718Y-28350399D01*
X105112718Y-28350399D02*
X105012718Y-28383732D01*
X105012718Y-28383732D02*
X104846051Y-28383732D01*
X102579385Y-29510693D02*
X102179385Y-29510693D01*
X102379385Y-29510693D02*
X102379385Y-28810693D01*
X102379385Y-28810693D02*
X102312718Y-28910693D01*
X102312718Y-28910693D02*
X102246052Y-28977360D01*
X102246052Y-28977360D02*
X102179385Y-29010693D01*
X103379385Y-29310693D02*
X103712718Y-29310693D01*
X103312718Y-29510693D02*
X103546052Y-28810693D01*
X103546052Y-28810693D02*
X103779385Y-29510693D01*
X104146052Y-28810693D02*
X104212718Y-28810693D01*
X104212718Y-28810693D02*
X104279385Y-28844026D01*
X104279385Y-28844026D02*
X104312718Y-28877360D01*
X104312718Y-28877360D02*
X104346052Y-28944026D01*
X104346052Y-28944026D02*
X104379385Y-29077360D01*
X104379385Y-29077360D02*
X104379385Y-29244026D01*
X104379385Y-29244026D02*
X104346052Y-29377360D01*
X104346052Y-29377360D02*
X104312718Y-29444026D01*
X104312718Y-29444026D02*
X104279385Y-29477360D01*
X104279385Y-29477360D02*
X104212718Y-29510693D01*
X104212718Y-29510693D02*
X104146052Y-29510693D01*
X104146052Y-29510693D02*
X104079385Y-29477360D01*
X104079385Y-29477360D02*
X104046052Y-29444026D01*
X104046052Y-29444026D02*
X104012718Y-29377360D01*
X104012718Y-29377360D02*
X103979385Y-29244026D01*
X103979385Y-29244026D02*
X103979385Y-29077360D01*
X103979385Y-29077360D02*
X104012718Y-28944026D01*
X104012718Y-28944026D02*
X104046052Y-28877360D01*
X104046052Y-28877360D02*
X104079385Y-28844026D01*
X104079385Y-28844026D02*
X104146052Y-28810693D01*
D12*
X122304761Y-54950057D02*
X122209523Y-54902438D01*
X122209523Y-54902438D02*
X122114285Y-54807200D01*
X122114285Y-54807200D02*
X121971428Y-54664342D01*
X121971428Y-54664342D02*
X121876190Y-54616723D01*
X121876190Y-54616723D02*
X121780952Y-54616723D01*
X121828571Y-54854819D02*
X121733333Y-54807200D01*
X121733333Y-54807200D02*
X121638095Y-54711961D01*
X121638095Y-54711961D02*
X121590476Y-54521485D01*
X121590476Y-54521485D02*
X121590476Y-54188152D01*
X121590476Y-54188152D02*
X121638095Y-53997676D01*
X121638095Y-53997676D02*
X121733333Y-53902438D01*
X121733333Y-53902438D02*
X121828571Y-53854819D01*
X121828571Y-53854819D02*
X122019047Y-53854819D01*
X122019047Y-53854819D02*
X122114285Y-53902438D01*
X122114285Y-53902438D02*
X122209523Y-53997676D01*
X122209523Y-53997676D02*
X122257142Y-54188152D01*
X122257142Y-54188152D02*
X122257142Y-54521485D01*
X122257142Y-54521485D02*
X122209523Y-54711961D01*
X122209523Y-54711961D02*
X122114285Y-54807200D01*
X122114285Y-54807200D02*
X122019047Y-54854819D01*
X122019047Y-54854819D02*
X121828571Y-54854819D01*
X122638095Y-53950057D02*
X122685714Y-53902438D01*
X122685714Y-53902438D02*
X122780952Y-53854819D01*
X122780952Y-53854819D02*
X123019047Y-53854819D01*
X123019047Y-53854819D02*
X123114285Y-53902438D01*
X123114285Y-53902438D02*
X123161904Y-53950057D01*
X123161904Y-53950057D02*
X123209523Y-54045295D01*
X123209523Y-54045295D02*
X123209523Y-54140533D01*
X123209523Y-54140533D02*
X123161904Y-54283390D01*
X123161904Y-54283390D02*
X122590476Y-54854819D01*
X122590476Y-54854819D02*
X123209523Y-54854819D01*
X102938095Y-57454819D02*
X103509523Y-57454819D01*
X103223809Y-58454819D02*
X103223809Y-57454819D01*
X103842857Y-58454819D02*
X103842857Y-57454819D01*
X103842857Y-57454819D02*
X104223809Y-57454819D01*
X104223809Y-57454819D02*
X104319047Y-57502438D01*
X104319047Y-57502438D02*
X104366666Y-57550057D01*
X104366666Y-57550057D02*
X104414285Y-57645295D01*
X104414285Y-57645295D02*
X104414285Y-57788152D01*
X104414285Y-57788152D02*
X104366666Y-57883390D01*
X104366666Y-57883390D02*
X104319047Y-57931009D01*
X104319047Y-57931009D02*
X104223809Y-57978628D01*
X104223809Y-57978628D02*
X103842857Y-57978628D01*
X105271428Y-57788152D02*
X105271428Y-58454819D01*
X105033333Y-57407200D02*
X104795238Y-58121485D01*
X104795238Y-58121485D02*
X105414285Y-58121485D01*
X102738095Y-69054819D02*
X103309523Y-69054819D01*
X103023809Y-70054819D02*
X103023809Y-69054819D01*
X103642857Y-70054819D02*
X103642857Y-69054819D01*
X103642857Y-69054819D02*
X104023809Y-69054819D01*
X104023809Y-69054819D02*
X104119047Y-69102438D01*
X104119047Y-69102438D02*
X104166666Y-69150057D01*
X104166666Y-69150057D02*
X104214285Y-69245295D01*
X104214285Y-69245295D02*
X104214285Y-69388152D01*
X104214285Y-69388152D02*
X104166666Y-69483390D01*
X104166666Y-69483390D02*
X104119047Y-69531009D01*
X104119047Y-69531009D02*
X104023809Y-69578628D01*
X104023809Y-69578628D02*
X103642857Y-69578628D01*
X104547619Y-69054819D02*
X105166666Y-69054819D01*
X105166666Y-69054819D02*
X104833333Y-69435771D01*
X104833333Y-69435771D02*
X104976190Y-69435771D01*
X104976190Y-69435771D02*
X105071428Y-69483390D01*
X105071428Y-69483390D02*
X105119047Y-69531009D01*
X105119047Y-69531009D02*
X105166666Y-69626247D01*
X105166666Y-69626247D02*
X105166666Y-69864342D01*
X105166666Y-69864342D02*
X105119047Y-69959580D01*
X105119047Y-69959580D02*
X105071428Y-70007200D01*
X105071428Y-70007200D02*
X104976190Y-70054819D01*
X104976190Y-70054819D02*
X104690476Y-70054819D01*
X104690476Y-70054819D02*
X104595238Y-70007200D01*
X104595238Y-70007200D02*
X104547619Y-69959580D01*
X102938095Y-50854819D02*
X103509523Y-50854819D01*
X103223809Y-51854819D02*
X103223809Y-50854819D01*
X103842857Y-51854819D02*
X103842857Y-50854819D01*
X103842857Y-50854819D02*
X104223809Y-50854819D01*
X104223809Y-50854819D02*
X104319047Y-50902438D01*
X104319047Y-50902438D02*
X104366666Y-50950057D01*
X104366666Y-50950057D02*
X104414285Y-51045295D01*
X104414285Y-51045295D02*
X104414285Y-51188152D01*
X104414285Y-51188152D02*
X104366666Y-51283390D01*
X104366666Y-51283390D02*
X104319047Y-51331009D01*
X104319047Y-51331009D02*
X104223809Y-51378628D01*
X104223809Y-51378628D02*
X103842857Y-51378628D01*
X104795238Y-50950057D02*
X104842857Y-50902438D01*
X104842857Y-50902438D02*
X104938095Y-50854819D01*
X104938095Y-50854819D02*
X105176190Y-50854819D01*
X105176190Y-50854819D02*
X105271428Y-50902438D01*
X105271428Y-50902438D02*
X105319047Y-50950057D01*
X105319047Y-50950057D02*
X105366666Y-51045295D01*
X105366666Y-51045295D02*
X105366666Y-51140533D01*
X105366666Y-51140533D02*
X105319047Y-51283390D01*
X105319047Y-51283390D02*
X104747619Y-51854819D01*
X104747619Y-51854819D02*
X105366666Y-51854819D01*
X118738095Y-69054819D02*
X119309523Y-69054819D01*
X119023809Y-70054819D02*
X119023809Y-69054819D01*
X119642857Y-70054819D02*
X119642857Y-69054819D01*
X119642857Y-69054819D02*
X120023809Y-69054819D01*
X120023809Y-69054819D02*
X120119047Y-69102438D01*
X120119047Y-69102438D02*
X120166666Y-69150057D01*
X120166666Y-69150057D02*
X120214285Y-69245295D01*
X120214285Y-69245295D02*
X120214285Y-69388152D01*
X120214285Y-69388152D02*
X120166666Y-69483390D01*
X120166666Y-69483390D02*
X120119047Y-69531009D01*
X120119047Y-69531009D02*
X120023809Y-69578628D01*
X120023809Y-69578628D02*
X119642857Y-69578628D01*
X121166666Y-70054819D02*
X120595238Y-70054819D01*
X120880952Y-70054819D02*
X120880952Y-69054819D01*
X120880952Y-69054819D02*
X120785714Y-69197676D01*
X120785714Y-69197676D02*
X120690476Y-69292914D01*
X120690476Y-69292914D02*
X120595238Y-69340533D01*
X139954819Y-38038094D02*
X140764342Y-38038094D01*
X140764342Y-38038094D02*
X140859580Y-37990475D01*
X140859580Y-37990475D02*
X140907200Y-37942856D01*
X140907200Y-37942856D02*
X140954819Y-37847618D01*
X140954819Y-37847618D02*
X140954819Y-37657142D01*
X140954819Y-37657142D02*
X140907200Y-37561904D01*
X140907200Y-37561904D02*
X140859580Y-37514285D01*
X140859580Y-37514285D02*
X140764342Y-37466666D01*
X140764342Y-37466666D02*
X139954819Y-37466666D01*
X140954819Y-36466666D02*
X140954819Y-37038094D01*
X140954819Y-36752380D02*
X139954819Y-36752380D01*
X139954819Y-36752380D02*
X140097676Y-36847618D01*
X140097676Y-36847618D02*
X140192914Y-36942856D01*
X140192914Y-36942856D02*
X140240533Y-37038094D01*
X139954819Y-36133332D02*
X139954819Y-35514285D01*
X139954819Y-35514285D02*
X140335771Y-35847618D01*
X140335771Y-35847618D02*
X140335771Y-35704761D01*
X140335771Y-35704761D02*
X140383390Y-35609523D01*
X140383390Y-35609523D02*
X140431009Y-35561904D01*
X140431009Y-35561904D02*
X140526247Y-35514285D01*
X140526247Y-35514285D02*
X140764342Y-35514285D01*
X140764342Y-35514285D02*
X140859580Y-35561904D01*
X140859580Y-35561904D02*
X140907200Y-35609523D01*
X140907200Y-35609523D02*
X140954819Y-35704761D01*
X140954819Y-35704761D02*
X140954819Y-35990475D01*
X140954819Y-35990475D02*
X140907200Y-36085713D01*
X140907200Y-36085713D02*
X140859580Y-36133332D01*
X158454819Y-53361904D02*
X159264342Y-53361904D01*
X159264342Y-53361904D02*
X159359580Y-53314285D01*
X159359580Y-53314285D02*
X159407200Y-53266666D01*
X159407200Y-53266666D02*
X159454819Y-53171428D01*
X159454819Y-53171428D02*
X159454819Y-52980952D01*
X159454819Y-52980952D02*
X159407200Y-52885714D01*
X159407200Y-52885714D02*
X159359580Y-52838095D01*
X159359580Y-52838095D02*
X159264342Y-52790476D01*
X159264342Y-52790476D02*
X158454819Y-52790476D01*
X158454819Y-51885714D02*
X158454819Y-52076190D01*
X158454819Y-52076190D02*
X158502438Y-52171428D01*
X158502438Y-52171428D02*
X158550057Y-52219047D01*
X158550057Y-52219047D02*
X158692914Y-52314285D01*
X158692914Y-52314285D02*
X158883390Y-52361904D01*
X158883390Y-52361904D02*
X159264342Y-52361904D01*
X159264342Y-52361904D02*
X159359580Y-52314285D01*
X159359580Y-52314285D02*
X159407200Y-52266666D01*
X159407200Y-52266666D02*
X159454819Y-52171428D01*
X159454819Y-52171428D02*
X159454819Y-51980952D01*
X159454819Y-51980952D02*
X159407200Y-51885714D01*
X159407200Y-51885714D02*
X159359580Y-51838095D01*
X159359580Y-51838095D02*
X159264342Y-51790476D01*
X159264342Y-51790476D02*
X159026247Y-51790476D01*
X159026247Y-51790476D02*
X158931009Y-51838095D01*
X158931009Y-51838095D02*
X158883390Y-51885714D01*
X158883390Y-51885714D02*
X158835771Y-51980952D01*
X158835771Y-51980952D02*
X158835771Y-52171428D01*
X158835771Y-52171428D02*
X158883390Y-52266666D01*
X158883390Y-52266666D02*
X158931009Y-52314285D01*
X158931009Y-52314285D02*
X159026247Y-52361904D01*
X155954819Y-37461904D02*
X156764342Y-37461904D01*
X156764342Y-37461904D02*
X156859580Y-37414285D01*
X156859580Y-37414285D02*
X156907200Y-37366666D01*
X156907200Y-37366666D02*
X156954819Y-37271428D01*
X156954819Y-37271428D02*
X156954819Y-37080952D01*
X156954819Y-37080952D02*
X156907200Y-36985714D01*
X156907200Y-36985714D02*
X156859580Y-36938095D01*
X156859580Y-36938095D02*
X156764342Y-36890476D01*
X156764342Y-36890476D02*
X155954819Y-36890476D01*
X156383390Y-36271428D02*
X156335771Y-36366666D01*
X156335771Y-36366666D02*
X156288152Y-36414285D01*
X156288152Y-36414285D02*
X156192914Y-36461904D01*
X156192914Y-36461904D02*
X156145295Y-36461904D01*
X156145295Y-36461904D02*
X156050057Y-36414285D01*
X156050057Y-36414285D02*
X156002438Y-36366666D01*
X156002438Y-36366666D02*
X155954819Y-36271428D01*
X155954819Y-36271428D02*
X155954819Y-36080952D01*
X155954819Y-36080952D02*
X156002438Y-35985714D01*
X156002438Y-35985714D02*
X156050057Y-35938095D01*
X156050057Y-35938095D02*
X156145295Y-35890476D01*
X156145295Y-35890476D02*
X156192914Y-35890476D01*
X156192914Y-35890476D02*
X156288152Y-35938095D01*
X156288152Y-35938095D02*
X156335771Y-35985714D01*
X156335771Y-35985714D02*
X156383390Y-36080952D01*
X156383390Y-36080952D02*
X156383390Y-36271428D01*
X156383390Y-36271428D02*
X156431009Y-36366666D01*
X156431009Y-36366666D02*
X156478628Y-36414285D01*
X156478628Y-36414285D02*
X156573866Y-36461904D01*
X156573866Y-36461904D02*
X156764342Y-36461904D01*
X156764342Y-36461904D02*
X156859580Y-36414285D01*
X156859580Y-36414285D02*
X156907200Y-36366666D01*
X156907200Y-36366666D02*
X156954819Y-36271428D01*
X156954819Y-36271428D02*
X156954819Y-36080952D01*
X156954819Y-36080952D02*
X156907200Y-35985714D01*
X156907200Y-35985714D02*
X156859580Y-35938095D01*
X156859580Y-35938095D02*
X156764342Y-35890476D01*
X156764342Y-35890476D02*
X156573866Y-35890476D01*
X156573866Y-35890476D02*
X156478628Y-35938095D01*
X156478628Y-35938095D02*
X156431009Y-35985714D01*
X156431009Y-35985714D02*
X156383390Y-36080952D01*
X153049819Y-64913094D02*
X153859342Y-64913094D01*
X153859342Y-64913094D02*
X153954580Y-64865475D01*
X153954580Y-64865475D02*
X154002200Y-64817856D01*
X154002200Y-64817856D02*
X154049819Y-64722618D01*
X154049819Y-64722618D02*
X154049819Y-64532142D01*
X154049819Y-64532142D02*
X154002200Y-64436904D01*
X154002200Y-64436904D02*
X153954580Y-64389285D01*
X153954580Y-64389285D02*
X153859342Y-64341666D01*
X153859342Y-64341666D02*
X153049819Y-64341666D01*
X154049819Y-63341666D02*
X154049819Y-63913094D01*
X154049819Y-63627380D02*
X153049819Y-63627380D01*
X153049819Y-63627380D02*
X153192676Y-63722618D01*
X153192676Y-63722618D02*
X153287914Y-63817856D01*
X153287914Y-63817856D02*
X153335533Y-63913094D01*
X153145057Y-62960713D02*
X153097438Y-62913094D01*
X153097438Y-62913094D02*
X153049819Y-62817856D01*
X153049819Y-62817856D02*
X153049819Y-62579761D01*
X153049819Y-62579761D02*
X153097438Y-62484523D01*
X153097438Y-62484523D02*
X153145057Y-62436904D01*
X153145057Y-62436904D02*
X153240295Y-62389285D01*
X153240295Y-62389285D02*
X153335533Y-62389285D01*
X153335533Y-62389285D02*
X153478390Y-62436904D01*
X153478390Y-62436904D02*
X154049819Y-63008332D01*
X154049819Y-63008332D02*
X154049819Y-62389285D01*
X130916666Y-67404819D02*
X130916666Y-68119104D01*
X130916666Y-68119104D02*
X130869047Y-68261961D01*
X130869047Y-68261961D02*
X130773809Y-68357200D01*
X130773809Y-68357200D02*
X130630952Y-68404819D01*
X130630952Y-68404819D02*
X130535714Y-68404819D01*
X131345238Y-67500057D02*
X131392857Y-67452438D01*
X131392857Y-67452438D02*
X131488095Y-67404819D01*
X131488095Y-67404819D02*
X131726190Y-67404819D01*
X131726190Y-67404819D02*
X131821428Y-67452438D01*
X131821428Y-67452438D02*
X131869047Y-67500057D01*
X131869047Y-67500057D02*
X131916666Y-67595295D01*
X131916666Y-67595295D02*
X131916666Y-67690533D01*
X131916666Y-67690533D02*
X131869047Y-67833390D01*
X131869047Y-67833390D02*
X131297619Y-68404819D01*
X131297619Y-68404819D02*
X131916666Y-68404819D01*
X130766666Y-31554819D02*
X130766666Y-32269104D01*
X130766666Y-32269104D02*
X130719047Y-32411961D01*
X130719047Y-32411961D02*
X130623809Y-32507200D01*
X130623809Y-32507200D02*
X130480952Y-32554819D01*
X130480952Y-32554819D02*
X130385714Y-32554819D01*
X131147619Y-31554819D02*
X131766666Y-31554819D01*
X131766666Y-31554819D02*
X131433333Y-31935771D01*
X131433333Y-31935771D02*
X131576190Y-31935771D01*
X131576190Y-31935771D02*
X131671428Y-31983390D01*
X131671428Y-31983390D02*
X131719047Y-32031009D01*
X131719047Y-32031009D02*
X131766666Y-32126247D01*
X131766666Y-32126247D02*
X131766666Y-32364342D01*
X131766666Y-32364342D02*
X131719047Y-32459580D01*
X131719047Y-32459580D02*
X131671428Y-32507200D01*
X131671428Y-32507200D02*
X131576190Y-32554819D01*
X131576190Y-32554819D02*
X131290476Y-32554819D01*
X131290476Y-32554819D02*
X131195238Y-32507200D01*
X131195238Y-32507200D02*
X131147619Y-32459580D01*
X146190476Y-31554819D02*
X146190476Y-32269104D01*
X146190476Y-32269104D02*
X146142857Y-32411961D01*
X146142857Y-32411961D02*
X146047619Y-32507200D01*
X146047619Y-32507200D02*
X145904762Y-32554819D01*
X145904762Y-32554819D02*
X145809524Y-32554819D01*
X147190476Y-32554819D02*
X146619048Y-32554819D01*
X146904762Y-32554819D02*
X146904762Y-31554819D01*
X146904762Y-31554819D02*
X146809524Y-31697676D01*
X146809524Y-31697676D02*
X146714286Y-31792914D01*
X146714286Y-31792914D02*
X146619048Y-31840533D01*
X148142857Y-32554819D02*
X147571429Y-32554819D01*
X147857143Y-32554819D02*
X147857143Y-31554819D01*
X147857143Y-31554819D02*
X147761905Y-31697676D01*
X147761905Y-31697676D02*
X147666667Y-31792914D01*
X147666667Y-31792914D02*
X147571429Y-31840533D01*
X146340476Y-67404819D02*
X146340476Y-68119104D01*
X146340476Y-68119104D02*
X146292857Y-68261961D01*
X146292857Y-68261961D02*
X146197619Y-68357200D01*
X146197619Y-68357200D02*
X146054762Y-68404819D01*
X146054762Y-68404819D02*
X145959524Y-68404819D01*
X147340476Y-68404819D02*
X146769048Y-68404819D01*
X147054762Y-68404819D02*
X147054762Y-67404819D01*
X147054762Y-67404819D02*
X146959524Y-67547676D01*
X146959524Y-67547676D02*
X146864286Y-67642914D01*
X146864286Y-67642914D02*
X146769048Y-67690533D01*
X147959524Y-67404819D02*
X148054762Y-67404819D01*
X148054762Y-67404819D02*
X148150000Y-67452438D01*
X148150000Y-67452438D02*
X148197619Y-67500057D01*
X148197619Y-67500057D02*
X148245238Y-67595295D01*
X148245238Y-67595295D02*
X148292857Y-67785771D01*
X148292857Y-67785771D02*
X148292857Y-68023866D01*
X148292857Y-68023866D02*
X148245238Y-68214342D01*
X148245238Y-68214342D02*
X148197619Y-68309580D01*
X148197619Y-68309580D02*
X148150000Y-68357200D01*
X148150000Y-68357200D02*
X148054762Y-68404819D01*
X148054762Y-68404819D02*
X147959524Y-68404819D01*
X147959524Y-68404819D02*
X147864286Y-68357200D01*
X147864286Y-68357200D02*
X147816667Y-68309580D01*
X147816667Y-68309580D02*
X147769048Y-68214342D01*
X147769048Y-68214342D02*
X147721429Y-68023866D01*
X147721429Y-68023866D02*
X147721429Y-67785771D01*
X147721429Y-67785771D02*
X147769048Y-67595295D01*
X147769048Y-67595295D02*
X147816667Y-67500057D01*
X147816667Y-67500057D02*
X147864286Y-67452438D01*
X147864286Y-67452438D02*
X147959524Y-67404819D01*
X162566666Y-31554819D02*
X162566666Y-32269104D01*
X162566666Y-32269104D02*
X162519047Y-32411961D01*
X162519047Y-32411961D02*
X162423809Y-32507200D01*
X162423809Y-32507200D02*
X162280952Y-32554819D01*
X162280952Y-32554819D02*
X162185714Y-32554819D01*
X163185714Y-31983390D02*
X163090476Y-31935771D01*
X163090476Y-31935771D02*
X163042857Y-31888152D01*
X163042857Y-31888152D02*
X162995238Y-31792914D01*
X162995238Y-31792914D02*
X162995238Y-31745295D01*
X162995238Y-31745295D02*
X163042857Y-31650057D01*
X163042857Y-31650057D02*
X163090476Y-31602438D01*
X163090476Y-31602438D02*
X163185714Y-31554819D01*
X163185714Y-31554819D02*
X163376190Y-31554819D01*
X163376190Y-31554819D02*
X163471428Y-31602438D01*
X163471428Y-31602438D02*
X163519047Y-31650057D01*
X163519047Y-31650057D02*
X163566666Y-31745295D01*
X163566666Y-31745295D02*
X163566666Y-31792914D01*
X163566666Y-31792914D02*
X163519047Y-31888152D01*
X163519047Y-31888152D02*
X163471428Y-31935771D01*
X163471428Y-31935771D02*
X163376190Y-31983390D01*
X163376190Y-31983390D02*
X163185714Y-31983390D01*
X163185714Y-31983390D02*
X163090476Y-32031009D01*
X163090476Y-32031009D02*
X163042857Y-32078628D01*
X163042857Y-32078628D02*
X162995238Y-32173866D01*
X162995238Y-32173866D02*
X162995238Y-32364342D01*
X162995238Y-32364342D02*
X163042857Y-32459580D01*
X163042857Y-32459580D02*
X163090476Y-32507200D01*
X163090476Y-32507200D02*
X163185714Y-32554819D01*
X163185714Y-32554819D02*
X163376190Y-32554819D01*
X163376190Y-32554819D02*
X163471428Y-32507200D01*
X163471428Y-32507200D02*
X163519047Y-32459580D01*
X163519047Y-32459580D02*
X163566666Y-32364342D01*
X163566666Y-32364342D02*
X163566666Y-32173866D01*
X163566666Y-32173866D02*
X163519047Y-32078628D01*
X163519047Y-32078628D02*
X163471428Y-32031009D01*
X163471428Y-32031009D02*
X163376190Y-31983390D01*
X137249819Y-64436904D02*
X138059342Y-64436904D01*
X138059342Y-64436904D02*
X138154580Y-64389285D01*
X138154580Y-64389285D02*
X138202200Y-64341666D01*
X138202200Y-64341666D02*
X138249819Y-64246428D01*
X138249819Y-64246428D02*
X138249819Y-64055952D01*
X138249819Y-64055952D02*
X138202200Y-63960714D01*
X138202200Y-63960714D02*
X138154580Y-63913095D01*
X138154580Y-63913095D02*
X138059342Y-63865476D01*
X138059342Y-63865476D02*
X137249819Y-63865476D01*
X137249819Y-63484523D02*
X137249819Y-62865476D01*
X137249819Y-62865476D02*
X137630771Y-63198809D01*
X137630771Y-63198809D02*
X137630771Y-63055952D01*
X137630771Y-63055952D02*
X137678390Y-62960714D01*
X137678390Y-62960714D02*
X137726009Y-62913095D01*
X137726009Y-62913095D02*
X137821247Y-62865476D01*
X137821247Y-62865476D02*
X138059342Y-62865476D01*
X138059342Y-62865476D02*
X138154580Y-62913095D01*
X138154580Y-62913095D02*
X138202200Y-62960714D01*
X138202200Y-62960714D02*
X138249819Y-63055952D01*
X138249819Y-63055952D02*
X138249819Y-63341666D01*
X138249819Y-63341666D02*
X138202200Y-63436904D01*
X138202200Y-63436904D02*
X138154580Y-63484523D01*
X169149819Y-64336904D02*
X169959342Y-64336904D01*
X169959342Y-64336904D02*
X170054580Y-64289285D01*
X170054580Y-64289285D02*
X170102200Y-64241666D01*
X170102200Y-64241666D02*
X170149819Y-64146428D01*
X170149819Y-64146428D02*
X170149819Y-63955952D01*
X170149819Y-63955952D02*
X170102200Y-63860714D01*
X170102200Y-63860714D02*
X170054580Y-63813095D01*
X170054580Y-63813095D02*
X169959342Y-63765476D01*
X169959342Y-63765476D02*
X169149819Y-63765476D01*
X169149819Y-63384523D02*
X169149819Y-62717857D01*
X169149819Y-62717857D02*
X170149819Y-63146428D01*
X142854819Y-50638094D02*
X143664342Y-50638094D01*
X143664342Y-50638094D02*
X143759580Y-50590475D01*
X143759580Y-50590475D02*
X143807200Y-50542856D01*
X143807200Y-50542856D02*
X143854819Y-50447618D01*
X143854819Y-50447618D02*
X143854819Y-50257142D01*
X143854819Y-50257142D02*
X143807200Y-50161904D01*
X143807200Y-50161904D02*
X143759580Y-50114285D01*
X143759580Y-50114285D02*
X143664342Y-50066666D01*
X143664342Y-50066666D02*
X142854819Y-50066666D01*
X143854819Y-49066666D02*
X143854819Y-49638094D01*
X143854819Y-49352380D02*
X142854819Y-49352380D01*
X142854819Y-49352380D02*
X142997676Y-49447618D01*
X142997676Y-49447618D02*
X143092914Y-49542856D01*
X143092914Y-49542856D02*
X143140533Y-49638094D01*
X143854819Y-48114285D02*
X143854819Y-48685713D01*
X143854819Y-48399999D02*
X142854819Y-48399999D01*
X142854819Y-48399999D02*
X142997676Y-48495237D01*
X142997676Y-48495237D02*
X143092914Y-48590475D01*
X143092914Y-48590475D02*
X143140533Y-48685713D01*
X127029819Y-49961904D02*
X127839342Y-49961904D01*
X127839342Y-49961904D02*
X127934580Y-49914285D01*
X127934580Y-49914285D02*
X127982200Y-49866666D01*
X127982200Y-49866666D02*
X128029819Y-49771428D01*
X128029819Y-49771428D02*
X128029819Y-49580952D01*
X128029819Y-49580952D02*
X127982200Y-49485714D01*
X127982200Y-49485714D02*
X127934580Y-49438095D01*
X127934580Y-49438095D02*
X127839342Y-49390476D01*
X127839342Y-49390476D02*
X127029819Y-49390476D01*
X128029819Y-48390476D02*
X128029819Y-48961904D01*
X128029819Y-48676190D02*
X127029819Y-48676190D01*
X127029819Y-48676190D02*
X127172676Y-48771428D01*
X127172676Y-48771428D02*
X127267914Y-48866666D01*
X127267914Y-48866666D02*
X127315533Y-48961904D01*
X123954819Y-37561904D02*
X124764342Y-37561904D01*
X124764342Y-37561904D02*
X124859580Y-37514285D01*
X124859580Y-37514285D02*
X124907200Y-37466666D01*
X124907200Y-37466666D02*
X124954819Y-37371428D01*
X124954819Y-37371428D02*
X124954819Y-37180952D01*
X124954819Y-37180952D02*
X124907200Y-37085714D01*
X124907200Y-37085714D02*
X124859580Y-37038095D01*
X124859580Y-37038095D02*
X124764342Y-36990476D01*
X124764342Y-36990476D02*
X123954819Y-36990476D01*
X124288152Y-36085714D02*
X124954819Y-36085714D01*
X123907200Y-36323809D02*
X124621485Y-36561904D01*
X124621485Y-36561904D02*
X124621485Y-35942857D01*
X116454819Y-56238094D02*
X117264342Y-56238094D01*
X117264342Y-56238094D02*
X117359580Y-56190475D01*
X117359580Y-56190475D02*
X117407200Y-56142856D01*
X117407200Y-56142856D02*
X117454819Y-56047618D01*
X117454819Y-56047618D02*
X117454819Y-55857142D01*
X117454819Y-55857142D02*
X117407200Y-55761904D01*
X117407200Y-55761904D02*
X117359580Y-55714285D01*
X117359580Y-55714285D02*
X117264342Y-55666666D01*
X117264342Y-55666666D02*
X116454819Y-55666666D01*
X117454819Y-54666666D02*
X117454819Y-55238094D01*
X117454819Y-54952380D02*
X116454819Y-54952380D01*
X116454819Y-54952380D02*
X116597676Y-55047618D01*
X116597676Y-55047618D02*
X116692914Y-55142856D01*
X116692914Y-55142856D02*
X116740533Y-55238094D01*
X116454819Y-54047618D02*
X116454819Y-53952380D01*
X116454819Y-53952380D02*
X116502438Y-53857142D01*
X116502438Y-53857142D02*
X116550057Y-53809523D01*
X116550057Y-53809523D02*
X116645295Y-53761904D01*
X116645295Y-53761904D02*
X116835771Y-53714285D01*
X116835771Y-53714285D02*
X117073866Y-53714285D01*
X117073866Y-53714285D02*
X117264342Y-53761904D01*
X117264342Y-53761904D02*
X117359580Y-53809523D01*
X117359580Y-53809523D02*
X117407200Y-53857142D01*
X117407200Y-53857142D02*
X117454819Y-53952380D01*
X117454819Y-53952380D02*
X117454819Y-54047618D01*
X117454819Y-54047618D02*
X117407200Y-54142856D01*
X117407200Y-54142856D02*
X117359580Y-54190475D01*
X117359580Y-54190475D02*
X117264342Y-54238094D01*
X117264342Y-54238094D02*
X117073866Y-54285713D01*
X117073866Y-54285713D02*
X116835771Y-54285713D01*
X116835771Y-54285713D02*
X116645295Y-54238094D01*
X116645295Y-54238094D02*
X116550057Y-54190475D01*
X116550057Y-54190475D02*
X116502438Y-54142856D01*
X116502438Y-54142856D02*
X116454819Y-54047618D01*
X112038095Y-64854819D02*
X112038095Y-65664342D01*
X112038095Y-65664342D02*
X112085714Y-65759580D01*
X112085714Y-65759580D02*
X112133333Y-65807200D01*
X112133333Y-65807200D02*
X112228571Y-65854819D01*
X112228571Y-65854819D02*
X112419047Y-65854819D01*
X112419047Y-65854819D02*
X112514285Y-65807200D01*
X112514285Y-65807200D02*
X112561904Y-65759580D01*
X112561904Y-65759580D02*
X112609523Y-65664342D01*
X112609523Y-65664342D02*
X112609523Y-64854819D01*
X113133333Y-65854819D02*
X113323809Y-65854819D01*
X113323809Y-65854819D02*
X113419047Y-65807200D01*
X113419047Y-65807200D02*
X113466666Y-65759580D01*
X113466666Y-65759580D02*
X113561904Y-65616723D01*
X113561904Y-65616723D02*
X113609523Y-65426247D01*
X113609523Y-65426247D02*
X113609523Y-65045295D01*
X113609523Y-65045295D02*
X113561904Y-64950057D01*
X113561904Y-64950057D02*
X113514285Y-64902438D01*
X113514285Y-64902438D02*
X113419047Y-64854819D01*
X113419047Y-64854819D02*
X113228571Y-64854819D01*
X113228571Y-64854819D02*
X113133333Y-64902438D01*
X113133333Y-64902438D02*
X113085714Y-64950057D01*
X113085714Y-64950057D02*
X113038095Y-65045295D01*
X113038095Y-65045295D02*
X113038095Y-65283390D01*
X113038095Y-65283390D02*
X113085714Y-65378628D01*
X113085714Y-65378628D02*
X113133333Y-65426247D01*
X113133333Y-65426247D02*
X113228571Y-65473866D01*
X113228571Y-65473866D02*
X113419047Y-65473866D01*
X113419047Y-65473866D02*
X113514285Y-65426247D01*
X113514285Y-65426247D02*
X113561904Y-65378628D01*
X113561904Y-65378628D02*
X113609523Y-65283390D01*
X106438095Y-43254819D02*
X106438095Y-44064342D01*
X106438095Y-44064342D02*
X106485714Y-44159580D01*
X106485714Y-44159580D02*
X106533333Y-44207200D01*
X106533333Y-44207200D02*
X106628571Y-44254819D01*
X106628571Y-44254819D02*
X106819047Y-44254819D01*
X106819047Y-44254819D02*
X106914285Y-44207200D01*
X106914285Y-44207200D02*
X106961904Y-44159580D01*
X106961904Y-44159580D02*
X107009523Y-44064342D01*
X107009523Y-44064342D02*
X107009523Y-43254819D01*
X107961904Y-43254819D02*
X107485714Y-43254819D01*
X107485714Y-43254819D02*
X107438095Y-43731009D01*
X107438095Y-43731009D02*
X107485714Y-43683390D01*
X107485714Y-43683390D02*
X107580952Y-43635771D01*
X107580952Y-43635771D02*
X107819047Y-43635771D01*
X107819047Y-43635771D02*
X107914285Y-43683390D01*
X107914285Y-43683390D02*
X107961904Y-43731009D01*
X107961904Y-43731009D02*
X108009523Y-43826247D01*
X108009523Y-43826247D02*
X108009523Y-44064342D01*
X108009523Y-44064342D02*
X107961904Y-44159580D01*
X107961904Y-44159580D02*
X107914285Y-44207200D01*
X107914285Y-44207200D02*
X107819047Y-44254819D01*
X107819047Y-44254819D02*
X107580952Y-44254819D01*
X107580952Y-44254819D02*
X107485714Y-44207200D01*
X107485714Y-44207200D02*
X107438095Y-44159580D01*
X173164819Y-58222857D02*
X172688628Y-58556190D01*
X173164819Y-58794285D02*
X172164819Y-58794285D01*
X172164819Y-58794285D02*
X172164819Y-58413333D01*
X172164819Y-58413333D02*
X172212438Y-58318095D01*
X172212438Y-58318095D02*
X172260057Y-58270476D01*
X172260057Y-58270476D02*
X172355295Y-58222857D01*
X172355295Y-58222857D02*
X172498152Y-58222857D01*
X172498152Y-58222857D02*
X172593390Y-58270476D01*
X172593390Y-58270476D02*
X172641009Y-58318095D01*
X172641009Y-58318095D02*
X172688628Y-58413333D01*
X172688628Y-58413333D02*
X172688628Y-58794285D01*
X173164819Y-57270476D02*
X173164819Y-57841904D01*
X173164819Y-57556190D02*
X172164819Y-57556190D01*
X172164819Y-57556190D02*
X172307676Y-57651428D01*
X172307676Y-57651428D02*
X172402914Y-57746666D01*
X172402914Y-57746666D02*
X172450533Y-57841904D01*
X172164819Y-56937142D02*
X172164819Y-56270476D01*
X172164819Y-56270476D02*
X173164819Y-56699047D01*
X176934819Y-40952857D02*
X176458628Y-41286190D01*
X176934819Y-41524285D02*
X175934819Y-41524285D01*
X175934819Y-41524285D02*
X175934819Y-41143333D01*
X175934819Y-41143333D02*
X175982438Y-41048095D01*
X175982438Y-41048095D02*
X176030057Y-41000476D01*
X176030057Y-41000476D02*
X176125295Y-40952857D01*
X176125295Y-40952857D02*
X176268152Y-40952857D01*
X176268152Y-40952857D02*
X176363390Y-41000476D01*
X176363390Y-41000476D02*
X176411009Y-41048095D01*
X176411009Y-41048095D02*
X176458628Y-41143333D01*
X176458628Y-41143333D02*
X176458628Y-41524285D01*
X176934819Y-40000476D02*
X176934819Y-40571904D01*
X176934819Y-40286190D02*
X175934819Y-40286190D01*
X175934819Y-40286190D02*
X176077676Y-40381428D01*
X176077676Y-40381428D02*
X176172914Y-40476666D01*
X176172914Y-40476666D02*
X176220533Y-40571904D01*
X175934819Y-39667142D02*
X175934819Y-39048095D01*
X175934819Y-39048095D02*
X176315771Y-39381428D01*
X176315771Y-39381428D02*
X176315771Y-39238571D01*
X176315771Y-39238571D02*
X176363390Y-39143333D01*
X176363390Y-39143333D02*
X176411009Y-39095714D01*
X176411009Y-39095714D02*
X176506247Y-39048095D01*
X176506247Y-39048095D02*
X176744342Y-39048095D01*
X176744342Y-39048095D02*
X176839580Y-39095714D01*
X176839580Y-39095714D02*
X176887200Y-39143333D01*
X176887200Y-39143333D02*
X176934819Y-39238571D01*
X176934819Y-39238571D02*
X176934819Y-39524285D01*
X176934819Y-39524285D02*
X176887200Y-39619523D01*
X176887200Y-39619523D02*
X176839580Y-39667142D01*
X155033333Y-51054819D02*
X154700000Y-50578628D01*
X154461905Y-51054819D02*
X154461905Y-50054819D01*
X154461905Y-50054819D02*
X154842857Y-50054819D01*
X154842857Y-50054819D02*
X154938095Y-50102438D01*
X154938095Y-50102438D02*
X154985714Y-50150057D01*
X154985714Y-50150057D02*
X155033333Y-50245295D01*
X155033333Y-50245295D02*
X155033333Y-50388152D01*
X155033333Y-50388152D02*
X154985714Y-50483390D01*
X154985714Y-50483390D02*
X154938095Y-50531009D01*
X154938095Y-50531009D02*
X154842857Y-50578628D01*
X154842857Y-50578628D02*
X154461905Y-50578628D01*
X155890476Y-50388152D02*
X155890476Y-51054819D01*
X155652381Y-50007200D02*
X155414286Y-50721485D01*
X155414286Y-50721485D02*
X156033333Y-50721485D01*
X102833333Y-34454819D02*
X102500000Y-33978628D01*
X102261905Y-34454819D02*
X102261905Y-33454819D01*
X102261905Y-33454819D02*
X102642857Y-33454819D01*
X102642857Y-33454819D02*
X102738095Y-33502438D01*
X102738095Y-33502438D02*
X102785714Y-33550057D01*
X102785714Y-33550057D02*
X102833333Y-33645295D01*
X102833333Y-33645295D02*
X102833333Y-33788152D01*
X102833333Y-33788152D02*
X102785714Y-33883390D01*
X102785714Y-33883390D02*
X102738095Y-33931009D01*
X102738095Y-33931009D02*
X102642857Y-33978628D01*
X102642857Y-33978628D02*
X102261905Y-33978628D01*
X103214286Y-33550057D02*
X103261905Y-33502438D01*
X103261905Y-33502438D02*
X103357143Y-33454819D01*
X103357143Y-33454819D02*
X103595238Y-33454819D01*
X103595238Y-33454819D02*
X103690476Y-33502438D01*
X103690476Y-33502438D02*
X103738095Y-33550057D01*
X103738095Y-33550057D02*
X103785714Y-33645295D01*
X103785714Y-33645295D02*
X103785714Y-33740533D01*
X103785714Y-33740533D02*
X103738095Y-33883390D01*
X103738095Y-33883390D02*
X103166667Y-34454819D01*
X103166667Y-34454819D02*
X103785714Y-34454819D01*
X98454819Y-38966666D02*
X97978628Y-39299999D01*
X98454819Y-39538094D02*
X97454819Y-39538094D01*
X97454819Y-39538094D02*
X97454819Y-39157142D01*
X97454819Y-39157142D02*
X97502438Y-39061904D01*
X97502438Y-39061904D02*
X97550057Y-39014285D01*
X97550057Y-39014285D02*
X97645295Y-38966666D01*
X97645295Y-38966666D02*
X97788152Y-38966666D01*
X97788152Y-38966666D02*
X97883390Y-39014285D01*
X97883390Y-39014285D02*
X97931009Y-39061904D01*
X97931009Y-39061904D02*
X97978628Y-39157142D01*
X97978628Y-39157142D02*
X97978628Y-39538094D01*
X98454819Y-38014285D02*
X98454819Y-38585713D01*
X98454819Y-38299999D02*
X97454819Y-38299999D01*
X97454819Y-38299999D02*
X97597676Y-38395237D01*
X97597676Y-38395237D02*
X97692914Y-38490475D01*
X97692914Y-38490475D02*
X97740533Y-38585713D01*
X85666666Y-54054819D02*
X85666666Y-54769104D01*
X85666666Y-54769104D02*
X85619047Y-54911961D01*
X85619047Y-54911961D02*
X85523809Y-55007200D01*
X85523809Y-55007200D02*
X85380952Y-55054819D01*
X85380952Y-55054819D02*
X85285714Y-55054819D01*
X86190476Y-55054819D02*
X86380952Y-55054819D01*
X86380952Y-55054819D02*
X86476190Y-55007200D01*
X86476190Y-55007200D02*
X86523809Y-54959580D01*
X86523809Y-54959580D02*
X86619047Y-54816723D01*
X86619047Y-54816723D02*
X86666666Y-54626247D01*
X86666666Y-54626247D02*
X86666666Y-54245295D01*
X86666666Y-54245295D02*
X86619047Y-54150057D01*
X86619047Y-54150057D02*
X86571428Y-54102438D01*
X86571428Y-54102438D02*
X86476190Y-54054819D01*
X86476190Y-54054819D02*
X86285714Y-54054819D01*
X86285714Y-54054819D02*
X86190476Y-54102438D01*
X86190476Y-54102438D02*
X86142857Y-54150057D01*
X86142857Y-54150057D02*
X86095238Y-54245295D01*
X86095238Y-54245295D02*
X86095238Y-54483390D01*
X86095238Y-54483390D02*
X86142857Y-54578628D01*
X86142857Y-54578628D02*
X86190476Y-54626247D01*
X86190476Y-54626247D02*
X86285714Y-54673866D01*
X86285714Y-54673866D02*
X86476190Y-54673866D01*
X86476190Y-54673866D02*
X86571428Y-54626247D01*
X86571428Y-54626247D02*
X86619047Y-54578628D01*
X86619047Y-54578628D02*
X86666666Y-54483390D01*
X162716666Y-67404819D02*
X162716666Y-68119104D01*
X162716666Y-68119104D02*
X162669047Y-68261961D01*
X162669047Y-68261961D02*
X162573809Y-68357200D01*
X162573809Y-68357200D02*
X162430952Y-68404819D01*
X162430952Y-68404819D02*
X162335714Y-68404819D01*
X163097619Y-67404819D02*
X163764285Y-67404819D01*
X163764285Y-67404819D02*
X163335714Y-68404819D01*
X112866666Y-30054819D02*
X112866666Y-30769104D01*
X112866666Y-30769104D02*
X112819047Y-30911961D01*
X112819047Y-30911961D02*
X112723809Y-31007200D01*
X112723809Y-31007200D02*
X112580952Y-31054819D01*
X112580952Y-31054819D02*
X112485714Y-31054819D01*
X113771428Y-30054819D02*
X113580952Y-30054819D01*
X113580952Y-30054819D02*
X113485714Y-30102438D01*
X113485714Y-30102438D02*
X113438095Y-30150057D01*
X113438095Y-30150057D02*
X113342857Y-30292914D01*
X113342857Y-30292914D02*
X113295238Y-30483390D01*
X113295238Y-30483390D02*
X113295238Y-30864342D01*
X113295238Y-30864342D02*
X113342857Y-30959580D01*
X113342857Y-30959580D02*
X113390476Y-31007200D01*
X113390476Y-31007200D02*
X113485714Y-31054819D01*
X113485714Y-31054819D02*
X113676190Y-31054819D01*
X113676190Y-31054819D02*
X113771428Y-31007200D01*
X113771428Y-31007200D02*
X113819047Y-30959580D01*
X113819047Y-30959580D02*
X113866666Y-30864342D01*
X113866666Y-30864342D02*
X113866666Y-30626247D01*
X113866666Y-30626247D02*
X113819047Y-30531009D01*
X113819047Y-30531009D02*
X113771428Y-30483390D01*
X113771428Y-30483390D02*
X113676190Y-30435771D01*
X113676190Y-30435771D02*
X113485714Y-30435771D01*
X113485714Y-30435771D02*
X113390476Y-30483390D01*
X113390476Y-30483390D02*
X113342857Y-30531009D01*
X113342857Y-30531009D02*
X113295238Y-30626247D01*
X95266666Y-63454819D02*
X95266666Y-64169104D01*
X95266666Y-64169104D02*
X95219047Y-64311961D01*
X95219047Y-64311961D02*
X95123809Y-64407200D01*
X95123809Y-64407200D02*
X94980952Y-64454819D01*
X94980952Y-64454819D02*
X94885714Y-64454819D01*
X96219047Y-63454819D02*
X95742857Y-63454819D01*
X95742857Y-63454819D02*
X95695238Y-63931009D01*
X95695238Y-63931009D02*
X95742857Y-63883390D01*
X95742857Y-63883390D02*
X95838095Y-63835771D01*
X95838095Y-63835771D02*
X96076190Y-63835771D01*
X96076190Y-63835771D02*
X96171428Y-63883390D01*
X96171428Y-63883390D02*
X96219047Y-63931009D01*
X96219047Y-63931009D02*
X96266666Y-64026247D01*
X96266666Y-64026247D02*
X96266666Y-64264342D01*
X96266666Y-64264342D02*
X96219047Y-64359580D01*
X96219047Y-64359580D02*
X96171428Y-64407200D01*
X96171428Y-64407200D02*
X96076190Y-64454819D01*
X96076190Y-64454819D02*
X95838095Y-64454819D01*
X95838095Y-64454819D02*
X95742857Y-64407200D01*
X95742857Y-64407200D02*
X95695238Y-64359580D01*
X89528571Y-61439700D02*
X90671429Y-61439700D01*
X100528571Y-61439700D02*
X101671429Y-61439700D01*
X101100000Y-62011128D02*
X101100000Y-60868271D01*
X114666666Y-28454819D02*
X114666666Y-29169104D01*
X114666666Y-29169104D02*
X114619047Y-29311961D01*
X114619047Y-29311961D02*
X114523809Y-29407200D01*
X114523809Y-29407200D02*
X114380952Y-29454819D01*
X114380952Y-29454819D02*
X114285714Y-29454819D01*
X115571428Y-28788152D02*
X115571428Y-29454819D01*
X115333333Y-28407200D02*
X115095238Y-29121485D01*
X115095238Y-29121485D02*
X115714285Y-29121485D01*
X93666666Y-31177319D02*
X93666666Y-31891604D01*
X93666666Y-31891604D02*
X93619047Y-32034461D01*
X93619047Y-32034461D02*
X93523809Y-32129700D01*
X93523809Y-32129700D02*
X93380952Y-32177319D01*
X93380952Y-32177319D02*
X93285714Y-32177319D01*
X94666666Y-32177319D02*
X94095238Y-32177319D01*
X94380952Y-32177319D02*
X94380952Y-31177319D01*
X94380952Y-31177319D02*
X94285714Y-31320176D01*
X94285714Y-31320176D02*
X94190476Y-31415414D01*
X94190476Y-31415414D02*
X94095238Y-31463033D01*
X104654819Y-66583094D02*
X103654819Y-66583094D01*
X103654819Y-66583094D02*
X103654819Y-66344999D01*
X103654819Y-66344999D02*
X103702438Y-66202142D01*
X103702438Y-66202142D02*
X103797676Y-66106904D01*
X103797676Y-66106904D02*
X103892914Y-66059285D01*
X103892914Y-66059285D02*
X104083390Y-66011666D01*
X104083390Y-66011666D02*
X104226247Y-66011666D01*
X104226247Y-66011666D02*
X104416723Y-66059285D01*
X104416723Y-66059285D02*
X104511961Y-66106904D01*
X104511961Y-66106904D02*
X104607200Y-66202142D01*
X104607200Y-66202142D02*
X104654819Y-66344999D01*
X104654819Y-66344999D02*
X104654819Y-66583094D01*
X103750057Y-65630713D02*
X103702438Y-65583094D01*
X103702438Y-65583094D02*
X103654819Y-65487856D01*
X103654819Y-65487856D02*
X103654819Y-65249761D01*
X103654819Y-65249761D02*
X103702438Y-65154523D01*
X103702438Y-65154523D02*
X103750057Y-65106904D01*
X103750057Y-65106904D02*
X103845295Y-65059285D01*
X103845295Y-65059285D02*
X103940533Y-65059285D01*
X103940533Y-65059285D02*
X104083390Y-65106904D01*
X104083390Y-65106904D02*
X104654819Y-65678332D01*
X104654819Y-65678332D02*
X104654819Y-65059285D01*
X122461905Y-42254819D02*
X122461905Y-41254819D01*
X122461905Y-41254819D02*
X122700000Y-41254819D01*
X122700000Y-41254819D02*
X122842857Y-41302438D01*
X122842857Y-41302438D02*
X122938095Y-41397676D01*
X122938095Y-41397676D02*
X122985714Y-41492914D01*
X122985714Y-41492914D02*
X123033333Y-41683390D01*
X123033333Y-41683390D02*
X123033333Y-41826247D01*
X123033333Y-41826247D02*
X122985714Y-42016723D01*
X122985714Y-42016723D02*
X122938095Y-42111961D01*
X122938095Y-42111961D02*
X122842857Y-42207200D01*
X122842857Y-42207200D02*
X122700000Y-42254819D01*
X122700000Y-42254819D02*
X122461905Y-42254819D01*
X123985714Y-42254819D02*
X123414286Y-42254819D01*
X123700000Y-42254819D02*
X123700000Y-41254819D01*
X123700000Y-41254819D02*
X123604762Y-41397676D01*
X123604762Y-41397676D02*
X123509524Y-41492914D01*
X123509524Y-41492914D02*
X123414286Y-41540533D01*
X97033333Y-51009580D02*
X96985714Y-51057200D01*
X96985714Y-51057200D02*
X96842857Y-51104819D01*
X96842857Y-51104819D02*
X96747619Y-51104819D01*
X96747619Y-51104819D02*
X96604762Y-51057200D01*
X96604762Y-51057200D02*
X96509524Y-50961961D01*
X96509524Y-50961961D02*
X96461905Y-50866723D01*
X96461905Y-50866723D02*
X96414286Y-50676247D01*
X96414286Y-50676247D02*
X96414286Y-50533390D01*
X96414286Y-50533390D02*
X96461905Y-50342914D01*
X96461905Y-50342914D02*
X96509524Y-50247676D01*
X96509524Y-50247676D02*
X96604762Y-50152438D01*
X96604762Y-50152438D02*
X96747619Y-50104819D01*
X96747619Y-50104819D02*
X96842857Y-50104819D01*
X96842857Y-50104819D02*
X96985714Y-50152438D01*
X96985714Y-50152438D02*
X97033333Y-50200057D01*
X97366667Y-50104819D02*
X98033333Y-50104819D01*
X98033333Y-50104819D02*
X97604762Y-51104819D01*
X148033333Y-44759580D02*
X147985714Y-44807200D01*
X147985714Y-44807200D02*
X147842857Y-44854819D01*
X147842857Y-44854819D02*
X147747619Y-44854819D01*
X147747619Y-44854819D02*
X147604762Y-44807200D01*
X147604762Y-44807200D02*
X147509524Y-44711961D01*
X147509524Y-44711961D02*
X147461905Y-44616723D01*
X147461905Y-44616723D02*
X147414286Y-44426247D01*
X147414286Y-44426247D02*
X147414286Y-44283390D01*
X147414286Y-44283390D02*
X147461905Y-44092914D01*
X147461905Y-44092914D02*
X147509524Y-43997676D01*
X147509524Y-43997676D02*
X147604762Y-43902438D01*
X147604762Y-43902438D02*
X147747619Y-43854819D01*
X147747619Y-43854819D02*
X147842857Y-43854819D01*
X147842857Y-43854819D02*
X147985714Y-43902438D01*
X147985714Y-43902438D02*
X148033333Y-43950057D01*
X148890476Y-43854819D02*
X148700000Y-43854819D01*
X148700000Y-43854819D02*
X148604762Y-43902438D01*
X148604762Y-43902438D02*
X148557143Y-43950057D01*
X148557143Y-43950057D02*
X148461905Y-44092914D01*
X148461905Y-44092914D02*
X148414286Y-44283390D01*
X148414286Y-44283390D02*
X148414286Y-44664342D01*
X148414286Y-44664342D02*
X148461905Y-44759580D01*
X148461905Y-44759580D02*
X148509524Y-44807200D01*
X148509524Y-44807200D02*
X148604762Y-44854819D01*
X148604762Y-44854819D02*
X148795238Y-44854819D01*
X148795238Y-44854819D02*
X148890476Y-44807200D01*
X148890476Y-44807200D02*
X148938095Y-44759580D01*
X148938095Y-44759580D02*
X148985714Y-44664342D01*
X148985714Y-44664342D02*
X148985714Y-44426247D01*
X148985714Y-44426247D02*
X148938095Y-44331009D01*
X148938095Y-44331009D02*
X148890476Y-44283390D01*
X148890476Y-44283390D02*
X148795238Y-44235771D01*
X148795238Y-44235771D02*
X148604762Y-44235771D01*
X148604762Y-44235771D02*
X148509524Y-44283390D01*
X148509524Y-44283390D02*
X148461905Y-44331009D01*
X148461905Y-44331009D02*
X148414286Y-44426247D01*
X175790476Y-43254819D02*
X175790476Y-43969104D01*
X175790476Y-43969104D02*
X175742857Y-44111961D01*
X175742857Y-44111961D02*
X175647619Y-44207200D01*
X175647619Y-44207200D02*
X175504762Y-44254819D01*
X175504762Y-44254819D02*
X175409524Y-44254819D01*
X176790476Y-44254819D02*
X176219048Y-44254819D01*
X176504762Y-44254819D02*
X176504762Y-43254819D01*
X176504762Y-43254819D02*
X176409524Y-43397676D01*
X176409524Y-43397676D02*
X176314286Y-43492914D01*
X176314286Y-43492914D02*
X176219048Y-43540533D01*
X177171429Y-43350057D02*
X177219048Y-43302438D01*
X177219048Y-43302438D02*
X177314286Y-43254819D01*
X177314286Y-43254819D02*
X177552381Y-43254819D01*
X177552381Y-43254819D02*
X177647619Y-43302438D01*
X177647619Y-43302438D02*
X177695238Y-43350057D01*
X177695238Y-43350057D02*
X177742857Y-43445295D01*
X177742857Y-43445295D02*
X177742857Y-43540533D01*
X177742857Y-43540533D02*
X177695238Y-43683390D01*
X177695238Y-43683390D02*
X177123810Y-44254819D01*
X177123810Y-44254819D02*
X177742857Y-44254819D01*
X122723809Y-43778628D02*
X122723809Y-44254819D01*
X122390476Y-43254819D02*
X122723809Y-43778628D01*
X122723809Y-43778628D02*
X123057142Y-43254819D01*
X123914285Y-44254819D02*
X123342857Y-44254819D01*
X123628571Y-44254819D02*
X123628571Y-43254819D01*
X123628571Y-43254819D02*
X123533333Y-43397676D01*
X123533333Y-43397676D02*
X123438095Y-43492914D01*
X123438095Y-43492914D02*
X123342857Y-43540533D01*
X126454819Y-51042857D02*
X125978628Y-51376190D01*
X126454819Y-51614285D02*
X125454819Y-51614285D01*
X125454819Y-51614285D02*
X125454819Y-51233333D01*
X125454819Y-51233333D02*
X125502438Y-51138095D01*
X125502438Y-51138095D02*
X125550057Y-51090476D01*
X125550057Y-51090476D02*
X125645295Y-51042857D01*
X125645295Y-51042857D02*
X125788152Y-51042857D01*
X125788152Y-51042857D02*
X125883390Y-51090476D01*
X125883390Y-51090476D02*
X125931009Y-51138095D01*
X125931009Y-51138095D02*
X125978628Y-51233333D01*
X125978628Y-51233333D02*
X125978628Y-51614285D01*
X126454819Y-50090476D02*
X126454819Y-50661904D01*
X126454819Y-50376190D02*
X125454819Y-50376190D01*
X125454819Y-50376190D02*
X125597676Y-50471428D01*
X125597676Y-50471428D02*
X125692914Y-50566666D01*
X125692914Y-50566666D02*
X125740533Y-50661904D01*
X125454819Y-49233333D02*
X125454819Y-49423809D01*
X125454819Y-49423809D02*
X125502438Y-49519047D01*
X125502438Y-49519047D02*
X125550057Y-49566666D01*
X125550057Y-49566666D02*
X125692914Y-49661904D01*
X125692914Y-49661904D02*
X125883390Y-49709523D01*
X125883390Y-49709523D02*
X126264342Y-49709523D01*
X126264342Y-49709523D02*
X126359580Y-49661904D01*
X126359580Y-49661904D02*
X126407200Y-49614285D01*
X126407200Y-49614285D02*
X126454819Y-49519047D01*
X126454819Y-49519047D02*
X126454819Y-49328571D01*
X126454819Y-49328571D02*
X126407200Y-49233333D01*
X126407200Y-49233333D02*
X126359580Y-49185714D01*
X126359580Y-49185714D02*
X126264342Y-49138095D01*
X126264342Y-49138095D02*
X126026247Y-49138095D01*
X126026247Y-49138095D02*
X125931009Y-49185714D01*
X125931009Y-49185714D02*
X125883390Y-49233333D01*
X125883390Y-49233333D02*
X125835771Y-49328571D01*
X125835771Y-49328571D02*
X125835771Y-49519047D01*
X125835771Y-49519047D02*
X125883390Y-49614285D01*
X125883390Y-49614285D02*
X125931009Y-49661904D01*
X125931009Y-49661904D02*
X126026247Y-49709523D01*
X127054819Y-60042857D02*
X126578628Y-60376190D01*
X127054819Y-60614285D02*
X126054819Y-60614285D01*
X126054819Y-60614285D02*
X126054819Y-60233333D01*
X126054819Y-60233333D02*
X126102438Y-60138095D01*
X126102438Y-60138095D02*
X126150057Y-60090476D01*
X126150057Y-60090476D02*
X126245295Y-60042857D01*
X126245295Y-60042857D02*
X126388152Y-60042857D01*
X126388152Y-60042857D02*
X126483390Y-60090476D01*
X126483390Y-60090476D02*
X126531009Y-60138095D01*
X126531009Y-60138095D02*
X126578628Y-60233333D01*
X126578628Y-60233333D02*
X126578628Y-60614285D01*
X127054819Y-59090476D02*
X127054819Y-59661904D01*
X127054819Y-59376190D02*
X126054819Y-59376190D01*
X126054819Y-59376190D02*
X126197676Y-59471428D01*
X126197676Y-59471428D02*
X126292914Y-59566666D01*
X126292914Y-59566666D02*
X126340533Y-59661904D01*
X126054819Y-58185714D02*
X126054819Y-58661904D01*
X126054819Y-58661904D02*
X126531009Y-58709523D01*
X126531009Y-58709523D02*
X126483390Y-58661904D01*
X126483390Y-58661904D02*
X126435771Y-58566666D01*
X126435771Y-58566666D02*
X126435771Y-58328571D01*
X126435771Y-58328571D02*
X126483390Y-58233333D01*
X126483390Y-58233333D02*
X126531009Y-58185714D01*
X126531009Y-58185714D02*
X126626247Y-58138095D01*
X126626247Y-58138095D02*
X126864342Y-58138095D01*
X126864342Y-58138095D02*
X126959580Y-58185714D01*
X126959580Y-58185714D02*
X127007200Y-58233333D01*
X127007200Y-58233333D02*
X127054819Y-58328571D01*
X127054819Y-58328571D02*
X127054819Y-58566666D01*
X127054819Y-58566666D02*
X127007200Y-58661904D01*
X127007200Y-58661904D02*
X126959580Y-58709523D01*
X122557142Y-52054819D02*
X122223809Y-51578628D01*
X121985714Y-52054819D02*
X121985714Y-51054819D01*
X121985714Y-51054819D02*
X122366666Y-51054819D01*
X122366666Y-51054819D02*
X122461904Y-51102438D01*
X122461904Y-51102438D02*
X122509523Y-51150057D01*
X122509523Y-51150057D02*
X122557142Y-51245295D01*
X122557142Y-51245295D02*
X122557142Y-51388152D01*
X122557142Y-51388152D02*
X122509523Y-51483390D01*
X122509523Y-51483390D02*
X122461904Y-51531009D01*
X122461904Y-51531009D02*
X122366666Y-51578628D01*
X122366666Y-51578628D02*
X121985714Y-51578628D01*
X123509523Y-52054819D02*
X122938095Y-52054819D01*
X123223809Y-52054819D02*
X123223809Y-51054819D01*
X123223809Y-51054819D02*
X123128571Y-51197676D01*
X123128571Y-51197676D02*
X123033333Y-51292914D01*
X123033333Y-51292914D02*
X122938095Y-51340533D01*
X124366666Y-51388152D02*
X124366666Y-52054819D01*
X124128571Y-51007200D02*
X123890476Y-51721485D01*
X123890476Y-51721485D02*
X124509523Y-51721485D01*
X109757142Y-61484819D02*
X109423809Y-61008628D01*
X109185714Y-61484819D02*
X109185714Y-60484819D01*
X109185714Y-60484819D02*
X109566666Y-60484819D01*
X109566666Y-60484819D02*
X109661904Y-60532438D01*
X109661904Y-60532438D02*
X109709523Y-60580057D01*
X109709523Y-60580057D02*
X109757142Y-60675295D01*
X109757142Y-60675295D02*
X109757142Y-60818152D01*
X109757142Y-60818152D02*
X109709523Y-60913390D01*
X109709523Y-60913390D02*
X109661904Y-60961009D01*
X109661904Y-60961009D02*
X109566666Y-61008628D01*
X109566666Y-61008628D02*
X109185714Y-61008628D01*
X110709523Y-61484819D02*
X110138095Y-61484819D01*
X110423809Y-61484819D02*
X110423809Y-60484819D01*
X110423809Y-60484819D02*
X110328571Y-60627676D01*
X110328571Y-60627676D02*
X110233333Y-60722914D01*
X110233333Y-60722914D02*
X110138095Y-60770533D01*
X111090476Y-60580057D02*
X111138095Y-60532438D01*
X111138095Y-60532438D02*
X111233333Y-60484819D01*
X111233333Y-60484819D02*
X111471428Y-60484819D01*
X111471428Y-60484819D02*
X111566666Y-60532438D01*
X111566666Y-60532438D02*
X111614285Y-60580057D01*
X111614285Y-60580057D02*
X111661904Y-60675295D01*
X111661904Y-60675295D02*
X111661904Y-60770533D01*
X111661904Y-60770533D02*
X111614285Y-60913390D01*
X111614285Y-60913390D02*
X111042857Y-61484819D01*
X111042857Y-61484819D02*
X111661904Y-61484819D01*
X115757142Y-49224819D02*
X115423809Y-48748628D01*
X115185714Y-49224819D02*
X115185714Y-48224819D01*
X115185714Y-48224819D02*
X115566666Y-48224819D01*
X115566666Y-48224819D02*
X115661904Y-48272438D01*
X115661904Y-48272438D02*
X115709523Y-48320057D01*
X115709523Y-48320057D02*
X115757142Y-48415295D01*
X115757142Y-48415295D02*
X115757142Y-48558152D01*
X115757142Y-48558152D02*
X115709523Y-48653390D01*
X115709523Y-48653390D02*
X115661904Y-48701009D01*
X115661904Y-48701009D02*
X115566666Y-48748628D01*
X115566666Y-48748628D02*
X115185714Y-48748628D01*
X116709523Y-49224819D02*
X116138095Y-49224819D01*
X116423809Y-49224819D02*
X116423809Y-48224819D01*
X116423809Y-48224819D02*
X116328571Y-48367676D01*
X116328571Y-48367676D02*
X116233333Y-48462914D01*
X116233333Y-48462914D02*
X116138095Y-48510533D01*
X117661904Y-49224819D02*
X117090476Y-49224819D01*
X117376190Y-49224819D02*
X117376190Y-48224819D01*
X117376190Y-48224819D02*
X117280952Y-48367676D01*
X117280952Y-48367676D02*
X117185714Y-48462914D01*
X117185714Y-48462914D02*
X117090476Y-48510533D01*
X123254819Y-37842857D02*
X122778628Y-38176190D01*
X123254819Y-38414285D02*
X122254819Y-38414285D01*
X122254819Y-38414285D02*
X122254819Y-38033333D01*
X122254819Y-38033333D02*
X122302438Y-37938095D01*
X122302438Y-37938095D02*
X122350057Y-37890476D01*
X122350057Y-37890476D02*
X122445295Y-37842857D01*
X122445295Y-37842857D02*
X122588152Y-37842857D01*
X122588152Y-37842857D02*
X122683390Y-37890476D01*
X122683390Y-37890476D02*
X122731009Y-37938095D01*
X122731009Y-37938095D02*
X122778628Y-38033333D01*
X122778628Y-38033333D02*
X122778628Y-38414285D01*
X123254819Y-36890476D02*
X123254819Y-37461904D01*
X123254819Y-37176190D02*
X122254819Y-37176190D01*
X122254819Y-37176190D02*
X122397676Y-37271428D01*
X122397676Y-37271428D02*
X122492914Y-37366666D01*
X122492914Y-37366666D02*
X122540533Y-37461904D01*
X122254819Y-36271428D02*
X122254819Y-36176190D01*
X122254819Y-36176190D02*
X122302438Y-36080952D01*
X122302438Y-36080952D02*
X122350057Y-36033333D01*
X122350057Y-36033333D02*
X122445295Y-35985714D01*
X122445295Y-35985714D02*
X122635771Y-35938095D01*
X122635771Y-35938095D02*
X122873866Y-35938095D01*
X122873866Y-35938095D02*
X123064342Y-35985714D01*
X123064342Y-35985714D02*
X123159580Y-36033333D01*
X123159580Y-36033333D02*
X123207200Y-36080952D01*
X123207200Y-36080952D02*
X123254819Y-36176190D01*
X123254819Y-36176190D02*
X123254819Y-36271428D01*
X123254819Y-36271428D02*
X123207200Y-36366666D01*
X123207200Y-36366666D02*
X123159580Y-36414285D01*
X123159580Y-36414285D02*
X123064342Y-36461904D01*
X123064342Y-36461904D02*
X122873866Y-36509523D01*
X122873866Y-36509523D02*
X122635771Y-36509523D01*
X122635771Y-36509523D02*
X122445295Y-36461904D01*
X122445295Y-36461904D02*
X122350057Y-36414285D01*
X122350057Y-36414285D02*
X122302438Y-36366666D01*
X122302438Y-36366666D02*
X122254819Y-36271428D01*
X105433333Y-32054819D02*
X105100000Y-31578628D01*
X104861905Y-32054819D02*
X104861905Y-31054819D01*
X104861905Y-31054819D02*
X105242857Y-31054819D01*
X105242857Y-31054819D02*
X105338095Y-31102438D01*
X105338095Y-31102438D02*
X105385714Y-31150057D01*
X105385714Y-31150057D02*
X105433333Y-31245295D01*
X105433333Y-31245295D02*
X105433333Y-31388152D01*
X105433333Y-31388152D02*
X105385714Y-31483390D01*
X105385714Y-31483390D02*
X105338095Y-31531009D01*
X105338095Y-31531009D02*
X105242857Y-31578628D01*
X105242857Y-31578628D02*
X104861905Y-31578628D01*
X105909524Y-32054819D02*
X106100000Y-32054819D01*
X106100000Y-32054819D02*
X106195238Y-32007200D01*
X106195238Y-32007200D02*
X106242857Y-31959580D01*
X106242857Y-31959580D02*
X106338095Y-31816723D01*
X106338095Y-31816723D02*
X106385714Y-31626247D01*
X106385714Y-31626247D02*
X106385714Y-31245295D01*
X106385714Y-31245295D02*
X106338095Y-31150057D01*
X106338095Y-31150057D02*
X106290476Y-31102438D01*
X106290476Y-31102438D02*
X106195238Y-31054819D01*
X106195238Y-31054819D02*
X106004762Y-31054819D01*
X106004762Y-31054819D02*
X105909524Y-31102438D01*
X105909524Y-31102438D02*
X105861905Y-31150057D01*
X105861905Y-31150057D02*
X105814286Y-31245295D01*
X105814286Y-31245295D02*
X105814286Y-31483390D01*
X105814286Y-31483390D02*
X105861905Y-31578628D01*
X105861905Y-31578628D02*
X105909524Y-31626247D01*
X105909524Y-31626247D02*
X106004762Y-31673866D01*
X106004762Y-31673866D02*
X106195238Y-31673866D01*
X106195238Y-31673866D02*
X106290476Y-31626247D01*
X106290476Y-31626247D02*
X106338095Y-31578628D01*
X106338095Y-31578628D02*
X106385714Y-31483390D01*
X124697722Y-47159580D02*
X124650103Y-47207200D01*
X124650103Y-47207200D02*
X124507246Y-47254819D01*
X124507246Y-47254819D02*
X124412008Y-47254819D01*
X124412008Y-47254819D02*
X124269151Y-47207200D01*
X124269151Y-47207200D02*
X124173913Y-47111961D01*
X124173913Y-47111961D02*
X124126294Y-47016723D01*
X124126294Y-47016723D02*
X124078675Y-46826247D01*
X124078675Y-46826247D02*
X124078675Y-46683390D01*
X124078675Y-46683390D02*
X124126294Y-46492914D01*
X124126294Y-46492914D02*
X124173913Y-46397676D01*
X124173913Y-46397676D02*
X124269151Y-46302438D01*
X124269151Y-46302438D02*
X124412008Y-46254819D01*
X124412008Y-46254819D02*
X124507246Y-46254819D01*
X124507246Y-46254819D02*
X124650103Y-46302438D01*
X124650103Y-46302438D02*
X124697722Y-46350057D01*
X125650103Y-47254819D02*
X125078675Y-47254819D01*
X125364389Y-47254819D02*
X125364389Y-46254819D01*
X125364389Y-46254819D02*
X125269151Y-46397676D01*
X125269151Y-46397676D02*
X125173913Y-46492914D01*
X125173913Y-46492914D02*
X125078675Y-46540533D01*
X125983437Y-46254819D02*
X126650103Y-46254819D01*
X126650103Y-46254819D02*
X126221532Y-47254819D01*
X130589580Y-57042857D02*
X130637200Y-57090476D01*
X130637200Y-57090476D02*
X130684819Y-57233333D01*
X130684819Y-57233333D02*
X130684819Y-57328571D01*
X130684819Y-57328571D02*
X130637200Y-57471428D01*
X130637200Y-57471428D02*
X130541961Y-57566666D01*
X130541961Y-57566666D02*
X130446723Y-57614285D01*
X130446723Y-57614285D02*
X130256247Y-57661904D01*
X130256247Y-57661904D02*
X130113390Y-57661904D01*
X130113390Y-57661904D02*
X129922914Y-57614285D01*
X129922914Y-57614285D02*
X129827676Y-57566666D01*
X129827676Y-57566666D02*
X129732438Y-57471428D01*
X129732438Y-57471428D02*
X129684819Y-57328571D01*
X129684819Y-57328571D02*
X129684819Y-57233333D01*
X129684819Y-57233333D02*
X129732438Y-57090476D01*
X129732438Y-57090476D02*
X129780057Y-57042857D01*
X130684819Y-56090476D02*
X130684819Y-56661904D01*
X130684819Y-56376190D02*
X129684819Y-56376190D01*
X129684819Y-56376190D02*
X129827676Y-56471428D01*
X129827676Y-56471428D02*
X129922914Y-56566666D01*
X129922914Y-56566666D02*
X129970533Y-56661904D01*
X129684819Y-55233333D02*
X129684819Y-55423809D01*
X129684819Y-55423809D02*
X129732438Y-55519047D01*
X129732438Y-55519047D02*
X129780057Y-55566666D01*
X129780057Y-55566666D02*
X129922914Y-55661904D01*
X129922914Y-55661904D02*
X130113390Y-55709523D01*
X130113390Y-55709523D02*
X130494342Y-55709523D01*
X130494342Y-55709523D02*
X130589580Y-55661904D01*
X130589580Y-55661904D02*
X130637200Y-55614285D01*
X130637200Y-55614285D02*
X130684819Y-55519047D01*
X130684819Y-55519047D02*
X130684819Y-55328571D01*
X130684819Y-55328571D02*
X130637200Y-55233333D01*
X130637200Y-55233333D02*
X130589580Y-55185714D01*
X130589580Y-55185714D02*
X130494342Y-55138095D01*
X130494342Y-55138095D02*
X130256247Y-55138095D01*
X130256247Y-55138095D02*
X130161009Y-55185714D01*
X130161009Y-55185714D02*
X130113390Y-55233333D01*
X130113390Y-55233333D02*
X130065771Y-55328571D01*
X130065771Y-55328571D02*
X130065771Y-55519047D01*
X130065771Y-55519047D02*
X130113390Y-55614285D01*
X130113390Y-55614285D02*
X130161009Y-55661904D01*
X130161009Y-55661904D02*
X130256247Y-55709523D01*
X114957142Y-61389580D02*
X114909523Y-61437200D01*
X114909523Y-61437200D02*
X114766666Y-61484819D01*
X114766666Y-61484819D02*
X114671428Y-61484819D01*
X114671428Y-61484819D02*
X114528571Y-61437200D01*
X114528571Y-61437200D02*
X114433333Y-61341961D01*
X114433333Y-61341961D02*
X114385714Y-61246723D01*
X114385714Y-61246723D02*
X114338095Y-61056247D01*
X114338095Y-61056247D02*
X114338095Y-60913390D01*
X114338095Y-60913390D02*
X114385714Y-60722914D01*
X114385714Y-60722914D02*
X114433333Y-60627676D01*
X114433333Y-60627676D02*
X114528571Y-60532438D01*
X114528571Y-60532438D02*
X114671428Y-60484819D01*
X114671428Y-60484819D02*
X114766666Y-60484819D01*
X114766666Y-60484819D02*
X114909523Y-60532438D01*
X114909523Y-60532438D02*
X114957142Y-60580057D01*
X115909523Y-61484819D02*
X115338095Y-61484819D01*
X115623809Y-61484819D02*
X115623809Y-60484819D01*
X115623809Y-60484819D02*
X115528571Y-60627676D01*
X115528571Y-60627676D02*
X115433333Y-60722914D01*
X115433333Y-60722914D02*
X115338095Y-60770533D01*
X116814285Y-60484819D02*
X116338095Y-60484819D01*
X116338095Y-60484819D02*
X116290476Y-60961009D01*
X116290476Y-60961009D02*
X116338095Y-60913390D01*
X116338095Y-60913390D02*
X116433333Y-60865771D01*
X116433333Y-60865771D02*
X116671428Y-60865771D01*
X116671428Y-60865771D02*
X116766666Y-60913390D01*
X116766666Y-60913390D02*
X116814285Y-60961009D01*
X116814285Y-60961009D02*
X116861904Y-61056247D01*
X116861904Y-61056247D02*
X116861904Y-61294342D01*
X116861904Y-61294342D02*
X116814285Y-61389580D01*
X116814285Y-61389580D02*
X116766666Y-61437200D01*
X116766666Y-61437200D02*
X116671428Y-61484819D01*
X116671428Y-61484819D02*
X116433333Y-61484819D01*
X116433333Y-61484819D02*
X116338095Y-61437200D01*
X116338095Y-61437200D02*
X116290476Y-61389580D01*
X119357142Y-49129580D02*
X119309523Y-49177200D01*
X119309523Y-49177200D02*
X119166666Y-49224819D01*
X119166666Y-49224819D02*
X119071428Y-49224819D01*
X119071428Y-49224819D02*
X118928571Y-49177200D01*
X118928571Y-49177200D02*
X118833333Y-49081961D01*
X118833333Y-49081961D02*
X118785714Y-48986723D01*
X118785714Y-48986723D02*
X118738095Y-48796247D01*
X118738095Y-48796247D02*
X118738095Y-48653390D01*
X118738095Y-48653390D02*
X118785714Y-48462914D01*
X118785714Y-48462914D02*
X118833333Y-48367676D01*
X118833333Y-48367676D02*
X118928571Y-48272438D01*
X118928571Y-48272438D02*
X119071428Y-48224819D01*
X119071428Y-48224819D02*
X119166666Y-48224819D01*
X119166666Y-48224819D02*
X119309523Y-48272438D01*
X119309523Y-48272438D02*
X119357142Y-48320057D01*
X120309523Y-49224819D02*
X119738095Y-49224819D01*
X120023809Y-49224819D02*
X120023809Y-48224819D01*
X120023809Y-48224819D02*
X119928571Y-48367676D01*
X119928571Y-48367676D02*
X119833333Y-48462914D01*
X119833333Y-48462914D02*
X119738095Y-48510533D01*
X121166666Y-48558152D02*
X121166666Y-49224819D01*
X120928571Y-48177200D02*
X120690476Y-48891485D01*
X120690476Y-48891485D02*
X121309523Y-48891485D01*
X163557142Y-44759580D02*
X163509523Y-44807200D01*
X163509523Y-44807200D02*
X163366666Y-44854819D01*
X163366666Y-44854819D02*
X163271428Y-44854819D01*
X163271428Y-44854819D02*
X163128571Y-44807200D01*
X163128571Y-44807200D02*
X163033333Y-44711961D01*
X163033333Y-44711961D02*
X162985714Y-44616723D01*
X162985714Y-44616723D02*
X162938095Y-44426247D01*
X162938095Y-44426247D02*
X162938095Y-44283390D01*
X162938095Y-44283390D02*
X162985714Y-44092914D01*
X162985714Y-44092914D02*
X163033333Y-43997676D01*
X163033333Y-43997676D02*
X163128571Y-43902438D01*
X163128571Y-43902438D02*
X163271428Y-43854819D01*
X163271428Y-43854819D02*
X163366666Y-43854819D01*
X163366666Y-43854819D02*
X163509523Y-43902438D01*
X163509523Y-43902438D02*
X163557142Y-43950057D01*
X164509523Y-44854819D02*
X163938095Y-44854819D01*
X164223809Y-44854819D02*
X164223809Y-43854819D01*
X164223809Y-43854819D02*
X164128571Y-43997676D01*
X164128571Y-43997676D02*
X164033333Y-44092914D01*
X164033333Y-44092914D02*
X163938095Y-44140533D01*
X164842857Y-43854819D02*
X165461904Y-43854819D01*
X165461904Y-43854819D02*
X165128571Y-44235771D01*
X165128571Y-44235771D02*
X165271428Y-44235771D01*
X165271428Y-44235771D02*
X165366666Y-44283390D01*
X165366666Y-44283390D02*
X165414285Y-44331009D01*
X165414285Y-44331009D02*
X165461904Y-44426247D01*
X165461904Y-44426247D02*
X165461904Y-44664342D01*
X165461904Y-44664342D02*
X165414285Y-44759580D01*
X165414285Y-44759580D02*
X165366666Y-44807200D01*
X165366666Y-44807200D02*
X165271428Y-44854819D01*
X165271428Y-44854819D02*
X164985714Y-44854819D01*
X164985714Y-44854819D02*
X164890476Y-44807200D01*
X164890476Y-44807200D02*
X164842857Y-44759580D01*
X121159580Y-67442857D02*
X121207200Y-67490476D01*
X121207200Y-67490476D02*
X121254819Y-67633333D01*
X121254819Y-67633333D02*
X121254819Y-67728571D01*
X121254819Y-67728571D02*
X121207200Y-67871428D01*
X121207200Y-67871428D02*
X121111961Y-67966666D01*
X121111961Y-67966666D02*
X121016723Y-68014285D01*
X121016723Y-68014285D02*
X120826247Y-68061904D01*
X120826247Y-68061904D02*
X120683390Y-68061904D01*
X120683390Y-68061904D02*
X120492914Y-68014285D01*
X120492914Y-68014285D02*
X120397676Y-67966666D01*
X120397676Y-67966666D02*
X120302438Y-67871428D01*
X120302438Y-67871428D02*
X120254819Y-67728571D01*
X120254819Y-67728571D02*
X120254819Y-67633333D01*
X120254819Y-67633333D02*
X120302438Y-67490476D01*
X120302438Y-67490476D02*
X120350057Y-67442857D01*
X121254819Y-66490476D02*
X121254819Y-67061904D01*
X121254819Y-66776190D02*
X120254819Y-66776190D01*
X120254819Y-66776190D02*
X120397676Y-66871428D01*
X120397676Y-66871428D02*
X120492914Y-66966666D01*
X120492914Y-66966666D02*
X120540533Y-67061904D01*
X120350057Y-66109523D02*
X120302438Y-66061904D01*
X120302438Y-66061904D02*
X120254819Y-65966666D01*
X120254819Y-65966666D02*
X120254819Y-65728571D01*
X120254819Y-65728571D02*
X120302438Y-65633333D01*
X120302438Y-65633333D02*
X120350057Y-65585714D01*
X120350057Y-65585714D02*
X120445295Y-65538095D01*
X120445295Y-65538095D02*
X120540533Y-65538095D01*
X120540533Y-65538095D02*
X120683390Y-65585714D01*
X120683390Y-65585714D02*
X121254819Y-66157142D01*
X121254819Y-66157142D02*
X121254819Y-65538095D01*
X117959580Y-64242857D02*
X118007200Y-64290476D01*
X118007200Y-64290476D02*
X118054819Y-64433333D01*
X118054819Y-64433333D02*
X118054819Y-64528571D01*
X118054819Y-64528571D02*
X118007200Y-64671428D01*
X118007200Y-64671428D02*
X117911961Y-64766666D01*
X117911961Y-64766666D02*
X117816723Y-64814285D01*
X117816723Y-64814285D02*
X117626247Y-64861904D01*
X117626247Y-64861904D02*
X117483390Y-64861904D01*
X117483390Y-64861904D02*
X117292914Y-64814285D01*
X117292914Y-64814285D02*
X117197676Y-64766666D01*
X117197676Y-64766666D02*
X117102438Y-64671428D01*
X117102438Y-64671428D02*
X117054819Y-64528571D01*
X117054819Y-64528571D02*
X117054819Y-64433333D01*
X117054819Y-64433333D02*
X117102438Y-64290476D01*
X117102438Y-64290476D02*
X117150057Y-64242857D01*
X118054819Y-63290476D02*
X118054819Y-63861904D01*
X118054819Y-63576190D02*
X117054819Y-63576190D01*
X117054819Y-63576190D02*
X117197676Y-63671428D01*
X117197676Y-63671428D02*
X117292914Y-63766666D01*
X117292914Y-63766666D02*
X117340533Y-63861904D01*
X118054819Y-62338095D02*
X118054819Y-62909523D01*
X118054819Y-62623809D02*
X117054819Y-62623809D01*
X117054819Y-62623809D02*
X117197676Y-62719047D01*
X117197676Y-62719047D02*
X117292914Y-62814285D01*
X117292914Y-62814285D02*
X117340533Y-62909523D01*
X102357142Y-43759580D02*
X102309523Y-43807200D01*
X102309523Y-43807200D02*
X102166666Y-43854819D01*
X102166666Y-43854819D02*
X102071428Y-43854819D01*
X102071428Y-43854819D02*
X101928571Y-43807200D01*
X101928571Y-43807200D02*
X101833333Y-43711961D01*
X101833333Y-43711961D02*
X101785714Y-43616723D01*
X101785714Y-43616723D02*
X101738095Y-43426247D01*
X101738095Y-43426247D02*
X101738095Y-43283390D01*
X101738095Y-43283390D02*
X101785714Y-43092914D01*
X101785714Y-43092914D02*
X101833333Y-42997676D01*
X101833333Y-42997676D02*
X101928571Y-42902438D01*
X101928571Y-42902438D02*
X102071428Y-42854819D01*
X102071428Y-42854819D02*
X102166666Y-42854819D01*
X102166666Y-42854819D02*
X102309523Y-42902438D01*
X102309523Y-42902438D02*
X102357142Y-42950057D01*
X103309523Y-43854819D02*
X102738095Y-43854819D01*
X103023809Y-43854819D02*
X103023809Y-42854819D01*
X103023809Y-42854819D02*
X102928571Y-42997676D01*
X102928571Y-42997676D02*
X102833333Y-43092914D01*
X102833333Y-43092914D02*
X102738095Y-43140533D01*
X103928571Y-42854819D02*
X104023809Y-42854819D01*
X104023809Y-42854819D02*
X104119047Y-42902438D01*
X104119047Y-42902438D02*
X104166666Y-42950057D01*
X104166666Y-42950057D02*
X104214285Y-43045295D01*
X104214285Y-43045295D02*
X104261904Y-43235771D01*
X104261904Y-43235771D02*
X104261904Y-43473866D01*
X104261904Y-43473866D02*
X104214285Y-43664342D01*
X104214285Y-43664342D02*
X104166666Y-43759580D01*
X104166666Y-43759580D02*
X104119047Y-43807200D01*
X104119047Y-43807200D02*
X104023809Y-43854819D01*
X104023809Y-43854819D02*
X103928571Y-43854819D01*
X103928571Y-43854819D02*
X103833333Y-43807200D01*
X103833333Y-43807200D02*
X103785714Y-43759580D01*
X103785714Y-43759580D02*
X103738095Y-43664342D01*
X103738095Y-43664342D02*
X103690476Y-43473866D01*
X103690476Y-43473866D02*
X103690476Y-43235771D01*
X103690476Y-43235771D02*
X103738095Y-43045295D01*
X103738095Y-43045295D02*
X103785714Y-42950057D01*
X103785714Y-42950057D02*
X103833333Y-42902438D01*
X103833333Y-42902438D02*
X103928571Y-42854819D01*
X87666667Y-53607200D02*
X87809524Y-53654819D01*
X87809524Y-53654819D02*
X88047619Y-53654819D01*
X88047619Y-53654819D02*
X88142857Y-53607200D01*
X88142857Y-53607200D02*
X88190476Y-53559580D01*
X88190476Y-53559580D02*
X88238095Y-53464342D01*
X88238095Y-53464342D02*
X88238095Y-53369104D01*
X88238095Y-53369104D02*
X88190476Y-53273866D01*
X88190476Y-53273866D02*
X88142857Y-53226247D01*
X88142857Y-53226247D02*
X88047619Y-53178628D01*
X88047619Y-53178628D02*
X87857143Y-53131009D01*
X87857143Y-53131009D02*
X87761905Y-53083390D01*
X87761905Y-53083390D02*
X87714286Y-53035771D01*
X87714286Y-53035771D02*
X87666667Y-52940533D01*
X87666667Y-52940533D02*
X87666667Y-52845295D01*
X87666667Y-52845295D02*
X87714286Y-52750057D01*
X87714286Y-52750057D02*
X87761905Y-52702438D01*
X87761905Y-52702438D02*
X87857143Y-52654819D01*
X87857143Y-52654819D02*
X88095238Y-52654819D01*
X88095238Y-52654819D02*
X88238095Y-52702438D01*
X88571429Y-52654819D02*
X88809524Y-53654819D01*
X88809524Y-53654819D02*
X89000000Y-52940533D01*
X89000000Y-52940533D02*
X89190476Y-53654819D01*
X89190476Y-53654819D02*
X89428572Y-52654819D01*
X90333333Y-53654819D02*
X89761905Y-53654819D01*
X90047619Y-53654819D02*
X90047619Y-52654819D01*
X90047619Y-52654819D02*
X89952381Y-52797676D01*
X89952381Y-52797676D02*
X89857143Y-52892914D01*
X89857143Y-52892914D02*
X89761905Y-52940533D01*
X108633333Y-32054819D02*
X108300000Y-31578628D01*
X108061905Y-32054819D02*
X108061905Y-31054819D01*
X108061905Y-31054819D02*
X108442857Y-31054819D01*
X108442857Y-31054819D02*
X108538095Y-31102438D01*
X108538095Y-31102438D02*
X108585714Y-31150057D01*
X108585714Y-31150057D02*
X108633333Y-31245295D01*
X108633333Y-31245295D02*
X108633333Y-31388152D01*
X108633333Y-31388152D02*
X108585714Y-31483390D01*
X108585714Y-31483390D02*
X108538095Y-31531009D01*
X108538095Y-31531009D02*
X108442857Y-31578628D01*
X108442857Y-31578628D02*
X108061905Y-31578628D01*
X109204762Y-31483390D02*
X109109524Y-31435771D01*
X109109524Y-31435771D02*
X109061905Y-31388152D01*
X109061905Y-31388152D02*
X109014286Y-31292914D01*
X109014286Y-31292914D02*
X109014286Y-31245295D01*
X109014286Y-31245295D02*
X109061905Y-31150057D01*
X109061905Y-31150057D02*
X109109524Y-31102438D01*
X109109524Y-31102438D02*
X109204762Y-31054819D01*
X109204762Y-31054819D02*
X109395238Y-31054819D01*
X109395238Y-31054819D02*
X109490476Y-31102438D01*
X109490476Y-31102438D02*
X109538095Y-31150057D01*
X109538095Y-31150057D02*
X109585714Y-31245295D01*
X109585714Y-31245295D02*
X109585714Y-31292914D01*
X109585714Y-31292914D02*
X109538095Y-31388152D01*
X109538095Y-31388152D02*
X109490476Y-31435771D01*
X109490476Y-31435771D02*
X109395238Y-31483390D01*
X109395238Y-31483390D02*
X109204762Y-31483390D01*
X109204762Y-31483390D02*
X109109524Y-31531009D01*
X109109524Y-31531009D02*
X109061905Y-31578628D01*
X109061905Y-31578628D02*
X109014286Y-31673866D01*
X109014286Y-31673866D02*
X109014286Y-31864342D01*
X109014286Y-31864342D02*
X109061905Y-31959580D01*
X109061905Y-31959580D02*
X109109524Y-32007200D01*
X109109524Y-32007200D02*
X109204762Y-32054819D01*
X109204762Y-32054819D02*
X109395238Y-32054819D01*
X109395238Y-32054819D02*
X109490476Y-32007200D01*
X109490476Y-32007200D02*
X109538095Y-31959580D01*
X109538095Y-31959580D02*
X109585714Y-31864342D01*
X109585714Y-31864342D02*
X109585714Y-31673866D01*
X109585714Y-31673866D02*
X109538095Y-31578628D01*
X109538095Y-31578628D02*
X109490476Y-31531009D01*
X109490476Y-31531009D02*
X109395238Y-31483390D01*
X122833333Y-40054819D02*
X122500000Y-39578628D01*
X122261905Y-40054819D02*
X122261905Y-39054819D01*
X122261905Y-39054819D02*
X122642857Y-39054819D01*
X122642857Y-39054819D02*
X122738095Y-39102438D01*
X122738095Y-39102438D02*
X122785714Y-39150057D01*
X122785714Y-39150057D02*
X122833333Y-39245295D01*
X122833333Y-39245295D02*
X122833333Y-39388152D01*
X122833333Y-39388152D02*
X122785714Y-39483390D01*
X122785714Y-39483390D02*
X122738095Y-39531009D01*
X122738095Y-39531009D02*
X122642857Y-39578628D01*
X122642857Y-39578628D02*
X122261905Y-39578628D01*
X123166667Y-39054819D02*
X123833333Y-39054819D01*
X123833333Y-39054819D02*
X123404762Y-40054819D01*
X105433333Y-40054819D02*
X105100000Y-39578628D01*
X104861905Y-40054819D02*
X104861905Y-39054819D01*
X104861905Y-39054819D02*
X105242857Y-39054819D01*
X105242857Y-39054819D02*
X105338095Y-39102438D01*
X105338095Y-39102438D02*
X105385714Y-39150057D01*
X105385714Y-39150057D02*
X105433333Y-39245295D01*
X105433333Y-39245295D02*
X105433333Y-39388152D01*
X105433333Y-39388152D02*
X105385714Y-39483390D01*
X105385714Y-39483390D02*
X105338095Y-39531009D01*
X105338095Y-39531009D02*
X105242857Y-39578628D01*
X105242857Y-39578628D02*
X104861905Y-39578628D01*
X106290476Y-39054819D02*
X106100000Y-39054819D01*
X106100000Y-39054819D02*
X106004762Y-39102438D01*
X106004762Y-39102438D02*
X105957143Y-39150057D01*
X105957143Y-39150057D02*
X105861905Y-39292914D01*
X105861905Y-39292914D02*
X105814286Y-39483390D01*
X105814286Y-39483390D02*
X105814286Y-39864342D01*
X105814286Y-39864342D02*
X105861905Y-39959580D01*
X105861905Y-39959580D02*
X105909524Y-40007200D01*
X105909524Y-40007200D02*
X106004762Y-40054819D01*
X106004762Y-40054819D02*
X106195238Y-40054819D01*
X106195238Y-40054819D02*
X106290476Y-40007200D01*
X106290476Y-40007200D02*
X106338095Y-39959580D01*
X106338095Y-39959580D02*
X106385714Y-39864342D01*
X106385714Y-39864342D02*
X106385714Y-39626247D01*
X106385714Y-39626247D02*
X106338095Y-39531009D01*
X106338095Y-39531009D02*
X106290476Y-39483390D01*
X106290476Y-39483390D02*
X106195238Y-39435771D01*
X106195238Y-39435771D02*
X106004762Y-39435771D01*
X106004762Y-39435771D02*
X105909524Y-39483390D01*
X105909524Y-39483390D02*
X105861905Y-39531009D01*
X105861905Y-39531009D02*
X105814286Y-39626247D01*
X155033333Y-48854819D02*
X154700000Y-48378628D01*
X154461905Y-48854819D02*
X154461905Y-47854819D01*
X154461905Y-47854819D02*
X154842857Y-47854819D01*
X154842857Y-47854819D02*
X154938095Y-47902438D01*
X154938095Y-47902438D02*
X154985714Y-47950057D01*
X154985714Y-47950057D02*
X155033333Y-48045295D01*
X155033333Y-48045295D02*
X155033333Y-48188152D01*
X155033333Y-48188152D02*
X154985714Y-48283390D01*
X154985714Y-48283390D02*
X154938095Y-48331009D01*
X154938095Y-48331009D02*
X154842857Y-48378628D01*
X154842857Y-48378628D02*
X154461905Y-48378628D01*
X155938095Y-47854819D02*
X155461905Y-47854819D01*
X155461905Y-47854819D02*
X155414286Y-48331009D01*
X155414286Y-48331009D02*
X155461905Y-48283390D01*
X155461905Y-48283390D02*
X155557143Y-48235771D01*
X155557143Y-48235771D02*
X155795238Y-48235771D01*
X155795238Y-48235771D02*
X155890476Y-48283390D01*
X155890476Y-48283390D02*
X155938095Y-48331009D01*
X155938095Y-48331009D02*
X155985714Y-48426247D01*
X155985714Y-48426247D02*
X155985714Y-48664342D01*
X155985714Y-48664342D02*
X155938095Y-48759580D01*
X155938095Y-48759580D02*
X155890476Y-48807200D01*
X155890476Y-48807200D02*
X155795238Y-48854819D01*
X155795238Y-48854819D02*
X155557143Y-48854819D01*
X155557143Y-48854819D02*
X155461905Y-48807200D01*
X155461905Y-48807200D02*
X155414286Y-48759580D01*
X105433333Y-37054819D02*
X105100000Y-36578628D01*
X104861905Y-37054819D02*
X104861905Y-36054819D01*
X104861905Y-36054819D02*
X105242857Y-36054819D01*
X105242857Y-36054819D02*
X105338095Y-36102438D01*
X105338095Y-36102438D02*
X105385714Y-36150057D01*
X105385714Y-36150057D02*
X105433333Y-36245295D01*
X105433333Y-36245295D02*
X105433333Y-36388152D01*
X105433333Y-36388152D02*
X105385714Y-36483390D01*
X105385714Y-36483390D02*
X105338095Y-36531009D01*
X105338095Y-36531009D02*
X105242857Y-36578628D01*
X105242857Y-36578628D02*
X104861905Y-36578628D01*
X105766667Y-36054819D02*
X106385714Y-36054819D01*
X106385714Y-36054819D02*
X106052381Y-36435771D01*
X106052381Y-36435771D02*
X106195238Y-36435771D01*
X106195238Y-36435771D02*
X106290476Y-36483390D01*
X106290476Y-36483390D02*
X106338095Y-36531009D01*
X106338095Y-36531009D02*
X106385714Y-36626247D01*
X106385714Y-36626247D02*
X106385714Y-36864342D01*
X106385714Y-36864342D02*
X106338095Y-36959580D01*
X106338095Y-36959580D02*
X106290476Y-37007200D01*
X106290476Y-37007200D02*
X106195238Y-37054819D01*
X106195238Y-37054819D02*
X105909524Y-37054819D01*
X105909524Y-37054819D02*
X105814286Y-37007200D01*
X105814286Y-37007200D02*
X105766667Y-36959580D01*
X97033333Y-33654819D02*
X96557143Y-33654819D01*
X96557143Y-33654819D02*
X96557143Y-32654819D01*
X97890476Y-33654819D02*
X97319048Y-33654819D01*
X97604762Y-33654819D02*
X97604762Y-32654819D01*
X97604762Y-32654819D02*
X97509524Y-32797676D01*
X97509524Y-32797676D02*
X97414286Y-32892914D01*
X97414286Y-32892914D02*
X97319048Y-32940533D01*
X88816905Y-55854819D02*
X88816905Y-54854819D01*
X88816905Y-54854819D02*
X89055000Y-54854819D01*
X89055000Y-54854819D02*
X89197857Y-54902438D01*
X89197857Y-54902438D02*
X89293095Y-54997676D01*
X89293095Y-54997676D02*
X89340714Y-55092914D01*
X89340714Y-55092914D02*
X89388333Y-55283390D01*
X89388333Y-55283390D02*
X89388333Y-55426247D01*
X89388333Y-55426247D02*
X89340714Y-55616723D01*
X89340714Y-55616723D02*
X89293095Y-55711961D01*
X89293095Y-55711961D02*
X89197857Y-55807200D01*
X89197857Y-55807200D02*
X89055000Y-55854819D01*
X89055000Y-55854819D02*
X88816905Y-55854819D01*
X89721667Y-54854819D02*
X90340714Y-54854819D01*
X90340714Y-54854819D02*
X90007381Y-55235771D01*
X90007381Y-55235771D02*
X90150238Y-55235771D01*
X90150238Y-55235771D02*
X90245476Y-55283390D01*
X90245476Y-55283390D02*
X90293095Y-55331009D01*
X90293095Y-55331009D02*
X90340714Y-55426247D01*
X90340714Y-55426247D02*
X90340714Y-55664342D01*
X90340714Y-55664342D02*
X90293095Y-55759580D01*
X90293095Y-55759580D02*
X90245476Y-55807200D01*
X90245476Y-55807200D02*
X90150238Y-55854819D01*
X90150238Y-55854819D02*
X89864524Y-55854819D01*
X89864524Y-55854819D02*
X89769286Y-55807200D01*
X89769286Y-55807200D02*
X89721667Y-55759580D01*
X120233333Y-33929580D02*
X120185714Y-33977200D01*
X120185714Y-33977200D02*
X120042857Y-34024819D01*
X120042857Y-34024819D02*
X119947619Y-34024819D01*
X119947619Y-34024819D02*
X119804762Y-33977200D01*
X119804762Y-33977200D02*
X119709524Y-33881961D01*
X119709524Y-33881961D02*
X119661905Y-33786723D01*
X119661905Y-33786723D02*
X119614286Y-33596247D01*
X119614286Y-33596247D02*
X119614286Y-33453390D01*
X119614286Y-33453390D02*
X119661905Y-33262914D01*
X119661905Y-33262914D02*
X119709524Y-33167676D01*
X119709524Y-33167676D02*
X119804762Y-33072438D01*
X119804762Y-33072438D02*
X119947619Y-33024819D01*
X119947619Y-33024819D02*
X120042857Y-33024819D01*
X120042857Y-33024819D02*
X120185714Y-33072438D01*
X120185714Y-33072438D02*
X120233333Y-33120057D01*
X120709524Y-34024819D02*
X120900000Y-34024819D01*
X120900000Y-34024819D02*
X120995238Y-33977200D01*
X120995238Y-33977200D02*
X121042857Y-33929580D01*
X121042857Y-33929580D02*
X121138095Y-33786723D01*
X121138095Y-33786723D02*
X121185714Y-33596247D01*
X121185714Y-33596247D02*
X121185714Y-33215295D01*
X121185714Y-33215295D02*
X121138095Y-33120057D01*
X121138095Y-33120057D02*
X121090476Y-33072438D01*
X121090476Y-33072438D02*
X120995238Y-33024819D01*
X120995238Y-33024819D02*
X120804762Y-33024819D01*
X120804762Y-33024819D02*
X120709524Y-33072438D01*
X120709524Y-33072438D02*
X120661905Y-33120057D01*
X120661905Y-33120057D02*
X120614286Y-33215295D01*
X120614286Y-33215295D02*
X120614286Y-33453390D01*
X120614286Y-33453390D02*
X120661905Y-33548628D01*
X120661905Y-33548628D02*
X120709524Y-33596247D01*
X120709524Y-33596247D02*
X120804762Y-33643866D01*
X120804762Y-33643866D02*
X120995238Y-33643866D01*
X120995238Y-33643866D02*
X121090476Y-33596247D01*
X121090476Y-33596247D02*
X121138095Y-33548628D01*
X121138095Y-33548628D02*
X121185714Y-33453390D01*
X112633333Y-62129580D02*
X112585714Y-62177200D01*
X112585714Y-62177200D02*
X112442857Y-62224819D01*
X112442857Y-62224819D02*
X112347619Y-62224819D01*
X112347619Y-62224819D02*
X112204762Y-62177200D01*
X112204762Y-62177200D02*
X112109524Y-62081961D01*
X112109524Y-62081961D02*
X112061905Y-61986723D01*
X112061905Y-61986723D02*
X112014286Y-61796247D01*
X112014286Y-61796247D02*
X112014286Y-61653390D01*
X112014286Y-61653390D02*
X112061905Y-61462914D01*
X112061905Y-61462914D02*
X112109524Y-61367676D01*
X112109524Y-61367676D02*
X112204762Y-61272438D01*
X112204762Y-61272438D02*
X112347619Y-61224819D01*
X112347619Y-61224819D02*
X112442857Y-61224819D01*
X112442857Y-61224819D02*
X112585714Y-61272438D01*
X112585714Y-61272438D02*
X112633333Y-61320057D01*
X113204762Y-61653390D02*
X113109524Y-61605771D01*
X113109524Y-61605771D02*
X113061905Y-61558152D01*
X113061905Y-61558152D02*
X113014286Y-61462914D01*
X113014286Y-61462914D02*
X113014286Y-61415295D01*
X113014286Y-61415295D02*
X113061905Y-61320057D01*
X113061905Y-61320057D02*
X113109524Y-61272438D01*
X113109524Y-61272438D02*
X113204762Y-61224819D01*
X113204762Y-61224819D02*
X113395238Y-61224819D01*
X113395238Y-61224819D02*
X113490476Y-61272438D01*
X113490476Y-61272438D02*
X113538095Y-61320057D01*
X113538095Y-61320057D02*
X113585714Y-61415295D01*
X113585714Y-61415295D02*
X113585714Y-61462914D01*
X113585714Y-61462914D02*
X113538095Y-61558152D01*
X113538095Y-61558152D02*
X113490476Y-61605771D01*
X113490476Y-61605771D02*
X113395238Y-61653390D01*
X113395238Y-61653390D02*
X113204762Y-61653390D01*
X113204762Y-61653390D02*
X113109524Y-61701009D01*
X113109524Y-61701009D02*
X113061905Y-61748628D01*
X113061905Y-61748628D02*
X113014286Y-61843866D01*
X113014286Y-61843866D02*
X113014286Y-62034342D01*
X113014286Y-62034342D02*
X113061905Y-62129580D01*
X113061905Y-62129580D02*
X113109524Y-62177200D01*
X113109524Y-62177200D02*
X113204762Y-62224819D01*
X113204762Y-62224819D02*
X113395238Y-62224819D01*
X113395238Y-62224819D02*
X113490476Y-62177200D01*
X113490476Y-62177200D02*
X113538095Y-62129580D01*
X113538095Y-62129580D02*
X113585714Y-62034342D01*
X113585714Y-62034342D02*
X113585714Y-61843866D01*
X113585714Y-61843866D02*
X113538095Y-61748628D01*
X113538095Y-61748628D02*
X113490476Y-61701009D01*
X113490476Y-61701009D02*
X113395238Y-61653390D01*
X116033333Y-33159580D02*
X115985714Y-33207200D01*
X115985714Y-33207200D02*
X115842857Y-33254819D01*
X115842857Y-33254819D02*
X115747619Y-33254819D01*
X115747619Y-33254819D02*
X115604762Y-33207200D01*
X115604762Y-33207200D02*
X115509524Y-33111961D01*
X115509524Y-33111961D02*
X115461905Y-33016723D01*
X115461905Y-33016723D02*
X115414286Y-32826247D01*
X115414286Y-32826247D02*
X115414286Y-32683390D01*
X115414286Y-32683390D02*
X115461905Y-32492914D01*
X115461905Y-32492914D02*
X115509524Y-32397676D01*
X115509524Y-32397676D02*
X115604762Y-32302438D01*
X115604762Y-32302438D02*
X115747619Y-32254819D01*
X115747619Y-32254819D02*
X115842857Y-32254819D01*
X115842857Y-32254819D02*
X115985714Y-32302438D01*
X115985714Y-32302438D02*
X116033333Y-32350057D01*
X116938095Y-32254819D02*
X116461905Y-32254819D01*
X116461905Y-32254819D02*
X116414286Y-32731009D01*
X116414286Y-32731009D02*
X116461905Y-32683390D01*
X116461905Y-32683390D02*
X116557143Y-32635771D01*
X116557143Y-32635771D02*
X116795238Y-32635771D01*
X116795238Y-32635771D02*
X116890476Y-32683390D01*
X116890476Y-32683390D02*
X116938095Y-32731009D01*
X116938095Y-32731009D02*
X116985714Y-32826247D01*
X116985714Y-32826247D02*
X116985714Y-33064342D01*
X116985714Y-33064342D02*
X116938095Y-33159580D01*
X116938095Y-33159580D02*
X116890476Y-33207200D01*
X116890476Y-33207200D02*
X116795238Y-33254819D01*
X116795238Y-33254819D02*
X116557143Y-33254819D01*
X116557143Y-33254819D02*
X116461905Y-33207200D01*
X116461905Y-33207200D02*
X116414286Y-33159580D01*
X112033333Y-44929580D02*
X111985714Y-44977200D01*
X111985714Y-44977200D02*
X111842857Y-45024819D01*
X111842857Y-45024819D02*
X111747619Y-45024819D01*
X111747619Y-45024819D02*
X111604762Y-44977200D01*
X111604762Y-44977200D02*
X111509524Y-44881961D01*
X111509524Y-44881961D02*
X111461905Y-44786723D01*
X111461905Y-44786723D02*
X111414286Y-44596247D01*
X111414286Y-44596247D02*
X111414286Y-44453390D01*
X111414286Y-44453390D02*
X111461905Y-44262914D01*
X111461905Y-44262914D02*
X111509524Y-44167676D01*
X111509524Y-44167676D02*
X111604762Y-44072438D01*
X111604762Y-44072438D02*
X111747619Y-44024819D01*
X111747619Y-44024819D02*
X111842857Y-44024819D01*
X111842857Y-44024819D02*
X111985714Y-44072438D01*
X111985714Y-44072438D02*
X112033333Y-44120057D01*
X112890476Y-44358152D02*
X112890476Y-45024819D01*
X112652381Y-43977200D02*
X112414286Y-44691485D01*
X112414286Y-44691485D02*
X113033333Y-44691485D01*
X97633333Y-42359580D02*
X97585714Y-42407200D01*
X97585714Y-42407200D02*
X97442857Y-42454819D01*
X97442857Y-42454819D02*
X97347619Y-42454819D01*
X97347619Y-42454819D02*
X97204762Y-42407200D01*
X97204762Y-42407200D02*
X97109524Y-42311961D01*
X97109524Y-42311961D02*
X97061905Y-42216723D01*
X97061905Y-42216723D02*
X97014286Y-42026247D01*
X97014286Y-42026247D02*
X97014286Y-41883390D01*
X97014286Y-41883390D02*
X97061905Y-41692914D01*
X97061905Y-41692914D02*
X97109524Y-41597676D01*
X97109524Y-41597676D02*
X97204762Y-41502438D01*
X97204762Y-41502438D02*
X97347619Y-41454819D01*
X97347619Y-41454819D02*
X97442857Y-41454819D01*
X97442857Y-41454819D02*
X97585714Y-41502438D01*
X97585714Y-41502438D02*
X97633333Y-41550057D01*
X97966667Y-41454819D02*
X98585714Y-41454819D01*
X98585714Y-41454819D02*
X98252381Y-41835771D01*
X98252381Y-41835771D02*
X98395238Y-41835771D01*
X98395238Y-41835771D02*
X98490476Y-41883390D01*
X98490476Y-41883390D02*
X98538095Y-41931009D01*
X98538095Y-41931009D02*
X98585714Y-42026247D01*
X98585714Y-42026247D02*
X98585714Y-42264342D01*
X98585714Y-42264342D02*
X98538095Y-42359580D01*
X98538095Y-42359580D02*
X98490476Y-42407200D01*
X98490476Y-42407200D02*
X98395238Y-42454819D01*
X98395238Y-42454819D02*
X98109524Y-42454819D01*
X98109524Y-42454819D02*
X98014286Y-42407200D01*
X98014286Y-42407200D02*
X97966667Y-42359580D01*
X81559580Y-44366666D02*
X81607200Y-44414285D01*
X81607200Y-44414285D02*
X81654819Y-44557142D01*
X81654819Y-44557142D02*
X81654819Y-44652380D01*
X81654819Y-44652380D02*
X81607200Y-44795237D01*
X81607200Y-44795237D02*
X81511961Y-44890475D01*
X81511961Y-44890475D02*
X81416723Y-44938094D01*
X81416723Y-44938094D02*
X81226247Y-44985713D01*
X81226247Y-44985713D02*
X81083390Y-44985713D01*
X81083390Y-44985713D02*
X80892914Y-44938094D01*
X80892914Y-44938094D02*
X80797676Y-44890475D01*
X80797676Y-44890475D02*
X80702438Y-44795237D01*
X80702438Y-44795237D02*
X80654819Y-44652380D01*
X80654819Y-44652380D02*
X80654819Y-44557142D01*
X80654819Y-44557142D02*
X80702438Y-44414285D01*
X80702438Y-44414285D02*
X80750057Y-44366666D01*
X80750057Y-43985713D02*
X80702438Y-43938094D01*
X80702438Y-43938094D02*
X80654819Y-43842856D01*
X80654819Y-43842856D02*
X80654819Y-43604761D01*
X80654819Y-43604761D02*
X80702438Y-43509523D01*
X80702438Y-43509523D02*
X80750057Y-43461904D01*
X80750057Y-43461904D02*
X80845295Y-43414285D01*
X80845295Y-43414285D02*
X80940533Y-43414285D01*
X80940533Y-43414285D02*
X81083390Y-43461904D01*
X81083390Y-43461904D02*
X81654819Y-44033332D01*
X81654819Y-44033332D02*
X81654819Y-43414285D01*
X132233333Y-44759580D02*
X132185714Y-44807200D01*
X132185714Y-44807200D02*
X132042857Y-44854819D01*
X132042857Y-44854819D02*
X131947619Y-44854819D01*
X131947619Y-44854819D02*
X131804762Y-44807200D01*
X131804762Y-44807200D02*
X131709524Y-44711961D01*
X131709524Y-44711961D02*
X131661905Y-44616723D01*
X131661905Y-44616723D02*
X131614286Y-44426247D01*
X131614286Y-44426247D02*
X131614286Y-44283390D01*
X131614286Y-44283390D02*
X131661905Y-44092914D01*
X131661905Y-44092914D02*
X131709524Y-43997676D01*
X131709524Y-43997676D02*
X131804762Y-43902438D01*
X131804762Y-43902438D02*
X131947619Y-43854819D01*
X131947619Y-43854819D02*
X132042857Y-43854819D01*
X132042857Y-43854819D02*
X132185714Y-43902438D01*
X132185714Y-43902438D02*
X132233333Y-43950057D01*
X133185714Y-44854819D02*
X132614286Y-44854819D01*
X132900000Y-44854819D02*
X132900000Y-43854819D01*
X132900000Y-43854819D02*
X132804762Y-43997676D01*
X132804762Y-43997676D02*
X132709524Y-44092914D01*
X132709524Y-44092914D02*
X132614286Y-44140533D01*
X87438095Y-32254819D02*
X87438095Y-33064342D01*
X87438095Y-33064342D02*
X87485714Y-33159580D01*
X87485714Y-33159580D02*
X87533333Y-33207200D01*
X87533333Y-33207200D02*
X87628571Y-33254819D01*
X87628571Y-33254819D02*
X87819047Y-33254819D01*
X87819047Y-33254819D02*
X87914285Y-33207200D01*
X87914285Y-33207200D02*
X87961904Y-33159580D01*
X87961904Y-33159580D02*
X88009523Y-33064342D01*
X88009523Y-33064342D02*
X88009523Y-32254819D01*
X88438095Y-32350057D02*
X88485714Y-32302438D01*
X88485714Y-32302438D02*
X88580952Y-32254819D01*
X88580952Y-32254819D02*
X88819047Y-32254819D01*
X88819047Y-32254819D02*
X88914285Y-32302438D01*
X88914285Y-32302438D02*
X88961904Y-32350057D01*
X88961904Y-32350057D02*
X89009523Y-32445295D01*
X89009523Y-32445295D02*
X89009523Y-32540533D01*
X89009523Y-32540533D02*
X88961904Y-32683390D01*
X88961904Y-32683390D02*
X88390476Y-33254819D01*
X88390476Y-33254819D02*
X89009523Y-33254819D01*
D13*
%TO.C,Q2*%
X125850000Y-55690000D02*
X125580000Y-55690000D01*
X118950000Y-55690000D02*
X119220000Y-55690000D01*
X125850000Y-62110000D02*
X125850000Y-55690000D01*
X118950000Y-62110000D02*
X118950000Y-55690000D01*
X126010000Y-54300000D02*
X125540000Y-53960000D01*
X126010000Y-53620000D01*
X126010000Y-54300000D01*
G36*
X126010000Y-54300000D02*
G01*
X125540000Y-53960000D01*
X126010000Y-53620000D01*
X126010000Y-54300000D01*
G37*
D12*
%TO.C,TP4*%
X103460000Y-58695000D02*
X108540000Y-58695000D01*
X103460000Y-62505000D02*
X103460000Y-58695000D01*
X108540000Y-58695000D02*
X108540000Y-62505000D01*
X108540000Y-62505000D02*
X103460000Y-62505000D01*
%TO.C,TP3*%
X103460000Y-70295000D02*
X108540000Y-70295000D01*
X103460000Y-74105000D02*
X103460000Y-70295000D01*
X108540000Y-70295000D02*
X108540000Y-74105000D01*
X108540000Y-74105000D02*
X103460000Y-74105000D01*
%TO.C,TP2*%
X103460000Y-52095000D02*
X108540000Y-52095000D01*
X103460000Y-55905000D02*
X103460000Y-52095000D01*
X108540000Y-52095000D02*
X108540000Y-55905000D01*
X108540000Y-55905000D02*
X103460000Y-55905000D01*
%TO.C,TP1*%
X117460000Y-70295000D02*
X122540000Y-70295000D01*
X117460000Y-74105000D02*
X117460000Y-70295000D01*
X122540000Y-70295000D02*
X122540000Y-74105000D01*
X122540000Y-74105000D02*
X117460000Y-74105000D01*
D13*
%TO.C,U13*%
X141395000Y-39500000D02*
X141065000Y-39740000D01*
X141065000Y-39260000D01*
X141395000Y-39500000D01*
G36*
X141395000Y-39500000D02*
G01*
X141065000Y-39740000D01*
X141065000Y-39260000D01*
X141395000Y-39500000D01*
G37*
X151460000Y-36800000D02*
X151460000Y-34850000D01*
X151460000Y-36800000D02*
X151460000Y-38750000D01*
X141340000Y-36800000D02*
X141340000Y-34850000D01*
X141340000Y-36800000D02*
X141340000Y-38750000D01*
%TO.C,U6*%
X160590000Y-53452500D02*
X160110000Y-53452500D01*
X160350000Y-53122500D01*
X160590000Y-53452500D01*
G36*
X160590000Y-53452500D02*
G01*
X160110000Y-53452500D01*
X160350000Y-53122500D01*
X160590000Y-53452500D01*
G37*
X167960000Y-49262500D02*
X167960000Y-47062500D01*
X167960000Y-49262500D02*
X167960000Y-51462500D01*
X159890000Y-49262500D02*
X159890000Y-47062500D01*
X159890000Y-49262500D02*
X159890000Y-51462500D01*
%TO.C,U8*%
X157395000Y-39400000D02*
X157065000Y-39640000D01*
X157065000Y-39160000D01*
X157395000Y-39400000D01*
G36*
X157395000Y-39400000D02*
G01*
X157065000Y-39640000D01*
X157065000Y-39160000D01*
X157395000Y-39400000D01*
G37*
X167460000Y-36700000D02*
X167460000Y-34750000D01*
X167460000Y-36700000D02*
X167460000Y-38650000D01*
X157340000Y-36700000D02*
X157340000Y-34750000D01*
X157340000Y-36700000D02*
X157340000Y-38650000D01*
%TO.C,U12*%
X153030000Y-61215000D02*
X152700000Y-60975000D01*
X153030000Y-60735000D01*
X153030000Y-61215000D01*
G36*
X153030000Y-61215000D02*
G01*
X152700000Y-60975000D01*
X153030000Y-60735000D01*
X153030000Y-61215000D01*
G37*
X142635000Y-63675000D02*
X142635000Y-65625000D01*
X142635000Y-63675000D02*
X142635000Y-61725000D01*
X152755000Y-63675000D02*
X152755000Y-65625000D01*
X152755000Y-63675000D02*
X152755000Y-61725000D01*
%TO.C,J2*%
X138610000Y-71590000D02*
X138610000Y-70140000D01*
X138610000Y-70140000D02*
X136810000Y-70140000D01*
X125690000Y-70140000D02*
X125690000Y-69150000D01*
X125160000Y-74410000D02*
X137340000Y-74410000D01*
X123890000Y-71590000D02*
X123890000Y-70140000D01*
X123890000Y-70140000D02*
X125690000Y-70140000D01*
%TO.C,J3*%
X123740000Y-28460000D02*
X123740000Y-29910000D01*
X123740000Y-29910000D02*
X125540000Y-29910000D01*
X136660000Y-29910000D02*
X136660000Y-30900000D01*
X137190000Y-25640000D02*
X125010000Y-25640000D01*
X138460000Y-28460000D02*
X138460000Y-29910000D01*
X138460000Y-29910000D02*
X136660000Y-29910000D01*
%TO.C,J11*%
X139640000Y-28460000D02*
X139640000Y-29910000D01*
X139640000Y-29910000D02*
X141440000Y-29910000D01*
X152560000Y-29910000D02*
X152560000Y-30900000D01*
X153090000Y-25640000D02*
X140910000Y-25640000D01*
X154360000Y-28460000D02*
X154360000Y-29910000D01*
X154360000Y-29910000D02*
X152560000Y-29910000D01*
%TO.C,J10*%
X154510000Y-71590000D02*
X154510000Y-70140000D01*
X154510000Y-70140000D02*
X152710000Y-70140000D01*
X141590000Y-70140000D02*
X141590000Y-69150000D01*
X141060000Y-74410000D02*
X153240000Y-74410000D01*
X139790000Y-71590000D02*
X139790000Y-70140000D01*
X139790000Y-70140000D02*
X141590000Y-70140000D01*
%TO.C,J8*%
X155540000Y-28460000D02*
X155540000Y-29910000D01*
X155540000Y-29910000D02*
X157340000Y-29910000D01*
X168460000Y-29910000D02*
X168460000Y-30900000D01*
X168990000Y-25640000D02*
X156810000Y-25640000D01*
X170260000Y-28460000D02*
X170260000Y-29910000D01*
X170260000Y-29910000D02*
X168460000Y-29910000D01*
%TO.C,U3*%
X137230000Y-61215000D02*
X136900000Y-60975000D01*
X137230000Y-60735000D01*
X137230000Y-61215000D01*
G36*
X137230000Y-61215000D02*
G01*
X136900000Y-60975000D01*
X137230000Y-60735000D01*
X137230000Y-61215000D01*
G37*
X126835000Y-63675000D02*
X126835000Y-65625000D01*
X126835000Y-63675000D02*
X126835000Y-61725000D01*
X136955000Y-63675000D02*
X136955000Y-65625000D01*
X136955000Y-63675000D02*
X136955000Y-61725000D01*
%TO.C,U7*%
X169130000Y-61115000D02*
X168800000Y-60875000D01*
X169130000Y-60635000D01*
X169130000Y-61115000D01*
G36*
X169130000Y-61115000D02*
G01*
X168800000Y-60875000D01*
X169130000Y-60635000D01*
X169130000Y-61115000D01*
G37*
X158735000Y-63575000D02*
X158735000Y-65525000D01*
X158735000Y-63575000D02*
X158735000Y-61625000D01*
X168855000Y-63575000D02*
X168855000Y-65525000D01*
X168855000Y-63575000D02*
X168855000Y-61625000D01*
%TO.C,U11*%
X144990000Y-53552500D02*
X144510000Y-53552500D01*
X144750000Y-53222500D01*
X144990000Y-53552500D01*
G36*
X144990000Y-53552500D02*
G01*
X144510000Y-53552500D01*
X144750000Y-53222500D01*
X144990000Y-53552500D01*
G37*
X152360000Y-49362500D02*
X152360000Y-47162500D01*
X152360000Y-49362500D02*
X152360000Y-51562500D01*
X144290000Y-49362500D02*
X144290000Y-47162500D01*
X144290000Y-49362500D02*
X144290000Y-51562500D01*
%TO.C,U1*%
X129090000Y-53652500D02*
X128610000Y-53652500D01*
X128850000Y-53322500D01*
X129090000Y-53652500D01*
G36*
X129090000Y-53652500D02*
G01*
X128610000Y-53652500D01*
X128850000Y-53322500D01*
X129090000Y-53652500D01*
G37*
X136460000Y-49462500D02*
X136460000Y-47262500D01*
X136460000Y-49462500D02*
X136460000Y-51662500D01*
X128390000Y-49462500D02*
X128390000Y-47262500D01*
X128390000Y-49462500D02*
X128390000Y-51662500D01*
%TO.C,U4*%
X125395000Y-39500000D02*
X125065000Y-39740000D01*
X125065000Y-39260000D01*
X125395000Y-39500000D01*
G36*
X125395000Y-39500000D02*
G01*
X125065000Y-39740000D01*
X125065000Y-39260000D01*
X125395000Y-39500000D01*
G37*
X135460000Y-36800000D02*
X135460000Y-34850000D01*
X135460000Y-36800000D02*
X135460000Y-38750000D01*
X125340000Y-36800000D02*
X125340000Y-34850000D01*
X125340000Y-36800000D02*
X125340000Y-38750000D01*
%TO.C,U10*%
X116160000Y-55000000D02*
X116160000Y-53050000D01*
X116160000Y-55000000D02*
X116160000Y-56950000D01*
X111040000Y-55000000D02*
X111040000Y-53050000D01*
X111040000Y-55000000D02*
X111040000Y-56950000D01*
X116395000Y-52540000D02*
X116065000Y-52300000D01*
X116395000Y-52060000D01*
X116395000Y-52540000D01*
G36*
X116395000Y-52540000D02*
G01*
X116065000Y-52300000D01*
X116395000Y-52060000D01*
X116395000Y-52540000D01*
G37*
%TO.C,U9*%
X116177500Y-66530000D02*
X115907500Y-66530000D01*
X109277500Y-66530000D02*
X109547500Y-66530000D01*
X116177500Y-72950000D02*
X116177500Y-66530000D01*
X109277500Y-72950000D02*
X109277500Y-66530000D01*
X116337500Y-65140000D02*
X115867500Y-64800000D01*
X116337500Y-64460000D01*
X116337500Y-65140000D01*
G36*
X116337500Y-65140000D02*
G01*
X115867500Y-64800000D01*
X116337500Y-64460000D01*
X116337500Y-65140000D01*
G37*
D12*
%TO.C,U5*%
X108775000Y-43025000D02*
X109000000Y-43025000D01*
X108775000Y-43025000D02*
X108775000Y-42700000D01*
X116025000Y-43025000D02*
X115700000Y-43025000D01*
X116025000Y-43025000D02*
X116025000Y-42700000D01*
X108775000Y-35775000D02*
X108775000Y-36100000D01*
X108775000Y-35775000D02*
X109100000Y-35775000D01*
X116025000Y-35775000D02*
X116025000Y-36100000D01*
X116025000Y-35775000D02*
X115700000Y-35775000D01*
D13*
X109060000Y-43790000D02*
X108590000Y-44130000D01*
X108590000Y-43450000D01*
X109060000Y-43790000D01*
G36*
X109060000Y-43790000D02*
G01*
X108590000Y-44130000D01*
X108590000Y-43450000D01*
X109060000Y-43790000D01*
G37*
%TO.C,R17*%
X173620000Y-58307064D02*
X173620000Y-56852936D01*
X175440000Y-58307064D02*
X175440000Y-56852936D01*
%TO.C,R13*%
X175570000Y-39582936D02*
X175570000Y-41037064D01*
X173750000Y-39582936D02*
X173750000Y-41037064D01*
%TO.C,R4*%
X157442742Y-50067500D02*
X157917258Y-50067500D01*
X157442742Y-51112500D02*
X157917258Y-51112500D01*
%TO.C,R2*%
X102962742Y-34877500D02*
X103437258Y-34877500D01*
X102962742Y-35922500D02*
X103437258Y-35922500D01*
%TO.C,R1*%
X95962742Y-38277500D02*
X96437258Y-38277500D01*
X95962742Y-39322500D02*
X96437258Y-39322500D01*
%TO.C,J9*%
X84910000Y-53715000D02*
X84910000Y-55515000D01*
X83460000Y-53715000D02*
X84910000Y-53715000D01*
X80640000Y-54985000D02*
X80640000Y-63415000D01*
X84910000Y-55515000D02*
X85900000Y-55515000D01*
X84910000Y-64685000D02*
X84910000Y-62885000D01*
X83460000Y-64685000D02*
X84910000Y-64685000D01*
%TO.C,J7*%
X155690000Y-70140000D02*
X157490000Y-70140000D01*
X155690000Y-71590000D02*
X155690000Y-70140000D01*
X156960000Y-74410000D02*
X169140000Y-74410000D01*
X157490000Y-70140000D02*
X157490000Y-69150000D01*
X170410000Y-70140000D02*
X168610000Y-70140000D01*
X170410000Y-71590000D02*
X170410000Y-70140000D01*
%TO.C,J6*%
X113835000Y-29910000D02*
X112035000Y-29910000D01*
X113835000Y-28460000D02*
X113835000Y-29910000D01*
X112565000Y-25640000D02*
X106635000Y-25640000D01*
X112035000Y-29910000D02*
X112035000Y-30900000D01*
X105365000Y-29910000D02*
X107165000Y-29910000D01*
X105365000Y-28460000D02*
X105365000Y-29910000D01*
%TO.C,J5*%
X101250000Y-72435000D02*
X100660000Y-72435000D01*
X101250000Y-70215000D02*
X100660000Y-70215000D01*
X100660000Y-74535000D02*
X100660000Y-72435000D01*
X100660000Y-74535000D02*
X90540000Y-74535000D01*
X100660000Y-70215000D02*
X100660000Y-65315000D01*
X100660000Y-65315000D02*
X90540000Y-65315000D01*
X90540000Y-74535000D02*
X90540000Y-72435000D01*
X90540000Y-72435000D02*
X89950000Y-72435000D01*
X90540000Y-70215000D02*
X90540000Y-65315000D01*
X90540000Y-70215000D02*
X89950000Y-70215000D01*
X101250000Y-70215000D02*
G75*
G02*
X101250000Y-72435000I0J-1110000D01*
G01*
X89950000Y-72435000D02*
G75*
G02*
X89950000Y-70215000I0J1110000D01*
G01*
%TO.C,J4*%
X115940000Y-30060000D02*
X122060000Y-30060000D01*
X115940000Y-30060000D02*
X115940000Y-28000000D01*
X122060000Y-30060000D02*
X122060000Y-25940000D01*
X115940000Y-28000000D02*
X118000000Y-28000000D01*
X118000000Y-28000000D02*
X118000000Y-25940000D01*
X115940000Y-27000000D02*
X115940000Y-25940000D01*
X115940000Y-25940000D02*
X117000000Y-25940000D01*
X118000000Y-25940000D02*
X122060000Y-25940000D01*
%TO.C,J1*%
X96750000Y-31472500D02*
X97250000Y-31472500D01*
X97250000Y-31472500D02*
X97000000Y-30972500D01*
X97000000Y-30972500D02*
X96750000Y-31472500D01*
%TO.C,D2*%
X107000000Y-63840000D02*
X105000000Y-63840000D01*
X107000000Y-63840000D02*
X107000000Y-67850000D01*
X105000000Y-63840000D02*
X105000000Y-67850000D01*
%TO.C,D1*%
X118840000Y-40965000D02*
X118840000Y-42435000D01*
X118840000Y-42435000D02*
X121300000Y-42435000D01*
X121300000Y-40965000D02*
X118840000Y-40965000D01*
%TO.C,C7*%
X92762500Y-53152500D02*
X93550000Y-53152500D01*
X93156250Y-52758750D02*
X93156250Y-53546250D01*
X93790000Y-52654437D02*
X93790000Y-53940000D01*
X93790000Y-52654437D02*
X94854437Y-51590000D01*
X93790000Y-57345563D02*
X93790000Y-56060000D01*
X93790000Y-57345563D02*
X94854437Y-58410000D01*
X94854437Y-51590000D02*
X100610000Y-51590000D01*
X94854437Y-58410000D02*
X100610000Y-58410000D01*
X100610000Y-51590000D02*
X100610000Y-53940000D01*
X100610000Y-58410000D02*
X100610000Y-56060000D01*
%TO.C,C6*%
X145459420Y-43890000D02*
X145740580Y-43890000D01*
X145459420Y-44910000D02*
X145740580Y-44910000D01*
%TO.C,J12*%
X174890000Y-53335000D02*
X174890000Y-51535000D01*
X176340000Y-53335000D02*
X174890000Y-53335000D01*
X179160000Y-52065000D02*
X179160000Y-46135000D01*
X174890000Y-51535000D02*
X173900000Y-51535000D01*
X174890000Y-44865000D02*
X174890000Y-46665000D01*
X176340000Y-44865000D02*
X174890000Y-44865000D01*
%TO.C,Y1*%
X119200000Y-47000000D02*
X121200000Y-47000000D01*
X121200000Y-47000000D02*
X121600000Y-47000000D01*
X119200000Y-46800000D02*
X119200000Y-46650000D01*
X121200000Y-46800000D02*
X119200000Y-46800000D01*
X121200000Y-46800000D02*
X121600000Y-46800000D01*
X121600000Y-46800000D02*
X121600000Y-46650000D01*
X121600000Y-45750000D02*
X121600000Y-45800000D01*
X121600000Y-45750000D02*
X122000000Y-45750000D01*
X119200000Y-43200000D02*
X119200000Y-43350000D01*
X119200000Y-43200000D02*
X121200000Y-43200000D01*
X121200000Y-43200000D02*
X121600000Y-43200000D01*
X121600000Y-43200000D02*
X121600000Y-43350000D01*
%TO.C,R16*%
X126477500Y-53237258D02*
X126477500Y-52762742D01*
X127522500Y-53237258D02*
X127522500Y-52762742D01*
%TO.C,R15*%
X127522500Y-56162742D02*
X127522500Y-56637258D01*
X126477500Y-56162742D02*
X126477500Y-56637258D01*
%TO.C,R14*%
X123762742Y-49677500D02*
X124237258Y-49677500D01*
X123762742Y-50722500D02*
X124237258Y-50722500D01*
%TO.C,R12*%
X111037258Y-60122500D02*
X110562742Y-60122500D01*
X111037258Y-59077500D02*
X110562742Y-59077500D01*
%TO.C,R11*%
X116162742Y-49677500D02*
X116637258Y-49677500D01*
X116162742Y-50722500D02*
X116637258Y-50722500D01*
%TO.C,R10*%
X120162742Y-36877500D02*
X120637258Y-36877500D01*
X120162742Y-37922500D02*
X120637258Y-37922500D01*
%TO.C,R9*%
X106837258Y-33322500D02*
X106362742Y-33322500D01*
X106837258Y-32277500D02*
X106362742Y-32277500D01*
%TO.C,C17*%
X125340580Y-48710000D02*
X125059420Y-48710000D01*
X125340580Y-47690000D02*
X125059420Y-47690000D01*
%TO.C,C16*%
X129310000Y-56259420D02*
X129310000Y-56540580D01*
X128290000Y-56259420D02*
X128290000Y-56540580D01*
%TO.C,C15*%
X114940580Y-60110000D02*
X114659420Y-60110000D01*
X114940580Y-59090000D02*
X114659420Y-59090000D01*
%TO.C,C14*%
X119859420Y-49690000D02*
X120140580Y-49690000D01*
X119859420Y-50710000D02*
X120140580Y-50710000D01*
%TO.C,C13*%
X161059420Y-43890000D02*
X161340580Y-43890000D01*
X161059420Y-44910000D02*
X161340580Y-44910000D01*
%TO.C,C12*%
X118690000Y-66940580D02*
X118690000Y-66659420D01*
X119710000Y-66940580D02*
X119710000Y-66659420D01*
%TO.C,C11*%
X116890000Y-66940580D02*
X116890000Y-66659420D01*
X117910000Y-66940580D02*
X117910000Y-66659420D01*
%TO.C,C10*%
X103340580Y-42110000D02*
X103059420Y-42110000D01*
X103340580Y-41090000D02*
X103059420Y-41090000D01*
%TO.C,SW1*%
X90050000Y-52220000D02*
X90050000Y-50837000D01*
X90050000Y-52220000D02*
X88667000Y-52220000D01*
X89810000Y-51980000D02*
X89810000Y-50670000D01*
X89810000Y-51980000D02*
X82990000Y-51980000D01*
X89810000Y-49070000D02*
X89810000Y-48130000D01*
X89810000Y-46530000D02*
X89810000Y-45220000D01*
X89810000Y-45220000D02*
X82990000Y-45220000D01*
X87003333Y-50505000D02*
X87003333Y-49235000D01*
X87003333Y-47965000D02*
X87003333Y-46695000D01*
X82990000Y-51980000D02*
X82990000Y-50670000D01*
X82990000Y-49070000D02*
X82990000Y-48130000D01*
X82990000Y-46530000D02*
X82990000Y-45220000D01*
X88210000Y-50505000D02*
X87003333Y-50505000D01*
X87003333Y-49235000D01*
X88210000Y-49235000D01*
X88210000Y-50505000D01*
G36*
X88210000Y-50505000D02*
G01*
X87003333Y-50505000D01*
X87003333Y-49235000D01*
X88210000Y-49235000D01*
X88210000Y-50505000D01*
G37*
X88210000Y-50505000D02*
X84590000Y-50505000D01*
X84590000Y-49235000D01*
X88210000Y-49235000D01*
X88210000Y-50505000D01*
X88210000Y-47965000D02*
X87003333Y-47965000D01*
X87003333Y-46695000D01*
X88210000Y-46695000D01*
X88210000Y-47965000D01*
G36*
X88210000Y-47965000D02*
G01*
X87003333Y-47965000D01*
X87003333Y-46695000D01*
X88210000Y-46695000D01*
X88210000Y-47965000D01*
G37*
X88210000Y-47965000D02*
X84590000Y-47965000D01*
X84590000Y-46695000D01*
X88210000Y-46695000D01*
X88210000Y-47965000D01*
%TO.C,R8*%
X110437258Y-33322500D02*
X109962742Y-33322500D01*
X110437258Y-32277500D02*
X109962742Y-32277500D01*
%TO.C,R7*%
X120162742Y-39077500D02*
X120637258Y-39077500D01*
X120162742Y-40122500D02*
X120637258Y-40122500D01*
%TO.C,R6*%
X103437258Y-40122500D02*
X102962742Y-40122500D01*
X103437258Y-39077500D02*
X102962742Y-39077500D01*
%TO.C,R5*%
X157462742Y-47727500D02*
X157937258Y-47727500D01*
X157462742Y-48772500D02*
X157937258Y-48772500D01*
%TO.C,R3*%
X102962742Y-36987500D02*
X103437258Y-36987500D01*
X102962742Y-38032500D02*
X103437258Y-38032500D01*
%TO.C,L1*%
X96290000Y-35861252D02*
X96290000Y-35338748D01*
X97710000Y-35861252D02*
X97710000Y-35338748D01*
%TO.C,D3*%
X91560000Y-58200000D02*
X91560000Y-56200000D01*
X91560000Y-58200000D02*
X87550000Y-58200000D01*
X91560000Y-56200000D02*
X87550000Y-56200000D01*
%TO.C,C9*%
X120259420Y-34490000D02*
X120540580Y-34490000D01*
X120259420Y-35510000D02*
X120540580Y-35510000D01*
%TO.C,C8*%
X112659420Y-62690000D02*
X112940580Y-62690000D01*
X112659420Y-63710000D02*
X112940580Y-63710000D01*
%TO.C,C5*%
X113740580Y-33310000D02*
X113459420Y-33310000D01*
X113740580Y-32290000D02*
X113459420Y-32290000D01*
%TO.C,C4*%
X112059420Y-45490000D02*
X112340580Y-45490000D01*
X112059420Y-46510000D02*
X112340580Y-46510000D01*
%TO.C,C3*%
X96340580Y-41310000D02*
X96059420Y-41310000D01*
X96340580Y-40290000D02*
X96059420Y-40290000D01*
%TO.C,C2*%
X80690000Y-40940580D02*
X80690000Y-40659420D01*
X81710000Y-40940580D02*
X81710000Y-40659420D01*
%TO.C,C1*%
X129659420Y-43890000D02*
X129940580Y-43890000D01*
X129659420Y-44910000D02*
X129940580Y-44910000D01*
%TO.C,U2*%
X83240000Y-33640000D02*
X83240000Y-33790000D01*
X83240000Y-33640000D02*
X93160000Y-33640000D01*
X83240000Y-43810000D02*
X83240000Y-43960000D01*
X83240000Y-43960000D02*
X93160000Y-43960000D01*
X93160000Y-33640000D02*
X93160000Y-33790000D01*
X93160000Y-43810000D02*
X93160000Y-43960000D01*
X82770000Y-33790000D02*
X82530000Y-33460000D01*
X83010000Y-33460000D01*
X82770000Y-33790000D01*
G36*
X82770000Y-33790000D02*
G01*
X82530000Y-33460000D01*
X83010000Y-33460000D01*
X82770000Y-33790000D01*
G37*
%TD*%
M02*
