%TF.GenerationSoftware,KiCad,Pcbnew,9.0.0*%
%TF.CreationDate,2025-06-26T17:33:30-04:00*%
%TF.ProjectId,gps-seven-seg-clock,6770732d-7365-4766-956e-2d7365672d63,rev?*%
%TF.SameCoordinates,Original*%
%TF.FileFunction,Soldermask,Top*%
%TF.FilePolarity,Negative*%
%FSLAX46Y46*%
G04 Gerber Fmt 4.6, Leading zero omitted, Abs format (unit mm)*
G04 Created by KiCad (PCBNEW 9.0.0) date 2025-06-26 17:33:30*
%MOMM*%
%LPD*%
G01*
G04 APERTURE LIST*
G04 Aperture macros list*
%AMRoundRect*
0 Rectangle with rounded corners*
0 $1 Rounding radius*
0 $2 $3 $4 $5 $6 $7 $8 $9 X,Y pos of 4 corners*
0 Add a 4 corners polygon primitive as box body*
4,1,4,$2,$3,$4,$5,$6,$7,$8,$9,$2,$3,0*
0 Add four circle primitives for the rounded corners*
1,1,$1+$1,$2,$3*
1,1,$1+$1,$4,$5*
1,1,$1+$1,$6,$7*
1,1,$1+$1,$8,$9*
0 Add four rect primitives between the rounded corners*
20,1,$1+$1,$2,$3,$4,$5,0*
20,1,$1+$1,$4,$5,$6,$7,0*
20,1,$1+$1,$6,$7,$8,$9,0*
20,1,$1+$1,$8,$9,$2,$3,0*%
G04 Aperture macros list end*
%ADD10RoundRect,0.250000X-0.350000X0.850000X-0.350000X-0.850000X0.350000X-0.850000X0.350000X0.850000X0*%
%ADD11RoundRect,0.249997X-2.650003X2.950003X-2.650003X-2.950003X2.650003X-2.950003X2.650003X2.950003X0*%
%ADD12R,4.699000X3.429000*%
%ADD13C,3.200000*%
%ADD14RoundRect,0.150000X0.150000X-0.825000X0.150000X0.825000X-0.150000X0.825000X-0.150000X-0.825000X0*%
%ADD15RoundRect,0.100000X0.100000X-0.637500X0.100000X0.637500X-0.100000X0.637500X-0.100000X-0.637500X0*%
%ADD16RoundRect,0.150000X-0.150000X0.825000X-0.150000X-0.825000X0.150000X-0.825000X0.150000X0.825000X0*%
%ADD17RoundRect,0.250000X-0.250000X-1.100000X0.250000X-1.100000X0.250000X1.100000X-0.250000X1.100000X0*%
%ADD18RoundRect,0.150000X-0.150000X-0.700000X0.150000X-0.700000X0.150000X0.700000X-0.150000X0.700000X0*%
%ADD19RoundRect,0.250000X0.250000X1.100000X-0.250000X1.100000X-0.250000X-1.100000X0.250000X-1.100000X0*%
%ADD20RoundRect,0.150000X0.150000X0.700000X-0.150000X0.700000X-0.150000X-0.700000X0.150000X-0.700000X0*%
%ADD21R,0.550000X1.600000*%
%ADD22R,1.600000X0.550000*%
%ADD23RoundRect,0.250000X0.625000X-0.312500X0.625000X0.312500X-0.625000X0.312500X-0.625000X-0.312500X0*%
%ADD24RoundRect,0.250000X-0.625000X0.312500X-0.625000X-0.312500X0.625000X-0.312500X0.625000X0.312500X0*%
%ADD25RoundRect,0.200000X-0.200000X-0.275000X0.200000X-0.275000X0.200000X0.275000X-0.200000X0.275000X0*%
%ADD26RoundRect,0.150000X-0.700000X0.150000X-0.700000X-0.150000X0.700000X-0.150000X0.700000X0.150000X0*%
%ADD27RoundRect,0.250000X-1.100000X0.250000X-1.100000X-0.250000X1.100000X-0.250000X1.100000X0.250000X0*%
%ADD28C,1.400000*%
%ADD29RoundRect,0.770000X0.980000X0.980000X-0.980000X0.980000X-0.980000X-0.980000X0.980000X-0.980000X0*%
%ADD30C,3.500000*%
%ADD31R,1.350000X1.350000*%
%ADD32O,1.350000X1.350000*%
%ADD33R,1.500000X5.080000*%
%ADD34RoundRect,0.225000X-0.375000X0.225000X-0.375000X-0.225000X0.375000X-0.225000X0.375000X0.225000X0*%
%ADD35RoundRect,0.237500X-0.287500X-0.237500X0.287500X-0.237500X0.287500X0.237500X-0.287500X0.237500X0*%
%ADD36RoundRect,0.250000X-1.500000X-0.550000X1.500000X-0.550000X1.500000X0.550000X-1.500000X0.550000X0*%
%ADD37RoundRect,0.225000X-0.225000X-0.250000X0.225000X-0.250000X0.225000X0.250000X-0.225000X0.250000X0*%
%ADD38RoundRect,0.150000X0.700000X-0.150000X0.700000X0.150000X-0.700000X0.150000X-0.700000X-0.150000X0*%
%ADD39RoundRect,0.250000X1.100000X-0.250000X1.100000X0.250000X-1.100000X0.250000X-1.100000X-0.250000X0*%
%ADD40R,3.200000X0.400000*%
%ADD41RoundRect,0.200000X0.275000X-0.200000X0.275000X0.200000X-0.275000X0.200000X-0.275000X-0.200000X0*%
%ADD42RoundRect,0.200000X-0.275000X0.200000X-0.275000X-0.200000X0.275000X-0.200000X0.275000X0.200000X0*%
%ADD43RoundRect,0.200000X0.200000X0.275000X-0.200000X0.275000X-0.200000X-0.275000X0.200000X-0.275000X0*%
%ADD44RoundRect,0.225000X0.225000X0.250000X-0.225000X0.250000X-0.225000X-0.250000X0.225000X-0.250000X0*%
%ADD45RoundRect,0.225000X-0.250000X0.225000X-0.250000X-0.225000X0.250000X-0.225000X0.250000X0.225000X0*%
%ADD46RoundRect,0.225000X0.250000X-0.225000X0.250000X0.225000X-0.250000X0.225000X-0.250000X-0.225000X0*%
%ADD47RoundRect,0.250000X0.970000X0.310000X-0.970000X0.310000X-0.970000X-0.310000X0.970000X-0.310000X0*%
%ADD48RoundRect,0.250000X0.450000X-0.325000X0.450000X0.325000X-0.450000X0.325000X-0.450000X-0.325000X0*%
%ADD49RoundRect,0.225000X0.225000X0.375000X-0.225000X0.375000X-0.225000X-0.375000X0.225000X-0.375000X0*%
%ADD50RoundRect,0.175000X-0.725000X-0.175000X0.725000X-0.175000X0.725000X0.175000X-0.725000X0.175000X0*%
%ADD51RoundRect,0.200000X-0.700000X-0.200000X0.700000X-0.200000X0.700000X0.200000X-0.700000X0.200000X0*%
G04 APERTURE END LIST*
D10*
%TO.C,Q2*%
X124680000Y-53960000D03*
D11*
X122400000Y-60260000D03*
D10*
X120120000Y-53960000D03*
%TD*%
D12*
%TO.C,TP4*%
X106000000Y-60600000D03*
%TD*%
%TO.C,TP3*%
X106000000Y-72200000D03*
%TD*%
%TO.C,TP2*%
X106000000Y-54000000D03*
%TD*%
%TO.C,TP1*%
X120000000Y-72200000D03*
%TD*%
D13*
%TO.C,H4*%
X83400000Y-71600000D03*
%TD*%
%TO.C,H3*%
X83400000Y-28400000D03*
%TD*%
%TO.C,H2*%
X176600000Y-71600000D03*
%TD*%
%TO.C,H1*%
X176600000Y-28400000D03*
%TD*%
D14*
%TO.C,U13*%
X141955000Y-34325000D03*
X143225000Y-34325000D03*
X144495000Y-34325000D03*
X145765000Y-34325000D03*
X147035000Y-34325000D03*
X148305000Y-34325000D03*
X149575000Y-34325000D03*
X150845000Y-34325000D03*
X150845000Y-39275000D03*
X149575000Y-39275000D03*
X148305000Y-39275000D03*
X147035000Y-39275000D03*
X145765000Y-39275000D03*
X144495000Y-39275000D03*
X143225000Y-39275000D03*
X141955000Y-39275000D03*
%TD*%
D15*
%TO.C,U6*%
X160350000Y-46400000D03*
X161000000Y-46400000D03*
X161650000Y-46400000D03*
X162300000Y-46400000D03*
X162950000Y-46400000D03*
X163600000Y-46400000D03*
X164250000Y-46400000D03*
X164900000Y-46400000D03*
X165550000Y-46400000D03*
X166200000Y-46400000D03*
X166850000Y-46400000D03*
X167500000Y-46400000D03*
X167500000Y-52125000D03*
X166850000Y-52125000D03*
X166200000Y-52125000D03*
X165550000Y-52125000D03*
X164900000Y-52125000D03*
X164250000Y-52125000D03*
X163600000Y-52125000D03*
X162950000Y-52125000D03*
X162300000Y-52125000D03*
X161650000Y-52125000D03*
X161000000Y-52125000D03*
X160350000Y-52125000D03*
%TD*%
D14*
%TO.C,U8*%
X157955000Y-34225000D03*
X159225000Y-34225000D03*
X160495000Y-34225000D03*
X161765000Y-34225000D03*
X163035000Y-34225000D03*
X164305000Y-34225000D03*
X165575000Y-34225000D03*
X166845000Y-34225000D03*
X166845000Y-39175000D03*
X165575000Y-39175000D03*
X164305000Y-39175000D03*
X163035000Y-39175000D03*
X161765000Y-39175000D03*
X160495000Y-39175000D03*
X159225000Y-39175000D03*
X157955000Y-39175000D03*
%TD*%
D16*
%TO.C,U12*%
X152140000Y-66150000D03*
X150870000Y-66150000D03*
X149600000Y-66150000D03*
X148330000Y-66150000D03*
X147060000Y-66150000D03*
X145790000Y-66150000D03*
X144520000Y-66150000D03*
X143250000Y-66150000D03*
X143250000Y-61200000D03*
X144520000Y-61200000D03*
X145790000Y-61200000D03*
X147060000Y-61200000D03*
X148330000Y-61200000D03*
X149600000Y-61200000D03*
X150870000Y-61200000D03*
X152140000Y-61200000D03*
%TD*%
D17*
%TO.C,J2*%
X138100000Y-73200000D03*
X124400000Y-73200000D03*
D18*
X136250000Y-70000000D03*
X135000000Y-70000000D03*
X133750000Y-70000000D03*
X132500000Y-70000000D03*
X131250000Y-70000000D03*
X130000000Y-70000000D03*
X128750000Y-70000000D03*
X127500000Y-70000000D03*
X126250000Y-70000000D03*
%TD*%
D19*
%TO.C,J3*%
X124250000Y-26850000D03*
X137950000Y-26850000D03*
D20*
X126100000Y-30050000D03*
X127350000Y-30050000D03*
X128600000Y-30050000D03*
X129850000Y-30050000D03*
X131100000Y-30050000D03*
X132350000Y-30050000D03*
X133600000Y-30050000D03*
X134850000Y-30050000D03*
X136100000Y-30050000D03*
%TD*%
D19*
%TO.C,J11*%
X140150000Y-26850000D03*
X153850000Y-26850000D03*
D20*
X142000000Y-30050000D03*
X143250000Y-30050000D03*
X144500000Y-30050000D03*
X145750000Y-30050000D03*
X147000000Y-30050000D03*
X148250000Y-30050000D03*
X149500000Y-30050000D03*
X150750000Y-30050000D03*
X152000000Y-30050000D03*
%TD*%
D17*
%TO.C,J10*%
X154000000Y-73200000D03*
X140300000Y-73200000D03*
D18*
X152150000Y-70000000D03*
X150900000Y-70000000D03*
X149650000Y-70000000D03*
X148400000Y-70000000D03*
X147150000Y-70000000D03*
X145900000Y-70000000D03*
X144650000Y-70000000D03*
X143400000Y-70000000D03*
X142150000Y-70000000D03*
%TD*%
D19*
%TO.C,J8*%
X156050000Y-26850000D03*
X169750000Y-26850000D03*
D20*
X157900000Y-30050000D03*
X159150000Y-30050000D03*
X160400000Y-30050000D03*
X161650000Y-30050000D03*
X162900000Y-30050000D03*
X164150000Y-30050000D03*
X165400000Y-30050000D03*
X166650000Y-30050000D03*
X167900000Y-30050000D03*
%TD*%
D16*
%TO.C,U3*%
X136340000Y-66150000D03*
X135070000Y-66150000D03*
X133800000Y-66150000D03*
X132530000Y-66150000D03*
X131260000Y-66150000D03*
X129990000Y-66150000D03*
X128720000Y-66150000D03*
X127450000Y-66150000D03*
X127450000Y-61200000D03*
X128720000Y-61200000D03*
X129990000Y-61200000D03*
X131260000Y-61200000D03*
X132530000Y-61200000D03*
X133800000Y-61200000D03*
X135070000Y-61200000D03*
X136340000Y-61200000D03*
%TD*%
%TO.C,U7*%
X168240000Y-66050000D03*
X166970000Y-66050000D03*
X165700000Y-66050000D03*
X164430000Y-66050000D03*
X163160000Y-66050000D03*
X161890000Y-66050000D03*
X160620000Y-66050000D03*
X159350000Y-66050000D03*
X159350000Y-61100000D03*
X160620000Y-61100000D03*
X161890000Y-61100000D03*
X163160000Y-61100000D03*
X164430000Y-61100000D03*
X165700000Y-61100000D03*
X166970000Y-61100000D03*
X168240000Y-61100000D03*
%TD*%
D15*
%TO.C,U11*%
X144750000Y-46500000D03*
X145400000Y-46500000D03*
X146050000Y-46500000D03*
X146700000Y-46500000D03*
X147350000Y-46500000D03*
X148000000Y-46500000D03*
X148650000Y-46500000D03*
X149300000Y-46500000D03*
X149950000Y-46500000D03*
X150600000Y-46500000D03*
X151250000Y-46500000D03*
X151900000Y-46500000D03*
X151900000Y-52225000D03*
X151250000Y-52225000D03*
X150600000Y-52225000D03*
X149950000Y-52225000D03*
X149300000Y-52225000D03*
X148650000Y-52225000D03*
X148000000Y-52225000D03*
X147350000Y-52225000D03*
X146700000Y-52225000D03*
X146050000Y-52225000D03*
X145400000Y-52225000D03*
X144750000Y-52225000D03*
%TD*%
%TO.C,U1*%
X128850000Y-46600000D03*
X129500000Y-46600000D03*
X130150000Y-46600000D03*
X130800000Y-46600000D03*
X131450000Y-46600000D03*
X132100000Y-46600000D03*
X132750000Y-46600000D03*
X133400000Y-46600000D03*
X134050000Y-46600000D03*
X134700000Y-46600000D03*
X135350000Y-46600000D03*
X136000000Y-46600000D03*
X136000000Y-52325000D03*
X135350000Y-52325000D03*
X134700000Y-52325000D03*
X134050000Y-52325000D03*
X133400000Y-52325000D03*
X132750000Y-52325000D03*
X132100000Y-52325000D03*
X131450000Y-52325000D03*
X130800000Y-52325000D03*
X130150000Y-52325000D03*
X129500000Y-52325000D03*
X128850000Y-52325000D03*
%TD*%
D14*
%TO.C,U4*%
X125955000Y-34325000D03*
X127225000Y-34325000D03*
X128495000Y-34325000D03*
X129765000Y-34325000D03*
X131035000Y-34325000D03*
X132305000Y-34325000D03*
X133575000Y-34325000D03*
X134845000Y-34325000D03*
X134845000Y-39275000D03*
X133575000Y-39275000D03*
X132305000Y-39275000D03*
X131035000Y-39275000D03*
X129765000Y-39275000D03*
X128495000Y-39275000D03*
X127225000Y-39275000D03*
X125955000Y-39275000D03*
%TD*%
D16*
%TO.C,U10*%
X115505000Y-52525000D03*
X114235000Y-52525000D03*
X112965000Y-52525000D03*
X111695000Y-52525000D03*
X111695000Y-57475000D03*
X112965000Y-57475000D03*
X114235000Y-57475000D03*
X115505000Y-57475000D03*
%TD*%
D10*
%TO.C,U9*%
X115007500Y-64800000D03*
D11*
X112727500Y-71100000D03*
D10*
X110447500Y-64800000D03*
%TD*%
D21*
%TO.C,U5*%
X109600000Y-43650000D03*
X110400000Y-43650000D03*
X111200000Y-43650000D03*
X112000000Y-43650000D03*
X112800000Y-43650000D03*
X113600000Y-43650000D03*
X114400000Y-43650000D03*
X115200000Y-43650000D03*
D22*
X116650000Y-42200000D03*
X116650000Y-41400000D03*
X116650000Y-40600000D03*
X116650000Y-39800000D03*
X116650000Y-39000000D03*
X116650000Y-38200000D03*
X116650000Y-37400000D03*
X116650000Y-36600000D03*
D21*
X115200000Y-35150000D03*
X114400000Y-35150000D03*
X113600000Y-35150000D03*
X112800000Y-35150000D03*
X112000000Y-35150000D03*
X111200000Y-35150000D03*
X110400000Y-35150000D03*
X109600000Y-35150000D03*
D22*
X108150000Y-36600000D03*
X108150000Y-37400000D03*
X108150000Y-38200000D03*
X108150000Y-39000000D03*
X108150000Y-39800000D03*
X108150000Y-40600000D03*
X108150000Y-41400000D03*
X108150000Y-42200000D03*
%TD*%
D23*
%TO.C,R17*%
X174530000Y-59042500D03*
X174530000Y-56117500D03*
%TD*%
D24*
%TO.C,R13*%
X174660000Y-38847500D03*
X174660000Y-41772500D03*
%TD*%
D25*
%TO.C,R4*%
X156855000Y-50590000D03*
X158505000Y-50590000D03*
%TD*%
%TO.C,R2*%
X102375000Y-35400000D03*
X104025000Y-35400000D03*
%TD*%
%TO.C,R1*%
X95375000Y-38800000D03*
X97025000Y-38800000D03*
%TD*%
D26*
%TO.C,J9*%
X85050000Y-56075000D03*
X85050000Y-57325000D03*
X85050000Y-58575000D03*
X85050000Y-59825000D03*
X85050000Y-61075000D03*
X85050000Y-62325000D03*
D27*
X81850000Y-54225000D03*
X81850000Y-64175000D03*
%TD*%
D18*
%TO.C,J7*%
X158050000Y-70000000D03*
X159300000Y-70000000D03*
X160550000Y-70000000D03*
X161800000Y-70000000D03*
X163050000Y-70000000D03*
X164300000Y-70000000D03*
X165550000Y-70000000D03*
X166800000Y-70000000D03*
X168050000Y-70000000D03*
D17*
X156200000Y-73200000D03*
X169900000Y-73200000D03*
%TD*%
D20*
%TO.C,J6*%
X111475000Y-30050000D03*
X110225000Y-30050000D03*
X108975000Y-30050000D03*
X107725000Y-30050000D03*
D19*
X113325000Y-26850000D03*
X105875000Y-26850000D03*
%TD*%
D28*
%TO.C,J5*%
X101100000Y-71325000D03*
X90100000Y-71325000D03*
D29*
X93100000Y-61325000D03*
D30*
X98100000Y-61325000D03*
%TD*%
D31*
%TO.C,J4*%
X117000000Y-27000000D03*
D32*
X117000000Y-29000000D03*
X119000000Y-27000000D03*
X119000000Y-29000000D03*
X121000000Y-27000000D03*
X121000000Y-29000000D03*
%TD*%
D33*
%TO.C,J1*%
X97000000Y-27762500D03*
X92750000Y-27762500D03*
X101250000Y-27762500D03*
%TD*%
D34*
%TO.C,D2*%
X106000000Y-64550000D03*
X106000000Y-67850000D03*
%TD*%
D35*
%TO.C,D1*%
X119625000Y-41700000D03*
X121375000Y-41700000D03*
%TD*%
D36*
%TO.C,C7*%
X94500000Y-55000000D03*
X99900000Y-55000000D03*
%TD*%
D37*
%TO.C,C6*%
X144825000Y-44400000D03*
X146375000Y-44400000D03*
%TD*%
D38*
%TO.C,J12*%
X174750000Y-50975000D03*
X174750000Y-49725000D03*
X174750000Y-48475000D03*
X174750000Y-47225000D03*
D39*
X177950000Y-52825000D03*
X177950000Y-45375000D03*
%TD*%
D40*
%TO.C,Y1*%
X120400000Y-46200000D03*
X120400000Y-45000000D03*
X120400000Y-43800000D03*
%TD*%
D41*
%TO.C,R16*%
X127000000Y-53825000D03*
X127000000Y-52175000D03*
%TD*%
D42*
%TO.C,R15*%
X127000000Y-55575000D03*
X127000000Y-57225000D03*
%TD*%
D25*
%TO.C,R14*%
X123175000Y-50200000D03*
X124825000Y-50200000D03*
%TD*%
D43*
%TO.C,R12*%
X111625000Y-59600000D03*
X109975000Y-59600000D03*
%TD*%
D25*
%TO.C,R11*%
X115575000Y-50200000D03*
X117225000Y-50200000D03*
%TD*%
%TO.C,R10*%
X119575000Y-37400000D03*
X121225000Y-37400000D03*
%TD*%
D43*
%TO.C,R9*%
X107425000Y-32800000D03*
X105775000Y-32800000D03*
%TD*%
D44*
%TO.C,C17*%
X125975000Y-48200000D03*
X124425000Y-48200000D03*
%TD*%
D45*
%TO.C,C16*%
X128800000Y-55625000D03*
X128800000Y-57175000D03*
%TD*%
D44*
%TO.C,C15*%
X115575000Y-59600000D03*
X114025000Y-59600000D03*
%TD*%
D37*
%TO.C,C14*%
X119225000Y-50200000D03*
X120775000Y-50200000D03*
%TD*%
%TO.C,C13*%
X160425000Y-44400000D03*
X161975000Y-44400000D03*
%TD*%
D46*
%TO.C,C12*%
X119200000Y-67575000D03*
X119200000Y-66025000D03*
%TD*%
%TO.C,C11*%
X117400000Y-67575000D03*
X117400000Y-66025000D03*
%TD*%
D44*
%TO.C,C10*%
X103975000Y-41600000D03*
X102425000Y-41600000D03*
%TD*%
D47*
%TO.C,SW1*%
X90705000Y-49870000D03*
X90705000Y-47330000D03*
X82095000Y-47330000D03*
X82095000Y-49870000D03*
%TD*%
D43*
%TO.C,R8*%
X111025000Y-32800000D03*
X109375000Y-32800000D03*
%TD*%
D25*
%TO.C,R7*%
X119575000Y-39600000D03*
X121225000Y-39600000D03*
%TD*%
D43*
%TO.C,R6*%
X104025000Y-39600000D03*
X102375000Y-39600000D03*
%TD*%
D25*
%TO.C,R5*%
X156875000Y-48250000D03*
X158525000Y-48250000D03*
%TD*%
%TO.C,R3*%
X102375000Y-37510000D03*
X104025000Y-37510000D03*
%TD*%
D48*
%TO.C,L1*%
X97000000Y-36625000D03*
X97000000Y-34575000D03*
%TD*%
D49*
%TO.C,D3*%
X90850000Y-57200000D03*
X87550000Y-57200000D03*
%TD*%
D37*
%TO.C,C9*%
X119625000Y-35000000D03*
X121175000Y-35000000D03*
%TD*%
%TO.C,C8*%
X112025000Y-63200000D03*
X113575000Y-63200000D03*
%TD*%
D44*
%TO.C,C5*%
X114375000Y-32800000D03*
X112825000Y-32800000D03*
%TD*%
D37*
%TO.C,C4*%
X111425000Y-46000000D03*
X112975000Y-46000000D03*
%TD*%
D44*
%TO.C,C3*%
X96975000Y-40800000D03*
X95425000Y-40800000D03*
%TD*%
D46*
%TO.C,C2*%
X81200000Y-41575000D03*
X81200000Y-40025000D03*
%TD*%
D37*
%TO.C,C1*%
X129025000Y-44400000D03*
X130575000Y-44400000D03*
%TD*%
D50*
%TO.C,U2*%
X83450000Y-34400000D03*
D51*
X83450000Y-35500000D03*
X83450000Y-36600000D03*
X83450000Y-37700000D03*
X83450000Y-38800000D03*
X83450000Y-39900000D03*
X83450000Y-41000000D03*
X83450000Y-42100000D03*
D50*
X83450000Y-43200000D03*
X92950000Y-43200000D03*
D51*
X92950000Y-42100000D03*
X92950000Y-41000000D03*
X92950000Y-39900000D03*
X92950000Y-38800000D03*
X92950000Y-37700000D03*
X92950000Y-36600000D03*
X92950000Y-35500000D03*
D50*
X92950000Y-34400000D03*
%TD*%
M02*
