M48
; DRILL file {KiCad 9.0.7} date 2026-03-17T19:30:57-0400
; FORMAT={-:-/ absolute / inch / decimal}
; #@! TF.CreationDate,2026-03-17T19:30:57-04:00
; #@! TF.GenerationSoftware,Kicad,Pcbnew,9.0.7
; #@! TF.FileFunction,Plated,1,4,PTH
FMAT,2
INCH
; #@! TA.AperFunction,Plated,PTH,ViaDrill
T1C0.0118
; #@! TA.AperFunction,Plated,PTH,ComponentDrill
T2C0.0118
; #@! TA.AperFunction,Plated,PTH,ComponentDrill
T3C0.0300
; #@! TA.AperFunction,Plated,PTH,ComponentDrill
T4C0.0394
%
G90
G05
T1
X5.26Y-3.55
X5.26Y-3.61
X5.26Y-4.17
X5.26Y-4.23
X5.27Y-3.58
X5.27Y-4.2
X5.29Y-3.55
X5.29Y-3.61
X5.29Y-4.17
X5.29Y-4.23
X5.3Y-3.58
X5.3Y-4.2
X5.32Y-3.55
X5.32Y-3.61
X5.32Y-4.17
X5.32Y-4.23
X5.33Y-3.58
X5.33Y-4.2
X5.5Y-3.54
X5.5Y-4.16
X5.52Y-3.57
X5.52Y-4.19
X5.53Y-3.54
X5.53Y-4.16
X5.54Y-3.6
X5.54Y-4.22
X5.55Y-3.57
X5.55Y-4.19
X5.56Y-3.54
X5.56Y-4.16
X5.57Y-3.6
X5.57Y-4.22
X5.58Y-3.57
X5.58Y-4.19
X5.6Y-3.6
X5.6Y-4.22
X5.636Y-2.424
X5.759Y-3.872
X5.76Y-4.12
X5.775Y-3.145
X5.785Y-2.9
X5.865Y-3.1
X5.91Y-5.25
X5.9244Y-2.9
X5.926Y-2.403
X5.926Y-3.145
X6.064Y-2.925
X6.075Y-2.553
X6.093Y-3.915
X6.1Y-3.8343
X6.1338Y-3.897
X6.15Y-3.87
X6.15Y-5.18
X6.175Y-2.555
X6.24Y-3.81
X6.27Y-3.259
X6.3Y-3.89
X6.3Y-5.235
X6.312Y-2.922
X6.33Y-4.55
X6.332Y-3.399
X6.3507Y-3.259
X6.38Y-4.57
X6.4Y-4.75
X6.45Y-4.75
X6.51Y-4.49
X6.525Y-4.2445
X6.6Y-4.67
X6.6355Y-4.42
X6.66Y-4.239
X6.66Y-4.37
X6.89Y-2.28
X6.89Y-2.31
X6.89Y-2.34
X6.9Y-2.56
X6.9Y-2.59
X6.9Y-2.62
X6.92Y-2.29
X6.92Y-2.32
X6.92Y-2.35
X6.93Y-2.54
X6.93Y-2.57
X6.93Y-2.6
X6.95Y-2.28
X6.95Y-2.31
X6.95Y-2.34
X6.96Y-2.52
X6.96Y-2.55
X6.96Y-2.58
X6.97Y-4.45
X6.98Y-4.2
X6.98Y-4.3
X7.54Y-2.28
X7.54Y-2.31
X7.54Y-2.34
X7.55Y-2.56
X7.55Y-2.59
X7.55Y-2.62
X7.57Y-2.29
X7.57Y-2.32
X7.57Y-2.35
X7.57Y-4.82
X7.58Y-2.54
X7.58Y-2.57
X7.58Y-2.6
X7.6Y-2.28
X7.6Y-2.31
X7.6Y-2.34
X7.61Y-2.52
X7.61Y-2.55
X7.61Y-2.58
X8.0Y-2.282
X8.0Y-2.4305
X8.099Y-2.282
X8.4Y-3.88
X8.4Y-4.53
X8.406Y-3.028
X8.419Y-3.256
X8.42Y-3.91
X8.42Y-4.56
X8.43Y-3.88
X8.43Y-4.53
X8.44Y-3.94
X8.44Y-4.59
X8.45Y-3.91
X8.45Y-4.56
X8.46Y-3.88
X8.46Y-4.53
X8.47Y-3.94
X8.47Y-4.59
X8.47Y-5.175
X8.48Y-3.91
X8.48Y-4.56
X8.5Y-3.94
X8.5Y-4.59
X8.67Y-3.9
X8.67Y-4.55
X8.68Y-3.87
X8.68Y-3.93
X8.68Y-4.52
X8.68Y-4.58
X8.7Y-3.9
X8.7Y-4.55
X8.71Y-3.87
X8.71Y-3.93
X8.71Y-4.52
X8.71Y-4.58
X8.73Y-3.9
X8.73Y-4.55
X8.74Y-3.87
X8.74Y-3.93
X8.74Y-4.52
X8.74Y-4.58
X8.747Y-3.057
X8.755Y-2.93
X8.785Y-3.035
X8.81Y-3.01
X8.874Y-2.929
T2
X5.2193Y-5.0922
X5.2193Y-5.1315
X5.2193Y-5.1709
X5.2389Y-5.1119
X5.2389Y-5.1512
X5.2586Y-5.0922
X5.2586Y-5.1315
X5.2586Y-5.1709
X5.2778Y-5.1512
X5.2783Y-5.1119
X5.298Y-5.0922
X5.298Y-5.1315
X5.298Y-5.1709
X5.3177Y-5.1119
X5.3177Y-5.1512
X5.3374Y-5.0922
X5.3374Y-5.1315
X5.3374Y-5.1709
X5.3571Y-5.1119
X5.3571Y-5.1512
X5.3767Y-5.0922
X5.3767Y-5.1315
X5.3767Y-5.1709
X5.7463Y-4.6356
X5.7463Y-4.675
X5.7463Y-4.7144
X5.7659Y-4.6553
X5.7659Y-4.6947
X5.7856Y-4.6356
X5.7856Y-4.675
X5.7856Y-4.7144
X5.8048Y-4.6946
X5.8053Y-4.6553
X5.825Y-4.6356
X5.825Y-4.675
X5.825Y-4.7144
X5.8447Y-4.6553
X5.8447Y-4.6947
X5.8644Y-4.6356
X5.8644Y-4.675
X5.8644Y-4.7144
X5.8841Y-4.6553
X5.8841Y-4.6947
X5.9037Y-4.6356
X5.9037Y-4.675
X5.9037Y-4.7144
X6.1963Y-4.8856
X6.1963Y-4.925
X6.1963Y-4.9644
X6.2159Y-4.9053
X6.2159Y-4.9447
X6.2356Y-4.8856
X6.2356Y-4.925
X6.2356Y-4.9644
X6.2548Y-4.9446
X6.2553Y-4.9053
X6.275Y-4.8856
X6.275Y-4.925
X6.275Y-4.9644
X6.2947Y-4.9053
X6.2947Y-4.9447
X6.3144Y-4.8856
X6.3144Y-4.925
X6.3144Y-4.9644
X6.3341Y-4.9053
X6.3341Y-4.9447
X6.3537Y-4.8856
X6.3537Y-4.925
X6.3537Y-4.9644
X6.5863Y-3.3306
X6.5863Y-3.37
X6.5863Y-3.4094
X6.6059Y-3.3503
X6.6059Y-3.3897
X6.6256Y-3.3306
X6.6256Y-3.37
X6.6256Y-3.4094
X6.6448Y-3.3896
X6.6453Y-3.3503
X6.665Y-3.3306
X6.665Y-3.37
X6.665Y-3.4094
X6.6847Y-3.3503
X6.6847Y-3.3897
X6.6963Y-5.8106
X6.6963Y-5.85
X6.6963Y-5.8894
X6.7044Y-3.3306
X6.7044Y-3.37
X6.7044Y-3.4094
X6.7159Y-5.8303
X6.7159Y-5.8697
X6.7241Y-3.3503
X6.7241Y-3.3897
X6.7356Y-5.8106
X6.7356Y-5.85
X6.7356Y-5.8894
X6.7437Y-3.3306
X6.7437Y-3.37
X6.7437Y-3.4094
X6.7548Y-5.8696
X6.7553Y-5.8303
X6.775Y-5.8106
X6.775Y-5.85
X6.775Y-5.8894
X6.7947Y-5.8303
X6.7947Y-5.8697
X6.8144Y-5.8106
X6.8144Y-5.85
X6.8144Y-5.8894
X6.8341Y-5.8303
X6.8341Y-5.8697
X6.8537Y-5.8106
X6.8537Y-5.85
X6.8537Y-5.8894
X8.3613Y-5.2706
X8.3613Y-5.31
X8.3613Y-5.3494
X8.3613Y-5.7106
X8.3613Y-5.75
X8.3613Y-5.7894
X8.3809Y-5.2903
X8.3809Y-5.3297
X8.3809Y-5.7303
X8.3809Y-5.7697
X8.4006Y-5.2706
X8.4006Y-5.31
X8.4006Y-5.3494
X8.4006Y-5.7106
X8.4006Y-5.75
X8.4006Y-5.7894
X8.4198Y-5.3296
X8.4198Y-5.7696
X8.4203Y-5.2903
X8.4203Y-5.7303
X8.44Y-5.2706
X8.44Y-5.31
X8.44Y-5.3494
X8.44Y-5.7106
X8.44Y-5.75
X8.44Y-5.7894
X8.4597Y-5.2903
X8.4597Y-5.3297
X8.4597Y-5.7303
X8.4597Y-5.7697
X8.4794Y-5.2706
X8.4794Y-5.31
X8.4794Y-5.3494
X8.4794Y-5.7106
X8.4794Y-5.75
X8.4794Y-5.7894
X8.4991Y-5.2903
X8.4991Y-5.3297
X8.4991Y-5.7303
X8.4991Y-5.7697
X8.5187Y-5.2706
X8.5187Y-5.31
X8.5187Y-5.3494
X8.5187Y-5.7106
X8.5187Y-5.75
X8.5187Y-5.7894
X8.6013Y-2.5706
X8.6013Y-2.61
X8.6013Y-2.6494
X8.6209Y-2.5903
X8.6209Y-2.6297
X8.6406Y-2.5706
X8.6406Y-2.61
X8.6406Y-2.6494
X8.6598Y-2.6296
X8.6603Y-2.5903
X8.68Y-2.5706
X8.68Y-2.61
X8.68Y-2.6494
X8.6997Y-2.5903
X8.6997Y-2.6297
X8.7194Y-2.5706
X8.7194Y-2.61
X8.7194Y-2.6494
X8.7391Y-2.5903
X8.7391Y-2.6297
X8.7587Y-2.5706
X8.7587Y-2.61
X8.7587Y-2.6494
T3
X7.175Y-4.175
X7.175Y-4.275
X7.175Y-4.375
X7.175Y-4.475
X7.175Y-4.575
X7.175Y-4.675
X7.175Y-4.775
X7.175Y-4.875
X7.175Y-4.975
X7.175Y-5.075
X7.175Y-5.175
X7.175Y-5.275
X7.175Y-5.375
X7.175Y-5.475
X7.175Y-5.575
X8.175Y-4.175
X8.175Y-4.275
X8.175Y-4.375
X8.175Y-4.475
X8.175Y-4.575
X8.175Y-4.675
X8.175Y-4.775
X8.175Y-4.875
X8.175Y-4.975
X8.175Y-5.075
X8.175Y-5.175
X8.175Y-5.275
X8.175Y-5.375
X8.175Y-5.475
X8.175Y-5.575
T4
X6.95Y-3.02
X6.95Y-3.12
X6.95Y-3.22
X6.95Y-3.32
X6.95Y-3.42
X6.95Y-3.52
X6.95Y-5.65
X8.1Y-3.02
X8.1Y-3.12
X8.1Y-3.22
X8.1Y-3.32
X8.1Y-3.42
X8.1Y-3.52
M30
